var testMidiData = {"header":{"PPQ":480,"timeSignature":[4,4],"bpm":120,"name":""},"startTime":0,"duration":16,"tracks":[{"startTime":0,"duration":0,"length":0,"notes":[],"controlChanges":{},"id":0},{"startTime":0,"duration":7.875,"length":32,"notes":[{"name":"D3","midi":50,"time":0,"velocity":0.7716535433070866,"duration":0.22395833333333334},{"name":"D3","midi":50,"time":0.375,"velocity":0.7716535433070866,"duration":0.12812500000000004},{"name":"A2","midi":45,"time":0.625,"velocity":0.7716535433070866,"duration":0.125},{"name":"C3","midi":48,"time":0.75,"velocity":0.7716535433070866,"duration":0.125},{"name":"D3","midi":50,"time":1,"velocity":0.7716535433070866,"duration":0.125},{"name":"D3","midi":50,"time":1.25,"velocity":0.7716535433070866,"duration":0.125},{"name":"C3","midi":48,"time":1.5,"velocity":0.7716535433070866,"duration":0.125},{"name":"C3","midi":48,"time":1.75,"velocity":0.7716535433070866,"duration":0.125},{"name":"A#2","midi":46,"time":2,"velocity":0.7716535433070866,"duration":0.22083333333333321},{"name":"A#2","midi":46,"time":2.375,"velocity":0.7716535433070866,"duration":0.125},{"name":"A2","midi":45,"time":2.625,"velocity":0.7716535433070866,"duration":0.125},{"name":"A#2","midi":46,"time":2.75,"velocity":0.7716535433070866,"duration":0.125},{"name":"A#2","midi":46,"time":3,"velocity":0.7716535433070866,"duration":0.125},{"name":"C3","midi":48,"time":3.25,"velocity":0.7716535433070866,"duration":0.125},{"name":"A#2","midi":46,"time":3.5,"velocity":0.7716535433070866,"duration":0.12916666666666687},{"name":"A2","midi":45,"time":3.75,"velocity":0.7716535433070866,"duration":0.125},{"name":"G2","midi":43,"time":4,"velocity":0.7716535433070866,"duration":0.25},{"name":"G2","midi":43,"time":4.375,"velocity":0.7716535433070866,"duration":0.125},{"name":"F2","midi":41,"time":4.625,"velocity":0.7716535433070866,"duration":0.125},{"name":"G2","midi":43,"time":4.75,"velocity":0.7716535433070866,"duration":0.125},{"name":"G2","midi":43,"time":5,"velocity":0.7716535433070866,"duration":0.125},{"name":"G2","midi":43,"time":5.25,"velocity":0.7716535433070866,"duration":0.125},{"name":"A2","midi":45,"time":5.5,"velocity":0.7716535433070866,"duration":0.125},{"name":"G2","midi":43,"time":5.75,"velocity":0.7716535433070866,"duration":0.125},{"name":"A#2","midi":46,"time":6,"velocity":0.7716535433070866,"duration":0.25},{"name":"A#2","midi":46,"time":6.375,"velocity":0.7716535433070866,"duration":0.125},{"name":"A2","midi":45,"time":6.625,"velocity":0.7716535433070866,"duration":0.125},{"name":"A#2","midi":46,"time":6.75,"velocity":0.7716535433070866,"duration":0.125},{"name":"A#2","midi":46,"time":7,"velocity":0.7716535433070866,"duration":0.125},{"name":"A#2","midi":46,"time":7.25,"velocity":0.7716535433070866,"duration":0.125},{"name":"C3","midi":48,"time":7.5,"velocity":0.7716535433070866,"duration":0.125},{"name":"A#2","midi":46,"time":7.75,"velocity":0.7716535433070866,"duration":0.125}],"controlChanges":{},"id":1,"name":"Picked Bass","channelNumber":0,"isPercussion":false},{"startTime":8,"duration":15.875,"length":32,"notes":[{"name":"D3","midi":50,"time":8,"velocity":0.7716535433070866,"duration":0.22395833333333393},{"name":"D3","midi":50,"time":8.375,"velocity":0.7716535433070866,"duration":0.1281250000000007},{"name":"A2","midi":45,"time":8.625,"velocity":0.7716535433070866,"duration":0.125},{"name":"C3","midi":48,"time":8.75,"velocity":0.7716535433070866,"duration":0.125},{"name":"D3","midi":50,"time":9,"velocity":0.7716535433070866,"duration":0.125},{"name":"D3","midi":50,"time":9.25,"velocity":0.7716535433070866,"duration":0.125},{"name":"C3","midi":48,"time":9.5,"velocity":0.7716535433070866,"duration":0.125},{"name":"C3","midi":48,"time":9.75,"velocity":0.7716535433070866,"duration":0.125},{"name":"A#2","midi":46,"time":10,"velocity":0.7716535433070866,"duration":0.22083333333333321},{"name":"A#2","midi":46,"time":10.375,"velocity":0.7716535433070866,"duration":0.125},{"name":"A2","midi":45,"time":10.625,"velocity":0.7716535433070866,"duration":0.125},{"name":"A#2","midi":46,"time":10.75,"velocity":0.7716535433070866,"duration":0.125},{"name":"A#2","midi":46,"time":11,"velocity":0.7716535433070866,"duration":0.125},{"name":"C3","midi":48,"time":11.25,"velocity":0.7716535433070866,"duration":0.125},{"name":"A#2","midi":46,"time":11.5,"velocity":0.7716535433070866,"duration":0.12916666666666643},{"name":"A2","midi":45,"time":11.75,"velocity":0.7716535433070866,"duration":0.125},{"name":"G2","midi":43,"time":12,"velocity":0.7716535433070866,"duration":0.25},{"name":"G2","midi":43,"time":12.375,"velocity":0.7716535433070866,"duration":0.125},{"name":"F2","midi":41,"time":12.625,"velocity":0.7716535433070866,"duration":0.125},{"name":"G2","midi":43,"time":12.75,"velocity":0.7716535433070866,"duration":0.125},{"name":"G2","midi":43,"time":13,"velocity":0.7716535433070866,"duration":0.125},{"name":"G2","midi":43,"time":13.25,"velocity":0.7716535433070866,"duration":0.125},{"name":"A2","midi":45,"time":13.5,"velocity":0.7716535433070866,"duration":0.125},{"name":"G2","midi":43,"time":13.75,"velocity":0.7716535433070866,"duration":0.125},{"name":"A#2","midi":46,"time":14,"velocity":0.7716535433070866,"duration":0.25},{"name":"A#2","midi":46,"time":14.375,"velocity":0.7716535433070866,"duration":0.125},{"name":"A2","midi":45,"time":14.625,"velocity":0.7716535433070866,"duration":0.125},{"name":"A#2","midi":46,"time":14.75,"velocity":0.7716535433070866,"duration":0.125},{"name":"A#2","midi":46,"time":15,"velocity":0.7716535433070866,"duration":0.125},{"name":"A#2","midi":46,"time":15.25,"velocity":0.7716535433070866,"duration":0.125},{"name":"C3","midi":48,"time":15.5,"velocity":0.7716535433070866,"duration":0.125},{"name":"A#2","midi":46,"time":15.75,"velocity":0.7716535433070866,"duration":0.125}],"controlChanges":{},"id":2,"name":"Picked Bass","channelNumber":0,"isPercussion":false},{"startTime":0,"duration":8,"length":65,"notes":[{"name":"C2","midi":36,"time":0,"velocity":0.7401574803149606,"duration":0.12395833333333334},{"name":"A3","midi":57,"time":0,"velocity":0.5590551181102362,"duration":0.12395833333333334},{"name":"B3","midi":59,"time":0.24895833333333334,"velocity":0.2440944881889764,"duration":0.11041666666666666},{"name":"D#3","midi":51,"time":0.49895833333333334,"velocity":0.6141732283464567,"duration":0.12499999999999994},{"name":"D2","midi":38,"time":0.5020833333333333,"velocity":0.7244094488188977,"duration":0.125},{"name":"B3","midi":59,"time":0.7489583333333333,"velocity":0.2755905511811024,"duration":0.11145833333333333},{"name":"D2","midi":38,"time":0.9093749999999999,"velocity":0.5984251968503937,"duration":0.1250000000000001},{"name":"D#3","midi":51,"time":0.9989583333333333,"velocity":0.5118110236220472,"duration":0.1250000000000001},{"name":"D2","midi":38,"time":1.1625,"velocity":0.23622047244094488,"duration":0.125},{"name":"C2","midi":36,"time":1.2479166666666668,"velocity":0.7401574803149606,"duration":0.12499999999999978},{"name":"B3","midi":59,"time":1.2479166666666668,"velocity":0.28346456692913385,"duration":0.11145833333333321},{"name":"D#3","midi":51,"time":1.4989583333333332,"velocity":0.6456692913385826,"duration":0.125},{"name":"D2","midi":38,"time":1.5010416666666666,"velocity":0.7244094488188977,"duration":0.125},{"name":"C2","midi":36,"time":1.75,"velocity":0.5196850393700787,"duration":0.12499999999999978},{"name":"B3","midi":59,"time":1.7510416666666666,"velocity":0.28346456692913385,"duration":0.11041666666666661},{"name":"D2","midi":38,"time":1.9104166666666664,"velocity":0.25984251968503935,"duration":0.125},{"name":"C2","midi":36,"time":1.9999999999999998,"velocity":0.7401574803149606,"duration":0.12499999999999978},{"name":"D#3","midi":51,"time":1.9999999999999998,"velocity":0.6220472440944882,"duration":0.12499999999999978},{"name":"C2","midi":36,"time":2.248958333333333,"velocity":0.6456692913385826,"duration":0.125},{"name":"B3","midi":59,"time":2.248958333333333,"velocity":0.2992125984251969,"duration":0.11145833333333321},{"name":"D#3","midi":51,"time":2.4999999999999996,"velocity":0.6692913385826772,"duration":0.125},{"name":"D2","midi":38,"time":2.501041666666666,"velocity":0.7244094488188977,"duration":0.125},{"name":"D#3","midi":51,"time":2.7479166666666663,"velocity":0.29133858267716534,"duration":0.125},{"name":"D2","midi":38,"time":2.908333333333333,"velocity":0.5984251968503937,"duration":0.125},{"name":"D#3","midi":51,"time":3.0010416666666666,"velocity":0.4566929133858268,"duration":0.125},{"name":"D2","midi":38,"time":3.1645833333333333,"velocity":0.2440944881889764,"duration":0.125},{"name":"C2","midi":36,"time":3.2489583333333334,"velocity":0.7401574803149606,"duration":0.125},{"name":"B3","midi":59,"time":3.2489583333333334,"velocity":0.29133858267716534,"duration":0.11041666666666661},{"name":"D#3","midi":51,"time":3.5,"velocity":0.6535433070866141,"duration":0.125},{"name":"D2","midi":38,"time":3.5010416666666666,"velocity":0.7244094488188977,"duration":0.125},{"name":"C2","midi":36,"time":3.75,"velocity":0.5196850393700787,"duration":0.125},{"name":"D#3","midi":51,"time":3.75,"velocity":0.30708661417322836,"duration":0.125},{"name":"D2","midi":38,"time":3.910416666666667,"velocity":0.2125984251968504,"duration":0.12499999999999956},{"name":"C2","midi":36,"time":4,"velocity":0.7401574803149606,"duration":0.125},{"name":"D#3","midi":51,"time":4,"velocity":0.6299212598425197,"duration":0.125},{"name":"B3","midi":59,"time":4.25,"velocity":0.29133858267716534,"duration":0.11145833333333321},{"name":"D#3","midi":51,"time":4.498958333333333,"velocity":0.6299212598425197,"duration":0.125},{"name":"D2","midi":38,"time":4.501041666666667,"velocity":0.7244094488188977,"duration":0.125},{"name":"B3","midi":59,"time":4.75,"velocity":0.2992125984251969,"duration":0.11041666666666661},{"name":"D2","midi":38,"time":4.909375,"velocity":0.5984251968503937,"duration":0.125},{"name":"D#3","midi":51,"time":4.997916666666667,"velocity":0.49606299212598426,"duration":0.125},{"name":"D2","midi":38,"time":5.163541666666667,"velocity":0.25196850393700787,"duration":0.12499999999999911},{"name":"C2","midi":36,"time":5.248958333333333,"velocity":0.7401574803149606,"duration":0.125},{"name":"B3","midi":59,"time":5.251041666666667,"velocity":0.28346456692913385,"duration":0.11041666666666661},{"name":"D#3","midi":51,"time":5.498958333333333,"velocity":0.6535433070866141,"duration":0.125},{"name":"D2","midi":38,"time":5.501041666666667,"velocity":0.7244094488188977,"duration":0.125},{"name":"C2","midi":36,"time":5.747916666666667,"velocity":0.5196850393700787,"duration":0.125},{"name":"D#3","midi":51,"time":5.747916666666667,"velocity":0.30708661417322836,"duration":0.125},{"name":"D2","midi":38,"time":5.910416666666666,"velocity":0.2125984251968504,"duration":0.125},{"name":"C2","midi":36,"time":6,"velocity":0.7401574803149606,"duration":0.125},{"name":"D#3","midi":51,"time":6,"velocity":0.6535433070866141,"duration":0.125},{"name":"C2","midi":36,"time":6.25,"velocity":0.6220472440944882,"duration":0.125},{"name":"D#3","midi":51,"time":6.25,"velocity":0.28346456692913385,"duration":0.125},{"name":"D#3","midi":51,"time":6.498958333333333,"velocity":0.6771653543307087,"duration":0.125},{"name":"D2","midi":38,"time":6.502083333333333,"velocity":0.7244094488188977,"duration":0.125},{"name":"B3","midi":59,"time":6.748958333333333,"velocity":0.2440944881889764,"duration":0.11041666666666661},{"name":"D2","midi":38,"time":6.910416666666666,"velocity":0.2204724409448819,"duration":0.125},{"name":"D#3","midi":51,"time":7,"velocity":0.5118110236220472,"duration":0.125},{"name":"D2","midi":38,"time":7.163541666666666,"velocity":0.23622047244094488,"duration":0.125},{"name":"C3","midi":48,"time":7.251041666666667,"velocity":0.6220472440944882,"duration":0.125},{"name":"D2","midi":38,"time":7.375,"velocity":0.7401574803149606,"duration":0.125},{"name":"D2","midi":38,"time":7.5,"velocity":0.6220472440944882,"duration":0.125},{"name":"D2","midi":38,"time":7.625,"velocity":0.6220472440944882,"duration":0.125},{"name":"A2","midi":45,"time":7.75,"velocity":0.7401574803149606,"duration":0.125},{"name":"A2","midi":45,"time":7.875,"velocity":0.7401574803149606,"duration":0.125}],"controlChanges":{},"id":3,"name":"Drummer","channelNumber":0,"isPercussion":false},{"startTime":7.998958333333333,"duration":16,"length":65,"notes":[{"name":"C2","midi":36,"time":7.998958333333333,"velocity":0.7401574803149606,"duration":0.1250000000000009},{"name":"A3","midi":57,"time":7.998958333333333,"velocity":0.5590551181102362,"duration":0.1250000000000009},{"name":"B3","midi":59,"time":8.248958333333334,"velocity":0.2440944881889764,"duration":0.1104166666666675},{"name":"D#3","midi":51,"time":8.498958333333334,"velocity":0.6141732283464567,"duration":0.125},{"name":"D2","midi":38,"time":8.502083333333335,"velocity":0.7244094488188977,"duration":0.125},{"name":"B3","midi":59,"time":8.748958333333334,"velocity":0.2755905511811024,"duration":0.11145833333333321},{"name":"D2","midi":38,"time":8.909375,"velocity":0.5984251968503937,"duration":0.125},{"name":"D#3","midi":51,"time":8.998958333333334,"velocity":0.5118110236220472,"duration":0.125},{"name":"D2","midi":38,"time":9.162500000000001,"velocity":0.23622047244094488,"duration":0.125},{"name":"C2","midi":36,"time":9.247916666666669,"velocity":0.7401574803149606,"duration":0.125},{"name":"B3","midi":59,"time":9.247916666666669,"velocity":0.28346456692913385,"duration":0.11145833333333321},{"name":"D#3","midi":51,"time":9.498958333333336,"velocity":0.6456692913385826,"duration":0.125},{"name":"D2","midi":38,"time":9.50104166666667,"velocity":0.7244094488188977,"duration":0.125},{"name":"C2","midi":36,"time":9.750000000000002,"velocity":0.5196850393700787,"duration":0.12500000000000178},{"name":"B3","midi":59,"time":9.75104166666667,"velocity":0.28346456692913385,"duration":0.1104166666666675},{"name":"D2","midi":38,"time":9.91041666666667,"velocity":0.25984251968503935,"duration":0.125},{"name":"C2","midi":36,"time":10.000000000000004,"velocity":0.7401574803149606,"duration":0.125},{"name":"D#3","midi":51,"time":10.000000000000004,"velocity":0.6220472440944882,"duration":0.125},{"name":"C2","midi":36,"time":10.248958333333336,"velocity":0.6456692913385826,"duration":0.125},{"name":"B3","midi":59,"time":10.248958333333336,"velocity":0.2992125984251969,"duration":0.11145833333333321},{"name":"D#3","midi":51,"time":10.500000000000004,"velocity":0.6692913385826772,"duration":0.125},{"name":"D2","midi":38,"time":10.501041666666671,"velocity":0.7244094488188977,"duration":0.125},{"name":"D#3","midi":51,"time":10.74791666666667,"velocity":0.29133858267716534,"duration":0.125},{"name":"D2","midi":38,"time":10.908333333333337,"velocity":0.5984251968503937,"duration":0.125},{"name":"D#3","midi":51,"time":11.00104166666667,"velocity":0.4566929133858268,"duration":0.125},{"name":"D2","midi":38,"time":11.164583333333336,"velocity":0.2440944881889764,"duration":0.125},{"name":"C2","midi":36,"time":11.248958333333336,"velocity":0.7401574803149606,"duration":0.125},{"name":"B3","midi":59,"time":11.248958333333336,"velocity":0.29133858267716534,"duration":0.1104166666666675},{"name":"D#3","midi":51,"time":11.500000000000004,"velocity":0.6535433070866141,"duration":0.125},{"name":"D2","midi":38,"time":11.501041666666671,"velocity":0.7244094488188977,"duration":0.125},{"name":"C2","midi":36,"time":11.750000000000004,"velocity":0.5196850393700787,"duration":0.125},{"name":"D#3","midi":51,"time":11.750000000000004,"velocity":0.30708661417322836,"duration":0.125},{"name":"D2","midi":38,"time":11.91041666666667,"velocity":0.2125984251968504,"duration":0.125},{"name":"C2","midi":36,"time":12.000000000000004,"velocity":0.7401574803149606,"duration":0.125},{"name":"D#3","midi":51,"time":12.000000000000004,"velocity":0.6299212598425197,"duration":0.125},{"name":"B3","midi":59,"time":12.250000000000004,"velocity":0.29133858267716534,"duration":0.11145833333333321},{"name":"D#3","midi":51,"time":12.498958333333336,"velocity":0.6299212598425197,"duration":0.125},{"name":"D2","midi":38,"time":12.50104166666667,"velocity":0.7244094488188977,"duration":0.125},{"name":"B3","midi":59,"time":12.750000000000002,"velocity":0.2992125984251969,"duration":0.1104166666666675},{"name":"D2","midi":38,"time":12.909375000000002,"velocity":0.5984251968503937,"duration":0.125},{"name":"D#3","midi":51,"time":12.997916666666669,"velocity":0.49606299212598426,"duration":0.125},{"name":"D2","midi":38,"time":13.163541666666669,"velocity":0.25196850393700787,"duration":0.125},{"name":"C2","midi":36,"time":13.248958333333336,"velocity":0.7401574803149606,"duration":0.12499999999999822},{"name":"B3","midi":59,"time":13.25104166666667,"velocity":0.28346456692913385,"duration":0.11041666666666572},{"name":"D#3","midi":51,"time":13.498958333333334,"velocity":0.6535433070866141,"duration":0.125},{"name":"D2","midi":38,"time":13.501041666666667,"velocity":0.7244094488188977,"duration":0.125},{"name":"C2","midi":36,"time":13.747916666666667,"velocity":0.5196850393700787,"duration":0.125},{"name":"D#3","midi":51,"time":13.747916666666667,"velocity":0.30708661417322836,"duration":0.125},{"name":"D2","midi":38,"time":13.910416666666666,"velocity":0.2125984251968504,"duration":0.125},{"name":"C2","midi":36,"time":14,"velocity":0.7401574803149606,"duration":0.125},{"name":"D#3","midi":51,"time":14,"velocity":0.6535433070866141,"duration":0.125},{"name":"C2","midi":36,"time":14.25,"velocity":0.6220472440944882,"duration":0.125},{"name":"D#3","midi":51,"time":14.25,"velocity":0.28346456692913385,"duration":0.125},{"name":"D#3","midi":51,"time":14.498958333333333,"velocity":0.6771653543307087,"duration":0.125},{"name":"D2","midi":38,"time":14.502083333333333,"velocity":0.7244094488188977,"duration":0.125},{"name":"B3","midi":59,"time":14.748958333333333,"velocity":0.2440944881889764,"duration":0.1104166666666675},{"name":"D2","midi":38,"time":14.910416666666666,"velocity":0.2204724409448819,"duration":0.125},{"name":"D#3","midi":51,"time":15,"velocity":0.5118110236220472,"duration":0.125},{"name":"D2","midi":38,"time":15.163541666666667,"velocity":0.23622047244094488,"duration":0.125},{"name":"C3","midi":48,"time":15.251041666666667,"velocity":0.6220472440944882,"duration":0.125},{"name":"D2","midi":38,"time":15.375,"velocity":0.7401574803149606,"duration":0.125},{"name":"D2","midi":38,"time":15.5,"velocity":0.6220472440944882,"duration":0.125},{"name":"D2","midi":38,"time":15.625,"velocity":0.6220472440944882,"duration":0.125},{"name":"A2","midi":45,"time":15.75,"velocity":0.7401574803149606,"duration":0.125},{"name":"A2","midi":45,"time":15.875,"velocity":0.7401574803149606,"duration":0.125}],"controlChanges":{},"id":4,"name":"Drummer","channelNumber":0,"isPercussion":false}]};