var testMidiData = {"header":{"PPQ":960,"timeSignature":[4,4],"bpm":110.9999056500802,"name":""},"startTime":0,"duration":229.4590914364639,"tracks":[{"startTime":0,"duration":0,"length":0,"notes":[],"controlChanges":{},"id":0},{"startTime":2.162164,"duration":229.05368568646614,"length":1519,"notes":[{"name":"E2","midi":40,"time":2.162164,"velocity":0.5039370078740157,"duration":0.13457218645833313},{"name":"B2","midi":47,"time":2.29729925,"velocity":0.5039370078740157,"duration":0.13457218645833358},{"name":"B2","midi":47,"time":2.4324345000000003,"velocity":0.5039370078740157,"duration":0.13457218645833358},{"name":"E2","midi":40,"time":2.5675697500000005,"velocity":0.5039370078740157,"duration":0.13457218645833358},{"name":"A#2","midi":46,"time":2.702705000000001,"velocity":0.5039370078740157,"duration":0.13457218645833358},{"name":"A#2","midi":46,"time":2.837840250000001,"velocity":0.5039370078740157,"duration":0.13457218645833358},{"name":"E2","midi":40,"time":2.9729755000000013,"velocity":0.5039370078740157,"duration":0.13457218645833358},{"name":"B2","midi":47,"time":3.1081107500000016,"velocity":0.5039370078740157,"duration":0.13457218645833358},{"name":"B2","midi":47,"time":3.243246000000002,"velocity":0.5039370078740157,"duration":0.13457218645833358},{"name":"E2","midi":40,"time":3.378381250000002,"velocity":0.5039370078740157,"duration":0.13457218645833358},{"name":"E3","midi":52,"time":3.5135165000000024,"velocity":0.5039370078740157,"duration":0.13457218645833358},{"name":"E2","midi":40,"time":3.6486517500000026,"velocity":0.5039370078740157,"duration":0.13457218645833358},{"name":"D3","midi":50,"time":3.783787000000003,"velocity":0.5039370078740157,"duration":0.13457218645833358},{"name":"E2","midi":40,"time":3.918922250000003,"velocity":0.5039370078740157,"duration":0.13457218645833358},{"name":"A2","midi":45,"time":4.054057500000003,"velocity":0.5039370078740157,"duration":0.13457218645833358},{"name":"G#2","midi":44,"time":4.189192750000004,"velocity":0.5039370078740157,"duration":0.13457218645833358},{"name":"E2","midi":40,"time":4.324328000000004,"velocity":0.5039370078740157,"duration":0.13457218645833358},{"name":"E3","midi":52,"time":4.459463250000004,"velocity":0.5039370078740157,"duration":0.13457218645833358},{"name":"E3","midi":52,"time":4.5945985000000045,"velocity":0.5039370078740157,"duration":0.13457218645833358},{"name":"E2","midi":40,"time":4.729733750000005,"velocity":0.5039370078740157,"duration":0.13457218645833358},{"name":"G#2","midi":44,"time":4.864869000000005,"velocity":0.5039370078740157,"duration":0.13457218645833358},{"name":"A2","midi":45,"time":5.000004250000005,"velocity":0.5039370078740157,"duration":0.13457218645833358},{"name":"E2","midi":40,"time":5.1351395000000055,"velocity":0.5039370078740157,"duration":0.13457218645833358},{"name":"A#2","midi":46,"time":5.270274750000006,"velocity":0.5039370078740157,"duration":0.13457218645833358},{"name":"E2","midi":40,"time":5.405410000000006,"velocity":0.5039370078740157,"duration":0.13457218645833358},{"name":"B2","midi":47,"time":5.540545250000006,"velocity":0.5039370078740157,"duration":0.13457218645833358},{"name":"D3","midi":50,"time":5.675680500000007,"velocity":0.5039370078740157,"duration":0.13457218645833358},{"name":"B2","midi":47,"time":5.810815750000007,"velocity":0.5039370078740157,"duration":0.13457218645833358},{"name":"E2","midi":40,"time":5.945951000000007,"velocity":0.5039370078740157,"duration":0.13457218645833358},{"name":"B2","midi":47,"time":6.081086250000007,"velocity":0.5039370078740157,"duration":0.13457218645833358},{"name":"B2","midi":47,"time":6.216221500000008,"velocity":0.5039370078740157,"duration":0.13457218645833358},{"name":"E2","midi":40,"time":6.351356750000008,"velocity":0.5039370078740157,"duration":0.13457218645833358},{"name":"A#2","midi":46,"time":6.486492000000008,"velocity":0.5039370078740157,"duration":0.13457218645833358},{"name":"A#2","midi":46,"time":6.621627250000008,"velocity":0.5039370078740157,"duration":0.13457218645833358},{"name":"E2","midi":40,"time":6.756762500000009,"velocity":0.5039370078740157,"duration":0.13457218645833358},{"name":"B2","midi":47,"time":6.891897750000009,"velocity":0.5039370078740157,"duration":0.13457218645833358},{"name":"B2","midi":47,"time":7.027033000000009,"velocity":0.5039370078740157,"duration":0.13457218645833358},{"name":"E2","midi":40,"time":7.1621682500000095,"velocity":0.5039370078740157,"duration":0.13457218645833358},{"name":"E3","midi":52,"time":7.29730350000001,"velocity":0.5039370078740157,"duration":0.13457218645833358},{"name":"E2","midi":40,"time":7.43243875000001,"velocity":0.5039370078740157,"duration":0.13457218645833358},{"name":"D3","midi":50,"time":7.56757400000001,"velocity":0.5039370078740157,"duration":0.13457218645833358},{"name":"E2","midi":40,"time":7.7027092500000105,"velocity":0.5039370078740157,"duration":0.13457218645833358},{"name":"A2","midi":45,"time":7.837844500000011,"velocity":0.5039370078740157,"duration":0.13457218645833358},{"name":"G#2","midi":44,"time":7.972979750000011,"velocity":0.5039370078740157,"duration":0.13457218645833358},{"name":"E2","midi":40,"time":8.10811500000001,"velocity":0.5039370078740157,"duration":0.13457218645833358},{"name":"E3","midi":52,"time":8.24325025000001,"velocity":0.5039370078740157,"duration":0.13457218645833358},{"name":"E3","midi":52,"time":8.37838550000001,"velocity":0.5039370078740157,"duration":0.13457218645833358},{"name":"E2","midi":40,"time":8.513520750000009,"velocity":0.5039370078740157,"duration":0.13457218645833358},{"name":"G#2","midi":44,"time":8.648656000000008,"velocity":0.5039370078740157,"duration":0.13457218645833358},{"name":"A2","midi":45,"time":8.783791250000007,"velocity":0.5039370078740157,"duration":0.13457218645833358},{"name":"E2","midi":40,"time":8.918926500000007,"velocity":0.5039370078740157,"duration":0.13457218645833358},{"name":"A#2","midi":46,"time":9.054061750000006,"velocity":0.5039370078740157,"duration":0.13457218645833358},{"name":"E2","midi":40,"time":9.189197000000005,"velocity":0.5039370078740157,"duration":0.13457218645833358},{"name":"B2","midi":47,"time":9.324332250000005,"velocity":0.5039370078740157,"duration":0.13457218645833358},{"name":"D3","midi":50,"time":9.459467500000004,"velocity":0.5039370078740157,"duration":0.13457218645833358},{"name":"B2","midi":47,"time":9.594602750000004,"velocity":0.5039370078740157,"duration":0.13457218645833358},{"name":"E2","midi":40,"time":9.729738000000003,"velocity":0.5039370078740157,"duration":0.13457218645833358},{"name":"B2","midi":47,"time":9.864873250000002,"velocity":0.5039370078740157,"duration":0.13457218645833358},{"name":"B2","midi":47,"time":10.000008500000002,"velocity":0.5039370078740157,"duration":0.13457218645833358},{"name":"E2","midi":40,"time":10.135143750000001,"velocity":0.5039370078740157,"duration":0.13457218645833358},{"name":"A#2","midi":46,"time":10.270279,"velocity":0.5039370078740157,"duration":0.13457218645833358},{"name":"A#2","midi":46,"time":10.40541425,"velocity":0.5039370078740157,"duration":0.13457218645833358},{"name":"E2","midi":40,"time":10.5405495,"velocity":0.5039370078740157,"duration":0.13457218645833358},{"name":"B2","midi":47,"time":10.675684749999999,"velocity":0.5039370078740157,"duration":0.13457218645833358},{"name":"B2","midi":47,"time":10.810819999999998,"velocity":0.5039370078740157,"duration":0.13457218645833358},{"name":"E2","midi":40,"time":10.945955249999997,"velocity":0.5039370078740157,"duration":0.13457218645833358},{"name":"E3","midi":52,"time":11.081090499999997,"velocity":0.5039370078740157,"duration":0.13457218645833358},{"name":"E2","midi":40,"time":11.216225749999996,"velocity":0.5039370078740157,"duration":0.13457218645833358},{"name":"D3","midi":50,"time":11.351360999999995,"velocity":0.5039370078740157,"duration":0.13457218645833358},{"name":"E2","midi":40,"time":11.486496249999995,"velocity":0.5039370078740157,"duration":0.13457218645833358},{"name":"A2","midi":45,"time":11.621631499999994,"velocity":0.5039370078740157,"duration":0.13457218645833358},{"name":"G#2","midi":44,"time":11.756766749999993,"velocity":0.5039370078740157,"duration":0.13457218645833358},{"name":"E2","midi":40,"time":11.891901999999993,"velocity":0.5039370078740157,"duration":0.13457218645833358},{"name":"E3","midi":52,"time":12.027037249999992,"velocity":0.5039370078740157,"duration":0.13457218645833358},{"name":"E3","midi":52,"time":12.162172499999992,"velocity":0.5039370078740157,"duration":0.13457218645833358},{"name":"E2","midi":40,"time":12.297307749999991,"velocity":0.5039370078740157,"duration":0.13457218645833358},{"name":"G#2","midi":44,"time":12.43244299999999,"velocity":0.5039370078740157,"duration":0.13457218645833358},{"name":"A2","midi":45,"time":12.56757824999999,"velocity":0.5039370078740157,"duration":0.13457218645833358},{"name":"E2","midi":40,"time":12.702713499999989,"velocity":0.5039370078740157,"duration":0.13457218645833358},{"name":"A#2","midi":46,"time":12.837848749999988,"velocity":0.5039370078740157,"duration":0.13457218645833358},{"name":"E2","midi":40,"time":12.972983999999988,"velocity":0.5039370078740157,"duration":0.13457218645833358},{"name":"B2","midi":47,"time":13.108119249999987,"velocity":0.5039370078740157,"duration":0.13457218645833358},{"name":"D3","midi":50,"time":13.243254499999987,"velocity":0.5039370078740157,"duration":0.13457218645833358},{"name":"B2","midi":47,"time":13.378389749999986,"velocity":0.5039370078740157,"duration":0.13457218645833358},{"name":"E2","midi":40,"time":13.513524999999985,"velocity":0.5039370078740157,"duration":0.13457218645833358},{"name":"B2","midi":47,"time":13.648660249999985,"velocity":0.5039370078740157,"duration":0.13457218645833358},{"name":"B2","midi":47,"time":13.783795499999984,"velocity":0.5039370078740157,"duration":0.13457218645833358},{"name":"E2","midi":40,"time":13.918930749999983,"velocity":0.5039370078740157,"duration":0.13457218645833358},{"name":"A#2","midi":46,"time":14.054065999999983,"velocity":0.5039370078740157,"duration":0.13457218645833358},{"name":"A#2","midi":46,"time":14.189201249999982,"velocity":0.5039370078740157,"duration":0.13457218645833358},{"name":"E2","midi":40,"time":14.324336499999982,"velocity":0.5039370078740157,"duration":0.13457218645833358},{"name":"B2","midi":47,"time":14.459471749999981,"velocity":0.5039370078740157,"duration":0.13457218645833358},{"name":"B2","midi":47,"time":14.59460699999998,"velocity":0.5039370078740157,"duration":0.13457218645833358},{"name":"E2","midi":40,"time":14.72974224999998,"velocity":0.5039370078740157,"duration":0.13457218645833358},{"name":"E3","midi":52,"time":14.864877499999979,"velocity":0.5039370078740157,"duration":0.13457218645833358},{"name":"E2","midi":40,"time":15.000012749999978,"velocity":0.5039370078740157,"duration":0.13457218645833358},{"name":"D3","midi":50,"time":15.135147999999978,"velocity":0.5039370078740157,"duration":0.13457218645833358},{"name":"E2","midi":40,"time":15.270283249999977,"velocity":0.5039370078740157,"duration":0.13457218645833358},{"name":"A2","midi":45,"time":15.405418499999977,"velocity":0.5039370078740157,"duration":0.13457218645833358},{"name":"G#2","midi":44,"time":15.540553749999976,"velocity":0.5039370078740157,"duration":0.13457218645833358},{"name":"E2","midi":40,"time":15.675688999999975,"velocity":0.5039370078740157,"duration":0.13457218645833358},{"name":"E3","midi":52,"time":15.810824249999975,"velocity":0.5039370078740157,"duration":0.13457218645833358},{"name":"E3","midi":52,"time":15.945959499999974,"velocity":0.5039370078740157,"duration":0.13457218645833358},{"name":"E2","midi":40,"time":16.081094749999973,"velocity":0.5039370078740157,"duration":0.1345721864583318},{"name":"G#2","midi":44,"time":16.21622999999997,"velocity":0.5039370078740157,"duration":0.1345721864583318},{"name":"A2","midi":45,"time":16.35136524999997,"velocity":0.5039370078740157,"duration":0.1345721864583318},{"name":"E2","midi":40,"time":16.486500499999966,"velocity":0.5039370078740157,"duration":0.1345721864583318},{"name":"A#2","midi":46,"time":16.621635749999964,"velocity":0.5039370078740157,"duration":0.1345721864583318},{"name":"E2","midi":40,"time":16.75677099999996,"velocity":0.5039370078740157,"duration":0.1345721864583318},{"name":"B2","midi":47,"time":16.89190624999996,"velocity":0.5039370078740157,"duration":0.1345721864583318},{"name":"D3","midi":50,"time":17.027041499999957,"velocity":0.5039370078740157,"duration":0.1345721864583318},{"name":"E2","midi":40,"time":17.297311999999955,"velocity":0.5039370078740157,"duration":0.1345721864583318},{"name":"B2","midi":47,"time":17.432447249999953,"velocity":0.5039370078740157,"duration":0.1345721864583318},{"name":"B2","midi":47,"time":17.56758249999995,"velocity":0.5039370078740157,"duration":0.1345721864583318},{"name":"E2","midi":40,"time":17.702717749999948,"velocity":0.5039370078740157,"duration":0.1345721864583318},{"name":"A#2","midi":46,"time":17.837852999999946,"velocity":0.5039370078740157,"duration":0.1345721864583318},{"name":"A#2","midi":46,"time":17.972988249999943,"velocity":0.5039370078740157,"duration":0.1345721864583318},{"name":"E2","midi":40,"time":18.10812349999994,"velocity":0.5039370078740157,"duration":0.1345721864583318},{"name":"B2","midi":47,"time":18.24325874999994,"velocity":0.5039370078740157,"duration":0.1345721864583318},{"name":"B2","midi":47,"time":18.378393999999936,"velocity":0.5039370078740157,"duration":0.1345721864583318},{"name":"E2","midi":40,"time":18.513529249999934,"velocity":0.5039370078740157,"duration":0.1345721864583318},{"name":"E3","midi":52,"time":18.64866449999993,"velocity":0.5039370078740157,"duration":0.1345721864583318},{"name":"E2","midi":40,"time":18.78379974999993,"velocity":0.5039370078740157,"duration":0.1345721864583318},{"name":"D3","midi":50,"time":18.918934999999927,"velocity":0.5039370078740157,"duration":0.1345721864583318},{"name":"E2","midi":40,"time":19.054070249999924,"velocity":0.5039370078740157,"duration":0.1345721864583318},{"name":"A2","midi":45,"time":19.18920549999992,"velocity":0.5039370078740157,"duration":0.1345721864583318},{"name":"G#2","midi":44,"time":19.32434074999992,"velocity":0.5039370078740157,"duration":0.1345721864583318},{"name":"E2","midi":40,"time":19.459475999999917,"velocity":0.5039370078740157,"duration":0.1345721864583318},{"name":"E3","midi":52,"time":19.594611249999915,"velocity":0.5039370078740157,"duration":0.1345721864583318},{"name":"E3","midi":52,"time":19.729746499999912,"velocity":0.5039370078740157,"duration":0.1345721864583318},{"name":"E2","midi":40,"time":19.86488174999991,"velocity":0.5039370078740157,"duration":0.1345721864583318},{"name":"G#2","midi":44,"time":20.000016999999907,"velocity":0.5039370078740157,"duration":0.1345721864583318},{"name":"A2","midi":45,"time":20.135152249999905,"velocity":0.5039370078740157,"duration":0.1345721864583318},{"name":"E2","midi":40,"time":20.270287499999903,"velocity":0.5039370078740157,"duration":0.1345721864583318},{"name":"A#2","midi":46,"time":20.4054227499999,"velocity":0.5039370078740157,"duration":0.1345721864583318},{"name":"E2","midi":40,"time":20.540557999999898,"velocity":0.5039370078740157,"duration":0.1345721864583318},{"name":"B2","midi":47,"time":20.675693249999895,"velocity":0.5039370078740157,"duration":0.1345721864583318},{"name":"D3","midi":50,"time":20.810828499999893,"velocity":0.5039370078740157,"duration":0.1345721864583318},{"name":"B2","midi":47,"time":20.94596374999989,"velocity":0.5039370078740157,"duration":0.1345721864583318},{"name":"E2","midi":40,"time":21.081098999999888,"velocity":0.5039370078740157,"duration":0.1345721864583318},{"name":"B2","midi":47,"time":21.216234249999886,"velocity":0.5039370078740157,"duration":0.1345721864583318},{"name":"B2","midi":47,"time":21.351369499999883,"velocity":0.5039370078740157,"duration":0.1345721864583318},{"name":"E2","midi":40,"time":21.48650474999988,"velocity":0.5039370078740157,"duration":0.1345721864583318},{"name":"A#2","midi":46,"time":21.62163999999988,"velocity":0.5039370078740157,"duration":0.1345721864583318},{"name":"A#2","midi":46,"time":21.756775249999876,"velocity":0.5039370078740157,"duration":0.1345721864583318},{"name":"E2","midi":40,"time":21.891910499999874,"velocity":0.5039370078740157,"duration":0.1345721864583318},{"name":"B2","midi":47,"time":22.02704574999987,"velocity":0.5039370078740157,"duration":0.1345721864583318},{"name":"B2","midi":47,"time":22.16218099999987,"velocity":0.5039370078740157,"duration":0.1345721864583318},{"name":"E2","midi":40,"time":22.297316249999866,"velocity":0.5039370078740157,"duration":0.1345721864583318},{"name":"E3","midi":52,"time":22.432451499999864,"velocity":0.5039370078740157,"duration":0.1345721864583318},{"name":"E2","midi":40,"time":22.56758674999986,"velocity":0.5039370078740157,"duration":0.1345721864583318},{"name":"D3","midi":50,"time":22.70272199999986,"velocity":0.5039370078740157,"duration":0.1345721864583318},{"name":"E2","midi":40,"time":22.837857249999857,"velocity":0.5039370078740157,"duration":0.1345721864583318},{"name":"A2","midi":45,"time":22.972992499999854,"velocity":0.5039370078740157,"duration":0.1345721864583318},{"name":"G#2","midi":44,"time":23.108127749999852,"velocity":0.5039370078740157,"duration":0.1345721864583318},{"name":"E2","midi":40,"time":23.24326299999985,"velocity":0.5039370078740157,"duration":0.1345721864583318},{"name":"E3","midi":52,"time":23.378398249999847,"velocity":0.5039370078740157,"duration":0.1345721864583318},{"name":"E3","midi":52,"time":23.513533499999845,"velocity":0.5039370078740157,"duration":0.1345721864583318},{"name":"E2","midi":40,"time":23.648668749999842,"velocity":0.5039370078740157,"duration":0.1345721864583318},{"name":"G#2","midi":44,"time":23.78380399999984,"velocity":0.5039370078740157,"duration":0.1345721864583318},{"name":"A2","midi":45,"time":23.918939249999838,"velocity":0.5039370078740157,"duration":0.1345721864583318},{"name":"E2","midi":40,"time":24.054074499999835,"velocity":0.5039370078740157,"duration":0.1345721864583318},{"name":"A#2","midi":46,"time":24.189209749999833,"velocity":0.5039370078740157,"duration":0.1345721864583318},{"name":"E2","midi":40,"time":24.32434499999983,"velocity":0.5039370078740157,"duration":0.1345721864583318},{"name":"B2","midi":47,"time":24.459480249999828,"velocity":0.5039370078740157,"duration":0.1345721864583318},{"name":"D3","midi":50,"time":24.594615499999826,"velocity":0.5039370078740157,"duration":0.1345721864583318},{"name":"B2","midi":47,"time":24.729750749999823,"velocity":0.5039370078740157,"duration":0.1345721864583318},{"name":"E2","midi":40,"time":24.86488599999982,"velocity":0.5039370078740157,"duration":0.1345721864583318},{"name":"B2","midi":47,"time":25.00002124999982,"velocity":0.5039370078740157,"duration":0.1345721864583318},{"name":"B2","midi":47,"time":25.135156499999816,"velocity":0.5039370078740157,"duration":0.1345721864583318},{"name":"E2","midi":40,"time":25.270291749999814,"velocity":0.5039370078740157,"duration":0.1345721864583318},{"name":"A#2","midi":46,"time":25.40542699999981,"velocity":0.5039370078740157,"duration":0.1345721864583318},{"name":"A#2","midi":46,"time":25.54056224999981,"velocity":0.5039370078740157,"duration":0.1345721864583318},{"name":"E2","midi":40,"time":25.675697499999806,"velocity":0.5039370078740157,"duration":0.1345721864583318},{"name":"B2","midi":47,"time":25.810832749999804,"velocity":0.5039370078740157,"duration":0.1345721864583318},{"name":"B2","midi":47,"time":25.9459679999998,"velocity":0.5039370078740157,"duration":0.1345721864583318},{"name":"E2","midi":40,"time":26.0811032499998,"velocity":0.5039370078740157,"duration":0.1345721864583318},{"name":"E3","midi":52,"time":26.216238499999797,"velocity":0.5039370078740157,"duration":0.1345721864583318},{"name":"E2","midi":40,"time":26.351373749999794,"velocity":0.5039370078740157,"duration":0.1345721864583318},{"name":"D3","midi":50,"time":26.486508999999792,"velocity":0.5039370078740157,"duration":0.1345721864583318},{"name":"E2","midi":40,"time":26.62164424999979,"velocity":0.5039370078740157,"duration":0.1345721864583318},{"name":"A2","midi":45,"time":26.756779499999787,"velocity":0.5039370078740157,"duration":0.1345721864583318},{"name":"G#2","midi":44,"time":26.891914749999785,"velocity":0.5039370078740157,"duration":0.1345721864583318},{"name":"E2","midi":40,"time":27.027049999999782,"velocity":0.5039370078740157,"duration":0.1345721864583318},{"name":"E3","midi":52,"time":27.16218524999978,"velocity":0.5039370078740157,"duration":0.1345721864583318},{"name":"E3","midi":52,"time":27.297320499999778,"velocity":0.5039370078740157,"duration":0.1345721864583318},{"name":"E2","midi":40,"time":27.432455749999775,"velocity":0.5039370078740157,"duration":0.1345721864583318},{"name":"G#2","midi":44,"time":27.567590999999773,"velocity":0.5039370078740157,"duration":0.1345721864583318},{"name":"A2","midi":45,"time":27.70272624999977,"velocity":0.5039370078740157,"duration":0.1345721864583318},{"name":"E2","midi":40,"time":27.837861499999768,"velocity":0.5039370078740157,"duration":0.1345721864583318},{"name":"A#2","midi":46,"time":27.972996749999766,"velocity":0.5039370078740157,"duration":0.1345721864583318},{"name":"E2","midi":40,"time":28.108131999999763,"velocity":0.5039370078740157,"duration":0.1345721864583318},{"name":"B2","midi":47,"time":28.24326724999976,"velocity":0.5039370078740157,"duration":0.1345721864583318},{"name":"D3","midi":50,"time":28.37840249999976,"velocity":0.5039370078740157,"duration":0.1345721864583318},{"name":"B2","midi":47,"time":28.513537749999756,"velocity":0.5039370078740157,"duration":0.1345721864583318},{"name":"E2","midi":40,"time":28.648672999999754,"velocity":0.5039370078740157,"duration":0.1345721864583318},{"name":"B2","midi":47,"time":28.78380824999975,"velocity":0.5039370078740157,"duration":0.1345721864583318},{"name":"B2","midi":47,"time":28.91894349999975,"velocity":0.5039370078740157,"duration":0.1345721864583318},{"name":"E2","midi":40,"time":29.054078749999746,"velocity":0.5039370078740157,"duration":0.1345721864583318},{"name":"A#2","midi":46,"time":29.189213999999744,"velocity":0.5039370078740157,"duration":0.1345721864583318},{"name":"A#2","midi":46,"time":29.32434924999974,"velocity":0.5039370078740157,"duration":0.1345721864583318},{"name":"E2","midi":40,"time":29.45948449999974,"velocity":0.5039370078740157,"duration":0.1345721864583318},{"name":"B2","midi":47,"time":29.594619749999737,"velocity":0.5039370078740157,"duration":0.1345721864583318},{"name":"B2","midi":47,"time":29.729754999999734,"velocity":0.5039370078740157,"duration":0.1345721864583318},{"name":"E2","midi":40,"time":29.864890249999732,"velocity":0.5039370078740157,"duration":0.1345721864583318},{"name":"E3","midi":52,"time":30.00002549999973,"velocity":0.5039370078740157,"duration":0.1345721864583318},{"name":"E2","midi":40,"time":30.135160749999727,"velocity":0.5039370078740157,"duration":0.1345721864583318},{"name":"D3","midi":50,"time":30.270295999999725,"velocity":0.5039370078740157,"duration":0.1345721864583318},{"name":"E2","midi":40,"time":30.405431249999722,"velocity":0.5039370078740157,"duration":0.1345721864583318},{"name":"A2","midi":45,"time":30.54056649999972,"velocity":0.5039370078740157,"duration":0.1345721864583318},{"name":"G#2","midi":44,"time":30.675701749999718,"velocity":0.5039370078740157,"duration":0.1345721864583318},{"name":"E2","midi":40,"time":30.810836999999715,"velocity":0.5039370078740157,"duration":0.1345721864583318},{"name":"E3","midi":52,"time":30.945972249999713,"velocity":0.5039370078740157,"duration":0.1345721864583318},{"name":"E3","midi":52,"time":31.08110749999971,"velocity":0.5039370078740157,"duration":0.1345721864583318},{"name":"E2","midi":40,"time":31.216242749999708,"velocity":0.5039370078740157,"duration":0.1345721864583318},{"name":"G#2","midi":44,"time":31.351377999999706,"velocity":0.5039370078740157,"duration":0.1345721864583318},{"name":"A2","midi":45,"time":31.486513249999703,"velocity":0.5039370078740157,"duration":0.1345721864583318},{"name":"E2","midi":40,"time":31.6216484999997,"velocity":0.5039370078740157,"duration":0.1345721864583318},{"name":"A#2","midi":46,"time":31.7567837499997,"velocity":0.5039370078740157,"duration":0.1345721864583318},{"name":"E2","midi":40,"time":31.891918999999696,"velocity":0.5039370078740157,"duration":0.13457218645833535},{"name":"B2","midi":47,"time":32.0270542499997,"velocity":0.5039370078740157,"duration":0.13457218645833535},{"name":"D3","midi":50,"time":32.162189499999705,"velocity":0.5039370078740157,"duration":0.13457218645833535},{"name":"E2","midi":40,"time":32.43245999999971,"velocity":0.5039370078740157,"duration":0.13457218645833535},{"name":"E3","midi":52,"time":32.56759524999971,"velocity":0.5039370078740157,"duration":0.13457218645833535},{"name":"E2","midi":40,"time":32.70273049999972,"velocity":0.5039370078740157,"duration":0.13457218645833535},{"name":"E2","midi":40,"time":32.83786574999972,"velocity":0.5039370078740157,"duration":0.13457218645833535},{"name":"D3","midi":50,"time":32.973000999999726,"velocity":0.5039370078740157,"duration":0.13457218645833535},{"name":"E2","midi":40,"time":33.24327149999973,"velocity":0.5039370078740157,"duration":0.13457218645833535},{"name":"C#3","midi":49,"time":33.37840674999973,"velocity":0.5039370078740157,"duration":0.13457218645833535},{"name":"E2","midi":40,"time":33.51354199999974,"velocity":0.5039370078740157,"duration":0.13457218645833535},{"name":"E2","midi":40,"time":33.64867724999974,"velocity":0.5039370078740157,"duration":0.13457218645833535},{"name":"B2","midi":47,"time":33.78381249999975,"velocity":0.5039370078740157,"duration":0.13457218645833535},{"name":"E2","midi":40,"time":34.05408299999975,"velocity":0.5039370078740157,"duration":0.13457218645833535},{"name":"A2","midi":45,"time":34.189218249999755,"velocity":0.5039370078740157,"duration":0.13457218645833535},{"name":"B2","midi":47,"time":34.32435349999976,"velocity":0.5039370078740157,"duration":0.13457218645833535},{"name":"E3","midi":52,"time":34.459488749999764,"velocity":0.5039370078740157,"duration":0.13457218645833535},{"name":"E2","midi":40,"time":34.59462399999977,"velocity":0.5039370078740157,"duration":0.13457218645833535},{"name":"E3","midi":52,"time":34.72975924999977,"velocity":0.5039370078740157,"duration":0.13457218645833535},{"name":"E2","midi":40,"time":34.86489449999978,"velocity":0.5039370078740157,"duration":0.13457218645833535},{"name":"E2","midi":40,"time":35.00002974999978,"velocity":0.5039370078740157,"duration":0.13457218645833535},{"name":"D3","midi":50,"time":35.13516499999979,"velocity":0.5039370078740157,"duration":0.13457218645833535},{"name":"E2","midi":40,"time":35.40543549999979,"velocity":0.5039370078740157,"duration":0.13457218645833535},{"name":"C#3","midi":49,"time":35.540570749999794,"velocity":0.5039370078740157,"duration":0.13457218645833535},{"name":"E2","midi":40,"time":35.6757059999998,"velocity":0.5039370078740157,"duration":0.13457218645833535},{"name":"E2","midi":40,"time":35.810841249999804,"velocity":0.5039370078740157,"duration":0.13457218645833535},{"name":"B2","midi":47,"time":35.94597649999981,"velocity":0.5039370078740157,"duration":0.13457218645833535},{"name":"E2","midi":40,"time":36.21624699999981,"velocity":0.5039370078740157,"duration":0.13457218645833535},{"name":"E3","midi":52,"time":36.351382249999816,"velocity":0.5039370078740157,"duration":0.13457218645833535},{"name":"E2","midi":40,"time":36.48651749999982,"velocity":0.5039370078740157,"duration":0.13457218645833535},{"name":"E2","midi":40,"time":36.621652749999825,"velocity":0.5039370078740157,"duration":0.13457218645833535},{"name":"D3","midi":50,"time":36.75678799999983,"velocity":0.5039370078740157,"duration":0.13457218645833535},{"name":"E2","midi":40,"time":37.02705849999983,"velocity":0.5039370078740157,"duration":0.13457218645833535},{"name":"C#3","midi":49,"time":37.16219374999984,"velocity":0.5039370078740157,"duration":0.13457218645833535},{"name":"E2","midi":40,"time":37.29732899999984,"velocity":0.5039370078740157,"duration":0.13457218645833535},{"name":"E2","midi":40,"time":37.432464249999846,"velocity":0.5039370078740157,"duration":0.13457218645833535},{"name":"B2","midi":47,"time":37.56759949999985,"velocity":0.5039370078740157,"duration":0.13457218645833535},{"name":"E2","midi":40,"time":37.83786999999985,"velocity":0.5039370078740157,"duration":0.13457218645833535},{"name":"A2","midi":45,"time":37.97300524999986,"velocity":0.5039370078740157,"duration":0.13457218645833535},{"name":"B2","midi":47,"time":38.10814049999986,"velocity":0.5039370078740157,"duration":0.13457218645833535},{"name":"E3","midi":52,"time":38.24327574999987,"velocity":0.5039370078740157,"duration":0.13457218645833535},{"name":"E2","midi":40,"time":38.37841099999987,"velocity":0.5039370078740157,"duration":0.13457218645833535},{"name":"E3","midi":52,"time":38.51354624999988,"velocity":0.5039370078740157,"duration":0.13457218645833535},{"name":"E2","midi":40,"time":38.64868149999988,"velocity":0.5039370078740157,"duration":0.13457218645833535},{"name":"E2","midi":40,"time":38.783816749999886,"velocity":0.5039370078740157,"duration":0.13457218645833535},{"name":"D3","midi":50,"time":38.91895199999989,"velocity":0.5039370078740157,"duration":0.13457218645833535},{"name":"E2","midi":40,"time":39.18922249999989,"velocity":0.5039370078740157,"duration":0.13457218645833535},{"name":"C#3","midi":49,"time":39.3243577499999,"velocity":0.5039370078740157,"duration":0.13457218645833535},{"name":"E2","midi":40,"time":39.4594929999999,"velocity":0.5039370078740157,"duration":0.13457218645833535},{"name":"E2","midi":40,"time":39.59462824999991,"velocity":0.5039370078740157,"duration":0.13457218645833535},{"name":"B2","midi":47,"time":39.72976349999991,"velocity":0.5039370078740157,"duration":0.13457218645833535},{"name":"E2","midi":40,"time":40.000033999999914,"velocity":0.5039370078740157,"duration":0.13457218645833535},{"name":"E3","midi":52,"time":40.13516924999992,"velocity":0.5039370078740157,"duration":0.13457218645833535},{"name":"E2","midi":40,"time":40.270304499999924,"velocity":0.5039370078740157,"duration":0.13457218645833535},{"name":"E2","midi":40,"time":40.40543974999993,"velocity":0.5039370078740157,"duration":0.13457218645833535},{"name":"D3","midi":50,"time":40.54057499999993,"velocity":0.5039370078740157,"duration":0.13457218645833535},{"name":"E2","midi":40,"time":40.810845499999935,"velocity":0.5039370078740157,"duration":0.13457218645833535},{"name":"C#3","midi":49,"time":40.94598074999994,"velocity":0.5039370078740157,"duration":0.13457218645833535},{"name":"E2","midi":40,"time":41.081115999999945,"velocity":0.5039370078740157,"duration":0.13457218645833535},{"name":"E2","midi":40,"time":41.21625124999995,"velocity":0.5039370078740157,"duration":0.13457218645833535},{"name":"B2","midi":47,"time":41.351386499999954,"velocity":0.5039370078740157,"duration":0.13457218645833535},{"name":"E2","midi":40,"time":41.621656999999956,"velocity":0.5039370078740157,"duration":0.13457218645833535},{"name":"A2","midi":45,"time":41.75679224999996,"velocity":0.5039370078740157,"duration":0.13457218645833535},{"name":"B2","midi":47,"time":41.891927499999966,"velocity":0.5039370078740157,"duration":0.13457218645833535},{"name":"E3","midi":52,"time":42.02706274999997,"velocity":0.5039370078740157,"duration":0.13457218645833535},{"name":"E2","midi":40,"time":42.162197999999975,"velocity":0.5039370078740157,"duration":0.13457218645833535},{"name":"E3","midi":52,"time":42.29733324999998,"velocity":0.5039370078740157,"duration":0.13457218645833535},{"name":"E2","midi":40,"time":42.432468499999985,"velocity":0.5039370078740157,"duration":0.13457218645833535},{"name":"E2","midi":40,"time":42.56760374999999,"velocity":0.5039370078740157,"duration":0.13457218645833535},{"name":"D3","midi":50,"time":42.702738999999994,"velocity":0.5039370078740157,"duration":0.13457218645833535},{"name":"E2","midi":40,"time":42.973009499999996,"velocity":0.5039370078740157,"duration":0.13457218645833535},{"name":"C#3","midi":49,"time":43.10814475,"velocity":0.5039370078740157,"duration":0.13457218645833535},{"name":"E2","midi":40,"time":43.243280000000006,"velocity":0.5039370078740157,"duration":0.13457218645833535},{"name":"E2","midi":40,"time":43.37841525000001,"velocity":0.5039370078740157,"duration":0.13457218645833535},{"name":"B2","midi":47,"time":43.513550500000015,"velocity":0.5039370078740157,"duration":0.13457218645833535},{"name":"E2","midi":40,"time":43.78382100000002,"velocity":0.5039370078740157,"duration":0.13457218645833535},{"name":"E3","midi":52,"time":43.91895625000002,"velocity":0.5039370078740157,"duration":0.13457218645833535},{"name":"E2","midi":40,"time":44.05409150000003,"velocity":0.5039370078740157,"duration":0.13457218645833535},{"name":"E2","midi":40,"time":44.18922675000003,"velocity":0.5039370078740157,"duration":0.13457218645833535},{"name":"D3","midi":50,"time":44.324362000000036,"velocity":0.5039370078740157,"duration":0.13457218645833535},{"name":"E2","midi":40,"time":44.59463250000004,"velocity":0.5039370078740157,"duration":0.13457218645833535},{"name":"C#3","midi":49,"time":44.72976775000004,"velocity":0.5039370078740157,"duration":0.13457218645833535},{"name":"E2","midi":40,"time":44.86490300000005,"velocity":0.5039370078740157,"duration":0.13457218645833535},{"name":"E2","midi":40,"time":45.00003825000005,"velocity":0.5039370078740157,"duration":0.13457218645833535},{"name":"B2","midi":47,"time":45.13517350000006,"velocity":0.5039370078740157,"duration":0.13457218645833535},{"name":"E2","midi":40,"time":45.40544400000006,"velocity":0.5039370078740157,"duration":0.13457218645833535},{"name":"A2","midi":45,"time":45.540579250000064,"velocity":0.5039370078740157,"duration":0.13457218645833535},{"name":"B2","midi":47,"time":45.67571450000007,"velocity":0.5039370078740157,"duration":0.13457218645833535},{"name":"E3","midi":52,"time":45.810849750000074,"velocity":0.5039370078740157,"duration":0.13457218645833535},{"name":"E2","midi":40,"time":45.94598500000008,"velocity":0.5039370078740157,"duration":0.13457218645833535},{"name":"E3","midi":52,"time":46.08112025000008,"velocity":0.5039370078740157,"duration":0.13457218645833535},{"name":"E2","midi":40,"time":46.21625550000009,"velocity":0.5039370078740157,"duration":0.13457218645833535},{"name":"E2","midi":40,"time":46.35139075000009,"velocity":0.5039370078740157,"duration":0.13457218645833535},{"name":"D3","midi":50,"time":46.4865260000001,"velocity":0.5039370078740157,"duration":0.13457218645833535},{"name":"E2","midi":40,"time":46.7567965000001,"velocity":0.5039370078740157,"duration":0.13457218645833535},{"name":"C#3","midi":49,"time":46.891931750000104,"velocity":0.5039370078740157,"duration":0.13457218645833535},{"name":"E2","midi":40,"time":47.02706700000011,"velocity":0.5039370078740157,"duration":0.13457218645833535},{"name":"E2","midi":40,"time":47.162202250000114,"velocity":0.5039370078740157,"duration":0.13457218645833535},{"name":"B2","midi":47,"time":47.29733750000012,"velocity":0.5039370078740157,"duration":0.13457218645833535},{"name":"E2","midi":40,"time":47.56760800000012,"velocity":0.5039370078740157,"duration":0.13457218645833535},{"name":"B2","midi":47,"time":47.702743250000125,"velocity":0.5039370078740157,"duration":0.13457218645833535},{"name":"B2","midi":47,"time":47.83787850000013,"velocity":0.5039370078740157,"duration":0.13457218645833535},{"name":"E2","midi":40,"time":47.973013750000135,"velocity":0.5039370078740157,"duration":0.13457218645833535},{"name":"A#2","midi":46,"time":48.10814900000014,"velocity":0.5039370078740157,"duration":0.13457218645833535},{"name":"A#2","midi":46,"time":48.243284250000144,"velocity":0.5039370078740157,"duration":0.13457218645833535},{"name":"E2","midi":40,"time":48.37841950000015,"velocity":0.5039370078740157,"duration":0.13457218645833535},{"name":"B2","midi":47,"time":48.513554750000154,"velocity":0.5039370078740157,"duration":0.13457218645833535},{"name":"B2","midi":47,"time":48.64869000000016,"velocity":0.5039370078740157,"duration":0.13457218645833535},{"name":"E2","midi":40,"time":48.78382525000016,"velocity":0.5039370078740157,"duration":0.13457218645833535},{"name":"E3","midi":52,"time":48.91896050000017,"velocity":0.5039370078740157,"duration":0.13457218645833535},{"name":"E2","midi":40,"time":49.05409575000017,"velocity":0.5039370078740157,"duration":0.13457218645833535},{"name":"D3","midi":50,"time":49.18923100000018,"velocity":0.5039370078740157,"duration":0.13457218645833535},{"name":"E2","midi":40,"time":49.32436625000018,"velocity":0.5039370078740157,"duration":0.13457218645833535},{"name":"A2","midi":45,"time":49.45950150000019,"velocity":0.5039370078740157,"duration":0.13457218645833535},{"name":"G#2","midi":44,"time":49.59463675000019,"velocity":0.5039370078740157,"duration":0.13457218645833535},{"name":"E2","midi":40,"time":49.729772000000196,"velocity":0.5039370078740157,"duration":0.13457218645833535},{"name":"E3","midi":52,"time":49.8649072500002,"velocity":0.5039370078740157,"duration":0.13457218645833535},{"name":"E3","midi":52,"time":50.000042500000205,"velocity":0.5039370078740157,"duration":0.13457218645833535},{"name":"E2","midi":40,"time":50.13517775000021,"velocity":0.5039370078740157,"duration":0.13457218645833535},{"name":"G#2","midi":44,"time":50.270313000000215,"velocity":0.5039370078740157,"duration":0.13457218645833535},{"name":"A2","midi":45,"time":50.40544825000022,"velocity":0.5039370078740157,"duration":0.13457218645833535},{"name":"E2","midi":40,"time":50.540583500000224,"velocity":0.5039370078740157,"duration":0.13457218645833535},{"name":"A#2","midi":46,"time":50.67571875000023,"velocity":0.5039370078740157,"duration":0.13457218645833535},{"name":"E2","midi":40,"time":50.810854000000234,"velocity":0.5039370078740157,"duration":0.13457218645833535},{"name":"B2","midi":47,"time":50.94598925000024,"velocity":0.5039370078740157,"duration":0.13457218645833535},{"name":"D3","midi":50,"time":51.08112450000024,"velocity":0.5039370078740157,"duration":0.13457218645833535},{"name":"B2","midi":47,"time":51.21625975000025,"velocity":0.5039370078740157,"duration":0.13457218645833535},{"name":"E2","midi":40,"time":51.35139500000025,"velocity":0.5039370078740157,"duration":0.13457218645833535},{"name":"B2","midi":47,"time":51.48653025000026,"velocity":0.5039370078740157,"duration":0.13457218645833535},{"name":"B2","midi":47,"time":51.62166550000026,"velocity":0.5039370078740157,"duration":0.13457218645833535},{"name":"E2","midi":40,"time":51.75680075000027,"velocity":0.5039370078740157,"duration":0.13457218645833535},{"name":"A#2","midi":46,"time":51.89193600000027,"velocity":0.5039370078740157,"duration":0.13457218645833535},{"name":"A#2","midi":46,"time":52.027071250000276,"velocity":0.5039370078740157,"duration":0.13457218645833535},{"name":"E2","midi":40,"time":52.16220650000028,"velocity":0.5039370078740157,"duration":0.13457218645833535},{"name":"B2","midi":47,"time":52.297341750000285,"velocity":0.5039370078740157,"duration":0.13457218645833535},{"name":"B2","midi":47,"time":52.43247700000029,"velocity":0.5039370078740157,"duration":0.13457218645833535},{"name":"E2","midi":40,"time":52.567612250000295,"velocity":0.5039370078740157,"duration":0.13457218645833535},{"name":"E3","midi":52,"time":52.7027475000003,"velocity":0.5039370078740157,"duration":0.13457218645833535},{"name":"E2","midi":40,"time":52.837882750000304,"velocity":0.5039370078740157,"duration":0.13457218645833535},{"name":"D3","midi":50,"time":52.97301800000031,"velocity":0.5039370078740157,"duration":0.13457218645833535},{"name":"E2","midi":40,"time":53.10815325000031,"velocity":0.5039370078740157,"duration":0.13457218645833535},{"name":"A2","midi":45,"time":53.24328850000032,"velocity":0.5039370078740157,"duration":0.13457218645833535},{"name":"G#2","midi":44,"time":53.37842375000032,"velocity":0.5039370078740157,"duration":0.13457218645833535},{"name":"E2","midi":40,"time":53.51355900000033,"velocity":0.5039370078740157,"duration":0.13457218645833535},{"name":"E3","midi":52,"time":53.64869425000033,"velocity":0.5039370078740157,"duration":0.13457218645833535},{"name":"E3","midi":52,"time":53.78382950000034,"velocity":0.5039370078740157,"duration":0.13457218645833535},{"name":"E2","midi":40,"time":53.91896475000034,"velocity":0.5039370078740157,"duration":0.13457218645833535},{"name":"G#2","midi":44,"time":54.054100000000346,"velocity":0.5039370078740157,"duration":0.13457218645833535},{"name":"A2","midi":45,"time":54.18923525000035,"velocity":0.5039370078740157,"duration":0.13457218645833535},{"name":"E2","midi":40,"time":54.324370500000356,"velocity":0.5039370078740157,"duration":0.13457218645833535},{"name":"A#2","midi":46,"time":54.45950575000036,"velocity":0.5039370078740157,"duration":0.13457218645833535},{"name":"E2","midi":40,"time":54.594641000000365,"velocity":0.5039370078740157,"duration":0.13457218645833535},{"name":"B2","midi":47,"time":54.72977625000037,"velocity":0.5039370078740157,"duration":0.13457218645833535},{"name":"D3","midi":50,"time":54.864911500000375,"velocity":0.5039370078740157,"duration":0.13457218645833535},{"name":"B2","midi":47,"time":55.00004675000038,"velocity":0.5039370078740157,"duration":0.13457218645833535},{"name":"E2","midi":40,"time":55.135182000000384,"velocity":0.5039370078740157,"duration":0.13457218645833535},{"name":"B2","midi":47,"time":55.27031725000039,"velocity":0.5039370078740157,"duration":0.13457218645833535},{"name":"B2","midi":47,"time":55.40545250000039,"velocity":0.5039370078740157,"duration":0.13457218645833535},{"name":"E2","midi":40,"time":55.5405877500004,"velocity":0.5039370078740157,"duration":0.13457218645833535},{"name":"A#2","midi":46,"time":55.6757230000004,"velocity":0.5039370078740157,"duration":0.13457218645833535},{"name":"A#2","midi":46,"time":55.81085825000041,"velocity":0.5039370078740157,"duration":0.13457218645833535},{"name":"E2","midi":40,"time":55.94599350000041,"velocity":0.5039370078740157,"duration":0.13457218645833535},{"name":"B2","midi":47,"time":56.08112875000042,"velocity":0.5039370078740157,"duration":0.13457218645833535},{"name":"B2","midi":47,"time":56.21626400000042,"velocity":0.5039370078740157,"duration":0.13457218645833535},{"name":"E2","midi":40,"time":56.351399250000426,"velocity":0.5039370078740157,"duration":0.13457218645833535},{"name":"E3","midi":52,"time":56.48653450000043,"velocity":0.5039370078740157,"duration":0.13457218645833535},{"name":"E2","midi":40,"time":56.621669750000436,"velocity":0.5039370078740157,"duration":0.13457218645833535},{"name":"D3","midi":50,"time":56.75680500000044,"velocity":0.5039370078740157,"duration":0.13457218645833535},{"name":"E2","midi":40,"time":56.891940250000445,"velocity":0.5039370078740157,"duration":0.13457218645833535},{"name":"A2","midi":45,"time":57.02707550000045,"velocity":0.5039370078740157,"duration":0.13457218645833535},{"name":"G#2","midi":44,"time":57.162210750000455,"velocity":0.5039370078740157,"duration":0.13457218645833535},{"name":"E2","midi":40,"time":57.29734600000046,"velocity":0.5039370078740157,"duration":0.13457218645833535},{"name":"E3","midi":52,"time":57.432481250000464,"velocity":0.5039370078740157,"duration":0.13457218645833535},{"name":"E3","midi":52,"time":57.56761650000047,"velocity":0.5039370078740157,"duration":0.13457218645833535},{"name":"E2","midi":40,"time":57.70275175000047,"velocity":0.5039370078740157,"duration":0.13457218645833535},{"name":"G#2","midi":44,"time":57.83788700000048,"velocity":0.5039370078740157,"duration":0.13457218645833535},{"name":"A2","midi":45,"time":57.97302225000048,"velocity":0.5039370078740157,"duration":0.13457218645833535},{"name":"E2","midi":40,"time":58.10815750000049,"velocity":0.5039370078740157,"duration":0.13457218645833535},{"name":"A#2","midi":46,"time":58.24329275000049,"velocity":0.5039370078740157,"duration":0.13457218645833535},{"name":"E2","midi":40,"time":58.3784280000005,"velocity":0.5039370078740157,"duration":0.13457218645833535},{"name":"B2","midi":47,"time":58.5135632500005,"velocity":0.5039370078740157,"duration":0.13457218645833535},{"name":"D3","midi":50,"time":58.648698500000506,"velocity":0.5039370078740157,"duration":0.13457218645833535},{"name":"B2","midi":47,"time":58.78383375000051,"velocity":0.5039370078740157,"duration":0.13457218645833535},{"name":"E2","midi":40,"time":58.918969000000516,"velocity":0.5039370078740157,"duration":0.13457218645833535},{"name":"B2","midi":47,"time":59.05410425000052,"velocity":0.5039370078740157,"duration":0.13457218645833535},{"name":"B2","midi":47,"time":59.189239500000525,"velocity":0.5039370078740157,"duration":0.13457218645833535},{"name":"E2","midi":40,"time":59.32437475000053,"velocity":0.5039370078740157,"duration":0.13457218645833535},{"name":"A#2","midi":46,"time":59.459510000000535,"velocity":0.5039370078740157,"duration":0.13457218645833535},{"name":"A#2","midi":46,"time":59.59464525000054,"velocity":0.5039370078740157,"duration":0.13457218645833535},{"name":"E2","midi":40,"time":59.729780500000544,"velocity":0.5039370078740157,"duration":0.13457218645833535},{"name":"B2","midi":47,"time":59.86491575000055,"velocity":0.5039370078740157,"duration":0.13457218645833535},{"name":"B2","midi":47,"time":60.00005100000055,"velocity":0.5039370078740157,"duration":0.13457218645833535},{"name":"E2","midi":40,"time":60.13518625000056,"velocity":0.5039370078740157,"duration":0.13457218645833535},{"name":"E3","midi":52,"time":60.27032150000056,"velocity":0.5039370078740157,"duration":0.13457218645833535},{"name":"E2","midi":40,"time":60.40545675000057,"velocity":0.5039370078740157,"duration":0.13457218645833535},{"name":"D3","midi":50,"time":60.54059200000057,"velocity":0.5039370078740157,"duration":0.13457218645833535},{"name":"E2","midi":40,"time":60.67572725000058,"velocity":0.5039370078740157,"duration":0.13457218645833535},{"name":"A2","midi":45,"time":60.81086250000058,"velocity":0.5039370078740157,"duration":0.13457218645833535},{"name":"G#2","midi":44,"time":60.945997750000586,"velocity":0.5039370078740157,"duration":0.13457218645833535},{"name":"E2","midi":40,"time":61.08113300000059,"velocity":0.5039370078740157,"duration":0.13457218645833535},{"name":"E3","midi":52,"time":61.216268250000596,"velocity":0.5039370078740157,"duration":0.13457218645833535},{"name":"E3","midi":52,"time":61.3514035000006,"velocity":0.5039370078740157,"duration":0.13457218645833535},{"name":"E2","midi":40,"time":61.486538750000605,"velocity":0.5039370078740157,"duration":0.13457218645833535},{"name":"G#2","midi":44,"time":61.62167400000061,"velocity":0.5039370078740157,"duration":0.13457218645833535},{"name":"A2","midi":45,"time":61.756809250000614,"velocity":0.5039370078740157,"duration":0.13457218645833535},{"name":"E2","midi":40,"time":61.89194450000062,"velocity":0.5039370078740157,"duration":0.13457218645833535},{"name":"A#2","midi":46,"time":62.027079750000624,"velocity":0.5039370078740157,"duration":0.13457218645833535},{"name":"E2","midi":40,"time":62.16221500000063,"velocity":0.5039370078740157,"duration":0.13457218645833535},{"name":"B2","midi":47,"time":62.29735025000063,"velocity":0.5039370078740157,"duration":0.13457218645833535},{"name":"D3","midi":50,"time":62.43248550000064,"velocity":0.5039370078740157,"duration":0.13457218645833535},{"name":"E2","midi":40,"time":62.70275600000064,"velocity":0.5039370078740157,"duration":0.13457218645833535},{"name":"E3","midi":52,"time":62.837891250000645,"velocity":0.5039370078740157,"duration":0.13457218645833535},{"name":"E2","midi":40,"time":62.97302650000065,"velocity":0.5039370078740157,"duration":0.13457218645833535},{"name":"E2","midi":40,"time":63.108161750000654,"velocity":0.5039370078740157,"duration":0.13457218645833535},{"name":"D3","midi":50,"time":63.24329700000066,"velocity":0.5039370078740157,"duration":0.13457218645833535},{"name":"E2","midi":40,"time":63.378432250000664,"velocity":0.5039370078740157,"duration":0.13457218645833535},{"name":"E2","midi":40,"time":63.51356750000067,"velocity":0.5039370078740157,"duration":0.13457218645833535},{"name":"E3","midi":52,"time":63.64870275000067,"velocity":0.5039370078740157,"duration":0.13457218645833535},{"name":"E2","midi":40,"time":63.78383800000068,"velocity":0.5039370078740157,"duration":0.13457218645833535},{"name":"E2","midi":40,"time":63.91897325000068,"velocity":0.5039370078740157,"duration":0.13457218645833535},{"name":"B2","midi":47,"time":64.05410850000068,"velocity":0.5039370078740157,"duration":0.13457218645832825},{"name":"E2","midi":40,"time":64.18924375000067,"velocity":0.5039370078740157,"duration":0.13457218645832825},{"name":"D3","midi":50,"time":64.32437900000066,"velocity":0.5039370078740157,"duration":0.13457218645832825},{"name":"E2","midi":40,"time":64.45951425000065,"velocity":0.5039370078740157,"duration":0.13457218645832825},{"name":"C#3","midi":49,"time":64.59464950000064,"velocity":0.5039370078740157,"duration":0.13457218645832825},{"name":"D3","midi":50,"time":64.72978475000063,"velocity":0.5039370078740157,"duration":0.13457218645832825},{"name":"E2","midi":40,"time":64.86492000000062,"velocity":0.5039370078740157,"duration":0.13457218645832825},{"name":"E3","midi":52,"time":65.00005525000061,"velocity":0.5039370078740157,"duration":0.13457218645832825},{"name":"E2","midi":40,"time":65.1351905000006,"velocity":0.5039370078740157,"duration":0.13457218645832825},{"name":"E2","midi":40,"time":65.2703257500006,"velocity":0.5039370078740157,"duration":0.13457218645832825},{"name":"D3","midi":50,"time":65.40546100000059,"velocity":0.5039370078740157,"duration":0.13457218645832825},{"name":"E2","midi":40,"time":65.54059625000058,"velocity":0.5039370078740157,"duration":0.13457218645832825},{"name":"E2","midi":40,"time":65.67573150000057,"velocity":0.5039370078740157,"duration":0.13457218645832825},{"name":"E3","midi":52,"time":65.81086675000056,"velocity":0.5039370078740157,"duration":0.13457218645832825},{"name":"E2","midi":40,"time":65.94600200000055,"velocity":0.5039370078740157,"duration":0.13457218645832825},{"name":"E2","midi":40,"time":66.08113725000054,"velocity":0.5039370078740157,"duration":0.13457218645832825},{"name":"G#3","midi":56,"time":66.21627250000053,"velocity":0.5039370078740157,"duration":0.13457218645832825},{"name":"E2","midi":40,"time":66.35140775000052,"velocity":0.5039370078740157,"duration":0.13457218645832825},{"name":"E2","midi":40,"time":66.48654300000051,"velocity":0.5039370078740157,"duration":0.13457218645832825},{"name":"E3","midi":52,"time":66.6216782500005,"velocity":0.5039370078740157,"duration":0.13457218645832825},{"name":"E2","midi":40,"time":66.75681350000049,"velocity":0.5039370078740157,"duration":0.13457218645832825},{"name":"E2","midi":40,"time":66.89194875000048,"velocity":0.5039370078740157,"duration":0.13457218645832825},{"name":"D3","midi":50,"time":67.02708400000047,"velocity":0.5039370078740157,"duration":0.13457218645832825},{"name":"E2","midi":40,"time":67.16221925000046,"velocity":0.5039370078740157,"duration":0.13457218645832825},{"name":"E2","midi":40,"time":67.29735450000045,"velocity":0.5039370078740157,"duration":0.13457218645832825},{"name":"E3","midi":52,"time":67.43248975000044,"velocity":0.5039370078740157,"duration":0.13457218645832825},{"name":"E2","midi":40,"time":67.56762500000043,"velocity":0.5039370078740157,"duration":0.13457218645832825},{"name":"E2","midi":40,"time":67.70276025000042,"velocity":0.5039370078740157,"duration":0.13457218645832825},{"name":"B2","midi":47,"time":67.83789550000041,"velocity":0.5039370078740157,"duration":0.13457218645832825},{"name":"E2","midi":40,"time":67.9730307500004,"velocity":0.5039370078740157,"duration":0.13457218645832825},{"name":"D3","midi":50,"time":68.1081660000004,"velocity":0.5039370078740157,"duration":0.13457218645832825},{"name":"E2","midi":40,"time":68.24330125000039,"velocity":0.5039370078740157,"duration":0.13457218645832825},{"name":"C#3","midi":49,"time":68.37843650000038,"velocity":0.5039370078740157,"duration":0.13457218645832825},{"name":"D3","midi":50,"time":68.51357175000037,"velocity":0.5039370078740157,"duration":0.13457218645832825},{"name":"E2","midi":40,"time":68.64870700000036,"velocity":0.5039370078740157,"duration":0.13457218645832825},{"name":"E3","midi":52,"time":68.78384225000035,"velocity":0.5039370078740157,"duration":0.13457218645832825},{"name":"E2","midi":40,"time":68.91897750000034,"velocity":0.5039370078740157,"duration":0.13457218645832825},{"name":"E2","midi":40,"time":69.05411275000033,"velocity":0.5039370078740157,"duration":0.13457218645832825},{"name":"D3","midi":50,"time":69.18924800000032,"velocity":0.5039370078740157,"duration":0.13457218645832825},{"name":"E2","midi":40,"time":69.32438325000031,"velocity":0.5039370078740157,"duration":0.13457218645832825},{"name":"E2","midi":40,"time":69.4595185000003,"velocity":0.5039370078740157,"duration":0.13457218645832825},{"name":"E3","midi":52,"time":69.59465375000029,"velocity":0.5039370078740157,"duration":0.13457218645832825},{"name":"E2","midi":40,"time":69.72978900000028,"velocity":0.5039370078740157,"duration":0.13457218645832825},{"name":"E2","midi":40,"time":69.86492425000027,"velocity":0.5039370078740157,"duration":0.13457218645832825},{"name":"G#3","midi":56,"time":70.00005950000026,"velocity":0.5039370078740157,"duration":0.13457218645832825},{"name":"E2","midi":40,"time":70.13519475000025,"velocity":0.5039370078740157,"duration":0.13457218645832825},{"name":"E2","midi":40,"time":70.27033000000024,"velocity":0.5039370078740157,"duration":0.13457218645832825},{"name":"E3","midi":52,"time":70.40546525000023,"velocity":0.5039370078740157,"duration":0.13457218645832825},{"name":"E2","midi":40,"time":70.54060050000022,"velocity":0.5039370078740157,"duration":0.13457218645832825},{"name":"E2","midi":40,"time":70.67573575000021,"velocity":0.5039370078740157,"duration":0.13457218645832825},{"name":"D3","midi":50,"time":70.8108710000002,"velocity":0.5039370078740157,"duration":0.13457218645832825},{"name":"E2","midi":40,"time":70.9460062500002,"velocity":0.5039370078740157,"duration":0.13457218645832825},{"name":"E2","midi":40,"time":71.08114150000019,"velocity":0.5039370078740157,"duration":0.13457218645832825},{"name":"E3","midi":52,"time":71.21627675000018,"velocity":0.5039370078740157,"duration":0.13457218645832825},{"name":"E2","midi":40,"time":71.35141200000017,"velocity":0.5039370078740157,"duration":0.13457218645832825},{"name":"E2","midi":40,"time":71.48654725000016,"velocity":0.5039370078740157,"duration":0.13457218645832825},{"name":"B2","midi":47,"time":71.62168250000015,"velocity":0.5039370078740157,"duration":0.13457218645832825},{"name":"E2","midi":40,"time":71.75681775000014,"velocity":0.5039370078740157,"duration":0.13457218645832825},{"name":"D3","midi":50,"time":71.89195300000013,"velocity":0.5039370078740157,"duration":0.13457218645832825},{"name":"E2","midi":40,"time":72.02708825000012,"velocity":0.5039370078740157,"duration":0.13457218645832825},{"name":"C#3","midi":49,"time":72.16222350000011,"velocity":0.5039370078740157,"duration":0.13457218645832825},{"name":"D3","midi":50,"time":72.2973587500001,"velocity":0.5039370078740157,"duration":0.13457218645832825},{"name":"E2","midi":40,"time":72.43249400000009,"velocity":0.5039370078740157,"duration":0.13457218645832825},{"name":"E3","midi":52,"time":72.56762925000008,"velocity":0.5039370078740157,"duration":0.13457218645832825},{"name":"E2","midi":40,"time":72.70276450000007,"velocity":0.5039370078740157,"duration":0.13457218645832825},{"name":"E2","midi":40,"time":72.83789975000006,"velocity":0.5039370078740157,"duration":0.13457218645832825},{"name":"D3","midi":50,"time":72.97303500000005,"velocity":0.5039370078740157,"duration":0.13457218645832825},{"name":"E2","midi":40,"time":73.10817025000004,"velocity":0.5039370078740157,"duration":0.13457218645832825},{"name":"E2","midi":40,"time":73.24330550000003,"velocity":0.5039370078740157,"duration":0.13457218645832825},{"name":"E3","midi":52,"time":73.37844075000002,"velocity":0.5039370078740157,"duration":0.13457218645832825},{"name":"E2","midi":40,"time":73.51357600000001,"velocity":0.5039370078740157,"duration":0.13457218645832825},{"name":"E2","midi":40,"time":73.64871125,"velocity":0.5039370078740157,"duration":0.13457218645832825},{"name":"G#3","midi":56,"time":73.7838465,"velocity":0.5039370078740157,"duration":0.13457218645832825},{"name":"E2","midi":40,"time":73.91898174999999,"velocity":0.5039370078740157,"duration":0.13457218645832825},{"name":"E2","midi":40,"time":74.05411699999998,"velocity":0.5039370078740157,"duration":0.13457218645832825},{"name":"E3","midi":52,"time":74.18925224999997,"velocity":0.5039370078740157,"duration":0.13457218645832825},{"name":"E2","midi":40,"time":74.32438749999996,"velocity":0.5039370078740157,"duration":0.13457218645832825},{"name":"E2","midi":40,"time":74.45952274999995,"velocity":0.5039370078740157,"duration":0.13457218645832825},{"name":"D3","midi":50,"time":74.59465799999994,"velocity":0.5039370078740157,"duration":0.13457218645832825},{"name":"E2","midi":40,"time":74.72979324999993,"velocity":0.5039370078740157,"duration":0.13457218645832825},{"name":"E2","midi":40,"time":74.86492849999992,"velocity":0.5039370078740157,"duration":0.13457218645832825},{"name":"E3","midi":52,"time":75.00006374999991,"velocity":0.5039370078740157,"duration":0.13457218645832825},{"name":"E2","midi":40,"time":75.1351989999999,"velocity":0.5039370078740157,"duration":0.13457218645832825},{"name":"E2","midi":40,"time":75.27033424999989,"velocity":0.5039370078740157,"duration":0.13457218645832825},{"name":"B2","midi":47,"time":75.40546949999988,"velocity":0.5039370078740157,"duration":0.13457218645832825},{"name":"E2","midi":40,"time":75.54060474999987,"velocity":0.5039370078740157,"duration":0.13457218645832825},{"name":"D3","midi":50,"time":75.67573999999986,"velocity":0.5039370078740157,"duration":0.13457218645832825},{"name":"E2","midi":40,"time":75.81087524999985,"velocity":0.5039370078740157,"duration":0.13457218645832825},{"name":"C#3","midi":49,"time":75.94601049999984,"velocity":0.5039370078740157,"duration":0.13457218645832825},{"name":"D3","midi":50,"time":76.08114574999983,"velocity":0.5039370078740157,"duration":0.13457218645832825},{"name":"E2","midi":40,"time":76.21628099999982,"velocity":0.5039370078740157,"duration":0.13457218645832825},{"name":"E3","midi":52,"time":76.35141624999982,"velocity":0.5039370078740157,"duration":0.13457218645832825},{"name":"E2","midi":40,"time":76.4865514999998,"velocity":0.5039370078740157,"duration":0.13457218645832825},{"name":"E2","midi":40,"time":76.6216867499998,"velocity":0.5039370078740157,"duration":0.13457218645832825},{"name":"D3","midi":50,"time":76.75682199999979,"velocity":0.5039370078740157,"duration":0.13457218645832825},{"name":"E2","midi":40,"time":76.89195724999978,"velocity":0.5039370078740157,"duration":0.13457218645832825},{"name":"E2","midi":40,"time":77.02709249999977,"velocity":0.5039370078740157,"duration":0.13457218645832825},{"name":"E3","midi":52,"time":77.16222774999976,"velocity":0.5039370078740157,"duration":0.13457218645832825},{"name":"E2","midi":40,"time":77.29736299999975,"velocity":0.5039370078740157,"duration":0.13457218645832825},{"name":"E2","midi":40,"time":77.43249824999974,"velocity":0.5039370078740157,"duration":0.13457218645832825},{"name":"G#3","midi":56,"time":77.56763349999973,"velocity":0.5039370078740157,"duration":0.13457218645832825},{"name":"E2","midi":40,"time":77.70276874999972,"velocity":0.5039370078740157,"duration":0.13457218645832825},{"name":"E2","midi":40,"time":77.83790399999971,"velocity":0.5039370078740157,"duration":0.13457218645832825},{"name":"B2","midi":47,"time":77.9730392499997,"velocity":0.5039370078740157,"duration":0.13457218645832825},{"name":"B2","midi":47,"time":78.10817449999969,"velocity":0.5039370078740157,"duration":0.13457218645832825},{"name":"E2","midi":40,"time":78.24330974999968,"velocity":0.5039370078740157,"duration":0.13457218645832825},{"name":"A#2","midi":46,"time":78.37844499999967,"velocity":0.5039370078740157,"duration":0.13457218645832825},{"name":"A#2","midi":46,"time":78.51358024999966,"velocity":0.5039370078740157,"duration":0.13457218645832825},{"name":"E2","midi":40,"time":78.64871549999965,"velocity":0.5039370078740157,"duration":0.13457218645832825},{"name":"B2","midi":47,"time":78.78385074999964,"velocity":0.5039370078740157,"duration":0.13457218645832825},{"name":"B2","midi":47,"time":78.91898599999963,"velocity":0.5039370078740157,"duration":0.13457218645832825},{"name":"E2","midi":40,"time":79.05412124999962,"velocity":0.5039370078740157,"duration":0.13457218645832825},{"name":"E3","midi":52,"time":79.18925649999962,"velocity":0.5039370078740157,"duration":0.13457218645832825},{"name":"E2","midi":40,"time":79.3243917499996,"velocity":0.5039370078740157,"duration":0.13457218645832825},{"name":"D3","midi":50,"time":79.4595269999996,"velocity":0.5039370078740157,"duration":0.13457218645832825},{"name":"E2","midi":40,"time":79.59466224999959,"velocity":0.5039370078740157,"duration":0.13457218645832825},{"name":"A2","midi":45,"time":79.72979749999958,"velocity":0.5039370078740157,"duration":0.13457218645832825},{"name":"G#2","midi":44,"time":79.86493274999957,"velocity":0.5039370078740157,"duration":0.13457218645832825},{"name":"E2","midi":40,"time":80.00006799999956,"velocity":0.5039370078740157,"duration":0.13457218645832825},{"name":"E3","midi":52,"time":80.13520324999955,"velocity":0.5039370078740157,"duration":0.13457218645832825},{"name":"E3","midi":52,"time":80.27033849999954,"velocity":0.5039370078740157,"duration":0.13457218645832825},{"name":"E2","midi":40,"time":80.40547374999953,"velocity":0.5039370078740157,"duration":0.13457218645832825},{"name":"G#2","midi":44,"time":80.54060899999952,"velocity":0.5039370078740157,"duration":0.13457218645832825},{"name":"A2","midi":45,"time":80.67574424999951,"velocity":0.5039370078740157,"duration":0.13457218645832825},{"name":"E2","midi":40,"time":80.8108794999995,"velocity":0.5039370078740157,"duration":0.13457218645832825},{"name":"A#2","midi":46,"time":80.94601474999949,"velocity":0.5039370078740157,"duration":0.13457218645832825},{"name":"E2","midi":40,"time":81.08114999999948,"velocity":0.5039370078740157,"duration":0.13457218645832825},{"name":"B2","midi":47,"time":81.21628524999947,"velocity":0.5039370078740157,"duration":0.13457218645832825},{"name":"D3","midi":50,"time":81.35142049999946,"velocity":0.5039370078740157,"duration":0.13457218645832825},{"name":"B2","midi":47,"time":81.48655574999945,"velocity":0.5039370078740157,"duration":0.13457218645832825},{"name":"E2","midi":40,"time":81.62169099999944,"velocity":0.5039370078740157,"duration":0.13457218645832825},{"name":"B2","midi":47,"time":81.75682624999943,"velocity":0.5039370078740157,"duration":0.13457218645832825},{"name":"B2","midi":47,"time":81.89196149999943,"velocity":0.5039370078740157,"duration":0.13457218645832825},{"name":"E2","midi":40,"time":82.02709674999942,"velocity":0.5039370078740157,"duration":0.13457218645832825},{"name":"A#2","midi":46,"time":82.1622319999994,"velocity":0.5039370078740157,"duration":0.13457218645832825},{"name":"A#2","midi":46,"time":82.2973672499994,"velocity":0.5039370078740157,"duration":0.13457218645832825},{"name":"E2","midi":40,"time":82.43250249999939,"velocity":0.5039370078740157,"duration":0.13457218645832825},{"name":"B2","midi":47,"time":82.56763774999938,"velocity":0.5039370078740157,"duration":0.13457218645832825},{"name":"B2","midi":47,"time":82.70277299999937,"velocity":0.5039370078740157,"duration":0.13457218645832825},{"name":"E2","midi":40,"time":82.83790824999936,"velocity":0.5039370078740157,"duration":0.13457218645832825},{"name":"E3","midi":52,"time":82.97304349999935,"velocity":0.5039370078740157,"duration":0.13457218645832825},{"name":"E2","midi":40,"time":83.10817874999934,"velocity":0.5039370078740157,"duration":0.13457218645832825},{"name":"D3","midi":50,"time":83.24331399999933,"velocity":0.5039370078740157,"duration":0.13457218645832825},{"name":"E2","midi":40,"time":83.37844924999932,"velocity":0.5039370078740157,"duration":0.13457218645832825},{"name":"A2","midi":45,"time":83.51358449999931,"velocity":0.5039370078740157,"duration":0.13457218645832825},{"name":"G#2","midi":44,"time":83.6487197499993,"velocity":0.5039370078740157,"duration":0.13457218645832825},{"name":"E2","midi":40,"time":83.78385499999929,"velocity":0.5039370078740157,"duration":0.13457218645832825},{"name":"E3","midi":52,"time":83.91899024999928,"velocity":0.5039370078740157,"duration":0.13457218645832825},{"name":"E3","midi":52,"time":84.05412549999927,"velocity":0.5039370078740157,"duration":0.13457218645832825},{"name":"E2","midi":40,"time":84.18926074999926,"velocity":0.5039370078740157,"duration":0.13457218645832825},{"name":"G#2","midi":44,"time":84.32439599999925,"velocity":0.5039370078740157,"duration":0.13457218645832825},{"name":"A2","midi":45,"time":84.45953124999924,"velocity":0.5039370078740157,"duration":0.13457218645832825},{"name":"E2","midi":40,"time":84.59466649999924,"velocity":0.5039370078740157,"duration":0.13457218645832825},{"name":"A#2","midi":46,"time":84.72980174999923,"velocity":0.5039370078740157,"duration":0.13457218645832825},{"name":"E2","midi":40,"time":84.86493699999922,"velocity":0.5039370078740157,"duration":0.13457218645832825},{"name":"B2","midi":47,"time":85.0000722499992,"velocity":0.5039370078740157,"duration":0.13457218645832825},{"name":"D3","midi":50,"time":85.1352074999992,"velocity":0.5039370078740157,"duration":0.13457218645832825},{"name":"B2","midi":47,"time":85.27034274999919,"velocity":0.5039370078740157,"duration":0.13457218645832825},{"name":"E2","midi":40,"time":85.40547799999918,"velocity":0.5039370078740157,"duration":0.13457218645832825},{"name":"B2","midi":47,"time":85.54061324999917,"velocity":0.5039370078740157,"duration":0.13457218645832825},{"name":"B2","midi":47,"time":85.67574849999916,"velocity":0.5039370078740157,"duration":0.13457218645832825},{"name":"E2","midi":40,"time":85.81088374999915,"velocity":0.5039370078740157,"duration":0.13457218645832825},{"name":"A#2","midi":46,"time":85.94601899999914,"velocity":0.5039370078740157,"duration":0.13457218645832825},{"name":"A#2","midi":46,"time":86.08115424999913,"velocity":0.5039370078740157,"duration":0.13457218645832825},{"name":"E2","midi":40,"time":86.21628949999912,"velocity":0.5039370078740157,"duration":0.13457218645832825},{"name":"B2","midi":47,"time":86.35142474999911,"velocity":0.5039370078740157,"duration":0.13457218645832825},{"name":"B2","midi":47,"time":86.4865599999991,"velocity":0.5039370078740157,"duration":0.13457218645832825},{"name":"E2","midi":40,"time":86.62169524999909,"velocity":0.5039370078740157,"duration":0.13457218645832825},{"name":"E3","midi":52,"time":86.75683049999908,"velocity":0.5039370078740157,"duration":0.13457218645832825},{"name":"E2","midi":40,"time":86.89196574999907,"velocity":0.5039370078740157,"duration":0.13457218645832825},{"name":"D3","midi":50,"time":87.02710099999906,"velocity":0.5039370078740157,"duration":0.13457218645832825},{"name":"E2","midi":40,"time":87.16223624999905,"velocity":0.5039370078740157,"duration":0.13457218645832825},{"name":"A2","midi":45,"time":87.29737149999904,"velocity":0.5039370078740157,"duration":0.13457218645832825},{"name":"G#2","midi":44,"time":87.43250674999904,"velocity":0.5039370078740157,"duration":0.13457218645832825},{"name":"E2","midi":40,"time":87.56764199999903,"velocity":0.5039370078740157,"duration":0.13457218645832825},{"name":"E3","midi":52,"time":87.70277724999902,"velocity":0.5039370078740157,"duration":0.13457218645832825},{"name":"E3","midi":52,"time":87.837912499999,"velocity":0.5039370078740157,"duration":0.13457218645832825},{"name":"E2","midi":40,"time":87.973047749999,"velocity":0.5039370078740157,"duration":0.13457218645832825},{"name":"G#2","midi":44,"time":88.10818299999899,"velocity":0.5039370078740157,"duration":0.13457218645832825},{"name":"A2","midi":45,"time":88.24331824999898,"velocity":0.5039370078740157,"duration":0.13457218645832825},{"name":"E2","midi":40,"time":88.37845349999897,"velocity":0.5039370078740157,"duration":0.13457218645832825},{"name":"A#2","midi":46,"time":88.51358874999896,"velocity":0.5039370078740157,"duration":0.13457218645832825},{"name":"E2","midi":40,"time":88.64872399999895,"velocity":0.5039370078740157,"duration":0.13457218645832825},{"name":"B2","midi":47,"time":88.78385924999894,"velocity":0.5039370078740157,"duration":0.13457218645832825},{"name":"D3","midi":50,"time":88.91899449999893,"velocity":0.5039370078740157,"duration":0.13457218645832825},{"name":"B2","midi":47,"time":89.05412974999892,"velocity":0.5039370078740157,"duration":0.13457218645832825},{"name":"E2","midi":40,"time":89.18926499999891,"velocity":0.5039370078740157,"duration":0.13457218645832825},{"name":"B2","midi":47,"time":89.3244002499989,"velocity":0.5039370078740157,"duration":0.13457218645832825},{"name":"B2","midi":47,"time":89.45953549999889,"velocity":0.5039370078740157,"duration":0.13457218645832825},{"name":"E2","midi":40,"time":89.59467074999888,"velocity":0.5039370078740157,"duration":0.13457218645832825},{"name":"A#2","midi":46,"time":89.72980599999887,"velocity":0.5039370078740157,"duration":0.13457218645832825},{"name":"A#2","midi":46,"time":89.86494124999886,"velocity":0.5039370078740157,"duration":0.13457218645832825},{"name":"E2","midi":40,"time":90.00007649999885,"velocity":0.5039370078740157,"duration":0.13457218645832825},{"name":"B2","midi":47,"time":90.13521174999885,"velocity":0.5039370078740157,"duration":0.13457218645832825},{"name":"B2","midi":47,"time":90.27034699999884,"velocity":0.5039370078740157,"duration":0.13457218645832825},{"name":"E2","midi":40,"time":90.40548224999883,"velocity":0.5039370078740157,"duration":0.13457218645832825},{"name":"E3","midi":52,"time":90.54061749999882,"velocity":0.5039370078740157,"duration":0.13457218645832825},{"name":"E2","midi":40,"time":90.67575274999881,"velocity":0.5039370078740157,"duration":0.13457218645832825},{"name":"D3","midi":50,"time":90.8108879999988,"velocity":0.5039370078740157,"duration":0.13457218645832825},{"name":"E2","midi":40,"time":90.94602324999879,"velocity":0.5039370078740157,"duration":0.13457218645832825},{"name":"A2","midi":45,"time":91.08115849999878,"velocity":0.5039370078740157,"duration":0.13457218645832825},{"name":"G#2","midi":44,"time":91.21629374999877,"velocity":0.5039370078740157,"duration":0.13457218645832825},{"name":"E2","midi":40,"time":91.35142899999876,"velocity":0.5039370078740157,"duration":0.13457218645832825},{"name":"E3","midi":52,"time":91.48656424999875,"velocity":0.5039370078740157,"duration":0.13457218645832825},{"name":"E3","midi":52,"time":91.62169949999874,"velocity":0.5039370078740157,"duration":0.13457218645832825},{"name":"E2","midi":40,"time":91.75683474999873,"velocity":0.5039370078740157,"duration":0.13457218645832825},{"name":"G#2","midi":44,"time":91.89196999999872,"velocity":0.5039370078740157,"duration":0.13457218645832825},{"name":"A2","midi":45,"time":92.02710524999871,"velocity":0.5039370078740157,"duration":0.13457218645832825},{"name":"E2","midi":40,"time":92.1622404999987,"velocity":0.5039370078740157,"duration":0.13457218645832825},{"name":"A#2","midi":46,"time":92.2973757499987,"velocity":0.5039370078740157,"duration":0.13457218645832825},{"name":"E2","midi":40,"time":92.43251099999868,"velocity":0.5039370078740157,"duration":0.13457218645832825},{"name":"B2","midi":47,"time":92.56764624999867,"velocity":0.5039370078740157,"duration":0.13457218645832825},{"name":"D3","midi":50,"time":92.70278149999866,"velocity":0.5039370078740157,"duration":0.13457218645832825},{"name":"B2","midi":47,"time":92.83791674999866,"velocity":0.5039370078740157,"duration":0.13457218645832825},{"name":"E2","midi":40,"time":96.75683899999865,"velocity":0.5039370078740157,"duration":0.13457218645832825},{"name":"E3","midi":52,"time":96.89197424999864,"velocity":0.5039370078740157,"duration":0.13457218645832825},{"name":"E2","midi":40,"time":97.02710949999863,"velocity":0.5039370078740157,"duration":0.13457218645832825},{"name":"E2","midi":40,"time":97.16224474999862,"velocity":0.5039370078740157,"duration":0.13457218645832825},{"name":"D3","midi":50,"time":97.29737999999861,"velocity":0.5039370078740157,"duration":0.13457218645832825},{"name":"E2","midi":40,"time":97.4325152499986,"velocity":0.5039370078740157,"duration":0.13457218645832825},{"name":"E2","midi":40,"time":97.56765049999859,"velocity":0.5039370078740157,"duration":0.13457218645832825},{"name":"E3","midi":52,"time":97.70278574999858,"velocity":0.5039370078740157,"duration":0.13457218645832825},{"name":"E2","midi":40,"time":97.83792099999857,"velocity":0.5039370078740157,"duration":0.13457218645832825},{"name":"E2","midi":40,"time":97.97305624999856,"velocity":0.5039370078740157,"duration":0.13457218645832825},{"name":"B2","midi":47,"time":98.10819149999855,"velocity":0.5039370078740157,"duration":0.13457218645832825},{"name":"E2","midi":40,"time":98.24332674999854,"velocity":0.5039370078740157,"duration":0.13457218645832825},{"name":"D3","midi":50,"time":98.37846199999854,"velocity":0.5039370078740157,"duration":0.13457218645832825},{"name":"E2","midi":40,"time":98.51359724999853,"velocity":0.5039370078740157,"duration":0.13457218645832825},{"name":"C#3","midi":49,"time":98.64873249999852,"velocity":0.5039370078740157,"duration":0.13457218645832825},{"name":"D3","midi":50,"time":98.7838677499985,"velocity":0.5039370078740157,"duration":0.13457218645832825},{"name":"E2","midi":40,"time":98.9190029999985,"velocity":0.5039370078740157,"duration":0.13457218645832825},{"name":"E3","midi":52,"time":99.05413824999849,"velocity":0.5039370078740157,"duration":0.13457218645832825},{"name":"E2","midi":40,"time":99.18927349999848,"velocity":0.5039370078740157,"duration":0.13457218645832825},{"name":"E2","midi":40,"time":99.32440874999847,"velocity":0.5039370078740157,"duration":0.13457218645832825},{"name":"D3","midi":50,"time":99.45954399999846,"velocity":0.5039370078740157,"duration":0.13457218645832825},{"name":"E2","midi":40,"time":99.59467924999845,"velocity":0.5039370078740157,"duration":0.13457218645832825},{"name":"E2","midi":40,"time":99.72981449999844,"velocity":0.5039370078740157,"duration":0.13457218645832825},{"name":"E3","midi":52,"time":99.86494974999843,"velocity":0.5039370078740157,"duration":0.13457218645832825},{"name":"E2","midi":40,"time":100.00008499999842,"velocity":0.5039370078740157,"duration":0.13457218645832825},{"name":"E2","midi":40,"time":100.13522024999841,"velocity":0.5039370078740157,"duration":0.13457218645832825},{"name":"G#3","midi":56,"time":100.2703554999984,"velocity":0.5039370078740157,"duration":0.13457218645832825},{"name":"E2","midi":40,"time":100.40549074999839,"velocity":0.5039370078740157,"duration":0.13457218645832825},{"name":"E2","midi":40,"time":100.54062599999838,"velocity":0.5039370078740157,"duration":0.13457218645832825},{"name":"E3","midi":52,"time":100.67576124999837,"velocity":0.5039370078740157,"duration":0.13457218645832825},{"name":"E2","midi":40,"time":100.81089649999836,"velocity":0.5039370078740157,"duration":0.13457218645832825},{"name":"E2","midi":40,"time":100.94603174999835,"velocity":0.5039370078740157,"duration":0.13457218645832825},{"name":"D3","midi":50,"time":101.08116699999835,"velocity":0.5039370078740157,"duration":0.13457218645832825},{"name":"E2","midi":40,"time":101.21630224999834,"velocity":0.5039370078740157,"duration":0.13457218645832825},{"name":"E2","midi":40,"time":101.35143749999833,"velocity":0.5039370078740157,"duration":0.13457218645832825},{"name":"E3","midi":52,"time":101.48657274999832,"velocity":0.5039370078740157,"duration":0.13457218645832825},{"name":"E2","midi":40,"time":101.6217079999983,"velocity":0.5039370078740157,"duration":0.13457218645832825},{"name":"E2","midi":40,"time":101.7568432499983,"velocity":0.5039370078740157,"duration":0.13457218645832825},{"name":"B2","midi":47,"time":101.89197849999829,"velocity":0.5039370078740157,"duration":0.13457218645832825},{"name":"E2","midi":40,"time":102.02711374999828,"velocity":0.5039370078740157,"duration":0.13457218645832825},{"name":"D3","midi":50,"time":102.16224899999827,"velocity":0.5039370078740157,"duration":0.13457218645832825},{"name":"E2","midi":40,"time":102.29738424999826,"velocity":0.5039370078740157,"duration":0.13457218645832825},{"name":"C#3","midi":49,"time":102.43251949999825,"velocity":0.5039370078740157,"duration":0.13457218645832825},{"name":"D3","midi":50,"time":102.56765474999824,"velocity":0.5039370078740157,"duration":0.13457218645832825},{"name":"E2","midi":40,"time":102.70278999999823,"velocity":0.5039370078740157,"duration":0.13457218645832825},{"name":"E3","midi":52,"time":102.83792524999822,"velocity":0.5039370078740157,"duration":0.13457218645832825},{"name":"E2","midi":40,"time":102.97306049999821,"velocity":0.5039370078740157,"duration":0.13457218645832825},{"name":"E2","midi":40,"time":103.1081957499982,"velocity":0.5039370078740157,"duration":0.13457218645832825},{"name":"D3","midi":50,"time":103.2433309999982,"velocity":0.5039370078740157,"duration":0.13457218645832825},{"name":"E2","midi":40,"time":103.37846624999818,"velocity":0.5039370078740157,"duration":0.13457218645832825},{"name":"E2","midi":40,"time":103.51360149999817,"velocity":0.5039370078740157,"duration":0.13457218645832825},{"name":"E3","midi":52,"time":103.64873674999816,"velocity":0.5039370078740157,"duration":0.13457218645832825},{"name":"E2","midi":40,"time":103.78387199999815,"velocity":0.5039370078740157,"duration":0.13457218645832825},{"name":"E2","midi":40,"time":103.91900724999815,"velocity":0.5039370078740157,"duration":0.13457218645832825},{"name":"G#3","midi":56,"time":104.05414249999814,"velocity":0.5039370078740157,"duration":0.13457218645832825},{"name":"E2","midi":40,"time":104.18927774999813,"velocity":0.5039370078740157,"duration":0.13457218645832825},{"name":"E2","midi":40,"time":104.32441299999812,"velocity":0.5039370078740157,"duration":0.13457218645832825},{"name":"E3","midi":52,"time":104.45954824999811,"velocity":0.5039370078740157,"duration":0.13457218645832825},{"name":"E2","midi":40,"time":104.5946834999981,"velocity":0.5039370078740157,"duration":0.13457218645832825},{"name":"E2","midi":40,"time":104.72981874999809,"velocity":0.5039370078740157,"duration":0.13457218645832825},{"name":"D3","midi":50,"time":104.86495399999808,"velocity":0.5039370078740157,"duration":0.13457218645832825},{"name":"E2","midi":40,"time":105.00008924999807,"velocity":0.5039370078740157,"duration":0.13457218645832825},{"name":"E2","midi":40,"time":105.13522449999806,"velocity":0.5039370078740157,"duration":0.13457218645832825},{"name":"E3","midi":52,"time":105.27035974999805,"velocity":0.5039370078740157,"duration":0.13457218645832825},{"name":"E2","midi":40,"time":105.40549499999804,"velocity":0.5039370078740157,"duration":0.13457218645832825},{"name":"E2","midi":40,"time":105.54063024999803,"velocity":0.5039370078740157,"duration":0.13457218645832825},{"name":"B2","midi":47,"time":105.67576549999802,"velocity":0.5039370078740157,"duration":0.13457218645832825},{"name":"E2","midi":40,"time":105.81090074999801,"velocity":0.5039370078740157,"duration":0.13457218645832825},{"name":"D3","midi":50,"time":105.946035999998,"velocity":0.5039370078740157,"duration":0.13457218645832825},{"name":"E2","midi":40,"time":106.081171249998,"velocity":0.5039370078740157,"duration":0.13457218645832825},{"name":"C#3","midi":49,"time":106.21630649999798,"velocity":0.5039370078740157,"duration":0.13457218645832825},{"name":"D3","midi":50,"time":106.35144174999797,"velocity":0.5039370078740157,"duration":0.13457218645832825},{"name":"E2","midi":40,"time":106.48657699999796,"velocity":0.5039370078740157,"duration":0.13457218645832825},{"name":"E3","midi":52,"time":106.62171224999796,"velocity":0.5039370078740157,"duration":0.13457218645832825},{"name":"E2","midi":40,"time":106.75684749999795,"velocity":0.5039370078740157,"duration":0.13457218645832825},{"name":"E2","midi":40,"time":106.89198274999794,"velocity":0.5039370078740157,"duration":0.13457218645832825},{"name":"D3","midi":50,"time":107.02711799999793,"velocity":0.5039370078740157,"duration":0.13457218645832825},{"name":"E2","midi":40,"time":107.16225324999792,"velocity":0.5039370078740157,"duration":0.13457218645832825},{"name":"E2","midi":40,"time":107.29738849999791,"velocity":0.5039370078740157,"duration":0.13457218645832825},{"name":"E3","midi":52,"time":107.4325237499979,"velocity":0.5039370078740157,"duration":0.13457218645832825},{"name":"E2","midi":40,"time":107.56765899999789,"velocity":0.5039370078740157,"duration":0.13457218645832825},{"name":"E2","midi":40,"time":107.70279424999788,"velocity":0.5039370078740157,"duration":0.13457218645832825},{"name":"G#3","midi":56,"time":107.83792949999787,"velocity":0.5039370078740157,"duration":0.13457218645832825},{"name":"E2","midi":40,"time":107.97306474999786,"velocity":0.5039370078740157,"duration":0.13457218645832825},{"name":"E2","midi":40,"time":108.10819999999785,"velocity":0.5039370078740157,"duration":0.13457218645832825},{"name":"B2","midi":47,"time":108.24333524999784,"velocity":0.5039370078740157,"duration":0.13457218645832825},{"name":"B2","midi":47,"time":108.37847049999783,"velocity":0.5039370078740157,"duration":0.13457218645832825},{"name":"E2","midi":40,"time":108.51360574999782,"velocity":0.5039370078740157,"duration":0.13457218645832825},{"name":"A#2","midi":46,"time":108.64874099999781,"velocity":0.5039370078740157,"duration":0.13457218645832825},{"name":"A#2","midi":46,"time":108.7838762499978,"velocity":0.5039370078740157,"duration":0.13457218645832825},{"name":"E2","midi":40,"time":108.9190114999978,"velocity":0.5039370078740157,"duration":0.13457218645832825},{"name":"B2","midi":47,"time":109.05414674999778,"velocity":0.5039370078740157,"duration":0.13457218645832825},{"name":"B2","midi":47,"time":109.18928199999777,"velocity":0.5039370078740157,"duration":0.13457218645832825},{"name":"E2","midi":40,"time":109.32441724999777,"velocity":0.5039370078740157,"duration":0.13457218645832825},{"name":"E3","midi":52,"time":109.45955249999776,"velocity":0.5039370078740157,"duration":0.13457218645832825},{"name":"E2","midi":40,"time":109.59468774999775,"velocity":0.5039370078740157,"duration":0.13457218645832825},{"name":"D3","midi":50,"time":109.72982299999774,"velocity":0.5039370078740157,"duration":0.13457218645832825},{"name":"E2","midi":40,"time":109.86495824999773,"velocity":0.5039370078740157,"duration":0.13457218645832825},{"name":"A2","midi":45,"time":110.00009349999772,"velocity":0.5039370078740157,"duration":0.13457218645832825},{"name":"G#2","midi":44,"time":110.13522874999771,"velocity":0.5039370078740157,"duration":0.13457218645832825},{"name":"E2","midi":40,"time":110.2703639999977,"velocity":0.5039370078740157,"duration":0.13457218645832825},{"name":"E3","midi":52,"time":110.40549924999769,"velocity":0.5039370078740157,"duration":0.13457218645832825},{"name":"E3","midi":52,"time":110.54063449999768,"velocity":0.5039370078740157,"duration":0.13457218645832825},{"name":"E2","midi":40,"time":110.67576974999767,"velocity":0.5039370078740157,"duration":0.13457218645832825},{"name":"G#2","midi":44,"time":110.81090499999766,"velocity":0.5039370078740157,"duration":0.13457218645832825},{"name":"A2","midi":45,"time":110.94604024999765,"velocity":0.5039370078740157,"duration":0.13457218645832825},{"name":"E2","midi":40,"time":111.08117549999764,"velocity":0.5039370078740157,"duration":0.13457218645832825},{"name":"A#2","midi":46,"time":111.21631074999763,"velocity":0.5039370078740157,"duration":0.13457218645832825},{"name":"E2","midi":40,"time":111.35144599999762,"velocity":0.5039370078740157,"duration":0.13457218645832825},{"name":"B2","midi":47,"time":111.48658124999761,"velocity":0.5039370078740157,"duration":0.13457218645832825},{"name":"D3","midi":50,"time":111.6217164999976,"velocity":0.5039370078740157,"duration":0.13457218645832825},{"name":"B2","midi":47,"time":111.7568517499976,"velocity":0.5039370078740157,"duration":0.13457218645832825},{"name":"E2","midi":40,"time":111.89198699999758,"velocity":0.5039370078740157,"duration":0.13457218645832825},{"name":"B2","midi":47,"time":112.02712224999757,"velocity":0.5039370078740157,"duration":0.13457218645832825},{"name":"B2","midi":47,"time":112.16225749999757,"velocity":0.5039370078740157,"duration":0.13457218645832825},{"name":"E2","midi":40,"time":112.29739274999756,"velocity":0.5039370078740157,"duration":0.13457218645832825},{"name":"A#2","midi":46,"time":112.43252799999755,"velocity":0.5039370078740157,"duration":0.13457218645832825},{"name":"A#2","midi":46,"time":112.56766324999754,"velocity":0.5039370078740157,"duration":0.13457218645832825},{"name":"E2","midi":40,"time":112.70279849999753,"velocity":0.5039370078740157,"duration":0.13457218645832825},{"name":"B2","midi":47,"time":112.83793374999752,"velocity":0.5039370078740157,"duration":0.13457218645832825},{"name":"B2","midi":47,"time":112.97306899999751,"velocity":0.5039370078740157,"duration":0.13457218645832825},{"name":"E2","midi":40,"time":113.1082042499975,"velocity":0.5039370078740157,"duration":0.13457218645832825},{"name":"E3","midi":52,"time":113.24333949999749,"velocity":0.5039370078740157,"duration":0.13457218645832825},{"name":"E2","midi":40,"time":113.37847474999748,"velocity":0.5039370078740157,"duration":0.13457218645832825},{"name":"D3","midi":50,"time":113.51360999999747,"velocity":0.5039370078740157,"duration":0.13457218645832825},{"name":"E2","midi":40,"time":113.64874524999746,"velocity":0.5039370078740157,"duration":0.13457218645832825},{"name":"A2","midi":45,"time":113.78388049999745,"velocity":0.5039370078740157,"duration":0.13457218645832825},{"name":"G#2","midi":44,"time":113.91901574999744,"velocity":0.5039370078740157,"duration":0.13457218645832825},{"name":"E2","midi":40,"time":114.05415099999743,"velocity":0.5039370078740157,"duration":0.13457218645832825},{"name":"E3","midi":52,"time":114.18928624999742,"velocity":0.5039370078740157,"duration":0.13457218645832825},{"name":"E3","midi":52,"time":114.32442149999741,"velocity":0.5039370078740157,"duration":0.13457218645832825},{"name":"E2","midi":40,"time":114.4595567499974,"velocity":0.5039370078740157,"duration":0.13457218645832825},{"name":"G#2","midi":44,"time":114.5946919999974,"velocity":0.5039370078740157,"duration":0.13457218645832825},{"name":"A2","midi":45,"time":114.72982724999738,"velocity":0.5039370078740157,"duration":0.13457218645832825},{"name":"E2","midi":40,"time":114.86496249999738,"velocity":0.5039370078740157,"duration":0.13457218645832825},{"name":"A#2","midi":46,"time":115.00009774999737,"velocity":0.5039370078740157,"duration":0.13457218645832825},{"name":"E2","midi":40,"time":115.13523299999736,"velocity":0.5039370078740157,"duration":0.13457218645832825},{"name":"B2","midi":47,"time":115.27036824999735,"velocity":0.5039370078740157,"duration":0.13457218645832825},{"name":"D3","midi":50,"time":115.40550349999734,"velocity":0.5039370078740157,"duration":0.13457218645832825},{"name":"B2","midi":47,"time":115.54063874999733,"velocity":0.5039370078740157,"duration":0.13457218645832825},{"name":"E2","midi":40,"time":115.67577399999732,"velocity":0.5039370078740157,"duration":0.13457218645832825},{"name":"B2","midi":47,"time":115.81090924999731,"velocity":0.5039370078740157,"duration":0.13457218645832825},{"name":"B2","midi":47,"time":115.9460444999973,"velocity":0.5039370078740157,"duration":0.13457218645832825},{"name":"E2","midi":40,"time":116.08117974999729,"velocity":0.5039370078740157,"duration":0.13457218645832825},{"name":"A#2","midi":46,"time":116.21631499999728,"velocity":0.5039370078740157,"duration":0.13457218645832825},{"name":"A#2","midi":46,"time":116.35145024999727,"velocity":0.5039370078740157,"duration":0.13457218645832825},{"name":"E2","midi":40,"time":116.48658549999726,"velocity":0.5039370078740157,"duration":0.13457218645832825},{"name":"B2","midi":47,"time":116.62172074999725,"velocity":0.5039370078740157,"duration":0.13457218645832825},{"name":"B2","midi":47,"time":116.75685599999724,"velocity":0.5039370078740157,"duration":0.13457218645832825},{"name":"E2","midi":40,"time":116.89199124999723,"velocity":0.5039370078740157,"duration":0.13457218645832825},{"name":"E3","midi":52,"time":117.02712649999722,"velocity":0.5039370078740157,"duration":0.13457218645832825},{"name":"E2","midi":40,"time":117.16226174999721,"velocity":0.5039370078740157,"duration":0.13457218645832825},{"name":"D3","midi":50,"time":117.2973969999972,"velocity":0.5039370078740157,"duration":0.13457218645832825},{"name":"E2","midi":40,"time":117.4325322499972,"velocity":0.5039370078740157,"duration":0.13457218645832825},{"name":"A2","midi":45,"time":117.56766749999719,"velocity":0.5039370078740157,"duration":0.13457218645832825},{"name":"G#2","midi":44,"time":117.70280274999718,"velocity":0.5039370078740157,"duration":0.13457218645832825},{"name":"E2","midi":40,"time":117.83793799999717,"velocity":0.5039370078740157,"duration":0.13457218645832825},{"name":"E3","midi":52,"time":117.97307324999716,"velocity":0.5039370078740157,"duration":0.13457218645832825},{"name":"E3","midi":52,"time":118.10820849999715,"velocity":0.5039370078740157,"duration":0.13457218645832825},{"name":"E2","midi":40,"time":118.24334374999714,"velocity":0.5039370078740157,"duration":0.13457218645832825},{"name":"G#2","midi":44,"time":118.37847899999713,"velocity":0.5039370078740157,"duration":0.13457218645832825},{"name":"A2","midi":45,"time":118.51361424999712,"velocity":0.5039370078740157,"duration":0.13457218645832825},{"name":"E2","midi":40,"time":118.64874949999711,"velocity":0.5039370078740157,"duration":0.13457218645832825},{"name":"A#2","midi":46,"time":118.7838847499971,"velocity":0.5039370078740157,"duration":0.13457218645832825},{"name":"E2","midi":40,"time":118.91901999999709,"velocity":0.5039370078740157,"duration":0.13457218645832825},{"name":"B2","midi":47,"time":119.05415524999708,"velocity":0.5039370078740157,"duration":0.13457218645832825},{"name":"D3","midi":50,"time":119.18929049999707,"velocity":0.5039370078740157,"duration":0.13457218645832825},{"name":"B2","midi":47,"time":119.32442574999706,"velocity":0.5039370078740157,"duration":0.13457218645832825},{"name":"E2","midi":40,"time":119.45956099999705,"velocity":0.5039370078740157,"duration":0.13457218645832825},{"name":"B2","midi":47,"time":119.59469624999704,"velocity":0.5039370078740157,"duration":0.13457218645832825},{"name":"B2","midi":47,"time":119.72983149999703,"velocity":0.5039370078740157,"duration":0.13457218645832825},{"name":"E2","midi":40,"time":119.86496674999702,"velocity":0.5039370078740157,"duration":0.13457218645832825},{"name":"A#2","midi":46,"time":120.00010199999701,"velocity":0.5039370078740157,"duration":0.13457218645832825},{"name":"A#2","midi":46,"time":120.135237249997,"velocity":0.5039370078740157,"duration":0.13457218645832825},{"name":"E2","midi":40,"time":120.270372499997,"velocity":0.5039370078740157,"duration":0.13457218645832825},{"name":"B2","midi":47,"time":120.40550774999699,"velocity":0.5039370078740157,"duration":0.13457218645832825},{"name":"B2","midi":47,"time":120.54064299999698,"velocity":0.5039370078740157,"duration":0.13457218645832825},{"name":"E2","midi":40,"time":120.67577824999697,"velocity":0.5039370078740157,"duration":0.13457218645832825},{"name":"E3","midi":52,"time":120.81091349999696,"velocity":0.5039370078740157,"duration":0.13457218645832825},{"name":"E2","midi":40,"time":120.94604874999695,"velocity":0.5039370078740157,"duration":0.13457218645832825},{"name":"D3","midi":50,"time":121.08118399999694,"velocity":0.5039370078740157,"duration":0.13457218645832825},{"name":"E2","midi":40,"time":121.21631924999693,"velocity":0.5039370078740157,"duration":0.13457218645832825},{"name":"A2","midi":45,"time":121.35145449999692,"velocity":0.5039370078740157,"duration":0.13457218645832825},{"name":"G#2","midi":44,"time":121.48658974999691,"velocity":0.5039370078740157,"duration":0.13457218645832825},{"name":"E2","midi":40,"time":121.6217249999969,"velocity":0.5039370078740157,"duration":0.13457218645832825},{"name":"E3","midi":52,"time":121.75686024999689,"velocity":0.5039370078740157,"duration":0.13457218645832825},{"name":"E3","midi":52,"time":121.89199549999688,"velocity":0.5039370078740157,"duration":0.13457218645832825},{"name":"E2","midi":40,"time":122.02713074999687,"velocity":0.5039370078740157,"duration":0.13457218645832825},{"name":"G#2","midi":44,"time":122.16226599999686,"velocity":0.5039370078740157,"duration":0.13457218645832825},{"name":"A2","midi":45,"time":122.29740124999685,"velocity":0.5039370078740157,"duration":0.13457218645832825},{"name":"E2","midi":40,"time":122.43253649999684,"velocity":0.5039370078740157,"duration":0.13457218645832825},{"name":"A#2","midi":46,"time":122.56767174999683,"velocity":0.5039370078740157,"duration":0.13457218645832825},{"name":"E2","midi":40,"time":122.70280699999682,"velocity":0.5039370078740157,"duration":0.13457218645832825},{"name":"B2","midi":47,"time":122.83794224999681,"velocity":0.5039370078740157,"duration":0.13457218645832825},{"name":"D3","midi":50,"time":122.9730774999968,"velocity":0.5039370078740157,"duration":0.13457218645832825},{"name":"B2","midi":47,"time":123.1082127499968,"velocity":0.5039370078740157,"duration":0.13457218645832825},{"name":"E2","midi":40,"time":123.24334799999679,"velocity":0.5039370078740157,"duration":0.13457218645832825},{"name":"E3","midi":52,"time":123.37848324999678,"velocity":0.5039370078740157,"duration":0.13457218645832825},{"name":"E2","midi":40,"time":123.51361849999677,"velocity":0.5039370078740157,"duration":0.13457218645832825},{"name":"E2","midi":40,"time":123.64875374999676,"velocity":0.5039370078740157,"duration":0.13457218645832825},{"name":"E2","midi":40,"time":124.05415949999676,"velocity":0.5039370078740157,"duration":0.13457218645832825},{"name":"D3","midi":50,"time":124.18929474999675,"velocity":0.5039370078740157,"duration":0.13457218645832825},{"name":"E2","midi":40,"time":124.32442999999674,"velocity":0.5039370078740157,"duration":0.13457218645832825},{"name":"E2","midi":40,"time":124.45956524999673,"velocity":0.5039370078740157,"duration":0.13457218645832825},{"name":"E2","midi":40,"time":124.86497099999673,"velocity":0.5039370078740157,"duration":0.13457218645832825},{"name":"E3","midi":52,"time":125.00010624999672,"velocity":0.5039370078740157,"duration":0.13457218645832825},{"name":"E2","midi":40,"time":125.13524149999671,"velocity":0.5039370078740157,"duration":0.13457218645832825},{"name":"E2","midi":40,"time":125.2703767499967,"velocity":0.5039370078740157,"duration":0.13457218645832825},{"name":"E2","midi":40,"time":125.6757824999967,"velocity":0.5039370078740157,"duration":0.13457218645832825},{"name":"E2","midi":40,"time":125.81091774999669,"velocity":0.5039370078740157,"duration":0.13457218645832825},{"name":"D3","midi":50,"time":125.94605299999668,"velocity":0.5039370078740157,"duration":0.13457218645832825},{"name":"E2","midi":40,"time":126.08118824999667,"velocity":0.5039370078740157,"duration":0.13457218645832825},{"name":"A2","midi":45,"time":126.48659399999667,"velocity":0.5039370078740157,"duration":0.13457218645832825},{"name":"A#2","midi":46,"time":126.62172924999666,"velocity":0.5039370078740157,"duration":0.13457218645832825},{"name":"B2","midi":47,"time":126.75686449999665,"velocity":0.5039370078740157,"duration":0.13457218645832825},{"name":"D3","midi":50,"time":126.89199974999664,"velocity":0.5039370078740157,"duration":0.13457218645832825},{"name":"E2","midi":40,"time":127.02713499999663,"velocity":0.5039370078740157,"duration":0.13457218645832825},{"name":"E3","midi":52,"time":127.16227024999662,"velocity":0.5039370078740157,"duration":0.13457218645832825},{"name":"E2","midi":40,"time":127.29740549999661,"velocity":0.5039370078740157,"duration":0.13457218645832825},{"name":"E2","midi":40,"time":127.4325407499966,"velocity":0.5039370078740157,"duration":0.13457218645832825},{"name":"E2","midi":40,"time":127.8379464999966,"velocity":0.5039370078740157,"duration":0.13457218645832825},{"name":"D3","midi":50,"time":127.9730817499966,"velocity":0.5039370078740157,"duration":0.13457218645834246},{"name":"E2","midi":40,"time":128.1082169999966,"velocity":0.5039370078740157,"duration":0.13457218645834246},{"name":"E2","midi":40,"time":128.24335224999663,"velocity":0.5039370078740157,"duration":0.13457218645834246},{"name":"E2","midi":40,"time":128.64875799999663,"velocity":0.5039370078740157,"duration":0.13457218645834246},{"name":"E3","midi":52,"time":128.78389324999665,"velocity":0.5039370078740157,"duration":0.13457218645834246},{"name":"E2","midi":40,"time":128.91902849999667,"velocity":0.5039370078740157,"duration":0.13457218645834246},{"name":"E2","midi":40,"time":129.0541637499967,"velocity":0.5039370078740157,"duration":0.13457218645834246},{"name":"E2","midi":40,"time":129.4595694999967,"velocity":0.5039370078740157,"duration":0.13457218645834246},{"name":"E2","midi":40,"time":129.5947047499967,"velocity":0.5039370078740157,"duration":0.13457218645834246},{"name":"D3","midi":50,"time":129.72983999999673,"velocity":0.5039370078740157,"duration":0.13457218645834246},{"name":"E2","midi":40,"time":129.86497524999675,"velocity":0.5039370078740157,"duration":0.13457218645834246},{"name":"A2","midi":45,"time":130.27038099999675,"velocity":0.5039370078740157,"duration":0.13457218645834246},{"name":"A#2","midi":46,"time":130.40551624999677,"velocity":0.5039370078740157,"duration":0.13457218645834246},{"name":"B2","midi":47,"time":130.54065149999678,"velocity":0.5039370078740157,"duration":0.13457218645834246},{"name":"D3","midi":50,"time":130.6757867499968,"velocity":0.5039370078740157,"duration":0.13457218645834246},{"name":"E2","midi":40,"time":130.81092199999682,"velocity":0.5039370078740157,"duration":0.13457218645834246},{"name":"E3","midi":52,"time":130.94605724999684,"velocity":0.5039370078740157,"duration":0.13457218645834246},{"name":"E2","midi":40,"time":131.08119249999686,"velocity":0.5039370078740157,"duration":0.13457218645834246},{"name":"E2","midi":40,"time":131.21632774999688,"velocity":0.5039370078740157,"duration":0.13457218645834246},{"name":"E2","midi":40,"time":131.62173349999688,"velocity":0.5039370078740157,"duration":0.13457218645834246},{"name":"D3","midi":50,"time":131.7568687499969,"velocity":0.5039370078740157,"duration":0.13457218645834246},{"name":"E2","midi":40,"time":131.89200399999692,"velocity":0.5039370078740157,"duration":0.13457218645834246},{"name":"E2","midi":40,"time":132.02713924999694,"velocity":0.5039370078740157,"duration":0.13457218645834246},{"name":"E2","midi":40,"time":132.43254499999694,"velocity":0.5039370078740157,"duration":0.13457218645834246},{"name":"E3","midi":52,"time":132.56768024999695,"velocity":0.5039370078740157,"duration":0.13457218645834246},{"name":"E2","midi":40,"time":132.70281549999697,"velocity":0.5039370078740157,"duration":0.13457218645834246},{"name":"E2","midi":40,"time":132.837950749997,"velocity":0.5039370078740157,"duration":0.13457218645834246},{"name":"E2","midi":40,"time":133.243356499997,"velocity":0.5039370078740157,"duration":0.13457218645834246},{"name":"E2","midi":40,"time":133.378491749997,"velocity":0.5039370078740157,"duration":0.13457218645834246},{"name":"D3","midi":50,"time":133.51362699999703,"velocity":0.5039370078740157,"duration":0.13457218645834246},{"name":"E2","midi":40,"time":133.64876224999705,"velocity":0.5039370078740157,"duration":0.13457218645834246},{"name":"A2","midi":45,"time":134.05416799999705,"velocity":0.5039370078740157,"duration":0.13457218645834246},{"name":"A#2","midi":46,"time":134.18930324999707,"velocity":0.5039370078740157,"duration":0.13457218645834246},{"name":"B2","midi":47,"time":134.3244384999971,"velocity":0.5039370078740157,"duration":0.13457218645834246},{"name":"D3","midi":50,"time":134.4595737499971,"velocity":0.5039370078740157,"duration":0.13457218645834246},{"name":"E2","midi":40,"time":134.59470899999712,"velocity":0.5039370078740157,"duration":0.13457218645834246},{"name":"E3","midi":52,"time":134.72984424999714,"velocity":0.5039370078740157,"duration":0.13457218645834246},{"name":"E2","midi":40,"time":134.86497949999716,"velocity":0.5039370078740157,"duration":0.13457218645834246},{"name":"E2","midi":40,"time":135.00011474999718,"velocity":0.5039370078740157,"duration":0.13457218645834246},{"name":"E2","midi":40,"time":135.40552049999718,"velocity":0.5039370078740157,"duration":0.13457218645834246},{"name":"D3","midi":50,"time":135.5406557499972,"velocity":0.5039370078740157,"duration":0.13457218645834246},{"name":"E2","midi":40,"time":135.67579099999722,"velocity":0.5039370078740157,"duration":0.13457218645834246},{"name":"E2","midi":40,"time":135.81092624999724,"velocity":0.5039370078740157,"duration":0.13457218645834246},{"name":"E2","midi":40,"time":136.21633199999724,"velocity":0.5039370078740157,"duration":0.13457218645834246},{"name":"E3","midi":52,"time":136.35146724999726,"velocity":0.5039370078740157,"duration":0.13457218645834246},{"name":"E2","midi":40,"time":136.48660249999728,"velocity":0.5039370078740157,"duration":0.13457218645834246},{"name":"E2","midi":40,"time":136.6217377499973,"velocity":0.5039370078740157,"duration":0.13457218645834246},{"name":"E2","midi":40,"time":137.0271434999973,"velocity":0.5039370078740157,"duration":0.13457218645834246},{"name":"E2","midi":40,"time":137.1622787499973,"velocity":0.5039370078740157,"duration":0.13457218645834246},{"name":"D3","midi":50,"time":137.29741399999733,"velocity":0.5039370078740157,"duration":0.13457218645834246},{"name":"E2","midi":40,"time":137.43254924999735,"velocity":0.5039370078740157,"duration":0.13457218645834246},{"name":"A2","midi":45,"time":137.83795499999735,"velocity":0.5039370078740157,"duration":0.13457218645834246},{"name":"A#2","midi":46,"time":137.97309024999737,"velocity":0.5039370078740157,"duration":0.13457218645834246},{"name":"B2","midi":47,"time":138.1082254999974,"velocity":0.5039370078740157,"duration":0.13457218645834246},{"name":"D3","midi":50,"time":138.2433607499974,"velocity":0.5039370078740157,"duration":0.13457218645834246},{"name":"E2","midi":40,"time":138.37849599999743,"velocity":0.5039370078740157,"duration":0.26970743645833295},{"name":"B2","midi":47,"time":138.64876649999744,"velocity":0.5039370078740157,"duration":0.13457218645834246},{"name":"E2","midi":40,"time":138.78390174999745,"velocity":0.5039370078740157,"duration":0.13457218645834246},{"name":"E2","midi":40,"time":139.18930749999745,"velocity":0.5039370078740157,"duration":0.26970743645833295},{"name":"A#2","midi":46,"time":139.45957799999746,"velocity":0.5039370078740157,"duration":0.13457218645834246},{"name":"E2","midi":40,"time":139.59471324999748,"velocity":0.5039370078740157,"duration":0.13457218645834246},{"name":"E2","midi":40,"time":140.00011899999748,"velocity":0.5039370078740157,"duration":0.26970743645833295},{"name":"G#2","midi":44,"time":140.2703894999975,"velocity":0.5039370078740157,"duration":0.13457218645834246},{"name":"E2","midi":40,"time":140.4055247499975,"velocity":0.5039370078740157,"duration":0.13457218645834246},{"name":"E2","midi":40,"time":140.67579524999752,"velocity":0.5039370078740157,"duration":0.26970743645833295},{"name":"A#2","midi":46,"time":140.94606574999753,"velocity":0.5039370078740157,"duration":0.13457218645834246},{"name":"E2","midi":40,"time":141.21633624999754,"velocity":0.5039370078740157,"duration":0.13457218645834246},{"name":"E2","midi":40,"time":141.48660674999755,"velocity":0.5039370078740157,"duration":0.13457218645834246},{"name":"B2","midi":47,"time":141.75687724999756,"velocity":0.5039370078740157,"duration":0.13457218645834246},{"name":"E2","midi":40,"time":141.89201249999758,"velocity":0.5039370078740157,"duration":0.13457218645834246},{"name":"E2","midi":40,"time":142.1622829999976,"velocity":0.5039370078740157,"duration":0.13457218645834246},{"name":"E3","midi":52,"time":142.2974182499976,"velocity":0.5039370078740157,"duration":0.13457218645834246},{"name":"E2","midi":40,"time":142.43255349999762,"velocity":0.5039370078740157,"duration":0.13457218645834246},{"name":"E2","midi":40,"time":142.56768874999764,"velocity":0.5039370078740157,"duration":0.13457218645834246},{"name":"E2","midi":40,"time":142.97309449999764,"velocity":0.5039370078740157,"duration":0.13457218645834246},{"name":"D3","midi":50,"time":143.10822974999766,"velocity":0.5039370078740157,"duration":0.13457218645834246},{"name":"E2","midi":40,"time":143.24336499999768,"velocity":0.5039370078740157,"duration":0.13457218645834246},{"name":"E2","midi":40,"time":143.3785002499977,"velocity":0.5039370078740157,"duration":0.13457218645834246},{"name":"E2","midi":40,"time":143.7839059999977,"velocity":0.5039370078740157,"duration":0.13457218645834246},{"name":"E3","midi":52,"time":143.91904124999772,"velocity":0.5039370078740157,"duration":0.13457218645834246},{"name":"E2","midi":40,"time":144.05417649999774,"velocity":0.5039370078740157,"duration":0.13457218645834246},{"name":"E2","midi":40,"time":144.18931174999776,"velocity":0.5039370078740157,"duration":0.13457218645834246},{"name":"E2","midi":40,"time":144.59471749999776,"velocity":0.5039370078740157,"duration":0.13457218645834246},{"name":"E2","midi":40,"time":144.72985274999778,"velocity":0.5039370078740157,"duration":0.13457218645834246},{"name":"D3","midi":50,"time":144.8649879999978,"velocity":0.5039370078740157,"duration":0.13457218645834246},{"name":"E2","midi":40,"time":145.0001232499978,"velocity":0.5039370078740157,"duration":0.13457218645834246},{"name":"A2","midi":45,"time":145.4055289999978,"velocity":0.5039370078740157,"duration":0.13457218645834246},{"name":"A#2","midi":46,"time":145.54066424999783,"velocity":0.5039370078740157,"duration":0.13457218645834246},{"name":"B2","midi":47,"time":145.67579949999785,"velocity":0.5039370078740157,"duration":0.13457218645834246},{"name":"D3","midi":50,"time":145.81093474999787,"velocity":0.5039370078740157,"duration":0.13457218645834246},{"name":"E2","midi":40,"time":145.9460699999979,"velocity":0.5039370078740157,"duration":0.26970743645833295},{"name":"B2","midi":47,"time":146.2163404999979,"velocity":0.5039370078740157,"duration":0.13457218645834246},{"name":"E2","midi":40,"time":146.35147574999792,"velocity":0.5039370078740157,"duration":0.13457218645834246},{"name":"E2","midi":40,"time":146.75688149999792,"velocity":0.5039370078740157,"duration":0.26970743645833295},{"name":"A#2","midi":46,"time":147.02715199999793,"velocity":0.5039370078740157,"duration":0.13457218645834246},{"name":"E2","midi":40,"time":147.16228724999795,"velocity":0.5039370078740157,"duration":0.13457218645834246},{"name":"E2","midi":40,"time":147.56769299999794,"velocity":0.5039370078740157,"duration":0.26970743645833295},{"name":"G#2","midi":44,"time":147.83796349999795,"velocity":0.5039370078740157,"duration":0.13457218645834246},{"name":"E2","midi":40,"time":147.97309874999797,"velocity":0.5039370078740157,"duration":0.13457218645834246},{"name":"E2","midi":40,"time":148.24336924999798,"velocity":0.5039370078740157,"duration":0.26970743645833295},{"name":"A#2","midi":46,"time":148.513639749998,"velocity":0.5039370078740157,"duration":0.13457218645834246},{"name":"E2","midi":40,"time":148.783910249998,"velocity":0.5039370078740157,"duration":0.13457218645834246},{"name":"E2","midi":40,"time":149.054180749998,"velocity":0.5039370078740157,"duration":0.13457218645834246},{"name":"B2","midi":47,"time":149.32445124999802,"velocity":0.5039370078740157,"duration":0.13457218645834246},{"name":"E2","midi":40,"time":149.45958649999804,"velocity":0.5039370078740157,"duration":0.13457218645834246},{"name":"E2","midi":40,"time":149.72985699999805,"velocity":0.5039370078740157,"duration":0.13457218645834246},{"name":"E3","midi":52,"time":149.86499224999807,"velocity":0.5039370078740157,"duration":0.13457218645834246},{"name":"E2","midi":40,"time":150.0001274999981,"velocity":0.5039370078740157,"duration":0.13457218645834246},{"name":"E2","midi":40,"time":150.1352627499981,"velocity":0.5039370078740157,"duration":0.13457218645834246},{"name":"E2","midi":40,"time":150.5406684999981,"velocity":0.5039370078740157,"duration":0.13457218645834246},{"name":"D3","midi":50,"time":150.67580374999812,"velocity":0.5039370078740157,"duration":0.13457218645834246},{"name":"E2","midi":40,"time":150.81093899999814,"velocity":0.5039370078740157,"duration":0.13457218645834246},{"name":"E2","midi":40,"time":150.94607424999816,"velocity":0.5039370078740157,"duration":0.13457218645834246},{"name":"E2","midi":40,"time":151.35147999999816,"velocity":0.5039370078740157,"duration":0.13457218645834246},{"name":"E3","midi":52,"time":151.48661524999818,"velocity":0.5039370078740157,"duration":0.13457218645834246},{"name":"E2","midi":40,"time":151.6217504999982,"velocity":0.5039370078740157,"duration":0.13457218645834246},{"name":"E2","midi":40,"time":151.75688574999822,"velocity":0.5039370078740157,"duration":0.13457218645834246},{"name":"E2","midi":40,"time":152.16229149999822,"velocity":0.5039370078740157,"duration":0.13457218645834246},{"name":"E2","midi":40,"time":152.29742674999824,"velocity":0.5039370078740157,"duration":0.13457218645834246},{"name":"D3","midi":50,"time":152.43256199999826,"velocity":0.5039370078740157,"duration":0.13457218645834246},{"name":"E2","midi":40,"time":152.56769724999828,"velocity":0.5039370078740157,"duration":0.13457218645834246},{"name":"A2","midi":45,"time":152.97310299999828,"velocity":0.5039370078740157,"duration":0.13457218645834246},{"name":"A#2","midi":46,"time":153.1082382499983,"velocity":0.5039370078740157,"duration":0.13457218645834246},{"name":"B2","midi":47,"time":153.2433734999983,"velocity":0.5039370078740157,"duration":0.13457218645834246},{"name":"D3","midi":50,"time":153.37850874999833,"velocity":0.5039370078740157,"duration":0.13457218645834246},{"name":"E2","midi":40,"time":153.51364399999835,"velocity":0.5039370078740157,"duration":0.13457218645834246},{"name":"E3","midi":52,"time":153.64877924999837,"velocity":0.5039370078740157,"duration":0.13457218645834246},{"name":"E2","midi":40,"time":153.7839144999984,"velocity":0.5039370078740157,"duration":0.13457218645834246},{"name":"E2","midi":40,"time":153.9190497499984,"velocity":0.5039370078740157,"duration":0.13457218645834246},{"name":"D3","midi":50,"time":154.05418499999843,"velocity":0.5039370078740157,"duration":0.13457218645834246},{"name":"E2","midi":40,"time":154.32445549999844,"velocity":0.5039370078740157,"duration":0.13457218645834246},{"name":"C#3","midi":49,"time":154.45959074999845,"velocity":0.5039370078740157,"duration":0.13457218645834246},{"name":"E2","midi":40,"time":154.59472599999847,"velocity":0.5039370078740157,"duration":0.13457218645834246},{"name":"E2","midi":40,"time":154.7298612499985,"velocity":0.5039370078740157,"duration":0.13457218645834246},{"name":"B2","midi":47,"time":154.8649964999985,"velocity":0.5039370078740157,"duration":0.13457218645834246},{"name":"E2","midi":40,"time":155.13526699999852,"velocity":0.5039370078740157,"duration":0.13457218645834246},{"name":"A2","midi":45,"time":155.27040224999854,"velocity":0.5039370078740157,"duration":0.13457218645834246},{"name":"B2","midi":47,"time":155.40553749999856,"velocity":0.5039370078740157,"duration":0.13457218645834246},{"name":"E3","midi":52,"time":155.54067274999858,"velocity":0.5039370078740157,"duration":0.13457218645834246},{"name":"E2","midi":40,"time":155.6758079999986,"velocity":0.5039370078740157,"duration":0.13457218645834246},{"name":"E3","midi":52,"time":155.81094324999862,"velocity":0.5039370078740157,"duration":0.13457218645834246},{"name":"E2","midi":40,"time":155.94607849999863,"velocity":0.5039370078740157,"duration":0.13457218645834246},{"name":"E2","midi":40,"time":156.08121374999865,"velocity":0.5039370078740157,"duration":0.13457218645834246},{"name":"D3","midi":50,"time":156.21634899999867,"velocity":0.5039370078740157,"duration":0.13457218645834246},{"name":"E2","midi":40,"time":156.48661949999868,"velocity":0.5039370078740157,"duration":0.13457218645834246},{"name":"C#3","midi":49,"time":156.6217547499987,"velocity":0.5039370078740157,"duration":0.13457218645834246},{"name":"E2","midi":40,"time":156.75688999999872,"velocity":0.5039370078740157,"duration":0.13457218645834246},{"name":"E2","midi":40,"time":156.89202524999874,"velocity":0.5039370078740157,"duration":0.13457218645834246},{"name":"B2","midi":47,"time":157.02716049999876,"velocity":0.5039370078740157,"duration":0.13457218645834246},{"name":"E2","midi":40,"time":157.29743099999877,"velocity":0.5039370078740157,"duration":0.13457218645834246},{"name":"E3","midi":52,"time":157.43256624999879,"velocity":0.5039370078740157,"duration":0.13457218645834246},{"name":"E2","midi":40,"time":157.5677014999988,"velocity":0.5039370078740157,"duration":0.13457218645834246},{"name":"E2","midi":40,"time":157.70283674999882,"velocity":0.5039370078740157,"duration":0.13457218645834246},{"name":"D3","midi":50,"time":157.83797199999884,"velocity":0.5039370078740157,"duration":0.13457218645834246},{"name":"E2","midi":40,"time":158.10824249999885,"velocity":0.5039370078740157,"duration":0.13457218645834246},{"name":"C#3","midi":49,"time":158.24337774999887,"velocity":0.5039370078740157,"duration":0.13457218645834246},{"name":"E2","midi":40,"time":158.3785129999989,"velocity":0.5039370078740157,"duration":0.13457218645834246},{"name":"E2","midi":40,"time":158.5136482499989,"velocity":0.5039370078740157,"duration":0.13457218645834246},{"name":"B2","midi":47,"time":158.64878349999893,"velocity":0.5039370078740157,"duration":0.13457218645834246},{"name":"E2","midi":40,"time":158.91905399999894,"velocity":0.5039370078740157,"duration":0.13457218645834246},{"name":"A2","midi":45,"time":159.05418924999896,"velocity":0.5039370078740157,"duration":0.13457218645834246},{"name":"B2","midi":47,"time":159.18932449999897,"velocity":0.5039370078740157,"duration":0.13457218645834246},{"name":"E3","midi":52,"time":159.324459749999,"velocity":0.5039370078740157,"duration":0.13457218645834246},{"name":"E2","midi":40,"time":159.459594999999,"velocity":0.5039370078740157,"duration":0.13457218645834246},{"name":"E3","midi":52,"time":159.59473024999903,"velocity":0.5039370078740157,"duration":0.13457218645834246},{"name":"E2","midi":40,"time":159.72986549999905,"velocity":0.5039370078740157,"duration":0.13457218645834246},{"name":"E2","midi":40,"time":159.86500074999907,"velocity":0.5039370078740157,"duration":0.13457218645834246},{"name":"D3","midi":50,"time":160.0001359999991,"velocity":0.5039370078740157,"duration":0.13457218645834246},{"name":"E2","midi":40,"time":160.2704064999991,"velocity":0.5039370078740157,"duration":0.13457218645834246},{"name":"C#3","midi":49,"time":160.40554174999912,"velocity":0.5039370078740157,"duration":0.13457218645834246},{"name":"E2","midi":40,"time":160.54067699999914,"velocity":0.5039370078740157,"duration":0.13457218645834246},{"name":"E2","midi":40,"time":160.67581224999915,"velocity":0.5039370078740157,"duration":0.13457218645834246},{"name":"B2","midi":47,"time":160.81094749999917,"velocity":0.5039370078740157,"duration":0.13457218645834246},{"name":"E2","midi":40,"time":161.08121799999918,"velocity":0.5039370078740157,"duration":0.13457218645834246},{"name":"E3","midi":52,"time":161.2163532499992,"velocity":0.5039370078740157,"duration":0.13457218645834246},{"name":"E2","midi":40,"time":161.35148849999922,"velocity":0.5039370078740157,"duration":0.13457218645834246},{"name":"E2","midi":40,"time":161.48662374999924,"velocity":0.5039370078740157,"duration":0.13457218645834246},{"name":"D3","midi":50,"time":161.62175899999926,"velocity":0.5039370078740157,"duration":0.13457218645834246},{"name":"E2","midi":40,"time":161.89202949999927,"velocity":0.5039370078740157,"duration":0.13457218645834246},{"name":"C#3","midi":49,"time":162.0271647499993,"velocity":0.5039370078740157,"duration":0.13457218645834246},{"name":"E2","midi":40,"time":162.1622999999993,"velocity":0.5039370078740157,"duration":0.13457218645834246},{"name":"E2","midi":40,"time":162.29743524999932,"velocity":0.5039370078740157,"duration":0.13457218645834246},{"name":"B2","midi":47,"time":162.43257049999934,"velocity":0.5039370078740157,"duration":0.13457218645834246},{"name":"E2","midi":40,"time":162.70284099999935,"velocity":0.5039370078740157,"duration":0.13457218645834246},{"name":"A2","midi":45,"time":162.83797624999937,"velocity":0.5039370078740157,"duration":0.13457218645834246},{"name":"B2","midi":47,"time":162.9731114999994,"velocity":0.5039370078740157,"duration":0.13457218645834246},{"name":"E3","midi":52,"time":163.1082467499994,"velocity":0.5039370078740157,"duration":0.13457218645834246},{"name":"E2","midi":40,"time":163.24338199999943,"velocity":0.5039370078740157,"duration":0.13457218645834246},{"name":"E3","midi":52,"time":163.37851724999945,"velocity":0.5039370078740157,"duration":0.13457218645834246},{"name":"E2","midi":40,"time":163.51365249999947,"velocity":0.5039370078740157,"duration":0.13457218645834246},{"name":"E2","midi":40,"time":163.64878774999949,"velocity":0.5039370078740157,"duration":0.13457218645834246},{"name":"D3","midi":50,"time":163.7839229999995,"velocity":0.5039370078740157,"duration":0.13457218645834246},{"name":"E2","midi":40,"time":164.0541934999995,"velocity":0.5039370078740157,"duration":0.13457218645834246},{"name":"C#3","midi":49,"time":164.18932874999953,"velocity":0.5039370078740157,"duration":0.13457218645834246},{"name":"E2","midi":40,"time":164.32446399999955,"velocity":0.5039370078740157,"duration":0.13457218645834246},{"name":"E2","midi":40,"time":164.45959924999957,"velocity":0.5039370078740157,"duration":0.13457218645834246},{"name":"B2","midi":47,"time":164.5947344999996,"velocity":0.5039370078740157,"duration":0.13457218645834246},{"name":"E2","midi":40,"time":164.8650049999996,"velocity":0.5039370078740157,"duration":0.13457218645834246},{"name":"E3","midi":52,"time":165.00014024999962,"velocity":0.5039370078740157,"duration":0.13457218645834246},{"name":"E2","midi":40,"time":165.13527549999964,"velocity":0.5039370078740157,"duration":0.13457218645834246},{"name":"E2","midi":40,"time":165.27041074999966,"velocity":0.5039370078740157,"duration":0.13457218645834246},{"name":"D3","midi":50,"time":165.40554599999967,"velocity":0.5039370078740157,"duration":0.13457218645834246},{"name":"E2","midi":40,"time":165.67581649999968,"velocity":0.5039370078740157,"duration":0.13457218645834246},{"name":"C#3","midi":49,"time":165.8109517499997,"velocity":0.5039370078740157,"duration":0.13457218645834246},{"name":"E2","midi":40,"time":165.94608699999972,"velocity":0.5039370078740157,"duration":0.13457218645834246},{"name":"E2","midi":40,"time":166.08122224999974,"velocity":0.5039370078740157,"duration":0.13457218645834246},{"name":"B2","midi":47,"time":166.21635749999976,"velocity":0.5039370078740157,"duration":0.13457218645834246},{"name":"E2","midi":40,"time":166.48662799999977,"velocity":0.5039370078740157,"duration":0.13457218645834246},{"name":"A2","midi":45,"time":166.6217632499998,"velocity":0.5039370078740157,"duration":0.13457218645834246},{"name":"B2","midi":47,"time":166.7568984999998,"velocity":0.5039370078740157,"duration":0.13457218645834246},{"name":"E3","midi":52,"time":166.89203374999983,"velocity":0.5039370078740157,"duration":0.13457218645834246},{"name":"E2","midi":40,"time":167.02716899999984,"velocity":0.5039370078740157,"duration":0.13457218645834246},{"name":"E3","midi":52,"time":167.16230424999986,"velocity":0.5039370078740157,"duration":0.13457218645834246},{"name":"E2","midi":40,"time":167.29743949999988,"velocity":0.5039370078740157,"duration":0.13457218645834246},{"name":"E2","midi":40,"time":167.4325747499999,"velocity":0.5039370078740157,"duration":0.13457218645834246},{"name":"D3","midi":50,"time":167.56770999999992,"velocity":0.5039370078740157,"duration":0.13457218645834246},{"name":"E2","midi":40,"time":167.83798049999993,"velocity":0.5039370078740157,"duration":0.13457218645834246},{"name":"C#3","midi":49,"time":167.97311574999995,"velocity":0.5039370078740157,"duration":0.13457218645834246},{"name":"E2","midi":40,"time":168.10825099999997,"velocity":0.5039370078740157,"duration":0.13457218645834246},{"name":"E2","midi":40,"time":168.24338625,"velocity":0.5039370078740157,"duration":0.13457218645834246},{"name":"B2","midi":47,"time":168.3785215,"velocity":0.5039370078740157,"duration":0.13457218645834246},{"name":"E2","midi":40,"time":168.64879200000001,"velocity":0.5039370078740157,"duration":0.13457218645834246},{"name":"E3","midi":52,"time":168.78392725000003,"velocity":0.5039370078740157,"duration":0.13457218645834246},{"name":"E2","midi":40,"time":168.91906250000005,"velocity":0.5039370078740157,"duration":0.13457218645834246},{"name":"E2","midi":40,"time":169.05419775000007,"velocity":0.5039370078740157,"duration":0.13457218645834246},{"name":"D3","midi":50,"time":169.1893330000001,"velocity":0.5039370078740157,"duration":0.13457218645834246},{"name":"E2","midi":40,"time":169.3244682500001,"velocity":0.5039370078740157,"duration":0.13457218645834246},{"name":"E2","midi":40,"time":169.45960350000013,"velocity":0.5039370078740157,"duration":0.13457218645834246},{"name":"E3","midi":52,"time":169.59473875000015,"velocity":0.5039370078740157,"duration":0.13457218645834246},{"name":"E2","midi":40,"time":169.72987400000017,"velocity":0.5039370078740157,"duration":0.13457218645834246},{"name":"E2","midi":40,"time":169.86500925000018,"velocity":0.5039370078740157,"duration":0.13457218645834246},{"name":"B2","midi":47,"time":170.0001445000002,"velocity":0.5039370078740157,"duration":0.13457218645834246},{"name":"E2","midi":40,"time":170.13527975000022,"velocity":0.5039370078740157,"duration":0.13457218645834246},{"name":"D3","midi":50,"time":170.27041500000024,"velocity":0.5039370078740157,"duration":0.13457218645834246},{"name":"E2","midi":40,"time":170.40555025000026,"velocity":0.5039370078740157,"duration":0.13457218645834246},{"name":"C#3","midi":49,"time":170.54068550000028,"velocity":0.5039370078740157,"duration":0.13457218645834246},{"name":"D3","midi":50,"time":170.6758207500003,"velocity":0.5039370078740157,"duration":0.13457218645834246},{"name":"E2","midi":40,"time":170.81095600000032,"velocity":0.5039370078740157,"duration":0.13457218645834246},{"name":"E3","midi":52,"time":170.94609125000034,"velocity":0.5039370078740157,"duration":0.13457218645834246},{"name":"E2","midi":40,"time":171.08122650000035,"velocity":0.5039370078740157,"duration":0.13457218645834246},{"name":"E2","midi":40,"time":171.21636175000037,"velocity":0.5039370078740157,"duration":0.13457218645834246},{"name":"D3","midi":50,"time":171.3514970000004,"velocity":0.5039370078740157,"duration":0.13457218645834246},{"name":"E2","midi":40,"time":171.4866322500004,"velocity":0.5039370078740157,"duration":0.13457218645834246},{"name":"E2","midi":40,"time":171.62176750000043,"velocity":0.5039370078740157,"duration":0.13457218645834246},{"name":"E3","midi":52,"time":171.75690275000045,"velocity":0.5039370078740157,"duration":0.13457218645834246},{"name":"E2","midi":40,"time":171.89203800000047,"velocity":0.5039370078740157,"duration":0.13457218645834246},{"name":"E2","midi":40,"time":172.0271732500005,"velocity":0.5039370078740157,"duration":0.13457218645834246},{"name":"G#3","midi":56,"time":172.1623085000005,"velocity":0.5039370078740157,"duration":0.13457218645834246},{"name":"E2","midi":40,"time":172.29744375000053,"velocity":0.5039370078740157,"duration":0.13457218645834246},{"name":"E2","midi":40,"time":172.43257900000054,"velocity":0.5039370078740157,"duration":0.13457218645834246},{"name":"E3","midi":52,"time":172.56771425000056,"velocity":0.5039370078740157,"duration":0.13457218645834246},{"name":"E2","midi":40,"time":172.70284950000058,"velocity":0.5039370078740157,"duration":0.13457218645834246},{"name":"E2","midi":40,"time":172.8379847500006,"velocity":0.5039370078740157,"duration":0.13457218645834246},{"name":"D3","midi":50,"time":172.97312000000062,"velocity":0.5039370078740157,"duration":0.13457218645834246},{"name":"E2","midi":40,"time":173.10825525000064,"velocity":0.5039370078740157,"duration":0.13457218645834246},{"name":"E2","midi":40,"time":173.24339050000066,"velocity":0.5039370078740157,"duration":0.13457218645834246},{"name":"E3","midi":52,"time":173.37852575000068,"velocity":0.5039370078740157,"duration":0.13457218645834246},{"name":"E2","midi":40,"time":173.5136610000007,"velocity":0.5039370078740157,"duration":0.13457218645834246},{"name":"E2","midi":40,"time":173.64879625000071,"velocity":0.5039370078740157,"duration":0.13457218645834246},{"name":"B2","midi":47,"time":173.78393150000073,"velocity":0.5039370078740157,"duration":0.13457218645834246},{"name":"E2","midi":40,"time":173.91906675000075,"velocity":0.5039370078740157,"duration":0.13457218645834246},{"name":"D3","midi":50,"time":174.05420200000077,"velocity":0.5039370078740157,"duration":0.13457218645834246},{"name":"E2","midi":40,"time":174.1893372500008,"velocity":0.5039370078740157,"duration":0.13457218645834246},{"name":"C#3","midi":49,"time":174.3244725000008,"velocity":0.5039370078740157,"duration":0.13457218645834246},{"name":"D3","midi":50,"time":174.45960775000083,"velocity":0.5039370078740157,"duration":0.13457218645834246},{"name":"E2","midi":40,"time":174.59474300000085,"velocity":0.5039370078740157,"duration":0.13457218645834246},{"name":"E3","midi":52,"time":174.72987825000087,"velocity":0.5039370078740157,"duration":0.13457218645834246},{"name":"E2","midi":40,"time":174.86501350000088,"velocity":0.5039370078740157,"duration":0.13457218645834246},{"name":"E2","midi":40,"time":175.0001487500009,"velocity":0.5039370078740157,"duration":0.13457218645834246},{"name":"D3","midi":50,"time":175.13528400000092,"velocity":0.5039370078740157,"duration":0.13457218645834246},{"name":"E2","midi":40,"time":175.27041925000094,"velocity":0.5039370078740157,"duration":0.13457218645834246},{"name":"E2","midi":40,"time":175.40555450000096,"velocity":0.5039370078740157,"duration":0.13457218645834246},{"name":"E3","midi":52,"time":175.54068975000098,"velocity":0.5039370078740157,"duration":0.13457218645834246},{"name":"E2","midi":40,"time":175.675825000001,"velocity":0.5039370078740157,"duration":0.13457218645834246},{"name":"E2","midi":40,"time":175.81096025000102,"velocity":0.5039370078740157,"duration":0.13457218645834246},{"name":"G#3","midi":56,"time":175.94609550000104,"velocity":0.5039370078740157,"duration":0.13457218645834246},{"name":"E2","midi":40,"time":176.08123075000105,"velocity":0.5039370078740157,"duration":0.13457218645834246},{"name":"E2","midi":40,"time":176.21636600000107,"velocity":0.5039370078740157,"duration":0.13457218645834246},{"name":"E3","midi":52,"time":176.3515012500011,"velocity":0.5039370078740157,"duration":0.13457218645834246},{"name":"E2","midi":40,"time":176.4866365000011,"velocity":0.5039370078740157,"duration":0.13457218645834246},{"name":"E2","midi":40,"time":176.62177175000113,"velocity":0.5039370078740157,"duration":0.13457218645834246},{"name":"D3","midi":50,"time":176.75690700000115,"velocity":0.5039370078740157,"duration":0.13457218645834246},{"name":"E2","midi":40,"time":177.02717750000116,"velocity":0.5039370078740157,"duration":0.13457218645834246},{"name":"C#3","midi":49,"time":177.16231275000118,"velocity":0.5039370078740157,"duration":0.13457218645834246},{"name":"E2","midi":40,"time":177.2974480000012,"velocity":0.5039370078740157,"duration":0.13457218645834246},{"name":"E2","midi":40,"time":177.43258325000122,"velocity":0.5039370078740157,"duration":0.13457218645834246},{"name":"B2","midi":47,"time":177.56771850000123,"velocity":0.5039370078740157,"duration":0.13457218645834246},{"name":"E2","midi":40,"time":177.83798900000124,"velocity":0.5039370078740157,"duration":0.13457218645834246},{"name":"A2","midi":45,"time":177.97312425000126,"velocity":0.5039370078740157,"duration":0.13457218645834246},{"name":"B2","midi":47,"time":178.10825950000128,"velocity":0.5039370078740157,"duration":0.13457218645834246},{"name":"E3","midi":52,"time":178.2433947500013,"velocity":0.5039370078740157,"duration":0.13457218645834246},{"name":"E2","midi":40,"time":178.37853000000132,"velocity":0.5039370078740157,"duration":0.13457218645834246},{"name":"E3","midi":52,"time":178.51366525000134,"velocity":0.5039370078740157,"duration":0.13457218645834246},{"name":"E2","midi":40,"time":178.64880050000136,"velocity":0.5039370078740157,"duration":0.13457218645834246},{"name":"E2","midi":40,"time":178.78393575000138,"velocity":0.5039370078740157,"duration":0.13457218645834246},{"name":"D3","midi":50,"time":178.9190710000014,"velocity":0.5039370078740157,"duration":0.13457218645834246},{"name":"E2","midi":40,"time":179.1893415000014,"velocity":0.5039370078740157,"duration":0.13457218645834246},{"name":"C#3","midi":49,"time":179.32447675000142,"velocity":0.5039370078740157,"duration":0.13457218645834246},{"name":"E2","midi":40,"time":179.45961200000144,"velocity":0.5039370078740157,"duration":0.13457218645834246},{"name":"E2","midi":40,"time":179.59474725000146,"velocity":0.5039370078740157,"duration":0.13457218645834246},{"name":"B2","midi":47,"time":179.72988250000148,"velocity":0.5039370078740157,"duration":0.13457218645834246},{"name":"E2","midi":40,"time":180.0001530000015,"velocity":0.5039370078740157,"duration":0.13457218645834246},{"name":"E3","midi":52,"time":180.1352882500015,"velocity":0.5039370078740157,"duration":0.13457218645834246},{"name":"E2","midi":40,"time":180.27042350000153,"velocity":0.5039370078740157,"duration":0.13457218645834246},{"name":"E2","midi":40,"time":180.40555875000155,"velocity":0.5039370078740157,"duration":0.13457218645834246},{"name":"D3","midi":50,"time":180.54069400000157,"velocity":0.5039370078740157,"duration":0.13457218645834246},{"name":"E2","midi":40,"time":180.81096450000157,"velocity":0.5039370078740157,"duration":0.13457218645834246},{"name":"C#3","midi":49,"time":180.9460997500016,"velocity":0.5039370078740157,"duration":0.13457218645834246},{"name":"E2","midi":40,"time":181.0812350000016,"velocity":0.5039370078740157,"duration":0.13457218645834246},{"name":"E2","midi":40,"time":181.21637025000163,"velocity":0.5039370078740157,"duration":0.13457218645834246},{"name":"B2","midi":47,"time":181.35150550000165,"velocity":0.5039370078740157,"duration":0.13457218645834246},{"name":"E2","midi":40,"time":181.62177600000166,"velocity":0.5039370078740157,"duration":0.13457218645834246},{"name":"A2","midi":45,"time":181.75691125000168,"velocity":0.5039370078740157,"duration":0.13457218645834246},{"name":"B2","midi":47,"time":181.8920465000017,"velocity":0.5039370078740157,"duration":0.13457218645834246},{"name":"E3","midi":52,"time":182.02718175000172,"velocity":0.5039370078740157,"duration":0.13457218645834246},{"name":"E2","midi":40,"time":182.16231700000174,"velocity":0.5039370078740157,"duration":0.13457218645834246},{"name":"E3","midi":52,"time":182.29745225000175,"velocity":0.5039370078740157,"duration":0.13457218645834246},{"name":"E2","midi":40,"time":182.43258750000177,"velocity":0.5039370078740157,"duration":0.13457218645834246},{"name":"E2","midi":40,"time":182.5677227500018,"velocity":0.5039370078740157,"duration":0.13457218645834246},{"name":"D3","midi":50,"time":182.7028580000018,"velocity":0.5039370078740157,"duration":0.13457218645834246},{"name":"E2","midi":40,"time":182.97312850000182,"velocity":0.5039370078740157,"duration":0.13457218645834246},{"name":"C#3","midi":49,"time":183.10826375000184,"velocity":0.5039370078740157,"duration":0.13457218645834246},{"name":"E2","midi":40,"time":183.24339900000186,"velocity":0.5039370078740157,"duration":0.13457218645834246},{"name":"E2","midi":40,"time":183.37853425000188,"velocity":0.5039370078740157,"duration":0.13457218645834246},{"name":"B2","midi":47,"time":183.5136695000019,"velocity":0.5039370078740157,"duration":0.13457218645834246},{"name":"E2","midi":40,"time":183.7839400000019,"velocity":0.5039370078740157,"duration":0.13457218645834246},{"name":"B2","midi":47,"time":183.91907525000192,"velocity":0.5039370078740157,"duration":0.13457218645834246},{"name":"B2","midi":47,"time":184.05421050000194,"velocity":0.5039370078740157,"duration":0.13457218645834246},{"name":"E2","midi":40,"time":184.18934575000196,"velocity":0.5039370078740157,"duration":0.13457218645834246},{"name":"A#2","midi":46,"time":184.32448100000198,"velocity":0.5039370078740157,"duration":0.13457218645834246},{"name":"A#2","midi":46,"time":184.459616250002,"velocity":0.5039370078740157,"duration":0.13457218645834246},{"name":"E2","midi":40,"time":184.59475150000202,"velocity":0.5039370078740157,"duration":0.13457218645834246},{"name":"B2","midi":47,"time":184.72988675000204,"velocity":0.5039370078740157,"duration":0.13457218645834246},{"name":"B2","midi":47,"time":184.86502200000206,"velocity":0.5039370078740157,"duration":0.13457218645834246},{"name":"E2","midi":40,"time":185.00015725000208,"velocity":0.5039370078740157,"duration":0.13457218645834246},{"name":"E3","midi":52,"time":185.1352925000021,"velocity":0.5039370078740157,"duration":0.13457218645834246},{"name":"E2","midi":40,"time":185.2704277500021,"velocity":0.5039370078740157,"duration":0.13457218645834246},{"name":"D3","midi":50,"time":185.40556300000213,"velocity":0.5039370078740157,"duration":0.13457218645834246},{"name":"E2","midi":40,"time":185.54069825000215,"velocity":0.5039370078740157,"duration":0.13457218645834246},{"name":"A2","midi":45,"time":185.67583350000217,"velocity":0.5039370078740157,"duration":0.13457218645834246},{"name":"G#2","midi":44,"time":185.8109687500022,"velocity":0.5039370078740157,"duration":0.13457218645834246},{"name":"E2","midi":40,"time":185.9461040000022,"velocity":0.5039370078740157,"duration":0.13457218645834246},{"name":"E3","midi":52,"time":186.08123925000223,"velocity":0.5039370078740157,"duration":0.13457218645834246},{"name":"E3","midi":52,"time":186.21637450000225,"velocity":0.5039370078740157,"duration":0.13457218645834246},{"name":"E2","midi":40,"time":186.35150975000226,"velocity":0.5039370078740157,"duration":0.13457218645834246},{"name":"G#2","midi":44,"time":186.48664500000228,"velocity":0.5039370078740157,"duration":0.13457218645834246},{"name":"A2","midi":45,"time":186.6217802500023,"velocity":0.5039370078740157,"duration":0.13457218645834246},{"name":"E2","midi":40,"time":186.75691550000232,"velocity":0.5039370078740157,"duration":0.13457218645834246},{"name":"A#2","midi":46,"time":186.89205075000234,"velocity":0.5039370078740157,"duration":0.13457218645834246},{"name":"E2","midi":40,"time":187.02718600000236,"velocity":0.5039370078740157,"duration":0.13457218645834246},{"name":"B2","midi":47,"time":187.16232125000238,"velocity":0.5039370078740157,"duration":0.13457218645834246},{"name":"D3","midi":50,"time":187.2974565000024,"velocity":0.5039370078740157,"duration":0.13457218645834246},{"name":"B2","midi":47,"time":187.43259175000242,"velocity":0.5039370078740157,"duration":0.13457218645834246},{"name":"E2","midi":40,"time":187.56772700000244,"velocity":0.5039370078740157,"duration":0.13457218645834246},{"name":"B2","midi":47,"time":187.70286225000245,"velocity":0.5039370078740157,"duration":0.13457218645834246},{"name":"B2","midi":47,"time":187.83799750000247,"velocity":0.5039370078740157,"duration":0.13457218645834246},{"name":"E2","midi":40,"time":187.9731327500025,"velocity":0.5039370078740157,"duration":0.13457218645834246},{"name":"A#2","midi":46,"time":188.1082680000025,"velocity":0.5039370078740157,"duration":0.13457218645834246},{"name":"A#2","midi":46,"time":188.24340325000253,"velocity":0.5039370078740157,"duration":0.13457218645834246},{"name":"E2","midi":40,"time":188.37853850000255,"velocity":0.5039370078740157,"duration":0.13457218645834246},{"name":"B2","midi":47,"time":188.51367375000257,"velocity":0.5039370078740157,"duration":0.13457218645834246},{"name":"B2","midi":47,"time":188.6488090000026,"velocity":0.5039370078740157,"duration":0.13457218645834246},{"name":"E2","midi":40,"time":188.7839442500026,"velocity":0.5039370078740157,"duration":0.13457218645834246},{"name":"E3","midi":52,"time":188.91907950000262,"velocity":0.5039370078740157,"duration":0.13457218645834246},{"name":"E2","midi":40,"time":189.05421475000264,"velocity":0.5039370078740157,"duration":0.13457218645834246},{"name":"D3","midi":50,"time":189.18935000000266,"velocity":0.5039370078740157,"duration":0.13457218645834246},{"name":"E2","midi":40,"time":189.32448525000268,"velocity":0.5039370078740157,"duration":0.13457218645834246},{"name":"A2","midi":45,"time":189.4596205000027,"velocity":0.5039370078740157,"duration":0.13457218645834246},{"name":"G#2","midi":44,"time":189.59475575000272,"velocity":0.5039370078740157,"duration":0.13457218645834246},{"name":"E2","midi":40,"time":189.72989100000274,"velocity":0.5039370078740157,"duration":0.13457218645834246},{"name":"E3","midi":52,"time":189.86502625000276,"velocity":0.5039370078740157,"duration":0.13457218645834246},{"name":"E3","midi":52,"time":190.00016150000278,"velocity":0.5039370078740157,"duration":0.13457218645834246},{"name":"E2","midi":40,"time":190.1352967500028,"velocity":0.5039370078740157,"duration":0.13457218645834246},{"name":"G#2","midi":44,"time":190.2704320000028,"velocity":0.5039370078740157,"duration":0.13457218645834246},{"name":"A2","midi":45,"time":190.40556725000283,"velocity":0.5039370078740157,"duration":0.13457218645834246},{"name":"E2","midi":40,"time":190.54070250000285,"velocity":0.5039370078740157,"duration":0.13457218645834246},{"name":"A#2","midi":46,"time":190.67583775000287,"velocity":0.5039370078740157,"duration":0.13457218645834246},{"name":"E2","midi":40,"time":190.8109730000029,"velocity":0.5039370078740157,"duration":0.13457218645834246},{"name":"B2","midi":47,"time":190.9461082500029,"velocity":0.5039370078740157,"duration":0.13457218645834246},{"name":"D3","midi":50,"time":191.08124350000293,"velocity":0.5039370078740157,"duration":0.13457218645834246},{"name":"B2","midi":47,"time":191.21637875000295,"velocity":0.5039370078740157,"duration":0.13457218645834246},{"name":"E2","midi":40,"time":191.35151400000296,"velocity":0.5039370078740157,"duration":0.13457218645834246},{"name":"B2","midi":47,"time":191.48664925000298,"velocity":0.5039370078740157,"duration":0.13457218645834246},{"name":"B2","midi":47,"time":191.621784500003,"velocity":0.5039370078740157,"duration":0.13457218645834246},{"name":"E2","midi":40,"time":191.75691975000302,"velocity":0.5039370078740157,"duration":0.13457218645834246},{"name":"A#2","midi":46,"time":191.89205500000304,"velocity":0.5039370078740157,"duration":0.13457218645834246},{"name":"A#2","midi":46,"time":192.02719025000306,"velocity":0.5039370078740157,"duration":0.13457218645834246},{"name":"E2","midi":40,"time":192.16232550000308,"velocity":0.5039370078740157,"duration":0.13457218645834246},{"name":"B2","midi":47,"time":192.2974607500031,"velocity":0.5039370078740157,"duration":0.13457218645834246},{"name":"B2","midi":47,"time":192.43259600000312,"velocity":0.5039370078740157,"duration":0.13457218645834246},{"name":"E2","midi":40,"time":192.56773125000313,"velocity":0.5039370078740157,"duration":0.13457218645834246},{"name":"E3","midi":52,"time":192.70286650000315,"velocity":0.5039370078740157,"duration":0.13457218645834246},{"name":"E2","midi":40,"time":192.83800175000317,"velocity":0.5039370078740157,"duration":0.13457218645834246},{"name":"D3","midi":50,"time":192.9731370000032,"velocity":0.5039370078740157,"duration":0.13457218645834246},{"name":"E2","midi":40,"time":193.1082722500032,"velocity":0.5039370078740157,"duration":0.13457218645834246},{"name":"A2","midi":45,"time":193.24340750000323,"velocity":0.5039370078740157,"duration":0.13457218645834246},{"name":"G#2","midi":44,"time":193.37854275000325,"velocity":0.5039370078740157,"duration":0.13457218645834246},{"name":"E2","midi":40,"time":193.51367800000327,"velocity":0.5039370078740157,"duration":0.13457218645834246},{"name":"E3","midi":52,"time":193.6488132500033,"velocity":0.5039370078740157,"duration":0.13457218645834246},{"name":"E3","midi":52,"time":193.7839485000033,"velocity":0.5039370078740157,"duration":0.13457218645834246},{"name":"E2","midi":40,"time":193.91908375000332,"velocity":0.5039370078740157,"duration":0.13457218645834246},{"name":"G#2","midi":44,"time":194.05421900000334,"velocity":0.5039370078740157,"duration":0.13457218645834246},{"name":"A2","midi":45,"time":194.18935425000336,"velocity":0.5039370078740157,"duration":0.13457218645834246},{"name":"E2","midi":40,"time":194.32448950000338,"velocity":0.5039370078740157,"duration":0.13457218645834246},{"name":"A#2","midi":46,"time":194.4596247500034,"velocity":0.5039370078740157,"duration":0.13457218645834246},{"name":"E2","midi":40,"time":194.59476000000342,"velocity":0.5039370078740157,"duration":0.13457218645834246},{"name":"B2","midi":47,"time":194.72989525000344,"velocity":0.5039370078740157,"duration":0.13457218645834246},{"name":"D3","midi":50,"time":194.86503050000346,"velocity":0.5039370078740157,"duration":0.13457218645834246},{"name":"B2","midi":47,"time":195.00016575000348,"velocity":0.5039370078740157,"duration":0.13457218645834246},{"name":"E2","midi":40,"time":195.1353010000035,"velocity":0.5039370078740157,"duration":0.13457218645834246},{"name":"B2","midi":47,"time":195.2704362500035,"velocity":0.5039370078740157,"duration":0.13457218645834246},{"name":"B2","midi":47,"time":195.40557150000353,"velocity":0.5039370078740157,"duration":0.13457218645834246},{"name":"E2","midi":40,"time":195.54070675000355,"velocity":0.5039370078740157,"duration":0.13457218645834246},{"name":"A#2","midi":46,"time":195.67584200000357,"velocity":0.5039370078740157,"duration":0.13457218645834246},{"name":"A#2","midi":46,"time":195.8109772500036,"velocity":0.5039370078740157,"duration":0.13457218645834246},{"name":"E2","midi":40,"time":195.9461125000036,"velocity":0.5039370078740157,"duration":0.13457218645834246},{"name":"B2","midi":47,"time":196.08124775000363,"velocity":0.5039370078740157,"duration":0.13457218645834246},{"name":"B2","midi":47,"time":196.21638300000365,"velocity":0.5039370078740157,"duration":0.13457218645834246},{"name":"E2","midi":40,"time":196.35151825000366,"velocity":0.5039370078740157,"duration":0.13457218645834246},{"name":"E3","midi":52,"time":196.48665350000368,"velocity":0.5039370078740157,"duration":0.13457218645834246},{"name":"E2","midi":40,"time":196.6217887500037,"velocity":0.5039370078740157,"duration":0.13457218645834246},{"name":"D3","midi":50,"time":196.75692400000372,"velocity":0.5039370078740157,"duration":0.13457218645834246},{"name":"E2","midi":40,"time":196.89205925000374,"velocity":0.5039370078740157,"duration":0.13457218645834246},{"name":"A2","midi":45,"time":197.02719450000376,"velocity":0.5039370078740157,"duration":0.13457218645834246},{"name":"G#2","midi":44,"time":197.16232975000378,"velocity":0.5039370078740157,"duration":0.13457218645834246},{"name":"E2","midi":40,"time":197.2974650000038,"velocity":0.5039370078740157,"duration":0.13457218645834246},{"name":"E3","midi":52,"time":197.43260025000382,"velocity":0.5039370078740157,"duration":0.13457218645834246},{"name":"E3","midi":52,"time":197.56773550000383,"velocity":0.5039370078740157,"duration":0.13457218645834246},{"name":"E2","midi":40,"time":197.70287075000385,"velocity":0.5039370078740157,"duration":0.13457218645834246},{"name":"G#2","midi":44,"time":197.83800600000387,"velocity":0.5039370078740157,"duration":0.13457218645834246},{"name":"A2","midi":45,"time":197.9731412500039,"velocity":0.5039370078740157,"duration":0.13457218645834246},{"name":"E2","midi":40,"time":198.1082765000039,"velocity":0.5039370078740157,"duration":0.13457218645834246},{"name":"A#2","midi":46,"time":198.24341175000393,"velocity":0.5039370078740157,"duration":0.13457218645834246},{"name":"E2","midi":40,"time":198.37854700000395,"velocity":0.5039370078740157,"duration":0.13457218645834246},{"name":"B2","midi":47,"time":198.51368225000397,"velocity":0.5039370078740157,"duration":0.13457218645834246},{"name":"D3","midi":50,"time":198.648817500004,"velocity":0.5039370078740157,"duration":0.13457218645834246},{"name":"B2","midi":47,"time":198.783952750004,"velocity":0.5039370078740157,"duration":0.13457218645834246},{"name":"E2","midi":40,"time":198.91908800000402,"velocity":0.5039370078740157,"duration":0.13457218645834246},{"name":"E3","midi":52,"time":199.05422325000404,"velocity":0.5039370078740157,"duration":0.13457218645834246},{"name":"E2","midi":40,"time":199.18935850000406,"velocity":0.5039370078740157,"duration":0.13457218645834246},{"name":"E2","midi":40,"time":199.32449375000408,"velocity":0.5039370078740157,"duration":0.13457218645834246},{"name":"D3","midi":50,"time":199.4596290000041,"velocity":0.5039370078740157,"duration":0.13457218645834246},{"name":"E2","midi":40,"time":199.59476425000412,"velocity":0.5039370078740157,"duration":0.13457218645834246},{"name":"E2","midi":40,"time":199.72989950000414,"velocity":0.5039370078740157,"duration":0.13457218645834246},{"name":"E3","midi":52,"time":199.86503475000416,"velocity":0.5039370078740157,"duration":0.13457218645834246},{"name":"E2","midi":40,"time":200.00017000000418,"velocity":0.5039370078740157,"duration":0.13457218645834246},{"name":"E2","midi":40,"time":200.1353052500042,"velocity":0.5039370078740157,"duration":0.13457218645834246},{"name":"B2","midi":47,"time":200.2704405000042,"velocity":0.5039370078740157,"duration":0.13457218645834246},{"name":"E2","midi":40,"time":200.40557575000423,"velocity":0.5039370078740157,"duration":0.13457218645834246},{"name":"D3","midi":50,"time":200.54071100000425,"velocity":0.5039370078740157,"duration":0.13457218645834246},{"name":"E2","midi":40,"time":200.67584625000427,"velocity":0.5039370078740157,"duration":0.13457218645834246},{"name":"C#3","midi":49,"time":200.8109815000043,"velocity":0.5039370078740157,"duration":0.13457218645834246},{"name":"D3","midi":50,"time":200.9461167500043,"velocity":0.5039370078740157,"duration":0.13457218645834246},{"name":"E2","midi":40,"time":201.08125200000433,"velocity":0.5039370078740157,"duration":0.13457218645834246},{"name":"E3","midi":52,"time":201.21638725000435,"velocity":0.5039370078740157,"duration":0.13457218645834246},{"name":"E2","midi":40,"time":201.35152250000436,"velocity":0.5039370078740157,"duration":0.13457218645834246},{"name":"E2","midi":40,"time":201.48665775000438,"velocity":0.5039370078740157,"duration":0.13457218645834246},{"name":"D3","midi":50,"time":201.6217930000044,"velocity":0.5039370078740157,"duration":0.13457218645834246},{"name":"E2","midi":40,"time":201.75692825000442,"velocity":0.5039370078740157,"duration":0.13457218645834246},{"name":"E2","midi":40,"time":201.89206350000444,"velocity":0.5039370078740157,"duration":0.13457218645834246},{"name":"E3","midi":52,"time":202.02719875000446,"velocity":0.5039370078740157,"duration":0.13457218645834246},{"name":"E2","midi":40,"time":202.16233400000448,"velocity":0.5039370078740157,"duration":0.13457218645834246},{"name":"E2","midi":40,"time":202.2974692500045,"velocity":0.5039370078740157,"duration":0.13457218645834246},{"name":"G#3","midi":56,"time":202.43260450000452,"velocity":0.5039370078740157,"duration":0.13457218645834246},{"name":"E2","midi":40,"time":202.56773975000453,"velocity":0.5039370078740157,"duration":0.13457218645834246},{"name":"E2","midi":40,"time":202.70287500000455,"velocity":0.5039370078740157,"duration":0.13457218645834246},{"name":"E3","midi":52,"time":202.83801025000457,"velocity":0.5039370078740157,"duration":0.13457218645834246},{"name":"E2","midi":40,"time":202.9731455000046,"velocity":0.5039370078740157,"duration":0.13457218645834246},{"name":"E2","midi":40,"time":203.1082807500046,"velocity":0.5039370078740157,"duration":0.13457218645834246},{"name":"D3","midi":50,"time":203.24341600000463,"velocity":0.5039370078740157,"duration":0.13457218645834246},{"name":"E2","midi":40,"time":203.37855125000465,"velocity":0.5039370078740157,"duration":0.13457218645834246},{"name":"E2","midi":40,"time":203.51368650000467,"velocity":0.5039370078740157,"duration":0.13457218645834246},{"name":"E3","midi":52,"time":203.64882175000469,"velocity":0.5039370078740157,"duration":0.13457218645834246},{"name":"E2","midi":40,"time":203.7839570000047,"velocity":0.5039370078740157,"duration":0.13457218645834246},{"name":"E2","midi":40,"time":203.91909225000472,"velocity":0.5039370078740157,"duration":0.13457218645834246},{"name":"B2","midi":47,"time":204.05422750000474,"velocity":0.5039370078740157,"duration":0.13457218645834246},{"name":"E2","midi":40,"time":204.18936275000476,"velocity":0.5039370078740157,"duration":0.13457218645834246},{"name":"D3","midi":50,"time":204.32449800000478,"velocity":0.5039370078740157,"duration":0.13457218645834246},{"name":"E2","midi":40,"time":204.4596332500048,"velocity":0.5039370078740157,"duration":0.13457218645834246},{"name":"C#3","midi":49,"time":204.59476850000482,"velocity":0.5039370078740157,"duration":0.13457218645834246},{"name":"D3","midi":50,"time":204.72990375000484,"velocity":0.5039370078740157,"duration":0.13457218645834246},{"name":"E2","midi":40,"time":204.86503900000486,"velocity":0.5039370078740157,"duration":0.13457218645834246},{"name":"E3","midi":52,"time":205.00017425000487,"velocity":0.5039370078740157,"duration":0.13457218645834246},{"name":"E2","midi":40,"time":205.1353095000049,"velocity":0.5039370078740157,"duration":0.13457218645834246},{"name":"E2","midi":40,"time":205.2704447500049,"velocity":0.5039370078740157,"duration":0.13457218645834246},{"name":"D3","midi":50,"time":205.40558000000493,"velocity":0.5039370078740157,"duration":0.13457218645834246},{"name":"E2","midi":40,"time":205.54071525000495,"velocity":0.5039370078740157,"duration":0.13457218645834246},{"name":"E2","midi":40,"time":205.67585050000497,"velocity":0.5039370078740157,"duration":0.13457218645834246},{"name":"E3","midi":52,"time":205.810985750005,"velocity":0.5039370078740157,"duration":0.13457218645834246},{"name":"E2","midi":40,"time":205.946121000005,"velocity":0.5039370078740157,"duration":0.13457218645834246},{"name":"E2","midi":40,"time":206.08125625000503,"velocity":0.5039370078740157,"duration":0.13457218645834246},{"name":"G#3","midi":56,"time":206.21639150000505,"velocity":0.5039370078740157,"duration":0.13457218645834246},{"name":"E2","midi":40,"time":206.35152675000506,"velocity":0.5039370078740157,"duration":0.13457218645834246},{"name":"E2","midi":40,"time":206.48666200000508,"velocity":0.5039370078740157,"duration":0.13457218645834246},{"name":"E3","midi":52,"time":206.6217972500051,"velocity":0.5039370078740157,"duration":0.13457218645834246},{"name":"E2","midi":40,"time":206.75693250000512,"velocity":0.5039370078740157,"duration":0.13457218645834246},{"name":"E2","midi":40,"time":206.89206775000514,"velocity":0.5039370078740157,"duration":0.13457218645834246},{"name":"D3","midi":50,"time":207.02720300000516,"velocity":0.5039370078740157,"duration":0.13457218645834246},{"name":"E2","midi":40,"time":207.16233825000518,"velocity":0.5039370078740157,"duration":0.13457218645834246},{"name":"E2","midi":40,"time":207.2974735000052,"velocity":0.5039370078740157,"duration":0.13457218645834246},{"name":"E3","midi":52,"time":207.43260875000522,"velocity":0.5039370078740157,"duration":0.13457218645834246},{"name":"E2","midi":40,"time":207.56774400000523,"velocity":0.5039370078740157,"duration":0.13457218645834246},{"name":"E2","midi":40,"time":207.70287925000525,"velocity":0.5039370078740157,"duration":0.13457218645834246},{"name":"B2","midi":47,"time":207.83801450000527,"velocity":0.5039370078740157,"duration":0.13457218645834246},{"name":"E2","midi":40,"time":207.9731497500053,"velocity":0.5039370078740157,"duration":0.13457218645834246},{"name":"D3","midi":50,"time":208.1082850000053,"velocity":0.5039370078740157,"duration":0.13457218645834246},{"name":"E2","midi":40,"time":208.24342025000533,"velocity":0.5039370078740157,"duration":0.13457218645834246},{"name":"C#3","midi":49,"time":208.37855550000535,"velocity":0.5039370078740157,"duration":0.13457218645834246},{"name":"D3","midi":50,"time":208.51369075000537,"velocity":0.5039370078740157,"duration":0.13457218645834246},{"name":"E2","midi":40,"time":208.64882600000539,"velocity":0.5039370078740157,"duration":0.13457218645834246},{"name":"E3","midi":52,"time":208.7839612500054,"velocity":0.5039370078740157,"duration":0.13457218645834246},{"name":"E2","midi":40,"time":208.91909650000542,"velocity":0.5039370078740157,"duration":0.13457218645834246},{"name":"E2","midi":40,"time":209.05423175000544,"velocity":0.5039370078740157,"duration":0.13457218645834246},{"name":"D3","midi":50,"time":209.18936700000546,"velocity":0.5039370078740157,"duration":0.13457218645834246},{"name":"E2","midi":40,"time":209.32450225000548,"velocity":0.5039370078740157,"duration":0.13457218645834246},{"name":"E2","midi":40,"time":209.4596375000055,"velocity":0.5039370078740157,"duration":0.13457218645834246},{"name":"E3","midi":52,"time":209.59477275000552,"velocity":0.5039370078740157,"duration":0.13457218645834246},{"name":"E2","midi":40,"time":209.72990800000554,"velocity":0.5039370078740157,"duration":0.13457218645834246},{"name":"E2","midi":40,"time":209.86504325000556,"velocity":0.5039370078740157,"duration":0.13457218645834246},{"name":"G#3","midi":56,"time":210.00017850000557,"velocity":0.5039370078740157,"duration":0.13457218645834246},{"name":"E2","midi":40,"time":210.1353137500056,"velocity":0.5039370078740157,"duration":0.13457218645834246},{"name":"E2","midi":40,"time":210.2704490000056,"velocity":0.5039370078740157,"duration":0.13457218645834246},{"name":"E3","midi":52,"time":210.40558425000563,"velocity":0.5039370078740157,"duration":0.13457218645834246},{"name":"E2","midi":40,"time":210.54071950000565,"velocity":0.5039370078740157,"duration":0.13457218645834246},{"name":"E2","midi":40,"time":210.67585475000567,"velocity":0.5039370078740157,"duration":0.13457218645834246},{"name":"D3","midi":50,"time":210.8109900000057,"velocity":0.5039370078740157,"duration":0.13457218645834246},{"name":"E2","midi":40,"time":210.9461252500057,"velocity":0.5039370078740157,"duration":0.13457218645834246},{"name":"E2","midi":40,"time":211.08126050000573,"velocity":0.5039370078740157,"duration":0.13457218645834246},{"name":"E3","midi":52,"time":211.21639575000574,"velocity":0.5039370078740157,"duration":0.13457218645834246},{"name":"E2","midi":40,"time":211.35153100000576,"velocity":0.5039370078740157,"duration":0.13457218645834246},{"name":"E2","midi":40,"time":211.48666625000578,"velocity":0.5039370078740157,"duration":0.13457218645834246},{"name":"B2","midi":47,"time":211.6218015000058,"velocity":0.5039370078740157,"duration":0.13457218645834246},{"name":"E2","midi":40,"time":211.75693675000582,"velocity":0.5039370078740157,"duration":0.13457218645834246},{"name":"D3","midi":50,"time":211.89207200000584,"velocity":0.5039370078740157,"duration":0.13457218645834246},{"name":"E2","midi":40,"time":212.02720725000586,"velocity":0.5039370078740157,"duration":0.13457218645834246},{"name":"C#3","midi":49,"time":212.16234250000588,"velocity":0.5039370078740157,"duration":0.13457218645834246},{"name":"D3","midi":50,"time":212.2974777500059,"velocity":0.5039370078740157,"duration":0.13457218645834246},{"name":"E2","midi":40,"time":212.43261300000592,"velocity":0.5039370078740157,"duration":0.13457218645834246},{"name":"E3","midi":52,"time":212.56774825000593,"velocity":0.5039370078740157,"duration":0.13457218645834246},{"name":"E2","midi":40,"time":212.70288350000595,"velocity":0.5039370078740157,"duration":0.13457218645834246},{"name":"E2","midi":40,"time":212.83801875000597,"velocity":0.5039370078740157,"duration":0.13457218645834246},{"name":"D3","midi":50,"time":212.973154000006,"velocity":0.5039370078740157,"duration":0.13457218645834246},{"name":"E2","midi":40,"time":213.108289250006,"velocity":0.5039370078740157,"duration":0.13457218645834246},{"name":"E2","midi":40,"time":213.24342450000603,"velocity":0.5039370078740157,"duration":0.13457218645834246},{"name":"E3","midi":52,"time":213.37855975000605,"velocity":0.5039370078740157,"duration":0.13457218645834246},{"name":"E2","midi":40,"time":213.51369500000607,"velocity":0.5039370078740157,"duration":0.13457218645834246},{"name":"E2","midi":40,"time":213.64883025000609,"velocity":0.5039370078740157,"duration":0.13457218645834246},{"name":"G#3","midi":56,"time":213.7839655000061,"velocity":0.5039370078740157,"duration":0.13457218645834246},{"name":"E2","midi":40,"time":213.91910075000612,"velocity":0.5039370078740157,"duration":0.13457218645834246},{"name":"E2","midi":40,"time":214.05423600000614,"velocity":0.5039370078740157,"duration":0.13457218645834246},{"name":"E3","midi":52,"time":214.18937125000616,"velocity":0.5039370078740157,"duration":0.13457218645834246},{"name":"E2","midi":40,"time":214.32450650000618,"velocity":0.5039370078740157,"duration":0.13457218645834246},{"name":"E2","midi":40,"time":214.4596417500062,"velocity":0.5039370078740157,"duration":0.13457218645834246},{"name":"D3","midi":50,"time":214.59477700000622,"velocity":0.5039370078740157,"duration":0.13457218645834246},{"name":"E2","midi":40,"time":214.86504750000623,"velocity":0.5039370078740157,"duration":0.13457218645834246},{"name":"C#3","midi":49,"time":215.00018275000625,"velocity":0.5039370078740157,"duration":0.13457218645834246},{"name":"E2","midi":40,"time":215.13531800000627,"velocity":0.5039370078740157,"duration":0.13457218645834246},{"name":"E2","midi":40,"time":215.27045325000628,"velocity":0.5039370078740157,"duration":0.13457218645834246},{"name":"B2","midi":47,"time":215.4055885000063,"velocity":0.5039370078740157,"duration":0.13457218645834246},{"name":"E2","midi":40,"time":215.6758590000063,"velocity":0.5039370078740157,"duration":0.13457218645834246},{"name":"A2","midi":45,"time":215.81099425000633,"velocity":0.5039370078740157,"duration":0.13457218645834246},{"name":"B2","midi":47,"time":215.94612950000635,"velocity":0.5039370078740157,"duration":0.13457218645834246},{"name":"E3","midi":52,"time":216.08126475000637,"velocity":0.5039370078740157,"duration":0.13457218645834246},{"name":"E2","midi":40,"time":216.2164000000064,"velocity":0.5039370078740157,"duration":0.13457218645834246},{"name":"E3","midi":52,"time":216.3515352500064,"velocity":0.5039370078740157,"duration":0.13457218645834246},{"name":"E2","midi":40,"time":216.48667050000643,"velocity":0.5039370078740157,"duration":0.13457218645834246},{"name":"E2","midi":40,"time":216.62180575000644,"velocity":0.5039370078740157,"duration":0.13457218645834246},{"name":"D3","midi":50,"time":216.75694100000646,"velocity":0.5039370078740157,"duration":0.13457218645834246},{"name":"E2","midi":40,"time":217.02721150000647,"velocity":0.5039370078740157,"duration":0.13457218645834246},{"name":"C#3","midi":49,"time":217.1623467500065,"velocity":0.5039370078740157,"duration":0.13457218645834246},{"name":"E2","midi":40,"time":217.2974820000065,"velocity":0.5039370078740157,"duration":0.13457218645834246},{"name":"E2","midi":40,"time":217.43261725000653,"velocity":0.5039370078740157,"duration":0.13457218645834246},{"name":"B2","midi":47,"time":217.56775250000655,"velocity":0.5039370078740157,"duration":0.13457218645834246},{"name":"E2","midi":40,"time":217.83802300000656,"velocity":0.5039370078740157,"duration":0.13457218645834246},{"name":"E3","midi":52,"time":217.97315825000658,"velocity":0.5039370078740157,"duration":0.13457218645834246},{"name":"E2","midi":40,"time":218.1082935000066,"velocity":0.5039370078740157,"duration":0.13457218645834246},{"name":"E2","midi":40,"time":218.24342875000661,"velocity":0.5039370078740157,"duration":0.13457218645834246},{"name":"D3","midi":50,"time":218.37856400000663,"velocity":0.5039370078740157,"duration":0.13457218645834246},{"name":"E2","midi":40,"time":218.64883450000664,"velocity":0.5039370078740157,"duration":0.13457218645834246},{"name":"C#3","midi":49,"time":218.78396975000666,"velocity":0.5039370078740157,"duration":0.13457218645834246},{"name":"E2","midi":40,"time":218.91910500000668,"velocity":0.5039370078740157,"duration":0.13457218645834246},{"name":"E2","midi":40,"time":219.0542402500067,"velocity":0.5039370078740157,"duration":0.13457218645834246},{"name":"B2","midi":47,"time":219.18937550000672,"velocity":0.5039370078740157,"duration":0.13457218645834246},{"name":"E2","midi":40,"time":219.45964600000673,"velocity":0.5039370078740157,"duration":0.13457218645834246},{"name":"A2","midi":45,"time":219.59478125000675,"velocity":0.5039370078740157,"duration":0.13457218645834246},{"name":"B2","midi":47,"time":219.72991650000677,"velocity":0.5039370078740157,"duration":0.13457218645834246},{"name":"E3","midi":52,"time":219.86505175000678,"velocity":0.5039370078740157,"duration":0.13457218645834246},{"name":"E2","midi":40,"time":220.0001870000068,"velocity":0.5039370078740157,"duration":0.13457218645834246},{"name":"E3","midi":52,"time":220.13532225000682,"velocity":0.5039370078740157,"duration":0.13457218645834246},{"name":"E2","midi":40,"time":220.27045750000684,"velocity":0.5039370078740157,"duration":0.13457218645834246},{"name":"E2","midi":40,"time":220.40559275000686,"velocity":0.5039370078740157,"duration":0.13457218645834246},{"name":"D3","midi":50,"time":220.54072800000688,"velocity":0.5039370078740157,"duration":0.13457218645834246},{"name":"E2","midi":40,"time":220.8109985000069,"velocity":0.5039370078740157,"duration":0.13457218645834246},{"name":"C#3","midi":49,"time":220.9461337500069,"velocity":0.5039370078740157,"duration":0.13457218645834246},{"name":"E2","midi":40,"time":221.08126900000693,"velocity":0.5039370078740157,"duration":0.13457218645834246},{"name":"E2","midi":40,"time":221.21640425000695,"velocity":0.5039370078740157,"duration":0.13457218645834246},{"name":"B2","midi":47,"time":221.35153950000696,"velocity":0.5039370078740157,"duration":0.13457218645834246},{"name":"E2","midi":40,"time":221.62181000000697,"velocity":0.5039370078740157,"duration":0.13457218645834246},{"name":"E3","midi":52,"time":221.756945250007,"velocity":0.5039370078740157,"duration":0.13457218645834246},{"name":"E2","midi":40,"time":221.892080500007,"velocity":0.5039370078740157,"duration":0.13457218645834246},{"name":"E2","midi":40,"time":222.02721575000703,"velocity":0.5039370078740157,"duration":0.13457218645834246},{"name":"D3","midi":50,"time":222.16235100000705,"velocity":0.5039370078740157,"duration":0.13457218645834246},{"name":"E2","midi":40,"time":222.43262150000706,"velocity":0.5039370078740157,"duration":0.13457218645834246},{"name":"C#3","midi":49,"time":222.56775675000708,"velocity":0.5039370078740157,"duration":0.13457218645834246},{"name":"E2","midi":40,"time":222.7028920000071,"velocity":0.5039370078740157,"duration":0.13457218645834246},{"name":"E2","midi":40,"time":222.83802725000712,"velocity":0.5039370078740157,"duration":0.13457218645834246},{"name":"B2","midi":47,"time":222.97316250000713,"velocity":0.5039370078740157,"duration":0.13457218645834246},{"name":"E2","midi":40,"time":223.24343300000714,"velocity":0.5039370078740157,"duration":0.13457218645834246},{"name":"A2","midi":45,"time":223.37856825000716,"velocity":0.5039370078740157,"duration":0.13457218645834246},{"name":"B2","midi":47,"time":223.51370350000718,"velocity":0.5039370078740157,"duration":0.13457218645834246},{"name":"E3","midi":52,"time":223.6488387500072,"velocity":0.5039370078740157,"duration":0.13457218645834246},{"name":"E2","midi":40,"time":223.78397400000722,"velocity":0.5039370078740157,"duration":0.13457218645834246},{"name":"E3","midi":52,"time":223.91910925000724,"velocity":0.5039370078740157,"duration":0.13457218645834246},{"name":"E2","midi":40,"time":224.05424450000726,"velocity":0.5039370078740157,"duration":0.13457218645834246},{"name":"E2","midi":40,"time":224.18937975000728,"velocity":0.5039370078740157,"duration":0.13457218645834246},{"name":"D3","midi":50,"time":224.3245150000073,"velocity":0.5039370078740157,"duration":0.13457218645834246},{"name":"E2","midi":40,"time":224.5947855000073,"velocity":0.5039370078740157,"duration":0.13457218645834246},{"name":"C#3","midi":49,"time":224.72992075000732,"velocity":0.5039370078740157,"duration":0.13457218645834246},{"name":"E2","midi":40,"time":224.86505600000734,"velocity":0.5039370078740157,"duration":0.13457218645834246},{"name":"E2","midi":40,"time":225.00019125000736,"velocity":0.5039370078740157,"duration":0.13457218645834246},{"name":"B2","midi":47,"time":225.13532650000738,"velocity":0.5039370078740157,"duration":0.13457218645834246},{"name":"E2","midi":40,"time":225.4055970000074,"velocity":0.5039370078740157,"duration":0.13457218645834246},{"name":"E3","midi":52,"time":225.5407322500074,"velocity":0.5039370078740157,"duration":0.13457218645834246},{"name":"E2","midi":40,"time":225.67586750000743,"velocity":0.5039370078740157,"duration":0.13457218645834246},{"name":"E2","midi":40,"time":225.81100275000745,"velocity":0.5039370078740157,"duration":0.13457218645834246},{"name":"D3","midi":50,"time":225.94613800000747,"velocity":0.5039370078740157,"duration":0.13457218645834246},{"name":"E2","midi":40,"time":226.21640850000747,"velocity":0.5039370078740157,"duration":0.13457218645834246},{"name":"C#3","midi":49,"time":226.3515437500075,"velocity":0.5039370078740157,"duration":0.13457218645834246},{"name":"E2","midi":40,"time":226.4866790000075,"velocity":0.5039370078740157,"duration":0.13457218645834246},{"name":"E2","midi":40,"time":226.62181425000753,"velocity":0.5039370078740157,"duration":0.13457218645834246},{"name":"B2","midi":47,"time":226.75694950000755,"velocity":0.5039370078740157,"duration":0.13457218645834246},{"name":"E2","midi":40,"time":227.02722000000756,"velocity":0.5039370078740157,"duration":0.13457218645834246},{"name":"A2","midi":45,"time":227.16235525000758,"velocity":0.5039370078740157,"duration":0.13457218645834246},{"name":"B2","midi":47,"time":227.2974905000076,"velocity":0.5039370078740157,"duration":0.13457218645834246},{"name":"E3","midi":52,"time":227.43262575000762,"velocity":0.5039370078740157,"duration":0.13457218645834246},{"name":"E2","midi":40,"time":227.56776100000764,"velocity":0.5039370078740157,"duration":0.13457218645834246},{"name":"E3","midi":52,"time":227.70289625000765,"velocity":0.5039370078740157,"duration":0.13457218645834246},{"name":"E2","midi":40,"time":227.83803150000767,"velocity":0.5039370078740157,"duration":0.13457218645834246},{"name":"E2","midi":40,"time":227.9731667500077,"velocity":0.5039370078740157,"duration":0.13457218645834246},{"name":"D3","midi":50,"time":228.1083020000077,"velocity":0.5039370078740157,"duration":0.13457218645834246},{"name":"E2","midi":40,"time":228.37857250000772,"velocity":0.5039370078740157,"duration":0.13457218645834246},{"name":"C#3","midi":49,"time":228.51370775000774,"velocity":0.5039370078740157,"duration":0.13457218645834246},{"name":"E2","midi":40,"time":228.64884300000776,"velocity":0.5039370078740157,"duration":0.13457218645834246},{"name":"E2","midi":40,"time":228.78397825000778,"velocity":0.5039370078740157,"duration":0.13457218645834246},{"name":"B2","midi":47,"time":228.9191135000078,"velocity":0.5039370078740157,"duration":0.13457218645834246}],"controlChanges":{"7":[{"number":7,"time":0,"value":0.7874015748031497}]},"id":1,"name":"MIDI Chn 1","instrumentNumber":81,"instrument":"lead 2 (sawtooth)","instrumentFamily":"synth lead","channelNumber":0,"isPercussion":false},{"startTime":10.270279000000002,"duration":229.4590914364639,"length":1474,"notes":[{"name":"G#3","midi":56,"time":10.270279000000002,"velocity":0.5039370078740157,"duration":0.13457218645833358},{"name":"G#3","midi":56,"time":11.351361000000002,"velocity":0.5039370078740157,"duration":0.13457218645833358},{"name":"G#3","midi":56,"time":12.432443000000003,"velocity":0.5039370078740157,"duration":0.13457218645833358},{"name":"G#3","midi":56,"time":13.513525000000003,"velocity":0.5039370078740157,"duration":0.13457218645833358},{"name":"G#3","midi":56,"time":14.594607000000003,"velocity":0.5039370078740157,"duration":0.13457218645833358},{"name":"G#3","midi":56,"time":15.675689000000004,"velocity":0.5039370078740157,"duration":0.13457218645833358},{"name":"F5","midi":77,"time":16.621635750000003,"velocity":0.5039370078740157,"duration":0.1345721864583318},{"name":"F5","midi":77,"time":16.756771,"velocity":0.5039370078740157,"duration":0.1345721864583318},{"name":"F5","midi":77,"time":16.891906249999998,"velocity":0.5039370078740157,"duration":0.1345721864583318},{"name":"F5","midi":77,"time":17.027041499999996,"velocity":0.5039370078740157,"duration":0.1345721864583318},{"name":"B1","midi":35,"time":17.297311999999994,"velocity":0.5039370078740157,"duration":0.1345721864583318},{"name":"C#3","midi":49,"time":17.297311999999994,"velocity":0.5039370078740157,"duration":0.1345721864583318},{"name":"B1","midi":35,"time":17.567582499999993,"velocity":0.5039370078740157,"duration":0.26970743645833295},{"name":"F#2","midi":42,"time":17.567582499999993,"velocity":0.5039370078740157,"duration":0.26970743645833295},{"name":"E2","midi":40,"time":17.837852999999992,"velocity":0.5039370078740157,"duration":0.26970743645833295},{"name":"F#2","midi":42,"time":17.837852999999992,"velocity":0.5039370078740157,"duration":0.26970743645833295},{"name":"F#2","midi":42,"time":18.10812349999999,"velocity":0.5039370078740157,"duration":0.26970743645833295},{"name":"B1","midi":35,"time":18.243258749999992,"velocity":0.5039370078740157,"duration":0.2697074364583294},{"name":"B1","midi":35,"time":18.37839399999999,"velocity":0.5039370078740157,"duration":0.1345721864583318},{"name":"F#2","midi":42,"time":18.37839399999999,"velocity":0.5039370078740157,"duration":0.26970743645833295},{"name":"B1","midi":35,"time":18.648664499999988,"velocity":0.5039370078740157,"duration":0.26970743645833295},{"name":"F#2","midi":42,"time":18.648664499999988,"velocity":0.5039370078740157,"duration":0.26970743645833295},{"name":"E2","midi":40,"time":18.918934999999987,"velocity":0.5039370078740157,"duration":0.26970743645833295},{"name":"F#2","midi":42,"time":18.918934999999987,"velocity":0.5039370078740157,"duration":0.26970743645833295},{"name":"B1","midi":35,"time":19.054070249999988,"velocity":0.5039370078740157,"duration":0.1345721864583318},{"name":"F#2","midi":42,"time":19.189205499999986,"velocity":0.5039370078740157,"duration":0.26970743645833295},{"name":"B1","midi":35,"time":19.459475999999984,"velocity":0.5039370078740157,"duration":0.1345721864583318},{"name":"F#2","midi":42,"time":19.459475999999984,"velocity":0.5039370078740157,"duration":0.26970743645833295},{"name":"B1","midi":35,"time":19.729746499999983,"velocity":0.5039370078740157,"duration":0.1345721864583318},{"name":"F#2","midi":42,"time":19.729746499999983,"velocity":0.5039370078740157,"duration":0.2697074364583294},{"name":"B1","midi":35,"time":19.86488174999998,"velocity":0.5039370078740157,"duration":0.1345721864583318},{"name":"E2","midi":40,"time":20.00001699999998,"velocity":0.5039370078740157,"duration":0.1345721864583318},{"name":"F#2","midi":42,"time":20.00001699999998,"velocity":0.5039370078740157,"duration":0.2697074364583294},{"name":"E2","midi":40,"time":20.135152249999976,"velocity":0.5039370078740157,"duration":0.1345721864583318},{"name":"B1","midi":35,"time":20.270287499999974,"velocity":0.5039370078740157,"duration":0.1345721864583318},{"name":"F#2","midi":42,"time":20.270287499999974,"velocity":0.5039370078740157,"duration":0.26970743645833295},{"name":"B1","midi":35,"time":20.540557999999972,"velocity":0.5039370078740157,"duration":0.1345721864583318},{"name":"F#2","midi":42,"time":20.540557999999972,"velocity":0.5039370078740157,"duration":0.2697074364583294},{"name":"B1","midi":35,"time":20.67569324999997,"velocity":0.5039370078740157,"duration":0.1345721864583318},{"name":"F#2","midi":42,"time":20.810828499999968,"velocity":0.5039370078740157,"duration":0.26970743645833295},{"name":"E2","midi":40,"time":20.94596374999997,"velocity":0.5039370078740157,"duration":0.1345721864583318},{"name":"B1","midi":35,"time":21.081098999999966,"velocity":0.5039370078740157,"duration":0.1345721864583318},{"name":"F#2","midi":42,"time":21.081098999999966,"velocity":0.5039370078740157,"duration":0.26970743645833295},{"name":"B1","midi":35,"time":21.351369499999965,"velocity":0.5039370078740157,"duration":0.26970743645833295},{"name":"F#2","midi":42,"time":21.351369499999965,"velocity":0.5039370078740157,"duration":0.26970743645833295},{"name":"E2","midi":40,"time":21.621639999999964,"velocity":0.5039370078740157,"duration":0.26970743645833295},{"name":"F#2","midi":42,"time":21.621639999999964,"velocity":0.5039370078740157,"duration":0.26970743645833295},{"name":"F#2","midi":42,"time":21.891910499999963,"velocity":0.5039370078740157,"duration":0.26970743645833295},{"name":"B1","midi":35,"time":22.027045749999964,"velocity":0.5039370078740157,"duration":0.2697074364583294},{"name":"B1","midi":35,"time":22.16218099999996,"velocity":0.5039370078740157,"duration":0.1345721864583318},{"name":"F#2","midi":42,"time":22.16218099999996,"velocity":0.5039370078740157,"duration":0.26970743645833295},{"name":"B1","midi":35,"time":22.43245149999996,"velocity":0.5039370078740157,"duration":0.26970743645833295},{"name":"F#2","midi":42,"time":22.43245149999996,"velocity":0.5039370078740157,"duration":0.26970743645833295},{"name":"E2","midi":40,"time":22.70272199999996,"velocity":0.5039370078740157,"duration":0.26970743645833295},{"name":"F#2","midi":42,"time":22.70272199999996,"velocity":0.5039370078740157,"duration":0.26970743645833295},{"name":"B1","midi":35,"time":22.83785724999996,"velocity":0.5039370078740157,"duration":0.1345721864583318},{"name":"F#2","midi":42,"time":22.972992499999958,"velocity":0.5039370078740157,"duration":0.26970743645833295},{"name":"B1","midi":35,"time":23.243262999999956,"velocity":0.5039370078740157,"duration":0.1345721864583318},{"name":"F#2","midi":42,"time":23.243262999999956,"velocity":0.5039370078740157,"duration":0.26970743645833295},{"name":"B1","midi":35,"time":23.513533499999955,"velocity":0.5039370078740157,"duration":0.1345721864583318},{"name":"F#2","midi":42,"time":23.513533499999955,"velocity":0.5039370078740157,"duration":0.2697074364583294},{"name":"B1","midi":35,"time":23.648668749999953,"velocity":0.5039370078740157,"duration":0.1345721864583318},{"name":"E2","midi":40,"time":23.78380399999995,"velocity":0.5039370078740157,"duration":0.1345721864583318},{"name":"F#2","midi":42,"time":23.78380399999995,"velocity":0.5039370078740157,"duration":0.2697074364583294},{"name":"E2","midi":40,"time":23.918939249999948,"velocity":0.5039370078740157,"duration":0.1345721864583318},{"name":"B1","midi":35,"time":24.054074499999945,"velocity":0.5039370078740157,"duration":0.1345721864583318},{"name":"F#2","midi":42,"time":24.054074499999945,"velocity":0.5039370078740157,"duration":0.26970743645833295},{"name":"B1","midi":35,"time":24.324344999999944,"velocity":0.5039370078740157,"duration":0.1345721864583318},{"name":"F#2","midi":42,"time":24.324344999999944,"velocity":0.5039370078740157,"duration":0.2697074364583294},{"name":"B1","midi":35,"time":24.45948024999994,"velocity":0.5039370078740157,"duration":0.1345721864583318},{"name":"F#2","midi":42,"time":24.59461549999994,"velocity":0.5039370078740157,"duration":0.26970743645833295},{"name":"E2","midi":40,"time":24.72975074999994,"velocity":0.5039370078740157,"duration":0.1345721864583318},{"name":"B1","midi":35,"time":24.864885999999938,"velocity":0.5039370078740157,"duration":0.1345721864583318},{"name":"F#2","midi":42,"time":24.864885999999938,"velocity":0.5039370078740157,"duration":0.1345721864583318},{"name":"F5","midi":77,"time":24.864885999999938,"velocity":0.5039370078740157,"duration":0.1345721864583318},{"name":"F5","midi":77,"time":25.000021249999936,"velocity":0.5039370078740157,"duration":0.1345721864583318},{"name":"B1","midi":35,"time":25.135156499999933,"velocity":0.5039370078740157,"duration":0.2697074364583294},{"name":"F#2","midi":42,"time":25.135156499999933,"velocity":0.5039370078740157,"duration":0.2697074364583294},{"name":"F5","midi":77,"time":25.135156499999933,"velocity":0.5039370078740157,"duration":0.1345721864583318},{"name":"F5","midi":77,"time":25.27029174999993,"velocity":0.5039370078740157,"duration":0.1345721864583318},{"name":"E2","midi":40,"time":25.40542699999993,"velocity":0.5039370078740157,"duration":0.26970743645833295},{"name":"F#2","midi":42,"time":25.40542699999993,"velocity":0.5039370078740157,"duration":0.26970743645833295},{"name":"F#2","midi":42,"time":25.675697499999927,"velocity":0.5039370078740157,"duration":0.2697074364583294},{"name":"G3","midi":55,"time":25.675697499999927,"velocity":0.5039370078740157,"duration":0.1345721864583318},{"name":"B1","midi":35,"time":25.810832749999925,"velocity":0.5039370078740157,"duration":0.2697074364583294},{"name":"G3","midi":55,"time":25.810832749999925,"velocity":0.5039370078740157,"duration":0.1345721864583318},{"name":"B1","midi":35,"time":25.945967999999922,"velocity":0.5039370078740157,"duration":0.1345721864583318},{"name":"F#2","midi":42,"time":25.945967999999922,"velocity":0.5039370078740157,"duration":0.26970743645833295},{"name":"B1","midi":35,"time":26.21623849999992,"velocity":0.5039370078740157,"duration":0.26970743645833295},{"name":"F#2","midi":42,"time":26.21623849999992,"velocity":0.5039370078740157,"duration":0.26970743645833295},{"name":"E2","midi":40,"time":26.48650899999992,"velocity":0.5039370078740157,"duration":0.2697074364583294},{"name":"F#2","midi":42,"time":26.48650899999992,"velocity":0.5039370078740157,"duration":0.2697074364583294},{"name":"A2","midi":45,"time":26.48650899999992,"velocity":0.5039370078740157,"duration":0.1345721864583318},{"name":"B2","midi":47,"time":26.48650899999992,"velocity":0.5039370078740157,"duration":0.1345721864583318},{"name":"B1","midi":35,"time":26.621644249999918,"velocity":0.5039370078740157,"duration":0.1345721864583318},{"name":"F#2","midi":42,"time":26.756779499999915,"velocity":0.5039370078740157,"duration":0.26970743645833295},{"name":"B1","midi":35,"time":27.027049999999914,"velocity":0.5039370078740157,"duration":0.1345721864583318},{"name":"F#2","midi":42,"time":27.027049999999914,"velocity":0.5039370078740157,"duration":0.26970743645833295},{"name":"B1","midi":35,"time":27.297320499999913,"velocity":0.5039370078740157,"duration":0.1345721864583318},{"name":"F#2","midi":42,"time":27.297320499999913,"velocity":0.5039370078740157,"duration":0.2697074364583294},{"name":"B1","midi":35,"time":27.43245574999991,"velocity":0.5039370078740157,"duration":0.1345721864583318},{"name":"E2","midi":40,"time":27.567590999999908,"velocity":0.5039370078740157,"duration":0.1345721864583318},{"name":"F#2","midi":42,"time":27.567590999999908,"velocity":0.5039370078740157,"duration":0.2697074364583294},{"name":"E2","midi":40,"time":27.702726249999905,"velocity":0.5039370078740157,"duration":0.1345721864583318},{"name":"B1","midi":35,"time":27.837861499999903,"velocity":0.5039370078740157,"duration":0.1345721864583318},{"name":"F#2","midi":42,"time":27.837861499999903,"velocity":0.5039370078740157,"duration":0.26970743645833295},{"name":"F5","midi":77,"time":27.837861499999903,"velocity":0.5039370078740157,"duration":0.1345721864583318},{"name":"B1","midi":35,"time":28.1081319999999,"velocity":0.5039370078740157,"duration":0.1345721864583318},{"name":"F#2","midi":42,"time":28.1081319999999,"velocity":0.5039370078740157,"duration":0.2697074364583294},{"name":"B1","midi":35,"time":28.2432672499999,"velocity":0.5039370078740157,"duration":0.1345721864583318},{"name":"F5","midi":77,"time":28.2432672499999,"velocity":0.5039370078740157,"duration":0.1345721864583318},{"name":"F#2","midi":42,"time":28.378402499999897,"velocity":0.5039370078740157,"duration":0.26970743645833295},{"name":"E2","midi":40,"time":28.513537749999898,"velocity":0.5039370078740157,"duration":0.1345721864583318},{"name":"B1","midi":35,"time":28.648672999999896,"velocity":0.5039370078740157,"duration":0.1345721864583318},{"name":"F#2","midi":42,"time":28.648672999999896,"velocity":0.5039370078740157,"duration":0.2697074364583294},{"name":"F5","midi":77,"time":28.648672999999896,"velocity":0.5039370078740157,"duration":0.1345721864583318},{"name":"F5","midi":77,"time":28.783808249999893,"velocity":0.5039370078740157,"duration":0.1345721864583318},{"name":"B1","midi":35,"time":28.91894349999989,"velocity":0.5039370078740157,"duration":0.2697074364583294},{"name":"F#2","midi":42,"time":28.91894349999989,"velocity":0.5039370078740157,"duration":0.2697074364583294},{"name":"F5","midi":77,"time":28.91894349999989,"velocity":0.5039370078740157,"duration":0.1345721864583318},{"name":"F5","midi":77,"time":29.05407874999989,"velocity":0.5039370078740157,"duration":0.1345721864583318},{"name":"E2","midi":40,"time":29.189213999999886,"velocity":0.5039370078740157,"duration":0.26970743645833295},{"name":"F#2","midi":42,"time":29.189213999999886,"velocity":0.5039370078740157,"duration":0.26970743645833295},{"name":"F#2","midi":42,"time":29.459484499999885,"velocity":0.5039370078740157,"duration":0.2697074364583294},{"name":"G3","midi":55,"time":29.459484499999885,"velocity":0.5039370078740157,"duration":0.1345721864583318},{"name":"B1","midi":35,"time":29.594619749999882,"velocity":0.5039370078740157,"duration":0.2697074364583294},{"name":"G3","midi":55,"time":29.594619749999882,"velocity":0.5039370078740157,"duration":0.1345721864583318},{"name":"B1","midi":35,"time":29.72975499999988,"velocity":0.5039370078740157,"duration":0.1345721864583318},{"name":"F#2","midi":42,"time":29.72975499999988,"velocity":0.5039370078740157,"duration":0.26970743645833295},{"name":"B1","midi":35,"time":30.00002549999988,"velocity":0.5039370078740157,"duration":0.26970743645833295},{"name":"F#2","midi":42,"time":30.00002549999988,"velocity":0.5039370078740157,"duration":0.26970743645833295},{"name":"E2","midi":40,"time":30.270295999999878,"velocity":0.5039370078740157,"duration":0.2697074364583294},{"name":"F#2","midi":42,"time":30.270295999999878,"velocity":0.5039370078740157,"duration":0.2697074364583294},{"name":"A2","midi":45,"time":30.270295999999878,"velocity":0.5039370078740157,"duration":0.1345721864583318},{"name":"B2","midi":47,"time":30.270295999999878,"velocity":0.5039370078740157,"duration":0.1345721864583318},{"name":"B1","midi":35,"time":30.405431249999875,"velocity":0.5039370078740157,"duration":0.1345721864583318},{"name":"F#2","midi":42,"time":30.540566499999873,"velocity":0.5039370078740157,"duration":0.26970743645833295},{"name":"B1","midi":35,"time":30.81083699999987,"velocity":0.5039370078740157,"duration":0.1345721864583318},{"name":"F#2","midi":42,"time":30.81083699999987,"velocity":0.5039370078740157,"duration":0.26970743645833295},{"name":"B1","midi":35,"time":31.08110749999987,"velocity":0.5039370078740157,"duration":0.1345721864583318},{"name":"F#2","midi":42,"time":31.08110749999987,"velocity":0.5039370078740157,"duration":0.2697074364583294},{"name":"B1","midi":35,"time":31.216242749999868,"velocity":0.5039370078740157,"duration":0.1345721864583318},{"name":"E2","midi":40,"time":31.351377999999865,"velocity":0.5039370078740157,"duration":0.1345721864583318},{"name":"F#2","midi":42,"time":31.351377999999865,"velocity":0.5039370078740157,"duration":0.2697074364583294},{"name":"E2","midi":40,"time":31.486513249999863,"velocity":0.5039370078740157,"duration":0.1345721864583318},{"name":"B1","midi":35,"time":31.62164849999986,"velocity":0.5039370078740157,"duration":0.1345721864583318},{"name":"F#2","midi":42,"time":31.62164849999986,"velocity":0.5039370078740157,"duration":0.26970743645833295},{"name":"F5","midi":77,"time":31.62164849999986,"velocity":0.5039370078740157,"duration":0.1345721864583318},{"name":"B1","midi":35,"time":31.89191899999986,"velocity":0.5039370078740157,"duration":0.13457218645833535},{"name":"F#2","midi":42,"time":31.89191899999986,"velocity":0.5039370078740157,"duration":0.26970743645834006},{"name":"B1","midi":35,"time":32.027054249999864,"velocity":0.5039370078740157,"duration":0.13457218645833535},{"name":"F5","midi":77,"time":32.027054249999864,"velocity":0.5039370078740157,"duration":0.13457218645833535},{"name":"F#2","midi":42,"time":32.16218949999987,"velocity":0.5039370078740157,"duration":0.26970743645833295},{"name":"E2","midi":40,"time":32.297324749999866,"velocity":0.5039370078740157,"duration":0.13457218645833535},{"name":"B1","midi":35,"time":32.43245999999987,"velocity":0.5039370078740157,"duration":0.13457218645833535},{"name":"A3","midi":57,"time":32.43245999999987,"velocity":0.5039370078740157,"duration":0.13457218645833535},{"name":"F#2","midi":42,"time":32.70273049999987,"velocity":0.5039370078740157,"duration":0.13457218645833535},{"name":"F#2","midi":42,"time":32.83786574999988,"velocity":0.5039370078740157,"duration":0.13457218645833535},{"name":"E2","midi":40,"time":32.97300099999988,"velocity":0.5039370078740157,"duration":0.13457218645833535},{"name":"F#2","midi":42,"time":33.243271499999885,"velocity":0.5039370078740157,"duration":0.13457218645833535},{"name":"F#2","midi":42,"time":33.37840674999989,"velocity":0.5039370078740157,"duration":0.13457218645833535},{"name":"B1","midi":35,"time":33.513541999999894,"velocity":0.5039370078740157,"duration":0.13457218645833535},{"name":"F#2","midi":42,"time":33.513541999999894,"velocity":0.5039370078740157,"duration":0.13457218645833535},{"name":"F#2","midi":42,"time":33.6486772499999,"velocity":0.5039370078740157,"duration":0.13457218645833535},{"name":"E2","midi":40,"time":33.783812499999904,"velocity":0.5039370078740157,"duration":0.13457218645833535},{"name":"G#3","midi":56,"time":33.783812499999904,"velocity":0.5039370078740157,"duration":0.13457218645833535},{"name":"G#3","midi":56,"time":33.91894774999991,"velocity":0.5039370078740157,"duration":0.13457218645833535},{"name":"E2","midi":40,"time":34.05408299999991,"velocity":0.5039370078740157,"duration":0.13457218645833535},{"name":"G#3","midi":56,"time":34.05408299999991,"velocity":0.5039370078740157,"duration":0.13457218645833535},{"name":"E2","midi":40,"time":34.18921824999992,"velocity":0.5039370078740157,"duration":0.13457218645833535},{"name":"G#3","midi":56,"time":34.18921824999992,"velocity":0.5039370078740157,"duration":0.13457218645833535},{"name":"B1","midi":35,"time":34.59462399999992,"velocity":0.5039370078740157,"duration":0.13457218645833535},{"name":"F#2","midi":42,"time":34.59462399999992,"velocity":0.5039370078740157,"duration":0.13457218645833535},{"name":"F#2","midi":42,"time":34.72975924999992,"velocity":0.5039370078740157,"duration":0.13457218645833535},{"name":"F#2","midi":42,"time":34.86489449999993,"velocity":0.5039370078740157,"duration":0.13457218645833535},{"name":"E2","midi":40,"time":35.13516499999993,"velocity":0.5039370078740157,"duration":0.13457218645833535},{"name":"C#3","midi":49,"time":35.13516499999993,"velocity":0.5039370078740157,"duration":0.13457218645833535},{"name":"E2","midi":40,"time":35.54057074999993,"velocity":0.5039370078740157,"duration":0.13457218645833535},{"name":"F4","midi":65,"time":35.54057074999993,"velocity":0.5039370078740157,"duration":0.13457218645833535},{"name":"E2","midi":40,"time":35.675705999999934,"velocity":0.5039370078740157,"duration":0.13457218645833535},{"name":"F4","midi":65,"time":35.675705999999934,"velocity":0.5039370078740157,"duration":0.13457218645833535},{"name":"B1","midi":35,"time":35.81084124999994,"velocity":0.5039370078740157,"duration":0.13457218645833535},{"name":"A3","midi":57,"time":35.81084124999994,"velocity":0.5039370078740157,"duration":0.13457218645833535},{"name":"B1","midi":35,"time":36.21624699999994,"velocity":0.5039370078740157,"duration":0.13457218645833535},{"name":"F#2","midi":42,"time":36.48651749999994,"velocity":0.5039370078740157,"duration":0.13457218645833535},{"name":"F#2","midi":42,"time":36.621652749999946,"velocity":0.5039370078740157,"duration":0.13457218645833535},{"name":"E2","midi":40,"time":36.75678799999995,"velocity":0.5039370078740157,"duration":0.13457218645833535},{"name":"F#2","midi":42,"time":37.02705849999995,"velocity":0.5039370078740157,"duration":0.13457218645833535},{"name":"F#2","midi":42,"time":37.16219374999996,"velocity":0.5039370078740157,"duration":0.13457218645833535},{"name":"B1","midi":35,"time":37.29732899999996,"velocity":0.5039370078740157,"duration":0.13457218645833535},{"name":"F#2","midi":42,"time":37.29732899999996,"velocity":0.5039370078740157,"duration":0.13457218645833535},{"name":"F#2","midi":42,"time":37.43246424999997,"velocity":0.5039370078740157,"duration":0.13457218645833535},{"name":"E2","midi":40,"time":37.56759949999997,"velocity":0.5039370078740157,"duration":0.13457218645833535},{"name":"G#3","midi":56,"time":37.56759949999997,"velocity":0.5039370078740157,"duration":0.13457218645833535},{"name":"G#3","midi":56,"time":37.702734749999976,"velocity":0.5039370078740157,"duration":0.13457218645833535},{"name":"E2","midi":40,"time":37.83786999999998,"velocity":0.5039370078740157,"duration":0.13457218645833535},{"name":"G#3","midi":56,"time":37.83786999999998,"velocity":0.5039370078740157,"duration":0.13457218645833535},{"name":"E2","midi":40,"time":37.973005249999986,"velocity":0.5039370078740157,"duration":0.13457218645833535},{"name":"G#3","midi":56,"time":37.973005249999986,"velocity":0.5039370078740157,"duration":0.13457218645833535},{"name":"B1","midi":35,"time":38.378410999999986,"velocity":0.5039370078740157,"duration":0.13457218645833535},{"name":"F#2","midi":42,"time":38.378410999999986,"velocity":0.5039370078740157,"duration":0.13457218645833535},{"name":"F#2","midi":42,"time":38.51354624999999,"velocity":0.5039370078740157,"duration":0.13457218645833535},{"name":"F#2","midi":42,"time":38.648681499999995,"velocity":0.5039370078740157,"duration":0.13457218645833535},{"name":"E2","midi":40,"time":38.918952,"velocity":0.5039370078740157,"duration":0.13457218645833535},{"name":"C#3","midi":49,"time":38.918952,"velocity":0.5039370078740157,"duration":0.13457218645833535},{"name":"E2","midi":40,"time":39.32435775,"velocity":0.5039370078740157,"duration":0.13457218645833535},{"name":"F4","midi":65,"time":39.32435775,"velocity":0.5039370078740157,"duration":0.13457218645833535},{"name":"E2","midi":40,"time":39.459493,"velocity":0.5039370078740157,"duration":0.13457218645833535},{"name":"F4","midi":65,"time":39.459493,"velocity":0.5039370078740157,"duration":0.13457218645833535},{"name":"B1","midi":35,"time":39.59462825000001,"velocity":0.5039370078740157,"duration":0.13457218645833535},{"name":"A3","midi":57,"time":39.59462825000001,"velocity":0.5039370078740157,"duration":0.13457218645833535},{"name":"B1","midi":35,"time":40.00003400000001,"velocity":0.5039370078740157,"duration":0.13457218645833535},{"name":"F#2","midi":42,"time":40.27030450000001,"velocity":0.5039370078740157,"duration":0.13457218645833535},{"name":"F#2","midi":42,"time":40.40543975000001,"velocity":0.5039370078740157,"duration":0.13457218645833535},{"name":"E2","midi":40,"time":40.54057500000002,"velocity":0.5039370078740157,"duration":0.13457218645833535},{"name":"F#2","midi":42,"time":40.81084550000002,"velocity":0.5039370078740157,"duration":0.13457218645833535},{"name":"F#2","midi":42,"time":40.945980750000025,"velocity":0.5039370078740157,"duration":0.13457218645833535},{"name":"B1","midi":35,"time":41.08111600000003,"velocity":0.5039370078740157,"duration":0.13457218645833535},{"name":"F#2","midi":42,"time":41.08111600000003,"velocity":0.5039370078740157,"duration":0.13457218645833535},{"name":"F#2","midi":42,"time":41.216251250000035,"velocity":0.5039370078740157,"duration":0.13457218645833535},{"name":"E2","midi":40,"time":41.35138650000004,"velocity":0.5039370078740157,"duration":0.13457218645833535},{"name":"G#3","midi":56,"time":41.35138650000004,"velocity":0.5039370078740157,"duration":0.13457218645833535},{"name":"G#3","midi":56,"time":41.486521750000044,"velocity":0.5039370078740157,"duration":0.13457218645833535},{"name":"E2","midi":40,"time":41.62165700000005,"velocity":0.5039370078740157,"duration":0.13457218645833535},{"name":"G#3","midi":56,"time":41.62165700000005,"velocity":0.5039370078740157,"duration":0.13457218645833535},{"name":"E2","midi":40,"time":41.75679225000005,"velocity":0.5039370078740157,"duration":0.13457218645833535},{"name":"G#3","midi":56,"time":41.75679225000005,"velocity":0.5039370078740157,"duration":0.13457218645833535},{"name":"B1","midi":35,"time":42.16219800000005,"velocity":0.5039370078740157,"duration":0.13457218645833535},{"name":"F#2","midi":42,"time":42.16219800000005,"velocity":0.5039370078740157,"duration":0.13457218645833535},{"name":"F#2","midi":42,"time":42.29733325000006,"velocity":0.5039370078740157,"duration":0.13457218645833535},{"name":"F#2","midi":42,"time":42.43246850000006,"velocity":0.5039370078740157,"duration":0.13457218645833535},{"name":"E2","midi":40,"time":42.702739000000065,"velocity":0.5039370078740157,"duration":0.13457218645833535},{"name":"C#3","midi":49,"time":42.702739000000065,"velocity":0.5039370078740157,"duration":0.13457218645833535},{"name":"E2","midi":40,"time":43.108144750000065,"velocity":0.5039370078740157,"duration":0.13457218645833535},{"name":"F4","midi":65,"time":43.108144750000065,"velocity":0.5039370078740157,"duration":0.13457218645833535},{"name":"E2","midi":40,"time":43.24328000000007,"velocity":0.5039370078740157,"duration":0.13457218645833535},{"name":"F4","midi":65,"time":43.24328000000007,"velocity":0.5039370078740157,"duration":0.13457218645833535},{"name":"B1","midi":35,"time":43.378415250000074,"velocity":0.5039370078740157,"duration":0.13457218645833535},{"name":"A3","midi":57,"time":43.378415250000074,"velocity":0.5039370078740157,"duration":0.13457218645833535},{"name":"B1","midi":35,"time":43.783821000000074,"velocity":0.5039370078740157,"duration":0.13457218645833535},{"name":"F#2","midi":42,"time":44.05409150000008,"velocity":0.5039370078740157,"duration":0.13457218645833535},{"name":"F#2","midi":42,"time":44.18922675000008,"velocity":0.5039370078740157,"duration":0.13457218645833535},{"name":"E2","midi":40,"time":44.324362000000086,"velocity":0.5039370078740157,"duration":0.13457218645833535},{"name":"F#2","midi":42,"time":44.59463250000009,"velocity":0.5039370078740157,"duration":0.13457218645833535},{"name":"F#2","midi":42,"time":44.72976775000009,"velocity":0.5039370078740157,"duration":0.13457218645833535},{"name":"B1","midi":35,"time":44.8649030000001,"velocity":0.5039370078740157,"duration":0.13457218645833535},{"name":"F#2","midi":42,"time":44.8649030000001,"velocity":0.5039370078740157,"duration":0.13457218645833535},{"name":"F#2","midi":42,"time":45.0000382500001,"velocity":0.5039370078740157,"duration":0.13457218645833535},{"name":"E2","midi":40,"time":45.13517350000011,"velocity":0.5039370078740157,"duration":0.13457218645833535},{"name":"G#3","midi":56,"time":45.13517350000011,"velocity":0.5039370078740157,"duration":0.13457218645833535},{"name":"G#3","midi":56,"time":45.27030875000011,"velocity":0.5039370078740157,"duration":0.13457218645833535},{"name":"E2","midi":40,"time":45.40544400000012,"velocity":0.5039370078740157,"duration":0.13457218645833535},{"name":"G#3","midi":56,"time":45.40544400000012,"velocity":0.5039370078740157,"duration":0.13457218645833535},{"name":"E2","midi":40,"time":45.54057925000012,"velocity":0.5039370078740157,"duration":0.13457218645833535},{"name":"G#3","midi":56,"time":45.54057925000012,"velocity":0.5039370078740157,"duration":0.13457218645833535},{"name":"B1","midi":35,"time":45.94598500000012,"velocity":0.5039370078740157,"duration":0.13457218645833535},{"name":"F#2","midi":42,"time":45.94598500000012,"velocity":0.5039370078740157,"duration":0.13457218645833535},{"name":"F#2","midi":42,"time":46.081120250000126,"velocity":0.5039370078740157,"duration":0.13457218645833535},{"name":"F#2","midi":42,"time":46.21625550000013,"velocity":0.5039370078740157,"duration":0.13457218645833535},{"name":"E2","midi":40,"time":46.48652600000013,"velocity":0.5039370078740157,"duration":0.13457218645833535},{"name":"C#3","midi":49,"time":46.48652600000013,"velocity":0.5039370078740157,"duration":0.13457218645833535},{"name":"E2","midi":40,"time":46.89193175000013,"velocity":0.5039370078740157,"duration":0.13457218645833535},{"name":"F4","midi":65,"time":46.89193175000013,"velocity":0.5039370078740157,"duration":0.13457218645833535},{"name":"E2","midi":40,"time":47.02706700000014,"velocity":0.5039370078740157,"duration":0.13457218645833535},{"name":"F4","midi":65,"time":47.02706700000014,"velocity":0.5039370078740157,"duration":0.13457218645833535},{"name":"B1","midi":35,"time":47.16220225000014,"velocity":0.5039370078740157,"duration":0.13457218645833535},{"name":"A3","midi":57,"time":47.16220225000014,"velocity":0.5039370078740157,"duration":0.13457218645833535},{"name":"B1","midi":35,"time":47.56760800000014,"velocity":0.5039370078740157,"duration":0.13457218645833535},{"name":"G2","midi":43,"time":47.56760800000014,"velocity":0.5039370078740157,"duration":0.13457218645833535},{"name":"A2","midi":45,"time":47.56760800000014,"velocity":0.5039370078740157,"duration":0.13457218645833535},{"name":"B1","midi":35,"time":47.837878500000144,"velocity":0.5039370078740157,"duration":0.13457218645833535},{"name":"B1","midi":35,"time":47.97301375000015,"velocity":0.5039370078740157,"duration":0.13457218645833535},{"name":"E2","midi":40,"time":48.108149000000154,"velocity":0.5039370078740157,"duration":0.13457218645833535},{"name":"G#3","midi":56,"time":48.108149000000154,"velocity":0.5039370078740157,"duration":0.13457218645833535},{"name":"B1","midi":35,"time":48.64869000000016,"velocity":0.5039370078740157,"duration":0.13457218645833535},{"name":"G#3","midi":56,"time":48.64869000000016,"velocity":0.5039370078740157,"duration":0.13457218645833535},{"name":"B1","midi":35,"time":48.91896050000016,"velocity":0.5039370078740157,"duration":0.13457218645833535},{"name":"E2","midi":40,"time":49.18923100000016,"velocity":0.5039370078740157,"duration":0.13457218645833535},{"name":"G#3","midi":56,"time":49.18923100000016,"velocity":0.5039370078740157,"duration":0.13457218645833535},{"name":"B1","midi":35,"time":49.72977200000017,"velocity":0.5039370078740157,"duration":0.13457218645833535},{"name":"G#3","midi":56,"time":49.72977200000017,"velocity":0.5039370078740157,"duration":0.13457218645833535},{"name":"B1","midi":35,"time":50.00004250000017,"velocity":0.5039370078740157,"duration":0.13457218645833535},{"name":"E2","midi":40,"time":50.27031300000017,"velocity":0.5039370078740157,"duration":0.13457218645833535},{"name":"G#3","midi":56,"time":50.27031300000017,"velocity":0.5039370078740157,"duration":0.13457218645833535},{"name":"B1","midi":35,"time":50.81085400000018,"velocity":0.5039370078740157,"duration":0.13457218645833535},{"name":"G#3","midi":56,"time":50.81085400000018,"velocity":0.5039370078740157,"duration":0.13457218645833535},{"name":"B1","midi":35,"time":51.08112450000018,"velocity":0.5039370078740157,"duration":0.13457218645833535},{"name":"E2","midi":40,"time":51.35139500000018,"velocity":0.5039370078740157,"duration":0.067004561458333},{"name":"G#3","midi":56,"time":51.35139500000018,"velocity":0.5039370078740157,"duration":0.13457218645833535},{"name":"B1","midi":35,"time":51.891936000000186,"velocity":0.5039370078740157,"duration":0.13457218645833535},{"name":"G#3","midi":56,"time":51.891936000000186,"velocity":0.5039370078740157,"duration":0.26970743645833295},{"name":"B1","midi":35,"time":52.16220650000019,"velocity":0.5039370078740157,"duration":0.13457218645833535},{"name":"E2","midi":40,"time":52.43247700000019,"velocity":0.5039370078740157,"duration":0.13457218645833535},{"name":"G#3","midi":56,"time":52.43247700000019,"velocity":0.5039370078740157,"duration":0.26970743645833295},{"name":"B1","midi":35,"time":52.97301800000019,"velocity":0.5039370078740157,"duration":0.13457218645833535},{"name":"G#3","midi":56,"time":52.97301800000019,"velocity":0.5039370078740157,"duration":0.5399779364583353},{"name":"B1","midi":35,"time":53.24328850000019,"velocity":0.5039370078740157,"duration":0.13457218645833535},{"name":"E2","midi":40,"time":53.51355900000019,"velocity":0.5039370078740157,"duration":0.13457218645833535},{"name":"G#3","midi":56,"time":53.51355900000019,"velocity":0.5039370078740157,"duration":0.5399779364583353},{"name":"B1","midi":35,"time":54.0541000000002,"velocity":0.5039370078740157,"duration":0.13457218645833535},{"name":"G#3","midi":56,"time":54.0541000000002,"velocity":0.5039370078740157,"duration":0.5399779364583353},{"name":"B1","midi":35,"time":54.3243705000002,"velocity":0.5039370078740157,"duration":0.13457218645833535},{"name":"E2","midi":40,"time":54.5946410000002,"velocity":0.5039370078740157,"duration":0.13457218645833535},{"name":"G#3","midi":56,"time":54.5946410000002,"velocity":0.5039370078740157,"duration":0.5399779364583424},{"name":"F#4","midi":66,"time":54.5946410000002,"velocity":0.5039370078740157,"duration":0.13457218645833535},{"name":"E2","midi":40,"time":54.72977625000021,"velocity":0.5039370078740157,"duration":0.13457218645833535},{"name":"A#2","midi":46,"time":54.72977625000021,"velocity":0.5039370078740157,"duration":0.13457218645833535},{"name":"F#4","midi":66,"time":54.72977625000021,"velocity":0.5039370078740157,"duration":0.13457218645833535},{"name":"E2","midi":40,"time":55.00004675000021,"velocity":0.5039370078740157,"duration":0.13457218645833535},{"name":"G#2","midi":44,"time":55.00004675000021,"velocity":0.5039370078740157,"duration":0.13457218645833535},{"name":"F#4","midi":66,"time":55.00004675000021,"velocity":0.5039370078740157,"duration":0.13457218645833535},{"name":"B1","midi":35,"time":55.13518200000021,"velocity":0.5039370078740157,"duration":0.13457218645833535},{"name":"G#3","midi":56,"time":55.13518200000021,"velocity":0.5039370078740157,"duration":0.5399779364583353},{"name":"B1","midi":35,"time":55.405452500000216,"velocity":0.5039370078740157,"duration":0.13457218645833535},{"name":"E2","midi":40,"time":55.67572300000022,"velocity":0.5039370078740157,"duration":0.13457218645833535},{"name":"G#3","midi":56,"time":55.67572300000022,"velocity":0.5039370078740157,"duration":0.5399779364583353},{"name":"B1","midi":35,"time":56.21626400000022,"velocity":0.5039370078740157,"duration":0.13457218645833535},{"name":"G#3","midi":56,"time":56.21626400000022,"velocity":0.5039370078740157,"duration":0.5399779364583353},{"name":"B1","midi":35,"time":56.486534500000225,"velocity":0.5039370078740157,"duration":0.13457218645833535},{"name":"E2","midi":40,"time":56.75680500000023,"velocity":0.5039370078740157,"duration":0.13457218645833535},{"name":"G#3","midi":56,"time":56.75680500000023,"velocity":0.5039370078740157,"duration":0.5399779364583353},{"name":"B1","midi":35,"time":57.29734600000023,"velocity":0.5039370078740157,"duration":0.13457218645833535},{"name":"G#3","midi":56,"time":57.29734600000023,"velocity":0.5039370078740157,"duration":0.5399779364583353},{"name":"B1","midi":35,"time":57.567616500000234,"velocity":0.5039370078740157,"duration":0.13457218645833535},{"name":"E2","midi":40,"time":57.83788700000024,"velocity":0.5039370078740157,"duration":0.13457218645833535},{"name":"G#3","midi":56,"time":57.83788700000024,"velocity":0.5039370078740157,"duration":0.5399779364583353},{"name":"B1","midi":35,"time":58.37842800000024,"velocity":0.5039370078740157,"duration":0.13457218645833535},{"name":"G#3","midi":56,"time":58.37842800000024,"velocity":0.5039370078740157,"duration":0.5399779364583353},{"name":"B1","midi":35,"time":58.64869850000024,"velocity":0.5039370078740157,"duration":0.13457218645833535},{"name":"E2","midi":40,"time":58.918969000000246,"velocity":0.5039370078740157,"duration":0.13457218645833535},{"name":"G#3","midi":56,"time":58.918969000000246,"velocity":0.5039370078740157,"duration":0.5399779364583353},{"name":"B1","midi":35,"time":59.45951000000025,"velocity":0.5039370078740157,"duration":0.13457218645833535},{"name":"G#3","midi":56,"time":59.45951000000025,"velocity":0.5039370078740157,"duration":0.5399779364583353},{"name":"B1","midi":35,"time":59.72978050000025,"velocity":0.5039370078740157,"duration":0.13457218645833535},{"name":"E2","midi":40,"time":60.000051000000255,"velocity":0.5039370078740157,"duration":0.13457218645833535},{"name":"G#3","midi":56,"time":60.000051000000255,"velocity":0.5039370078740157,"duration":0.5399779364583353},{"name":"B1","midi":35,"time":60.54059200000026,"velocity":0.5039370078740157,"duration":0.13457218645833535},{"name":"G#3","midi":56,"time":60.54059200000026,"velocity":0.5039370078740157,"duration":0.5399779364583353},{"name":"B1","midi":35,"time":60.81086250000026,"velocity":0.5039370078740157,"duration":0.13457218645833535},{"name":"E2","midi":40,"time":61.081133000000264,"velocity":0.5039370078740157,"duration":0.13457218645833535},{"name":"G#3","midi":56,"time":61.081133000000264,"velocity":0.5039370078740157,"duration":0.5399779364583353},{"name":"B1","midi":35,"time":61.62167400000027,"velocity":0.5039370078740157,"duration":0.13457218645833535},{"name":"G#3","midi":56,"time":61.62167400000027,"velocity":0.5039370078740157,"duration":0.5399779364583353},{"name":"B1","midi":35,"time":61.89194450000027,"velocity":0.5039370078740157,"duration":0.13457218645833535},{"name":"E2","midi":40,"time":62.16221500000027,"velocity":0.5039370078740157,"duration":0.13457218645833535},{"name":"F4","midi":65,"time":62.16221500000027,"velocity":0.5039370078740157,"duration":0.13457218645833535},{"name":"E2","midi":40,"time":62.29735025000028,"velocity":0.5039370078740157,"duration":0.13457218645833535},{"name":"F4","midi":65,"time":62.29735025000028,"velocity":0.5039370078740157,"duration":0.13457218645833535},{"name":"E2","midi":40,"time":62.56762075000028,"velocity":0.5039370078740157,"duration":0.13457218645833535},{"name":"F4","midi":65,"time":62.56762075000028,"velocity":0.5039370078740157,"duration":0.13457218645833535},{"name":"B1","midi":35,"time":62.702756000000285,"velocity":0.5039370078740157,"duration":0.13457218645833535},{"name":"F#2","midi":42,"time":62.97302650000029,"velocity":0.5039370078740157,"duration":0.13457218645833535},{"name":"F#2","midi":42,"time":63.10816175000029,"velocity":0.5039370078740157,"duration":0.13457218645833535},{"name":"E2","midi":40,"time":63.2432970000003,"velocity":0.5039370078740157,"duration":0.13457218645833535},{"name":"F#2","midi":42,"time":63.5135675000003,"velocity":0.5039370078740157,"duration":0.13457218645833535},{"name":"F#2","midi":42,"time":63.648702750000304,"velocity":0.5039370078740157,"duration":0.13457218645833535},{"name":"B1","midi":35,"time":63.78383800000031,"velocity":0.5039370078740157,"duration":0.13457218645833535},{"name":"F#2","midi":42,"time":63.78383800000031,"velocity":0.5039370078740157,"duration":0.13457218645833535},{"name":"F#2","midi":42,"time":63.91897325000031,"velocity":0.5039370078740157,"duration":0.13457218645833535},{"name":"E2","midi":40,"time":64.05410850000031,"velocity":0.5039370078740157,"duration":0.13457218645832825},{"name":"G#3","midi":56,"time":64.05410850000031,"velocity":0.5039370078740157,"duration":0.13457218645832825},{"name":"G#3","midi":56,"time":64.1892437500003,"velocity":0.5039370078740157,"duration":0.13457218645832825},{"name":"E2","midi":40,"time":64.32437900000029,"velocity":0.5039370078740157,"duration":0.13457218645832825},{"name":"G#3","midi":56,"time":64.32437900000029,"velocity":0.5039370078740157,"duration":0.13457218645832825},{"name":"E2","midi":40,"time":64.45951425000028,"velocity":0.5039370078740157,"duration":0.13457218645832825},{"name":"G#3","midi":56,"time":64.45951425000028,"velocity":0.5039370078740157,"duration":0.13457218645832825},{"name":"B1","midi":35,"time":64.86492000000028,"velocity":0.5039370078740157,"duration":0.13457218645832825},{"name":"F#2","midi":42,"time":64.86492000000028,"velocity":0.5039370078740157,"duration":0.13457218645832825},{"name":"F#2","midi":42,"time":65.00005525000027,"velocity":0.5039370078740157,"duration":0.13457218645832825},{"name":"F#2","midi":42,"time":65.13519050000026,"velocity":0.5039370078740157,"duration":0.13457218645832825},{"name":"E2","midi":40,"time":65.40546100000026,"velocity":0.5039370078740157,"duration":0.13457218645832825},{"name":"C#3","midi":49,"time":65.40546100000026,"velocity":0.5039370078740157,"duration":0.13457218645832825},{"name":"E2","midi":40,"time":65.81086675000026,"velocity":0.5039370078740157,"duration":0.13457218645832825},{"name":"F4","midi":65,"time":65.81086675000026,"velocity":0.5039370078740157,"duration":0.13457218645832825},{"name":"E2","midi":40,"time":65.94600200000025,"velocity":0.5039370078740157,"duration":0.13457218645832825},{"name":"F4","midi":65,"time":65.94600200000025,"velocity":0.5039370078740157,"duration":0.13457218645832825},{"name":"B1","midi":35,"time":66.08113725000024,"velocity":0.5039370078740157,"duration":0.13457218645832825},{"name":"A3","midi":57,"time":66.08113725000024,"velocity":0.5039370078740157,"duration":0.13457218645832825},{"name":"B1","midi":35,"time":66.48654300000024,"velocity":0.5039370078740157,"duration":0.13457218645832825},{"name":"F#2","midi":42,"time":66.75681350000023,"velocity":0.5039370078740157,"duration":0.13457218645832825},{"name":"F#2","midi":42,"time":66.89194875000022,"velocity":0.5039370078740157,"duration":0.13457218645832825},{"name":"E2","midi":40,"time":67.02708400000022,"velocity":0.5039370078740157,"duration":0.13457218645832825},{"name":"F#2","midi":42,"time":67.29735450000021,"velocity":0.5039370078740157,"duration":0.13457218645832825},{"name":"F#2","midi":42,"time":67.4324897500002,"velocity":0.5039370078740157,"duration":0.13457218645832825},{"name":"B1","midi":35,"time":67.56762500000019,"velocity":0.5039370078740157,"duration":0.13457218645832825},{"name":"F#2","midi":42,"time":67.56762500000019,"velocity":0.5039370078740157,"duration":0.13457218645832825},{"name":"F#2","midi":42,"time":67.70276025000018,"velocity":0.5039370078740157,"duration":0.13457218645832825},{"name":"E2","midi":40,"time":67.83789550000017,"velocity":0.5039370078740157,"duration":0.13457218645832825},{"name":"G#3","midi":56,"time":67.83789550000017,"velocity":0.5039370078740157,"duration":0.13457218645832825},{"name":"G#3","midi":56,"time":67.97303075000016,"velocity":0.5039370078740157,"duration":0.13457218645832825},{"name":"E2","midi":40,"time":68.10816600000015,"velocity":0.5039370078740157,"duration":0.13457218645832825},{"name":"G#3","midi":56,"time":68.10816600000015,"velocity":0.5039370078740157,"duration":0.13457218645832825},{"name":"E2","midi":40,"time":68.24330125000014,"velocity":0.5039370078740157,"duration":0.13457218645832825},{"name":"G#3","midi":56,"time":68.24330125000014,"velocity":0.5039370078740157,"duration":0.13457218645832825},{"name":"B1","midi":35,"time":68.64870700000014,"velocity":0.5039370078740157,"duration":0.13457218645832825},{"name":"F#2","midi":42,"time":68.64870700000014,"velocity":0.5039370078740157,"duration":0.13457218645832825},{"name":"F#2","midi":42,"time":68.78384225000013,"velocity":0.5039370078740157,"duration":0.13457218645832825},{"name":"F#2","midi":42,"time":68.91897750000012,"velocity":0.5039370078740157,"duration":0.13457218645832825},{"name":"E2","midi":40,"time":69.18924800000012,"velocity":0.5039370078740157,"duration":0.13457218645832825},{"name":"C#3","midi":49,"time":69.18924800000012,"velocity":0.5039370078740157,"duration":0.13457218645832825},{"name":"E2","midi":40,"time":69.59465375000012,"velocity":0.5039370078740157,"duration":0.13457218645832825},{"name":"F4","midi":65,"time":69.59465375000012,"velocity":0.5039370078740157,"duration":0.13457218645832825},{"name":"E2","midi":40,"time":69.72978900000011,"velocity":0.5039370078740157,"duration":0.13457218645832825},{"name":"F4","midi":65,"time":69.72978900000011,"velocity":0.5039370078740157,"duration":0.13457218645832825},{"name":"B1","midi":35,"time":69.8649242500001,"velocity":0.5039370078740157,"duration":0.13457218645832825},{"name":"A3","midi":57,"time":69.8649242500001,"velocity":0.5039370078740157,"duration":0.13457218645832825},{"name":"B1","midi":35,"time":70.2703300000001,"velocity":0.5039370078740157,"duration":0.13457218645832825},{"name":"F#2","midi":42,"time":70.5406005000001,"velocity":0.5039370078740157,"duration":0.13457218645832825},{"name":"F#2","midi":42,"time":70.67573575000009,"velocity":0.5039370078740157,"duration":0.13457218645832825},{"name":"E2","midi":40,"time":70.81087100000008,"velocity":0.5039370078740157,"duration":0.13457218645832825},{"name":"F#2","midi":42,"time":71.08114150000007,"velocity":0.5039370078740157,"duration":0.13457218645832825},{"name":"F#2","midi":42,"time":71.21627675000006,"velocity":0.5039370078740157,"duration":0.13457218645832825},{"name":"B1","midi":35,"time":71.35141200000005,"velocity":0.5039370078740157,"duration":0.13457218645832825},{"name":"F#2","midi":42,"time":71.35141200000005,"velocity":0.5039370078740157,"duration":0.13457218645832825},{"name":"F#2","midi":42,"time":71.48654725000004,"velocity":0.5039370078740157,"duration":0.13457218645832825},{"name":"E2","midi":40,"time":71.62168250000003,"velocity":0.5039370078740157,"duration":0.13457218645832825},{"name":"G#3","midi":56,"time":71.62168250000003,"velocity":0.5039370078740157,"duration":0.13457218645832825},{"name":"G#3","midi":56,"time":71.75681775000002,"velocity":0.5039370078740157,"duration":0.13457218645832825},{"name":"E2","midi":40,"time":71.89195300000002,"velocity":0.5039370078740157,"duration":0.13457218645832825},{"name":"G#3","midi":56,"time":71.89195300000002,"velocity":0.5039370078740157,"duration":0.13457218645832825},{"name":"E2","midi":40,"time":72.02708825,"velocity":0.5039370078740157,"duration":0.13457218645832825},{"name":"G#3","midi":56,"time":72.02708825,"velocity":0.5039370078740157,"duration":0.13457218645832825},{"name":"B1","midi":35,"time":72.432494,"velocity":0.5039370078740157,"duration":0.13457218645832825},{"name":"F#2","midi":42,"time":72.432494,"velocity":0.5039370078740157,"duration":0.13457218645832825},{"name":"F#2","midi":42,"time":72.56762925,"velocity":0.5039370078740157,"duration":0.13457218645832825},{"name":"F#2","midi":42,"time":72.70276449999999,"velocity":0.5039370078740157,"duration":0.13457218645832825},{"name":"E2","midi":40,"time":72.97303499999998,"velocity":0.5039370078740157,"duration":0.13457218645832825},{"name":"C#3","midi":49,"time":72.97303499999998,"velocity":0.5039370078740157,"duration":0.13457218645832825},{"name":"E2","midi":40,"time":73.37844074999998,"velocity":0.5039370078740157,"duration":0.13457218645832825},{"name":"F4","midi":65,"time":73.37844074999998,"velocity":0.5039370078740157,"duration":0.13457218645832825},{"name":"E2","midi":40,"time":73.51357599999997,"velocity":0.5039370078740157,"duration":0.13457218645832825},{"name":"F4","midi":65,"time":73.51357599999997,"velocity":0.5039370078740157,"duration":0.13457218645832825},{"name":"B1","midi":35,"time":73.64871124999996,"velocity":0.5039370078740157,"duration":0.13457218645832825},{"name":"A3","midi":57,"time":73.64871124999996,"velocity":0.5039370078740157,"duration":0.13457218645832825},{"name":"B1","midi":35,"time":74.05411699999996,"velocity":0.5039370078740157,"duration":0.13457218645832825},{"name":"F#2","midi":42,"time":74.32438749999996,"velocity":0.5039370078740157,"duration":0.13457218645832825},{"name":"F#2","midi":42,"time":74.45952274999995,"velocity":0.5039370078740157,"duration":0.13457218645832825},{"name":"E2","midi":40,"time":74.59465799999994,"velocity":0.5039370078740157,"duration":0.13457218645832825},{"name":"F#2","midi":42,"time":74.86492849999993,"velocity":0.5039370078740157,"duration":0.13457218645832825},{"name":"F#2","midi":42,"time":75.00006374999992,"velocity":0.5039370078740157,"duration":0.13457218645832825},{"name":"B1","midi":35,"time":75.13519899999991,"velocity":0.5039370078740157,"duration":0.13457218645832825},{"name":"F#2","midi":42,"time":75.13519899999991,"velocity":0.5039370078740157,"duration":0.13457218645832825},{"name":"F#2","midi":42,"time":75.2703342499999,"velocity":0.5039370078740157,"duration":0.13457218645832825},{"name":"E2","midi":40,"time":75.4054694999999,"velocity":0.5039370078740157,"duration":0.13457218645832825},{"name":"G#3","midi":56,"time":75.4054694999999,"velocity":0.5039370078740157,"duration":0.13457218645832825},{"name":"G#3","midi":56,"time":75.54060474999989,"velocity":0.5039370078740157,"duration":0.13457218645832825},{"name":"E2","midi":40,"time":75.67573999999988,"velocity":0.5039370078740157,"duration":0.13457218645832825},{"name":"G#3","midi":56,"time":75.67573999999988,"velocity":0.5039370078740157,"duration":0.13457218645832825},{"name":"E2","midi":40,"time":75.81087524999987,"velocity":0.5039370078740157,"duration":0.13457218645832825},{"name":"G#3","midi":56,"time":75.81087524999987,"velocity":0.5039370078740157,"duration":0.13457218645832825},{"name":"B1","midi":35,"time":76.21628099999987,"velocity":0.5039370078740157,"duration":0.13457218645832825},{"name":"F#2","midi":42,"time":76.21628099999987,"velocity":0.5039370078740157,"duration":0.13457218645832825},{"name":"F#2","midi":42,"time":76.35141624999986,"velocity":0.5039370078740157,"duration":0.13457218645832825},{"name":"F#2","midi":42,"time":76.48655149999985,"velocity":0.5039370078740157,"duration":0.13457218645832825},{"name":"E2","midi":40,"time":76.75682199999984,"velocity":0.5039370078740157,"duration":0.13457218645832825},{"name":"C#3","midi":49,"time":76.75682199999984,"velocity":0.5039370078740157,"duration":0.13457218645832825},{"name":"E2","midi":40,"time":77.16222774999984,"velocity":0.5039370078740157,"duration":0.13457218645832825},{"name":"F4","midi":65,"time":77.16222774999984,"velocity":0.5039370078740157,"duration":0.13457218645832825},{"name":"E2","midi":40,"time":77.29736299999983,"velocity":0.5039370078740157,"duration":0.13457218645832825},{"name":"F4","midi":65,"time":77.29736299999983,"velocity":0.5039370078740157,"duration":0.13457218645832825},{"name":"B1","midi":35,"time":77.43249824999982,"velocity":0.5039370078740157,"duration":0.13457218645832825},{"name":"A3","midi":57,"time":77.43249824999982,"velocity":0.5039370078740157,"duration":0.13457218645832825},{"name":"F2","midi":41,"time":77.83790399999982,"velocity":0.5039370078740157,"duration":0.13457218645832825},{"name":"G2","midi":43,"time":77.83790399999982,"velocity":0.5039370078740157,"duration":0.13457218645832825},{"name":"F#2","midi":42,"time":78.37844499999981,"velocity":0.5039370078740157,"duration":0.13457218645832825},{"name":"F#2","midi":42,"time":79.45952699999981,"velocity":0.5039370078740157,"duration":0.13457218645832825},{"name":"F#2","midi":42,"time":80.5406089999998,"velocity":0.5039370078740157,"duration":0.13457218645832825},{"name":"F#2","midi":42,"time":81.6216909999998,"velocity":0.5039370078740157,"duration":0.13457218645832825},{"name":"A#2","midi":46,"time":81.6216909999998,"velocity":0.5039370078740157,"duration":0.13457218645832825},{"name":"G#2","midi":44,"time":81.8243938749998,"velocity":0.5039370078740157,"duration":0.13457218645832825},{"name":"F#2","midi":42,"time":82.7027729999998,"velocity":0.5039370078740157,"duration":0.13457218645832825},{"name":"F#2","midi":42,"time":83.78385499999979,"velocity":0.5039370078740157,"duration":0.13457218645832825},{"name":"F5","midi":77,"time":84.72980174999978,"velocity":0.5039370078740157,"duration":0.13457218645832825},{"name":"F5","midi":77,"time":84.86493699999977,"velocity":0.5039370078740157,"duration":0.13457218645832825},{"name":"F5","midi":77,"time":85.00007224999976,"velocity":0.5039370078740157,"duration":0.13457218645832825},{"name":"F5","midi":77,"time":85.13520749999975,"velocity":0.5039370078740157,"duration":0.13457218645832825},{"name":"B1","midi":35,"time":85.40547799999975,"velocity":0.5039370078740157,"duration":0.13457218645832825},{"name":"A3","midi":57,"time":85.40547799999975,"velocity":0.5039370078740157,"duration":0.13457218645832825},{"name":"B1","midi":35,"time":85.67574849999974,"velocity":0.5039370078740157,"duration":0.13457218645832825},{"name":"E2","midi":40,"time":85.94601899999974,"velocity":0.5039370078740157,"duration":0.13457218645832825},{"name":"B1","midi":35,"time":86.48655999999973,"velocity":0.5039370078740157,"duration":0.13457218645832825},{"name":"B1","midi":35,"time":86.75683049999972,"velocity":0.5039370078740157,"duration":0.13457218645832825},{"name":"E2","midi":40,"time":87.02710099999972,"velocity":0.5039370078740157,"duration":0.13457218645832825},{"name":"B1","midi":35,"time":87.56764199999971,"velocity":0.5039370078740157,"duration":0.13457218645832825},{"name":"B1","midi":35,"time":87.8379124999997,"velocity":0.5039370078740157,"duration":0.13457218645832825},{"name":"E2","midi":40,"time":88.1081829999997,"velocity":0.5039370078740157,"duration":0.13457218645832825},{"name":"B1","midi":35,"time":88.64872399999969,"velocity":0.5039370078740157,"duration":0.13457218645832825},{"name":"B1","midi":35,"time":88.91899449999968,"velocity":0.5039370078740157,"duration":0.13457218645832825},{"name":"E2","midi":40,"time":89.18926499999968,"velocity":0.5039370078740157,"duration":0.13457218645832825},{"name":"B1","midi":35,"time":89.72980599999967,"velocity":0.5039370078740157,"duration":0.13457218645832825},{"name":"B1","midi":35,"time":90.00007649999966,"velocity":0.5039370078740157,"duration":0.13457218645832825},{"name":"E2","midi":40,"time":90.27034699999966,"velocity":0.5039370078740157,"duration":0.13457218645832825},{"name":"B1","midi":35,"time":90.81088799999965,"velocity":0.5039370078740157,"duration":0.13457218645832825},{"name":"B1","midi":35,"time":91.08115849999965,"velocity":0.5039370078740157,"duration":0.13457218645832825},{"name":"E2","midi":40,"time":91.35142899999964,"velocity":0.5039370078740157,"duration":0.13457218645832825},{"name":"B1","midi":35,"time":91.89196999999963,"velocity":0.5039370078740157,"duration":0.13457218645832825},{"name":"B1","midi":35,"time":92.16224049999963,"velocity":0.5039370078740157,"duration":0.13457218645832825},{"name":"E2","midi":40,"time":92.43251099999962,"velocity":0.5039370078740157,"duration":0.13457218645832825},{"name":"F4","midi":65,"time":92.43251099999962,"velocity":0.5039370078740157,"duration":0.13457218645832825},{"name":"E2","midi":40,"time":92.56764624999961,"velocity":0.5039370078740157,"duration":0.13457218645832825},{"name":"F4","midi":65,"time":92.56764624999961,"velocity":0.5039370078740157,"duration":0.13457218645832825},{"name":"E2","midi":40,"time":92.83791674999961,"velocity":0.5039370078740157,"duration":0.13457218645832825},{"name":"F4","midi":65,"time":92.83791674999961,"velocity":0.5039370078740157,"duration":0.13457218645832825},{"name":"A#2","midi":46,"time":92.9730519999996,"velocity":0.5039370078740157,"duration":0.067004561458333},{"name":"G#2","midi":44,"time":93.24332249999959,"velocity":0.5039370078740157,"duration":0.067004561458333},{"name":"E2","midi":40,"time":101.75684324999959,"velocity":0.023622047244094488,"duration":0.13457218645832825},{"name":"E2","midi":40,"time":101.89197849999958,"velocity":0.047244094488188976,"duration":0.13457218645832825},{"name":"E2","midi":40,"time":102.02711374999957,"velocity":0.07086614173228346,"duration":0.13457218645832825},{"name":"E2","midi":40,"time":102.16224899999956,"velocity":0.09448818897637795,"duration":0.13457218645832825},{"name":"E2","midi":40,"time":102.29738424999955,"velocity":0.11811023622047244,"duration":0.13457218645832825},{"name":"E2","midi":40,"time":102.43251949999954,"velocity":0.14173228346456693,"duration":0.13457218645832825},{"name":"E2","midi":40,"time":102.56765474999953,"velocity":0.16535433070866143,"duration":0.13457218645832825},{"name":"E2","midi":40,"time":102.70278999999952,"velocity":0.1889763779527559,"duration":0.13457218645832825},{"name":"E2","midi":40,"time":102.83792524999951,"velocity":0.2125984251968504,"duration":0.13457218645832825},{"name":"E2","midi":40,"time":102.9730604999995,"velocity":0.23622047244094488,"duration":0.13457218645832825},{"name":"E2","midi":40,"time":103.1081957499995,"velocity":0.25984251968503935,"duration":0.13457218645832825},{"name":"E2","midi":40,"time":103.24333099999949,"velocity":0.28346456692913385,"duration":0.13457218645832825},{"name":"E2","midi":40,"time":103.37846624999948,"velocity":0.30708661417322836,"duration":0.13457218645832825},{"name":"E2","midi":40,"time":103.51360149999947,"velocity":0.33070866141732286,"duration":0.13457218645832825},{"name":"E2","midi":40,"time":103.64873674999946,"velocity":0.3543307086614173,"duration":0.13457218645832825},{"name":"E2","midi":40,"time":103.78387199999945,"velocity":0.3779527559055118,"duration":0.13457218645832825},{"name":"E2","midi":40,"time":103.91900724999944,"velocity":0.4015748031496063,"duration":0.13457218645832825},{"name":"E2","midi":40,"time":104.05414249999943,"velocity":0.4251968503937008,"duration":0.13457218645832825},{"name":"E2","midi":40,"time":104.18927774999942,"velocity":0.44881889763779526,"duration":0.13457218645832825},{"name":"A#2","midi":46,"time":104.32441299999941,"velocity":0.5039370078740157,"duration":0.5399779364583281},{"name":"C#3","midi":49,"time":104.32441299999941,"velocity":0.5039370078740157,"duration":0.13457218645832825},{"name":"G#2","midi":44,"time":104.5946834999994,"velocity":0.5039370078740157,"duration":0.13457218645832825},{"name":"E2","midi":40,"time":105.54063024999941,"velocity":0.023622047244094488,"duration":0.13457218645832825},{"name":"E2","midi":40,"time":105.6757654999994,"velocity":0.047244094488188976,"duration":0.13457218645832825},{"name":"E2","midi":40,"time":105.81090074999939,"velocity":0.07086614173228346,"duration":0.13457218645832825},{"name":"E2","midi":40,"time":105.94603599999938,"velocity":0.09448818897637795,"duration":0.13457218645832825},{"name":"E2","midi":40,"time":106.08117124999937,"velocity":0.11811023622047244,"duration":0.13457218645832825},{"name":"E2","midi":40,"time":106.21630649999936,"velocity":0.14173228346456693,"duration":0.13457218645832825},{"name":"E2","midi":40,"time":106.35144174999935,"velocity":0.16535433070866143,"duration":0.13457218645832825},{"name":"E2","midi":40,"time":106.48657699999934,"velocity":0.1889763779527559,"duration":0.13457218645832825},{"name":"E2","midi":40,"time":106.62171224999933,"velocity":0.2125984251968504,"duration":0.13457218645832825},{"name":"E2","midi":40,"time":106.75684749999932,"velocity":0.23622047244094488,"duration":0.13457218645832825},{"name":"E2","midi":40,"time":106.89198274999931,"velocity":0.25984251968503935,"duration":0.13457218645832825},{"name":"E2","midi":40,"time":107.0271179999993,"velocity":0.28346456692913385,"duration":0.13457218645832825},{"name":"E2","midi":40,"time":107.1622532499993,"velocity":0.30708661417322836,"duration":0.13457218645832825},{"name":"E2","midi":40,"time":107.29738849999929,"velocity":0.33070866141732286,"duration":0.13457218645832825},{"name":"E2","midi":40,"time":107.43252374999928,"velocity":0.3543307086614173,"duration":0.13457218645832825},{"name":"E2","midi":40,"time":107.56765899999927,"velocity":0.3779527559055118,"duration":0.13457218645832825},{"name":"F4","midi":65,"time":107.56765899999927,"velocity":0.3779527559055118,"duration":0.13457218645832825},{"name":"E2","midi":40,"time":107.70279424999926,"velocity":0.4015748031496063,"duration":0.13457218645832825},{"name":"F4","midi":65,"time":107.70279424999926,"velocity":0.4015748031496063,"duration":0.13457218645832825},{"name":"E2","midi":40,"time":107.83792949999925,"velocity":0.4251968503937008,"duration":0.13457218645832825},{"name":"F4","midi":65,"time":107.83792949999925,"velocity":0.4251968503937008,"duration":0.13457218645832825},{"name":"E2","midi":40,"time":107.97306474999924,"velocity":0.44881889763779526,"duration":0.13457218645832825},{"name":"F4","midi":65,"time":107.97306474999924,"velocity":0.44881889763779526,"duration":0.13457218645832825},{"name":"B1","midi":35,"time":108.10819999999923,"velocity":0.5039370078740157,"duration":0.13457218645832825},{"name":"C#3","midi":49,"time":108.10819999999923,"velocity":0.5039370078740157,"duration":0.13457218645832825},{"name":"B1","midi":35,"time":108.37847049999922,"velocity":0.5039370078740157,"duration":0.26970743645833295},{"name":"F#2","midi":42,"time":108.37847049999922,"velocity":0.5039370078740157,"duration":0.26970743645833295},{"name":"E2","midi":40,"time":108.64874099999922,"velocity":0.5039370078740157,"duration":0.26970743645833295},{"name":"F#2","midi":42,"time":108.64874099999922,"velocity":0.5039370078740157,"duration":0.26970743645833295},{"name":"F#2","midi":42,"time":108.91901149999921,"velocity":0.5039370078740157,"duration":0.26970743645833295},{"name":"B1","midi":35,"time":109.05414674999922,"velocity":0.5039370078740157,"duration":0.26970743645831874},{"name":"B1","midi":35,"time":109.18928199999921,"velocity":0.5039370078740157,"duration":0.13457218645832825},{"name":"F#2","midi":42,"time":109.18928199999921,"velocity":0.5039370078740157,"duration":0.26970743645833295},{"name":"B1","midi":35,"time":109.4595524999992,"velocity":0.5039370078740157,"duration":0.26970743645833295},{"name":"F#2","midi":42,"time":109.4595524999992,"velocity":0.5039370078740157,"duration":0.26970743645833295},{"name":"E2","midi":40,"time":109.7298229999992,"velocity":0.5039370078740157,"duration":0.26970743645833295},{"name":"F#2","midi":42,"time":109.7298229999992,"velocity":0.5039370078740157,"duration":0.26970743645833295},{"name":"B1","midi":35,"time":109.8649582499992,"velocity":0.5039370078740157,"duration":0.13457218645832825},{"name":"F#2","midi":42,"time":110.0000934999992,"velocity":0.5039370078740157,"duration":0.26970743645833295},{"name":"B1","midi":35,"time":110.27036399999919,"velocity":0.5039370078740157,"duration":0.13457218645832825},{"name":"F#2","midi":42,"time":110.27036399999919,"velocity":0.5039370078740157,"duration":0.26970743645833295},{"name":"B1","midi":35,"time":110.54063449999919,"velocity":0.5039370078740157,"duration":0.13457218645832825},{"name":"F#2","midi":42,"time":110.54063449999919,"velocity":0.5039370078740157,"duration":0.26970743645831874},{"name":"B1","midi":35,"time":110.67576974999918,"velocity":0.5039370078740157,"duration":0.13457218645832825},{"name":"E2","midi":40,"time":110.81090499999917,"velocity":0.5039370078740157,"duration":0.13457218645832825},{"name":"F#2","midi":42,"time":110.81090499999917,"velocity":0.5039370078740157,"duration":0.26970743645831874},{"name":"E2","midi":40,"time":110.94604024999916,"velocity":0.5039370078740157,"duration":0.13457218645832825},{"name":"B1","midi":35,"time":111.08117549999915,"velocity":0.5039370078740157,"duration":0.13457218645832825},{"name":"F#2","midi":42,"time":111.08117549999915,"velocity":0.5039370078740157,"duration":0.26970743645833295},{"name":"B1","midi":35,"time":111.35144599999914,"velocity":0.5039370078740157,"duration":0.13457218645832825},{"name":"F#2","midi":42,"time":111.35144599999914,"velocity":0.5039370078740157,"duration":0.26970743645831874},{"name":"B1","midi":35,"time":111.48658124999913,"velocity":0.5039370078740157,"duration":0.13457218645832825},{"name":"F#2","midi":42,"time":111.62171649999912,"velocity":0.5039370078740157,"duration":0.26970743645833295},{"name":"E2","midi":40,"time":111.75685174999913,"velocity":0.5039370078740157,"duration":0.13457218645832825},{"name":"B1","midi":35,"time":111.89198699999912,"velocity":0.5039370078740157,"duration":0.13457218645832825},{"name":"F#2","midi":42,"time":111.89198699999912,"velocity":0.5039370078740157,"duration":0.26970743645833295},{"name":"B1","midi":35,"time":112.16225749999911,"velocity":0.5039370078740157,"duration":0.26970743645833295},{"name":"F#2","midi":42,"time":112.16225749999911,"velocity":0.5039370078740157,"duration":0.26970743645833295},{"name":"E2","midi":40,"time":112.43252799999911,"velocity":0.5039370078740157,"duration":0.26970743645833295},{"name":"F#2","midi":42,"time":112.43252799999911,"velocity":0.5039370078740157,"duration":0.26970743645833295},{"name":"F#2","midi":42,"time":112.7027984999991,"velocity":0.5039370078740157,"duration":0.26970743645833295},{"name":"B1","midi":35,"time":112.83793374999911,"velocity":0.5039370078740157,"duration":0.26970743645831874},{"name":"B1","midi":35,"time":112.9730689999991,"velocity":0.5039370078740157,"duration":0.13457218645832825},{"name":"F#2","midi":42,"time":112.9730689999991,"velocity":0.5039370078740157,"duration":0.26970743645833295},{"name":"B1","midi":35,"time":113.2433394999991,"velocity":0.5039370078740157,"duration":0.26970743645833295},{"name":"F#2","midi":42,"time":113.2433394999991,"velocity":0.5039370078740157,"duration":0.26970743645833295},{"name":"E2","midi":40,"time":113.51360999999909,"velocity":0.5039370078740157,"duration":0.26970743645833295},{"name":"F#2","midi":42,"time":113.51360999999909,"velocity":0.5039370078740157,"duration":0.26970743645833295},{"name":"B1","midi":35,"time":113.6487452499991,"velocity":0.5039370078740157,"duration":0.13457218645832825},{"name":"F#2","midi":42,"time":113.78388049999909,"velocity":0.5039370078740157,"duration":0.26970743645833295},{"name":"B1","midi":35,"time":114.05415099999908,"velocity":0.5039370078740157,"duration":0.13457218645832825},{"name":"F#2","midi":42,"time":114.05415099999908,"velocity":0.5039370078740157,"duration":0.26970743645833295},{"name":"B1","midi":35,"time":114.32442149999908,"velocity":0.5039370078740157,"duration":0.13457218645832825},{"name":"F#2","midi":42,"time":114.32442149999908,"velocity":0.5039370078740157,"duration":0.26970743645831874},{"name":"B1","midi":35,"time":114.45955674999907,"velocity":0.5039370078740157,"duration":0.13457218645832825},{"name":"E2","midi":40,"time":114.59469199999906,"velocity":0.5039370078740157,"duration":0.13457218645832825},{"name":"F#2","midi":42,"time":114.59469199999906,"velocity":0.5039370078740157,"duration":0.26970743645831874},{"name":"E2","midi":40,"time":114.72982724999905,"velocity":0.5039370078740157,"duration":0.13457218645832825},{"name":"B1","midi":35,"time":114.86496249999904,"velocity":0.5039370078740157,"duration":0.13457218645832825},{"name":"F#2","midi":42,"time":114.86496249999904,"velocity":0.5039370078740157,"duration":0.26970743645833295},{"name":"B1","midi":35,"time":115.13523299999903,"velocity":0.5039370078740157,"duration":0.13457218645832825},{"name":"F#2","midi":42,"time":115.13523299999903,"velocity":0.5039370078740157,"duration":0.26970743645831874},{"name":"B1","midi":35,"time":115.27036824999902,"velocity":0.5039370078740157,"duration":0.13457218645832825},{"name":"F#2","midi":42,"time":115.40550349999901,"velocity":0.5039370078740157,"duration":0.26970743645833295},{"name":"E2","midi":40,"time":115.54063874999902,"velocity":0.5039370078740157,"duration":0.13457218645832825},{"name":"B1","midi":35,"time":115.67577399999901,"velocity":0.5039370078740157,"duration":0.13457218645832825},{"name":"F#2","midi":42,"time":115.67577399999901,"velocity":0.5039370078740157,"duration":0.13457218645832825},{"name":"F5","midi":77,"time":115.67577399999901,"velocity":0.5039370078740157,"duration":0.13457218645832825},{"name":"F5","midi":77,"time":115.810909249999,"velocity":0.5039370078740157,"duration":0.13457218645832825},{"name":"B1","midi":35,"time":115.94604449999899,"velocity":0.5039370078740157,"duration":0.26970743645831874},{"name":"F#2","midi":42,"time":115.94604449999899,"velocity":0.5039370078740157,"duration":0.26970743645831874},{"name":"F5","midi":77,"time":115.94604449999899,"velocity":0.5039370078740157,"duration":0.13457218645832825},{"name":"F5","midi":77,"time":116.08117974999898,"velocity":0.5039370078740157,"duration":0.13457218645832825},{"name":"E2","midi":40,"time":116.21631499999897,"velocity":0.5039370078740157,"duration":0.26970743645833295},{"name":"F#2","midi":42,"time":116.21631499999897,"velocity":0.5039370078740157,"duration":0.26970743645833295},{"name":"F#2","midi":42,"time":116.48658549999897,"velocity":0.5039370078740157,"duration":0.26970743645831874},{"name":"G3","midi":55,"time":116.48658549999897,"velocity":0.5039370078740157,"duration":0.13457218645832825},{"name":"B1","midi":35,"time":116.62172074999896,"velocity":0.5039370078740157,"duration":0.26970743645831874},{"name":"G3","midi":55,"time":116.62172074999896,"velocity":0.5039370078740157,"duration":0.13457218645832825},{"name":"B1","midi":35,"time":116.75685599999895,"velocity":0.5039370078740157,"duration":0.13457218645832825},{"name":"F#2","midi":42,"time":116.75685599999895,"velocity":0.5039370078740157,"duration":0.26970743645833295},{"name":"B1","midi":35,"time":117.02712649999894,"velocity":0.5039370078740157,"duration":0.26970743645833295},{"name":"F#2","midi":42,"time":117.02712649999894,"velocity":0.5039370078740157,"duration":0.26970743645833295},{"name":"E2","midi":40,"time":117.29739699999894,"velocity":0.5039370078740157,"duration":0.26970743645831874},{"name":"F#2","midi":42,"time":117.29739699999894,"velocity":0.5039370078740157,"duration":0.26970743645831874},{"name":"A2","midi":45,"time":117.29739699999894,"velocity":0.5039370078740157,"duration":0.13457218645832825},{"name":"B2","midi":47,"time":117.29739699999894,"velocity":0.5039370078740157,"duration":0.13457218645832825},{"name":"B1","midi":35,"time":117.43253224999893,"velocity":0.5039370078740157,"duration":0.13457218645832825},{"name":"F#2","midi":42,"time":117.56766749999892,"velocity":0.5039370078740157,"duration":0.26970743645833295},{"name":"B1","midi":35,"time":117.83793799999891,"velocity":0.5039370078740157,"duration":0.13457218645832825},{"name":"F#2","midi":42,"time":117.83793799999891,"velocity":0.5039370078740157,"duration":0.26970743645833295},{"name":"B1","midi":35,"time":118.10820849999891,"velocity":0.5039370078740157,"duration":0.13457218645832825},{"name":"F#2","midi":42,"time":118.10820849999891,"velocity":0.5039370078740157,"duration":0.26970743645831874},{"name":"B1","midi":35,"time":118.2433437499989,"velocity":0.5039370078740157,"duration":0.13457218645832825},{"name":"E2","midi":40,"time":118.37847899999889,"velocity":0.5039370078740157,"duration":0.13457218645832825},{"name":"F#2","midi":42,"time":118.37847899999889,"velocity":0.5039370078740157,"duration":0.26970743645831874},{"name":"E2","midi":40,"time":118.51361424999888,"velocity":0.5039370078740157,"duration":0.13457218645832825},{"name":"B1","midi":35,"time":118.64874949999887,"velocity":0.5039370078740157,"duration":0.13457218645832825},{"name":"F#2","midi":42,"time":118.64874949999887,"velocity":0.5039370078740157,"duration":0.26970743645833295},{"name":"F5","midi":77,"time":118.64874949999887,"velocity":0.5039370078740157,"duration":0.13457218645832825},{"name":"B1","midi":35,"time":118.91901999999887,"velocity":0.5039370078740157,"duration":0.13457218645832825},{"name":"F#2","midi":42,"time":118.91901999999887,"velocity":0.5039370078740157,"duration":0.26970743645831874},{"name":"B1","midi":35,"time":119.05415524999886,"velocity":0.5039370078740157,"duration":0.13457218645832825},{"name":"F5","midi":77,"time":119.05415524999886,"velocity":0.5039370078740157,"duration":0.13457218645832825},{"name":"F#2","midi":42,"time":119.18929049999885,"velocity":0.5039370078740157,"duration":0.26970743645833295},{"name":"E2","midi":40,"time":119.32442574999885,"velocity":0.5039370078740157,"duration":0.13457218645832825},{"name":"B1","midi":35,"time":119.45956099999884,"velocity":0.5039370078740157,"duration":0.13457218645832825},{"name":"F#2","midi":42,"time":119.45956099999884,"velocity":0.5039370078740157,"duration":0.26970743645831874},{"name":"F5","midi":77,"time":119.45956099999884,"velocity":0.5039370078740157,"duration":0.13457218645832825},{"name":"F5","midi":77,"time":119.59469624999883,"velocity":0.5039370078740157,"duration":0.13457218645832825},{"name":"B1","midi":35,"time":119.72983149999882,"velocity":0.5039370078740157,"duration":0.26970743645831874},{"name":"F#2","midi":42,"time":119.72983149999882,"velocity":0.5039370078740157,"duration":0.26970743645831874},{"name":"F5","midi":77,"time":119.72983149999882,"velocity":0.5039370078740157,"duration":0.13457218645832825},{"name":"F5","midi":77,"time":119.86496674999881,"velocity":0.5039370078740157,"duration":0.13457218645832825},{"name":"E2","midi":40,"time":120.0001019999988,"velocity":0.5039370078740157,"duration":0.26970743645833295},{"name":"F#2","midi":42,"time":120.0001019999988,"velocity":0.5039370078740157,"duration":0.26970743645833295},{"name":"F#2","midi":42,"time":120.2703724999988,"velocity":0.5039370078740157,"duration":0.26970743645831874},{"name":"G3","midi":55,"time":120.2703724999988,"velocity":0.5039370078740157,"duration":0.13457218645832825},{"name":"B1","midi":35,"time":120.40550774999879,"velocity":0.5039370078740157,"duration":0.26970743645831874},{"name":"G3","midi":55,"time":120.40550774999879,"velocity":0.5039370078740157,"duration":0.13457218645832825},{"name":"B1","midi":35,"time":120.54064299999878,"velocity":0.5039370078740157,"duration":0.13457218645832825},{"name":"F#2","midi":42,"time":120.54064299999878,"velocity":0.5039370078740157,"duration":0.26970743645833295},{"name":"B1","midi":35,"time":120.81091349999878,"velocity":0.5039370078740157,"duration":0.26970743645833295},{"name":"F#2","midi":42,"time":120.81091349999878,"velocity":0.5039370078740157,"duration":0.26970743645833295},{"name":"E2","midi":40,"time":121.08118399999877,"velocity":0.5039370078740157,"duration":0.26970743645831874},{"name":"F#2","midi":42,"time":121.08118399999877,"velocity":0.5039370078740157,"duration":0.26970743645831874},{"name":"A2","midi":45,"time":121.08118399999877,"velocity":0.5039370078740157,"duration":0.13457218645832825},{"name":"B2","midi":47,"time":121.08118399999877,"velocity":0.5039370078740157,"duration":0.13457218645832825},{"name":"B1","midi":35,"time":121.21631924999876,"velocity":0.5039370078740157,"duration":0.13457218645832825},{"name":"F#2","midi":42,"time":121.35145449999875,"velocity":0.5039370078740157,"duration":0.26970743645833295},{"name":"B1","midi":35,"time":121.62172499999875,"velocity":0.5039370078740157,"duration":0.13457218645832825},{"name":"F#2","midi":42,"time":121.62172499999875,"velocity":0.5039370078740157,"duration":0.26970743645833295},{"name":"B1","midi":35,"time":121.89199549999874,"velocity":0.5039370078740157,"duration":0.13457218645832825},{"name":"F#2","midi":42,"time":121.89199549999874,"velocity":0.5039370078740157,"duration":0.26970743645831874},{"name":"B1","midi":35,"time":122.02713074999873,"velocity":0.5039370078740157,"duration":0.13457218645832825},{"name":"E2","midi":40,"time":122.16226599999872,"velocity":0.5039370078740157,"duration":0.13457218645832825},{"name":"F#2","midi":42,"time":122.16226599999872,"velocity":0.5039370078740157,"duration":0.26970743645831874},{"name":"E2","midi":40,"time":122.29740124999871,"velocity":0.5039370078740157,"duration":0.13457218645832825},{"name":"B1","midi":35,"time":122.4325364999987,"velocity":0.5039370078740157,"duration":0.13457218645832825},{"name":"F#2","midi":42,"time":122.4325364999987,"velocity":0.5039370078740157,"duration":0.26970743645833295},{"name":"F5","midi":77,"time":122.4325364999987,"velocity":0.5039370078740157,"duration":0.13457218645832825},{"name":"B1","midi":35,"time":122.7028069999987,"velocity":0.5039370078740157,"duration":0.13457218645832825},{"name":"F#2","midi":42,"time":122.7028069999987,"velocity":0.5039370078740157,"duration":0.26970743645831874},{"name":"B1","midi":35,"time":122.83794224999869,"velocity":0.5039370078740157,"duration":0.13457218645832825},{"name":"F5","midi":77,"time":122.83794224999869,"velocity":0.5039370078740157,"duration":0.13457218645832825},{"name":"F#2","midi":42,"time":122.97307749999868,"velocity":0.5039370078740157,"duration":0.26970743645833295},{"name":"E2","midi":40,"time":123.10821274999869,"velocity":0.5039370078740157,"duration":0.13457218645832825},{"name":"E2","midi":40,"time":123.24334799999868,"velocity":0.5039370078740157,"duration":0.13457218645832825},{"name":"G#3","midi":56,"time":123.24334799999868,"velocity":0.5039370078740157,"duration":0.13457218645832825},{"name":"E2","midi":40,"time":123.37848324999867,"velocity":0.5039370078740157,"duration":0.13457218645832825},{"name":"E2","midi":40,"time":123.51361849999866,"velocity":0.5039370078740157,"duration":0.13457218645832825},{"name":"G#3","midi":56,"time":123.51361849999866,"velocity":0.5039370078740157,"duration":0.13457218645832825},{"name":"E2","midi":40,"time":123.64875374999865,"velocity":0.5039370078740157,"duration":0.13457218645832825},{"name":"G3","midi":55,"time":123.78388899999864,"velocity":0.5039370078740157,"duration":0.13457218645832825},{"name":"E2","midi":40,"time":124.05415949999863,"velocity":0.5039370078740157,"duration":0.13457218645832825},{"name":"A#2","midi":46,"time":124.05415949999863,"velocity":0.5039370078740157,"duration":0.13457218645832825},{"name":"E2","midi":40,"time":124.18929474999862,"velocity":0.5039370078740157,"duration":0.13457218645832825},{"name":"E2","midi":40,"time":124.32442999999861,"velocity":0.5039370078740157,"duration":0.13457218645832825},{"name":"G#2","midi":44,"time":124.32442999999861,"velocity":0.5039370078740157,"duration":0.13457218645832825},{"name":"E2","midi":40,"time":124.4595652499986,"velocity":0.5039370078740157,"duration":0.13457218645832825},{"name":"E2","midi":40,"time":124.8649709999986,"velocity":0.5039370078740157,"duration":0.13457218645832825},{"name":"G#3","midi":56,"time":124.8649709999986,"velocity":0.5039370078740157,"duration":0.13457218645832825},{"name":"E2","midi":40,"time":125.0001062499986,"velocity":0.5039370078740157,"duration":0.13457218645832825},{"name":"E2","midi":40,"time":125.13524149999859,"velocity":0.5039370078740157,"duration":0.13457218645832825},{"name":"G#3","midi":56,"time":125.13524149999859,"velocity":0.5039370078740157,"duration":0.13457218645832825},{"name":"E2","midi":40,"time":125.27037674999858,"velocity":0.5039370078740157,"duration":0.13457218645832825},{"name":"G3","midi":55,"time":125.40551199999857,"velocity":0.5039370078740157,"duration":0.13457218645832825},{"name":"E2","midi":40,"time":125.67578249999856,"velocity":0.5039370078740157,"duration":0.13457218645832825},{"name":"E2","midi":40,"time":125.81091774999855,"velocity":0.5039370078740157,"duration":0.13457218645832825},{"name":"B1","midi":35,"time":125.94605299999854,"velocity":0.5039370078740157,"duration":0.13457218645832825},{"name":"E2","midi":40,"time":125.94605299999854,"velocity":0.5039370078740157,"duration":0.13457218645832825},{"name":"A#2","midi":46,"time":125.94605299999854,"velocity":0.5039370078740157,"duration":0.13457218645832825},{"name":"E2","midi":40,"time":126.08118824999853,"velocity":0.5039370078740157,"duration":0.13457218645832825},{"name":"G#2","midi":44,"time":126.21632349999852,"velocity":0.5039370078740157,"duration":0.13457218645832825},{"name":"F5","midi":77,"time":126.21632349999852,"velocity":0.5039370078740157,"duration":0.13457218645832825},{"name":"F5","midi":77,"time":126.35145874999851,"velocity":0.5039370078740157,"duration":0.13457218645832825},{"name":"E2","midi":40,"time":126.4865939999985,"velocity":0.5039370078740157,"duration":0.13457218645832825},{"name":"E2","midi":40,"time":126.6217292499985,"velocity":0.5039370078740157,"duration":0.13457218645832825},{"name":"E2","midi":40,"time":126.75686449999849,"velocity":0.5039370078740157,"duration":0.13457218645832825},{"name":"E2","midi":40,"time":126.89199974999848,"velocity":0.5039370078740157,"duration":0.13457218645832825},{"name":"E2","midi":40,"time":127.02713499999847,"velocity":0.5039370078740157,"duration":0.13457218645832825},{"name":"G#3","midi":56,"time":127.02713499999847,"velocity":0.5039370078740157,"duration":0.13457218645832825},{"name":"E2","midi":40,"time":127.16227024999846,"velocity":0.5039370078740157,"duration":0.13457218645832825},{"name":"E2","midi":40,"time":127.29740549999845,"velocity":0.5039370078740157,"duration":0.13457218645832825},{"name":"G#3","midi":56,"time":127.29740549999845,"velocity":0.5039370078740157,"duration":0.13457218645832825},{"name":"E2","midi":40,"time":127.43254074999844,"velocity":0.5039370078740157,"duration":0.13457218645832825},{"name":"G3","midi":55,"time":127.56767599999843,"velocity":0.5039370078740157,"duration":0.13457218645832825},{"name":"E2","midi":40,"time":127.83794649999842,"velocity":0.5039370078740157,"duration":0.13457218645832825},{"name":"A#2","midi":46,"time":127.83794649999842,"velocity":0.5039370078740157,"duration":0.13457218645832825},{"name":"E2","midi":40,"time":127.97308174999841,"velocity":0.5039370078740157,"duration":0.13457218645834246},{"name":"E2","midi":40,"time":128.10821699999843,"velocity":0.5039370078740157,"duration":0.13457218645834246},{"name":"G#2","midi":44,"time":128.10821699999843,"velocity":0.5039370078740157,"duration":0.13457218645834246},{"name":"E2","midi":40,"time":128.24335224999845,"velocity":0.5039370078740157,"duration":0.13457218645834246},{"name":"E2","midi":40,"time":128.64875799999845,"velocity":0.5039370078740157,"duration":0.13457218645834246},{"name":"G#3","midi":56,"time":128.64875799999845,"velocity":0.5039370078740157,"duration":0.13457218645834246},{"name":"E2","midi":40,"time":128.78389324999847,"velocity":0.5039370078740157,"duration":0.13457218645834246},{"name":"E2","midi":40,"time":128.9190284999985,"velocity":0.5039370078740157,"duration":0.13457218645834246},{"name":"G#3","midi":56,"time":128.9190284999985,"velocity":0.5039370078740157,"duration":0.13457218645834246},{"name":"E2","midi":40,"time":129.0541637499985,"velocity":0.5039370078740157,"duration":0.13457218645834246},{"name":"G3","midi":55,"time":129.18929899999853,"velocity":0.5039370078740157,"duration":0.13457218645834246},{"name":"E2","midi":40,"time":129.45956949999854,"velocity":0.5039370078740157,"duration":0.13457218645834246},{"name":"E2","midi":40,"time":129.59470474999856,"velocity":0.5039370078740157,"duration":0.13457218645834246},{"name":"B1","midi":35,"time":129.72983999999857,"velocity":0.5039370078740157,"duration":0.13457218645834246},{"name":"E2","midi":40,"time":129.72983999999857,"velocity":0.5039370078740157,"duration":0.13457218645834246},{"name":"A#2","midi":46,"time":129.72983999999857,"velocity":0.5039370078740157,"duration":0.13457218645834246},{"name":"E2","midi":40,"time":129.8649752499986,"velocity":0.5039370078740157,"duration":0.13457218645834246},{"name":"G#2","midi":44,"time":130.0001104999986,"velocity":0.5039370078740157,"duration":0.13457218645834246},{"name":"E2","midi":40,"time":130.27038099999862,"velocity":0.5039370078740157,"duration":0.13457218645834246},{"name":"E2","midi":40,"time":130.40551624999864,"velocity":0.5039370078740157,"duration":0.13457218645834246},{"name":"E2","midi":40,"time":130.54065149999866,"velocity":0.5039370078740157,"duration":0.13457218645834246},{"name":"E2","midi":40,"time":130.67578674999868,"velocity":0.5039370078740157,"duration":0.13457218645834246},{"name":"E2","midi":40,"time":130.8109219999987,"velocity":0.5039370078740157,"duration":0.13457218645834246},{"name":"G#3","midi":56,"time":130.8109219999987,"velocity":0.5039370078740157,"duration":0.13457218645834246},{"name":"E2","midi":40,"time":130.94605724999872,"velocity":0.5039370078740157,"duration":0.13457218645834246},{"name":"E2","midi":40,"time":131.08119249999874,"velocity":0.5039370078740157,"duration":0.13457218645834246},{"name":"G#3","midi":56,"time":131.08119249999874,"velocity":0.5039370078740157,"duration":0.13457218645834246},{"name":"E2","midi":40,"time":131.21632774999875,"velocity":0.5039370078740157,"duration":0.13457218645834246},{"name":"G3","midi":55,"time":131.35146299999877,"velocity":0.5039370078740157,"duration":0.13457218645834246},{"name":"E2","midi":40,"time":131.62173349999878,"velocity":0.5039370078740157,"duration":0.13457218645834246},{"name":"A#2","midi":46,"time":131.62173349999878,"velocity":0.5039370078740157,"duration":0.13457218645834246},{"name":"E2","midi":40,"time":131.7568687499988,"velocity":0.5039370078740157,"duration":0.13457218645834246},{"name":"E2","midi":40,"time":131.89200399999882,"velocity":0.5039370078740157,"duration":0.13457218645834246},{"name":"G#2","midi":44,"time":131.89200399999882,"velocity":0.5039370078740157,"duration":0.13457218645834246},{"name":"E2","midi":40,"time":132.02713924999884,"velocity":0.5039370078740157,"duration":0.13457218645834246},{"name":"E2","midi":40,"time":132.43254499999884,"velocity":0.5039370078740157,"duration":0.13457218645834246},{"name":"G#3","midi":56,"time":132.43254499999884,"velocity":0.5039370078740157,"duration":0.13457218645834246},{"name":"E2","midi":40,"time":132.56768024999886,"velocity":0.5039370078740157,"duration":0.13457218645834246},{"name":"E2","midi":40,"time":132.70281549999888,"velocity":0.5039370078740157,"duration":0.13457218645834246},{"name":"G#3","midi":56,"time":132.70281549999888,"velocity":0.5039370078740157,"duration":0.13457218645834246},{"name":"E2","midi":40,"time":132.8379507499989,"velocity":0.5039370078740157,"duration":0.13457218645834246},{"name":"G3","midi":55,"time":132.97308599999891,"velocity":0.5039370078740157,"duration":0.13457218645834246},{"name":"E2","midi":40,"time":133.24335649999892,"velocity":0.5039370078740157,"duration":0.13457218645834246},{"name":"E2","midi":40,"time":133.37849174999894,"velocity":0.5039370078740157,"duration":0.13457218645834246},{"name":"B1","midi":35,"time":133.51362699999896,"velocity":0.5039370078740157,"duration":0.13457218645834246},{"name":"E2","midi":40,"time":133.51362699999896,"velocity":0.5039370078740157,"duration":0.13457218645834246},{"name":"A#2","midi":46,"time":133.51362699999896,"velocity":0.5039370078740157,"duration":0.13457218645834246},{"name":"E2","midi":40,"time":133.64876224999898,"velocity":0.5039370078740157,"duration":0.13457218645834246},{"name":"G#2","midi":44,"time":133.783897499999,"velocity":0.5039370078740157,"duration":0.13457218645834246},{"name":"E2","midi":40,"time":134.054167999999,"velocity":0.5039370078740157,"duration":0.13457218645834246},{"name":"E2","midi":40,"time":134.18930324999903,"velocity":0.5039370078740157,"duration":0.13457218645834246},{"name":"E2","midi":40,"time":134.32443849999905,"velocity":0.5039370078740157,"duration":0.13457218645834246},{"name":"E2","midi":40,"time":134.45957374999907,"velocity":0.5039370078740157,"duration":0.13457218645834246},{"name":"E2","midi":40,"time":134.59470899999909,"velocity":0.5039370078740157,"duration":0.13457218645834246},{"name":"G#3","midi":56,"time":134.59470899999909,"velocity":0.5039370078740157,"duration":0.13457218645834246},{"name":"E2","midi":40,"time":134.7298442499991,"velocity":0.5039370078740157,"duration":0.13457218645834246},{"name":"E2","midi":40,"time":134.86497949999912,"velocity":0.5039370078740157,"duration":0.13457218645834246},{"name":"G#3","midi":56,"time":134.86497949999912,"velocity":0.5039370078740157,"duration":0.13457218645834246},{"name":"E2","midi":40,"time":135.00011474999914,"velocity":0.5039370078740157,"duration":0.13457218645834246},{"name":"G3","midi":55,"time":135.13524999999916,"velocity":0.5039370078740157,"duration":0.13457218645834246},{"name":"E2","midi":40,"time":135.40552049999917,"velocity":0.5039370078740157,"duration":0.13457218645834246},{"name":"A#2","midi":46,"time":135.40552049999917,"velocity":0.5039370078740157,"duration":0.13457218645834246},{"name":"E2","midi":40,"time":135.5406557499992,"velocity":0.5039370078740157,"duration":0.13457218645834246},{"name":"E2","midi":40,"time":135.6757909999992,"velocity":0.5039370078740157,"duration":0.13457218645834246},{"name":"G#2","midi":44,"time":135.6757909999992,"velocity":0.5039370078740157,"duration":0.13457218645834246},{"name":"E2","midi":40,"time":135.81092624999923,"velocity":0.5039370078740157,"duration":0.13457218645834246},{"name":"E2","midi":40,"time":136.21633199999923,"velocity":0.5039370078740157,"duration":0.13457218645834246},{"name":"G#3","midi":56,"time":136.21633199999923,"velocity":0.5039370078740157,"duration":0.13457218645834246},{"name":"E2","midi":40,"time":136.35146724999925,"velocity":0.5039370078740157,"duration":0.13457218645834246},{"name":"E2","midi":40,"time":136.48660249999926,"velocity":0.5039370078740157,"duration":0.13457218645834246},{"name":"G#3","midi":56,"time":136.48660249999926,"velocity":0.5039370078740157,"duration":0.13457218645834246},{"name":"E2","midi":40,"time":136.62173774999928,"velocity":0.5039370078740157,"duration":0.13457218645834246},{"name":"G3","midi":55,"time":136.7568729999993,"velocity":0.5039370078740157,"duration":0.13457218645834246},{"name":"E2","midi":40,"time":137.0271434999993,"velocity":0.5039370078740157,"duration":0.13457218645834246},{"name":"E2","midi":40,"time":137.16227874999933,"velocity":0.5039370078740157,"duration":0.13457218645834246},{"name":"B1","midi":35,"time":137.29741399999935,"velocity":0.5039370078740157,"duration":0.13457218645834246},{"name":"E2","midi":40,"time":137.29741399999935,"velocity":0.5039370078740157,"duration":0.13457218645834246},{"name":"A#2","midi":46,"time":137.29741399999935,"velocity":0.5039370078740157,"duration":0.13457218645834246},{"name":"E2","midi":40,"time":137.43254924999937,"velocity":0.5039370078740157,"duration":0.13457218645834246},{"name":"G#2","midi":44,"time":137.5676844999994,"velocity":0.5039370078740157,"duration":0.13457218645834246},{"name":"E2","midi":40,"time":137.8379549999994,"velocity":0.5039370078740157,"duration":0.13457218645834246},{"name":"F5","midi":77,"time":137.8379549999994,"velocity":0.5039370078740157,"duration":0.13457218645834246},{"name":"E2","midi":40,"time":137.97309024999942,"velocity":0.5039370078740157,"duration":0.13457218645834246},{"name":"F5","midi":77,"time":137.97309024999942,"velocity":0.5039370078740157,"duration":0.13457218645834246},{"name":"E2","midi":40,"time":138.10822549999943,"velocity":0.5039370078740157,"duration":0.13457218645834246},{"name":"E2","midi":40,"time":138.24336074999945,"velocity":0.5039370078740157,"duration":0.13457218645834246},{"name":"B1","midi":35,"time":138.37849599999947,"velocity":0.5039370078740157,"duration":0.13457218645834246},{"name":"A3","midi":57,"time":138.37849599999947,"velocity":0.5039370078740157,"duration":0.13457218645834246},{"name":"G#3","midi":56,"time":138.64876649999948,"velocity":0.5039370078740157,"duration":0.13457218645834246},{"name":"B1","midi":35,"time":138.9190369999995,"velocity":0.5039370078740157,"duration":0.13457218645834246},{"name":"E2","midi":40,"time":138.9190369999995,"velocity":0.5039370078740157,"duration":0.13457218645834246},{"name":"G3","midi":55,"time":138.9190369999995,"velocity":0.5039370078740157,"duration":0.13457218645834246},{"name":"F4","midi":65,"time":138.9190369999995,"velocity":0.5039370078740157,"duration":0.13457218645834246},{"name":"E2","midi":40,"time":139.0541722499995,"velocity":0.5039370078740157,"duration":0.13457218645834246},{"name":"F4","midi":65,"time":139.0541722499995,"velocity":0.5039370078740157,"duration":0.13457218645834246},{"name":"B1","midi":35,"time":139.4595779999995,"velocity":0.5039370078740157,"duration":0.13457218645834246},{"name":"G#3","midi":56,"time":139.4595779999995,"velocity":0.5039370078740157,"duration":0.13457218645834246},{"name":"G3","midi":55,"time":139.72984849999952,"velocity":0.5039370078740157,"duration":0.13457218645834246},{"name":"B1","midi":35,"time":140.00011899999953,"velocity":0.5039370078740157,"duration":0.13457218645834246},{"name":"G#3","midi":56,"time":140.27038949999954,"velocity":0.5039370078740157,"duration":0.13457218645834246},{"name":"B1","midi":35,"time":140.54065999999955,"velocity":0.5039370078740157,"duration":0.13457218645834246},{"name":"E2","midi":40,"time":140.54065999999955,"velocity":0.5039370078740157,"duration":0.13457218645834246},{"name":"G3","midi":55,"time":140.54065999999955,"velocity":0.5039370078740157,"duration":0.13457218645834246},{"name":"F4","midi":65,"time":140.54065999999955,"velocity":0.5039370078740157,"duration":0.13457218645834246},{"name":"E2","midi":40,"time":140.67579524999957,"velocity":0.5039370078740157,"duration":0.13457218645834246},{"name":"F4","midi":65,"time":140.67579524999957,"velocity":0.5039370078740157,"duration":0.13457218645834246},{"name":"G3","midi":55,"time":140.94606574999958,"velocity":0.5039370078740157,"duration":0.13457218645834246},{"name":"B1","midi":35,"time":141.0812009999996,"velocity":0.5039370078740157,"duration":0.13457218645834246},{"name":"G3","midi":55,"time":141.0812009999996,"velocity":0.5039370078740157,"duration":0.13457218645834246},{"name":"G#3","midi":56,"time":141.3514714999996,"velocity":0.5039370078740157,"duration":0.13457218645834246},{"name":"B1","midi":35,"time":141.6217419999996,"velocity":0.5039370078740157,"duration":0.13457218645834246},{"name":"G4","midi":67,"time":141.6217419999996,"velocity":0.5039370078740157,"duration":0.13457218645834246},{"name":"G3","midi":55,"time":141.75687724999963,"velocity":0.5039370078740157,"duration":0.13457218645834246},{"name":"G4","midi":67,"time":141.89201249999965,"velocity":0.5039370078740157,"duration":0.13457218645834246},{"name":"E2","midi":40,"time":142.16228299999966,"velocity":0.5039370078740157,"duration":0.13457218645834246},{"name":"G#3","midi":56,"time":142.16228299999966,"velocity":0.5039370078740157,"duration":0.13457218645834246},{"name":"E2","midi":40,"time":142.29741824999968,"velocity":0.5039370078740157,"duration":0.13457218645834246},{"name":"E2","midi":40,"time":142.4325534999997,"velocity":0.5039370078740157,"duration":0.13457218645834246},{"name":"G#3","midi":56,"time":142.4325534999997,"velocity":0.5039370078740157,"duration":0.13457218645834246},{"name":"E2","midi":40,"time":142.56768874999972,"velocity":0.5039370078740157,"duration":0.13457218645834246},{"name":"G3","midi":55,"time":142.70282399999974,"velocity":0.5039370078740157,"duration":0.13457218645834246},{"name":"E2","midi":40,"time":142.97309449999975,"velocity":0.5039370078740157,"duration":0.13457218645834246},{"name":"A#2","midi":46,"time":142.97309449999975,"velocity":0.5039370078740157,"duration":0.13457218645834246},{"name":"E2","midi":40,"time":143.10822974999977,"velocity":0.5039370078740157,"duration":0.13457218645834246},{"name":"E2","midi":40,"time":143.24336499999978,"velocity":0.5039370078740157,"duration":0.13457218645834246},{"name":"G#2","midi":44,"time":143.24336499999978,"velocity":0.5039370078740157,"duration":0.13457218645834246},{"name":"E2","midi":40,"time":143.3785002499998,"velocity":0.5039370078740157,"duration":0.13457218645834246},{"name":"E2","midi":40,"time":143.7839059999998,"velocity":0.5039370078740157,"duration":0.13457218645834246},{"name":"G#3","midi":56,"time":143.7839059999998,"velocity":0.5039370078740157,"duration":0.13457218645834246},{"name":"E2","midi":40,"time":143.91904124999982,"velocity":0.5039370078740157,"duration":0.13457218645834246},{"name":"E2","midi":40,"time":144.05417649999984,"velocity":0.5039370078740157,"duration":0.13457218645834246},{"name":"G#3","midi":56,"time":144.05417649999984,"velocity":0.5039370078740157,"duration":0.13457218645834246},{"name":"E2","midi":40,"time":144.18931174999986,"velocity":0.5039370078740157,"duration":0.13457218645834246},{"name":"G3","midi":55,"time":144.32444699999988,"velocity":0.5039370078740157,"duration":0.13457218645834246},{"name":"E2","midi":40,"time":144.5947174999999,"velocity":0.5039370078740157,"duration":0.13457218645834246},{"name":"E2","midi":40,"time":144.7298527499999,"velocity":0.5039370078740157,"duration":0.13457218645834246},{"name":"B1","midi":35,"time":144.86498799999993,"velocity":0.5039370078740157,"duration":0.13457218645834246},{"name":"E2","midi":40,"time":144.86498799999993,"velocity":0.5039370078740157,"duration":0.13457218645834246},{"name":"A#2","midi":46,"time":144.86498799999993,"velocity":0.5039370078740157,"duration":0.13457218645834246},{"name":"E2","midi":40,"time":145.00012324999994,"velocity":0.5039370078740157,"duration":0.13457218645834246},{"name":"G#2","midi":44,"time":145.13525849999996,"velocity":0.5039370078740157,"duration":0.13457218645834246},{"name":"E2","midi":40,"time":145.40552899999997,"velocity":0.5039370078740157,"duration":0.13457218645834246},{"name":"F5","midi":77,"time":145.40552899999997,"velocity":0.5039370078740157,"duration":0.13457218645834246},{"name":"E2","midi":40,"time":145.54066425,"velocity":0.5039370078740157,"duration":0.13457218645834246},{"name":"F5","midi":77,"time":145.54066425,"velocity":0.5039370078740157,"duration":0.13457218645834246},{"name":"E2","midi":40,"time":145.6757995,"velocity":0.5039370078740157,"duration":0.13457218645834246},{"name":"E2","midi":40,"time":145.81093475000003,"velocity":0.5039370078740157,"duration":0.13457218645834246},{"name":"B1","midi":35,"time":145.94607000000005,"velocity":0.5039370078740157,"duration":0.13457218645834246},{"name":"A3","midi":57,"time":145.94607000000005,"velocity":0.5039370078740157,"duration":0.13457218645834246},{"name":"G#3","midi":56,"time":146.21634050000006,"velocity":0.5039370078740157,"duration":0.13457218645834246},{"name":"B1","midi":35,"time":146.48661100000007,"velocity":0.5039370078740157,"duration":0.13457218645834246},{"name":"E2","midi":40,"time":146.48661100000007,"velocity":0.5039370078740157,"duration":0.13457218645834246},{"name":"G3","midi":55,"time":146.48661100000007,"velocity":0.5039370078740157,"duration":0.13457218645834246},{"name":"F4","midi":65,"time":146.48661100000007,"velocity":0.5039370078740157,"duration":0.13457218645834246},{"name":"E2","midi":40,"time":146.6217462500001,"velocity":0.5039370078740157,"duration":0.13457218645834246},{"name":"F4","midi":65,"time":146.6217462500001,"velocity":0.5039370078740157,"duration":0.13457218645834246},{"name":"B1","midi":35,"time":147.0271520000001,"velocity":0.5039370078740157,"duration":0.13457218645834246},{"name":"G#3","midi":56,"time":147.0271520000001,"velocity":0.5039370078740157,"duration":0.13457218645834246},{"name":"G3","midi":55,"time":147.2974225000001,"velocity":0.5039370078740157,"duration":0.13457218645834246},{"name":"B1","midi":35,"time":147.5676930000001,"velocity":0.5039370078740157,"duration":0.13457218645834246},{"name":"G#3","midi":56,"time":147.83796350000011,"velocity":0.5039370078740157,"duration":0.13457218645834246},{"name":"B1","midi":35,"time":148.10823400000012,"velocity":0.5039370078740157,"duration":0.13457218645834246},{"name":"E2","midi":40,"time":148.10823400000012,"velocity":0.5039370078740157,"duration":0.13457218645834246},{"name":"G3","midi":55,"time":148.10823400000012,"velocity":0.5039370078740157,"duration":0.13457218645834246},{"name":"F4","midi":65,"time":148.10823400000012,"velocity":0.5039370078740157,"duration":0.13457218645834246},{"name":"E2","midi":40,"time":148.24336925000014,"velocity":0.5039370078740157,"duration":0.13457218645834246},{"name":"F4","midi":65,"time":148.24336925000014,"velocity":0.5039370078740157,"duration":0.13457218645834246},{"name":"G3","midi":55,"time":148.51363975000015,"velocity":0.5039370078740157,"duration":0.13457218645834246},{"name":"B1","midi":35,"time":148.64877500000017,"velocity":0.5039370078740157,"duration":0.13457218645834246},{"name":"G3","midi":55,"time":148.64877500000017,"velocity":0.5039370078740157,"duration":0.13457218645834246},{"name":"G#3","midi":56,"time":148.91904550000018,"velocity":0.5039370078740157,"duration":0.13457218645834246},{"name":"B1","midi":35,"time":149.1893160000002,"velocity":0.5039370078740157,"duration":0.13457218645834246},{"name":"G4","midi":67,"time":149.1893160000002,"velocity":0.5039370078740157,"duration":0.13457218645834246},{"name":"G3","midi":55,"time":149.3244512500002,"velocity":0.5039370078740157,"duration":0.13457218645834246},{"name":"G4","midi":67,"time":149.45958650000023,"velocity":0.5039370078740157,"duration":0.13457218645834246},{"name":"E2","midi":40,"time":149.72985700000024,"velocity":0.5039370078740157,"duration":0.13457218645834246},{"name":"G#3","midi":56,"time":149.72985700000024,"velocity":0.5039370078740157,"duration":0.13457218645834246},{"name":"E2","midi":40,"time":149.86499225000026,"velocity":0.5039370078740157,"duration":0.13457218645834246},{"name":"E2","midi":40,"time":150.00012750000027,"velocity":0.5039370078740157,"duration":0.13457218645834246},{"name":"G#3","midi":56,"time":150.00012750000027,"velocity":0.5039370078740157,"duration":0.13457218645834246},{"name":"E2","midi":40,"time":150.1352627500003,"velocity":0.5039370078740157,"duration":0.13457218645834246},{"name":"G3","midi":55,"time":150.2703980000003,"velocity":0.5039370078740157,"duration":0.13457218645834246},{"name":"E2","midi":40,"time":150.54066850000032,"velocity":0.5039370078740157,"duration":0.13457218645834246},{"name":"A#2","midi":46,"time":150.54066850000032,"velocity":0.5039370078740157,"duration":0.13457218645834246},{"name":"E2","midi":40,"time":150.67580375000034,"velocity":0.5039370078740157,"duration":0.13457218645834246},{"name":"E2","midi":40,"time":150.81093900000036,"velocity":0.5039370078740157,"duration":0.13457218645834246},{"name":"G#2","midi":44,"time":150.81093900000036,"velocity":0.5039370078740157,"duration":0.13457218645834246},{"name":"E2","midi":40,"time":150.94607425000038,"velocity":0.5039370078740157,"duration":0.13457218645834246},{"name":"E2","midi":40,"time":151.35148000000038,"velocity":0.5039370078740157,"duration":0.13457218645834246},{"name":"G#3","midi":56,"time":151.35148000000038,"velocity":0.5039370078740157,"duration":0.13457218645834246},{"name":"E2","midi":40,"time":151.4866152500004,"velocity":0.5039370078740157,"duration":0.13457218645834246},{"name":"E2","midi":40,"time":151.62175050000042,"velocity":0.5039370078740157,"duration":0.13457218645834246},{"name":"G#3","midi":56,"time":151.62175050000042,"velocity":0.5039370078740157,"duration":0.13457218645834246},{"name":"E2","midi":40,"time":151.75688575000044,"velocity":0.5039370078740157,"duration":0.13457218645834246},{"name":"G3","midi":55,"time":151.89202100000045,"velocity":0.5039370078740157,"duration":0.13457218645834246},{"name":"E2","midi":40,"time":152.16229150000046,"velocity":0.5039370078740157,"duration":0.13457218645834246},{"name":"E2","midi":40,"time":152.29742675000048,"velocity":0.5039370078740157,"duration":0.13457218645834246},{"name":"B1","midi":35,"time":152.4325620000005,"velocity":0.5039370078740157,"duration":0.13457218645834246},{"name":"E2","midi":40,"time":152.4325620000005,"velocity":0.5039370078740157,"duration":0.13457218645834246},{"name":"A#2","midi":46,"time":152.4325620000005,"velocity":0.5039370078740157,"duration":0.13457218645834246},{"name":"E2","midi":40,"time":152.56769725000052,"velocity":0.5039370078740157,"duration":0.13457218645834246},{"name":"G#2","midi":44,"time":152.70283250000054,"velocity":0.5039370078740157,"duration":0.13457218645834246},{"name":"F5","midi":77,"time":152.70283250000054,"velocity":0.5039370078740157,"duration":0.13457218645834246},{"name":"F5","midi":77,"time":152.83796775000056,"velocity":0.5039370078740157,"duration":0.13457218645834246},{"name":"E2","midi":40,"time":152.97310300000058,"velocity":0.5039370078740157,"duration":0.13457218645834246},{"name":"E2","midi":40,"time":153.1082382500006,"velocity":0.5039370078740157,"duration":0.13457218645834246},{"name":"E2","midi":40,"time":153.24337350000062,"velocity":0.5039370078740157,"duration":0.13457218645834246},{"name":"E2","midi":40,"time":153.37850875000063,"velocity":0.5039370078740157,"duration":0.13457218645834246},{"name":"B1","midi":35,"time":153.51364400000065,"velocity":0.5039370078740157,"duration":0.13457218645834246},{"name":"A3","midi":57,"time":153.51364400000065,"velocity":0.5039370078740157,"duration":0.13457218645834246},{"name":"F#2","midi":42,"time":153.78391450000066,"velocity":0.5039370078740157,"duration":0.13457218645834246},{"name":"F#2","midi":42,"time":153.91904975000068,"velocity":0.5039370078740157,"duration":0.13457218645834246},{"name":"E2","midi":40,"time":154.0541850000007,"velocity":0.5039370078740157,"duration":0.13457218645834246},{"name":"F#2","midi":42,"time":154.3244555000007,"velocity":0.5039370078740157,"duration":0.13457218645834246},{"name":"F#2","midi":42,"time":154.45959075000073,"velocity":0.5039370078740157,"duration":0.13457218645834246},{"name":"B1","midi":35,"time":154.59472600000075,"velocity":0.5039370078740157,"duration":0.13457218645834246},{"name":"F#2","midi":42,"time":154.59472600000075,"velocity":0.5039370078740157,"duration":0.13457218645834246},{"name":"F#2","midi":42,"time":154.72986125000077,"velocity":0.5039370078740157,"duration":0.13457218645834246},{"name":"E2","midi":40,"time":154.86499650000079,"velocity":0.5039370078740157,"duration":0.13457218645834246},{"name":"G#3","midi":56,"time":154.86499650000079,"velocity":0.5039370078740157,"duration":0.13457218645834246},{"name":"G#3","midi":56,"time":155.0001317500008,"velocity":0.5039370078740157,"duration":0.13457218645834246},{"name":"E2","midi":40,"time":155.13526700000082,"velocity":0.5039370078740157,"duration":0.13457218645834246},{"name":"G#3","midi":56,"time":155.13526700000082,"velocity":0.5039370078740157,"duration":0.13457218645834246},{"name":"E2","midi":40,"time":155.27040225000084,"velocity":0.5039370078740157,"duration":0.13457218645834246},{"name":"G#3","midi":56,"time":155.27040225000084,"velocity":0.5039370078740157,"duration":0.13457218645834246},{"name":"B1","midi":35,"time":155.67580800000084,"velocity":0.5039370078740157,"duration":0.13457218645834246},{"name":"F#2","midi":42,"time":155.67580800000084,"velocity":0.5039370078740157,"duration":0.13457218645834246},{"name":"F#2","midi":42,"time":155.81094325000086,"velocity":0.5039370078740157,"duration":0.13457218645834246},{"name":"F#2","midi":42,"time":155.94607850000088,"velocity":0.5039370078740157,"duration":0.13457218645834246},{"name":"E2","midi":40,"time":156.2163490000009,"velocity":0.5039370078740157,"duration":0.13457218645834246},{"name":"C#3","midi":49,"time":156.2163490000009,"velocity":0.5039370078740157,"duration":0.13457218645834246},{"name":"E2","midi":40,"time":156.6217547500009,"velocity":0.5039370078740157,"duration":0.13457218645834246},{"name":"F4","midi":65,"time":156.6217547500009,"velocity":0.5039370078740157,"duration":0.13457218645834246},{"name":"E2","midi":40,"time":156.7568900000009,"velocity":0.5039370078740157,"duration":0.13457218645834246},{"name":"F4","midi":65,"time":156.7568900000009,"velocity":0.5039370078740157,"duration":0.13457218645834246},{"name":"B1","midi":35,"time":156.89202525000093,"velocity":0.5039370078740157,"duration":0.13457218645834246},{"name":"A3","midi":57,"time":156.89202525000093,"velocity":0.5039370078740157,"duration":0.13457218645834246},{"name":"B1","midi":35,"time":157.29743100000093,"velocity":0.5039370078740157,"duration":0.13457218645834246},{"name":"F#2","midi":42,"time":157.56770150000094,"velocity":0.5039370078740157,"duration":0.13457218645834246},{"name":"F#2","midi":42,"time":157.70283675000096,"velocity":0.5039370078740157,"duration":0.13457218645834246},{"name":"E2","midi":40,"time":157.83797200000097,"velocity":0.5039370078740157,"duration":0.13457218645834246},{"name":"F#2","midi":42,"time":158.10824250000098,"velocity":0.5039370078740157,"duration":0.13457218645834246},{"name":"F#2","midi":42,"time":158.243377750001,"velocity":0.5039370078740157,"duration":0.13457218645834246},{"name":"B1","midi":35,"time":158.37851300000102,"velocity":0.5039370078740157,"duration":0.13457218645834246},{"name":"F#2","midi":42,"time":158.37851300000102,"velocity":0.5039370078740157,"duration":0.13457218645834246},{"name":"F#2","midi":42,"time":158.51364825000104,"velocity":0.5039370078740157,"duration":0.13457218645834246},{"name":"E2","midi":40,"time":158.64878350000106,"velocity":0.5039370078740157,"duration":0.13457218645834246},{"name":"G#3","midi":56,"time":158.64878350000106,"velocity":0.5039370078740157,"duration":0.13457218645834246},{"name":"G#3","midi":56,"time":158.78391875000108,"velocity":0.5039370078740157,"duration":0.13457218645834246},{"name":"E2","midi":40,"time":158.9190540000011,"velocity":0.5039370078740157,"duration":0.13457218645834246},{"name":"G#3","midi":56,"time":158.9190540000011,"velocity":0.5039370078740157,"duration":0.13457218645834246},{"name":"E2","midi":40,"time":159.05418925000112,"velocity":0.5039370078740157,"duration":0.13457218645834246},{"name":"G#3","midi":56,"time":159.05418925000112,"velocity":0.5039370078740157,"duration":0.13457218645834246},{"name":"B1","midi":35,"time":159.45959500000112,"velocity":0.5039370078740157,"duration":0.13457218645834246},{"name":"F#2","midi":42,"time":159.45959500000112,"velocity":0.5039370078740157,"duration":0.13457218645834246},{"name":"F#2","midi":42,"time":159.59473025000113,"velocity":0.5039370078740157,"duration":0.13457218645834246},{"name":"F#2","midi":42,"time":159.72986550000115,"velocity":0.5039370078740157,"duration":0.13457218645834246},{"name":"E2","midi":40,"time":160.00013600000116,"velocity":0.5039370078740157,"duration":0.13457218645834246},{"name":"C#3","midi":49,"time":160.00013600000116,"velocity":0.5039370078740157,"duration":0.13457218645834246},{"name":"E2","midi":40,"time":160.40554175000116,"velocity":0.5039370078740157,"duration":0.13457218645834246},{"name":"F4","midi":65,"time":160.40554175000116,"velocity":0.5039370078740157,"duration":0.13457218645834246},{"name":"E2","midi":40,"time":160.54067700000118,"velocity":0.5039370078740157,"duration":0.13457218645834246},{"name":"F4","midi":65,"time":160.54067700000118,"velocity":0.5039370078740157,"duration":0.13457218645834246},{"name":"B1","midi":35,"time":160.6758122500012,"velocity":0.5039370078740157,"duration":0.13457218645834246},{"name":"A3","midi":57,"time":160.6758122500012,"velocity":0.5039370078740157,"duration":0.13457218645834246},{"name":"B1","midi":35,"time":161.0812180000012,"velocity":0.5039370078740157,"duration":0.13457218645834246},{"name":"F#2","midi":42,"time":161.3514885000012,"velocity":0.5039370078740157,"duration":0.13457218645834246},{"name":"F#2","midi":42,"time":161.48662375000123,"velocity":0.5039370078740157,"duration":0.13457218645834246},{"name":"E2","midi":40,"time":161.62175900000125,"velocity":0.5039370078740157,"duration":0.13457218645834246},{"name":"F#2","midi":42,"time":161.89202950000126,"velocity":0.5039370078740157,"duration":0.13457218645834246},{"name":"F#2","midi":42,"time":162.02716475000128,"velocity":0.5039370078740157,"duration":0.13457218645834246},{"name":"B1","midi":35,"time":162.1623000000013,"velocity":0.5039370078740157,"duration":0.13457218645834246},{"name":"F#2","midi":42,"time":162.1623000000013,"velocity":0.5039370078740157,"duration":0.13457218645834246},{"name":"F#2","midi":42,"time":162.2974352500013,"velocity":0.5039370078740157,"duration":0.13457218645834246},{"name":"E2","midi":40,"time":162.43257050000133,"velocity":0.5039370078740157,"duration":0.13457218645834246},{"name":"G#3","midi":56,"time":162.43257050000133,"velocity":0.5039370078740157,"duration":0.13457218645834246},{"name":"G#3","midi":56,"time":162.56770575000135,"velocity":0.5039370078740157,"duration":0.13457218645834246},{"name":"E2","midi":40,"time":162.70284100000137,"velocity":0.5039370078740157,"duration":0.13457218645834246},{"name":"G#3","midi":56,"time":162.70284100000137,"velocity":0.5039370078740157,"duration":0.13457218645834246},{"name":"E2","midi":40,"time":162.8379762500014,"velocity":0.5039370078740157,"duration":0.13457218645834246},{"name":"G#3","midi":56,"time":162.8379762500014,"velocity":0.5039370078740157,"duration":0.13457218645834246},{"name":"B1","midi":35,"time":163.2433820000014,"velocity":0.5039370078740157,"duration":0.13457218645834246},{"name":"F#2","midi":42,"time":163.2433820000014,"velocity":0.5039370078740157,"duration":0.13457218645834246},{"name":"F#2","midi":42,"time":163.3785172500014,"velocity":0.5039370078740157,"duration":0.13457218645834246},{"name":"F#2","midi":42,"time":163.51365250000143,"velocity":0.5039370078740157,"duration":0.13457218645834246},{"name":"E2","midi":40,"time":163.78392300000144,"velocity":0.5039370078740157,"duration":0.13457218645834246},{"name":"C#3","midi":49,"time":163.78392300000144,"velocity":0.5039370078740157,"duration":0.13457218645834246},{"name":"E2","midi":40,"time":164.18932875000144,"velocity":0.5039370078740157,"duration":0.13457218645834246},{"name":"F4","midi":65,"time":164.18932875000144,"velocity":0.5039370078740157,"duration":0.13457218645834246},{"name":"E2","midi":40,"time":164.32446400000146,"velocity":0.5039370078740157,"duration":0.13457218645834246},{"name":"F4","midi":65,"time":164.32446400000146,"velocity":0.5039370078740157,"duration":0.13457218645834246},{"name":"B1","midi":35,"time":164.45959925000147,"velocity":0.5039370078740157,"duration":0.13457218645834246},{"name":"A3","midi":57,"time":164.45959925000147,"velocity":0.5039370078740157,"duration":0.13457218645834246},{"name":"B1","midi":35,"time":164.86500500000147,"velocity":0.5039370078740157,"duration":0.13457218645834246},{"name":"F#2","midi":42,"time":165.13527550000148,"velocity":0.5039370078740157,"duration":0.13457218645834246},{"name":"F#2","midi":42,"time":165.2704107500015,"velocity":0.5039370078740157,"duration":0.13457218645834246},{"name":"E2","midi":40,"time":165.40554600000152,"velocity":0.5039370078740157,"duration":0.13457218645834246},{"name":"F#2","midi":42,"time":165.67581650000153,"velocity":0.5039370078740157,"duration":0.13457218645834246},{"name":"F#2","midi":42,"time":165.81095175000155,"velocity":0.5039370078740157,"duration":0.13457218645834246},{"name":"B1","midi":35,"time":165.94608700000157,"velocity":0.5039370078740157,"duration":0.13457218645834246},{"name":"F#2","midi":42,"time":165.94608700000157,"velocity":0.5039370078740157,"duration":0.13457218645834246},{"name":"F#2","midi":42,"time":166.0812222500016,"velocity":0.5039370078740157,"duration":0.13457218645834246},{"name":"E2","midi":40,"time":166.2163575000016,"velocity":0.5039370078740157,"duration":0.13457218645834246},{"name":"G#3","midi":56,"time":166.2163575000016,"velocity":0.5039370078740157,"duration":0.13457218645834246},{"name":"G#3","midi":56,"time":166.35149275000163,"velocity":0.5039370078740157,"duration":0.13457218645834246},{"name":"E2","midi":40,"time":166.48662800000164,"velocity":0.5039370078740157,"duration":0.13457218645834246},{"name":"G#3","midi":56,"time":166.48662800000164,"velocity":0.5039370078740157,"duration":0.13457218645834246},{"name":"E2","midi":40,"time":166.62176325000166,"velocity":0.5039370078740157,"duration":0.13457218645834246},{"name":"G#3","midi":56,"time":166.62176325000166,"velocity":0.5039370078740157,"duration":0.13457218645834246},{"name":"B1","midi":35,"time":167.02716900000166,"velocity":0.5039370078740157,"duration":0.13457218645834246},{"name":"F#2","midi":42,"time":167.02716900000166,"velocity":0.5039370078740157,"duration":0.13457218645834246},{"name":"F#2","midi":42,"time":167.16230425000168,"velocity":0.5039370078740157,"duration":0.13457218645834246},{"name":"F#2","midi":42,"time":167.2974395000017,"velocity":0.5039370078740157,"duration":0.13457218645834246},{"name":"E2","midi":40,"time":167.5677100000017,"velocity":0.5039370078740157,"duration":0.13457218645834246},{"name":"C#3","midi":49,"time":167.5677100000017,"velocity":0.5039370078740157,"duration":0.13457218645834246},{"name":"E2","midi":40,"time":167.9731157500017,"velocity":0.5039370078740157,"duration":0.13457218645834246},{"name":"F4","midi":65,"time":167.9731157500017,"velocity":0.5039370078740157,"duration":0.13457218645834246},{"name":"E2","midi":40,"time":168.10825100000173,"velocity":0.5039370078740157,"duration":0.13457218645834246},{"name":"F4","midi":65,"time":168.10825100000173,"velocity":0.5039370078740157,"duration":0.13457218645834246},{"name":"B1","midi":35,"time":168.24338625000175,"velocity":0.5039370078740157,"duration":0.13457218645834246},{"name":"A3","midi":57,"time":168.24338625000175,"velocity":0.5039370078740157,"duration":0.13457218645834246},{"name":"G2","midi":43,"time":168.64879200000175,"velocity":0.5039370078740157,"duration":0.13457218645834246},{"name":"A2","midi":45,"time":168.64879200000175,"velocity":0.5039370078740157,"duration":0.13457218645834246},{"name":"G2","midi":43,"time":172.43257900000177,"velocity":0.5039370078740157,"duration":0.13457218645834246},{"name":"A2","midi":45,"time":172.43257900000177,"velocity":0.5039370078740157,"duration":0.13457218645834246},{"name":"G2","midi":43,"time":173.51366100000178,"velocity":0.5039370078740157,"duration":0.13457218645834246},{"name":"A2","midi":45,"time":173.51366100000178,"velocity":0.5039370078740157,"duration":0.13457218645834246},{"name":"G2","midi":43,"time":174.59474300000178,"velocity":0.5039370078740157,"duration":0.13457218645834246},{"name":"A2","midi":45,"time":174.59474300000178,"velocity":0.5039370078740157,"duration":0.13457218645834246},{"name":"F5","midi":77,"time":175.6758250000018,"velocity":0.5039370078740157,"duration":0.13457218645834246},{"name":"F5","midi":77,"time":175.8109602500018,"velocity":0.5039370078740157,"duration":0.13457218645834246},{"name":"G4","midi":67,"time":175.94609550000183,"velocity":0.5039370078740157,"duration":0.13457218645834246},{"name":"B1","midi":35,"time":176.21636600000184,"velocity":0.5039370078740157,"duration":0.13457218645834246},{"name":"A3","midi":57,"time":176.21636600000184,"velocity":0.5039370078740157,"duration":0.13457218645834246},{"name":"F#2","midi":42,"time":176.48663650000185,"velocity":0.5039370078740157,"duration":0.13457218645834246},{"name":"C#2","midi":37,"time":176.75690700000186,"velocity":0.5039370078740157,"duration":0.13457218645834246},{"name":"E2","midi":40,"time":176.75690700000186,"velocity":0.5039370078740157,"duration":0.13457218645834246},{"name":"F#2","midi":42,"time":177.02717750000187,"velocity":0.5039370078740157,"duration":0.26970743645833295},{"name":"C#2","midi":37,"time":177.29744800000188,"velocity":0.5039370078740157,"duration":0.13457218645834246},{"name":"F#2","midi":42,"time":177.5677185000019,"velocity":0.5039370078740157,"duration":0.26970743645833295},{"name":"C#2","midi":37,"time":177.8379890000019,"velocity":0.5039370078740157,"duration":0.13457218645834246},{"name":"E2","midi":40,"time":177.8379890000019,"velocity":0.5039370078740157,"duration":0.13457218645834246},{"name":"F#2","midi":42,"time":178.1082595000019,"velocity":0.5039370078740157,"duration":0.13457218645834246},{"name":"F#2","midi":42,"time":178.24339475000193,"velocity":0.5039370078740157,"duration":0.13457218645834246},{"name":"C#2","midi":37,"time":178.37853000000194,"velocity":0.5039370078740157,"duration":0.13457218645834246},{"name":"F#2","midi":42,"time":178.64880050000195,"velocity":0.5039370078740157,"duration":0.13457218645834246},{"name":"C#2","midi":37,"time":178.91907100000196,"velocity":0.5039370078740157,"duration":0.13457218645834246},{"name":"E2","midi":40,"time":178.91907100000196,"velocity":0.5039370078740157,"duration":0.13457218645834246},{"name":"F#2","midi":42,"time":179.18934150000197,"velocity":0.5039370078740157,"duration":0.13457218645834246},{"name":"C#2","midi":37,"time":179.45961200000198,"velocity":0.5039370078740157,"duration":0.13457218645834246},{"name":"G#3","midi":56,"time":179.729882500002,"velocity":0.5039370078740157,"duration":0.13457218645834246},{"name":"C#2","midi":37,"time":180.000153000002,"velocity":0.5039370078740157,"duration":0.13457218645834246},{"name":"E2","midi":40,"time":180.000153000002,"velocity":0.5039370078740157,"duration":0.13457218645834246},{"name":"F#2","midi":42,"time":180.270423500002,"velocity":0.5039370078740157,"duration":0.13457218645834246},{"name":"C#2","midi":37,"time":180.54069400000202,"velocity":0.5039370078740157,"duration":0.13457218645834246},{"name":"F#2","midi":42,"time":180.81096450000203,"velocity":0.5039370078740157,"duration":0.13457218645834246},{"name":"C#2","midi":37,"time":181.08123500000204,"velocity":0.5039370078740157,"duration":0.13457218645834246},{"name":"E2","midi":40,"time":181.08123500000204,"velocity":0.5039370078740157,"duration":0.13457218645834246},{"name":"E2","midi":40,"time":181.21637025000206,"velocity":0.023622047244094488,"duration":0.13457218645834246},{"name":"E2","midi":40,"time":181.35150550000208,"velocity":0.047244094488188976,"duration":0.13457218645834246},{"name":"F#2","midi":42,"time":181.35150550000208,"velocity":0.5039370078740157,"duration":0.13457218645834246},{"name":"E2","midi":40,"time":181.4866407500021,"velocity":0.07086614173228346,"duration":0.13457218645834246},{"name":"F#2","midi":42,"time":181.4866407500021,"velocity":0.5039370078740157,"duration":0.13457218645834246},{"name":"C#2","midi":37,"time":181.62177600000211,"velocity":0.5039370078740157,"duration":0.13457218645834246},{"name":"E2","midi":40,"time":181.62177600000211,"velocity":0.09448818897637795,"duration":0.13457218645834246},{"name":"E2","midi":40,"time":181.75691125000213,"velocity":0.11811023622047244,"duration":0.13457218645834246},{"name":"E2","midi":40,"time":181.89204650000215,"velocity":0.14173228346456693,"duration":0.13457218645834246},{"name":"F#2","midi":42,"time":181.89204650000215,"velocity":0.5039370078740157,"duration":0.13457218645834246},{"name":"E2","midi":40,"time":182.02718175000217,"velocity":0.16535433070866143,"duration":0.13457218645834246},{"name":"C#2","midi":37,"time":182.1623170000022,"velocity":0.5039370078740157,"duration":0.13457218645834246},{"name":"E2","midi":40,"time":182.1623170000022,"velocity":0.1889763779527559,"duration":0.13457218645834246},{"name":"E2","midi":40,"time":182.1623170000022,"velocity":0.5039370078740157,"duration":0.13457218645834246},{"name":"E2","midi":40,"time":182.2974522500022,"velocity":0.2125984251968504,"duration":0.13457218645834246},{"name":"E2","midi":40,"time":182.43258750000223,"velocity":0.23622047244094488,"duration":0.13457218645834246},{"name":"F#2","midi":42,"time":182.43258750000223,"velocity":0.5039370078740157,"duration":0.13457218645834246},{"name":"E2","midi":40,"time":182.56772275000225,"velocity":0.25984251968503935,"duration":0.13457218645834246},{"name":"C#2","midi":37,"time":182.70285800000227,"velocity":0.5039370078740157,"duration":0.13457218645834246},{"name":"E2","midi":40,"time":182.70285800000227,"velocity":0.28346456692913385,"duration":0.13457218645834246},{"name":"E2","midi":40,"time":182.83799325000228,"velocity":0.30708661417322836,"duration":0.13457218645834246},{"name":"E2","midi":40,"time":182.9731285000023,"velocity":0.33070866141732286,"duration":0.13457218645834246},{"name":"E2","midi":40,"time":183.10826375000232,"velocity":0.3543307086614173,"duration":0.13457218645834246},{"name":"C#2","midi":37,"time":183.24339900000234,"velocity":0.5039370078740157,"duration":0.13457218645834246},{"name":"E2","midi":40,"time":183.24339900000234,"velocity":0.3779527559055118,"duration":0.13457218645834246},{"name":"E2","midi":40,"time":183.37853425000236,"velocity":0.4015748031496063,"duration":0.13457218645834246},{"name":"E2","midi":40,"time":183.51366950000238,"velocity":0.4251968503937008,"duration":0.13457218645834246},{"name":"E2","midi":40,"time":183.6488047500024,"velocity":0.44881889763779526,"duration":0.13457218645834246},{"name":"B1","midi":35,"time":183.78394000000242,"velocity":0.5039370078740157,"duration":0.13457218645834246},{"name":"G#2","midi":44,"time":183.78394000000242,"velocity":0.5039370078740157,"duration":0.26970743645833295},{"name":"A3","midi":57,"time":183.78394000000242,"velocity":0.5039370078740157,"duration":0.13457218645834246},{"name":"B1","midi":35,"time":184.05421050000243,"velocity":0.5039370078740157,"duration":0.13457218645834246},{"name":"G#2","midi":44,"time":184.05421050000243,"velocity":0.5039370078740157,"duration":0.26970743645833295},{"name":"E2","midi":40,"time":184.32448100000244,"velocity":0.5039370078740157,"duration":0.13457218645834246},{"name":"G#2","midi":44,"time":184.32448100000244,"velocity":0.5039370078740157,"duration":0.26970743645833295},{"name":"G#2","midi":44,"time":184.59475150000245,"velocity":0.5039370078740157,"duration":0.26970743645833295},{"name":"B1","midi":35,"time":184.72988675000244,"velocity":0.5039370078740157,"duration":0.13457218645834246},{"name":"B1","midi":35,"time":184.86502200000245,"velocity":0.5039370078740157,"duration":0.26970743645833295},{"name":"G#2","midi":44,"time":184.86502200000245,"velocity":0.5039370078740157,"duration":0.26970743645833295},{"name":"B1","midi":35,"time":185.13529250000246,"velocity":0.5039370078740157,"duration":0.26970743645833295},{"name":"G#2","midi":44,"time":185.13529250000246,"velocity":0.5039370078740157,"duration":0.26970743645833295},{"name":"E2","midi":40,"time":185.40556300000247,"velocity":0.5039370078740157,"duration":0.13457218645834246},{"name":"G#2","midi":44,"time":185.40556300000247,"velocity":0.5039370078740157,"duration":0.26970743645836137},{"name":"B1","midi":35,"time":185.5406982500025,"velocity":0.5039370078740157,"duration":0.13457218645834246},{"name":"G#2","midi":44,"time":185.6758335000025,"velocity":0.5039370078740157,"duration":0.26970743645833295},{"name":"B1","midi":35,"time":185.94610400000252,"velocity":0.5039370078740157,"duration":0.13457218645834246},{"name":"G#2","midi":44,"time":185.94610400000252,"velocity":0.5039370078740157,"duration":0.26970743645833295},{"name":"B1","midi":35,"time":186.21637450000253,"velocity":0.5039370078740157,"duration":0.13457218645834246},{"name":"G#2","midi":44,"time":186.21637450000253,"velocity":0.5039370078740157,"duration":0.26970743645836137},{"name":"B1","midi":35,"time":186.35150975000255,"velocity":0.5039370078740157,"duration":0.13457218645834246},{"name":"E2","midi":40,"time":186.48664500000257,"velocity":0.5039370078740157,"duration":0.13457218645834246},{"name":"G#2","midi":44,"time":186.48664500000257,"velocity":0.5039370078740157,"duration":0.26970743645836137},{"name":"E2","midi":40,"time":186.6217802500026,"velocity":0.5039370078740157,"duration":0.13457218645834246},{"name":"B1","midi":35,"time":186.7569155000026,"velocity":0.5039370078740157,"duration":0.13457218645834246},{"name":"G#2","midi":44,"time":186.7569155000026,"velocity":0.5039370078740157,"duration":0.26970743645833295},{"name":"B1","midi":35,"time":187.02718600000262,"velocity":0.5039370078740157,"duration":0.13457218645834246},{"name":"G#2","midi":44,"time":187.02718600000262,"velocity":0.5039370078740157,"duration":0.26970743645836137},{"name":"B1","midi":35,"time":187.16232125000263,"velocity":0.5039370078740157,"duration":0.13457218645834246},{"name":"G#2","midi":44,"time":187.29745650000265,"velocity":0.5039370078740157,"duration":0.26970743645833295},{"name":"B1","midi":35,"time":187.43259175000264,"velocity":0.5039370078740157,"duration":0.13457218645834246},{"name":"B1","midi":35,"time":187.56772700000266,"velocity":0.5039370078740157,"duration":0.13457218645834246},{"name":"G#2","midi":44,"time":187.56772700000266,"velocity":0.5039370078740157,"duration":0.26970743645833295},{"name":"B1","midi":35,"time":187.83799750000267,"velocity":0.5039370078740157,"duration":0.13457218645834246},{"name":"G#2","midi":44,"time":187.83799750000267,"velocity":0.5039370078740157,"duration":0.26970743645833295},{"name":"E2","midi":40,"time":188.10826800000268,"velocity":0.5039370078740157,"duration":0.13457218645834246},{"name":"G#2","midi":44,"time":188.10826800000268,"velocity":0.5039370078740157,"duration":0.26970743645833295},{"name":"G#2","midi":44,"time":188.3785385000027,"velocity":0.5039370078740157,"duration":0.26970743645833295},{"name":"B1","midi":35,"time":188.51367375000268,"velocity":0.5039370078740157,"duration":0.13457218645834246},{"name":"B1","midi":35,"time":188.6488090000027,"velocity":0.5039370078740157,"duration":0.26970743645833295},{"name":"G#2","midi":44,"time":188.6488090000027,"velocity":0.5039370078740157,"duration":0.26970743645833295},{"name":"B1","midi":35,"time":188.9190795000027,"velocity":0.5039370078740157,"duration":0.26970743645833295},{"name":"G#2","midi":44,"time":188.9190795000027,"velocity":0.5039370078740157,"duration":0.26970743645833295},{"name":"E2","midi":40,"time":189.18935000000272,"velocity":0.5039370078740157,"duration":0.13457218645834246},{"name":"G#2","midi":44,"time":189.18935000000272,"velocity":0.5039370078740157,"duration":0.26970743645836137},{"name":"B1","midi":35,"time":189.32448525000274,"velocity":0.5039370078740157,"duration":0.13457218645834246},{"name":"G#2","midi":44,"time":189.45962050000276,"velocity":0.5039370078740157,"duration":0.26970743645833295},{"name":"B1","midi":35,"time":189.72989100000277,"velocity":0.5039370078740157,"duration":0.13457218645834246},{"name":"G#2","midi":44,"time":189.72989100000277,"velocity":0.5039370078740157,"duration":0.26970743645833295},{"name":"B1","midi":35,"time":190.00016150000278,"velocity":0.5039370078740157,"duration":0.13457218645834246},{"name":"G#2","midi":44,"time":190.00016150000278,"velocity":0.5039370078740157,"duration":0.26970743645836137},{"name":"B1","midi":35,"time":190.1352967500028,"velocity":0.5039370078740157,"duration":0.13457218645834246},{"name":"E2","midi":40,"time":190.2704320000028,"velocity":0.5039370078740157,"duration":0.13457218645834246},{"name":"G#2","midi":44,"time":190.2704320000028,"velocity":0.5039370078740157,"duration":0.26970743645836137},{"name":"E2","midi":40,"time":190.40556725000283,"velocity":0.5039370078740157,"duration":0.13457218645834246},{"name":"B1","midi":35,"time":190.54070250000285,"velocity":0.5039370078740157,"duration":0.13457218645834246},{"name":"G#2","midi":44,"time":190.54070250000285,"velocity":0.5039370078740157,"duration":0.26970743645833295},{"name":"B1","midi":35,"time":190.81097300000286,"velocity":0.5039370078740157,"duration":0.13457218645834246},{"name":"G#2","midi":44,"time":190.81097300000286,"velocity":0.5039370078740157,"duration":0.26970743645836137},{"name":"B1","midi":35,"time":190.94610825000288,"velocity":0.5039370078740157,"duration":0.13457218645834246},{"name":"G#2","midi":44,"time":191.0812435000029,"velocity":0.5039370078740157,"duration":0.26970743645833295},{"name":"B1","midi":35,"time":191.2163787500029,"velocity":0.5039370078740157,"duration":0.13457218645834246},{"name":"B1","midi":35,"time":191.3515140000029,"velocity":0.5039370078740157,"duration":0.13457218645834246},{"name":"G#2","midi":44,"time":191.3515140000029,"velocity":0.5039370078740157,"duration":0.26970743645836137},{"name":"F5","midi":77,"time":191.3515140000029,"velocity":0.5039370078740157,"duration":0.26970743645836137},{"name":"F5","midi":77,"time":191.48664925000293,"velocity":0.5039370078740157,"duration":0.13457218645834246},{"name":"B1","midi":35,"time":191.62178450000295,"velocity":0.5039370078740157,"duration":0.13457218645834246},{"name":"G#2","midi":44,"time":191.62178450000295,"velocity":0.5039370078740157,"duration":0.26970743645836137},{"name":"F5","midi":77,"time":191.62178450000295,"velocity":0.5039370078740157,"duration":0.13457218645834246},{"name":"F5","midi":77,"time":191.75691975000296,"velocity":0.5039370078740157,"duration":0.13457218645834246},{"name":"E2","midi":40,"time":191.89205500000298,"velocity":0.5039370078740157,"duration":0.13457218645834246},{"name":"G#2","midi":44,"time":191.89205500000298,"velocity":0.5039370078740157,"duration":0.26970743645833295},{"name":"G#2","midi":44,"time":192.162325500003,"velocity":0.5039370078740157,"duration":0.26970743645836137},{"name":"G3","midi":55,"time":192.162325500003,"velocity":0.5039370078740157,"duration":0.13457218645834246},{"name":"B1","midi":35,"time":192.297460750003,"velocity":0.5039370078740157,"duration":0.13457218645834246},{"name":"G3","midi":55,"time":192.297460750003,"velocity":0.5039370078740157,"duration":0.13457218645834246},{"name":"B1","midi":35,"time":192.43259600000303,"velocity":0.5039370078740157,"duration":0.26970743645833295},{"name":"G#2","midi":44,"time":192.43259600000303,"velocity":0.5039370078740157,"duration":0.26970743645833295},{"name":"B1","midi":35,"time":192.70286650000304,"velocity":0.5039370078740157,"duration":0.26970743645833295},{"name":"G#2","midi":44,"time":192.70286650000304,"velocity":0.5039370078740157,"duration":0.26970743645833295},{"name":"E2","midi":40,"time":192.97313700000305,"velocity":0.5039370078740157,"duration":0.13457218645834246},{"name":"G2","midi":43,"time":192.97313700000305,"velocity":0.5039370078740157,"duration":0.13457218645834246},{"name":"G#2","midi":44,"time":192.97313700000305,"velocity":0.5039370078740157,"duration":0.26970743645836137},{"name":"A2","midi":45,"time":192.97313700000305,"velocity":0.5039370078740157,"duration":0.13457218645834246},{"name":"B1","midi":35,"time":193.10827225000307,"velocity":0.5039370078740157,"duration":0.13457218645834246},{"name":"G#2","midi":44,"time":193.2434075000031,"velocity":0.5039370078740157,"duration":0.26970743645833295},{"name":"B1","midi":35,"time":193.5136780000031,"velocity":0.5039370078740157,"duration":0.13457218645834246},{"name":"G#2","midi":44,"time":193.5136780000031,"velocity":0.5039370078740157,"duration":0.26970743645833295},{"name":"B1","midi":35,"time":193.7839485000031,"velocity":0.5039370078740157,"duration":0.13457218645834246},{"name":"G#2","midi":44,"time":193.7839485000031,"velocity":0.5039370078740157,"duration":0.26970743645836137},{"name":"B1","midi":35,"time":193.91908375000313,"velocity":0.5039370078740157,"duration":0.13457218645834246},{"name":"E2","midi":40,"time":194.05421900000314,"velocity":0.5039370078740157,"duration":0.13457218645834246},{"name":"G#2","midi":44,"time":194.05421900000314,"velocity":0.5039370078740157,"duration":0.26970743645836137},{"name":"E2","midi":40,"time":194.18935425000316,"velocity":0.5039370078740157,"duration":0.13457218645834246},{"name":"B1","midi":35,"time":194.32448950000318,"velocity":0.5039370078740157,"duration":0.13457218645834246},{"name":"G#2","midi":44,"time":194.32448950000318,"velocity":0.5039370078740157,"duration":0.26970743645833295},{"name":"F5","midi":77,"time":194.32448950000318,"velocity":0.5039370078740157,"duration":0.13457218645834246},{"name":"B1","midi":35,"time":194.5947600000032,"velocity":0.5039370078740157,"duration":0.13457218645834246},{"name":"G#2","midi":44,"time":194.5947600000032,"velocity":0.5039370078740157,"duration":0.26970743645836137},{"name":"B1","midi":35,"time":194.7298952500032,"velocity":0.5039370078740157,"duration":0.13457218645834246},{"name":"F5","midi":77,"time":194.7298952500032,"velocity":0.5039370078740157,"duration":0.13457218645834246},{"name":"G#2","midi":44,"time":194.86503050000323,"velocity":0.5039370078740157,"duration":0.26970743645833295},{"name":"B1","midi":35,"time":195.00016575000322,"velocity":0.5039370078740157,"duration":0.13457218645834246},{"name":"B1","midi":35,"time":195.13530100000324,"velocity":0.5039370078740157,"duration":0.13457218645834246},{"name":"G#2","midi":44,"time":195.13530100000324,"velocity":0.5039370078740157,"duration":0.26970743645836137},{"name":"F5","midi":77,"time":195.13530100000324,"velocity":0.5039370078740157,"duration":0.13457218645834246},{"name":"F5","midi":77,"time":195.27043625000326,"velocity":0.5039370078740157,"duration":0.13457218645834246},{"name":"B1","midi":35,"time":195.40557150000328,"velocity":0.5039370078740157,"duration":0.13457218645834246},{"name":"G#2","midi":44,"time":195.40557150000328,"velocity":0.5039370078740157,"duration":0.26970743645836137},{"name":"F5","midi":77,"time":195.40557150000328,"velocity":0.5039370078740157,"duration":0.13457218645834246},{"name":"F5","midi":77,"time":195.5407067500033,"velocity":0.5039370078740157,"duration":0.13457218645834246},{"name":"E2","midi":40,"time":195.6758420000033,"velocity":0.5039370078740157,"duration":0.13457218645834246},{"name":"G#2","midi":44,"time":195.6758420000033,"velocity":0.5039370078740157,"duration":0.26970743645833295},{"name":"G#2","midi":44,"time":195.94611250000332,"velocity":0.5039370078740157,"duration":0.26970743645836137},{"name":"G3","midi":55,"time":195.94611250000332,"velocity":0.5039370078740157,"duration":0.13457218645834246},{"name":"B1","midi":35,"time":196.08124775000334,"velocity":0.5039370078740157,"duration":0.13457218645834246},{"name":"G3","midi":55,"time":196.08124775000334,"velocity":0.5039370078740157,"duration":0.13457218645834246},{"name":"B1","midi":35,"time":196.21638300000336,"velocity":0.5039370078740157,"duration":0.26970743645833295},{"name":"G#2","midi":44,"time":196.21638300000336,"velocity":0.5039370078740157,"duration":0.26970743645833295},{"name":"B1","midi":35,"time":196.48665350000337,"velocity":0.5039370078740157,"duration":0.26970743645833295},{"name":"G#2","midi":44,"time":196.48665350000337,"velocity":0.5039370078740157,"duration":0.26970743645833295},{"name":"E2","midi":40,"time":196.75692400000338,"velocity":0.5039370078740157,"duration":0.13457218645834246},{"name":"G2","midi":43,"time":196.75692400000338,"velocity":0.5039370078740157,"duration":0.13457218645834246},{"name":"G#2","midi":44,"time":196.75692400000338,"velocity":0.5039370078740157,"duration":0.26970743645836137},{"name":"A2","midi":45,"time":196.75692400000338,"velocity":0.5039370078740157,"duration":0.13457218645834246},{"name":"B1","midi":35,"time":196.8920592500034,"velocity":0.5039370078740157,"duration":0.13457218645834246},{"name":"G#2","midi":44,"time":197.02719450000342,"velocity":0.5039370078740157,"duration":0.26970743645833295},{"name":"B1","midi":35,"time":197.29746500000343,"velocity":0.5039370078740157,"duration":0.13457218645834246},{"name":"G#2","midi":44,"time":197.29746500000343,"velocity":0.5039370078740157,"duration":0.26970743645833295},{"name":"B1","midi":35,"time":197.56773550000344,"velocity":0.5039370078740157,"duration":0.13457218645834246},{"name":"G#2","midi":44,"time":197.56773550000344,"velocity":0.5039370078740157,"duration":0.26970743645836137},{"name":"B1","midi":35,"time":197.70287075000346,"velocity":0.5039370078740157,"duration":0.13457218645834246},{"name":"E2","midi":40,"time":197.83800600000347,"velocity":0.5039370078740157,"duration":0.13457218645834246},{"name":"G#2","midi":44,"time":197.83800600000347,"velocity":0.5039370078740157,"duration":0.26970743645836137},{"name":"E2","midi":40,"time":197.9731412500035,"velocity":0.5039370078740157,"duration":0.13457218645834246},{"name":"B1","midi":35,"time":198.1082765000035,"velocity":0.5039370078740157,"duration":0.13457218645834246},{"name":"G#2","midi":44,"time":198.1082765000035,"velocity":0.5039370078740157,"duration":0.26970743645833295},{"name":"F5","midi":77,"time":198.1082765000035,"velocity":0.5039370078740157,"duration":0.13457218645834246},{"name":"B1","midi":35,"time":198.37854700000352,"velocity":0.5039370078740157,"duration":0.13457218645834246},{"name":"G#2","midi":44,"time":198.37854700000352,"velocity":0.5039370078740157,"duration":0.26970743645836137},{"name":"B1","midi":35,"time":198.51368225000354,"velocity":0.5039370078740157,"duration":0.13457218645834246},{"name":"F5","midi":77,"time":198.51368225000354,"velocity":0.5039370078740157,"duration":0.13457218645834246},{"name":"G#2","midi":44,"time":198.64881750000356,"velocity":0.5039370078740157,"duration":0.26970743645833295},{"name":"B1","midi":35,"time":198.78395275000355,"velocity":0.5039370078740157,"duration":0.13457218645834246},{"name":"B1","midi":35,"time":198.91908800000357,"velocity":0.5039370078740157,"duration":0.13457218645834246},{"name":"F#2","midi":42,"time":199.18935850000358,"velocity":0.5039370078740157,"duration":0.13457218645834246},{"name":"F#2","midi":42,"time":199.3244937500036,"velocity":0.5039370078740157,"duration":0.13457218645834246},{"name":"E2","midi":40,"time":199.45962900000362,"velocity":0.5039370078740157,"duration":0.13457218645834246},{"name":"F#2","midi":42,"time":199.72989950000363,"velocity":0.5039370078740157,"duration":0.13457218645834246},{"name":"F#2","midi":42,"time":199.86503475000364,"velocity":0.5039370078740157,"duration":0.13457218645834246},{"name":"B1","midi":35,"time":200.00017000000366,"velocity":0.5039370078740157,"duration":0.13457218645834246},{"name":"F#2","midi":42,"time":200.00017000000366,"velocity":0.5039370078740157,"duration":0.13457218645834246},{"name":"F#2","midi":42,"time":200.13530525000368,"velocity":0.5039370078740157,"duration":0.13457218645834246},{"name":"E2","midi":40,"time":200.2704405000037,"velocity":0.5039370078740157,"duration":0.13457218645834246},{"name":"G#3","midi":56,"time":200.2704405000037,"velocity":0.5039370078740157,"duration":0.13457218645834246},{"name":"G#3","midi":56,"time":200.40557575000372,"velocity":0.5039370078740157,"duration":0.13457218645834246},{"name":"E2","midi":40,"time":200.54071100000374,"velocity":0.5039370078740157,"duration":0.13457218645834246},{"name":"G#3","midi":56,"time":200.54071100000374,"velocity":0.5039370078740157,"duration":0.13457218645834246},{"name":"E2","midi":40,"time":200.67584625000376,"velocity":0.5039370078740157,"duration":0.13457218645834246},{"name":"G#3","midi":56,"time":200.67584625000376,"velocity":0.5039370078740157,"duration":0.13457218645834246},{"name":"B1","midi":35,"time":201.08125200000376,"velocity":0.5039370078740157,"duration":0.13457218645834246},{"name":"F#2","midi":42,"time":201.08125200000376,"velocity":0.5039370078740157,"duration":0.13457218645834246},{"name":"F#2","midi":42,"time":201.21638725000378,"velocity":0.5039370078740157,"duration":0.13457218645834246},{"name":"F#2","midi":42,"time":201.3515225000038,"velocity":0.5039370078740157,"duration":0.13457218645834246},{"name":"E2","midi":40,"time":201.6217930000038,"velocity":0.5039370078740157,"duration":0.13457218645834246},{"name":"C#3","midi":49,"time":201.6217930000038,"velocity":0.5039370078740157,"duration":0.13457218645834246},{"name":"E2","midi":40,"time":202.0271987500038,"velocity":0.5039370078740157,"duration":0.13457218645834246},{"name":"F4","midi":65,"time":202.0271987500038,"velocity":0.5039370078740157,"duration":0.13457218645834246},{"name":"E2","midi":40,"time":202.16233400000382,"velocity":0.5039370078740157,"duration":0.13457218645834246},{"name":"F4","midi":65,"time":202.16233400000382,"velocity":0.5039370078740157,"duration":0.13457218645834246},{"name":"B1","midi":35,"time":202.29746925000384,"velocity":0.5039370078740157,"duration":0.13457218645834246},{"name":"A3","midi":57,"time":202.29746925000384,"velocity":0.5039370078740157,"duration":0.13457218645834246},{"name":"B1","midi":35,"time":202.70287500000384,"velocity":0.5039370078740157,"duration":0.13457218645834246},{"name":"F#2","midi":42,"time":202.97314550000385,"velocity":0.5039370078740157,"duration":0.13457218645834246},{"name":"F#2","midi":42,"time":203.10828075000387,"velocity":0.5039370078740157,"duration":0.13457218645834246},{"name":"E2","midi":40,"time":203.2434160000039,"velocity":0.5039370078740157,"duration":0.13457218645834246},{"name":"F#2","midi":42,"time":203.5136865000039,"velocity":0.5039370078740157,"duration":0.13457218645834246},{"name":"F#2","midi":42,"time":203.64882175000392,"velocity":0.5039370078740157,"duration":0.13457218645834246},{"name":"B1","midi":35,"time":203.78395700000394,"velocity":0.5039370078740157,"duration":0.13457218645834246},{"name":"F#2","midi":42,"time":203.78395700000394,"velocity":0.5039370078740157,"duration":0.13457218645834246},{"name":"F#2","midi":42,"time":203.91909225000396,"velocity":0.5039370078740157,"duration":0.13457218645834246},{"name":"E2","midi":40,"time":204.05422750000398,"velocity":0.5039370078740157,"duration":0.13457218645834246},{"name":"G#3","midi":56,"time":204.05422750000398,"velocity":0.5039370078740157,"duration":0.13457218645834246},{"name":"G#3","midi":56,"time":204.189362750004,"velocity":0.5039370078740157,"duration":0.13457218645834246},{"name":"E2","midi":40,"time":204.324498000004,"velocity":0.5039370078740157,"duration":0.13457218645834246},{"name":"G#3","midi":56,"time":204.324498000004,"velocity":0.5039370078740157,"duration":0.13457218645834246},{"name":"E2","midi":40,"time":204.45963325000403,"velocity":0.5039370078740157,"duration":0.13457218645834246},{"name":"G#3","midi":56,"time":204.45963325000403,"velocity":0.5039370078740157,"duration":0.13457218645834246},{"name":"B1","midi":35,"time":204.86503900000403,"velocity":0.5039370078740157,"duration":0.13457218645834246},{"name":"F#2","midi":42,"time":204.86503900000403,"velocity":0.5039370078740157,"duration":0.13457218645834246},{"name":"F#2","midi":42,"time":205.00017425000405,"velocity":0.5039370078740157,"duration":0.13457218645834246},{"name":"F#2","midi":42,"time":205.13530950000407,"velocity":0.5039370078740157,"duration":0.13457218645834246},{"name":"E2","midi":40,"time":205.40558000000408,"velocity":0.5039370078740157,"duration":0.13457218645834246},{"name":"C#3","midi":49,"time":205.40558000000408,"velocity":0.5039370078740157,"duration":0.13457218645834246},{"name":"E2","midi":40,"time":205.81098575000408,"velocity":0.5039370078740157,"duration":0.13457218645834246},{"name":"F4","midi":65,"time":205.81098575000408,"velocity":0.5039370078740157,"duration":0.13457218645834246},{"name":"E2","midi":40,"time":205.9461210000041,"velocity":0.5039370078740157,"duration":0.13457218645834246},{"name":"F4","midi":65,"time":205.9461210000041,"velocity":0.5039370078740157,"duration":0.13457218645834246},{"name":"B1","midi":35,"time":206.08125625000412,"velocity":0.5039370078740157,"duration":0.13457218645834246},{"name":"A3","midi":57,"time":206.08125625000412,"velocity":0.5039370078740157,"duration":0.13457218645834246},{"name":"B1","midi":35,"time":206.48666200000412,"velocity":0.5039370078740157,"duration":0.13457218645834246},{"name":"F#2","midi":42,"time":206.75693250000413,"velocity":0.5039370078740157,"duration":0.13457218645834246},{"name":"F#2","midi":42,"time":206.89206775000414,"velocity":0.5039370078740157,"duration":0.13457218645834246},{"name":"E2","midi":40,"time":207.02720300000416,"velocity":0.5039370078740157,"duration":0.13457218645834246},{"name":"F#2","midi":42,"time":207.29747350000417,"velocity":0.5039370078740157,"duration":0.13457218645834246},{"name":"F#2","midi":42,"time":207.4326087500042,"velocity":0.5039370078740157,"duration":0.13457218645834246},{"name":"B1","midi":35,"time":207.5677440000042,"velocity":0.5039370078740157,"duration":0.13457218645834246},{"name":"F#2","midi":42,"time":207.5677440000042,"velocity":0.5039370078740157,"duration":0.13457218645834246},{"name":"F#2","midi":42,"time":207.70287925000423,"velocity":0.5039370078740157,"duration":0.13457218645834246},{"name":"E2","midi":40,"time":207.83801450000425,"velocity":0.5039370078740157,"duration":0.13457218645834246},{"name":"G#3","midi":56,"time":207.83801450000425,"velocity":0.5039370078740157,"duration":0.13457218645834246},{"name":"G#3","midi":56,"time":207.97314975000427,"velocity":0.5039370078740157,"duration":0.13457218645834246},{"name":"E2","midi":40,"time":208.1082850000043,"velocity":0.5039370078740157,"duration":0.13457218645834246},{"name":"G#3","midi":56,"time":208.1082850000043,"velocity":0.5039370078740157,"duration":0.13457218645834246},{"name":"E2","midi":40,"time":208.2434202500043,"velocity":0.5039370078740157,"duration":0.13457218645834246},{"name":"G#3","midi":56,"time":208.2434202500043,"velocity":0.5039370078740157,"duration":0.13457218645834246},{"name":"B1","midi":35,"time":208.6488260000043,"velocity":0.5039370078740157,"duration":0.13457218645834246},{"name":"F#2","midi":42,"time":208.6488260000043,"velocity":0.5039370078740157,"duration":0.13457218645834246},{"name":"F#2","midi":42,"time":208.78396125000432,"velocity":0.5039370078740157,"duration":0.13457218645834246},{"name":"F#2","midi":42,"time":208.91909650000434,"velocity":0.5039370078740157,"duration":0.13457218645834246},{"name":"E2","midi":40,"time":209.18936700000435,"velocity":0.5039370078740157,"duration":0.13457218645834246},{"name":"C#3","midi":49,"time":209.18936700000435,"velocity":0.5039370078740157,"duration":0.13457218645834246},{"name":"E2","midi":40,"time":209.59477275000435,"velocity":0.5039370078740157,"duration":0.13457218645834246},{"name":"F4","midi":65,"time":209.59477275000435,"velocity":0.5039370078740157,"duration":0.13457218645834246},{"name":"E2","midi":40,"time":209.72990800000437,"velocity":0.5039370078740157,"duration":0.13457218645834246},{"name":"F4","midi":65,"time":209.72990800000437,"velocity":0.5039370078740157,"duration":0.13457218645834246},{"name":"B1","midi":35,"time":209.8650432500044,"velocity":0.5039370078740157,"duration":0.13457218645834246},{"name":"A3","midi":57,"time":209.8650432500044,"velocity":0.5039370078740157,"duration":0.13457218645834246},{"name":"B1","midi":35,"time":210.2704490000044,"velocity":0.5039370078740157,"duration":0.13457218645834246},{"name":"F#2","midi":42,"time":210.5407195000044,"velocity":0.5039370078740157,"duration":0.13457218645834246},{"name":"F#2","midi":42,"time":210.67585475000442,"velocity":0.5039370078740157,"duration":0.13457218645834246},{"name":"E2","midi":40,"time":210.81099000000444,"velocity":0.5039370078740157,"duration":0.13457218645834246},{"name":"F#2","midi":42,"time":211.08126050000445,"velocity":0.5039370078740157,"duration":0.13457218645834246},{"name":"F#2","midi":42,"time":211.21639575000447,"velocity":0.5039370078740157,"duration":0.13457218645834246},{"name":"B1","midi":35,"time":211.35153100000448,"velocity":0.5039370078740157,"duration":0.13457218645834246},{"name":"F#2","midi":42,"time":211.35153100000448,"velocity":0.5039370078740157,"duration":0.13457218645834246},{"name":"F#2","midi":42,"time":211.4866662500045,"velocity":0.5039370078740157,"duration":0.13457218645834246},{"name":"E2","midi":40,"time":211.62180150000452,"velocity":0.5039370078740157,"duration":0.13457218645834246},{"name":"G#3","midi":56,"time":211.62180150000452,"velocity":0.5039370078740157,"duration":0.13457218645834246},{"name":"G#3","midi":56,"time":211.75693675000454,"velocity":0.5039370078740157,"duration":0.13457218645834246},{"name":"E2","midi":40,"time":211.89207200000456,"velocity":0.5039370078740157,"duration":0.13457218645834246},{"name":"G#3","midi":56,"time":211.89207200000456,"velocity":0.5039370078740157,"duration":0.13457218645834246},{"name":"E2","midi":40,"time":212.02720725000458,"velocity":0.5039370078740157,"duration":0.13457218645834246},{"name":"G#3","midi":56,"time":212.02720725000458,"velocity":0.5039370078740157,"duration":0.13457218645834246},{"name":"B1","midi":35,"time":212.43261300000458,"velocity":0.5039370078740157,"duration":0.13457218645834246},{"name":"F#2","midi":42,"time":212.43261300000458,"velocity":0.5039370078740157,"duration":0.13457218645834246},{"name":"F#2","midi":42,"time":212.5677482500046,"velocity":0.5039370078740157,"duration":0.13457218645834246},{"name":"F#2","midi":42,"time":212.70288350000462,"velocity":0.5039370078740157,"duration":0.13457218645834246},{"name":"E2","midi":40,"time":212.97315400000463,"velocity":0.5039370078740157,"duration":0.13457218645834246},{"name":"C#3","midi":49,"time":212.97315400000463,"velocity":0.5039370078740157,"duration":0.13457218645834246},{"name":"E2","midi":40,"time":213.37855975000463,"velocity":0.5039370078740157,"duration":0.13457218645834246},{"name":"F4","midi":65,"time":213.37855975000463,"velocity":0.5039370078740157,"duration":0.13457218645834246},{"name":"E2","midi":40,"time":213.51369500000465,"velocity":0.5039370078740157,"duration":0.13457218645834246},{"name":"F4","midi":65,"time":213.51369500000465,"velocity":0.5039370078740157,"duration":0.13457218645834246},{"name":"B1","midi":35,"time":213.64883025000466,"velocity":0.5039370078740157,"duration":0.13457218645834246},{"name":"A3","midi":57,"time":213.64883025000466,"velocity":0.5039370078740157,"duration":0.13457218645834246},{"name":"G2","midi":43,"time":214.05423600000466,"velocity":0.5039370078740157,"duration":0.13457218645834246},{"name":"A2","midi":45,"time":214.05423600000466,"velocity":0.5039370078740157,"duration":0.13457218645834246},{"name":"B1","midi":35,"time":214.59477700000468,"velocity":0.5039370078740157,"duration":0.13457218645834246},{"name":"G#3","midi":56,"time":214.59477700000468,"velocity":0.5039370078740157,"duration":0.13457218645834246},{"name":"G4","midi":67,"time":214.8650475000047,"velocity":0.5039370078740157,"duration":0.13457218645834246},{"name":"E2","midi":40,"time":215.1353180000047,"velocity":0.5039370078740157,"duration":0.13457218645834246},{"name":"G#3","midi":56,"time":215.1353180000047,"velocity":0.5039370078740157,"duration":0.13457218645834246},{"name":"B1","midi":35,"time":215.67585900000472,"velocity":0.5039370078740157,"duration":0.13457218645834246},{"name":"G#3","midi":56,"time":215.67585900000472,"velocity":0.5039370078740157,"duration":0.13457218645834246},{"name":"B1","midi":35,"time":215.94612950000473,"velocity":0.5039370078740157,"duration":0.26970743645833295},{"name":"E2","midi":40,"time":216.21640000000474,"velocity":0.5039370078740157,"duration":0.13457218645834246},{"name":"G#3","midi":56,"time":216.21640000000474,"velocity":0.5039370078740157,"duration":0.13457218645834246},{"name":"B1","midi":35,"time":216.75694100000476,"velocity":0.5039370078740157,"duration":0.26970743645833295},{"name":"G#3","midi":56,"time":216.75694100000476,"velocity":0.5039370078740157,"duration":0.13457218645834246},{"name":"B1","midi":35,"time":217.02721150000477,"velocity":0.5039370078740157,"duration":0.26970743645833295},{"name":"A#2","midi":46,"time":217.02721150000477,"velocity":0.5039370078740157,"duration":0.13457218645834246},{"name":"E2","midi":40,"time":217.29748200000478,"velocity":0.5039370078740157,"duration":0.13457218645834246},{"name":"G#2","midi":44,"time":217.29748200000478,"velocity":0.5039370078740157,"duration":0.13457218645834246},{"name":"G#3","midi":56,"time":217.29748200000478,"velocity":0.5039370078740157,"duration":0.13457218645834246},{"name":"E2","midi":40,"time":217.4326172500048,"velocity":0.5039370078740157,"duration":0.13457218645834246},{"name":"E2","midi":40,"time":217.7028877500048,"velocity":0.5039370078740157,"duration":0.13457218645834246},{"name":"B1","midi":35,"time":217.83802300000482,"velocity":0.5039370078740157,"duration":0.26970743645833295},{"name":"G#3","midi":56,"time":217.83802300000482,"velocity":0.5039370078740157,"duration":0.13457218645834246},{"name":"B1","midi":35,"time":218.10829350000483,"velocity":0.5039370078740157,"duration":0.26970743645833295},{"name":"E2","midi":40,"time":218.37856400000484,"velocity":0.5039370078740157,"duration":0.13457218645834246},{"name":"G#3","midi":56,"time":218.37856400000484,"velocity":0.5039370078740157,"duration":0.13457218645834246},{"name":"G4","midi":67,"time":218.64883450000485,"velocity":0.5039370078740157,"duration":0.13457218645834246},{"name":"B1","midi":35,"time":218.91910500000486,"velocity":0.5039370078740157,"duration":0.26970743645833295},{"name":"G#3","midi":56,"time":218.91910500000486,"velocity":0.5039370078740157,"duration":0.13457218645834246},{"name":"B1","midi":35,"time":219.18937550000487,"velocity":0.5039370078740157,"duration":0.26970743645833295},{"name":"E2","midi":40,"time":219.45964600000488,"velocity":0.5039370078740157,"duration":0.13457218645834246},{"name":"G#3","midi":56,"time":219.45964600000488,"velocity":0.5039370078740157,"duration":0.13457218645834246},{"name":"B1","midi":35,"time":220.0001870000049,"velocity":0.5039370078740157,"duration":0.26970743645833295},{"name":"G#3","midi":56,"time":220.0001870000049,"velocity":0.5039370078740157,"duration":0.13457218645834246},{"name":"B1","midi":35,"time":220.2704575000049,"velocity":0.5039370078740157,"duration":0.26970743645833295},{"name":"E2","midi":40,"time":220.54072800000492,"velocity":0.5039370078740157,"duration":0.13457218645834246},{"name":"G#3","midi":56,"time":220.54072800000492,"velocity":0.5039370078740157,"duration":0.13457218645834246},{"name":"A3","midi":57,"time":220.81099850000493,"velocity":0.5039370078740157,"duration":0.13457218645834246},{"name":"B1","midi":35,"time":221.08126900000494,"velocity":0.5039370078740157,"duration":0.26970743645833295},{"name":"G#3","midi":56,"time":221.08126900000494,"velocity":0.5039370078740157,"duration":0.13457218645834246},{"name":"B1","midi":35,"time":221.35153950000495,"velocity":0.5039370078740157,"duration":0.26970743645833295},{"name":"E2","midi":40,"time":221.62181000000496,"velocity":0.5039370078740157,"duration":0.13457218645834246},{"name":"G#3","midi":56,"time":221.62181000000496,"velocity":0.5039370078740157,"duration":0.13457218645834246},{"name":"B1","midi":35,"time":222.16235100000497,"velocity":0.5039370078740157,"duration":0.26970743645833295},{"name":"G#3","midi":56,"time":222.16235100000497,"velocity":0.5039370078740157,"duration":0.13457218645834246},{"name":"G4","midi":67,"time":222.43262150000498,"velocity":0.5039370078740157,"duration":0.13457218645834246},{"name":"E2","midi":40,"time":222.702892000005,"velocity":0.5039370078740157,"duration":0.13457218645834246},{"name":"G#3","midi":56,"time":222.702892000005,"velocity":0.5039370078740157,"duration":0.13457218645834246},{"name":"B1","midi":35,"time":223.243433000005,"velocity":0.5039370078740157,"duration":0.26970743645833295},{"name":"G#3","midi":56,"time":223.243433000005,"velocity":0.5039370078740157,"duration":0.5399779364583424},{"name":"E2","midi":40,"time":223.78397400000503,"velocity":0.5039370078740157,"duration":0.13457218645834246},{"name":"G#3","midi":56,"time":223.78397400000503,"velocity":0.5039370078740157,"duration":0.5399779364583424},{"name":"B1","midi":35,"time":224.32451500000505,"velocity":0.5039370078740157,"duration":0.26970743645833295},{"name":"G#3","midi":56,"time":224.32451500000505,"velocity":0.5039370078740157,"duration":0.5399779364583424},{"name":"A#2","midi":46,"time":224.59478550000506,"velocity":0.5039370078740157,"duration":0.13457218645834246},{"name":"E2","midi":40,"time":224.86505600000507,"velocity":0.5039370078740157,"duration":0.13457218645834246},{"name":"G#2","midi":44,"time":224.86505600000507,"velocity":0.5039370078740157,"duration":0.13457218645834246},{"name":"G#3","midi":56,"time":224.86505600000507,"velocity":0.5039370078740157,"duration":0.5399779364583708},{"name":"E2","midi":40,"time":225.0001912500051,"velocity":0.5039370078740157,"duration":0.13457218645834246},{"name":"E2","midi":40,"time":225.2704617500051,"velocity":0.5039370078740157,"duration":0.13457218645834246},{"name":"B1","midi":35,"time":225.40559700000512,"velocity":0.5039370078740157,"duration":0.26970743645833295},{"name":"G#3","midi":56,"time":225.40559700000512,"velocity":0.5039370078740157,"duration":0.5399779364583424},{"name":"E2","midi":40,"time":225.94613800000513,"velocity":0.5039370078740157,"duration":0.13457218645834246},{"name":"G#3","midi":56,"time":225.94613800000513,"velocity":0.5039370078740157,"duration":0.5399779364583708},{"name":"G4","midi":67,"time":226.21640850000514,"velocity":0.5039370078740157,"duration":0.13457218645834246},{"name":"G4","midi":67,"time":226.35154375000516,"velocity":0.5039370078740157,"duration":0.13457218645834246},{"name":"B1","midi":35,"time":226.48667900000518,"velocity":0.5039370078740157,"duration":0.26970743645836137},{"name":"E2","midi":40,"time":226.48667900000518,"velocity":0.023622047244094488,"duration":0.13457218645834246},{"name":"G#3","midi":56,"time":226.48667900000518,"velocity":0.5039370078740157,"duration":0.5399779364583992},{"name":"E2","midi":40,"time":226.6218142500052,"velocity":0.047244094488188976,"duration":0.13457218645834246},{"name":"E2","midi":40,"time":226.75694950000522,"velocity":0.07086614173228346,"duration":0.13457218645834246},{"name":"E2","midi":40,"time":226.89208475000524,"velocity":0.09448818897637795,"duration":0.13457218645834246},{"name":"E2","midi":40,"time":227.02722000000526,"velocity":0.11811023622047244,"duration":0.13457218645834246},{"name":"G#3","midi":56,"time":227.02722000000526,"velocity":0.5039370078740157,"duration":0.5399779364583992},{"name":"E2","midi":40,"time":227.16235525000528,"velocity":0.14173228346456693,"duration":0.13457218645834246},{"name":"E2","midi":40,"time":227.2974905000053,"velocity":0.16535433070866143,"duration":0.13457218645834246},{"name":"E2","midi":40,"time":227.43262575000531,"velocity":0.1889763779527559,"duration":0.13457218645834246},{"name":"B1","midi":35,"time":227.56776100000533,"velocity":0.5039370078740157,"duration":0.26970743645836137},{"name":"E2","midi":40,"time":227.56776100000533,"velocity":0.2125984251968504,"duration":0.13457218645834246},{"name":"G#3","midi":56,"time":227.56776100000533,"velocity":0.5039370078740157,"duration":0.5399779364583992},{"name":"E2","midi":40,"time":227.70289625000535,"velocity":0.23622047244094488,"duration":0.13457218645834246},{"name":"E2","midi":40,"time":227.83803150000537,"velocity":0.25984251968503935,"duration":0.13457218645834246},{"name":"E2","midi":40,"time":227.9731667500054,"velocity":0.28346456692913385,"duration":0.13457218645834246},{"name":"E2","midi":40,"time":228.1083020000054,"velocity":0.30708661417322836,"duration":0.13457218645834246},{"name":"G#3","midi":56,"time":228.1083020000054,"velocity":0.5039370078740157,"duration":0.5399779364583992},{"name":"E2","midi":40,"time":228.24343725000543,"velocity":0.33070866141732286,"duration":0.13457218645834246},{"name":"E2","midi":40,"time":228.37857250000545,"velocity":0.3543307086614173,"duration":0.13457218645834246},{"name":"E2","midi":40,"time":228.51370775000547,"velocity":0.3779527559055118,"duration":0.13457218645834246},{"name":"E2","midi":40,"time":228.64884300000548,"velocity":0.4015748031496063,"duration":0.13457218645834246},{"name":"G#3","midi":56,"time":228.64884300000548,"velocity":0.5039370078740157,"duration":0.5399779364583992},{"name":"E2","midi":40,"time":228.7839782500055,"velocity":0.4251968503937008,"duration":0.13457218645834246},{"name":"E2","midi":40,"time":228.91911350000552,"velocity":0.44881889763779526,"duration":0.13457218645834246},{"name":"E2","midi":40,"time":229.05424875000554,"velocity":0.5039370078740157,"duration":0.13457218645834246},{"name":"B1","midi":35,"time":229.18938400000556,"velocity":0.5039370078740157,"duration":0.26970743645833295},{"name":"A3","midi":57,"time":229.18938400000556,"velocity":0.5039370078740157,"duration":0.26970743645833295}],"controlChanges":{"7":[{"number":7,"time":0,"value":1},{"number":7,"time":2.162164,"value":1},{"number":7,"time":101.0811669999996,"value":1},{"number":7,"time":104.33567427083274,"value":1}],"78":[{"number":78,"time":0,"value":0.5039370078740157}]},"id":2,"name":"MIDI Chn 10","instrumentNumber":0,"instrument":"standard kit","instrumentFamily":"drums","channelNumber":9,"isPercussion":true},{"startTime":32.432460000000006,"duration":228.37800943646388,"length":1266,"notes":[{"name":"E4","midi":64,"time":32.432460000000006,"velocity":0.5039370078740157,"duration":0.13457218645833535},{"name":"E4","midi":64,"time":32.56759525000001,"velocity":0.5039370078740157,"duration":0.13457218645833535},{"name":"E4","midi":64,"time":32.702730500000015,"velocity":0.5039370078740157,"duration":0.13457218645833535},{"name":"E4","midi":64,"time":32.83786575000002,"velocity":0.5039370078740157,"duration":0.13457218645833535},{"name":"E3","midi":52,"time":33.24327150000002,"velocity":0.5039370078740157,"duration":0.13457218645833535},{"name":"E3","midi":52,"time":33.378406750000025,"velocity":0.5039370078740157,"duration":0.13457218645833535},{"name":"E3","midi":52,"time":33.51354200000003,"velocity":0.5039370078740157,"duration":0.13457218645833535},{"name":"E3","midi":52,"time":33.648677250000034,"velocity":0.5039370078740157,"duration":0.13457218645833535},{"name":"E4","midi":64,"time":34.054083000000034,"velocity":0.5039370078740157,"duration":0.13457218645833535},{"name":"E4","midi":64,"time":34.18921825000004,"velocity":0.5039370078740157,"duration":0.13457218645833535},{"name":"E4","midi":64,"time":34.32435350000004,"velocity":0.5039370078740157,"duration":0.13457218645833535},{"name":"E4","midi":64,"time":34.45948875000005,"velocity":0.5039370078740157,"duration":0.13457218645833535},{"name":"E3","midi":52,"time":34.86489450000005,"velocity":0.5039370078740157,"duration":0.13457218645833535},{"name":"E3","midi":52,"time":35.00002975000005,"velocity":0.5039370078740157,"duration":0.13457218645833535},{"name":"E3","midi":52,"time":35.13516500000006,"velocity":0.5039370078740157,"duration":0.13457218645833535},{"name":"E3","midi":52,"time":35.27030025000006,"velocity":0.5039370078740157,"duration":0.13457218645833535},{"name":"E4","midi":64,"time":36.21624700000007,"velocity":0.5039370078740157,"duration":0.13457218645833535},{"name":"E4","midi":64,"time":36.35138225000007,"velocity":0.5039370078740157,"duration":0.13457218645833535},{"name":"E4","midi":64,"time":36.486517500000076,"velocity":0.5039370078740157,"duration":0.13457218645833535},{"name":"E4","midi":64,"time":36.62165275000008,"velocity":0.5039370078740157,"duration":0.13457218645833535},{"name":"E3","midi":52,"time":37.02705850000008,"velocity":0.5039370078740157,"duration":0.13457218645833535},{"name":"E3","midi":52,"time":37.162193750000085,"velocity":0.5039370078740157,"duration":0.13457218645833535},{"name":"E3","midi":52,"time":37.29732900000009,"velocity":0.5039370078740157,"duration":0.13457218645833535},{"name":"E3","midi":52,"time":37.432464250000095,"velocity":0.5039370078740157,"duration":0.13457218645833535},{"name":"E4","midi":64,"time":37.837870000000095,"velocity":0.5039370078740157,"duration":0.13457218645833535},{"name":"E4","midi":64,"time":37.9730052500001,"velocity":0.5039370078740157,"duration":0.13457218645833535},{"name":"E4","midi":64,"time":38.108140500000104,"velocity":0.5039370078740157,"duration":0.13457218645833535},{"name":"E4","midi":64,"time":38.24327575000011,"velocity":0.5039370078740157,"duration":0.13457218645833535},{"name":"E3","midi":52,"time":38.64868150000011,"velocity":0.5039370078740157,"duration":0.13457218645833535},{"name":"E3","midi":52,"time":38.78381675000011,"velocity":0.5039370078740157,"duration":0.13457218645833535},{"name":"E3","midi":52,"time":38.91895200000012,"velocity":0.5039370078740157,"duration":0.13457218645833535},{"name":"E3","midi":52,"time":39.05408725000012,"velocity":0.5039370078740157,"duration":0.13457218645833535},{"name":"E4","midi":64,"time":40.00003400000013,"velocity":0.5039370078740157,"duration":0.13457218645833535},{"name":"G#4","midi":68,"time":40.13516925000013,"velocity":0.5039370078740157,"duration":0.13457218645833535},{"name":"E4","midi":64,"time":40.27030450000014,"velocity":0.5039370078740157,"duration":0.13457218645833535},{"name":"B3","midi":59,"time":40.40543975000014,"velocity":0.5039370078740157,"duration":0.13457218645833535},{"name":"F#4","midi":66,"time":40.540575000000146,"velocity":0.5039370078740157,"duration":0.13457218645833535},{"name":"D4","midi":62,"time":40.67571025000015,"velocity":0.5039370078740157,"duration":0.13457218645833535},{"name":"B3","midi":59,"time":40.810845500000156,"velocity":0.5039370078740157,"duration":0.13457218645833535},{"name":"E4","midi":64,"time":40.94598075000016,"velocity":0.5039370078740157,"duration":0.13457218645833535},{"name":"C#4","midi":61,"time":41.081116000000165,"velocity":0.5039370078740157,"duration":0.13457218645833535},{"name":"A3","midi":57,"time":41.21625125000017,"velocity":0.5039370078740157,"duration":0.13457218645833535},{"name":"B3","midi":59,"time":41.351386500000174,"velocity":0.5039370078740157,"duration":0.13457218645833535},{"name":"G#3","midi":56,"time":41.48652175000018,"velocity":0.5039370078740157,"duration":0.13457218645833535},{"name":"A3","midi":57,"time":41.621657000000184,"velocity":0.5039370078740157,"duration":0.13457218645833535},{"name":"B3","midi":59,"time":41.75679225000019,"velocity":0.5039370078740157,"duration":0.13457218645833535},{"name":"E4","midi":64,"time":41.89192750000019,"velocity":0.5039370078740157,"duration":0.13457218645833535},{"name":"D4","midi":62,"time":42.0270627500002,"velocity":0.5039370078740157,"duration":0.13457218645833535},{"name":"G#4","midi":68,"time":42.1621980000002,"velocity":0.5039370078740157,"duration":0.13457218645833535},{"name":"E4","midi":64,"time":42.29733325000021,"velocity":0.5039370078740157,"duration":0.13457218645833535},{"name":"B3","midi":59,"time":42.43246850000021,"velocity":0.5039370078740157,"duration":0.13457218645833535},{"name":"F#4","midi":66,"time":42.56760375000022,"velocity":0.5039370078740157,"duration":0.13457218645833535},{"name":"D4","midi":62,"time":42.70273900000022,"velocity":0.5039370078740157,"duration":0.13457218645833535},{"name":"B3","midi":59,"time":42.837874250000226,"velocity":0.5039370078740157,"duration":0.13457218645833535},{"name":"E4","midi":64,"time":42.97300950000023,"velocity":0.5039370078740157,"duration":0.13457218645833535},{"name":"C#4","midi":61,"time":43.108144750000235,"velocity":0.5039370078740157,"duration":0.13457218645833535},{"name":"A3","midi":57,"time":43.24328000000024,"velocity":0.5039370078740157,"duration":0.13457218645833535},{"name":"C#4","midi":61,"time":43.378415250000245,"velocity":0.5039370078740157,"duration":0.13457218645833535},{"name":"B3","midi":59,"time":43.51355050000025,"velocity":0.5039370078740157,"duration":0.13457218645833535},{"name":"G#3","midi":56,"time":43.648685750000254,"velocity":0.5039370078740157,"duration":0.13457218645833535},{"name":"E4","midi":64,"time":43.78382100000026,"velocity":0.5039370078740157,"duration":0.13457218645833535},{"name":"G#4","midi":68,"time":43.918956250000264,"velocity":0.5039370078740157,"duration":0.13457218645833535},{"name":"E4","midi":64,"time":44.05409150000027,"velocity":0.5039370078740157,"duration":0.13457218645833535},{"name":"B3","midi":59,"time":44.18922675000027,"velocity":0.5039370078740157,"duration":0.13457218645833535},{"name":"F#4","midi":66,"time":44.32436200000028,"velocity":0.5039370078740157,"duration":0.13457218645833535},{"name":"D4","midi":62,"time":44.45949725000028,"velocity":0.5039370078740157,"duration":0.13457218645833535},{"name":"B3","midi":59,"time":44.59463250000029,"velocity":0.5039370078740157,"duration":0.13457218645833535},{"name":"E4","midi":64,"time":44.72976775000029,"velocity":0.5039370078740157,"duration":0.13457218645833535},{"name":"C#4","midi":61,"time":44.8649030000003,"velocity":0.5039370078740157,"duration":0.13457218645833535},{"name":"A3","midi":57,"time":45.0000382500003,"velocity":0.5039370078740157,"duration":0.13457218645833535},{"name":"B3","midi":59,"time":45.135173500000306,"velocity":0.5039370078740157,"duration":0.13457218645833535},{"name":"G#3","midi":56,"time":45.27030875000031,"velocity":0.5039370078740157,"duration":0.13457218645833535},{"name":"A3","midi":57,"time":45.405444000000315,"velocity":0.5039370078740157,"duration":0.13457218645833535},{"name":"B3","midi":59,"time":45.54057925000032,"velocity":0.5039370078740157,"duration":0.13457218645833535},{"name":"E4","midi":64,"time":45.675714500000325,"velocity":0.5039370078740157,"duration":0.13457218645833535},{"name":"D4","midi":62,"time":45.81084975000033,"velocity":0.5039370078740157,"duration":0.13457218645833535},{"name":"G#4","midi":68,"time":45.945985000000334,"velocity":0.5039370078740157,"duration":0.13457218645833535},{"name":"E4","midi":64,"time":46.08112025000034,"velocity":0.5039370078740157,"duration":0.13457218645833535},{"name":"B3","midi":59,"time":46.216255500000344,"velocity":0.5039370078740157,"duration":0.13457218645833535},{"name":"F#4","midi":66,"time":46.35139075000035,"velocity":0.5039370078740157,"duration":0.13457218645833535},{"name":"D4","midi":62,"time":46.48652600000035,"velocity":0.5039370078740157,"duration":0.13457218645833535},{"name":"B3","midi":59,"time":46.62166125000036,"velocity":0.5039370078740157,"duration":0.13457218645833535},{"name":"E4","midi":64,"time":46.75679650000036,"velocity":0.5039370078740157,"duration":0.13457218645833535},{"name":"C#4","midi":61,"time":46.89193175000037,"velocity":0.5039370078740157,"duration":0.13457218645833535},{"name":"A3","midi":57,"time":47.02706700000037,"velocity":0.5039370078740157,"duration":0.13457218645833535},{"name":"C#4","midi":61,"time":47.16220225000038,"velocity":0.5039370078740157,"duration":0.13457218645833535},{"name":"B3","midi":59,"time":47.29733750000038,"velocity":0.5039370078740157,"duration":0.13457218645833535},{"name":"G#3","midi":56,"time":47.432472750000386,"velocity":0.5039370078740157,"duration":0.13457218645833535},{"name":"E3","midi":52,"time":47.56760800000039,"velocity":0.5039370078740157,"duration":16.08053168645835},{"name":"E4","midi":64,"time":62.70275600000039,"velocity":0.5039370078740157,"duration":0.13457218645833535},{"name":"E4","midi":64,"time":62.837891250000396,"velocity":0.5039370078740157,"duration":0.13457218645833535},{"name":"E4","midi":64,"time":62.9730265000004,"velocity":0.5039370078740157,"duration":0.13457218645833535},{"name":"E4","midi":64,"time":63.108161750000406,"velocity":0.5039370078740157,"duration":0.13457218645833535},{"name":"E3","midi":52,"time":63.513567500000406,"velocity":0.5039370078740157,"duration":0.13457218645833535},{"name":"E3","midi":52,"time":63.64870275000041,"velocity":0.5039370078740157,"duration":0.13457218645833535},{"name":"E3","midi":52,"time":63.783838000000415,"velocity":0.5039370078740157,"duration":0.13457218645833535},{"name":"E3","midi":52,"time":63.91897325000042,"velocity":0.5039370078740157,"duration":0.13457218645832825},{"name":"E4","midi":64,"time":64.32437900000042,"velocity":0.5039370078740157,"duration":0.13457218645832825},{"name":"E4","midi":64,"time":64.45951425000041,"velocity":0.5039370078740157,"duration":0.13457218645832825},{"name":"E4","midi":64,"time":64.5946495000004,"velocity":0.5039370078740157,"duration":0.13457218645832825},{"name":"E4","midi":64,"time":64.72978475000039,"velocity":0.5039370078740157,"duration":0.13457218645832825},{"name":"E3","midi":52,"time":65.13519050000039,"velocity":0.5039370078740157,"duration":0.13457218645832825},{"name":"E3","midi":52,"time":65.27032575000038,"velocity":0.5039370078740157,"duration":0.13457218645832825},{"name":"E3","midi":52,"time":65.40546100000037,"velocity":0.5039370078740157,"duration":0.13457218645832825},{"name":"E3","midi":52,"time":65.54059625000036,"velocity":0.5039370078740157,"duration":0.13457218645832825},{"name":"E4","midi":64,"time":66.48654300000035,"velocity":0.5039370078740157,"duration":0.13457218645832825},{"name":"E4","midi":64,"time":66.62167825000034,"velocity":0.5039370078740157,"duration":0.13457218645832825},{"name":"E4","midi":64,"time":66.75681350000033,"velocity":0.5039370078740157,"duration":0.13457218645832825},{"name":"E4","midi":64,"time":66.89194875000032,"velocity":0.5039370078740157,"duration":0.13457218645832825},{"name":"E3","midi":52,"time":67.29735450000032,"velocity":0.5039370078740157,"duration":0.13457218645832825},{"name":"E3","midi":52,"time":67.43248975000031,"velocity":0.5039370078740157,"duration":0.13457218645832825},{"name":"E3","midi":52,"time":67.5676250000003,"velocity":0.5039370078740157,"duration":0.13457218645832825},{"name":"E3","midi":52,"time":67.7027602500003,"velocity":0.5039370078740157,"duration":0.13457218645832825},{"name":"E4","midi":64,"time":68.1081660000003,"velocity":0.5039370078740157,"duration":0.13457218645832825},{"name":"E4","midi":64,"time":68.24330125000029,"velocity":0.5039370078740157,"duration":0.13457218645832825},{"name":"E4","midi":64,"time":68.37843650000028,"velocity":0.5039370078740157,"duration":0.13457218645832825},{"name":"E4","midi":64,"time":68.51357175000027,"velocity":0.5039370078740157,"duration":0.13457218645832825},{"name":"E3","midi":52,"time":68.91897750000027,"velocity":0.5039370078740157,"duration":0.13457218645832825},{"name":"E3","midi":52,"time":69.05411275000026,"velocity":0.5039370078740157,"duration":0.13457218645832825},{"name":"E3","midi":52,"time":69.18924800000025,"velocity":0.5039370078740157,"duration":0.13457218645832825},{"name":"E3","midi":52,"time":69.32438325000024,"velocity":0.5039370078740157,"duration":0.13457218645832825},{"name":"E4","midi":64,"time":70.27033000000023,"velocity":0.5039370078740157,"duration":0.13457218645832825},{"name":"G#4","midi":68,"time":70.40546525000022,"velocity":0.5039370078740157,"duration":0.13457218645832825},{"name":"E4","midi":64,"time":70.54060050000021,"velocity":0.5039370078740157,"duration":0.13457218645832825},{"name":"B3","midi":59,"time":70.6757357500002,"velocity":0.5039370078740157,"duration":0.13457218645832825},{"name":"F#4","midi":66,"time":70.81087100000019,"velocity":0.5039370078740157,"duration":0.13457218645832825},{"name":"D4","midi":62,"time":70.94600625000018,"velocity":0.5039370078740157,"duration":0.13457218645832825},{"name":"B3","midi":59,"time":71.08114150000017,"velocity":0.5039370078740157,"duration":0.13457218645832825},{"name":"E4","midi":64,"time":71.21627675000016,"velocity":0.5039370078740157,"duration":0.13457218645832825},{"name":"C#4","midi":61,"time":71.35141200000015,"velocity":0.5039370078740157,"duration":0.13457218645832825},{"name":"A3","midi":57,"time":71.48654725000014,"velocity":0.5039370078740157,"duration":0.13457218645832825},{"name":"B3","midi":59,"time":71.62168250000013,"velocity":0.5039370078740157,"duration":0.13457218645832825},{"name":"G#3","midi":56,"time":71.75681775000012,"velocity":0.5039370078740157,"duration":0.13457218645832825},{"name":"A3","midi":57,"time":71.89195300000011,"velocity":0.5039370078740157,"duration":0.13457218645832825},{"name":"B3","midi":59,"time":72.0270882500001,"velocity":0.5039370078740157,"duration":0.13457218645832825},{"name":"E4","midi":64,"time":72.1622235000001,"velocity":0.5039370078740157,"duration":0.13457218645832825},{"name":"D4","midi":62,"time":72.29735875000009,"velocity":0.5039370078740157,"duration":0.13457218645832825},{"name":"G#4","midi":68,"time":72.43249400000008,"velocity":0.5039370078740157,"duration":0.13457218645832825},{"name":"E4","midi":64,"time":72.56762925000007,"velocity":0.5039370078740157,"duration":0.13457218645832825},{"name":"B3","midi":59,"time":72.70276450000006,"velocity":0.5039370078740157,"duration":0.13457218645832825},{"name":"F#4","midi":66,"time":72.83789975000005,"velocity":0.5039370078740157,"duration":0.13457218645832825},{"name":"D4","midi":62,"time":72.97303500000004,"velocity":0.5039370078740157,"duration":0.13457218645832825},{"name":"B3","midi":59,"time":73.10817025000003,"velocity":0.5039370078740157,"duration":0.13457218645832825},{"name":"E4","midi":64,"time":73.24330550000002,"velocity":0.5039370078740157,"duration":0.13457218645832825},{"name":"C#4","midi":61,"time":73.37844075000001,"velocity":0.5039370078740157,"duration":0.13457218645832825},{"name":"A3","midi":57,"time":73.513576,"velocity":0.5039370078740157,"duration":0.13457218645832825},{"name":"C#4","midi":61,"time":73.64871124999999,"velocity":0.5039370078740157,"duration":0.13457218645832825},{"name":"B3","midi":59,"time":73.78384649999998,"velocity":0.5039370078740157,"duration":0.13457218645832825},{"name":"G#3","midi":56,"time":73.91898174999997,"velocity":0.5039370078740157,"duration":0.13457218645832825},{"name":"E4","midi":64,"time":74.05411699999996,"velocity":0.5039370078740157,"duration":0.13457218645832825},{"name":"G#4","midi":68,"time":74.18925224999995,"velocity":0.5039370078740157,"duration":0.13457218645832825},{"name":"E4","midi":64,"time":74.32438749999994,"velocity":0.5039370078740157,"duration":0.13457218645832825},{"name":"B3","midi":59,"time":74.45952274999993,"velocity":0.5039370078740157,"duration":0.13457218645832825},{"name":"F#4","midi":66,"time":74.59465799999992,"velocity":0.5039370078740157,"duration":0.13457218645832825},{"name":"D4","midi":62,"time":74.72979324999991,"velocity":0.5039370078740157,"duration":0.13457218645832825},{"name":"B3","midi":59,"time":74.8649284999999,"velocity":0.5039370078740157,"duration":0.13457218645832825},{"name":"E4","midi":64,"time":75.0000637499999,"velocity":0.5039370078740157,"duration":0.13457218645832825},{"name":"C#4","midi":61,"time":75.13519899999989,"velocity":0.5039370078740157,"duration":0.13457218645832825},{"name":"A3","midi":57,"time":75.27033424999988,"velocity":0.5039370078740157,"duration":0.13457218645832825},{"name":"B3","midi":59,"time":75.40546949999987,"velocity":0.5039370078740157,"duration":0.13457218645832825},{"name":"G#3","midi":56,"time":75.54060474999986,"velocity":0.5039370078740157,"duration":0.13457218645832825},{"name":"A3","midi":57,"time":75.67573999999985,"velocity":0.5039370078740157,"duration":0.13457218645832825},{"name":"B3","midi":59,"time":75.81087524999984,"velocity":0.5039370078740157,"duration":0.13457218645832825},{"name":"E4","midi":64,"time":75.94601049999983,"velocity":0.5039370078740157,"duration":0.13457218645832825},{"name":"D4","midi":62,"time":76.08114574999982,"velocity":0.5039370078740157,"duration":0.13457218645832825},{"name":"G#4","midi":68,"time":76.21628099999981,"velocity":0.5039370078740157,"duration":0.13457218645832825},{"name":"E4","midi":64,"time":76.3514162499998,"velocity":0.5039370078740157,"duration":0.13457218645832825},{"name":"B3","midi":59,"time":76.48655149999979,"velocity":0.5039370078740157,"duration":0.13457218645832825},{"name":"F#4","midi":66,"time":76.62168674999978,"velocity":0.5039370078740157,"duration":0.13457218645832825},{"name":"D4","midi":62,"time":76.75682199999977,"velocity":0.5039370078740157,"duration":0.13457218645832825},{"name":"B3","midi":59,"time":76.89195724999976,"velocity":0.5039370078740157,"duration":0.13457218645832825},{"name":"E4","midi":64,"time":77.02709249999975,"velocity":0.5039370078740157,"duration":0.13457218645832825},{"name":"C#4","midi":61,"time":77.16222774999974,"velocity":0.5039370078740157,"duration":0.13457218645832825},{"name":"A3","midi":57,"time":77.29736299999973,"velocity":0.5039370078740157,"duration":0.13457218645832825},{"name":"C#4","midi":61,"time":77.43249824999972,"velocity":0.5039370078740157,"duration":0.13457218645832825},{"name":"B3","midi":59,"time":77.56763349999972,"velocity":0.5039370078740157,"duration":0.13457218645832825},{"name":"G#3","midi":56,"time":77.7027687499997,"velocity":0.5039370078740157,"duration":0.13457218645832825},{"name":"E3","midi":52,"time":77.8379039999997,"velocity":0.5039370078740157,"duration":11.485933186458325},{"name":"E3","midi":52,"time":89.1892649999997,"velocity":0.5039370078740157,"duration":0.13457218645832825},{"name":"E3","midi":52,"time":89.5946707499997,"velocity":0.5039370078740157,"duration":0.13457218645832825},{"name":"E3","midi":52,"time":90.0000764999997,"velocity":0.5039370078740157,"duration":0.13457218645832825},{"name":"E3","midi":52,"time":90.4054822499997,"velocity":0.5039370078740157,"duration":0.13457218645832825},{"name":"E3","midi":52,"time":90.8108879999997,"velocity":0.5039370078740157,"duration":0.13457218645832825},{"name":"E3","midi":52,"time":91.21629374999969,"velocity":0.5039370078740157,"duration":0.13457218645832825},{"name":"E3","midi":52,"time":91.62169949999969,"velocity":0.5039370078740157,"duration":0.13457218645832825},{"name":"E3","midi":52,"time":91.75683474999968,"velocity":0.5039370078740157,"duration":0.13457218645832825},{"name":"E3","midi":52,"time":91.89196999999967,"velocity":0.5039370078740157,"duration":0.13457218645832825},{"name":"E3","midi":52,"time":92.02710524999966,"velocity":0.5039370078740157,"duration":0.13457218645832825},{"name":"E3","midi":52,"time":92.43251099999966,"velocity":0.5039370078740157,"duration":0.13457218645832825},{"name":"E3","midi":52,"time":92.70278149999966,"velocity":0.5039370078740157,"duration":0.13457218645832825},{"name":"E3","midi":52,"time":108.10819999999966,"velocity":0.5039370078740157,"duration":0.13457218645832825},{"name":"E3","midi":52,"time":108.10819999999966,"velocity":0.5039370078740157,"duration":0.13457218645832825},{"name":"B3","midi":59,"time":108.24333524999965,"velocity":0.5039370078740157,"duration":0.13457218645832825},{"name":"B3","midi":59,"time":108.37847049999964,"velocity":0.5039370078740157,"duration":0.13457218645832825},{"name":"E3","midi":52,"time":108.51360574999963,"velocity":0.5039370078740157,"duration":0.13457218645832825},{"name":"A#3","midi":58,"time":108.64874099999962,"velocity":0.5039370078740157,"duration":0.13457218645832825},{"name":"A#3","midi":58,"time":108.64874099999962,"velocity":0.5039370078740157,"duration":0.13457218645832825},{"name":"A#3","midi":58,"time":108.78387624999961,"velocity":0.5039370078740157,"duration":0.13457218645832825},{"name":"A#3","midi":58,"time":108.78387624999961,"velocity":0.5039370078740157,"duration":0.13457218645832825},{"name":"E3","midi":52,"time":108.9190114999996,"velocity":0.5039370078740157,"duration":0.13457218645832825},{"name":"E3","midi":52,"time":108.9190114999996,"velocity":0.5039370078740157,"duration":0.13457218645832825},{"name":"B3","midi":59,"time":109.05414674999959,"velocity":0.5039370078740157,"duration":0.13457218645832825},{"name":"B3","midi":59,"time":109.05414674999959,"velocity":0.5039370078740157,"duration":0.13457218645832825},{"name":"B3","midi":59,"time":109.18928199999958,"velocity":0.5039370078740157,"duration":0.13457218645832825},{"name":"B3","midi":59,"time":109.18928199999958,"velocity":0.5039370078740157,"duration":0.13457218645832825},{"name":"E3","midi":52,"time":109.32441724999957,"velocity":0.5039370078740157,"duration":0.13457218645832825},{"name":"E3","midi":52,"time":109.32441724999957,"velocity":0.5039370078740157,"duration":0.13457218645832825},{"name":"A#3","midi":58,"time":109.45955249999956,"velocity":0.5039370078740157,"duration":0.13457218645832825},{"name":"A#3","midi":58,"time":109.45955249999956,"velocity":0.5039370078740157,"duration":0.13457218645832825},{"name":"A#3","midi":58,"time":109.59468774999955,"velocity":0.5039370078740157,"duration":0.13457218645832825},{"name":"A#3","midi":58,"time":109.59468774999955,"velocity":0.5039370078740157,"duration":0.13457218645832825},{"name":"E3","midi":52,"time":109.72982299999954,"velocity":0.5039370078740157,"duration":0.13457218645832825},{"name":"E3","midi":52,"time":109.72982299999954,"velocity":0.5039370078740157,"duration":0.13457218645832825},{"name":"B3","midi":59,"time":109.86495824999953,"velocity":0.5039370078740157,"duration":0.13457218645832825},{"name":"B3","midi":59,"time":109.86495824999953,"velocity":0.5039370078740157,"duration":0.13457218645832825},{"name":"E3","midi":52,"time":110.00009349999952,"velocity":0.5039370078740157,"duration":0.13457218645832825},{"name":"E3","midi":52,"time":110.00009349999952,"velocity":0.5039370078740157,"duration":0.13457218645832825},{"name":"C4","midi":60,"time":110.13522874999951,"velocity":0.5039370078740157,"duration":0.13457218645832825},{"name":"C4","midi":60,"time":110.13522874999951,"velocity":0.5039370078740157,"duration":0.13457218645832825},{"name":"E3","midi":52,"time":110.2703639999995,"velocity":0.5039370078740157,"duration":0.13457218645832825},{"name":"E3","midi":52,"time":110.2703639999995,"velocity":0.5039370078740157,"duration":0.13457218645832825},{"name":"B3","midi":59,"time":110.4054992499995,"velocity":0.5039370078740157,"duration":0.13457218645832825},{"name":"B3","midi":59,"time":110.4054992499995,"velocity":0.5039370078740157,"duration":0.13457218645832825},{"name":"B3","midi":59,"time":110.4054992499995,"velocity":0.5039370078740157,"duration":0.13457218645832825},{"name":"B3","midi":59,"time":110.4054992499995,"velocity":0.5039370078740157,"duration":0.13457218645832825},{"name":"B3","midi":59,"time":110.4054992499995,"velocity":0.5039370078740157,"duration":0.13457218645832825},{"name":"B3","midi":59,"time":110.4054992499995,"velocity":0.5039370078740157,"duration":0.13457218645832825},{"name":"B3","midi":59,"time":110.4054992499995,"velocity":0.5039370078740157,"duration":0.13457218645832825},{"name":"B3","midi":59,"time":110.4054992499995,"velocity":0.5039370078740157,"duration":0.13457218645832825},{"name":"B3","midi":59,"time":110.54063449999948,"velocity":0.5039370078740157,"duration":0.13457218645832825},{"name":"B3","midi":59,"time":110.54063449999948,"velocity":0.5039370078740157,"duration":0.13457218645832825},{"name":"B3","midi":59,"time":110.54063449999948,"velocity":0.5039370078740157,"duration":0.13457218645832825},{"name":"B3","midi":59,"time":110.54063449999948,"velocity":0.5039370078740157,"duration":0.13457218645832825},{"name":"B3","midi":59,"time":110.54063449999948,"velocity":0.5039370078740157,"duration":0.13457218645832825},{"name":"B3","midi":59,"time":110.54063449999948,"velocity":0.5039370078740157,"duration":0.13457218645832825},{"name":"B3","midi":59,"time":110.54063449999948,"velocity":0.5039370078740157,"duration":0.13457218645832825},{"name":"B3","midi":59,"time":110.54063449999948,"velocity":0.5039370078740157,"duration":0.13457218645832825},{"name":"E3","midi":52,"time":110.67576974999947,"velocity":0.5039370078740157,"duration":0.13457218645832825},{"name":"E3","midi":52,"time":110.67576974999947,"velocity":0.5039370078740157,"duration":0.13457218645832825},{"name":"E3","midi":52,"time":110.67576974999947,"velocity":0.5039370078740157,"duration":0.13457218645832825},{"name":"E3","midi":52,"time":110.67576974999947,"velocity":0.5039370078740157,"duration":0.13457218645832825},{"name":"E3","midi":52,"time":110.67576974999947,"velocity":0.5039370078740157,"duration":0.13457218645832825},{"name":"E3","midi":52,"time":110.67576974999947,"velocity":0.5039370078740157,"duration":0.13457218645832825},{"name":"E3","midi":52,"time":110.67576974999947,"velocity":0.5039370078740157,"duration":0.13457218645832825},{"name":"E3","midi":52,"time":110.67576974999947,"velocity":0.5039370078740157,"duration":0.13457218645832825},{"name":"A#3","midi":58,"time":110.81090499999947,"velocity":0.5039370078740157,"duration":0.13457218645832825},{"name":"A#3","midi":58,"time":110.81090499999947,"velocity":0.5039370078740157,"duration":0.13457218645832825},{"name":"A#3","midi":58,"time":110.81090499999947,"velocity":0.5039370078740157,"duration":0.13457218645832825},{"name":"A#3","midi":58,"time":110.81090499999947,"velocity":0.5039370078740157,"duration":0.13457218645832825},{"name":"A#3","midi":58,"time":110.81090499999947,"velocity":0.5039370078740157,"duration":0.13457218645832825},{"name":"A#3","midi":58,"time":110.81090499999947,"velocity":0.5039370078740157,"duration":0.13457218645832825},{"name":"A#3","midi":58,"time":110.81090499999947,"velocity":0.5039370078740157,"duration":0.13457218645832825},{"name":"A#3","midi":58,"time":110.81090499999947,"velocity":0.5039370078740157,"duration":0.13457218645832825},{"name":"A#3","midi":58,"time":110.94604024999946,"velocity":0.5039370078740157,"duration":0.13457218645832825},{"name":"A#3","midi":58,"time":110.94604024999946,"velocity":0.5039370078740157,"duration":0.13457218645832825},{"name":"A#3","midi":58,"time":110.94604024999946,"velocity":0.5039370078740157,"duration":0.13457218645832825},{"name":"A#3","midi":58,"time":110.94604024999946,"velocity":0.5039370078740157,"duration":0.13457218645832825},{"name":"A#3","midi":58,"time":110.94604024999946,"velocity":0.5039370078740157,"duration":0.13457218645832825},{"name":"A#3","midi":58,"time":110.94604024999946,"velocity":0.5039370078740157,"duration":0.13457218645832825},{"name":"A#3","midi":58,"time":110.94604024999946,"velocity":0.5039370078740157,"duration":0.13457218645832825},{"name":"A#3","midi":58,"time":110.94604024999946,"velocity":0.5039370078740157,"duration":0.13457218645832825},{"name":"E3","midi":52,"time":111.08117549999945,"velocity":0.5039370078740157,"duration":0.13457218645832825},{"name":"E3","midi":52,"time":111.08117549999945,"velocity":0.5039370078740157,"duration":0.13457218645832825},{"name":"E3","midi":52,"time":111.08117549999945,"velocity":0.5039370078740157,"duration":0.13457218645832825},{"name":"E3","midi":52,"time":111.08117549999945,"velocity":0.5039370078740157,"duration":0.13457218645832825},{"name":"E3","midi":52,"time":111.08117549999945,"velocity":0.5039370078740157,"duration":0.13457218645832825},{"name":"E3","midi":52,"time":111.08117549999945,"velocity":0.5039370078740157,"duration":0.13457218645832825},{"name":"E3","midi":52,"time":111.08117549999945,"velocity":0.5039370078740157,"duration":0.13457218645832825},{"name":"E3","midi":52,"time":111.08117549999945,"velocity":0.5039370078740157,"duration":0.13457218645832825},{"name":"B3","midi":59,"time":111.21631074999944,"velocity":0.5039370078740157,"duration":0.13457218645832825},{"name":"B3","midi":59,"time":111.21631074999944,"velocity":0.5039370078740157,"duration":0.13457218645832825},{"name":"B3","midi":59,"time":111.21631074999944,"velocity":0.5039370078740157,"duration":0.13457218645832825},{"name":"B3","midi":59,"time":111.21631074999944,"velocity":0.5039370078740157,"duration":0.13457218645832825},{"name":"B3","midi":59,"time":111.21631074999944,"velocity":0.5039370078740157,"duration":0.13457218645832825},{"name":"B3","midi":59,"time":111.21631074999944,"velocity":0.5039370078740157,"duration":0.13457218645832825},{"name":"B3","midi":59,"time":111.21631074999944,"velocity":0.5039370078740157,"duration":0.13457218645832825},{"name":"B3","midi":59,"time":111.21631074999944,"velocity":0.5039370078740157,"duration":0.13457218645832825},{"name":"B3","midi":59,"time":111.35144599999943,"velocity":0.5039370078740157,"duration":0.13457218645832825},{"name":"B3","midi":59,"time":111.35144599999943,"velocity":0.5039370078740157,"duration":0.13457218645832825},{"name":"B3","midi":59,"time":111.35144599999943,"velocity":0.5039370078740157,"duration":0.13457218645832825},{"name":"B3","midi":59,"time":111.35144599999943,"velocity":0.5039370078740157,"duration":0.13457218645832825},{"name":"B3","midi":59,"time":111.35144599999943,"velocity":0.5039370078740157,"duration":0.13457218645832825},{"name":"B3","midi":59,"time":111.35144599999943,"velocity":0.5039370078740157,"duration":0.13457218645832825},{"name":"B3","midi":59,"time":111.35144599999943,"velocity":0.5039370078740157,"duration":0.13457218645832825},{"name":"B3","midi":59,"time":111.35144599999943,"velocity":0.5039370078740157,"duration":0.13457218645832825},{"name":"E3","midi":52,"time":111.48658124999942,"velocity":0.5039370078740157,"duration":0.13457218645832825},{"name":"E3","midi":52,"time":111.48658124999942,"velocity":0.5039370078740157,"duration":0.13457218645832825},{"name":"E3","midi":52,"time":111.48658124999942,"velocity":0.5039370078740157,"duration":0.13457218645832825},{"name":"E3","midi":52,"time":111.48658124999942,"velocity":0.5039370078740157,"duration":0.13457218645832825},{"name":"E3","midi":52,"time":111.48658124999942,"velocity":0.5039370078740157,"duration":0.13457218645832825},{"name":"E3","midi":52,"time":111.48658124999942,"velocity":0.5039370078740157,"duration":0.13457218645832825},{"name":"E3","midi":52,"time":111.48658124999942,"velocity":0.5039370078740157,"duration":0.13457218645832825},{"name":"E3","midi":52,"time":111.48658124999942,"velocity":0.5039370078740157,"duration":0.13457218645832825},{"name":"A#3","midi":58,"time":111.62171649999941,"velocity":0.5039370078740157,"duration":0.13457218645832825},{"name":"A#3","midi":58,"time":111.62171649999941,"velocity":0.5039370078740157,"duration":0.13457218645832825},{"name":"A#3","midi":58,"time":111.62171649999941,"velocity":0.5039370078740157,"duration":0.13457218645832825},{"name":"A#3","midi":58,"time":111.62171649999941,"velocity":0.5039370078740157,"duration":0.13457218645832825},{"name":"A#3","midi":58,"time":111.62171649999941,"velocity":0.5039370078740157,"duration":0.13457218645832825},{"name":"A#3","midi":58,"time":111.62171649999941,"velocity":0.5039370078740157,"duration":0.13457218645832825},{"name":"A#3","midi":58,"time":111.62171649999941,"velocity":0.5039370078740157,"duration":0.13457218645832825},{"name":"A#3","midi":58,"time":111.62171649999941,"velocity":0.5039370078740157,"duration":0.13457218645832825},{"name":"E3","midi":52,"time":111.7568517499994,"velocity":0.5039370078740157,"duration":0.13457218645832825},{"name":"E3","midi":52,"time":111.7568517499994,"velocity":0.5039370078740157,"duration":0.13457218645832825},{"name":"E3","midi":52,"time":111.89198699999939,"velocity":0.5039370078740157,"duration":0.13457218645832825},{"name":"E3","midi":52,"time":111.89198699999939,"velocity":0.5039370078740157,"duration":0.13457218645832825},{"name":"B3","midi":59,"time":112.02712224999938,"velocity":0.5039370078740157,"duration":0.13457218645832825},{"name":"B3","midi":59,"time":112.02712224999938,"velocity":0.5039370078740157,"duration":0.13457218645832825},{"name":"B3","midi":59,"time":112.16225749999937,"velocity":0.5039370078740157,"duration":0.13457218645832825},{"name":"B3","midi":59,"time":112.16225749999937,"velocity":0.5039370078740157,"duration":0.13457218645832825},{"name":"E3","midi":52,"time":112.29739274999936,"velocity":0.5039370078740157,"duration":0.13457218645832825},{"name":"E3","midi":52,"time":112.29739274999936,"velocity":0.5039370078740157,"duration":0.13457218645832825},{"name":"A#3","midi":58,"time":112.43252799999935,"velocity":0.5039370078740157,"duration":0.13457218645832825},{"name":"A#3","midi":58,"time":112.43252799999935,"velocity":0.5039370078740157,"duration":0.13457218645832825},{"name":"A#3","midi":58,"time":112.56766324999934,"velocity":0.5039370078740157,"duration":0.13457218645832825},{"name":"A#3","midi":58,"time":112.56766324999934,"velocity":0.5039370078740157,"duration":0.13457218645832825},{"name":"E3","midi":52,"time":112.70279849999933,"velocity":0.5039370078740157,"duration":0.13457218645832825},{"name":"E3","midi":52,"time":112.70279849999933,"velocity":0.5039370078740157,"duration":0.13457218645832825},{"name":"B3","midi":59,"time":112.83793374999932,"velocity":0.5039370078740157,"duration":0.13457218645832825},{"name":"B3","midi":59,"time":112.83793374999932,"velocity":0.5039370078740157,"duration":0.13457218645832825},{"name":"B3","midi":59,"time":112.97306899999931,"velocity":0.5039370078740157,"duration":0.13457218645832825},{"name":"B3","midi":59,"time":112.97306899999931,"velocity":0.5039370078740157,"duration":0.13457218645832825},{"name":"E3","midi":52,"time":113.1082042499993,"velocity":0.5039370078740157,"duration":0.13457218645832825},{"name":"E3","midi":52,"time":113.1082042499993,"velocity":0.5039370078740157,"duration":0.13457218645832825},{"name":"A#3","midi":58,"time":113.2433394999993,"velocity":0.5039370078740157,"duration":0.13457218645832825},{"name":"A#3","midi":58,"time":113.2433394999993,"velocity":0.5039370078740157,"duration":0.13457218645832825},{"name":"A#3","midi":58,"time":113.37847474999928,"velocity":0.5039370078740157,"duration":0.13457218645832825},{"name":"A#3","midi":58,"time":113.37847474999928,"velocity":0.5039370078740157,"duration":0.13457218645832825},{"name":"E3","midi":52,"time":113.51360999999928,"velocity":0.5039370078740157,"duration":0.13457218645832825},{"name":"E3","midi":52,"time":113.51360999999928,"velocity":0.5039370078740157,"duration":0.13457218645832825},{"name":"B3","midi":59,"time":113.64874524999927,"velocity":0.5039370078740157,"duration":0.13457218645832825},{"name":"B3","midi":59,"time":113.64874524999927,"velocity":0.5039370078740157,"duration":0.13457218645832825},{"name":"E3","midi":52,"time":113.78388049999926,"velocity":0.5039370078740157,"duration":0.13457218645832825},{"name":"E3","midi":52,"time":113.78388049999926,"velocity":0.5039370078740157,"duration":0.13457218645832825},{"name":"C4","midi":60,"time":113.91901574999925,"velocity":0.5039370078740157,"duration":0.13457218645832825},{"name":"C4","midi":60,"time":113.91901574999925,"velocity":0.5039370078740157,"duration":0.13457218645832825},{"name":"E3","midi":52,"time":114.05415099999924,"velocity":0.5039370078740157,"duration":0.13457218645832825},{"name":"E3","midi":52,"time":114.05415099999924,"velocity":0.5039370078740157,"duration":0.13457218645832825},{"name":"B3","midi":59,"time":114.18928624999923,"velocity":0.5039370078740157,"duration":0.13457218645832825},{"name":"B3","midi":59,"time":114.18928624999923,"velocity":0.5039370078740157,"duration":0.13457218645832825},{"name":"B3","midi":59,"time":114.32442149999922,"velocity":0.5039370078740157,"duration":0.13457218645832825},{"name":"B3","midi":59,"time":114.32442149999922,"velocity":0.5039370078740157,"duration":0.13457218645832825},{"name":"E3","midi":52,"time":114.45955674999921,"velocity":0.5039370078740157,"duration":0.13457218645832825},{"name":"E3","midi":52,"time":114.45955674999921,"velocity":0.5039370078740157,"duration":0.13457218645832825},{"name":"A#3","midi":58,"time":114.5946919999992,"velocity":0.5039370078740157,"duration":0.13457218645832825},{"name":"A#3","midi":58,"time":114.5946919999992,"velocity":0.5039370078740157,"duration":0.13457218645832825},{"name":"A#3","midi":58,"time":114.72982724999919,"velocity":0.5039370078740157,"duration":0.13457218645832825},{"name":"A#3","midi":58,"time":114.72982724999919,"velocity":0.5039370078740157,"duration":0.13457218645832825},{"name":"E3","midi":52,"time":114.86496249999918,"velocity":0.5039370078740157,"duration":0.13457218645832825},{"name":"E3","midi":52,"time":114.86496249999918,"velocity":0.5039370078740157,"duration":0.13457218645832825},{"name":"B3","midi":59,"time":115.00009774999917,"velocity":0.5039370078740157,"duration":0.13457218645832825},{"name":"B3","midi":59,"time":115.00009774999917,"velocity":0.5039370078740157,"duration":0.13457218645832825},{"name":"B3","midi":59,"time":115.13523299999916,"velocity":0.5039370078740157,"duration":0.13457218645832825},{"name":"B3","midi":59,"time":115.13523299999916,"velocity":0.5039370078740157,"duration":0.13457218645832825},{"name":"E3","midi":52,"time":115.27036824999915,"velocity":0.5039370078740157,"duration":0.13457218645832825},{"name":"E3","midi":52,"time":115.27036824999915,"velocity":0.5039370078740157,"duration":0.13457218645832825},{"name":"A#3","midi":58,"time":115.40550349999914,"velocity":0.5039370078740157,"duration":0.13457218645832825},{"name":"A#3","midi":58,"time":115.40550349999914,"velocity":0.5039370078740157,"duration":0.13457218645832825},{"name":"E3","midi":52,"time":115.54063874999913,"velocity":0.5039370078740157,"duration":0.13457218645832825},{"name":"E3","midi":52,"time":115.54063874999913,"velocity":0.5039370078740157,"duration":0.13457218645832825},{"name":"E3","midi":52,"time":115.67577399999912,"velocity":0.5039370078740157,"duration":0.13457218645832825},{"name":"B3","midi":59,"time":115.81090924999911,"velocity":0.5039370078740157,"duration":0.13457218645832825},{"name":"B3","midi":59,"time":115.81090924999911,"velocity":0.5039370078740157,"duration":0.13457218645832825},{"name":"B3","midi":59,"time":115.9460444999991,"velocity":0.5039370078740157,"duration":0.13457218645832825},{"name":"B3","midi":59,"time":115.9460444999991,"velocity":0.5039370078740157,"duration":0.13457218645832825},{"name":"E3","midi":52,"time":116.0811797499991,"velocity":0.5039370078740157,"duration":0.13457218645832825},{"name":"E3","midi":52,"time":116.0811797499991,"velocity":0.5039370078740157,"duration":0.13457218645832825},{"name":"A#3","midi":58,"time":116.21631499999908,"velocity":0.5039370078740157,"duration":0.13457218645832825},{"name":"A#3","midi":58,"time":116.21631499999908,"velocity":0.5039370078740157,"duration":0.13457218645832825},{"name":"A#3","midi":58,"time":116.35145024999908,"velocity":0.5039370078740157,"duration":0.13457218645832825},{"name":"A#3","midi":58,"time":116.35145024999908,"velocity":0.5039370078740157,"duration":0.13457218645832825},{"name":"E3","midi":52,"time":116.48658549999907,"velocity":0.5039370078740157,"duration":0.13457218645832825},{"name":"E3","midi":52,"time":116.48658549999907,"velocity":0.5039370078740157,"duration":0.13457218645832825},{"name":"B3","midi":59,"time":116.62172074999906,"velocity":0.5039370078740157,"duration":0.13457218645832825},{"name":"B3","midi":59,"time":116.62172074999906,"velocity":0.5039370078740157,"duration":0.13457218645832825},{"name":"B3","midi":59,"time":116.75685599999905,"velocity":0.5039370078740157,"duration":0.13457218645832825},{"name":"B3","midi":59,"time":116.75685599999905,"velocity":0.5039370078740157,"duration":0.13457218645832825},{"name":"E3","midi":52,"time":116.89199124999904,"velocity":0.5039370078740157,"duration":0.13457218645832825},{"name":"E3","midi":52,"time":116.89199124999904,"velocity":0.5039370078740157,"duration":0.13457218645832825},{"name":"A#3","midi":58,"time":117.02712649999903,"velocity":0.5039370078740157,"duration":0.13457218645832825},{"name":"A#3","midi":58,"time":117.02712649999903,"velocity":0.5039370078740157,"duration":0.13457218645832825},{"name":"A#3","midi":58,"time":117.16226174999902,"velocity":0.5039370078740157,"duration":0.13457218645832825},{"name":"A#3","midi":58,"time":117.16226174999902,"velocity":0.5039370078740157,"duration":0.13457218645832825},{"name":"E3","midi":52,"time":117.29739699999901,"velocity":0.5039370078740157,"duration":0.13457218645832825},{"name":"E3","midi":52,"time":117.29739699999901,"velocity":0.5039370078740157,"duration":0.13457218645832825},{"name":"B3","midi":59,"time":117.432532249999,"velocity":0.5039370078740157,"duration":0.13457218645832825},{"name":"B3","midi":59,"time":117.432532249999,"velocity":0.5039370078740157,"duration":0.13457218645832825},{"name":"E3","midi":52,"time":117.56766749999899,"velocity":0.5039370078740157,"duration":0.13457218645832825},{"name":"E3","midi":52,"time":117.56766749999899,"velocity":0.5039370078740157,"duration":0.13457218645832825},{"name":"C4","midi":60,"time":117.70280274999898,"velocity":0.5039370078740157,"duration":0.13457218645832825},{"name":"C4","midi":60,"time":117.70280274999898,"velocity":0.5039370078740157,"duration":0.13457218645832825},{"name":"E3","midi":52,"time":117.83793799999897,"velocity":0.5039370078740157,"duration":0.13457218645832825},{"name":"E3","midi":52,"time":117.83793799999897,"velocity":0.5039370078740157,"duration":0.13457218645832825},{"name":"B3","midi":59,"time":117.97307324999896,"velocity":0.5039370078740157,"duration":0.13457218645832825},{"name":"B3","midi":59,"time":117.97307324999896,"velocity":0.5039370078740157,"duration":0.13457218645832825},{"name":"B3","midi":59,"time":117.97307324999896,"velocity":0.5039370078740157,"duration":0.13457218645832825},{"name":"B3","midi":59,"time":117.97307324999896,"velocity":0.5039370078740157,"duration":0.13457218645832825},{"name":"B3","midi":59,"time":117.97307324999896,"velocity":0.5039370078740157,"duration":0.13457218645832825},{"name":"B3","midi":59,"time":117.97307324999896,"velocity":0.5039370078740157,"duration":0.13457218645832825},{"name":"B3","midi":59,"time":117.97307324999896,"velocity":0.5039370078740157,"duration":0.13457218645832825},{"name":"B3","midi":59,"time":117.97307324999896,"velocity":0.5039370078740157,"duration":0.13457218645832825},{"name":"B3","midi":59,"time":118.10820849999895,"velocity":0.5039370078740157,"duration":0.13457218645832825},{"name":"B3","midi":59,"time":118.10820849999895,"velocity":0.5039370078740157,"duration":0.13457218645832825},{"name":"B3","midi":59,"time":118.10820849999895,"velocity":0.5039370078740157,"duration":0.13457218645832825},{"name":"B3","midi":59,"time":118.10820849999895,"velocity":0.5039370078740157,"duration":0.13457218645832825},{"name":"B3","midi":59,"time":118.10820849999895,"velocity":0.5039370078740157,"duration":0.13457218645832825},{"name":"B3","midi":59,"time":118.10820849999895,"velocity":0.5039370078740157,"duration":0.13457218645832825},{"name":"B3","midi":59,"time":118.10820849999895,"velocity":0.5039370078740157,"duration":0.13457218645832825},{"name":"B3","midi":59,"time":118.10820849999895,"velocity":0.5039370078740157,"duration":0.13457218645832825},{"name":"E3","midi":52,"time":118.24334374999894,"velocity":0.5039370078740157,"duration":0.13457218645832825},{"name":"E3","midi":52,"time":118.24334374999894,"velocity":0.5039370078740157,"duration":0.13457218645832825},{"name":"E3","midi":52,"time":118.24334374999894,"velocity":0.5039370078740157,"duration":0.13457218645832825},{"name":"E3","midi":52,"time":118.24334374999894,"velocity":0.5039370078740157,"duration":0.13457218645832825},{"name":"E3","midi":52,"time":118.24334374999894,"velocity":0.5039370078740157,"duration":0.13457218645832825},{"name":"E3","midi":52,"time":118.24334374999894,"velocity":0.5039370078740157,"duration":0.13457218645832825},{"name":"E3","midi":52,"time":118.24334374999894,"velocity":0.5039370078740157,"duration":0.13457218645832825},{"name":"E3","midi":52,"time":118.24334374999894,"velocity":0.5039370078740157,"duration":0.13457218645832825},{"name":"A#3","midi":58,"time":118.37847899999893,"velocity":0.5039370078740157,"duration":0.13457218645832825},{"name":"A#3","midi":58,"time":118.37847899999893,"velocity":0.5039370078740157,"duration":0.13457218645832825},{"name":"A#3","midi":58,"time":118.37847899999893,"velocity":0.5039370078740157,"duration":0.13457218645832825},{"name":"A#3","midi":58,"time":118.37847899999893,"velocity":0.5039370078740157,"duration":0.13457218645832825},{"name":"A#3","midi":58,"time":118.37847899999893,"velocity":0.5039370078740157,"duration":0.13457218645832825},{"name":"A#3","midi":58,"time":118.37847899999893,"velocity":0.5039370078740157,"duration":0.13457218645832825},{"name":"A#3","midi":58,"time":118.37847899999893,"velocity":0.5039370078740157,"duration":0.13457218645832825},{"name":"A#3","midi":58,"time":118.37847899999893,"velocity":0.5039370078740157,"duration":0.13457218645832825},{"name":"A#3","midi":58,"time":118.51361424999892,"velocity":0.5039370078740157,"duration":0.13457218645832825},{"name":"A#3","midi":58,"time":118.51361424999892,"velocity":0.5039370078740157,"duration":0.13457218645832825},{"name":"A#3","midi":58,"time":118.51361424999892,"velocity":0.5039370078740157,"duration":0.13457218645832825},{"name":"A#3","midi":58,"time":118.51361424999892,"velocity":0.5039370078740157,"duration":0.13457218645832825},{"name":"A#3","midi":58,"time":118.51361424999892,"velocity":0.5039370078740157,"duration":0.13457218645832825},{"name":"A#3","midi":58,"time":118.51361424999892,"velocity":0.5039370078740157,"duration":0.13457218645832825},{"name":"A#3","midi":58,"time":118.51361424999892,"velocity":0.5039370078740157,"duration":0.13457218645832825},{"name":"A#3","midi":58,"time":118.51361424999892,"velocity":0.5039370078740157,"duration":0.13457218645832825},{"name":"E3","midi":52,"time":118.64874949999891,"velocity":0.5039370078740157,"duration":0.13457218645832825},{"name":"E3","midi":52,"time":118.64874949999891,"velocity":0.5039370078740157,"duration":0.13457218645832825},{"name":"E3","midi":52,"time":118.64874949999891,"velocity":0.5039370078740157,"duration":0.13457218645832825},{"name":"E3","midi":52,"time":118.64874949999891,"velocity":0.5039370078740157,"duration":0.13457218645832825},{"name":"E3","midi":52,"time":118.64874949999891,"velocity":0.5039370078740157,"duration":0.13457218645832825},{"name":"E3","midi":52,"time":118.64874949999891,"velocity":0.5039370078740157,"duration":0.13457218645832825},{"name":"E3","midi":52,"time":118.64874949999891,"velocity":0.5039370078740157,"duration":0.13457218645832825},{"name":"E3","midi":52,"time":118.64874949999891,"velocity":0.5039370078740157,"duration":0.13457218645832825},{"name":"B3","midi":59,"time":118.7838847499989,"velocity":0.5039370078740157,"duration":0.13457218645832825},{"name":"B3","midi":59,"time":118.7838847499989,"velocity":0.5039370078740157,"duration":0.13457218645832825},{"name":"B3","midi":59,"time":118.7838847499989,"velocity":0.5039370078740157,"duration":0.13457218645832825},{"name":"B3","midi":59,"time":118.7838847499989,"velocity":0.5039370078740157,"duration":0.13457218645832825},{"name":"B3","midi":59,"time":118.7838847499989,"velocity":0.5039370078740157,"duration":0.13457218645832825},{"name":"B3","midi":59,"time":118.7838847499989,"velocity":0.5039370078740157,"duration":0.13457218645832825},{"name":"B3","midi":59,"time":118.7838847499989,"velocity":0.5039370078740157,"duration":0.13457218645832825},{"name":"B3","midi":59,"time":118.7838847499989,"velocity":0.5039370078740157,"duration":0.13457218645832825},{"name":"B3","midi":59,"time":118.9190199999989,"velocity":0.5039370078740157,"duration":0.13457218645832825},{"name":"B3","midi":59,"time":118.9190199999989,"velocity":0.5039370078740157,"duration":0.13457218645832825},{"name":"B3","midi":59,"time":118.9190199999989,"velocity":0.5039370078740157,"duration":0.13457218645832825},{"name":"B3","midi":59,"time":118.9190199999989,"velocity":0.5039370078740157,"duration":0.13457218645832825},{"name":"B3","midi":59,"time":118.9190199999989,"velocity":0.5039370078740157,"duration":0.13457218645832825},{"name":"B3","midi":59,"time":118.9190199999989,"velocity":0.5039370078740157,"duration":0.13457218645832825},{"name":"B3","midi":59,"time":118.9190199999989,"velocity":0.5039370078740157,"duration":0.13457218645832825},{"name":"B3","midi":59,"time":118.9190199999989,"velocity":0.5039370078740157,"duration":0.13457218645832825},{"name":"E3","midi":52,"time":119.05415524999889,"velocity":0.5039370078740157,"duration":0.13457218645832825},{"name":"E3","midi":52,"time":119.05415524999889,"velocity":0.5039370078740157,"duration":0.13457218645832825},{"name":"E3","midi":52,"time":119.05415524999889,"velocity":0.5039370078740157,"duration":0.13457218645832825},{"name":"E3","midi":52,"time":119.05415524999889,"velocity":0.5039370078740157,"duration":0.13457218645832825},{"name":"E3","midi":52,"time":119.05415524999889,"velocity":0.5039370078740157,"duration":0.13457218645832825},{"name":"E3","midi":52,"time":119.05415524999889,"velocity":0.5039370078740157,"duration":0.13457218645832825},{"name":"E3","midi":52,"time":119.05415524999889,"velocity":0.5039370078740157,"duration":0.13457218645832825},{"name":"E3","midi":52,"time":119.05415524999889,"velocity":0.5039370078740157,"duration":0.13457218645832825},{"name":"A#3","midi":58,"time":119.18929049999888,"velocity":0.5039370078740157,"duration":0.13457218645832825},{"name":"A#3","midi":58,"time":119.18929049999888,"velocity":0.5039370078740157,"duration":0.13457218645832825},{"name":"A#3","midi":58,"time":119.18929049999888,"velocity":0.5039370078740157,"duration":0.13457218645832825},{"name":"A#3","midi":58,"time":119.18929049999888,"velocity":0.5039370078740157,"duration":0.13457218645832825},{"name":"A#3","midi":58,"time":119.18929049999888,"velocity":0.5039370078740157,"duration":0.13457218645832825},{"name":"A#3","midi":58,"time":119.18929049999888,"velocity":0.5039370078740157,"duration":0.13457218645832825},{"name":"A#3","midi":58,"time":119.18929049999888,"velocity":0.5039370078740157,"duration":0.13457218645832825},{"name":"A#3","midi":58,"time":119.18929049999888,"velocity":0.5039370078740157,"duration":0.13457218645832825},{"name":"E3","midi":52,"time":119.32442574999887,"velocity":0.5039370078740157,"duration":0.13457218645832825},{"name":"E3","midi":52,"time":119.32442574999887,"velocity":0.5039370078740157,"duration":0.13457218645832825},{"name":"E3","midi":52,"time":119.45956099999886,"velocity":0.5039370078740157,"duration":0.13457218645832825},{"name":"E3","midi":52,"time":119.45956099999886,"velocity":0.5039370078740157,"duration":0.13457218645832825},{"name":"B3","midi":59,"time":119.59469624999885,"velocity":0.5039370078740157,"duration":0.13457218645832825},{"name":"B3","midi":59,"time":119.59469624999885,"velocity":0.5039370078740157,"duration":0.13457218645832825},{"name":"B3","midi":59,"time":119.72983149999884,"velocity":0.5039370078740157,"duration":0.13457218645832825},{"name":"B3","midi":59,"time":119.72983149999884,"velocity":0.5039370078740157,"duration":0.13457218645832825},{"name":"E3","midi":52,"time":119.86496674999883,"velocity":0.5039370078740157,"duration":0.13457218645832825},{"name":"E3","midi":52,"time":119.86496674999883,"velocity":0.5039370078740157,"duration":0.13457218645832825},{"name":"A#3","midi":58,"time":120.00010199999882,"velocity":0.5039370078740157,"duration":0.13457218645832825},{"name":"A#3","midi":58,"time":120.00010199999882,"velocity":0.5039370078740157,"duration":0.13457218645832825},{"name":"A#3","midi":58,"time":120.13523724999881,"velocity":0.5039370078740157,"duration":0.13457218645832825},{"name":"A#3","midi":58,"time":120.13523724999881,"velocity":0.5039370078740157,"duration":0.13457218645832825},{"name":"E3","midi":52,"time":120.2703724999988,"velocity":0.5039370078740157,"duration":0.13457218645832825},{"name":"E3","midi":52,"time":120.2703724999988,"velocity":0.5039370078740157,"duration":0.13457218645832825},{"name":"B3","midi":59,"time":120.40550774999879,"velocity":0.5039370078740157,"duration":0.13457218645832825},{"name":"B3","midi":59,"time":120.40550774999879,"velocity":0.5039370078740157,"duration":0.13457218645832825},{"name":"B3","midi":59,"time":120.54064299999878,"velocity":0.5039370078740157,"duration":0.13457218645832825},{"name":"B3","midi":59,"time":120.54064299999878,"velocity":0.5039370078740157,"duration":0.13457218645832825},{"name":"E3","midi":52,"time":120.67577824999877,"velocity":0.5039370078740157,"duration":0.13457218645832825},{"name":"E3","midi":52,"time":120.67577824999877,"velocity":0.5039370078740157,"duration":0.13457218645832825},{"name":"A#3","midi":58,"time":120.81091349999876,"velocity":0.5039370078740157,"duration":0.13457218645832825},{"name":"A#3","midi":58,"time":120.81091349999876,"velocity":0.5039370078740157,"duration":0.13457218645832825},{"name":"A#3","midi":58,"time":120.94604874999875,"velocity":0.5039370078740157,"duration":0.13457218645832825},{"name":"A#3","midi":58,"time":120.94604874999875,"velocity":0.5039370078740157,"duration":0.13457218645832825},{"name":"E3","midi":52,"time":121.08118399999874,"velocity":0.5039370078740157,"duration":0.13457218645832825},{"name":"E3","midi":52,"time":121.08118399999874,"velocity":0.5039370078740157,"duration":0.13457218645832825},{"name":"B3","midi":59,"time":121.21631924999873,"velocity":0.5039370078740157,"duration":0.13457218645832825},{"name":"B3","midi":59,"time":121.21631924999873,"velocity":0.5039370078740157,"duration":0.13457218645832825},{"name":"E3","midi":52,"time":121.35145449999872,"velocity":0.5039370078740157,"duration":0.13457218645832825},{"name":"E3","midi":52,"time":121.35145449999872,"velocity":0.5039370078740157,"duration":0.13457218645832825},{"name":"C4","midi":60,"time":121.48658974999871,"velocity":0.5039370078740157,"duration":0.13457218645832825},{"name":"C4","midi":60,"time":121.48658974999871,"velocity":0.5039370078740157,"duration":0.13457218645832825},{"name":"E3","midi":52,"time":121.6217249999987,"velocity":0.5039370078740157,"duration":0.13457218645832825},{"name":"E3","midi":52,"time":121.6217249999987,"velocity":0.5039370078740157,"duration":0.13457218645832825},{"name":"B3","midi":59,"time":121.7568602499987,"velocity":0.5039370078740157,"duration":0.13457218645832825},{"name":"B3","midi":59,"time":121.7568602499987,"velocity":0.5039370078740157,"duration":0.13457218645832825},{"name":"B3","midi":59,"time":121.89199549999869,"velocity":0.5039370078740157,"duration":0.13457218645832825},{"name":"B3","midi":59,"time":121.89199549999869,"velocity":0.5039370078740157,"duration":0.13457218645832825},{"name":"E3","midi":52,"time":122.02713074999868,"velocity":0.5039370078740157,"duration":0.13457218645832825},{"name":"E3","midi":52,"time":122.02713074999868,"velocity":0.5039370078740157,"duration":0.13457218645832825},{"name":"A#3","midi":58,"time":122.16226599999867,"velocity":0.5039370078740157,"duration":0.13457218645832825},{"name":"A#3","midi":58,"time":122.16226599999867,"velocity":0.5039370078740157,"duration":0.13457218645832825},{"name":"A#3","midi":58,"time":122.29740124999866,"velocity":0.5039370078740157,"duration":0.13457218645832825},{"name":"A#3","midi":58,"time":122.29740124999866,"velocity":0.5039370078740157,"duration":0.13457218645832825},{"name":"E3","midi":52,"time":122.43253649999865,"velocity":0.5039370078740157,"duration":0.13457218645832825},{"name":"E3","midi":52,"time":122.43253649999865,"velocity":0.5039370078740157,"duration":0.13457218645832825},{"name":"B3","midi":59,"time":122.56767174999864,"velocity":0.5039370078740157,"duration":0.13457218645832825},{"name":"B3","midi":59,"time":122.56767174999864,"velocity":0.5039370078740157,"duration":0.13457218645832825},{"name":"B3","midi":59,"time":122.70280699999863,"velocity":0.5039370078740157,"duration":0.13457218645832825},{"name":"B3","midi":59,"time":122.70280699999863,"velocity":0.5039370078740157,"duration":0.13457218645832825},{"name":"E3","midi":52,"time":122.83794224999862,"velocity":0.5039370078740157,"duration":0.13457218645832825},{"name":"E3","midi":52,"time":122.83794224999862,"velocity":0.5039370078740157,"duration":0.13457218645832825},{"name":"A#3","midi":58,"time":122.97307749999861,"velocity":0.5039370078740157,"duration":0.13457218645832825},{"name":"A#3","midi":58,"time":122.97307749999861,"velocity":0.5039370078740157,"duration":0.13457218645832825},{"name":"E3","midi":52,"time":123.1082127499986,"velocity":0.5039370078740157,"duration":0.13457218645832825},{"name":"E3","midi":52,"time":123.1082127499986,"velocity":0.5039370078740157,"duration":0.13457218645832825},{"name":"E4","midi":64,"time":153.5136439999986,"velocity":0.5039370078740157,"duration":0.13457218645834246},{"name":"E4","midi":64,"time":153.64877924999863,"velocity":0.5039370078740157,"duration":0.13457218645834246},{"name":"E4","midi":64,"time":153.78391449999864,"velocity":0.5039370078740157,"duration":0.13457218645834246},{"name":"E4","midi":64,"time":153.91904974999866,"velocity":0.5039370078740157,"duration":0.13457218645834246},{"name":"E3","midi":52,"time":154.32445549999866,"velocity":0.5039370078740157,"duration":0.13457218645834246},{"name":"E3","midi":52,"time":154.45959074999868,"velocity":0.5039370078740157,"duration":0.13457218645834246},{"name":"E3","midi":52,"time":154.5947259999987,"velocity":0.5039370078740157,"duration":0.13457218645834246},{"name":"E3","midi":52,"time":154.72986124999872,"velocity":0.5039370078740157,"duration":0.13457218645834246},{"name":"E4","midi":64,"time":155.13526699999872,"velocity":0.5039370078740157,"duration":0.13457218645834246},{"name":"E4","midi":64,"time":155.27040224999874,"velocity":0.5039370078740157,"duration":0.13457218645834246},{"name":"E4","midi":64,"time":155.40553749999876,"velocity":0.5039370078740157,"duration":0.13457218645834246},{"name":"E4","midi":64,"time":155.54067274999878,"velocity":0.5039370078740157,"duration":0.13457218645834246},{"name":"E3","midi":52,"time":155.94607849999878,"velocity":0.5039370078740157,"duration":0.13457218645834246},{"name":"E3","midi":52,"time":156.0812137499988,"velocity":0.5039370078740157,"duration":0.13457218645834246},{"name":"E3","midi":52,"time":156.21634899999881,"velocity":0.5039370078740157,"duration":0.13457218645834246},{"name":"E3","midi":52,"time":156.35148424999883,"velocity":0.5039370078740157,"duration":0.13457218645834246},{"name":"E4","midi":64,"time":157.29743099999885,"velocity":0.5039370078740157,"duration":0.13457218645834246},{"name":"E4","midi":64,"time":157.43256624999887,"velocity":0.5039370078740157,"duration":0.13457218645834246},{"name":"E4","midi":64,"time":157.5677014999989,"velocity":0.5039370078740157,"duration":0.13457218645834246},{"name":"E4","midi":64,"time":157.7028367499989,"velocity":0.5039370078740157,"duration":0.13457218645834246},{"name":"E3","midi":52,"time":158.1082424999989,"velocity":0.5039370078740157,"duration":0.13457218645834246},{"name":"E3","midi":52,"time":158.24337774999893,"velocity":0.5039370078740157,"duration":0.13457218645834246},{"name":"E3","midi":52,"time":158.37851299999895,"velocity":0.5039370078740157,"duration":0.13457218645834246},{"name":"E3","midi":52,"time":158.51364824999897,"velocity":0.5039370078740157,"duration":0.13457218645834246},{"name":"E4","midi":64,"time":158.91905399999897,"velocity":0.5039370078740157,"duration":0.13457218645834246},{"name":"E4","midi":64,"time":159.05418924999898,"velocity":0.5039370078740157,"duration":0.13457218645834246},{"name":"E4","midi":64,"time":159.189324499999,"velocity":0.5039370078740157,"duration":0.13457218645834246},{"name":"E4","midi":64,"time":159.32445974999902,"velocity":0.5039370078740157,"duration":0.13457218645834246},{"name":"E3","midi":52,"time":159.72986549999902,"velocity":0.5039370078740157,"duration":0.13457218645834246},{"name":"E3","midi":52,"time":159.86500074999904,"velocity":0.5039370078740157,"duration":0.13457218645834246},{"name":"E3","midi":52,"time":160.00013599999906,"velocity":0.5039370078740157,"duration":0.13457218645834246},{"name":"E3","midi":52,"time":160.13527124999908,"velocity":0.5039370078740157,"duration":0.13457218645834246},{"name":"E4","midi":64,"time":161.0812179999991,"velocity":0.5039370078740157,"duration":0.13457218645834246},{"name":"G#4","midi":68,"time":161.21635324999912,"velocity":0.5039370078740157,"duration":0.13457218645834246},{"name":"E4","midi":64,"time":161.35148849999914,"velocity":0.5039370078740157,"duration":0.13457218645834246},{"name":"B3","midi":59,"time":161.48662374999915,"velocity":0.5039370078740157,"duration":0.13457218645834246},{"name":"F#4","midi":66,"time":161.62175899999917,"velocity":0.5039370078740157,"duration":0.13457218645834246},{"name":"D4","midi":62,"time":161.7568942499992,"velocity":0.5039370078740157,"duration":0.13457218645834246},{"name":"B3","midi":59,"time":161.8920294999992,"velocity":0.5039370078740157,"duration":0.13457218645834246},{"name":"E4","midi":64,"time":162.02716474999923,"velocity":0.5039370078740157,"duration":0.13457218645834246},{"name":"C#4","midi":61,"time":162.16229999999925,"velocity":0.5039370078740157,"duration":0.13457218645834246},{"name":"A3","midi":57,"time":162.29743524999927,"velocity":0.5039370078740157,"duration":0.13457218645834246},{"name":"B3","midi":59,"time":162.4325704999993,"velocity":0.5039370078740157,"duration":0.13457218645834246},{"name":"G#3","midi":56,"time":162.5677057499993,"velocity":0.5039370078740157,"duration":0.13457218645834246},{"name":"A3","midi":57,"time":162.70284099999932,"velocity":0.5039370078740157,"duration":0.13457218645834246},{"name":"B3","midi":59,"time":162.83797624999934,"velocity":0.5039370078740157,"duration":0.13457218645834246},{"name":"E4","midi":64,"time":162.97311149999936,"velocity":0.5039370078740157,"duration":0.13457218645834246},{"name":"D4","midi":62,"time":163.10824674999938,"velocity":0.5039370078740157,"duration":0.13457218645834246},{"name":"G#4","midi":68,"time":163.2433819999994,"velocity":0.5039370078740157,"duration":0.13457218645834246},{"name":"E4","midi":64,"time":163.37851724999942,"velocity":0.5039370078740157,"duration":0.13457218645834246},{"name":"B3","midi":59,"time":163.51365249999944,"velocity":0.5039370078740157,"duration":0.13457218645834246},{"name":"F#4","midi":66,"time":163.64878774999946,"velocity":0.5039370078740157,"duration":0.13457218645834246},{"name":"D4","midi":62,"time":163.78392299999948,"velocity":0.5039370078740157,"duration":0.13457218645834246},{"name":"B3","midi":59,"time":163.9190582499995,"velocity":0.5039370078740157,"duration":0.13457218645834246},{"name":"E4","midi":64,"time":164.0541934999995,"velocity":0.5039370078740157,"duration":0.13457218645834246},{"name":"C#4","midi":61,"time":164.18932874999953,"velocity":0.5039370078740157,"duration":0.13457218645834246},{"name":"A3","midi":57,"time":164.32446399999955,"velocity":0.5039370078740157,"duration":0.13457218645834246},{"name":"C#4","midi":61,"time":164.45959924999957,"velocity":0.5039370078740157,"duration":0.13457218645834246},{"name":"B3","midi":59,"time":164.5947344999996,"velocity":0.5039370078740157,"duration":0.13457218645834246},{"name":"G#3","midi":56,"time":164.7298697499996,"velocity":0.5039370078740157,"duration":0.13457218645834246},{"name":"E4","midi":64,"time":164.86500499999963,"velocity":0.5039370078740157,"duration":0.13457218645834246},{"name":"G#4","midi":68,"time":165.00014024999965,"velocity":0.5039370078740157,"duration":0.13457218645834246},{"name":"E4","midi":64,"time":165.13527549999966,"velocity":0.5039370078740157,"duration":0.13457218645834246},{"name":"B3","midi":59,"time":165.27041074999968,"velocity":0.5039370078740157,"duration":0.13457218645834246},{"name":"F#4","midi":66,"time":165.4055459999997,"velocity":0.5039370078740157,"duration":0.13457218645834246},{"name":"D4","midi":62,"time":165.54068124999972,"velocity":0.5039370078740157,"duration":0.13457218645834246},{"name":"B3","midi":59,"time":165.67581649999974,"velocity":0.5039370078740157,"duration":0.13457218645834246},{"name":"E4","midi":64,"time":165.81095174999976,"velocity":0.5039370078740157,"duration":0.13457218645834246},{"name":"C#4","midi":61,"time":165.94608699999978,"velocity":0.5039370078740157,"duration":0.13457218645834246},{"name":"A3","midi":57,"time":166.0812222499998,"velocity":0.5039370078740157,"duration":0.13457218645834246},{"name":"B3","midi":59,"time":166.21635749999982,"velocity":0.5039370078740157,"duration":0.13457218645834246},{"name":"G#3","midi":56,"time":166.35149274999984,"velocity":0.5039370078740157,"duration":0.13457218645834246},{"name":"A3","midi":57,"time":166.48662799999985,"velocity":0.5039370078740157,"duration":0.13457218645834246},{"name":"B3","midi":59,"time":166.62176324999987,"velocity":0.5039370078740157,"duration":0.13457218645834246},{"name":"E4","midi":64,"time":166.7568984999999,"velocity":0.5039370078740157,"duration":0.13457218645834246},{"name":"D4","midi":62,"time":166.8920337499999,"velocity":0.5039370078740157,"duration":0.13457218645834246},{"name":"G#4","midi":68,"time":167.02716899999993,"velocity":0.5039370078740157,"duration":0.13457218645834246},{"name":"E4","midi":64,"time":167.16230424999995,"velocity":0.5039370078740157,"duration":0.13457218645834246},{"name":"B3","midi":59,"time":167.29743949999997,"velocity":0.5039370078740157,"duration":0.13457218645834246},{"name":"F#4","midi":66,"time":167.43257475,"velocity":0.5039370078740157,"duration":0.13457218645834246},{"name":"D4","midi":62,"time":167.56771,"velocity":0.5039370078740157,"duration":0.13457218645834246},{"name":"B3","midi":59,"time":167.70284525000002,"velocity":0.5039370078740157,"duration":0.13457218645834246},{"name":"E4","midi":64,"time":167.83798050000004,"velocity":0.5039370078740157,"duration":0.13457218645834246},{"name":"C#4","midi":61,"time":167.97311575000006,"velocity":0.5039370078740157,"duration":0.13457218645834246},{"name":"A3","midi":57,"time":168.10825100000008,"velocity":0.5039370078740157,"duration":0.13457218645834246},{"name":"C#4","midi":61,"time":168.2433862500001,"velocity":0.5039370078740157,"duration":0.13457218645834246},{"name":"B3","midi":59,"time":168.37852150000012,"velocity":0.5039370078740157,"duration":0.13457218645834246},{"name":"G#3","midi":56,"time":168.51365675000014,"velocity":0.5039370078740157,"duration":0.13457218645834246},{"name":"E3","midi":52,"time":168.64879200000016,"velocity":0.5039370078740157,"duration":8.512957686458407},{"name":"E4","midi":64,"time":176.21636600000016,"velocity":0.5039370078740157,"duration":0.13457218645834246},{"name":"E4","midi":64,"time":176.35150125000018,"velocity":0.5039370078740157,"duration":0.13457218645834246},{"name":"E4","midi":64,"time":176.4866365000002,"velocity":0.5039370078740157,"duration":0.13457218645834246},{"name":"E4","midi":64,"time":176.62177175000022,"velocity":0.5039370078740157,"duration":0.13457218645834246},{"name":"E3","midi":52,"time":177.02717750000022,"velocity":0.5039370078740157,"duration":0.13457218645834246},{"name":"E3","midi":52,"time":177.16231275000024,"velocity":0.5039370078740157,"duration":0.13457218645834246},{"name":"E3","midi":52,"time":177.29744800000026,"velocity":0.5039370078740157,"duration":0.13457218645834246},{"name":"E3","midi":52,"time":177.43258325000028,"velocity":0.5039370078740157,"duration":0.13457218645834246},{"name":"E4","midi":64,"time":177.83798900000028,"velocity":0.5039370078740157,"duration":0.13457218645834246},{"name":"E4","midi":64,"time":177.9731242500003,"velocity":0.5039370078740157,"duration":0.13457218645834246},{"name":"E4","midi":64,"time":178.10825950000032,"velocity":0.5039370078740157,"duration":0.13457218645834246},{"name":"E4","midi":64,"time":178.24339475000033,"velocity":0.5039370078740157,"duration":0.13457218645834246},{"name":"E3","midi":52,"time":178.64880050000033,"velocity":0.5039370078740157,"duration":0.13457218645834246},{"name":"E3","midi":52,"time":178.78393575000035,"velocity":0.5039370078740157,"duration":0.13457218645834246},{"name":"E3","midi":52,"time":178.91907100000037,"velocity":0.5039370078740157,"duration":0.13457218645834246},{"name":"E3","midi":52,"time":179.0542062500004,"velocity":0.5039370078740157,"duration":0.13457218645834246},{"name":"E4","midi":64,"time":180.0001530000004,"velocity":0.5039370078740157,"duration":0.13457218645834246},{"name":"G#4","midi":68,"time":180.13528825000043,"velocity":0.5039370078740157,"duration":0.13457218645834246},{"name":"E4","midi":64,"time":180.27042350000045,"velocity":0.5039370078740157,"duration":0.13457218645834246},{"name":"B3","midi":59,"time":180.40555875000047,"velocity":0.5039370078740157,"duration":0.13457218645834246},{"name":"F#4","midi":66,"time":180.54069400000049,"velocity":0.5039370078740157,"duration":0.13457218645834246},{"name":"D4","midi":62,"time":180.6758292500005,"velocity":0.5039370078740157,"duration":0.13457218645834246},{"name":"B3","midi":59,"time":180.81096450000052,"velocity":0.5039370078740157,"duration":0.13457218645834246},{"name":"E4","midi":64,"time":180.94609975000054,"velocity":0.5039370078740157,"duration":0.13457218645834246},{"name":"C#4","midi":61,"time":181.08123500000056,"velocity":0.5039370078740157,"duration":0.13457218645834246},{"name":"A3","midi":57,"time":181.21637025000058,"velocity":0.5039370078740157,"duration":0.13457218645834246},{"name":"B3","midi":59,"time":181.3515055000006,"velocity":0.5039370078740157,"duration":0.13457218645834246},{"name":"G#3","midi":56,"time":181.48664075000062,"velocity":0.5039370078740157,"duration":0.13457218645834246},{"name":"A3","midi":57,"time":181.62177600000064,"velocity":0.5039370078740157,"duration":0.13457218645834246},{"name":"B3","midi":59,"time":181.75691125000066,"velocity":0.5039370078740157,"duration":0.13457218645834246},{"name":"E4","midi":64,"time":181.89204650000067,"velocity":0.5039370078740157,"duration":0.13457218645834246},{"name":"D4","midi":62,"time":182.0271817500007,"velocity":0.5039370078740157,"duration":0.13457218645834246},{"name":"G#4","midi":68,"time":182.1623170000007,"velocity":0.5039370078740157,"duration":0.13457218645834246},{"name":"E4","midi":64,"time":182.29745225000073,"velocity":0.5039370078740157,"duration":0.13457218645834246},{"name":"B3","midi":59,"time":182.43258750000075,"velocity":0.5039370078740157,"duration":0.13457218645834246},{"name":"F#4","midi":66,"time":182.56772275000077,"velocity":0.5039370078740157,"duration":0.13457218645834246},{"name":"D4","midi":62,"time":182.7028580000008,"velocity":0.5039370078740157,"duration":0.13457218645834246},{"name":"B3","midi":59,"time":182.8379932500008,"velocity":0.5039370078740157,"duration":0.13457218645834246},{"name":"E4","midi":64,"time":182.97312850000083,"velocity":0.5039370078740157,"duration":0.13457218645834246},{"name":"C#4","midi":61,"time":183.10826375000084,"velocity":0.5039370078740157,"duration":0.13457218645834246},{"name":"A3","midi":57,"time":183.24339900000086,"velocity":0.5039370078740157,"duration":0.13457218645834246},{"name":"C#4","midi":61,"time":183.37853425000088,"velocity":0.5039370078740157,"duration":0.13457218645834246},{"name":"B3","midi":59,"time":183.5136695000009,"velocity":0.5039370078740157,"duration":0.13457218645834246},{"name":"G#3","midi":56,"time":183.64880475000092,"velocity":0.5039370078740157,"duration":0.13457218645834246},{"name":"E3","midi":52,"time":183.78394000000094,"velocity":0.5039370078740157,"duration":0.13457218645834246},{"name":"B3","midi":59,"time":183.91907525000096,"velocity":0.5039370078740157,"duration":0.13457218645834246},{"name":"B3","midi":59,"time":184.05421050000098,"velocity":0.5039370078740157,"duration":0.13457218645834246},{"name":"E3","midi":52,"time":184.189345750001,"velocity":0.5039370078740157,"duration":0.13457218645834246},{"name":"A#3","midi":58,"time":184.32448100000101,"velocity":0.5039370078740157,"duration":0.13457218645834246},{"name":"A#3","midi":58,"time":184.32448100000101,"velocity":0.5039370078740157,"duration":0.13457218645834246},{"name":"A#3","midi":58,"time":184.45961625000103,"velocity":0.5039370078740157,"duration":0.13457218645834246},{"name":"A#3","midi":58,"time":184.45961625000103,"velocity":0.5039370078740157,"duration":0.13457218645834246},{"name":"E3","midi":52,"time":184.59475150000105,"velocity":0.5039370078740157,"duration":0.13457218645834246},{"name":"E3","midi":52,"time":184.59475150000105,"velocity":0.5039370078740157,"duration":0.13457218645834246},{"name":"B3","midi":59,"time":184.72988675000107,"velocity":0.5039370078740157,"duration":0.13457218645834246},{"name":"B3","midi":59,"time":184.72988675000107,"velocity":0.5039370078740157,"duration":0.13457218645834246},{"name":"B3","midi":59,"time":184.8650220000011,"velocity":0.5039370078740157,"duration":0.13457218645834246},{"name":"B3","midi":59,"time":184.8650220000011,"velocity":0.5039370078740157,"duration":0.13457218645834246},{"name":"E3","midi":52,"time":185.0001572500011,"velocity":0.5039370078740157,"duration":0.13457218645834246},{"name":"E3","midi":52,"time":185.0001572500011,"velocity":0.5039370078740157,"duration":0.13457218645834246},{"name":"A#3","midi":58,"time":185.13529250000113,"velocity":0.5039370078740157,"duration":0.13457218645834246},{"name":"A#3","midi":58,"time":185.13529250000113,"velocity":0.5039370078740157,"duration":0.13457218645834246},{"name":"A#3","midi":58,"time":185.27042775000115,"velocity":0.5039370078740157,"duration":0.13457218645834246},{"name":"A#3","midi":58,"time":185.27042775000115,"velocity":0.5039370078740157,"duration":0.13457218645834246},{"name":"E3","midi":52,"time":185.40556300000117,"velocity":0.5039370078740157,"duration":0.13457218645834246},{"name":"E3","midi":52,"time":185.40556300000117,"velocity":0.5039370078740157,"duration":0.13457218645834246},{"name":"B3","midi":59,"time":185.54069825000118,"velocity":0.5039370078740157,"duration":0.13457218645834246},{"name":"B3","midi":59,"time":185.54069825000118,"velocity":0.5039370078740157,"duration":0.13457218645834246},{"name":"E3","midi":52,"time":185.6758335000012,"velocity":0.5039370078740157,"duration":0.13457218645834246},{"name":"E3","midi":52,"time":185.6758335000012,"velocity":0.5039370078740157,"duration":0.13457218645834246},{"name":"C4","midi":60,"time":185.81096875000122,"velocity":0.5039370078740157,"duration":0.13457218645834246},{"name":"C4","midi":60,"time":185.81096875000122,"velocity":0.5039370078740157,"duration":0.13457218645834246},{"name":"E3","midi":52,"time":185.94610400000124,"velocity":0.5039370078740157,"duration":0.13457218645834246},{"name":"E3","midi":52,"time":185.94610400000124,"velocity":0.5039370078740157,"duration":0.13457218645834246},{"name":"B3","midi":59,"time":186.08123925000126,"velocity":0.5039370078740157,"duration":0.13457218645834246},{"name":"B3","midi":59,"time":186.08123925000126,"velocity":0.5039370078740157,"duration":0.13457218645834246},{"name":"B3","midi":59,"time":186.08123925000126,"velocity":0.5039370078740157,"duration":0.13457218645834246},{"name":"B3","midi":59,"time":186.08123925000126,"velocity":0.5039370078740157,"duration":0.13457218645834246},{"name":"B3","midi":59,"time":186.08123925000126,"velocity":0.5039370078740157,"duration":0.13457218645834246},{"name":"B3","midi":59,"time":186.08123925000126,"velocity":0.5039370078740157,"duration":0.13457218645834246},{"name":"B3","midi":59,"time":186.08123925000126,"velocity":0.5039370078740157,"duration":0.13457218645834246},{"name":"B3","midi":59,"time":186.08123925000126,"velocity":0.5039370078740157,"duration":0.13457218645834246},{"name":"B3","midi":59,"time":186.21637450000128,"velocity":0.5039370078740157,"duration":0.13457218645834246},{"name":"B3","midi":59,"time":186.21637450000128,"velocity":0.5039370078740157,"duration":0.13457218645834246},{"name":"B3","midi":59,"time":186.21637450000128,"velocity":0.5039370078740157,"duration":0.13457218645834246},{"name":"B3","midi":59,"time":186.21637450000128,"velocity":0.5039370078740157,"duration":0.13457218645834246},{"name":"B3","midi":59,"time":186.21637450000128,"velocity":0.5039370078740157,"duration":0.13457218645834246},{"name":"B3","midi":59,"time":186.21637450000128,"velocity":0.5039370078740157,"duration":0.13457218645834246},{"name":"B3","midi":59,"time":186.21637450000128,"velocity":0.5039370078740157,"duration":0.13457218645834246},{"name":"B3","midi":59,"time":186.21637450000128,"velocity":0.5039370078740157,"duration":0.13457218645834246},{"name":"E3","midi":52,"time":186.3515097500013,"velocity":0.5039370078740157,"duration":0.13457218645834246},{"name":"E3","midi":52,"time":186.3515097500013,"velocity":0.5039370078740157,"duration":0.13457218645834246},{"name":"E3","midi":52,"time":186.3515097500013,"velocity":0.5039370078740157,"duration":0.13457218645834246},{"name":"E3","midi":52,"time":186.3515097500013,"velocity":0.5039370078740157,"duration":0.13457218645834246},{"name":"E3","midi":52,"time":186.3515097500013,"velocity":0.5039370078740157,"duration":0.13457218645834246},{"name":"E3","midi":52,"time":186.3515097500013,"velocity":0.5039370078740157,"duration":0.13457218645834246},{"name":"E3","midi":52,"time":186.3515097500013,"velocity":0.5039370078740157,"duration":0.13457218645834246},{"name":"E3","midi":52,"time":186.3515097500013,"velocity":0.5039370078740157,"duration":0.13457218645834246},{"name":"A#3","midi":58,"time":186.48664500000132,"velocity":0.5039370078740157,"duration":0.13457218645834246},{"name":"A#3","midi":58,"time":186.48664500000132,"velocity":0.5039370078740157,"duration":0.13457218645834246},{"name":"A#3","midi":58,"time":186.48664500000132,"velocity":0.5039370078740157,"duration":0.13457218645834246},{"name":"A#3","midi":58,"time":186.48664500000132,"velocity":0.5039370078740157,"duration":0.13457218645834246},{"name":"A#3","midi":58,"time":186.48664500000132,"velocity":0.5039370078740157,"duration":0.13457218645834246},{"name":"A#3","midi":58,"time":186.48664500000132,"velocity":0.5039370078740157,"duration":0.13457218645834246},{"name":"A#3","midi":58,"time":186.48664500000132,"velocity":0.5039370078740157,"duration":0.13457218645834246},{"name":"A#3","midi":58,"time":186.48664500000132,"velocity":0.5039370078740157,"duration":0.13457218645834246},{"name":"A#3","midi":58,"time":186.62178025000134,"velocity":0.5039370078740157,"duration":0.13457218645834246},{"name":"A#3","midi":58,"time":186.62178025000134,"velocity":0.5039370078740157,"duration":0.13457218645834246},{"name":"A#3","midi":58,"time":186.62178025000134,"velocity":0.5039370078740157,"duration":0.13457218645834246},{"name":"A#3","midi":58,"time":186.62178025000134,"velocity":0.5039370078740157,"duration":0.13457218645834246},{"name":"A#3","midi":58,"time":186.62178025000134,"velocity":0.5039370078740157,"duration":0.13457218645834246},{"name":"A#3","midi":58,"time":186.62178025000134,"velocity":0.5039370078740157,"duration":0.13457218645834246},{"name":"A#3","midi":58,"time":186.62178025000134,"velocity":0.5039370078740157,"duration":0.13457218645834246},{"name":"A#3","midi":58,"time":186.62178025000134,"velocity":0.5039370078740157,"duration":0.13457218645834246},{"name":"E3","midi":52,"time":186.75691550000136,"velocity":0.5039370078740157,"duration":0.13457218645834246},{"name":"E3","midi":52,"time":186.75691550000136,"velocity":0.5039370078740157,"duration":0.13457218645834246},{"name":"E3","midi":52,"time":186.75691550000136,"velocity":0.5039370078740157,"duration":0.13457218645834246},{"name":"E3","midi":52,"time":186.75691550000136,"velocity":0.5039370078740157,"duration":0.13457218645834246},{"name":"E3","midi":52,"time":186.75691550000136,"velocity":0.5039370078740157,"duration":0.13457218645834246},{"name":"E3","midi":52,"time":186.75691550000136,"velocity":0.5039370078740157,"duration":0.13457218645834246},{"name":"E3","midi":52,"time":186.75691550000136,"velocity":0.5039370078740157,"duration":0.13457218645834246},{"name":"E3","midi":52,"time":186.75691550000136,"velocity":0.5039370078740157,"duration":0.13457218645834246},{"name":"B3","midi":59,"time":186.89205075000137,"velocity":0.5039370078740157,"duration":0.13457218645834246},{"name":"B3","midi":59,"time":186.89205075000137,"velocity":0.5039370078740157,"duration":0.13457218645834246},{"name":"B3","midi":59,"time":186.89205075000137,"velocity":0.5039370078740157,"duration":0.13457218645834246},{"name":"B3","midi":59,"time":186.89205075000137,"velocity":0.5039370078740157,"duration":0.13457218645834246},{"name":"B3","midi":59,"time":186.89205075000137,"velocity":0.5039370078740157,"duration":0.13457218645834246},{"name":"B3","midi":59,"time":186.89205075000137,"velocity":0.5039370078740157,"duration":0.13457218645834246},{"name":"B3","midi":59,"time":186.89205075000137,"velocity":0.5039370078740157,"duration":0.13457218645834246},{"name":"B3","midi":59,"time":186.89205075000137,"velocity":0.5039370078740157,"duration":0.13457218645834246},{"name":"B3","midi":59,"time":187.0271860000014,"velocity":0.5039370078740157,"duration":0.13457218645834246},{"name":"B3","midi":59,"time":187.0271860000014,"velocity":0.5039370078740157,"duration":0.13457218645834246},{"name":"B3","midi":59,"time":187.0271860000014,"velocity":0.5039370078740157,"duration":0.13457218645834246},{"name":"B3","midi":59,"time":187.0271860000014,"velocity":0.5039370078740157,"duration":0.13457218645834246},{"name":"B3","midi":59,"time":187.0271860000014,"velocity":0.5039370078740157,"duration":0.13457218645834246},{"name":"B3","midi":59,"time":187.0271860000014,"velocity":0.5039370078740157,"duration":0.13457218645834246},{"name":"B3","midi":59,"time":187.0271860000014,"velocity":0.5039370078740157,"duration":0.13457218645834246},{"name":"B3","midi":59,"time":187.0271860000014,"velocity":0.5039370078740157,"duration":0.13457218645834246},{"name":"E3","midi":52,"time":187.1623212500014,"velocity":0.5039370078740157,"duration":0.13457218645834246},{"name":"E3","midi":52,"time":187.1623212500014,"velocity":0.5039370078740157,"duration":0.13457218645834246},{"name":"E3","midi":52,"time":187.1623212500014,"velocity":0.5039370078740157,"duration":0.13457218645834246},{"name":"E3","midi":52,"time":187.1623212500014,"velocity":0.5039370078740157,"duration":0.13457218645834246},{"name":"E3","midi":52,"time":187.1623212500014,"velocity":0.5039370078740157,"duration":0.13457218645834246},{"name":"E3","midi":52,"time":187.1623212500014,"velocity":0.5039370078740157,"duration":0.13457218645834246},{"name":"E3","midi":52,"time":187.1623212500014,"velocity":0.5039370078740157,"duration":0.13457218645834246},{"name":"E3","midi":52,"time":187.1623212500014,"velocity":0.5039370078740157,"duration":0.13457218645834246},{"name":"A#3","midi":58,"time":187.29745650000143,"velocity":0.5039370078740157,"duration":0.13457218645834246},{"name":"A#3","midi":58,"time":187.29745650000143,"velocity":0.5039370078740157,"duration":0.13457218645834246},{"name":"A#3","midi":58,"time":187.29745650000143,"velocity":0.5039370078740157,"duration":0.13457218645834246},{"name":"A#3","midi":58,"time":187.29745650000143,"velocity":0.5039370078740157,"duration":0.13457218645834246},{"name":"A#3","midi":58,"time":187.29745650000143,"velocity":0.5039370078740157,"duration":0.13457218645834246},{"name":"A#3","midi":58,"time":187.29745650000143,"velocity":0.5039370078740157,"duration":0.13457218645834246},{"name":"A#3","midi":58,"time":187.29745650000143,"velocity":0.5039370078740157,"duration":0.13457218645834246},{"name":"A#3","midi":58,"time":187.29745650000143,"velocity":0.5039370078740157,"duration":0.13457218645834246},{"name":"E3","midi":52,"time":187.43259175000145,"velocity":0.5039370078740157,"duration":0.13457218645834246},{"name":"E3","midi":52,"time":187.43259175000145,"velocity":0.5039370078740157,"duration":0.13457218645834246},{"name":"E3","midi":52,"time":187.56772700000147,"velocity":0.5039370078740157,"duration":0.13457218645834246},{"name":"E3","midi":52,"time":187.56772700000147,"velocity":0.5039370078740157,"duration":0.13457218645834246},{"name":"B3","midi":59,"time":187.7028622500015,"velocity":0.5039370078740157,"duration":0.13457218645834246},{"name":"B3","midi":59,"time":187.7028622500015,"velocity":0.5039370078740157,"duration":0.13457218645834246},{"name":"B3","midi":59,"time":187.8379975000015,"velocity":0.5039370078740157,"duration":0.13457218645834246},{"name":"B3","midi":59,"time":187.8379975000015,"velocity":0.5039370078740157,"duration":0.13457218645834246},{"name":"E3","midi":52,"time":187.97313275000153,"velocity":0.5039370078740157,"duration":0.13457218645834246},{"name":"E3","midi":52,"time":187.97313275000153,"velocity":0.5039370078740157,"duration":0.13457218645834246},{"name":"A#3","midi":58,"time":188.10826800000154,"velocity":0.5039370078740157,"duration":0.13457218645834246},{"name":"A#3","midi":58,"time":188.10826800000154,"velocity":0.5039370078740157,"duration":0.13457218645834246},{"name":"A#3","midi":58,"time":188.24340325000156,"velocity":0.5039370078740157,"duration":0.13457218645834246},{"name":"A#3","midi":58,"time":188.24340325000156,"velocity":0.5039370078740157,"duration":0.13457218645834246},{"name":"E3","midi":52,"time":188.37853850000158,"velocity":0.5039370078740157,"duration":0.13457218645834246},{"name":"E3","midi":52,"time":188.37853850000158,"velocity":0.5039370078740157,"duration":0.13457218645834246},{"name":"B3","midi":59,"time":188.5136737500016,"velocity":0.5039370078740157,"duration":0.13457218645834246},{"name":"B3","midi":59,"time":188.5136737500016,"velocity":0.5039370078740157,"duration":0.13457218645834246},{"name":"B3","midi":59,"time":188.64880900000162,"velocity":0.5039370078740157,"duration":0.13457218645834246},{"name":"B3","midi":59,"time":188.64880900000162,"velocity":0.5039370078740157,"duration":0.13457218645834246},{"name":"E3","midi":52,"time":188.78394425000164,"velocity":0.5039370078740157,"duration":0.13457218645834246},{"name":"E3","midi":52,"time":188.78394425000164,"velocity":0.5039370078740157,"duration":0.13457218645834246},{"name":"A#3","midi":58,"time":188.91907950000166,"velocity":0.5039370078740157,"duration":0.13457218645834246},{"name":"A#3","midi":58,"time":188.91907950000166,"velocity":0.5039370078740157,"duration":0.13457218645834246},{"name":"A#3","midi":58,"time":189.05421475000168,"velocity":0.5039370078740157,"duration":0.13457218645834246},{"name":"A#3","midi":58,"time":189.05421475000168,"velocity":0.5039370078740157,"duration":0.13457218645834246},{"name":"E3","midi":52,"time":189.1893500000017,"velocity":0.5039370078740157,"duration":0.13457218645834246},{"name":"E3","midi":52,"time":189.1893500000017,"velocity":0.5039370078740157,"duration":0.13457218645834246},{"name":"B3","midi":59,"time":189.32448525000171,"velocity":0.5039370078740157,"duration":0.13457218645834246},{"name":"B3","midi":59,"time":189.32448525000171,"velocity":0.5039370078740157,"duration":0.13457218645834246},{"name":"E3","midi":52,"time":189.45962050000173,"velocity":0.5039370078740157,"duration":0.13457218645834246},{"name":"E3","midi":52,"time":189.45962050000173,"velocity":0.5039370078740157,"duration":0.13457218645834246},{"name":"C4","midi":60,"time":189.59475575000175,"velocity":0.5039370078740157,"duration":0.13457218645834246},{"name":"C4","midi":60,"time":189.59475575000175,"velocity":0.5039370078740157,"duration":0.13457218645834246},{"name":"E3","midi":52,"time":189.72989100000177,"velocity":0.5039370078740157,"duration":0.13457218645834246},{"name":"E3","midi":52,"time":189.72989100000177,"velocity":0.5039370078740157,"duration":0.13457218645834246},{"name":"B3","midi":59,"time":189.8650262500018,"velocity":0.5039370078740157,"duration":0.13457218645834246},{"name":"B3","midi":59,"time":189.8650262500018,"velocity":0.5039370078740157,"duration":0.13457218645834246},{"name":"B3","midi":59,"time":190.0001615000018,"velocity":0.5039370078740157,"duration":0.13457218645834246},{"name":"B3","midi":59,"time":190.0001615000018,"velocity":0.5039370078740157,"duration":0.13457218645834246},{"name":"E3","midi":52,"time":190.13529675000183,"velocity":0.5039370078740157,"duration":0.13457218645834246},{"name":"E3","midi":52,"time":190.13529675000183,"velocity":0.5039370078740157,"duration":0.13457218645834246},{"name":"A#3","midi":58,"time":190.27043200000185,"velocity":0.5039370078740157,"duration":0.13457218645834246},{"name":"A#3","midi":58,"time":190.27043200000185,"velocity":0.5039370078740157,"duration":0.13457218645834246},{"name":"A#3","midi":58,"time":190.40556725000187,"velocity":0.5039370078740157,"duration":0.13457218645834246},{"name":"A#3","midi":58,"time":190.40556725000187,"velocity":0.5039370078740157,"duration":0.13457218645834246},{"name":"E3","midi":52,"time":190.54070250000188,"velocity":0.5039370078740157,"duration":0.13457218645834246},{"name":"E3","midi":52,"time":190.54070250000188,"velocity":0.5039370078740157,"duration":0.13457218645834246},{"name":"B3","midi":59,"time":190.6758377500019,"velocity":0.5039370078740157,"duration":0.13457218645834246},{"name":"B3","midi":59,"time":190.6758377500019,"velocity":0.5039370078740157,"duration":0.13457218645834246},{"name":"B3","midi":59,"time":190.81097300000192,"velocity":0.5039370078740157,"duration":0.13457218645834246},{"name":"B3","midi":59,"time":190.81097300000192,"velocity":0.5039370078740157,"duration":0.13457218645834246},{"name":"E3","midi":52,"time":190.94610825000194,"velocity":0.5039370078740157,"duration":0.13457218645834246},{"name":"E3","midi":52,"time":190.94610825000194,"velocity":0.5039370078740157,"duration":0.13457218645834246},{"name":"A#3","midi":58,"time":191.08124350000196,"velocity":0.5039370078740157,"duration":0.13457218645834246},{"name":"A#3","midi":58,"time":191.08124350000196,"velocity":0.5039370078740157,"duration":0.13457218645834246},{"name":"E3","midi":52,"time":191.21637875000198,"velocity":0.5039370078740157,"duration":0.13457218645834246},{"name":"E3","midi":52,"time":191.21637875000198,"velocity":0.5039370078740157,"duration":0.13457218645834246},{"name":"E3","midi":52,"time":191.351514000002,"velocity":0.5039370078740157,"duration":0.13457218645834246},{"name":"B3","midi":59,"time":191.48664925000202,"velocity":0.5039370078740157,"duration":0.13457218645834246},{"name":"B3","midi":59,"time":191.48664925000202,"velocity":0.5039370078740157,"duration":0.13457218645834246},{"name":"B3","midi":59,"time":191.62178450000204,"velocity":0.5039370078740157,"duration":0.13457218645834246},{"name":"B3","midi":59,"time":191.62178450000204,"velocity":0.5039370078740157,"duration":0.13457218645834246},{"name":"E3","midi":52,"time":191.75691975000206,"velocity":0.5039370078740157,"duration":0.13457218645834246},{"name":"E3","midi":52,"time":191.75691975000206,"velocity":0.5039370078740157,"duration":0.13457218645834246},{"name":"A#3","midi":58,"time":191.89205500000207,"velocity":0.5039370078740157,"duration":0.13457218645834246},{"name":"A#3","midi":58,"time":191.89205500000207,"velocity":0.5039370078740157,"duration":0.13457218645834246},{"name":"A#3","midi":58,"time":192.0271902500021,"velocity":0.5039370078740157,"duration":0.13457218645834246},{"name":"A#3","midi":58,"time":192.0271902500021,"velocity":0.5039370078740157,"duration":0.13457218645834246},{"name":"E3","midi":52,"time":192.1623255000021,"velocity":0.5039370078740157,"duration":0.13457218645834246},{"name":"E3","midi":52,"time":192.1623255000021,"velocity":0.5039370078740157,"duration":0.13457218645834246},{"name":"B3","midi":59,"time":192.29746075000213,"velocity":0.5039370078740157,"duration":0.13457218645834246},{"name":"B3","midi":59,"time":192.29746075000213,"velocity":0.5039370078740157,"duration":0.13457218645834246},{"name":"B3","midi":59,"time":192.43259600000215,"velocity":0.5039370078740157,"duration":0.13457218645834246},{"name":"B3","midi":59,"time":192.43259600000215,"velocity":0.5039370078740157,"duration":0.13457218645834246},{"name":"E3","midi":52,"time":192.56773125000217,"velocity":0.5039370078740157,"duration":0.13457218645834246},{"name":"E3","midi":52,"time":192.56773125000217,"velocity":0.5039370078740157,"duration":0.13457218645834246},{"name":"A#3","midi":58,"time":192.7028665000022,"velocity":0.5039370078740157,"duration":0.13457218645834246},{"name":"A#3","midi":58,"time":192.7028665000022,"velocity":0.5039370078740157,"duration":0.13457218645834246},{"name":"A#3","midi":58,"time":192.8380017500022,"velocity":0.5039370078740157,"duration":0.13457218645834246},{"name":"A#3","midi":58,"time":192.8380017500022,"velocity":0.5039370078740157,"duration":0.13457218645834246},{"name":"E3","midi":52,"time":192.97313700000223,"velocity":0.5039370078740157,"duration":0.13457218645834246},{"name":"E3","midi":52,"time":192.97313700000223,"velocity":0.5039370078740157,"duration":0.13457218645834246},{"name":"B3","midi":59,"time":193.10827225000224,"velocity":0.5039370078740157,"duration":0.13457218645834246},{"name":"B3","midi":59,"time":193.10827225000224,"velocity":0.5039370078740157,"duration":0.13457218645834246},{"name":"E3","midi":52,"time":193.24340750000226,"velocity":0.5039370078740157,"duration":0.13457218645834246},{"name":"E3","midi":52,"time":193.24340750000226,"velocity":0.5039370078740157,"duration":0.13457218645834246},{"name":"C4","midi":60,"time":193.37854275000228,"velocity":0.5039370078740157,"duration":0.13457218645834246},{"name":"C4","midi":60,"time":193.37854275000228,"velocity":0.5039370078740157,"duration":0.13457218645834246},{"name":"E3","midi":52,"time":193.5136780000023,"velocity":0.5039370078740157,"duration":0.13457218645834246},{"name":"E3","midi":52,"time":193.5136780000023,"velocity":0.5039370078740157,"duration":0.13457218645834246},{"name":"B3","midi":59,"time":193.64881325000232,"velocity":0.5039370078740157,"duration":0.13457218645834246},{"name":"B3","midi":59,"time":193.64881325000232,"velocity":0.5039370078740157,"duration":0.13457218645834246},{"name":"B3","midi":59,"time":193.64881325000232,"velocity":0.5039370078740157,"duration":0.13457218645834246},{"name":"B3","midi":59,"time":193.64881325000232,"velocity":0.5039370078740157,"duration":0.13457218645834246},{"name":"B3","midi":59,"time":193.64881325000232,"velocity":0.5039370078740157,"duration":0.13457218645834246},{"name":"B3","midi":59,"time":193.64881325000232,"velocity":0.5039370078740157,"duration":0.13457218645834246},{"name":"B3","midi":59,"time":193.64881325000232,"velocity":0.5039370078740157,"duration":0.13457218645834246},{"name":"B3","midi":59,"time":193.64881325000232,"velocity":0.5039370078740157,"duration":0.13457218645834246},{"name":"B3","midi":59,"time":193.78394850000234,"velocity":0.5039370078740157,"duration":0.13457218645834246},{"name":"B3","midi":59,"time":193.78394850000234,"velocity":0.5039370078740157,"duration":0.13457218645834246},{"name":"B3","midi":59,"time":193.78394850000234,"velocity":0.5039370078740157,"duration":0.13457218645834246},{"name":"B3","midi":59,"time":193.78394850000234,"velocity":0.5039370078740157,"duration":0.13457218645834246},{"name":"B3","midi":59,"time":193.78394850000234,"velocity":0.5039370078740157,"duration":0.13457218645834246},{"name":"B3","midi":59,"time":193.78394850000234,"velocity":0.5039370078740157,"duration":0.13457218645834246},{"name":"B3","midi":59,"time":193.78394850000234,"velocity":0.5039370078740157,"duration":0.13457218645834246},{"name":"B3","midi":59,"time":193.78394850000234,"velocity":0.5039370078740157,"duration":0.13457218645834246},{"name":"E3","midi":52,"time":193.91908375000236,"velocity":0.5039370078740157,"duration":0.13457218645834246},{"name":"E3","midi":52,"time":193.91908375000236,"velocity":0.5039370078740157,"duration":0.13457218645834246},{"name":"E3","midi":52,"time":193.91908375000236,"velocity":0.5039370078740157,"duration":0.13457218645834246},{"name":"E3","midi":52,"time":193.91908375000236,"velocity":0.5039370078740157,"duration":0.13457218645834246},{"name":"E3","midi":52,"time":193.91908375000236,"velocity":0.5039370078740157,"duration":0.13457218645834246},{"name":"E3","midi":52,"time":193.91908375000236,"velocity":0.5039370078740157,"duration":0.13457218645834246},{"name":"E3","midi":52,"time":193.91908375000236,"velocity":0.5039370078740157,"duration":0.13457218645834246},{"name":"E3","midi":52,"time":193.91908375000236,"velocity":0.5039370078740157,"duration":0.13457218645834246},{"name":"A#3","midi":58,"time":194.05421900000238,"velocity":0.5039370078740157,"duration":0.13457218645834246},{"name":"A#3","midi":58,"time":194.05421900000238,"velocity":0.5039370078740157,"duration":0.13457218645834246},{"name":"A#3","midi":58,"time":194.05421900000238,"velocity":0.5039370078740157,"duration":0.13457218645834246},{"name":"A#3","midi":58,"time":194.05421900000238,"velocity":0.5039370078740157,"duration":0.13457218645834246},{"name":"A#3","midi":58,"time":194.05421900000238,"velocity":0.5039370078740157,"duration":0.13457218645834246},{"name":"A#3","midi":58,"time":194.05421900000238,"velocity":0.5039370078740157,"duration":0.13457218645834246},{"name":"A#3","midi":58,"time":194.05421900000238,"velocity":0.5039370078740157,"duration":0.13457218645834246},{"name":"A#3","midi":58,"time":194.05421900000238,"velocity":0.5039370078740157,"duration":0.13457218645834246},{"name":"A#3","midi":58,"time":194.1893542500024,"velocity":0.5039370078740157,"duration":0.13457218645834246},{"name":"A#3","midi":58,"time":194.1893542500024,"velocity":0.5039370078740157,"duration":0.13457218645834246},{"name":"A#3","midi":58,"time":194.1893542500024,"velocity":0.5039370078740157,"duration":0.13457218645834246},{"name":"A#3","midi":58,"time":194.1893542500024,"velocity":0.5039370078740157,"duration":0.13457218645834246},{"name":"A#3","midi":58,"time":194.1893542500024,"velocity":0.5039370078740157,"duration":0.13457218645834246},{"name":"A#3","midi":58,"time":194.1893542500024,"velocity":0.5039370078740157,"duration":0.13457218645834246},{"name":"A#3","midi":58,"time":194.1893542500024,"velocity":0.5039370078740157,"duration":0.13457218645834246},{"name":"A#3","midi":58,"time":194.1893542500024,"velocity":0.5039370078740157,"duration":0.13457218645834246},{"name":"E3","midi":52,"time":194.32448950000241,"velocity":0.5039370078740157,"duration":0.13457218645834246},{"name":"E3","midi":52,"time":194.32448950000241,"velocity":0.5039370078740157,"duration":0.13457218645834246},{"name":"E3","midi":52,"time":194.32448950000241,"velocity":0.5039370078740157,"duration":0.13457218645834246},{"name":"E3","midi":52,"time":194.32448950000241,"velocity":0.5039370078740157,"duration":0.13457218645834246},{"name":"E3","midi":52,"time":194.32448950000241,"velocity":0.5039370078740157,"duration":0.13457218645834246},{"name":"E3","midi":52,"time":194.32448950000241,"velocity":0.5039370078740157,"duration":0.13457218645834246},{"name":"E3","midi":52,"time":194.32448950000241,"velocity":0.5039370078740157,"duration":0.13457218645834246},{"name":"E3","midi":52,"time":194.32448950000241,"velocity":0.5039370078740157,"duration":0.13457218645834246},{"name":"B3","midi":59,"time":194.45962475000243,"velocity":0.5039370078740157,"duration":0.13457218645834246},{"name":"B3","midi":59,"time":194.45962475000243,"velocity":0.5039370078740157,"duration":0.13457218645834246},{"name":"B3","midi":59,"time":194.45962475000243,"velocity":0.5039370078740157,"duration":0.13457218645834246},{"name":"B3","midi":59,"time":194.45962475000243,"velocity":0.5039370078740157,"duration":0.13457218645834246},{"name":"B3","midi":59,"time":194.45962475000243,"velocity":0.5039370078740157,"duration":0.13457218645834246},{"name":"B3","midi":59,"time":194.45962475000243,"velocity":0.5039370078740157,"duration":0.13457218645834246},{"name":"B3","midi":59,"time":194.45962475000243,"velocity":0.5039370078740157,"duration":0.13457218645834246},{"name":"B3","midi":59,"time":194.45962475000243,"velocity":0.5039370078740157,"duration":0.13457218645834246},{"name":"B3","midi":59,"time":194.59476000000245,"velocity":0.5039370078740157,"duration":0.13457218645834246},{"name":"B3","midi":59,"time":194.59476000000245,"velocity":0.5039370078740157,"duration":0.13457218645834246},{"name":"B3","midi":59,"time":194.59476000000245,"velocity":0.5039370078740157,"duration":0.13457218645834246},{"name":"B3","midi":59,"time":194.59476000000245,"velocity":0.5039370078740157,"duration":0.13457218645834246},{"name":"B3","midi":59,"time":194.59476000000245,"velocity":0.5039370078740157,"duration":0.13457218645834246},{"name":"B3","midi":59,"time":194.59476000000245,"velocity":0.5039370078740157,"duration":0.13457218645834246},{"name":"B3","midi":59,"time":194.59476000000245,"velocity":0.5039370078740157,"duration":0.13457218645834246},{"name":"B3","midi":59,"time":194.59476000000245,"velocity":0.5039370078740157,"duration":0.13457218645834246},{"name":"E3","midi":52,"time":194.72989525000247,"velocity":0.5039370078740157,"duration":0.13457218645834246},{"name":"E3","midi":52,"time":194.72989525000247,"velocity":0.5039370078740157,"duration":0.13457218645834246},{"name":"E3","midi":52,"time":194.72989525000247,"velocity":0.5039370078740157,"duration":0.13457218645834246},{"name":"E3","midi":52,"time":194.72989525000247,"velocity":0.5039370078740157,"duration":0.13457218645834246},{"name":"E3","midi":52,"time":194.72989525000247,"velocity":0.5039370078740157,"duration":0.13457218645834246},{"name":"E3","midi":52,"time":194.72989525000247,"velocity":0.5039370078740157,"duration":0.13457218645834246},{"name":"E3","midi":52,"time":194.72989525000247,"velocity":0.5039370078740157,"duration":0.13457218645834246},{"name":"E3","midi":52,"time":194.72989525000247,"velocity":0.5039370078740157,"duration":0.13457218645834246},{"name":"A#3","midi":58,"time":194.8650305000025,"velocity":0.5039370078740157,"duration":0.13457218645834246},{"name":"A#3","midi":58,"time":194.8650305000025,"velocity":0.5039370078740157,"duration":0.13457218645834246},{"name":"A#3","midi":58,"time":194.8650305000025,"velocity":0.5039370078740157,"duration":0.13457218645834246},{"name":"A#3","midi":58,"time":194.8650305000025,"velocity":0.5039370078740157,"duration":0.13457218645834246},{"name":"A#3","midi":58,"time":194.8650305000025,"velocity":0.5039370078740157,"duration":0.13457218645834246},{"name":"A#3","midi":58,"time":194.8650305000025,"velocity":0.5039370078740157,"duration":0.13457218645834246},{"name":"A#3","midi":58,"time":194.8650305000025,"velocity":0.5039370078740157,"duration":0.13457218645834246},{"name":"A#3","midi":58,"time":194.8650305000025,"velocity":0.5039370078740157,"duration":0.13457218645834246},{"name":"E3","midi":52,"time":195.0001657500025,"velocity":0.5039370078740157,"duration":0.13457218645834246},{"name":"E3","midi":52,"time":195.0001657500025,"velocity":0.5039370078740157,"duration":0.13457218645834246},{"name":"E3","midi":52,"time":195.13530100000253,"velocity":0.5039370078740157,"duration":0.13457218645834246},{"name":"E3","midi":52,"time":195.13530100000253,"velocity":0.5039370078740157,"duration":0.13457218645834246},{"name":"B3","midi":59,"time":195.27043625000255,"velocity":0.5039370078740157,"duration":0.13457218645834246},{"name":"B3","midi":59,"time":195.27043625000255,"velocity":0.5039370078740157,"duration":0.13457218645834246},{"name":"B3","midi":59,"time":195.40557150000257,"velocity":0.5039370078740157,"duration":0.13457218645834246},{"name":"B3","midi":59,"time":195.40557150000257,"velocity":0.5039370078740157,"duration":0.13457218645834246},{"name":"E3","midi":52,"time":195.54070675000258,"velocity":0.5039370078740157,"duration":0.13457218645834246},{"name":"E3","midi":52,"time":195.54070675000258,"velocity":0.5039370078740157,"duration":0.13457218645834246},{"name":"A#3","midi":58,"time":195.6758420000026,"velocity":0.5039370078740157,"duration":0.13457218645834246},{"name":"A#3","midi":58,"time":195.6758420000026,"velocity":0.5039370078740157,"duration":0.13457218645834246},{"name":"A#3","midi":58,"time":195.81097725000262,"velocity":0.5039370078740157,"duration":0.13457218645834246},{"name":"A#3","midi":58,"time":195.81097725000262,"velocity":0.5039370078740157,"duration":0.13457218645834246},{"name":"E3","midi":52,"time":195.94611250000264,"velocity":0.5039370078740157,"duration":0.13457218645834246},{"name":"E3","midi":52,"time":195.94611250000264,"velocity":0.5039370078740157,"duration":0.13457218645834246},{"name":"B3","midi":59,"time":196.08124775000266,"velocity":0.5039370078740157,"duration":0.13457218645834246},{"name":"B3","midi":59,"time":196.08124775000266,"velocity":0.5039370078740157,"duration":0.13457218645834246},{"name":"B3","midi":59,"time":196.21638300000268,"velocity":0.5039370078740157,"duration":0.13457218645834246},{"name":"B3","midi":59,"time":196.21638300000268,"velocity":0.5039370078740157,"duration":0.13457218645834246},{"name":"E3","midi":52,"time":196.3515182500027,"velocity":0.5039370078740157,"duration":0.13457218645834246},{"name":"E3","midi":52,"time":196.3515182500027,"velocity":0.5039370078740157,"duration":0.13457218645834246},{"name":"A#3","midi":58,"time":196.48665350000272,"velocity":0.5039370078740157,"duration":0.13457218645834246},{"name":"A#3","midi":58,"time":196.48665350000272,"velocity":0.5039370078740157,"duration":0.13457218645834246},{"name":"A#3","midi":58,"time":196.62178875000274,"velocity":0.5039370078740157,"duration":0.13457218645834246},{"name":"A#3","midi":58,"time":196.62178875000274,"velocity":0.5039370078740157,"duration":0.13457218645834246},{"name":"E3","midi":52,"time":196.75692400000275,"velocity":0.5039370078740157,"duration":0.13457218645834246},{"name":"E3","midi":52,"time":196.75692400000275,"velocity":0.5039370078740157,"duration":0.13457218645834246},{"name":"B3","midi":59,"time":196.89205925000277,"velocity":0.5039370078740157,"duration":0.13457218645834246},{"name":"B3","midi":59,"time":196.89205925000277,"velocity":0.5039370078740157,"duration":0.13457218645834246},{"name":"E3","midi":52,"time":197.0271945000028,"velocity":0.5039370078740157,"duration":0.13457218645834246},{"name":"E3","midi":52,"time":197.0271945000028,"velocity":0.5039370078740157,"duration":0.13457218645834246},{"name":"C4","midi":60,"time":197.1623297500028,"velocity":0.5039370078740157,"duration":0.13457218645834246},{"name":"C4","midi":60,"time":197.1623297500028,"velocity":0.5039370078740157,"duration":0.13457218645834246},{"name":"E3","midi":52,"time":197.29746500000283,"velocity":0.5039370078740157,"duration":0.13457218645834246},{"name":"E3","midi":52,"time":197.29746500000283,"velocity":0.5039370078740157,"duration":0.13457218645834246},{"name":"B3","midi":59,"time":197.43260025000285,"velocity":0.5039370078740157,"duration":0.13457218645834246},{"name":"B3","midi":59,"time":197.43260025000285,"velocity":0.5039370078740157,"duration":0.13457218645834246},{"name":"B3","midi":59,"time":197.56773550000287,"velocity":0.5039370078740157,"duration":0.13457218645834246},{"name":"B3","midi":59,"time":197.56773550000287,"velocity":0.5039370078740157,"duration":0.13457218645834246},{"name":"E3","midi":52,"time":197.7028707500029,"velocity":0.5039370078740157,"duration":0.13457218645834246},{"name":"E3","midi":52,"time":197.7028707500029,"velocity":0.5039370078740157,"duration":0.13457218645834246},{"name":"A#3","midi":58,"time":197.8380060000029,"velocity":0.5039370078740157,"duration":0.13457218645834246},{"name":"A#3","midi":58,"time":197.8380060000029,"velocity":0.5039370078740157,"duration":0.13457218645834246},{"name":"A#3","midi":58,"time":197.97314125000293,"velocity":0.5039370078740157,"duration":0.13457218645834246},{"name":"A#3","midi":58,"time":197.97314125000293,"velocity":0.5039370078740157,"duration":0.13457218645834246},{"name":"E3","midi":52,"time":198.10827650000294,"velocity":0.5039370078740157,"duration":0.13457218645834246},{"name":"E3","midi":52,"time":198.10827650000294,"velocity":0.5039370078740157,"duration":0.13457218645834246},{"name":"B3","midi":59,"time":198.24341175000296,"velocity":0.5039370078740157,"duration":0.13457218645834246},{"name":"B3","midi":59,"time":198.24341175000296,"velocity":0.5039370078740157,"duration":0.13457218645834246},{"name":"B3","midi":59,"time":198.37854700000298,"velocity":0.5039370078740157,"duration":0.13457218645834246},{"name":"B3","midi":59,"time":198.37854700000298,"velocity":0.5039370078740157,"duration":0.13457218645834246},{"name":"E3","midi":52,"time":198.513682250003,"velocity":0.5039370078740157,"duration":0.13457218645834246},{"name":"E3","midi":52,"time":198.513682250003,"velocity":0.5039370078740157,"duration":0.13457218645834246},{"name":"A#3","midi":58,"time":198.64881750000302,"velocity":0.5039370078740157,"duration":0.13457218645834246},{"name":"A#3","midi":58,"time":198.64881750000302,"velocity":0.5039370078740157,"duration":0.13457218645834246},{"name":"E3","midi":52,"time":198.78395275000304,"velocity":0.5039370078740157,"duration":0.13457218645834246},{"name":"E3","midi":52,"time":198.78395275000304,"velocity":0.5039370078740157,"duration":0.13457218645834246},{"name":"E4","midi":64,"time":198.91908800000306,"velocity":0.5039370078740157,"duration":0.13457218645834246},{"name":"E4","midi":64,"time":199.05422325000308,"velocity":0.5039370078740157,"duration":0.13457218645834246},{"name":"E4","midi":64,"time":199.1893585000031,"velocity":0.5039370078740157,"duration":0.13457218645834246},{"name":"E4","midi":64,"time":199.3244937500031,"velocity":0.5039370078740157,"duration":0.13457218645834246},{"name":"E3","midi":52,"time":199.7298995000031,"velocity":0.5039370078740157,"duration":0.13457218645834246},{"name":"E3","midi":52,"time":199.86503475000313,"velocity":0.5039370078740157,"duration":0.13457218645834246},{"name":"E3","midi":52,"time":200.00017000000315,"velocity":0.5039370078740157,"duration":0.13457218645834246},{"name":"E3","midi":52,"time":200.13530525000317,"velocity":0.5039370078740157,"duration":0.13457218645834246},{"name":"E4","midi":64,"time":200.54071100000317,"velocity":0.5039370078740157,"duration":0.13457218645834246},{"name":"E4","midi":64,"time":200.6758462500032,"velocity":0.5039370078740157,"duration":0.13457218645834246},{"name":"E4","midi":64,"time":200.8109815000032,"velocity":0.5039370078740157,"duration":0.13457218645834246},{"name":"E4","midi":64,"time":200.94611675000323,"velocity":0.5039370078740157,"duration":0.13457218645834246},{"name":"E3","midi":52,"time":201.35152250000323,"velocity":0.5039370078740157,"duration":0.13457218645834246},{"name":"E3","midi":52,"time":201.48665775000325,"velocity":0.5039370078740157,"duration":0.13457218645834246},{"name":"E3","midi":52,"time":201.62179300000327,"velocity":0.5039370078740157,"duration":0.13457218645834246},{"name":"E3","midi":52,"time":201.75692825000328,"velocity":0.5039370078740157,"duration":0.13457218645834246},{"name":"E4","midi":64,"time":202.7028750000033,"velocity":0.5039370078740157,"duration":0.13457218645834246},{"name":"E4","midi":64,"time":202.83801025000332,"velocity":0.5039370078740157,"duration":0.13457218645834246},{"name":"E4","midi":64,"time":202.97314550000334,"velocity":0.5039370078740157,"duration":0.13457218645834246},{"name":"E4","midi":64,"time":203.10828075000336,"velocity":0.5039370078740157,"duration":0.13457218645834246},{"name":"E3","midi":52,"time":203.51368650000336,"velocity":0.5039370078740157,"duration":0.13457218645834246},{"name":"E3","midi":52,"time":203.64882175000338,"velocity":0.5039370078740157,"duration":0.13457218645834246},{"name":"E3","midi":52,"time":203.7839570000034,"velocity":0.5039370078740157,"duration":0.13457218645834246},{"name":"E3","midi":52,"time":203.91909225000342,"velocity":0.5039370078740157,"duration":0.13457218645834246},{"name":"E4","midi":64,"time":204.32449800000342,"velocity":0.5039370078740157,"duration":0.13457218645834246},{"name":"E4","midi":64,"time":204.45963325000344,"velocity":0.5039370078740157,"duration":0.13457218645834246},{"name":"E4","midi":64,"time":204.59476850000345,"velocity":0.5039370078740157,"duration":0.13457218645834246},{"name":"E4","midi":64,"time":204.72990375000347,"velocity":0.5039370078740157,"duration":0.13457218645834246},{"name":"E3","midi":52,"time":205.13530950000347,"velocity":0.5039370078740157,"duration":0.13457218645834246},{"name":"E3","midi":52,"time":205.2704447500035,"velocity":0.5039370078740157,"duration":0.13457218645834246},{"name":"E3","midi":52,"time":205.4055800000035,"velocity":0.5039370078740157,"duration":0.13457218645834246},{"name":"E3","midi":52,"time":205.54071525000353,"velocity":0.5039370078740157,"duration":0.13457218645834246},{"name":"E3","midi":52,"time":206.48666200000355,"velocity":0.5039370078740157,"duration":0.13457218645834246},{"name":"B3","midi":59,"time":206.62179725000357,"velocity":0.5039370078740157,"duration":0.13457218645834246},{"name":"B3","midi":59,"time":206.7569325000036,"velocity":0.5039370078740157,"duration":0.13457218645834246},{"name":"E3","midi":52,"time":206.8920677500036,"velocity":0.5039370078740157,"duration":0.13457218645834246},{"name":"A#3","midi":58,"time":207.02720300000362,"velocity":0.5039370078740157,"duration":0.13457218645834246},{"name":"A#3","midi":58,"time":207.02720300000362,"velocity":0.5039370078740157,"duration":0.13457218645834246},{"name":"A#3","midi":58,"time":207.16233825000364,"velocity":0.5039370078740157,"duration":0.13457218645834246},{"name":"A#3","midi":58,"time":207.16233825000364,"velocity":0.5039370078740157,"duration":0.13457218645834246},{"name":"E3","midi":52,"time":207.29747350000366,"velocity":0.5039370078740157,"duration":0.13457218645834246},{"name":"E3","midi":52,"time":207.29747350000366,"velocity":0.5039370078740157,"duration":0.13457218645834246},{"name":"B3","midi":59,"time":207.43260875000368,"velocity":0.5039370078740157,"duration":0.13457218645834246},{"name":"B3","midi":59,"time":207.43260875000368,"velocity":0.5039370078740157,"duration":0.13457218645834246},{"name":"B3","midi":59,"time":207.5677440000037,"velocity":0.5039370078740157,"duration":0.13457218645834246},{"name":"B3","midi":59,"time":207.5677440000037,"velocity":0.5039370078740157,"duration":0.13457218645834246},{"name":"E3","midi":52,"time":207.70287925000372,"velocity":0.5039370078740157,"duration":0.13457218645834246},{"name":"E3","midi":52,"time":207.70287925000372,"velocity":0.5039370078740157,"duration":0.13457218645834246},{"name":"A#3","midi":58,"time":207.83801450000374,"velocity":0.5039370078740157,"duration":0.13457218645834246},{"name":"A#3","midi":58,"time":207.83801450000374,"velocity":0.5039370078740157,"duration":0.13457218645834246},{"name":"A#3","midi":58,"time":207.97314975000376,"velocity":0.5039370078740157,"duration":0.13457218645834246},{"name":"A#3","midi":58,"time":207.97314975000376,"velocity":0.5039370078740157,"duration":0.13457218645834246},{"name":"E3","midi":52,"time":208.10828500000378,"velocity":0.5039370078740157,"duration":0.13457218645834246},{"name":"E3","midi":52,"time":208.10828500000378,"velocity":0.5039370078740157,"duration":0.13457218645834246},{"name":"B3","midi":59,"time":208.2434202500038,"velocity":0.5039370078740157,"duration":0.13457218645834246},{"name":"B3","midi":59,"time":208.2434202500038,"velocity":0.5039370078740157,"duration":0.13457218645834246},{"name":"E3","midi":52,"time":208.3785555000038,"velocity":0.5039370078740157,"duration":0.13457218645834246},{"name":"E3","midi":52,"time":208.3785555000038,"velocity":0.5039370078740157,"duration":0.13457218645834246},{"name":"C4","midi":60,"time":208.51369075000383,"velocity":0.5039370078740157,"duration":0.13457218645834246},{"name":"C4","midi":60,"time":208.51369075000383,"velocity":0.5039370078740157,"duration":0.13457218645834246},{"name":"E3","midi":52,"time":208.64882600000385,"velocity":0.5039370078740157,"duration":0.13457218645834246},{"name":"E3","midi":52,"time":208.64882600000385,"velocity":0.5039370078740157,"duration":0.13457218645834246},{"name":"B3","midi":59,"time":208.78396125000387,"velocity":0.5039370078740157,"duration":0.13457218645834246},{"name":"B3","midi":59,"time":208.78396125000387,"velocity":0.5039370078740157,"duration":0.13457218645834246},{"name":"B3","midi":59,"time":208.78396125000387,"velocity":0.5039370078740157,"duration":0.13457218645834246},{"name":"B3","midi":59,"time":208.78396125000387,"velocity":0.5039370078740157,"duration":0.13457218645834246},{"name":"B3","midi":59,"time":208.78396125000387,"velocity":0.5039370078740157,"duration":0.13457218645834246},{"name":"B3","midi":59,"time":208.78396125000387,"velocity":0.5039370078740157,"duration":0.13457218645834246},{"name":"B3","midi":59,"time":208.78396125000387,"velocity":0.5039370078740157,"duration":0.13457218645834246},{"name":"B3","midi":59,"time":208.78396125000387,"velocity":0.5039370078740157,"duration":0.13457218645834246},{"name":"B3","midi":59,"time":208.9190965000039,"velocity":0.5039370078740157,"duration":0.13457218645834246},{"name":"B3","midi":59,"time":208.9190965000039,"velocity":0.5039370078740157,"duration":0.13457218645834246},{"name":"B3","midi":59,"time":208.9190965000039,"velocity":0.5039370078740157,"duration":0.13457218645834246},{"name":"B3","midi":59,"time":208.9190965000039,"velocity":0.5039370078740157,"duration":0.13457218645834246},{"name":"B3","midi":59,"time":208.9190965000039,"velocity":0.5039370078740157,"duration":0.13457218645834246},{"name":"B3","midi":59,"time":208.9190965000039,"velocity":0.5039370078740157,"duration":0.13457218645834246},{"name":"B3","midi":59,"time":208.9190965000039,"velocity":0.5039370078740157,"duration":0.13457218645834246},{"name":"B3","midi":59,"time":208.9190965000039,"velocity":0.5039370078740157,"duration":0.13457218645834246},{"name":"E3","midi":52,"time":209.0542317500039,"velocity":0.5039370078740157,"duration":0.13457218645834246},{"name":"E3","midi":52,"time":209.0542317500039,"velocity":0.5039370078740157,"duration":0.13457218645834246},{"name":"E3","midi":52,"time":209.0542317500039,"velocity":0.5039370078740157,"duration":0.13457218645834246},{"name":"E3","midi":52,"time":209.0542317500039,"velocity":0.5039370078740157,"duration":0.13457218645834246},{"name":"E3","midi":52,"time":209.0542317500039,"velocity":0.5039370078740157,"duration":0.13457218645834246},{"name":"E3","midi":52,"time":209.0542317500039,"velocity":0.5039370078740157,"duration":0.13457218645834246},{"name":"E3","midi":52,"time":209.0542317500039,"velocity":0.5039370078740157,"duration":0.13457218645834246},{"name":"E3","midi":52,"time":209.0542317500039,"velocity":0.5039370078740157,"duration":0.13457218645834246},{"name":"A#3","midi":58,"time":209.18936700000393,"velocity":0.5039370078740157,"duration":0.13457218645834246},{"name":"A#3","midi":58,"time":209.18936700000393,"velocity":0.5039370078740157,"duration":0.13457218645834246},{"name":"A#3","midi":58,"time":209.18936700000393,"velocity":0.5039370078740157,"duration":0.13457218645834246},{"name":"A#3","midi":58,"time":209.18936700000393,"velocity":0.5039370078740157,"duration":0.13457218645834246},{"name":"A#3","midi":58,"time":209.18936700000393,"velocity":0.5039370078740157,"duration":0.13457218645834246},{"name":"A#3","midi":58,"time":209.18936700000393,"velocity":0.5039370078740157,"duration":0.13457218645834246},{"name":"A#3","midi":58,"time":209.18936700000393,"velocity":0.5039370078740157,"duration":0.13457218645834246},{"name":"A#3","midi":58,"time":209.18936700000393,"velocity":0.5039370078740157,"duration":0.13457218645834246},{"name":"A#3","midi":58,"time":209.32450225000395,"velocity":0.5039370078740157,"duration":0.13457218645834246},{"name":"A#3","midi":58,"time":209.32450225000395,"velocity":0.5039370078740157,"duration":0.13457218645834246},{"name":"A#3","midi":58,"time":209.32450225000395,"velocity":0.5039370078740157,"duration":0.13457218645834246},{"name":"A#3","midi":58,"time":209.32450225000395,"velocity":0.5039370078740157,"duration":0.13457218645834246},{"name":"A#3","midi":58,"time":209.32450225000395,"velocity":0.5039370078740157,"duration":0.13457218645834246},{"name":"A#3","midi":58,"time":209.32450225000395,"velocity":0.5039370078740157,"duration":0.13457218645834246},{"name":"A#3","midi":58,"time":209.32450225000395,"velocity":0.5039370078740157,"duration":0.13457218645834246},{"name":"A#3","midi":58,"time":209.32450225000395,"velocity":0.5039370078740157,"duration":0.13457218645834246},{"name":"E3","midi":52,"time":209.45963750000396,"velocity":0.5039370078740157,"duration":0.13457218645834246},{"name":"E3","midi":52,"time":209.45963750000396,"velocity":0.5039370078740157,"duration":0.13457218645834246},{"name":"E3","midi":52,"time":209.45963750000396,"velocity":0.5039370078740157,"duration":0.13457218645834246},{"name":"E3","midi":52,"time":209.45963750000396,"velocity":0.5039370078740157,"duration":0.13457218645834246},{"name":"E3","midi":52,"time":209.45963750000396,"velocity":0.5039370078740157,"duration":0.13457218645834246},{"name":"E3","midi":52,"time":209.45963750000396,"velocity":0.5039370078740157,"duration":0.13457218645834246},{"name":"E3","midi":52,"time":209.45963750000396,"velocity":0.5039370078740157,"duration":0.13457218645834246},{"name":"E3","midi":52,"time":209.45963750000396,"velocity":0.5039370078740157,"duration":0.13457218645834246},{"name":"B3","midi":59,"time":209.59477275000398,"velocity":0.5039370078740157,"duration":0.13457218645834246},{"name":"B3","midi":59,"time":209.59477275000398,"velocity":0.5039370078740157,"duration":0.13457218645834246},{"name":"B3","midi":59,"time":209.59477275000398,"velocity":0.5039370078740157,"duration":0.13457218645834246},{"name":"B3","midi":59,"time":209.59477275000398,"velocity":0.5039370078740157,"duration":0.13457218645834246},{"name":"B3","midi":59,"time":209.59477275000398,"velocity":0.5039370078740157,"duration":0.13457218645834246},{"name":"B3","midi":59,"time":209.59477275000398,"velocity":0.5039370078740157,"duration":0.13457218645834246},{"name":"B3","midi":59,"time":209.59477275000398,"velocity":0.5039370078740157,"duration":0.13457218645834246},{"name":"B3","midi":59,"time":209.59477275000398,"velocity":0.5039370078740157,"duration":0.13457218645834246},{"name":"B3","midi":59,"time":209.729908000004,"velocity":0.5039370078740157,"duration":0.13457218645834246},{"name":"B3","midi":59,"time":209.729908000004,"velocity":0.5039370078740157,"duration":0.13457218645834246},{"name":"B3","midi":59,"time":209.729908000004,"velocity":0.5039370078740157,"duration":0.13457218645834246},{"name":"B3","midi":59,"time":209.729908000004,"velocity":0.5039370078740157,"duration":0.13457218645834246},{"name":"B3","midi":59,"time":209.729908000004,"velocity":0.5039370078740157,"duration":0.13457218645834246},{"name":"B3","midi":59,"time":209.729908000004,"velocity":0.5039370078740157,"duration":0.13457218645834246},{"name":"B3","midi":59,"time":209.729908000004,"velocity":0.5039370078740157,"duration":0.13457218645834246},{"name":"B3","midi":59,"time":209.729908000004,"velocity":0.5039370078740157,"duration":0.13457218645834246},{"name":"E3","midi":52,"time":209.86504325000402,"velocity":0.5039370078740157,"duration":0.13457218645834246},{"name":"E3","midi":52,"time":209.86504325000402,"velocity":0.5039370078740157,"duration":0.13457218645834246},{"name":"E3","midi":52,"time":209.86504325000402,"velocity":0.5039370078740157,"duration":0.13457218645834246},{"name":"E3","midi":52,"time":209.86504325000402,"velocity":0.5039370078740157,"duration":0.13457218645834246},{"name":"E3","midi":52,"time":209.86504325000402,"velocity":0.5039370078740157,"duration":0.13457218645834246},{"name":"E3","midi":52,"time":209.86504325000402,"velocity":0.5039370078740157,"duration":0.13457218645834246},{"name":"E3","midi":52,"time":209.86504325000402,"velocity":0.5039370078740157,"duration":0.13457218645834246},{"name":"E3","midi":52,"time":209.86504325000402,"velocity":0.5039370078740157,"duration":0.13457218645834246},{"name":"A#3","midi":58,"time":210.00017850000404,"velocity":0.5039370078740157,"duration":0.13457218645834246},{"name":"A#3","midi":58,"time":210.00017850000404,"velocity":0.5039370078740157,"duration":0.13457218645834246},{"name":"A#3","midi":58,"time":210.00017850000404,"velocity":0.5039370078740157,"duration":0.13457218645834246},{"name":"A#3","midi":58,"time":210.00017850000404,"velocity":0.5039370078740157,"duration":0.13457218645834246},{"name":"A#3","midi":58,"time":210.00017850000404,"velocity":0.5039370078740157,"duration":0.13457218645834246},{"name":"A#3","midi":58,"time":210.00017850000404,"velocity":0.5039370078740157,"duration":0.13457218645834246},{"name":"A#3","midi":58,"time":210.00017850000404,"velocity":0.5039370078740157,"duration":0.13457218645834246},{"name":"A#3","midi":58,"time":210.00017850000404,"velocity":0.5039370078740157,"duration":0.13457218645834246},{"name":"E3","midi":52,"time":210.13531375000406,"velocity":0.5039370078740157,"duration":0.13457218645834246},{"name":"E3","midi":52,"time":210.13531375000406,"velocity":0.5039370078740157,"duration":0.13457218645834246},{"name":"E3","midi":52,"time":210.27044900000408,"velocity":0.5039370078740157,"duration":0.13457218645834246},{"name":"E3","midi":52,"time":210.27044900000408,"velocity":0.5039370078740157,"duration":0.13457218645834246},{"name":"B3","midi":59,"time":210.4055842500041,"velocity":0.5039370078740157,"duration":0.13457218645834246},{"name":"B3","midi":59,"time":210.4055842500041,"velocity":0.5039370078740157,"duration":0.13457218645834246},{"name":"B3","midi":59,"time":210.54071950000412,"velocity":0.5039370078740157,"duration":0.13457218645834246},{"name":"B3","midi":59,"time":210.54071950000412,"velocity":0.5039370078740157,"duration":0.13457218645834246},{"name":"E3","midi":52,"time":210.67585475000413,"velocity":0.5039370078740157,"duration":0.13457218645834246},{"name":"E3","midi":52,"time":210.67585475000413,"velocity":0.5039370078740157,"duration":0.13457218645834246},{"name":"A#3","midi":58,"time":210.81099000000415,"velocity":0.5039370078740157,"duration":0.13457218645834246},{"name":"A#3","midi":58,"time":210.81099000000415,"velocity":0.5039370078740157,"duration":0.13457218645834246},{"name":"A#3","midi":58,"time":210.94612525000417,"velocity":0.5039370078740157,"duration":0.13457218645834246},{"name":"A#3","midi":58,"time":210.94612525000417,"velocity":0.5039370078740157,"duration":0.13457218645834246},{"name":"E3","midi":52,"time":211.0812605000042,"velocity":0.5039370078740157,"duration":0.13457218645834246},{"name":"E3","midi":52,"time":211.0812605000042,"velocity":0.5039370078740157,"duration":0.13457218645834246},{"name":"B3","midi":59,"time":211.2163957500042,"velocity":0.5039370078740157,"duration":0.13457218645834246},{"name":"B3","midi":59,"time":211.2163957500042,"velocity":0.5039370078740157,"duration":0.13457218645834246},{"name":"B3","midi":59,"time":211.35153100000423,"velocity":0.5039370078740157,"duration":0.13457218645834246},{"name":"B3","midi":59,"time":211.35153100000423,"velocity":0.5039370078740157,"duration":0.13457218645834246},{"name":"E3","midi":52,"time":211.48666625000425,"velocity":0.5039370078740157,"duration":0.13457218645834246},{"name":"E3","midi":52,"time":211.48666625000425,"velocity":0.5039370078740157,"duration":0.13457218645834246},{"name":"A#3","midi":58,"time":211.62180150000427,"velocity":0.5039370078740157,"duration":0.13457218645834246},{"name":"A#3","midi":58,"time":211.62180150000427,"velocity":0.5039370078740157,"duration":0.13457218645834246},{"name":"A#3","midi":58,"time":211.7569367500043,"velocity":0.5039370078740157,"duration":0.13457218645834246},{"name":"A#3","midi":58,"time":211.7569367500043,"velocity":0.5039370078740157,"duration":0.13457218645834246},{"name":"E3","midi":52,"time":211.8920720000043,"velocity":0.5039370078740157,"duration":0.13457218645834246},{"name":"E3","midi":52,"time":211.8920720000043,"velocity":0.5039370078740157,"duration":0.13457218645834246},{"name":"B3","midi":59,"time":212.02720725000432,"velocity":0.5039370078740157,"duration":0.13457218645834246},{"name":"B3","midi":59,"time":212.02720725000432,"velocity":0.5039370078740157,"duration":0.13457218645834246},{"name":"E3","midi":52,"time":212.16234250000434,"velocity":0.5039370078740157,"duration":0.13457218645834246},{"name":"E3","midi":52,"time":212.16234250000434,"velocity":0.5039370078740157,"duration":0.13457218645834246},{"name":"C4","midi":60,"time":212.29747775000436,"velocity":0.5039370078740157,"duration":0.13457218645834246},{"name":"C4","midi":60,"time":212.29747775000436,"velocity":0.5039370078740157,"duration":0.13457218645834246},{"name":"E3","midi":52,"time":212.43261300000438,"velocity":0.5039370078740157,"duration":0.13457218645834246},{"name":"E3","midi":52,"time":212.43261300000438,"velocity":0.5039370078740157,"duration":0.13457218645834246},{"name":"B3","midi":59,"time":212.5677482500044,"velocity":0.5039370078740157,"duration":0.13457218645834246},{"name":"B3","midi":59,"time":212.5677482500044,"velocity":0.5039370078740157,"duration":0.13457218645834246},{"name":"B3","midi":59,"time":212.70288350000442,"velocity":0.5039370078740157,"duration":0.13457218645834246},{"name":"B3","midi":59,"time":212.70288350000442,"velocity":0.5039370078740157,"duration":0.13457218645834246},{"name":"E3","midi":52,"time":212.83801875000444,"velocity":0.5039370078740157,"duration":0.13457218645834246},{"name":"E3","midi":52,"time":212.83801875000444,"velocity":0.5039370078740157,"duration":0.13457218645834246},{"name":"A#3","midi":58,"time":212.97315400000446,"velocity":0.5039370078740157,"duration":0.13457218645834246},{"name":"A#3","midi":58,"time":212.97315400000446,"velocity":0.5039370078740157,"duration":0.13457218645834246},{"name":"A#3","midi":58,"time":213.10828925000447,"velocity":0.5039370078740157,"duration":0.13457218645834246},{"name":"A#3","midi":58,"time":213.10828925000447,"velocity":0.5039370078740157,"duration":0.13457218645834246},{"name":"E3","midi":52,"time":213.2434245000045,"velocity":0.5039370078740157,"duration":0.13457218645834246},{"name":"E3","midi":52,"time":213.2434245000045,"velocity":0.5039370078740157,"duration":0.13457218645834246},{"name":"B3","midi":59,"time":213.3785597500045,"velocity":0.5039370078740157,"duration":0.13457218645834246},{"name":"B3","midi":59,"time":213.3785597500045,"velocity":0.5039370078740157,"duration":0.13457218645834246},{"name":"B3","midi":59,"time":213.51369500000453,"velocity":0.5039370078740157,"duration":0.13457218645834246},{"name":"B3","midi":59,"time":213.51369500000453,"velocity":0.5039370078740157,"duration":0.13457218645834246},{"name":"E3","midi":52,"time":213.64883025000455,"velocity":0.5039370078740157,"duration":0.13457218645834246},{"name":"E3","midi":52,"time":213.64883025000455,"velocity":0.5039370078740157,"duration":0.13457218645834246},{"name":"A#3","midi":58,"time":213.78396550000457,"velocity":0.5039370078740157,"duration":0.13457218645834246},{"name":"A#3","midi":58,"time":213.78396550000457,"velocity":0.5039370078740157,"duration":0.13457218645834246},{"name":"E3","midi":52,"time":213.9191007500046,"velocity":0.5039370078740157,"duration":0.13457218645834246},{"name":"E3","midi":52,"time":213.9191007500046,"velocity":0.5039370078740157,"duration":0.13457218645834246},{"name":"E3","midi":52,"time":214.0542360000046,"velocity":0.5039370078740157,"duration":0.9453836864583707},{"name":"E4","midi":64,"time":214.1893712500046,"velocity":0.5039370078740157,"duration":0.13457218645834246},{"name":"E4","midi":64,"time":214.32450650000462,"velocity":0.5039370078740157,"duration":0.13457218645834246},{"name":"E4","midi":64,"time":214.45964175000464,"velocity":0.5039370078740157,"duration":0.13457218645834246},{"name":"E3","midi":52,"time":214.86504750000464,"velocity":0.5039370078740157,"duration":0.13457218645834246},{"name":"E3","midi":52,"time":215.00018275000465,"velocity":0.5039370078740157,"duration":0.13457218645834246},{"name":"E3","midi":52,"time":215.13531800000467,"velocity":0.5039370078740157,"duration":0.13457218645834246},{"name":"E3","midi":52,"time":215.2704532500047,"velocity":0.5039370078740157,"duration":0.13457218645834246},{"name":"E4","midi":64,"time":215.6758590000047,"velocity":0.5039370078740157,"duration":0.13457218645834246},{"name":"E4","midi":64,"time":215.8109942500047,"velocity":0.5039370078740157,"duration":0.13457218645834246},{"name":"E4","midi":64,"time":215.94612950000473,"velocity":0.5039370078740157,"duration":0.13457218645834246},{"name":"E4","midi":64,"time":216.08126475000475,"velocity":0.5039370078740157,"duration":0.13457218645834246},{"name":"E3","midi":52,"time":216.48667050000475,"velocity":0.5039370078740157,"duration":0.13457218645834246},{"name":"E3","midi":52,"time":216.62180575000477,"velocity":0.5039370078740157,"duration":0.13457218645834246},{"name":"E3","midi":52,"time":216.7569410000048,"velocity":0.5039370078740157,"duration":0.13457218645834246},{"name":"E3","midi":52,"time":216.8920762500048,"velocity":0.5039370078740157,"duration":0.13457218645834246},{"name":"E4","midi":64,"time":217.83802300000482,"velocity":0.5039370078740157,"duration":0.13457218645834246},{"name":"E4","midi":64,"time":217.97315825000484,"velocity":0.5039370078740157,"duration":0.13457218645834246},{"name":"E4","midi":64,"time":218.10829350000486,"velocity":0.5039370078740157,"duration":0.13457218645834246},{"name":"E4","midi":64,"time":218.24342875000488,"velocity":0.5039370078740157,"duration":0.13457218645834246},{"name":"E3","midi":52,"time":218.64883450000488,"velocity":0.5039370078740157,"duration":0.13457218645834246},{"name":"E3","midi":52,"time":218.7839697500049,"velocity":0.5039370078740157,"duration":0.13457218645834246},{"name":"E3","midi":52,"time":218.91910500000492,"velocity":0.5039370078740157,"duration":0.13457218645834246},{"name":"E3","midi":52,"time":219.05424025000494,"velocity":0.5039370078740157,"duration":0.13457218645834246},{"name":"E4","midi":64,"time":219.45964600000494,"velocity":0.5039370078740157,"duration":0.13457218645834246},{"name":"E4","midi":64,"time":219.59478125000496,"velocity":0.5039370078740157,"duration":0.13457218645834246},{"name":"E4","midi":64,"time":219.72991650000498,"velocity":0.5039370078740157,"duration":0.13457218645834246},{"name":"E4","midi":64,"time":219.865051750005,"velocity":0.5039370078740157,"duration":0.13457218645834246},{"name":"E3","midi":52,"time":220.270457500005,"velocity":0.5039370078740157,"duration":0.13457218645834246},{"name":"E3","midi":52,"time":220.405592750005,"velocity":0.5039370078740157,"duration":0.13457218645834246},{"name":"E3","midi":52,"time":220.54072800000503,"velocity":0.5039370078740157,"duration":0.13457218645834246},{"name":"E3","midi":52,"time":220.67586325000505,"velocity":0.5039370078740157,"duration":0.13457218645834246},{"name":"E4","midi":64,"time":221.62181000000507,"velocity":0.5039370078740157,"duration":0.13457218645834246},{"name":"E4","midi":64,"time":221.7569452500051,"velocity":0.5039370078740157,"duration":0.13457218645834246},{"name":"E4","midi":64,"time":221.8920805000051,"velocity":0.5039370078740157,"duration":0.13457218645834246},{"name":"E4","midi":64,"time":222.02721575000513,"velocity":0.5039370078740157,"duration":0.13457218645834246},{"name":"E3","midi":52,"time":222.43262150000513,"velocity":0.5039370078740157,"duration":0.13457218645834246},{"name":"E3","midi":52,"time":222.56775675000515,"velocity":0.5039370078740157,"duration":0.13457218645834246},{"name":"E3","midi":52,"time":222.70289200000516,"velocity":0.5039370078740157,"duration":0.13457218645834246},{"name":"E3","midi":52,"time":222.83802725000518,"velocity":0.5039370078740157,"duration":0.13457218645834246},{"name":"E4","midi":64,"time":223.24343300000518,"velocity":0.5039370078740157,"duration":0.13457218645834246},{"name":"E4","midi":64,"time":223.3785682500052,"velocity":0.5039370078740157,"duration":0.13457218645834246},{"name":"E4","midi":64,"time":223.51370350000522,"velocity":0.5039370078740157,"duration":0.13457218645834246},{"name":"E4","midi":64,"time":223.64883875000524,"velocity":0.5039370078740157,"duration":0.13457218645834246},{"name":"E3","midi":52,"time":224.05424450000524,"velocity":0.5039370078740157,"duration":0.13457218645834246},{"name":"E3","midi":52,"time":224.18937975000526,"velocity":0.5039370078740157,"duration":0.13457218645834246},{"name":"E3","midi":52,"time":224.32451500000528,"velocity":0.5039370078740157,"duration":0.13457218645834246},{"name":"E3","midi":52,"time":224.4596502500053,"velocity":0.5039370078740157,"duration":0.13457218645834246},{"name":"E4","midi":64,"time":225.40559700000532,"velocity":0.5039370078740157,"duration":0.13457218645834246},{"name":"E4","midi":64,"time":225.54073225000533,"velocity":0.5039370078740157,"duration":0.13457218645834246},{"name":"E4","midi":64,"time":225.67586750000535,"velocity":0.5039370078740157,"duration":0.13457218645834246},{"name":"E4","midi":64,"time":225.81100275000537,"velocity":0.5039370078740157,"duration":0.13457218645834246},{"name":"E3","midi":52,"time":226.21640850000537,"velocity":0.5039370078740157,"duration":0.13457218645834246},{"name":"E3","midi":52,"time":226.3515437500054,"velocity":0.5039370078740157,"duration":0.13457218645834246},{"name":"E3","midi":52,"time":226.4866790000054,"velocity":0.5039370078740157,"duration":0.13457218645834246},{"name":"E3","midi":52,"time":226.62181425000543,"velocity":0.5039370078740157,"duration":0.13457218645834246},{"name":"E4","midi":64,"time":227.02722000000543,"velocity":0.5039370078740157,"duration":0.13457218645834246},{"name":"E4","midi":64,"time":227.16235525000545,"velocity":0.5039370078740157,"duration":0.13457218645834246},{"name":"E4","midi":64,"time":227.29749050000547,"velocity":0.5039370078740157,"duration":0.13457218645834246},{"name":"E4","midi":64,"time":227.43262575000549,"velocity":0.5039370078740157,"duration":0.13457218645834246},{"name":"E3","midi":52,"time":227.83803150000548,"velocity":0.5039370078740157,"duration":0.13457218645834246},{"name":"E3","midi":52,"time":227.9731667500055,"velocity":0.5039370078740157,"duration":0.13457218645834246},{"name":"E3","midi":52,"time":228.10830200000552,"velocity":0.5039370078740157,"duration":0.13457218645834246},{"name":"E3","midi":52,"time":228.24343725000554,"velocity":0.5039370078740157,"duration":0.13457218645834246}],"controlChanges":{"7":[{"number":7,"time":0,"value":0.7874015748031497}]},"id":3,"name":"MIDI Chn 2","instrumentNumber":90,"instrument":"pad 3 (polysynth)","instrumentFamily":"synth pad","channelNumber":1,"isPercussion":false},{"startTime":65.67573150000001,"duration":229.3239561864583,"length":476,"notes":[{"name":"C#4","midi":61,"time":65.67573150000001,"velocity":0.4409448818897638,"duration":0.13457218645832825},{"name":"E3","midi":52,"time":65.81086675,"velocity":0.4409448818897638,"duration":0.13457218645832825},{"name":"D4","midi":62,"time":65.946002,"velocity":0.4409448818897638,"duration":0.13457218645832825},{"name":"E3","midi":52,"time":66.08113724999998,"velocity":0.4409448818897638,"duration":0.13457218645832825},{"name":"C#4","midi":61,"time":66.21627249999997,"velocity":0.4409448818897638,"duration":0.13457218645832825},{"name":"E3","midi":52,"time":66.35140774999996,"velocity":0.4409448818897638,"duration":0.13457218645832825},{"name":"D4","midi":62,"time":66.48654299999995,"velocity":0.4409448818897638,"duration":0.13457218645832825},{"name":"E4","midi":64,"time":66.62167824999995,"velocity":0.4409448818897638,"duration":0.13457218645832825},{"name":"E3","midi":52,"time":66.75681349999994,"velocity":0.4409448818897638,"duration":0.13457218645832825},{"name":"E4","midi":64,"time":66.89194874999993,"velocity":0.4409448818897638,"duration":0.13457218645832825},{"name":"C#4","midi":61,"time":69.45951849999992,"velocity":0.4409448818897638,"duration":0.13457218645832825},{"name":"D4","midi":62,"time":69.72978899999991,"velocity":0.4409448818897638,"duration":0.13457218645832825},{"name":"C#4","midi":61,"time":70.0000594999999,"velocity":0.4409448818897638,"duration":0.13457218645832825},{"name":"D4","midi":62,"time":70.2703299999999,"velocity":0.4409448818897638,"duration":0.13457218645832825},{"name":"C#4","midi":61,"time":70.40546524999989,"velocity":0.4409448818897638,"duration":0.13457218645832825},{"name":"B3","midi":59,"time":70.67573574999989,"velocity":0.4409448818897638,"duration":0.13457218645832825},{"name":"G3","midi":55,"time":71.08114149999989,"velocity":0.4409448818897638,"duration":0.13457218645832825},{"name":"E3","midi":52,"time":71.21627674999988,"velocity":0.4409448818897638,"duration":0.13457218645832825},{"name":"C#4","midi":61,"time":73.24330549999988,"velocity":0.4409448818897638,"duration":0.13457218645832825},{"name":"E3","midi":52,"time":73.37844074999987,"velocity":0.4409448818897638,"duration":0.13457218645832825},{"name":"D4","midi":62,"time":73.51357599999986,"velocity":0.4409448818897638,"duration":0.13457218645832825},{"name":"E3","midi":52,"time":73.64871124999985,"velocity":0.4409448818897638,"duration":0.13457218645832825},{"name":"C#4","midi":61,"time":73.78384649999984,"velocity":0.4409448818897638,"duration":0.13457218645832825},{"name":"E3","midi":52,"time":73.91898174999983,"velocity":0.4409448818897638,"duration":0.13457218645832825},{"name":"D4","midi":62,"time":74.05411699999982,"velocity":0.4409448818897638,"duration":0.13457218645832825},{"name":"E4","midi":64,"time":74.18925224999981,"velocity":0.4409448818897638,"duration":0.13457218645832825},{"name":"E3","midi":52,"time":74.3243874999998,"velocity":0.4409448818897638,"duration":0.13457218645832825},{"name":"E4","midi":64,"time":74.45952274999979,"velocity":0.4409448818897638,"duration":0.13457218645832825},{"name":"E4","midi":64,"time":85.40547799999979,"velocity":0.4409448818897638,"duration":0.13457218645832825},{"name":"E3","midi":52,"time":85.54061324999978,"velocity":0.4409448818897638,"duration":0.13457218645832825},{"name":"E3","midi":52,"time":85.67574849999977,"velocity":0.4409448818897638,"duration":0.13457218645832825},{"name":"E4","midi":64,"time":85.81088374999976,"velocity":0.4409448818897638,"duration":0.13457218645832825},{"name":"E3","midi":52,"time":85.94601899999975,"velocity":0.4409448818897638,"duration":0.13457218645832825},{"name":"E3","midi":52,"time":86.08115424999974,"velocity":0.4409448818897638,"duration":0.13457218645832825},{"name":"E4","midi":64,"time":86.21628949999973,"velocity":0.4409448818897638,"duration":0.13457218645832825},{"name":"E3","midi":52,"time":86.35142474999972,"velocity":0.4409448818897638,"duration":0.13457218645832825},{"name":"E3","midi":52,"time":86.48655999999971,"velocity":0.4409448818897638,"duration":0.13457218645832825},{"name":"E4","midi":64,"time":86.6216952499997,"velocity":0.4409448818897638,"duration":0.13457218645832825},{"name":"E3","midi":52,"time":86.7568304999997,"velocity":0.4409448818897638,"duration":0.13457218645832825},{"name":"E3","midi":52,"time":86.89196574999968,"velocity":0.4409448818897638,"duration":0.13457218645832825},{"name":"E4","midi":64,"time":87.02710099999967,"velocity":0.4409448818897638,"duration":0.13457218645832825},{"name":"E3","midi":52,"time":87.16223624999967,"velocity":0.4409448818897638,"duration":0.13457218645832825},{"name":"E3","midi":52,"time":87.29737149999966,"velocity":0.4409448818897638,"duration":0.13457218645832825},{"name":"E4","midi":64,"time":87.43250674999965,"velocity":0.4409448818897638,"duration":0.13457218645832825},{"name":"E4","midi":64,"time":87.56764199999964,"velocity":0.4409448818897638,"duration":0.13457218645832825},{"name":"E3","midi":52,"time":87.70277724999963,"velocity":0.4409448818897638,"duration":0.13457218645832825},{"name":"E3","midi":52,"time":87.83791249999962,"velocity":0.4409448818897638,"duration":0.13457218645832825},{"name":"E4","midi":64,"time":87.97304774999961,"velocity":0.4409448818897638,"duration":0.13457218645832825},{"name":"E3","midi":52,"time":88.1081829999996,"velocity":0.4409448818897638,"duration":0.13457218645832825},{"name":"E3","midi":52,"time":88.24331824999959,"velocity":0.4409448818897638,"duration":0.13457218645832825},{"name":"E4","midi":64,"time":88.37845349999958,"velocity":0.4409448818897638,"duration":0.13457218645832825},{"name":"E3","midi":52,"time":88.51358874999957,"velocity":0.4409448818897638,"duration":0.13457218645832825},{"name":"E3","midi":52,"time":88.64872399999956,"velocity":0.4409448818897638,"duration":0.13457218645832825},{"name":"E4","midi":64,"time":88.78385924999955,"velocity":0.4409448818897638,"duration":0.13457218645832825},{"name":"E3","midi":52,"time":88.91899449999954,"velocity":0.4409448818897638,"duration":0.13457218645832825},{"name":"E3","midi":52,"time":89.05412974999953,"velocity":0.4409448818897638,"duration":0.13457218645832825},{"name":"E4","midi":64,"time":89.18926499999952,"velocity":0.4409448818897638,"duration":0.13457218645832825},{"name":"E3","midi":52,"time":89.32440024999951,"velocity":0.4409448818897638,"duration":0.13457218645832825},{"name":"E3","midi":52,"time":89.4595354999995,"velocity":0.4409448818897638,"duration":0.13457218645832825},{"name":"E4","midi":64,"time":89.5946707499995,"velocity":0.4409448818897638,"duration":0.13457218645832825},{"name":"E3","midi":52,"time":89.72980599999948,"velocity":0.4409448818897638,"duration":0.13457218645832825},{"name":"E3","midi":52,"time":89.86494124999948,"velocity":0.4409448818897638,"duration":0.13457218645832825},{"name":"E4","midi":64,"time":90.00007649999947,"velocity":0.4409448818897638,"duration":0.13457218645832825},{"name":"E3","midi":52,"time":90.13521174999946,"velocity":0.4409448818897638,"duration":0.13457218645832825},{"name":"E3","midi":52,"time":90.27034699999945,"velocity":0.4409448818897638,"duration":0.13457218645832825},{"name":"E4","midi":64,"time":90.40548224999944,"velocity":0.4409448818897638,"duration":0.13457218645832825},{"name":"E3","midi":52,"time":90.54061749999943,"velocity":0.4409448818897638,"duration":0.13457218645832825},{"name":"E3","midi":52,"time":90.67575274999942,"velocity":0.4409448818897638,"duration":0.13457218645832825},{"name":"E4","midi":64,"time":90.81088799999941,"velocity":0.4409448818897638,"duration":0.13457218645832825},{"name":"E3","midi":52,"time":90.9460232499994,"velocity":0.4409448818897638,"duration":0.13457218645832825},{"name":"E3","midi":52,"time":91.08115849999939,"velocity":0.4409448818897638,"duration":0.13457218645832825},{"name":"E4","midi":64,"time":91.21629374999938,"velocity":0.4409448818897638,"duration":0.13457218645832825},{"name":"E4","midi":64,"time":91.35142899999937,"velocity":0.4409448818897638,"duration":0.13457218645832825},{"name":"E3","midi":52,"time":91.48656424999936,"velocity":0.4409448818897638,"duration":0.13457218645832825},{"name":"E3","midi":52,"time":91.62169949999935,"velocity":0.4409448818897638,"duration":0.13457218645832825},{"name":"E4","midi":64,"time":91.75683474999934,"velocity":0.4409448818897638,"duration":0.13457218645832825},{"name":"E3","midi":52,"time":91.89196999999933,"velocity":0.4409448818897638,"duration":0.13457218645832825},{"name":"E3","midi":52,"time":92.02710524999932,"velocity":0.4409448818897638,"duration":0.13457218645832825},{"name":"E4","midi":64,"time":92.16224049999931,"velocity":0.4409448818897638,"duration":0.13457218645832825},{"name":"E3","midi":52,"time":92.2973757499993,"velocity":0.4409448818897638,"duration":0.13457218645832825},{"name":"E3","midi":52,"time":92.4325109999993,"velocity":0.4409448818897638,"duration":0.13457218645832825},{"name":"E4","midi":64,"time":92.56764624999929,"velocity":0.4409448818897638,"duration":0.13457218645832825},{"name":"E3","midi":52,"time":92.70278149999928,"velocity":0.4409448818897638,"duration":0.13457218645832825},{"name":"E3","midi":52,"time":92.83791674999927,"velocity":0.4409448818897638,"duration":0.13457218645832825},{"name":"E4","midi":64,"time":92.97305199999926,"velocity":0.4409448818897638,"duration":0.13457218645832825},{"name":"G#4","midi":68,"time":93.10818724999925,"velocity":0.4409448818897638,"duration":0.13457218645832825},{"name":"E4","midi":64,"time":93.24332249999924,"velocity":0.4409448818897638,"duration":0.13457218645832825},{"name":"B3","midi":59,"time":93.37845774999923,"velocity":0.4409448818897638,"duration":0.13457218645832825},{"name":"F#4","midi":66,"time":93.51359299999922,"velocity":0.4409448818897638,"duration":0.13457218645832825},{"name":"D4","midi":62,"time":93.64872824999921,"velocity":0.4409448818897638,"duration":0.13457218645832825},{"name":"B3","midi":59,"time":93.7838634999992,"velocity":0.4409448818897638,"duration":0.13457218645832825},{"name":"E4","midi":64,"time":93.91899874999919,"velocity":0.4409448818897638,"duration":0.13457218645832825},{"name":"C#4","midi":61,"time":94.05413399999918,"velocity":0.4409448818897638,"duration":0.13457218645832825},{"name":"A3","midi":57,"time":94.18926924999917,"velocity":0.4409448818897638,"duration":0.13457218645832825},{"name":"B3","midi":59,"time":94.32440449999916,"velocity":0.4409448818897638,"duration":0.13457218645832825},{"name":"G#3","midi":56,"time":94.45953974999915,"velocity":0.4409448818897638,"duration":0.13457218645832825},{"name":"A3","midi":57,"time":94.59467499999914,"velocity":0.4409448818897638,"duration":0.13457218645832825},{"name":"B3","midi":59,"time":94.72981024999913,"velocity":0.4409448818897638,"duration":0.13457218645832825},{"name":"E4","midi":64,"time":94.86494549999912,"velocity":0.4409448818897638,"duration":0.13457218645832825},{"name":"D4","midi":62,"time":95.00008074999911,"velocity":0.4409448818897638,"duration":0.13457218645832825},{"name":"G#4","midi":68,"time":95.1352159999991,"velocity":0.4409448818897638,"duration":0.13457218645832825},{"name":"E4","midi":64,"time":95.2703512499991,"velocity":0.4409448818897638,"duration":0.13457218645832825},{"name":"B3","midi":59,"time":95.40548649999909,"velocity":0.4409448818897638,"duration":0.13457218645832825},{"name":"F#4","midi":66,"time":95.54062174999908,"velocity":0.4409448818897638,"duration":0.13457218645832825},{"name":"D4","midi":62,"time":95.67575699999907,"velocity":0.4409448818897638,"duration":0.13457218645832825},{"name":"B3","midi":59,"time":95.81089224999906,"velocity":0.4409448818897638,"duration":0.13457218645832825},{"name":"E4","midi":64,"time":95.94602749999905,"velocity":0.4409448818897638,"duration":0.13457218645832825},{"name":"C#4","midi":61,"time":96.08116274999904,"velocity":0.4409448818897638,"duration":0.13457218645832825},{"name":"A3","midi":57,"time":96.21629799999903,"velocity":0.4409448818897638,"duration":0.13457218645832825},{"name":"C#4","midi":61,"time":96.35143324999902,"velocity":0.4409448818897638,"duration":0.13457218645832825},{"name":"B3","midi":59,"time":96.48656849999901,"velocity":0.4409448818897638,"duration":0.13457218645832825},{"name":"G#3","midi":56,"time":96.621703749999,"velocity":0.4409448818897638,"duration":0.13457218645832825},{"name":"G#4","midi":68,"time":96.891974249999,"velocity":0.4409448818897638,"duration":0.13457218645832825},{"name":"E4","midi":64,"time":97.02710949999899,"velocity":0.4409448818897638,"duration":0.13457218645832825},{"name":"B3","midi":59,"time":97.16224474999898,"velocity":0.4409448818897638,"duration":0.13457218645832825},{"name":"F#4","midi":66,"time":97.29737999999897,"velocity":0.4409448818897638,"duration":0.13457218645832825},{"name":"D4","midi":62,"time":97.43251524999896,"velocity":0.4409448818897638,"duration":0.13457218645832825},{"name":"B3","midi":59,"time":97.56765049999895,"velocity":0.4409448818897638,"duration":0.13457218645832825},{"name":"E4","midi":64,"time":97.70278574999894,"velocity":0.4409448818897638,"duration":0.13457218645832825},{"name":"C#4","midi":61,"time":97.83792099999893,"velocity":0.4409448818897638,"duration":0.13457218645832825},{"name":"A3","midi":57,"time":97.97305624999892,"velocity":0.4409448818897638,"duration":0.13457218645832825},{"name":"B3","midi":59,"time":98.10819149999891,"velocity":0.4409448818897638,"duration":0.13457218645832825},{"name":"G#3","midi":56,"time":98.2433267499989,"velocity":0.4409448818897638,"duration":0.13457218645832825},{"name":"A3","midi":57,"time":98.37846199999889,"velocity":0.4409448818897638,"duration":0.13457218645832825},{"name":"B3","midi":59,"time":98.51359724999888,"velocity":0.4409448818897638,"duration":0.13457218645832825},{"name":"E4","midi":64,"time":98.64873249999887,"velocity":0.4409448818897638,"duration":0.13457218645832825},{"name":"D4","midi":62,"time":98.78386774999886,"velocity":0.4409448818897638,"duration":0.13457218645832825},{"name":"G#4","midi":68,"time":98.91900299999885,"velocity":0.4409448818897638,"duration":0.13457218645832825},{"name":"E4","midi":64,"time":99.05413824999884,"velocity":0.4409448818897638,"duration":0.13457218645832825},{"name":"B3","midi":59,"time":99.18927349999883,"velocity":0.4409448818897638,"duration":0.13457218645832825},{"name":"F#4","midi":66,"time":99.32440874999882,"velocity":0.4409448818897638,"duration":0.13457218645832825},{"name":"D4","midi":62,"time":99.45954399999881,"velocity":0.4409448818897638,"duration":0.13457218645832825},{"name":"B3","midi":59,"time":99.5946792499988,"velocity":0.4409448818897638,"duration":0.13457218645832825},{"name":"E4","midi":64,"time":99.7298144999988,"velocity":0.4409448818897638,"duration":0.13457218645832825},{"name":"C#4","midi":61,"time":99.86494974999879,"velocity":0.4409448818897638,"duration":0.13457218645832825},{"name":"A3","midi":57,"time":100.00008499999878,"velocity":0.4409448818897638,"duration":0.13457218645832825},{"name":"C#4","midi":61,"time":100.13522024999877,"velocity":0.4409448818897638,"duration":0.13457218645832825},{"name":"B3","midi":59,"time":100.27035549999876,"velocity":0.4409448818897638,"duration":0.13457218645832825},{"name":"G#3","midi":56,"time":100.40549074999875,"velocity":0.4409448818897638,"duration":0.13457218645832825},{"name":"E4","midi":64,"time":100.67576124999874,"velocity":0.4409448818897638,"duration":0.13457218645832825},{"name":"E4","midi":64,"time":100.94603174999874,"velocity":0.4409448818897638,"duration":0.13457218645832825},{"name":"E3","midi":52,"time":101.35143749999874,"velocity":0.4409448818897638,"duration":0.13457218645832825},{"name":"E3","midi":52,"time":101.48657274999873,"velocity":0.4409448818897638,"duration":0.13457218645832825},{"name":"E3","midi":52,"time":101.62170799999872,"velocity":0.4409448818897638,"duration":0.13457218645832825},{"name":"E3","midi":52,"time":101.75684324999871,"velocity":0.4409448818897638,"duration":0.13457218645832825},{"name":"E3","midi":52,"time":102.16224899999871,"velocity":0.4409448818897638,"duration":0.13457218645832825},{"name":"E4","midi":64,"time":102.2973842499987,"velocity":0.4409448818897638,"duration":0.13457218645832825},{"name":"E4","midi":64,"time":102.5676547499987,"velocity":0.4409448818897638,"duration":0.13457218645832825},{"name":"C#4","midi":61,"time":102.9730604999987,"velocity":0.4409448818897638,"duration":0.13457218645832825},{"name":"D4","midi":62,"time":103.24333099999869,"velocity":0.4409448818897638,"duration":0.13457218645832825},{"name":"C#4","midi":61,"time":103.51360149999869,"velocity":0.4409448818897638,"duration":0.13457218645832825},{"name":"D4","midi":62,"time":103.78387199999868,"velocity":0.4409448818897638,"duration":0.13457218645832825},{"name":"E4","midi":64,"time":103.91900724999867,"velocity":0.4409448818897638,"duration":0.13457218645832825},{"name":"E4","midi":64,"time":104.18927774999867,"velocity":0.4409448818897638,"duration":0.13457218645832825},{"name":"E4","midi":64,"time":104.32441299999866,"velocity":0.4409448818897638,"duration":0.13457218645832825},{"name":"G#4","midi":68,"time":104.45954824999865,"velocity":0.4409448818897638,"duration":0.13457218645832825},{"name":"E4","midi":64,"time":104.59468349999864,"velocity":0.4409448818897638,"duration":0.13457218645832825},{"name":"B3","midi":59,"time":104.72981874999863,"velocity":0.4409448818897638,"duration":0.13457218645832825},{"name":"F#4","midi":66,"time":104.86495399999862,"velocity":0.4409448818897638,"duration":0.13457218645832825},{"name":"D4","midi":62,"time":105.00008924999861,"velocity":0.4409448818897638,"duration":0.13457218645832825},{"name":"B3","midi":59,"time":105.1352244999986,"velocity":0.4409448818897638,"duration":0.13457218645832825},{"name":"E4","midi":64,"time":105.27035974999859,"velocity":0.4409448818897638,"duration":0.13457218645832825},{"name":"C#4","midi":61,"time":105.40549499999858,"velocity":0.4409448818897638,"duration":0.13457218645832825},{"name":"A3","midi":57,"time":105.54063024999857,"velocity":0.4409448818897638,"duration":0.13457218645832825},{"name":"B3","midi":59,"time":105.67576549999856,"velocity":0.4409448818897638,"duration":0.13457218645832825},{"name":"G#3","midi":56,"time":105.81090074999855,"velocity":0.4409448818897638,"duration":0.13457218645832825},{"name":"A3","midi":57,"time":105.94603599999854,"velocity":0.4409448818897638,"duration":0.13457218645832825},{"name":"B3","midi":59,"time":106.08117124999853,"velocity":0.4409448818897638,"duration":0.13457218645832825},{"name":"E4","midi":64,"time":106.21630649999852,"velocity":0.4409448818897638,"duration":0.13457218645832825},{"name":"D4","midi":62,"time":106.35144174999851,"velocity":0.4409448818897638,"duration":0.13457218645832825},{"name":"G#4","midi":68,"time":106.4865769999985,"velocity":0.4409448818897638,"duration":0.13457218645832825},{"name":"E4","midi":64,"time":106.6217122499985,"velocity":0.4409448818897638,"duration":0.13457218645832825},{"name":"B3","midi":59,"time":106.75684749999849,"velocity":0.4409448818897638,"duration":0.13457218645832825},{"name":"F#4","midi":66,"time":106.89198274999848,"velocity":0.4409448818897638,"duration":0.13457218645832825},{"name":"D4","midi":62,"time":107.02711799999847,"velocity":0.4409448818897638,"duration":0.13457218645832825},{"name":"B3","midi":59,"time":107.16225324999846,"velocity":0.4409448818897638,"duration":0.13457218645832825},{"name":"E4","midi":64,"time":107.29738849999845,"velocity":0.4409448818897638,"duration":0.13457218645832825},{"name":"C#4","midi":61,"time":107.43252374999844,"velocity":0.4409448818897638,"duration":0.13457218645832825},{"name":"A3","midi":57,"time":107.56765899999843,"velocity":0.4409448818897638,"duration":0.13457218645832825},{"name":"C#4","midi":61,"time":107.70279424999842,"velocity":0.4409448818897638,"duration":0.13457218645832825},{"name":"B3","midi":59,"time":107.83792949999841,"velocity":0.4409448818897638,"duration":0.13457218645832825},{"name":"G#3","midi":56,"time":107.9730647499984,"velocity":0.4409448818897638,"duration":0.13457218645832825},{"name":"E3","midi":52,"time":108.2433352499984,"velocity":0.4409448818897638,"duration":0.13457218645832825},{"name":"E4","midi":64,"time":108.51360574999839,"velocity":0.4409448818897638,"duration":0.13457218645832825},{"name":"E3","midi":52,"time":108.64874099999838,"velocity":0.4409448818897638,"duration":0.13457218645832825},{"name":"E4","midi":64,"time":108.91901149999838,"velocity":0.4409448818897638,"duration":0.13457218645832825},{"name":"E3","midi":52,"time":109.05414674999837,"velocity":0.4409448818897638,"duration":0.13457218645832825},{"name":"E4","midi":64,"time":109.32441724999836,"velocity":0.4409448818897638,"duration":0.13457218645832825},{"name":"E3","midi":52,"time":109.45955249999835,"velocity":0.4409448818897638,"duration":0.13457218645832825},{"name":"E4","midi":64,"time":109.72982299999835,"velocity":0.4409448818897638,"duration":0.13457218645832825},{"name":"E3","midi":52,"time":109.86495824999834,"velocity":0.4409448818897638,"duration":0.13457218645832825},{"name":"E4","midi":64,"time":110.13522874999833,"velocity":0.4409448818897638,"duration":0.13457218645832825},{"name":"E3","midi":52,"time":110.27036399999832,"velocity":0.4409448818897638,"duration":0.13457218645832825},{"name":"E4","midi":64,"time":110.54063449999832,"velocity":0.4409448818897638,"duration":0.13457218645832825},{"name":"E3","midi":52,"time":110.67576974999831,"velocity":0.4409448818897638,"duration":0.13457218645832825},{"name":"E4","midi":64,"time":110.9460402499983,"velocity":0.4409448818897638,"duration":0.13457218645832825},{"name":"E3","midi":52,"time":111.0811754999983,"velocity":0.4409448818897638,"duration":0.13457218645832825},{"name":"E4","midi":64,"time":111.35144599999829,"velocity":0.4409448818897638,"duration":0.13457218645832825},{"name":"E3","midi":52,"time":111.48658124999828,"velocity":0.4409448818897638,"duration":0.13457218645832825},{"name":"E4","midi":64,"time":111.75685174999828,"velocity":0.4409448818897638,"duration":0.13457218645832825},{"name":"E3","midi":52,"time":111.89198699999827,"velocity":0.4409448818897638,"duration":0.13457218645832825},{"name":"E4","midi":64,"time":112.16225749999826,"velocity":0.4409448818897638,"duration":0.13457218645832825},{"name":"E3","midi":52,"time":112.29739274999825,"velocity":0.4409448818897638,"duration":0.13457218645832825},{"name":"E4","midi":64,"time":112.56766324999825,"velocity":0.4409448818897638,"duration":0.13457218645832825},{"name":"E3","midi":52,"time":112.70279849999824,"velocity":0.4409448818897638,"duration":0.13457218645832825},{"name":"E4","midi":64,"time":112.97306899999823,"velocity":0.4409448818897638,"duration":0.13457218645832825},{"name":"E3","midi":52,"time":113.10820424999822,"velocity":0.4409448818897638,"duration":0.13457218645832825},{"name":"E4","midi":64,"time":113.37847474999822,"velocity":0.4409448818897638,"duration":0.13457218645832825},{"name":"E3","midi":52,"time":113.51360999999821,"velocity":0.4409448818897638,"duration":0.13457218645832825},{"name":"E4","midi":64,"time":113.7838804999982,"velocity":0.4409448818897638,"duration":0.13457218645832825},{"name":"E3","midi":52,"time":113.9190157499982,"velocity":0.4409448818897638,"duration":0.13457218645832825},{"name":"E4","midi":64,"time":114.18928624999819,"velocity":0.4409448818897638,"duration":0.13457218645832825},{"name":"E3","midi":52,"time":114.32442149999818,"velocity":0.4409448818897638,"duration":0.13457218645832825},{"name":"E4","midi":64,"time":114.59469199999818,"velocity":0.4409448818897638,"duration":0.13457218645832825},{"name":"E3","midi":52,"time":114.72982724999817,"velocity":0.4409448818897638,"duration":0.13457218645832825},{"name":"E4","midi":64,"time":115.00009774999816,"velocity":0.4409448818897638,"duration":0.13457218645832825},{"name":"E3","midi":52,"time":115.13523299999815,"velocity":0.4409448818897638,"duration":0.13457218645832825},{"name":"E4","midi":64,"time":115.40550349999815,"velocity":0.4409448818897638,"duration":0.13457218645832825},{"name":"E3","midi":52,"time":115.54063874999814,"velocity":0.4409448818897638,"duration":0.13457218645832825},{"name":"E4","midi":64,"time":115.81090924999813,"velocity":0.4409448818897638,"duration":0.13457218645832825},{"name":"E3","midi":52,"time":115.94604449999812,"velocity":0.4409448818897638,"duration":0.13457218645832825},{"name":"E4","midi":64,"time":116.21631499999812,"velocity":0.4409448818897638,"duration":0.13457218645832825},{"name":"E3","midi":52,"time":116.35145024999811,"velocity":0.4409448818897638,"duration":0.13457218645832825},{"name":"E4","midi":64,"time":116.6217207499981,"velocity":0.4409448818897638,"duration":0.13457218645832825},{"name":"E3","midi":52,"time":116.7568559999981,"velocity":0.4409448818897638,"duration":0.13457218645832825},{"name":"E4","midi":64,"time":117.02712649999809,"velocity":0.4409448818897638,"duration":0.13457218645832825},{"name":"E3","midi":52,"time":117.16226174999808,"velocity":0.4409448818897638,"duration":0.13457218645832825},{"name":"E4","midi":64,"time":117.43253224999808,"velocity":0.4409448818897638,"duration":0.13457218645832825},{"name":"E3","midi":52,"time":117.56766749999807,"velocity":0.4409448818897638,"duration":0.13457218645832825},{"name":"E4","midi":64,"time":117.83793799999806,"velocity":0.4409448818897638,"duration":0.13457218645832825},{"name":"E3","midi":52,"time":117.97307324999805,"velocity":0.4409448818897638,"duration":0.13457218645832825},{"name":"E4","midi":64,"time":118.24334374999805,"velocity":0.4409448818897638,"duration":0.13457218645832825},{"name":"E3","midi":52,"time":118.37847899999804,"velocity":0.4409448818897638,"duration":0.13457218645832825},{"name":"E4","midi":64,"time":118.64874949999803,"velocity":0.4409448818897638,"duration":0.13457218645832825},{"name":"E3","midi":52,"time":118.78388474999802,"velocity":0.4409448818897638,"duration":0.13457218645832825},{"name":"E4","midi":64,"time":119.05415524999802,"velocity":0.4409448818897638,"duration":0.13457218645832825},{"name":"E3","midi":52,"time":119.18929049999801,"velocity":0.4409448818897638,"duration":0.13457218645832825},{"name":"E4","midi":64,"time":119.459560999998,"velocity":0.4409448818897638,"duration":0.13457218645832825},{"name":"E3","midi":52,"time":119.594696249998,"velocity":0.4409448818897638,"duration":0.13457218645832825},{"name":"E4","midi":64,"time":119.86496674999799,"velocity":0.4409448818897638,"duration":0.13457218645832825},{"name":"E3","midi":52,"time":120.00010199999798,"velocity":0.4409448818897638,"duration":0.13457218645832825},{"name":"E4","midi":64,"time":120.27037249999798,"velocity":0.4409448818897638,"duration":0.13457218645832825},{"name":"E3","midi":52,"time":120.40550774999797,"velocity":0.4409448818897638,"duration":0.13457218645832825},{"name":"E4","midi":64,"time":120.67577824999796,"velocity":0.4409448818897638,"duration":0.13457218645832825},{"name":"E3","midi":52,"time":120.81091349999795,"velocity":0.4409448818897638,"duration":0.13457218645832825},{"name":"E4","midi":64,"time":121.08118399999795,"velocity":0.4409448818897638,"duration":0.13457218645832825},{"name":"E3","midi":52,"time":121.21631924999794,"velocity":0.4409448818897638,"duration":0.13457218645832825},{"name":"E4","midi":64,"time":121.48658974999793,"velocity":0.4409448818897638,"duration":0.13457218645832825},{"name":"E3","midi":52,"time":121.62172499999792,"velocity":0.4409448818897638,"duration":0.13457218645832825},{"name":"E4","midi":64,"time":121.89199549999792,"velocity":0.4409448818897638,"duration":0.13457218645832825},{"name":"E3","midi":52,"time":122.02713074999791,"velocity":0.4409448818897638,"duration":0.13457218645832825},{"name":"E4","midi":64,"time":122.2974012499979,"velocity":0.4409448818897638,"duration":0.13457218645832825},{"name":"E3","midi":52,"time":122.4325364999979,"velocity":0.4409448818897638,"duration":0.13457218645832825},{"name":"E3","midi":52,"time":122.56767174999788,"velocity":0.4409448818897638,"duration":0.13457218645832825},{"name":"E3","midi":52,"time":122.70280699999788,"velocity":0.4409448818897638,"duration":0.13457218645832825},{"name":"E3","midi":52,"time":122.83794224999787,"velocity":0.4409448818897638,"duration":0.13457218645832825},{"name":"E3","midi":52,"time":123.24334799999787,"velocity":0.4409448818897638,"duration":0.13457218645832825},{"name":"E3","midi":52,"time":123.64875374999787,"velocity":0.4409448818897638,"duration":0.13457218645832825},{"name":"E3","midi":52,"time":124.05415949999787,"velocity":0.4409448818897638,"duration":0.13457218645832825},{"name":"E3","midi":52,"time":124.45956524999787,"velocity":0.4409448818897638,"duration":0.13457218645832825},{"name":"E3","midi":52,"time":124.86497099999787,"velocity":0.4409448818897638,"duration":0.13457218645832825},{"name":"E3","midi":52,"time":125.27037674999787,"velocity":0.4409448818897638,"duration":0.13457218645832825},{"name":"E3","midi":52,"time":125.67578249999787,"velocity":0.4409448818897638,"duration":0.13457218645832825},{"name":"E3","midi":52,"time":126.08118824999787,"velocity":0.4409448818897638,"duration":0.13457218645832825},{"name":"E3","midi":52,"time":126.48659399999787,"velocity":0.4409448818897638,"duration":0.13457218645832825},{"name":"E3","midi":52,"time":126.75686449999786,"velocity":0.4409448818897638,"duration":0.13457218645832825},{"name":"E3","midi":52,"time":127.02713499999786,"velocity":0.4409448818897638,"duration":0.13457218645832825},{"name":"E3","midi":52,"time":127.43254074999786,"velocity":0.4409448818897638,"duration":0.13457218645832825},{"name":"E3","midi":52,"time":127.83794649999786,"velocity":0.4409448818897638,"duration":0.13457218645832825},{"name":"E3","midi":52,"time":128.24335224999786,"velocity":0.4409448818897638,"duration":0.13457218645834246},{"name":"E3","midi":52,"time":128.64875799999785,"velocity":0.4409448818897638,"duration":0.13457218645834246},{"name":"E3","midi":52,"time":129.05416374999785,"velocity":0.4409448818897638,"duration":0.13457218645834246},{"name":"E3","midi":52,"time":129.45956949999785,"velocity":0.4409448818897638,"duration":0.13457218645834246},{"name":"E3","midi":52,"time":129.86497524999785,"velocity":0.4409448818897638,"duration":0.13457218645834246},{"name":"E3","midi":52,"time":130.27038099999785,"velocity":0.4409448818897638,"duration":0.13457218645834246},{"name":"E3","midi":52,"time":130.54065149999786,"velocity":0.4409448818897638,"duration":0.13457218645834246},{"name":"E3","midi":52,"time":130.81092199999787,"velocity":0.4409448818897638,"duration":0.13457218645834246},{"name":"E3","midi":52,"time":131.21632774999787,"velocity":0.4409448818897638,"duration":0.13457218645834246},{"name":"E3","midi":52,"time":131.62173349999787,"velocity":0.4409448818897638,"duration":0.13457218645834246},{"name":"E3","midi":52,"time":132.02713924999787,"velocity":0.4409448818897638,"duration":0.13457218645834246},{"name":"E3","midi":52,"time":132.43254499999787,"velocity":0.4409448818897638,"duration":0.13457218645834246},{"name":"E3","midi":52,"time":132.83795074999787,"velocity":0.4409448818897638,"duration":0.13457218645834246},{"name":"E3","midi":52,"time":133.24335649999787,"velocity":0.4409448818897638,"duration":0.13457218645834246},{"name":"E3","midi":52,"time":133.64876224999787,"velocity":0.4409448818897638,"duration":0.13457218645834246},{"name":"E3","midi":52,"time":134.05416799999787,"velocity":0.4409448818897638,"duration":0.13457218645834246},{"name":"E3","midi":52,"time":134.32443849999788,"velocity":0.4409448818897638,"duration":0.13457218645834246},{"name":"E3","midi":52,"time":134.5947089999979,"velocity":0.4409448818897638,"duration":0.13457218645834246},{"name":"E3","midi":52,"time":135.0001147499979,"velocity":0.4409448818897638,"duration":0.13457218645834246},{"name":"E3","midi":52,"time":135.4055204999979,"velocity":0.4409448818897638,"duration":0.13457218645834246},{"name":"E3","midi":52,"time":135.8109262499979,"velocity":0.4409448818897638,"duration":0.13457218645834246},{"name":"E3","midi":52,"time":136.2163319999979,"velocity":0.4409448818897638,"duration":0.13457218645834246},{"name":"E3","midi":52,"time":136.6217377499979,"velocity":0.4409448818897638,"duration":0.13457218645834246},{"name":"E3","midi":52,"time":137.0271434999979,"velocity":0.4409448818897638,"duration":0.13457218645834246},{"name":"E3","midi":52,"time":137.4325492499979,"velocity":0.4409448818897638,"duration":0.13457218645834246},{"name":"E3","midi":52,"time":137.8379549999979,"velocity":0.4409448818897638,"duration":0.13457218645834246},{"name":"E3","midi":52,"time":138.1082254999979,"velocity":0.4409448818897638,"duration":0.13457218645834246},{"name":"E3","midi":52,"time":142.1622829999979,"velocity":0.4409448818897638,"duration":0.13457218645834246},{"name":"E3","midi":52,"time":142.5676887499979,"velocity":0.4409448818897638,"duration":0.13457218645834246},{"name":"E3","midi":52,"time":142.9730944999979,"velocity":0.4409448818897638,"duration":0.13457218645834246},{"name":"E3","midi":52,"time":143.3785002499979,"velocity":0.4409448818897638,"duration":0.13457218645834246},{"name":"E3","midi":52,"time":143.7839059999979,"velocity":0.4409448818897638,"duration":0.13457218645834246},{"name":"E3","midi":52,"time":144.1893117499979,"velocity":0.4409448818897638,"duration":0.13457218645834246},{"name":"E3","midi":52,"time":144.5947174999979,"velocity":0.4409448818897638,"duration":0.13457218645834246},{"name":"E3","midi":52,"time":145.0001232499979,"velocity":0.4409448818897638,"duration":0.13457218645834246},{"name":"E3","midi":52,"time":145.4055289999979,"velocity":0.4409448818897638,"duration":0.13457218645834246},{"name":"E3","midi":52,"time":145.6757994999979,"velocity":0.4409448818897638,"duration":0.13457218645834246},{"name":"E3","midi":52,"time":145.94606999999792,"velocity":0.4409448818897638,"duration":0.13457218645834246},{"name":"E3","midi":52,"time":146.35147574999792,"velocity":0.4409448818897638,"duration":0.13457218645834246},{"name":"E3","midi":52,"time":146.75688149999792,"velocity":0.4409448818897638,"duration":0.13457218645834246},{"name":"E3","midi":52,"time":147.16228724999792,"velocity":0.4409448818897638,"duration":0.13457218645834246},{"name":"E3","midi":52,"time":147.56769299999792,"velocity":0.4409448818897638,"duration":0.13457218645834246},{"name":"E3","midi":52,"time":147.97309874999792,"velocity":0.4409448818897638,"duration":0.13457218645834246},{"name":"E3","midi":52,"time":148.37850449999792,"velocity":0.4409448818897638,"duration":0.13457218645834246},{"name":"E3","midi":52,"time":148.78391024999792,"velocity":0.4409448818897638,"duration":0.13457218645834246},{"name":"E3","midi":52,"time":149.18931599999792,"velocity":0.4409448818897638,"duration":0.13457218645834246},{"name":"E3","midi":52,"time":149.45958649999793,"velocity":0.4409448818897638,"duration":0.13457218645834246},{"name":"E3","midi":52,"time":149.72985699999793,"velocity":0.4409448818897638,"duration":0.13457218645834246},{"name":"E3","midi":52,"time":150.13526274999793,"velocity":0.4409448818897638,"duration":0.13457218645834246},{"name":"E3","midi":52,"time":150.54066849999793,"velocity":0.4409448818897638,"duration":0.13457218645834246},{"name":"E3","midi":52,"time":150.94607424999793,"velocity":0.4409448818897638,"duration":0.13457218645834246},{"name":"E3","midi":52,"time":151.35147999999793,"velocity":0.4409448818897638,"duration":0.13457218645834246},{"name":"E3","midi":52,"time":151.75688574999793,"velocity":0.4409448818897638,"duration":0.13457218645834246},{"name":"E3","midi":52,"time":152.16229149999793,"velocity":0.4409448818897638,"duration":0.13457218645834246},{"name":"E3","midi":52,"time":152.56769724999793,"velocity":0.4409448818897638,"duration":0.13457218645834246},{"name":"E3","midi":52,"time":152.97310299999793,"velocity":0.4409448818897638,"duration":0.13457218645834246},{"name":"E3","midi":52,"time":153.24337349999794,"velocity":0.4409448818897638,"duration":0.13457218645834246},{"name":"C#4","midi":61,"time":156.48661949999794,"velocity":0.4409448818897638,"duration":0.13457218645834246},{"name":"E3","midi":52,"time":156.62175474999796,"velocity":0.4409448818897638,"duration":0.13457218645834246},{"name":"D4","midi":62,"time":156.75688999999798,"velocity":0.4409448818897638,"duration":0.13457218645834246},{"name":"E3","midi":52,"time":156.892025249998,"velocity":0.4409448818897638,"duration":0.13457218645834246},{"name":"C#4","midi":61,"time":157.02716049999802,"velocity":0.4409448818897638,"duration":0.13457218645834246},{"name":"E3","midi":52,"time":157.16229574999804,"velocity":0.4409448818897638,"duration":0.13457218645834246},{"name":"D4","midi":62,"time":157.29743099999806,"velocity":0.4409448818897638,"duration":0.13457218645834246},{"name":"E4","midi":64,"time":157.43256624999808,"velocity":0.4409448818897638,"duration":0.13457218645834246},{"name":"E3","midi":52,"time":157.5677014999981,"velocity":0.4409448818897638,"duration":0.13457218645834246},{"name":"E4","midi":64,"time":157.7028367499981,"velocity":0.4409448818897638,"duration":0.13457218645834246},{"name":"C#4","midi":61,"time":160.27040649999813,"velocity":0.4409448818897638,"duration":0.13457218645834246},{"name":"D4","midi":62,"time":160.54067699999814,"velocity":0.4409448818897638,"duration":0.13457218645834246},{"name":"C#4","midi":61,"time":160.81094749999815,"velocity":0.4409448818897638,"duration":0.13457218645834246},{"name":"D4","midi":62,"time":161.08121799999816,"velocity":0.4409448818897638,"duration":0.13457218645834246},{"name":"C#4","midi":61,"time":161.21635324999818,"velocity":0.4409448818897638,"duration":0.13457218645834246},{"name":"B3","midi":59,"time":161.4866237499982,"velocity":0.4409448818897638,"duration":0.13457218645834246},{"name":"G3","midi":55,"time":161.8920294999982,"velocity":0.4409448818897638,"duration":0.13457218645834246},{"name":"E3","midi":52,"time":162.0271647499982,"velocity":0.4409448818897638,"duration":0.13457218645834246},{"name":"C#4","midi":61,"time":164.0541934999982,"velocity":0.4409448818897638,"duration":0.13457218645834246},{"name":"E3","midi":52,"time":164.18932874999823,"velocity":0.4409448818897638,"duration":0.13457218645834246},{"name":"D4","midi":62,"time":164.32446399999824,"velocity":0.4409448818897638,"duration":0.13457218645834246},{"name":"E3","midi":52,"time":164.45959924999826,"velocity":0.4409448818897638,"duration":0.13457218645834246},{"name":"C#4","midi":61,"time":164.59473449999828,"velocity":0.4409448818897638,"duration":0.13457218645834246},{"name":"E3","midi":52,"time":164.7298697499983,"velocity":0.4409448818897638,"duration":0.13457218645834246},{"name":"D4","midi":62,"time":164.86500499999832,"velocity":0.4409448818897638,"duration":0.13457218645834246},{"name":"E4","midi":64,"time":165.00014024999834,"velocity":0.4409448818897638,"duration":0.13457218645834246},{"name":"E3","midi":52,"time":165.13527549999836,"velocity":0.4409448818897638,"duration":0.13457218645834246},{"name":"E4","midi":64,"time":165.27041074999838,"velocity":0.4409448818897638,"duration":0.13457218645834246},{"name":"C#4","midi":61,"time":179.1893414999984,"velocity":0.4409448818897638,"duration":0.13457218645834246},{"name":"E3","midi":52,"time":179.3244767499984,"velocity":0.4409448818897638,"duration":0.13457218645834246},{"name":"D4","midi":62,"time":179.45961199999843,"velocity":0.4409448818897638,"duration":0.13457218645834246},{"name":"E3","midi":52,"time":179.59474724999845,"velocity":0.4409448818897638,"duration":0.13457218645834246},{"name":"C#4","midi":61,"time":179.72988249999847,"velocity":0.4409448818897638,"duration":0.13457218645834246},{"name":"E3","midi":52,"time":179.8650177499985,"velocity":0.4409448818897638,"duration":0.13457218645834246},{"name":"D4","midi":62,"time":180.0001529999985,"velocity":0.4409448818897638,"duration":0.13457218645834246},{"name":"E4","midi":64,"time":180.13528824999852,"velocity":0.4409448818897638,"duration":0.13457218645834246},{"name":"E3","midi":52,"time":180.27042349999854,"velocity":0.4409448818897638,"duration":0.13457218645834246},{"name":"E4","midi":64,"time":180.40555874999856,"velocity":0.4409448818897638,"duration":0.13457218645834246},{"name":"E4","midi":64,"time":183.78393999999858,"velocity":0.4409448818897638,"duration":0.13457218645834246},{"name":"E3","midi":52,"time":183.9190752499986,"velocity":0.4409448818897638,"duration":0.13457218645834246},{"name":"E3","midi":52,"time":184.1893457499986,"velocity":0.4409448818897638,"duration":0.13457218645834246},{"name":"E4","midi":64,"time":184.45961624999862,"velocity":0.4409448818897638,"duration":0.13457218645834246},{"name":"E3","midi":52,"time":184.72988674999863,"velocity":0.4409448818897638,"duration":0.13457218645834246},{"name":"E3","midi":52,"time":185.00015724999864,"velocity":0.4409448818897638,"duration":0.13457218645834246},{"name":"E4","midi":64,"time":185.40556299999864,"velocity":0.4409448818897638,"duration":0.13457218645834246},{"name":"E3","midi":52,"time":185.54069824999866,"velocity":0.4409448818897638,"duration":0.13457218645834246},{"name":"E4","midi":64,"time":185.94610399999866,"velocity":0.4409448818897638,"duration":0.13457218645834246},{"name":"E3","midi":52,"time":186.08123924999867,"velocity":0.4409448818897638,"duration":0.13457218645834246},{"name":"E3","midi":52,"time":186.35150974999868,"velocity":0.4409448818897638,"duration":0.13457218645834246},{"name":"E4","midi":64,"time":186.6217802499987,"velocity":0.4409448818897638,"duration":0.13457218645834246},{"name":"E3","midi":52,"time":186.8920507499987,"velocity":0.4409448818897638,"duration":0.13457218645834246},{"name":"E3","midi":52,"time":187.1623212499987,"velocity":0.4409448818897638,"duration":0.13457218645834246},{"name":"E4","midi":64,"time":187.5677269999987,"velocity":0.4409448818897638,"duration":0.13457218645834246},{"name":"E3","midi":52,"time":187.70286224999873,"velocity":0.4409448818897638,"duration":0.13457218645834246},{"name":"E3","midi":52,"time":187.97313274999874,"velocity":0.4409448818897638,"duration":0.13457218645834246},{"name":"E4","midi":64,"time":188.24340324999875,"velocity":0.4409448818897638,"duration":0.13457218645834246},{"name":"E3","midi":52,"time":188.51367374999876,"velocity":0.4409448818897638,"duration":0.13457218645834246},{"name":"E3","midi":52,"time":188.78394424999877,"velocity":0.4409448818897638,"duration":0.13457218645834246},{"name":"E4","midi":64,"time":189.18934999999877,"velocity":0.4409448818897638,"duration":0.13457218645834246},{"name":"E3","midi":52,"time":189.3244852499988,"velocity":0.4409448818897638,"duration":0.13457218645834246},{"name":"E4","midi":64,"time":189.7298909999988,"velocity":0.4409448818897638,"duration":0.13457218645834246},{"name":"E3","midi":52,"time":189.8650262499988,"velocity":0.4409448818897638,"duration":0.13457218645834246},{"name":"E3","midi":52,"time":190.13529674999882,"velocity":0.4409448818897638,"duration":0.13457218645834246},{"name":"E4","midi":64,"time":190.40556724999882,"velocity":0.4409448818897638,"duration":0.13457218645834246},{"name":"E3","midi":52,"time":190.67583774999883,"velocity":0.4409448818897638,"duration":0.13457218645834246},{"name":"E3","midi":52,"time":190.94610824999884,"velocity":0.4409448818897638,"duration":0.13457218645834246},{"name":"E4","midi":64,"time":191.35151399999884,"velocity":0.4409448818897638,"duration":0.13457218645834246},{"name":"B3","midi":59,"time":191.48664924999886,"velocity":0.4409448818897638,"duration":0.13457218645834246},{"name":"B3","midi":59,"time":191.75691974999887,"velocity":0.4409448818897638,"duration":0.13457218645834246},{"name":"E4","midi":64,"time":192.02719024999888,"velocity":0.4409448818897638,"duration":0.13457218645834246},{"name":"B3","midi":59,"time":192.2974607499989,"velocity":0.4409448818897638,"duration":0.13457218645834246},{"name":"B3","midi":59,"time":192.5677312499989,"velocity":0.4409448818897638,"duration":0.13457218645834246},{"name":"E4","midi":64,"time":192.9731369999989,"velocity":0.4409448818897638,"duration":0.13457218645834246},{"name":"B3","midi":59,"time":193.10827224999892,"velocity":0.4409448818897638,"duration":0.13457218645834246},{"name":"E4","midi":64,"time":193.51367799999892,"velocity":0.4409448818897638,"duration":0.13457218645834246},{"name":"B3","midi":59,"time":193.64881324999894,"velocity":0.4409448818897638,"duration":0.13457218645834246},{"name":"B3","midi":59,"time":193.91908374999895,"velocity":0.4409448818897638,"duration":0.13457218645834246},{"name":"E4","midi":64,"time":194.18935424999896,"velocity":0.4409448818897638,"duration":0.13457218645834246},{"name":"B3","midi":59,"time":194.45962474999897,"velocity":0.4409448818897638,"duration":0.13457218645834246},{"name":"B3","midi":59,"time":194.72989524999898,"velocity":0.4409448818897638,"duration":0.13457218645834246},{"name":"E4","midi":64,"time":195.13530099999898,"velocity":0.4409448818897638,"duration":0.13457218645834246},{"name":"E5","midi":76,"time":195.270436249999,"velocity":0.4409448818897638,"duration":0.13457218645834246},{"name":"B3","midi":59,"time":195.540706749999,"velocity":0.4409448818897638,"duration":0.13457218645834246},{"name":"E5","midi":76,"time":195.67584199999902,"velocity":0.4409448818897638,"duration":0.13457218645834246},{"name":"E4","midi":64,"time":195.94611249999903,"velocity":0.4409448818897638,"duration":0.13457218645834246},{"name":"E5","midi":76,"time":196.08124774999905,"velocity":0.4409448818897638,"duration":0.13457218645834246},{"name":"B3","midi":59,"time":196.35151824999906,"velocity":0.4409448818897638,"duration":0.13457218645834246},{"name":"E5","midi":76,"time":196.48665349999908,"velocity":0.4409448818897638,"duration":0.13457218645834246},{"name":"E4","midi":64,"time":196.7569239999991,"velocity":0.4409448818897638,"duration":0.13457218645834246},{"name":"E5","midi":76,"time":196.8920592499991,"velocity":0.4409448818897638,"duration":0.13457218645834246},{"name":"B3","midi":59,"time":197.16232974999912,"velocity":0.4409448818897638,"duration":0.13457218645834246},{"name":"E5","midi":76,"time":197.29746499999914,"velocity":0.4409448818897638,"duration":0.13457218645834246},{"name":"E4","midi":64,"time":197.56773549999915,"velocity":0.4409448818897638,"duration":0.13457218645834246},{"name":"E5","midi":76,"time":197.70287074999916,"velocity":0.4409448818897638,"duration":0.13457218645834246},{"name":"B3","midi":59,"time":197.97314124999917,"velocity":0.4409448818897638,"duration":0.13457218645834246},{"name":"E5","midi":76,"time":198.1082764999992,"velocity":0.4409448818897638,"duration":0.13457218645834246},{"name":"E4","midi":64,"time":198.3785469999992,"velocity":0.4409448818897638,"duration":0.13457218645834246},{"name":"E5","midi":76,"time":198.51368224999922,"velocity":0.4409448818897638,"duration":0.13457218645834246},{"name":"B3","midi":59,"time":198.78395274999923,"velocity":0.4409448818897638,"duration":0.13457218645834246},{"name":"E5","midi":76,"time":198.91908799999925,"velocity":0.4409448818897638,"duration":0.13457218645834246},{"name":"C#4","midi":61,"time":201.89206349999927,"velocity":0.4409448818897638,"duration":0.13457218645834246},{"name":"E3","midi":52,"time":202.0271987499993,"velocity":0.4409448818897638,"duration":0.13457218645834246},{"name":"D4","midi":62,"time":202.1623339999993,"velocity":0.4409448818897638,"duration":0.13457218645834246},{"name":"E3","midi":52,"time":202.29746924999932,"velocity":0.4409448818897638,"duration":0.13457218645834246},{"name":"C#4","midi":61,"time":202.43260449999934,"velocity":0.4409448818897638,"duration":0.13457218645834246},{"name":"E3","midi":52,"time":202.56773974999936,"velocity":0.4409448818897638,"duration":0.13457218645834246},{"name":"D4","midi":62,"time":202.70287499999938,"velocity":0.4409448818897638,"duration":0.13457218645834246},{"name":"E4","midi":64,"time":202.8380102499994,"velocity":0.4409448818897638,"duration":0.13457218645834246},{"name":"E3","midi":52,"time":202.97314549999942,"velocity":0.4409448818897638,"duration":0.13457218645834246},{"name":"E4","midi":64,"time":203.10828074999944,"velocity":0.4409448818897638,"duration":0.13457218645834246},{"name":"C#4","midi":61,"time":205.67585049999946,"velocity":0.4409448818897638,"duration":0.13457218645834246},{"name":"D4","midi":62,"time":205.94612099999947,"velocity":0.4409448818897638,"duration":0.13457218645834246},{"name":"C#4","midi":61,"time":206.21639149999947,"velocity":0.4409448818897638,"duration":0.13457218645834246},{"name":"D4","midi":62,"time":206.48666199999948,"velocity":0.4409448818897638,"duration":0.13457218645834246},{"name":"C#4","midi":61,"time":206.6217972499995,"velocity":0.4409448818897638,"duration":0.13457218645834246},{"name":"B3","midi":59,"time":206.8920677499995,"velocity":0.4409448818897638,"duration":0.13457218645834246},{"name":"G3","midi":55,"time":207.2974734999995,"velocity":0.4409448818897638,"duration":0.13457218645834246},{"name":"E3","midi":52,"time":207.43260874999953,"velocity":0.4409448818897638,"duration":0.13457218645834246},{"name":"C#4","midi":61,"time":209.45963749999953,"velocity":0.4409448818897638,"duration":0.13457218645834246},{"name":"E3","midi":52,"time":209.59477274999955,"velocity":0.4409448818897638,"duration":0.13457218645834246},{"name":"D4","midi":62,"time":209.72990799999957,"velocity":0.4409448818897638,"duration":0.13457218645834246},{"name":"E3","midi":52,"time":209.8650432499996,"velocity":0.4409448818897638,"duration":0.13457218645834246},{"name":"C#4","midi":61,"time":210.0001784999996,"velocity":0.4409448818897638,"duration":0.13457218645834246},{"name":"E3","midi":52,"time":210.13531374999963,"velocity":0.4409448818897638,"duration":0.13457218645834246},{"name":"D4","midi":62,"time":210.27044899999964,"velocity":0.4409448818897638,"duration":0.13457218645834246},{"name":"E4","midi":64,"time":210.40558424999966,"velocity":0.4409448818897638,"duration":0.13457218645834246},{"name":"E3","midi":52,"time":210.54071949999968,"velocity":0.4409448818897638,"duration":0.13457218645834246},{"name":"E4","midi":64,"time":210.6758547499997,"velocity":0.4409448818897638,"duration":0.13457218645834246},{"name":"E4","midi":64,"time":217.0272114999997,"velocity":0.4409448818897638,"duration":0.13457218645834246},{"name":"G#4","midi":68,"time":217.29748199999972,"velocity":0.4409448818897638,"duration":0.13457218645834246},{"name":"B4","midi":71,"time":217.56775249999973,"velocity":0.4409448818897638,"duration":0.13457218645834246},{"name":"D5","midi":74,"time":217.83802299999974,"velocity":0.4409448818897638,"duration":0.13457218645834246},{"name":"D#5","midi":75,"time":218.10829349999975,"velocity":0.4409448818897638,"duration":0.13457218645834246},{"name":"E5","midi":76,"time":218.24342874999977,"velocity":0.4409448818897638,"duration":0.13457218645834246},{"name":"B4","midi":71,"time":220.81099849999978,"velocity":0.4409448818897638,"duration":0.13457218645834246},{"name":"D5","midi":74,"time":221.0812689999998,"velocity":0.4409448818897638,"duration":0.13457218645834246},{"name":"D#5","midi":75,"time":221.3515394999998,"velocity":0.4409448818897638,"duration":0.13457218645834246},{"name":"F5","midi":77,"time":221.6218099999998,"velocity":0.4409448818897638,"duration":0.13457218645834246},{"name":"F#5","midi":78,"time":221.89208049999982,"velocity":0.4409448818897638,"duration":0.13457218645834246},{"name":"G5","midi":79,"time":222.02721574999984,"velocity":0.4409448818897638,"duration":0.13457218645834246},{"name":"E4","midi":64,"time":224.59478549999986,"velocity":0.4409448818897638,"duration":0.13457218645834246},{"name":"G#4","midi":68,"time":224.86505599999987,"velocity":0.4409448818897638,"duration":0.13457218645834246},{"name":"B4","midi":71,"time":225.13532649999988,"velocity":0.4409448818897638,"duration":0.13457218645834246},{"name":"D5","midi":74,"time":225.4055969999999,"velocity":0.4409448818897638,"duration":0.13457218645834246},{"name":"D#5","midi":75,"time":225.6758674999999,"velocity":0.4409448818897638,"duration":0.13457218645834246},{"name":"E5","midi":76,"time":225.81100274999991,"velocity":0.4409448818897638,"duration":0.13457218645834246},{"name":"E3","midi":52,"time":228.37857249999993,"velocity":0.4409448818897638,"duration":0.13457218645834246},{"name":"E4","midi":64,"time":228.64884299999994,"velocity":0.4409448818897638,"duration":0.13457218645834246},{"name":"E3","midi":52,"time":228.91911349999995,"velocity":0.4409448818897638,"duration":0.13457218645834246},{"name":"E3","midi":52,"time":229.18938399999996,"velocity":0.4409448818897638,"duration":0.13457218645834246}],"controlChanges":{"7":[{"number":7,"time":0,"value":0.5748031496062992}]},"id":4,"name":"MIDI Chn 3","instrumentNumber":87,"instrument":"lead 8 (bass + lead)","instrumentFamily":"synth lead","channelNumber":2,"isPercussion":false},{"startTime":47.56760800000001,"duration":229.45909143645838,"length":40,"notes":[{"name":"E1","midi":28,"time":47.56760800000001,"velocity":0.5039370078740157,"duration":0.26970743645833295},{"name":"E2","midi":40,"time":47.56760800000001,"velocity":0.5039370078740157,"duration":0.26970743645833295},{"name":"E1","midi":28,"time":62.70275600000001,"velocity":0.5039370078740157,"duration":0.26970743645833295},{"name":"E2","midi":40,"time":62.70275600000001,"velocity":0.5039370078740157,"duration":0.26970743645833295},{"name":"E1","midi":28,"time":77.83790400000001,"velocity":0.5039370078740157,"duration":0.26970743645833295},{"name":"E2","midi":40,"time":77.83790400000001,"velocity":0.5039370078740157,"duration":0.26970743645833295},{"name":"E2","midi":40,"time":81.62169100000001,"velocity":0.5039370078740157,"duration":0.26970743645833295},{"name":"E3","midi":52,"time":81.62169100000001,"velocity":0.5039370078740157,"duration":0.26970743645833295},{"name":"E2","midi":40,"time":145.94607000000002,"velocity":0.5039370078740157,"duration":0.26970743645833295},{"name":"E3","midi":52,"time":145.94607000000002,"velocity":0.5039370078740157,"duration":0.26970743645833295},{"name":"E2","midi":40,"time":146.35147575000002,"velocity":0.5039370078740157,"duration":0.26970743645833295},{"name":"E3","midi":52,"time":146.35147575000002,"velocity":0.5039370078740157,"duration":0.26970743645833295},{"name":"E2","midi":40,"time":146.75688150000002,"velocity":0.5039370078740157,"duration":0.26970743645833295},{"name":"E3","midi":52,"time":146.75688150000002,"velocity":0.5039370078740157,"duration":0.26970743645833295},{"name":"E2","midi":40,"time":147.16228725000002,"velocity":0.5039370078740157,"duration":0.26970743645833295},{"name":"E3","midi":52,"time":147.16228725000002,"velocity":0.5039370078740157,"duration":0.26970743645833295},{"name":"E2","midi":40,"time":147.56769300000002,"velocity":0.5039370078740157,"duration":0.26970743645833295},{"name":"E3","midi":52,"time":147.56769300000002,"velocity":0.5039370078740157,"duration":0.26970743645833295},{"name":"E2","midi":40,"time":147.97309875000002,"velocity":0.5039370078740157,"duration":0.26970743645833295},{"name":"E3","midi":52,"time":147.97309875000002,"velocity":0.5039370078740157,"duration":0.26970743645833295},{"name":"E2","midi":40,"time":148.37850450000002,"velocity":0.5039370078740157,"duration":0.26970743645833295},{"name":"E3","midi":52,"time":148.37850450000002,"velocity":0.5039370078740157,"duration":0.26970743645833295},{"name":"E2","midi":40,"time":148.78391025000002,"velocity":0.5039370078740157,"duration":0.26970743645833295},{"name":"E3","midi":52,"time":148.78391025000002,"velocity":0.5039370078740157,"duration":0.26970743645833295},{"name":"E2","midi":40,"time":149.05418075000003,"velocity":0.5039370078740157,"duration":0.26970743645833295},{"name":"E3","midi":52,"time":149.05418075000003,"velocity":0.5039370078740157,"duration":0.26970743645833295},{"name":"E2","midi":40,"time":149.32445125000004,"velocity":0.5039370078740157,"duration":0.26970743645833295},{"name":"E3","midi":52,"time":149.32445125000004,"velocity":0.5039370078740157,"duration":0.26970743645833295},{"name":"E1","midi":28,"time":149.72985700000004,"velocity":0.5039370078740157,"duration":0.26970743645833295},{"name":"E2","midi":40,"time":149.72985700000004,"velocity":0.5039370078740157,"duration":0.26970743645833295},{"name":"E1","midi":28,"time":150.54066850000004,"velocity":0.5039370078740157,"duration":0.26970743645833295},{"name":"E2","midi":40,"time":150.54066850000004,"velocity":0.5039370078740157,"duration":0.26970743645833295},{"name":"E1","midi":28,"time":151.35148000000004,"velocity":0.5039370078740157,"duration":0.26970743645833295},{"name":"E2","midi":40,"time":151.35148000000004,"velocity":0.5039370078740157,"duration":0.26970743645833295},{"name":"E1","midi":28,"time":152.16229150000004,"velocity":0.5039370078740157,"duration":0.26970743645833295},{"name":"E2","midi":40,"time":152.16229150000004,"velocity":0.5039370078740157,"duration":0.26970743645833295},{"name":"E1","midi":28,"time":152.97310300000004,"velocity":0.5039370078740157,"duration":0.26970743645833295},{"name":"E2","midi":40,"time":152.97310300000004,"velocity":0.5039370078740157,"duration":0.26970743645833295},{"name":"E1","midi":28,"time":229.18938400000005,"velocity":0.5039370078740157,"duration":0.26970743645833295},{"name":"E2","midi":40,"time":229.18938400000005,"velocity":0.5039370078740157,"duration":0.26970743645833295}],"controlChanges":{"7":[{"number":7,"time":0,"value":0.7874015748031497}]},"id":5,"name":"MIDI Chn 4","instrumentNumber":81,"instrument":"lead 2 (sawtooth)","instrumentFamily":"synth lead","channelNumber":3,"isPercussion":false}]};