{
  "header": {
    "formatType": 1,
    "trackCount": 6,
    "ticksPerBeat": 960
  },
  "tracks": [
    [
      { "deltaTime": 0, "type": "meta", "subtype": "timeSignature", "numerator": 4, "denominator": 4, "metronome": 24, "thirtyseconds": 8  },
      { "deltaTime": 0, "type": "meta", "subtype": "keySignature", "key": 0, "scale": 0  },
      { "deltaTime": 0, "type": "meta", "subtype": "setTempo", "microsecondsPerBeat": 540541  },
      { "deltaTime": 0, "type": "meta", "subtype": "unknown", "data": "\u0000"  },
      { "deltaTime": 3840, "type": "meta", "subtype": "timeSignature", "numerator": 4, "denominator": 4, "metronome": 24, "thirtyseconds": 8  },
      { "deltaTime": 0, "type": "meta", "subtype": "keySignature", "key": 0, "scale": 0  },
      { "deltaTime": 0, "type": "meta", "subtype": "endOfTrack" }
    ],
    [
      { "deltaTime": 0, "channel": 0, "type": "channel", "subtype": "programChange", "programNumber": 81  },
      { "deltaTime": 0, "channel": 0, "type": "channel", "subtype": "controller", "controllerType": 7, "value": 100  },
      { "deltaTime": 0, "type": "meta", "subtype": "trackName", "text": "MIDI Chn 1"  },
      { "deltaTime": 0, "type": "meta", "subtype": "unknown", "data": "\u0001"  },
      { "deltaTime": 3840, "channel": 0, "type": "channel", "noteNumber": 40, "velocity": 64, "subtype": "noteOn"  },
      { "deltaTime": 239, "channel": 0, "type": "channel", "subtype": "noteOff", "noteNumber": 40, "velocity": 0  },
      { "deltaTime": 1, "channel": 0, "type": "channel", "noteNumber": 47, "velocity": 64, "subtype": "noteOn"  },
      { "deltaTime": 239, "channel": 0, "type": "channel", "subtype": "noteOff", "noteNumber": 47, "velocity": 0  },
      { "deltaTime": 1, "channel": 0, "type": "channel", "noteNumber": 47, "velocity": 64, "subtype": "noteOn"  },
      { "deltaTime": 239, "channel": 0, "type": "channel", "subtype": "noteOff", "noteNumber": 47, "velocity": 0  },
      { "deltaTime": 1, "channel": 0, "type": "channel", "noteNumber": 40, "velocity": 64, "subtype": "noteOn"  },
      { "deltaTime": 239, "channel": 0, "type": "channel", "subtype": "noteOff", "noteNumber": 40, "velocity": 0  },
      { "deltaTime": 1, "channel": 0, "type": "channel", "noteNumber": 46, "velocity": 64, "subtype": "noteOn"  },
      { "deltaTime": 239, "channel": 0, "type": "channel", "subtype": "noteOff", "noteNumber": 46, "velocity": 0  },
      { "deltaTime": 1, "channel": 0, "type": "channel", "noteNumber": 46, "velocity": 64, "subtype": "noteOn"  },
      { "deltaTime": 239, "channel": 0, "type": "channel", "subtype": "noteOff", "noteNumber": 46, "velocity": 0  },
      { "deltaTime": 1, "channel": 0, "type": "channel", "noteNumber": 40, "velocity": 64, "subtype": "noteOn"  },
      { "deltaTime": 239, "channel": 0, "type": "channel", "subtype": "noteOff", "noteNumber": 40, "velocity": 0  },
      { "deltaTime": 1, "channel": 0, "type": "channel", "noteNumber": 47, "velocity": 64, "subtype": "noteOn"  },
      { "deltaTime": 239, "channel": 0, "type": "channel", "subtype": "noteOff", "noteNumber": 47, "velocity": 0  },
      { "deltaTime": 1, "channel": 0, "type": "channel", "noteNumber": 47, "velocity": 64, "subtype": "noteOn"  },
      { "deltaTime": 239, "channel": 0, "type": "channel", "subtype": "noteOff", "noteNumber": 47, "velocity": 0  },
      { "deltaTime": 1, "channel": 0, "type": "channel", "noteNumber": 40, "velocity": 64, "subtype": "noteOn"  },
      { "deltaTime": 239, "channel": 0, "type": "channel", "subtype": "noteOff", "noteNumber": 40, "velocity": 0  },
      { "deltaTime": 1, "channel": 0, "type": "channel", "noteNumber": 52, "velocity": 64, "subtype": "noteOn"  },
      { "deltaTime": 239, "channel": 0, "type": "channel", "subtype": "noteOff", "noteNumber": 52, "velocity": 0  },
      { "deltaTime": 1, "channel": 0, "type": "channel", "noteNumber": 40, "velocity": 64, "subtype": "noteOn"  },
      { "deltaTime": 239, "channel": 0, "type": "channel", "subtype": "noteOff", "noteNumber": 40, "velocity": 0  },
      { "deltaTime": 1, "channel": 0, "type": "channel", "noteNumber": 50, "velocity": 64, "subtype": "noteOn"  },
      { "deltaTime": 239, "channel": 0, "type": "channel", "subtype": "noteOff", "noteNumber": 50, "velocity": 0  },
      { "deltaTime": 1, "channel": 0, "type": "channel", "noteNumber": 40, "velocity": 64, "subtype": "noteOn"  },
      { "deltaTime": 239, "channel": 0, "type": "channel", "subtype": "noteOff", "noteNumber": 40, "velocity": 0  },
      { "deltaTime": 1, "channel": 0, "type": "channel", "noteNumber": 45, "velocity": 64, "subtype": "noteOn"  },
      { "deltaTime": 239, "channel": 0, "type": "channel", "subtype": "noteOff", "noteNumber": 45, "velocity": 0  },
      { "deltaTime": 1, "channel": 0, "type": "channel", "noteNumber": 44, "velocity": 64, "subtype": "noteOn"  },
      { "deltaTime": 239, "channel": 0, "type": "channel", "subtype": "noteOff", "noteNumber": 44, "velocity": 0  },
      { "deltaTime": 1, "channel": 0, "type": "channel", "noteNumber": 40, "velocity": 64, "subtype": "noteOn"  },
      { "deltaTime": 239, "channel": 0, "type": "channel", "subtype": "noteOff", "noteNumber": 40, "velocity": 0  },
      { "deltaTime": 1, "channel": 0, "type": "channel", "noteNumber": 52, "velocity": 64, "subtype": "noteOn"  },
      { "deltaTime": 239, "channel": 0, "type": "channel", "subtype": "noteOff", "noteNumber": 52, "velocity": 0  },
      { "deltaTime": 1, "channel": 0, "type": "channel", "noteNumber": 52, "velocity": 64, "subtype": "noteOn"  },
      { "deltaTime": 239, "channel": 0, "type": "channel", "subtype": "noteOff", "noteNumber": 52, "velocity": 0  },
      { "deltaTime": 1, "channel": 0, "type": "channel", "noteNumber": 40, "velocity": 64, "subtype": "noteOn"  },
      { "deltaTime": 239, "channel": 0, "type": "channel", "subtype": "noteOff", "noteNumber": 40, "velocity": 0  },
      { "deltaTime": 1, "channel": 0, "type": "channel", "noteNumber": 44, "velocity": 64, "subtype": "noteOn"  },
      { "deltaTime": 239, "channel": 0, "type": "channel", "subtype": "noteOff", "noteNumber": 44, "velocity": 0  },
      { "deltaTime": 1, "channel": 0, "type": "channel", "noteNumber": 45, "velocity": 64, "subtype": "noteOn"  },
      { "deltaTime": 239, "channel": 0, "type": "channel", "subtype": "noteOff", "noteNumber": 45, "velocity": 0  },
      { "deltaTime": 1, "channel": 0, "type": "channel", "noteNumber": 40, "velocity": 64, "subtype": "noteOn"  },
      { "deltaTime": 239, "channel": 0, "type": "channel", "subtype": "noteOff", "noteNumber": 40, "velocity": 0  },
      { "deltaTime": 1, "channel": 0, "type": "channel", "noteNumber": 46, "velocity": 64, "subtype": "noteOn"  },
      { "deltaTime": 239, "channel": 0, "type": "channel", "subtype": "noteOff", "noteNumber": 46, "velocity": 0  },
      { "deltaTime": 1, "channel": 0, "type": "channel", "noteNumber": 40, "velocity": 64, "subtype": "noteOn"  },
      { "deltaTime": 239, "channel": 0, "type": "channel", "subtype": "noteOff", "noteNumber": 40, "velocity": 0  },
      { "deltaTime": 1, "channel": 0, "type": "channel", "noteNumber": 47, "velocity": 64, "subtype": "noteOn"  },
      { "deltaTime": 239, "channel": 0, "type": "channel", "subtype": "noteOff", "noteNumber": 47, "velocity": 0  },
      { "deltaTime": 1, "channel": 0, "type": "channel", "noteNumber": 50, "velocity": 64, "subtype": "noteOn"  },
      { "deltaTime": 239, "channel": 0, "type": "channel", "subtype": "noteOff", "noteNumber": 50, "velocity": 0  },
      { "deltaTime": 1, "channel": 0, "type": "channel", "noteNumber": 47, "velocity": 64, "subtype": "noteOn"  },
      { "deltaTime": 239, "channel": 0, "type": "channel", "subtype": "noteOff", "noteNumber": 47, "velocity": 0  },
      { "deltaTime": 1, "channel": 0, "type": "channel", "noteNumber": 40, "velocity": 64, "subtype": "noteOn"  },
      { "deltaTime": 239, "channel": 0, "type": "channel", "subtype": "noteOff", "noteNumber": 40, "velocity": 0  },
      { "deltaTime": 1, "channel": 0, "type": "channel", "noteNumber": 47, "velocity": 64, "subtype": "noteOn"  },
      { "deltaTime": 239, "channel": 0, "type": "channel", "subtype": "noteOff", "noteNumber": 47, "velocity": 0  },
      { "deltaTime": 1, "channel": 0, "type": "channel", "noteNumber": 47, "velocity": 64, "subtype": "noteOn"  },
      { "deltaTime": 239, "channel": 0, "type": "channel", "subtype": "noteOff", "noteNumber": 47, "velocity": 0  },
      { "deltaTime": 1, "channel": 0, "type": "channel", "noteNumber": 40, "velocity": 64, "subtype": "noteOn"  },
      { "deltaTime": 239, "channel": 0, "type": "channel", "subtype": "noteOff", "noteNumber": 40, "velocity": 0  },
      { "deltaTime": 1, "channel": 0, "type": "channel", "noteNumber": 46, "velocity": 64, "subtype": "noteOn"  },
      { "deltaTime": 239, "channel": 0, "type": "channel", "subtype": "noteOff", "noteNumber": 46, "velocity": 0  },
      { "deltaTime": 1, "channel": 0, "type": "channel", "noteNumber": 46, "velocity": 64, "subtype": "noteOn"  },
      { "deltaTime": 239, "channel": 0, "type": "channel", "subtype": "noteOff", "noteNumber": 46, "velocity": 0  },
      { "deltaTime": 1, "channel": 0, "type": "channel", "noteNumber": 40, "velocity": 64, "subtype": "noteOn"  },
      { "deltaTime": 239, "channel": 0, "type": "channel", "subtype": "noteOff", "noteNumber": 40, "velocity": 0  },
      { "deltaTime": 1, "channel": 0, "type": "channel", "noteNumber": 47, "velocity": 64, "subtype": "noteOn"  },
      { "deltaTime": 239, "channel": 0, "type": "channel", "subtype": "noteOff", "noteNumber": 47, "velocity": 0  },
      { "deltaTime": 1, "channel": 0, "type": "channel", "noteNumber": 47, "velocity": 64, "subtype": "noteOn"  },
      { "deltaTime": 239, "channel": 0, "type": "channel", "subtype": "noteOff", "noteNumber": 47, "velocity": 0  },
      { "deltaTime": 1, "channel": 0, "type": "channel", "noteNumber": 40, "velocity": 64, "subtype": "noteOn"  },
      { "deltaTime": 239, "channel": 0, "type": "channel", "subtype": "noteOff", "noteNumber": 40, "velocity": 0  },
      { "deltaTime": 1, "channel": 0, "type": "channel", "noteNumber": 52, "velocity": 64, "subtype": "noteOn"  },
      { "deltaTime": 239, "channel": 0, "type": "channel", "subtype": "noteOff", "noteNumber": 52, "velocity": 0  },
      { "deltaTime": 1, "channel": 0, "type": "channel", "noteNumber": 40, "velocity": 64, "subtype": "noteOn"  },
      { "deltaTime": 239, "channel": 0, "type": "channel", "subtype": "noteOff", "noteNumber": 40, "velocity": 0  },
      { "deltaTime": 1, "channel": 0, "type": "channel", "noteNumber": 50, "velocity": 64, "subtype": "noteOn"  },
      { "deltaTime": 239, "channel": 0, "type": "channel", "subtype": "noteOff", "noteNumber": 50, "velocity": 0  },
      { "deltaTime": 1, "channel": 0, "type": "channel", "noteNumber": 40, "velocity": 64, "subtype": "noteOn"  },
      { "deltaTime": 239, "channel": 0, "type": "channel", "subtype": "noteOff", "noteNumber": 40, "velocity": 0  },
      { "deltaTime": 1, "channel": 0, "type": "channel", "noteNumber": 45, "velocity": 64, "subtype": "noteOn"  },
      { "deltaTime": 239, "channel": 0, "type": "channel", "subtype": "noteOff", "noteNumber": 45, "velocity": 0  },
      { "deltaTime": 1, "channel": 0, "type": "channel", "noteNumber": 44, "velocity": 64, "subtype": "noteOn"  },
      { "deltaTime": 239, "channel": 0, "type": "channel", "subtype": "noteOff", "noteNumber": 44, "velocity": 0  },
      { "deltaTime": 1, "channel": 0, "type": "channel", "noteNumber": 40, "velocity": 64, "subtype": "noteOn"  },
      { "deltaTime": 239, "channel": 0, "type": "channel", "subtype": "noteOff", "noteNumber": 40, "velocity": 0  },
      { "deltaTime": 1, "channel": 0, "type": "channel", "noteNumber": 52, "velocity": 64, "subtype": "noteOn"  },
      { "deltaTime": 239, "channel": 0, "type": "channel", "subtype": "noteOff", "noteNumber": 52, "velocity": 0  },
      { "deltaTime": 1, "channel": 0, "type": "channel", "noteNumber": 52, "velocity": 64, "subtype": "noteOn"  },
      { "deltaTime": 239, "channel": 0, "type": "channel", "subtype": "noteOff", "noteNumber": 52, "velocity": 0  },
      { "deltaTime": 1, "channel": 0, "type": "channel", "noteNumber": 40, "velocity": 64, "subtype": "noteOn"  },
      { "deltaTime": 239, "channel": 0, "type": "channel", "subtype": "noteOff", "noteNumber": 40, "velocity": 0  },
      { "deltaTime": 1, "channel": 0, "type": "channel", "noteNumber": 44, "velocity": 64, "subtype": "noteOn"  },
      { "deltaTime": 239, "channel": 0, "type": "channel", "subtype": "noteOff", "noteNumber": 44, "velocity": 0  },
      { "deltaTime": 1, "channel": 0, "type": "channel", "noteNumber": 45, "velocity": 64, "subtype": "noteOn"  },
      { "deltaTime": 239, "channel": 0, "type": "channel", "subtype": "noteOff", "noteNumber": 45, "velocity": 0  },
      { "deltaTime": 1, "channel": 0, "type": "channel", "noteNumber": 40, "velocity": 64, "subtype": "noteOn"  },
      { "deltaTime": 239, "channel": 0, "type": "channel", "subtype": "noteOff", "noteNumber": 40, "velocity": 0  },
      { "deltaTime": 1, "channel": 0, "type": "channel", "noteNumber": 46, "velocity": 64, "subtype": "noteOn"  },
      { "deltaTime": 239, "channel": 0, "type": "channel", "subtype": "noteOff", "noteNumber": 46, "velocity": 0  },
      { "deltaTime": 1, "channel": 0, "type": "channel", "noteNumber": 40, "velocity": 64, "subtype": "noteOn"  },
      { "deltaTime": 239, "channel": 0, "type": "channel", "subtype": "noteOff", "noteNumber": 40, "velocity": 0  },
      { "deltaTime": 1, "channel": 0, "type": "channel", "noteNumber": 47, "velocity": 64, "subtype": "noteOn"  },
      { "deltaTime": 239, "channel": 0, "type": "channel", "subtype": "noteOff", "noteNumber": 47, "velocity": 0  },
      { "deltaTime": 1, "channel": 0, "type": "channel", "noteNumber": 50, "velocity": 64, "subtype": "noteOn"  },
      { "deltaTime": 239, "channel": 0, "type": "channel", "subtype": "noteOff", "noteNumber": 50, "velocity": 0  },
      { "deltaTime": 1, "channel": 0, "type": "channel", "noteNumber": 47, "velocity": 64, "subtype": "noteOn"  },
      { "deltaTime": 239, "channel": 0, "type": "channel", "subtype": "noteOff", "noteNumber": 47, "velocity": 0  },
      { "deltaTime": 1, "channel": 0, "type": "channel", "noteNumber": 40, "velocity": 64, "subtype": "noteOn"  },
      { "deltaTime": 239, "channel": 0, "type": "channel", "subtype": "noteOff", "noteNumber": 40, "velocity": 0  },
      { "deltaTime": 1, "channel": 0, "type": "channel", "noteNumber": 47, "velocity": 64, "subtype": "noteOn"  },
      { "deltaTime": 239, "channel": 0, "type": "channel", "subtype": "noteOff", "noteNumber": 47, "velocity": 0  },
      { "deltaTime": 1, "channel": 0, "type": "channel", "noteNumber": 47, "velocity": 64, "subtype": "noteOn"  },
      { "deltaTime": 239, "channel": 0, "type": "channel", "subtype": "noteOff", "noteNumber": 47, "velocity": 0  },
      { "deltaTime": 1, "channel": 0, "type": "channel", "noteNumber": 40, "velocity": 64, "subtype": "noteOn"  },
      { "deltaTime": 239, "channel": 0, "type": "channel", "subtype": "noteOff", "noteNumber": 40, "velocity": 0  },
      { "deltaTime": 1, "channel": 0, "type": "channel", "noteNumber": 46, "velocity": 64, "subtype": "noteOn"  },
      { "deltaTime": 239, "channel": 0, "type": "channel", "subtype": "noteOff", "noteNumber": 46, "velocity": 0  },
      { "deltaTime": 1, "channel": 0, "type": "channel", "noteNumber": 46, "velocity": 64, "subtype": "noteOn"  },
      { "deltaTime": 239, "channel": 0, "type": "channel", "subtype": "noteOff", "noteNumber": 46, "velocity": 0  },
      { "deltaTime": 1, "channel": 0, "type": "channel", "noteNumber": 40, "velocity": 64, "subtype": "noteOn"  },
      { "deltaTime": 239, "channel": 0, "type": "channel", "subtype": "noteOff", "noteNumber": 40, "velocity": 0  },
      { "deltaTime": 1, "channel": 0, "type": "channel", "noteNumber": 47, "velocity": 64, "subtype": "noteOn"  },
      { "deltaTime": 239, "channel": 0, "type": "channel", "subtype": "noteOff", "noteNumber": 47, "velocity": 0  },
      { "deltaTime": 1, "channel": 0, "type": "channel", "noteNumber": 47, "velocity": 64, "subtype": "noteOn"  },
      { "deltaTime": 239, "channel": 0, "type": "channel", "subtype": "noteOff", "noteNumber": 47, "velocity": 0  },
      { "deltaTime": 1, "channel": 0, "type": "channel", "noteNumber": 40, "velocity": 64, "subtype": "noteOn"  },
      { "deltaTime": 239, "channel": 0, "type": "channel", "subtype": "noteOff", "noteNumber": 40, "velocity": 0  },
      { "deltaTime": 1, "channel": 0, "type": "channel", "noteNumber": 52, "velocity": 64, "subtype": "noteOn"  },
      { "deltaTime": 239, "channel": 0, "type": "channel", "subtype": "noteOff", "noteNumber": 52, "velocity": 0  },
      { "deltaTime": 1, "channel": 0, "type": "channel", "noteNumber": 40, "velocity": 64, "subtype": "noteOn"  },
      { "deltaTime": 239, "channel": 0, "type": "channel", "subtype": "noteOff", "noteNumber": 40, "velocity": 0  },
      { "deltaTime": 1, "channel": 0, "type": "channel", "noteNumber": 50, "velocity": 64, "subtype": "noteOn"  },
      { "deltaTime": 239, "channel": 0, "type": "channel", "subtype": "noteOff", "noteNumber": 50, "velocity": 0  },
      { "deltaTime": 1, "channel": 0, "type": "channel", "noteNumber": 40, "velocity": 64, "subtype": "noteOn"  },
      { "deltaTime": 239, "channel": 0, "type": "channel", "subtype": "noteOff", "noteNumber": 40, "velocity": 0  },
      { "deltaTime": 1, "channel": 0, "type": "channel", "noteNumber": 45, "velocity": 64, "subtype": "noteOn"  },
      { "deltaTime": 239, "channel": 0, "type": "channel", "subtype": "noteOff", "noteNumber": 45, "velocity": 0  },
      { "deltaTime": 1, "channel": 0, "type": "channel", "noteNumber": 44, "velocity": 64, "subtype": "noteOn"  },
      { "deltaTime": 239, "channel": 0, "type": "channel", "subtype": "noteOff", "noteNumber": 44, "velocity": 0  },
      { "deltaTime": 1, "channel": 0, "type": "channel", "noteNumber": 40, "velocity": 64, "subtype": "noteOn"  },
      { "deltaTime": 239, "channel": 0, "type": "channel", "subtype": "noteOff", "noteNumber": 40, "velocity": 0  },
      { "deltaTime": 1, "channel": 0, "type": "channel", "noteNumber": 52, "velocity": 64, "subtype": "noteOn"  },
      { "deltaTime": 239, "channel": 0, "type": "channel", "subtype": "noteOff", "noteNumber": 52, "velocity": 0  },
      { "deltaTime": 1, "channel": 0, "type": "channel", "noteNumber": 52, "velocity": 64, "subtype": "noteOn"  },
      { "deltaTime": 239, "channel": 0, "type": "channel", "subtype": "noteOff", "noteNumber": 52, "velocity": 0  },
      { "deltaTime": 1, "channel": 0, "type": "channel", "noteNumber": 40, "velocity": 64, "subtype": "noteOn"  },
      { "deltaTime": 239, "channel": 0, "type": "channel", "subtype": "noteOff", "noteNumber": 40, "velocity": 0  },
      { "deltaTime": 1, "channel": 0, "type": "channel", "noteNumber": 44, "velocity": 64, "subtype": "noteOn"  },
      { "deltaTime": 239, "channel": 0, "type": "channel", "subtype": "noteOff", "noteNumber": 44, "velocity": 0  },
      { "deltaTime": 1, "channel": 0, "type": "channel", "noteNumber": 45, "velocity": 64, "subtype": "noteOn"  },
      { "deltaTime": 239, "channel": 0, "type": "channel", "subtype": "noteOff", "noteNumber": 45, "velocity": 0  },
      { "deltaTime": 1, "channel": 0, "type": "channel", "noteNumber": 40, "velocity": 64, "subtype": "noteOn"  },
      { "deltaTime": 239, "channel": 0, "type": "channel", "subtype": "noteOff", "noteNumber": 40, "velocity": 0  },
      { "deltaTime": 1, "channel": 0, "type": "channel", "noteNumber": 46, "velocity": 64, "subtype": "noteOn"  },
      { "deltaTime": 239, "channel": 0, "type": "channel", "subtype": "noteOff", "noteNumber": 46, "velocity": 0  },
      { "deltaTime": 1, "channel": 0, "type": "channel", "noteNumber": 40, "velocity": 64, "subtype": "noteOn"  },
      { "deltaTime": 239, "channel": 0, "type": "channel", "subtype": "noteOff", "noteNumber": 40, "velocity": 0  },
      { "deltaTime": 1, "channel": 0, "type": "channel", "noteNumber": 47, "velocity": 64, "subtype": "noteOn"  },
      { "deltaTime": 239, "channel": 0, "type": "channel", "subtype": "noteOff", "noteNumber": 47, "velocity": 0  },
      { "deltaTime": 1, "channel": 0, "type": "channel", "noteNumber": 50, "velocity": 64, "subtype": "noteOn"  },
      { "deltaTime": 239, "channel": 0, "type": "channel", "subtype": "noteOff", "noteNumber": 50, "velocity": 0  },
      { "deltaTime": 1, "channel": 0, "type": "channel", "noteNumber": 47, "velocity": 64, "subtype": "noteOn"  },
      { "deltaTime": 239, "channel": 0, "type": "channel", "subtype": "noteOff", "noteNumber": 47, "velocity": 0  },
      { "deltaTime": 1, "channel": 0, "type": "channel", "noteNumber": 40, "velocity": 64, "subtype": "noteOn"  },
      { "deltaTime": 239, "channel": 0, "type": "channel", "subtype": "noteOff", "noteNumber": 40, "velocity": 0  },
      { "deltaTime": 1, "channel": 0, "type": "channel", "noteNumber": 47, "velocity": 64, "subtype": "noteOn"  },
      { "deltaTime": 239, "channel": 0, "type": "channel", "subtype": "noteOff", "noteNumber": 47, "velocity": 0  },
      { "deltaTime": 1, "channel": 0, "type": "channel", "noteNumber": 47, "velocity": 64, "subtype": "noteOn"  },
      { "deltaTime": 239, "channel": 0, "type": "channel", "subtype": "noteOff", "noteNumber": 47, "velocity": 0  },
      { "deltaTime": 1, "channel": 0, "type": "channel", "noteNumber": 40, "velocity": 64, "subtype": "noteOn"  },
      { "deltaTime": 239, "channel": 0, "type": "channel", "subtype": "noteOff", "noteNumber": 40, "velocity": 0  },
      { "deltaTime": 1, "channel": 0, "type": "channel", "noteNumber": 46, "velocity": 64, "subtype": "noteOn"  },
      { "deltaTime": 239, "channel": 0, "type": "channel", "subtype": "noteOff", "noteNumber": 46, "velocity": 0  },
      { "deltaTime": 1, "channel": 0, "type": "channel", "noteNumber": 46, "velocity": 64, "subtype": "noteOn"  },
      { "deltaTime": 239, "channel": 0, "type": "channel", "subtype": "noteOff", "noteNumber": 46, "velocity": 0  },
      { "deltaTime": 1, "channel": 0, "type": "channel", "noteNumber": 40, "velocity": 64, "subtype": "noteOn"  },
      { "deltaTime": 239, "channel": 0, "type": "channel", "subtype": "noteOff", "noteNumber": 40, "velocity": 0  },
      { "deltaTime": 1, "channel": 0, "type": "channel", "noteNumber": 47, "velocity": 64, "subtype": "noteOn"  },
      { "deltaTime": 239, "channel": 0, "type": "channel", "subtype": "noteOff", "noteNumber": 47, "velocity": 0  },
      { "deltaTime": 1, "channel": 0, "type": "channel", "noteNumber": 47, "velocity": 64, "subtype": "noteOn"  },
      { "deltaTime": 239, "channel": 0, "type": "channel", "subtype": "noteOff", "noteNumber": 47, "velocity": 0  },
      { "deltaTime": 1, "channel": 0, "type": "channel", "noteNumber": 40, "velocity": 64, "subtype": "noteOn"  },
      { "deltaTime": 239, "channel": 0, "type": "channel", "subtype": "noteOff", "noteNumber": 40, "velocity": 0  },
      { "deltaTime": 1, "channel": 0, "type": "channel", "noteNumber": 52, "velocity": 64, "subtype": "noteOn"  },
      { "deltaTime": 239, "channel": 0, "type": "channel", "subtype": "noteOff", "noteNumber": 52, "velocity": 0  },
      { "deltaTime": 1, "channel": 0, "type": "channel", "noteNumber": 40, "velocity": 64, "subtype": "noteOn"  },
      { "deltaTime": 239, "channel": 0, "type": "channel", "subtype": "noteOff", "noteNumber": 40, "velocity": 0  },
      { "deltaTime": 1, "channel": 0, "type": "channel", "noteNumber": 50, "velocity": 64, "subtype": "noteOn"  },
      { "deltaTime": 239, "channel": 0, "type": "channel", "subtype": "noteOff", "noteNumber": 50, "velocity": 0  },
      { "deltaTime": 1, "channel": 0, "type": "channel", "noteNumber": 40, "velocity": 64, "subtype": "noteOn"  },
      { "deltaTime": 239, "channel": 0, "type": "channel", "subtype": "noteOff", "noteNumber": 40, "velocity": 0  },
      { "deltaTime": 1, "channel": 0, "type": "channel", "noteNumber": 45, "velocity": 64, "subtype": "noteOn"  },
      { "deltaTime": 239, "channel": 0, "type": "channel", "subtype": "noteOff", "noteNumber": 45, "velocity": 0  },
      { "deltaTime": 1, "channel": 0, "type": "channel", "noteNumber": 44, "velocity": 64, "subtype": "noteOn"  },
      { "deltaTime": 239, "channel": 0, "type": "channel", "subtype": "noteOff", "noteNumber": 44, "velocity": 0  },
      { "deltaTime": 1, "channel": 0, "type": "channel", "noteNumber": 40, "velocity": 64, "subtype": "noteOn"  },
      { "deltaTime": 239, "channel": 0, "type": "channel", "subtype": "noteOff", "noteNumber": 40, "velocity": 0  },
      { "deltaTime": 1, "channel": 0, "type": "channel", "noteNumber": 52, "velocity": 64, "subtype": "noteOn"  },
      { "deltaTime": 239, "channel": 0, "type": "channel", "subtype": "noteOff", "noteNumber": 52, "velocity": 0  },
      { "deltaTime": 1, "channel": 0, "type": "channel", "noteNumber": 52, "velocity": 64, "subtype": "noteOn"  },
      { "deltaTime": 239, "channel": 0, "type": "channel", "subtype": "noteOff", "noteNumber": 52, "velocity": 0  },
      { "deltaTime": 1, "channel": 0, "type": "channel", "noteNumber": 40, "velocity": 64, "subtype": "noteOn"  },
      { "deltaTime": 239, "channel": 0, "type": "channel", "subtype": "noteOff", "noteNumber": 40, "velocity": 0  },
      { "deltaTime": 1, "channel": 0, "type": "channel", "noteNumber": 44, "velocity": 64, "subtype": "noteOn"  },
      { "deltaTime": 239, "channel": 0, "type": "channel", "subtype": "noteOff", "noteNumber": 44, "velocity": 0  },
      { "deltaTime": 1, "channel": 0, "type": "channel", "noteNumber": 45, "velocity": 64, "subtype": "noteOn"  },
      { "deltaTime": 239, "channel": 0, "type": "channel", "subtype": "noteOff", "noteNumber": 45, "velocity": 0  },
      { "deltaTime": 1, "channel": 0, "type": "channel", "noteNumber": 40, "velocity": 64, "subtype": "noteOn"  },
      { "deltaTime": 239, "channel": 0, "type": "channel", "subtype": "noteOff", "noteNumber": 40, "velocity": 0  },
      { "deltaTime": 1, "channel": 0, "type": "channel", "noteNumber": 46, "velocity": 64, "subtype": "noteOn"  },
      { "deltaTime": 239, "channel": 0, "type": "channel", "subtype": "noteOff", "noteNumber": 46, "velocity": 0  },
      { "deltaTime": 1, "channel": 0, "type": "channel", "noteNumber": 40, "velocity": 64, "subtype": "noteOn"  },
      { "deltaTime": 239, "channel": 0, "type": "channel", "subtype": "noteOff", "noteNumber": 40, "velocity": 0  },
      { "deltaTime": 1, "channel": 0, "type": "channel", "noteNumber": 47, "velocity": 64, "subtype": "noteOn"  },
      { "deltaTime": 239, "channel": 0, "type": "channel", "subtype": "noteOff", "noteNumber": 47, "velocity": 0  },
      { "deltaTime": 1, "channel": 0, "type": "channel", "noteNumber": 50, "velocity": 64, "subtype": "noteOn"  },
      { "deltaTime": 239, "channel": 0, "type": "channel", "subtype": "noteOff", "noteNumber": 50, "velocity": 0  },
      { "deltaTime": 241, "channel": 0, "type": "channel", "noteNumber": 40, "velocity": 64, "subtype": "noteOn"  },
      { "deltaTime": 239, "channel": 0, "type": "channel", "subtype": "noteOff", "noteNumber": 40, "velocity": 0  },
      { "deltaTime": 1, "channel": 0, "type": "channel", "noteNumber": 47, "velocity": 64, "subtype": "noteOn"  },
      { "deltaTime": 239, "channel": 0, "type": "channel", "subtype": "noteOff", "noteNumber": 47, "velocity": 0  },
      { "deltaTime": 1, "channel": 0, "type": "channel", "noteNumber": 47, "velocity": 64, "subtype": "noteOn"  },
      { "deltaTime": 239, "channel": 0, "type": "channel", "subtype": "noteOff", "noteNumber": 47, "velocity": 0  },
      { "deltaTime": 1, "channel": 0, "type": "channel", "noteNumber": 40, "velocity": 64, "subtype": "noteOn"  },
      { "deltaTime": 239, "channel": 0, "type": "channel", "subtype": "noteOff", "noteNumber": 40, "velocity": 0  },
      { "deltaTime": 1, "channel": 0, "type": "channel", "noteNumber": 46, "velocity": 64, "subtype": "noteOn"  },
      { "deltaTime": 239, "channel": 0, "type": "channel", "subtype": "noteOff", "noteNumber": 46, "velocity": 0  },
      { "deltaTime": 1, "channel": 0, "type": "channel", "noteNumber": 46, "velocity": 64, "subtype": "noteOn"  },
      { "deltaTime": 239, "channel": 0, "type": "channel", "subtype": "noteOff", "noteNumber": 46, "velocity": 0  },
      { "deltaTime": 1, "channel": 0, "type": "channel", "noteNumber": 40, "velocity": 64, "subtype": "noteOn"  },
      { "deltaTime": 239, "channel": 0, "type": "channel", "subtype": "noteOff", "noteNumber": 40, "velocity": 0  },
      { "deltaTime": 1, "channel": 0, "type": "channel", "noteNumber": 47, "velocity": 64, "subtype": "noteOn"  },
      { "deltaTime": 239, "channel": 0, "type": "channel", "subtype": "noteOff", "noteNumber": 47, "velocity": 0  },
      { "deltaTime": 1, "channel": 0, "type": "channel", "noteNumber": 47, "velocity": 64, "subtype": "noteOn"  },
      { "deltaTime": 239, "channel": 0, "type": "channel", "subtype": "noteOff", "noteNumber": 47, "velocity": 0  },
      { "deltaTime": 1, "channel": 0, "type": "channel", "noteNumber": 40, "velocity": 64, "subtype": "noteOn"  },
      { "deltaTime": 239, "channel": 0, "type": "channel", "subtype": "noteOff", "noteNumber": 40, "velocity": 0  },
      { "deltaTime": 1, "channel": 0, "type": "channel", "noteNumber": 52, "velocity": 64, "subtype": "noteOn"  },
      { "deltaTime": 239, "channel": 0, "type": "channel", "subtype": "noteOff", "noteNumber": 52, "velocity": 0  },
      { "deltaTime": 1, "channel": 0, "type": "channel", "noteNumber": 40, "velocity": 64, "subtype": "noteOn"  },
      { "deltaTime": 239, "channel": 0, "type": "channel", "subtype": "noteOff", "noteNumber": 40, "velocity": 0  },
      { "deltaTime": 1, "channel": 0, "type": "channel", "noteNumber": 50, "velocity": 64, "subtype": "noteOn"  },
      { "deltaTime": 239, "channel": 0, "type": "channel", "subtype": "noteOff", "noteNumber": 50, "velocity": 0  },
      { "deltaTime": 1, "channel": 0, "type": "channel", "noteNumber": 40, "velocity": 64, "subtype": "noteOn"  },
      { "deltaTime": 239, "channel": 0, "type": "channel", "subtype": "noteOff", "noteNumber": 40, "velocity": 0  },
      { "deltaTime": 1, "channel": 0, "type": "channel", "noteNumber": 45, "velocity": 64, "subtype": "noteOn"  },
      { "deltaTime": 239, "channel": 0, "type": "channel", "subtype": "noteOff", "noteNumber": 45, "velocity": 0  },
      { "deltaTime": 1, "channel": 0, "type": "channel", "noteNumber": 44, "velocity": 64, "subtype": "noteOn"  },
      { "deltaTime": 239, "channel": 0, "type": "channel", "subtype": "noteOff", "noteNumber": 44, "velocity": 0  },
      { "deltaTime": 1, "channel": 0, "type": "channel", "noteNumber": 40, "velocity": 64, "subtype": "noteOn"  },
      { "deltaTime": 239, "channel": 0, "type": "channel", "subtype": "noteOff", "noteNumber": 40, "velocity": 0  },
      { "deltaTime": 1, "channel": 0, "type": "channel", "noteNumber": 52, "velocity": 64, "subtype": "noteOn"  },
      { "deltaTime": 239, "channel": 0, "type": "channel", "subtype": "noteOff", "noteNumber": 52, "velocity": 0  },
      { "deltaTime": 1, "channel": 0, "type": "channel", "noteNumber": 52, "velocity": 64, "subtype": "noteOn"  },
      { "deltaTime": 239, "channel": 0, "type": "channel", "subtype": "noteOff", "noteNumber": 52, "velocity": 0  },
      { "deltaTime": 1, "channel": 0, "type": "channel", "noteNumber": 40, "velocity": 64, "subtype": "noteOn"  },
      { "deltaTime": 239, "channel": 0, "type": "channel", "subtype": "noteOff", "noteNumber": 40, "velocity": 0  },
      { "deltaTime": 1, "channel": 0, "type": "channel", "noteNumber": 44, "velocity": 64, "subtype": "noteOn"  },
      { "deltaTime": 239, "channel": 0, "type": "channel", "subtype": "noteOff", "noteNumber": 44, "velocity": 0  },
      { "deltaTime": 1, "channel": 0, "type": "channel", "noteNumber": 45, "velocity": 64, "subtype": "noteOn"  },
      { "deltaTime": 239, "channel": 0, "type": "channel", "subtype": "noteOff", "noteNumber": 45, "velocity": 0  },
      { "deltaTime": 1, "channel": 0, "type": "channel", "noteNumber": 40, "velocity": 64, "subtype": "noteOn"  },
      { "deltaTime": 239, "channel": 0, "type": "channel", "subtype": "noteOff", "noteNumber": 40, "velocity": 0  },
      { "deltaTime": 1, "channel": 0, "type": "channel", "noteNumber": 46, "velocity": 64, "subtype": "noteOn"  },
      { "deltaTime": 239, "channel": 0, "type": "channel", "subtype": "noteOff", "noteNumber": 46, "velocity": 0  },
      { "deltaTime": 1, "channel": 0, "type": "channel", "noteNumber": 40, "velocity": 64, "subtype": "noteOn"  },
      { "deltaTime": 239, "channel": 0, "type": "channel", "subtype": "noteOff", "noteNumber": 40, "velocity": 0  },
      { "deltaTime": 1, "channel": 0, "type": "channel", "noteNumber": 47, "velocity": 64, "subtype": "noteOn"  },
      { "deltaTime": 239, "channel": 0, "type": "channel", "subtype": "noteOff", "noteNumber": 47, "velocity": 0  },
      { "deltaTime": 1, "channel": 0, "type": "channel", "noteNumber": 50, "velocity": 64, "subtype": "noteOn"  },
      { "deltaTime": 239, "channel": 0, "type": "channel", "subtype": "noteOff", "noteNumber": 50, "velocity": 0  },
      { "deltaTime": 1, "channel": 0, "type": "channel", "noteNumber": 47, "velocity": 64, "subtype": "noteOn"  },
      { "deltaTime": 239, "channel": 0, "type": "channel", "subtype": "noteOff", "noteNumber": 47, "velocity": 0  },
      { "deltaTime": 1, "channel": 0, "type": "channel", "noteNumber": 40, "velocity": 64, "subtype": "noteOn"  },
      { "deltaTime": 239, "channel": 0, "type": "channel", "subtype": "noteOff", "noteNumber": 40, "velocity": 0  },
      { "deltaTime": 1, "channel": 0, "type": "channel", "noteNumber": 47, "velocity": 64, "subtype": "noteOn"  },
      { "deltaTime": 239, "channel": 0, "type": "channel", "subtype": "noteOff", "noteNumber": 47, "velocity": 0  },
      { "deltaTime": 1, "channel": 0, "type": "channel", "noteNumber": 47, "velocity": 64, "subtype": "noteOn"  },
      { "deltaTime": 239, "channel": 0, "type": "channel", "subtype": "noteOff", "noteNumber": 47, "velocity": 0  },
      { "deltaTime": 1, "channel": 0, "type": "channel", "noteNumber": 40, "velocity": 64, "subtype": "noteOn"  },
      { "deltaTime": 239, "channel": 0, "type": "channel", "subtype": "noteOff", "noteNumber": 40, "velocity": 0  },
      { "deltaTime": 1, "channel": 0, "type": "channel", "noteNumber": 46, "velocity": 64, "subtype": "noteOn"  },
      { "deltaTime": 239, "channel": 0, "type": "channel", "subtype": "noteOff", "noteNumber": 46, "velocity": 0  },
      { "deltaTime": 1, "channel": 0, "type": "channel", "noteNumber": 46, "velocity": 64, "subtype": "noteOn"  },
      { "deltaTime": 239, "channel": 0, "type": "channel", "subtype": "noteOff", "noteNumber": 46, "velocity": 0  },
      { "deltaTime": 1, "channel": 0, "type": "channel", "noteNumber": 40, "velocity": 64, "subtype": "noteOn"  },
      { "deltaTime": 239, "channel": 0, "type": "channel", "subtype": "noteOff", "noteNumber": 40, "velocity": 0  },
      { "deltaTime": 1, "channel": 0, "type": "channel", "noteNumber": 47, "velocity": 64, "subtype": "noteOn"  },
      { "deltaTime": 239, "channel": 0, "type": "channel", "subtype": "noteOff", "noteNumber": 47, "velocity": 0  },
      { "deltaTime": 1, "channel": 0, "type": "channel", "noteNumber": 47, "velocity": 64, "subtype": "noteOn"  },
      { "deltaTime": 239, "channel": 0, "type": "channel", "subtype": "noteOff", "noteNumber": 47, "velocity": 0  },
      { "deltaTime": 1, "channel": 0, "type": "channel", "noteNumber": 40, "velocity": 64, "subtype": "noteOn"  },
      { "deltaTime": 239, "channel": 0, "type": "channel", "subtype": "noteOff", "noteNumber": 40, "velocity": 0  },
      { "deltaTime": 1, "channel": 0, "type": "channel", "noteNumber": 52, "velocity": 64, "subtype": "noteOn"  },
      { "deltaTime": 239, "channel": 0, "type": "channel", "subtype": "noteOff", "noteNumber": 52, "velocity": 0  },
      { "deltaTime": 1, "channel": 0, "type": "channel", "noteNumber": 40, "velocity": 64, "subtype": "noteOn"  },
      { "deltaTime": 239, "channel": 0, "type": "channel", "subtype": "noteOff", "noteNumber": 40, "velocity": 0  },
      { "deltaTime": 1, "channel": 0, "type": "channel", "noteNumber": 50, "velocity": 64, "subtype": "noteOn"  },
      { "deltaTime": 239, "channel": 0, "type": "channel", "subtype": "noteOff", "noteNumber": 50, "velocity": 0  },
      { "deltaTime": 1, "channel": 0, "type": "channel", "noteNumber": 40, "velocity": 64, "subtype": "noteOn"  },
      { "deltaTime": 239, "channel": 0, "type": "channel", "subtype": "noteOff", "noteNumber": 40, "velocity": 0  },
      { "deltaTime": 1, "channel": 0, "type": "channel", "noteNumber": 45, "velocity": 64, "subtype": "noteOn"  },
      { "deltaTime": 239, "channel": 0, "type": "channel", "subtype": "noteOff", "noteNumber": 45, "velocity": 0  },
      { "deltaTime": 1, "channel": 0, "type": "channel", "noteNumber": 44, "velocity": 64, "subtype": "noteOn"  },
      { "deltaTime": 239, "channel": 0, "type": "channel", "subtype": "noteOff", "noteNumber": 44, "velocity": 0  },
      { "deltaTime": 1, "channel": 0, "type": "channel", "noteNumber": 40, "velocity": 64, "subtype": "noteOn"  },
      { "deltaTime": 239, "channel": 0, "type": "channel", "subtype": "noteOff", "noteNumber": 40, "velocity": 0  },
      { "deltaTime": 1, "channel": 0, "type": "channel", "noteNumber": 52, "velocity": 64, "subtype": "noteOn"  },
      { "deltaTime": 239, "channel": 0, "type": "channel", "subtype": "noteOff", "noteNumber": 52, "velocity": 0  },
      { "deltaTime": 1, "channel": 0, "type": "channel", "noteNumber": 52, "velocity": 64, "subtype": "noteOn"  },
      { "deltaTime": 239, "channel": 0, "type": "channel", "subtype": "noteOff", "noteNumber": 52, "velocity": 0  },
      { "deltaTime": 1, "channel": 0, "type": "channel", "noteNumber": 40, "velocity": 64, "subtype": "noteOn"  },
      { "deltaTime": 239, "channel": 0, "type": "channel", "subtype": "noteOff", "noteNumber": 40, "velocity": 0  },
      { "deltaTime": 1, "channel": 0, "type": "channel", "noteNumber": 44, "velocity": 64, "subtype": "noteOn"  },
      { "deltaTime": 239, "channel": 0, "type": "channel", "subtype": "noteOff", "noteNumber": 44, "velocity": 0  },
      { "deltaTime": 1, "channel": 0, "type": "channel", "noteNumber": 45, "velocity": 64, "subtype": "noteOn"  },
      { "deltaTime": 239, "channel": 0, "type": "channel", "subtype": "noteOff", "noteNumber": 45, "velocity": 0  },
      { "deltaTime": 1, "channel": 0, "type": "channel", "noteNumber": 40, "velocity": 64, "subtype": "noteOn"  },
      { "deltaTime": 239, "channel": 0, "type": "channel", "subtype": "noteOff", "noteNumber": 40, "velocity": 0  },
      { "deltaTime": 1, "channel": 0, "type": "channel", "noteNumber": 46, "velocity": 64, "subtype": "noteOn"  },
      { "deltaTime": 239, "channel": 0, "type": "channel", "subtype": "noteOff", "noteNumber": 46, "velocity": 0  },
      { "deltaTime": 1, "channel": 0, "type": "channel", "noteNumber": 40, "velocity": 64, "subtype": "noteOn"  },
      { "deltaTime": 239, "channel": 0, "type": "channel", "subtype": "noteOff", "noteNumber": 40, "velocity": 0  },
      { "deltaTime": 1, "channel": 0, "type": "channel", "noteNumber": 47, "velocity": 64, "subtype": "noteOn"  },
      { "deltaTime": 239, "channel": 0, "type": "channel", "subtype": "noteOff", "noteNumber": 47, "velocity": 0  },
      { "deltaTime": 1, "channel": 0, "type": "channel", "noteNumber": 50, "velocity": 64, "subtype": "noteOn"  },
      { "deltaTime": 239, "channel": 0, "type": "channel", "subtype": "noteOff", "noteNumber": 50, "velocity": 0  },
      { "deltaTime": 1, "channel": 0, "type": "channel", "noteNumber": 47, "velocity": 64, "subtype": "noteOn"  },
      { "deltaTime": 239, "channel": 0, "type": "channel", "subtype": "noteOff", "noteNumber": 47, "velocity": 0  },
      { "deltaTime": 1, "channel": 0, "type": "channel", "noteNumber": 40, "velocity": 64, "subtype": "noteOn"  },
      { "deltaTime": 239, "channel": 0, "type": "channel", "subtype": "noteOff", "noteNumber": 40, "velocity": 0  },
      { "deltaTime": 1, "channel": 0, "type": "channel", "noteNumber": 47, "velocity": 64, "subtype": "noteOn"  },
      { "deltaTime": 239, "channel": 0, "type": "channel", "subtype": "noteOff", "noteNumber": 47, "velocity": 0  },
      { "deltaTime": 1, "channel": 0, "type": "channel", "noteNumber": 47, "velocity": 64, "subtype": "noteOn"  },
      { "deltaTime": 239, "channel": 0, "type": "channel", "subtype": "noteOff", "noteNumber": 47, "velocity": 0  },
      { "deltaTime": 1, "channel": 0, "type": "channel", "noteNumber": 40, "velocity": 64, "subtype": "noteOn"  },
      { "deltaTime": 239, "channel": 0, "type": "channel", "subtype": "noteOff", "noteNumber": 40, "velocity": 0  },
      { "deltaTime": 1, "channel": 0, "type": "channel", "noteNumber": 46, "velocity": 64, "subtype": "noteOn"  },
      { "deltaTime": 239, "channel": 0, "type": "channel", "subtype": "noteOff", "noteNumber": 46, "velocity": 0  },
      { "deltaTime": 1, "channel": 0, "type": "channel", "noteNumber": 46, "velocity": 64, "subtype": "noteOn"  },
      { "deltaTime": 239, "channel": 0, "type": "channel", "subtype": "noteOff", "noteNumber": 46, "velocity": 0  },
      { "deltaTime": 1, "channel": 0, "type": "channel", "noteNumber": 40, "velocity": 64, "subtype": "noteOn"  },
      { "deltaTime": 239, "channel": 0, "type": "channel", "subtype": "noteOff", "noteNumber": 40, "velocity": 0  },
      { "deltaTime": 1, "channel": 0, "type": "channel", "noteNumber": 47, "velocity": 64, "subtype": "noteOn"  },
      { "deltaTime": 239, "channel": 0, "type": "channel", "subtype": "noteOff", "noteNumber": 47, "velocity": 0  },
      { "deltaTime": 1, "channel": 0, "type": "channel", "noteNumber": 47, "velocity": 64, "subtype": "noteOn"  },
      { "deltaTime": 239, "channel": 0, "type": "channel", "subtype": "noteOff", "noteNumber": 47, "velocity": 0  },
      { "deltaTime": 1, "channel": 0, "type": "channel", "noteNumber": 40, "velocity": 64, "subtype": "noteOn"  },
      { "deltaTime": 239, "channel": 0, "type": "channel", "subtype": "noteOff", "noteNumber": 40, "velocity": 0  },
      { "deltaTime": 1, "channel": 0, "type": "channel", "noteNumber": 52, "velocity": 64, "subtype": "noteOn"  },
      { "deltaTime": 239, "channel": 0, "type": "channel", "subtype": "noteOff", "noteNumber": 52, "velocity": 0  },
      { "deltaTime": 1, "channel": 0, "type": "channel", "noteNumber": 40, "velocity": 64, "subtype": "noteOn"  },
      { "deltaTime": 239, "channel": 0, "type": "channel", "subtype": "noteOff", "noteNumber": 40, "velocity": 0  },
      { "deltaTime": 1, "channel": 0, "type": "channel", "noteNumber": 50, "velocity": 64, "subtype": "noteOn"  },
      { "deltaTime": 239, "channel": 0, "type": "channel", "subtype": "noteOff", "noteNumber": 50, "velocity": 0  },
      { "deltaTime": 1, "channel": 0, "type": "channel", "noteNumber": 40, "velocity": 64, "subtype": "noteOn"  },
      { "deltaTime": 239, "channel": 0, "type": "channel", "subtype": "noteOff", "noteNumber": 40, "velocity": 0  },
      { "deltaTime": 1, "channel": 0, "type": "channel", "noteNumber": 45, "velocity": 64, "subtype": "noteOn"  },
      { "deltaTime": 239, "channel": 0, "type": "channel", "subtype": "noteOff", "noteNumber": 45, "velocity": 0  },
      { "deltaTime": 1, "channel": 0, "type": "channel", "noteNumber": 44, "velocity": 64, "subtype": "noteOn"  },
      { "deltaTime": 239, "channel": 0, "type": "channel", "subtype": "noteOff", "noteNumber": 44, "velocity": 0  },
      { "deltaTime": 1, "channel": 0, "type": "channel", "noteNumber": 40, "velocity": 64, "subtype": "noteOn"  },
      { "deltaTime": 239, "channel": 0, "type": "channel", "subtype": "noteOff", "noteNumber": 40, "velocity": 0  },
      { "deltaTime": 1, "channel": 0, "type": "channel", "noteNumber": 52, "velocity": 64, "subtype": "noteOn"  },
      { "deltaTime": 239, "channel": 0, "type": "channel", "subtype": "noteOff", "noteNumber": 52, "velocity": 0  },
      { "deltaTime": 1, "channel": 0, "type": "channel", "noteNumber": 52, "velocity": 64, "subtype": "noteOn"  },
      { "deltaTime": 239, "channel": 0, "type": "channel", "subtype": "noteOff", "noteNumber": 52, "velocity": 0  },
      { "deltaTime": 1, "channel": 0, "type": "channel", "noteNumber": 40, "velocity": 64, "subtype": "noteOn"  },
      { "deltaTime": 239, "channel": 0, "type": "channel", "subtype": "noteOff", "noteNumber": 40, "velocity": 0  },
      { "deltaTime": 1, "channel": 0, "type": "channel", "noteNumber": 44, "velocity": 64, "subtype": "noteOn"  },
      { "deltaTime": 239, "channel": 0, "type": "channel", "subtype": "noteOff", "noteNumber": 44, "velocity": 0  },
      { "deltaTime": 1, "channel": 0, "type": "channel", "noteNumber": 45, "velocity": 64, "subtype": "noteOn"  },
      { "deltaTime": 239, "channel": 0, "type": "channel", "subtype": "noteOff", "noteNumber": 45, "velocity": 0  },
      { "deltaTime": 1, "channel": 0, "type": "channel", "noteNumber": 40, "velocity": 64, "subtype": "noteOn"  },
      { "deltaTime": 239, "channel": 0, "type": "channel", "subtype": "noteOff", "noteNumber": 40, "velocity": 0  },
      { "deltaTime": 1, "channel": 0, "type": "channel", "noteNumber": 46, "velocity": 64, "subtype": "noteOn"  },
      { "deltaTime": 239, "channel": 0, "type": "channel", "subtype": "noteOff", "noteNumber": 46, "velocity": 0  },
      { "deltaTime": 1, "channel": 0, "type": "channel", "noteNumber": 40, "velocity": 64, "subtype": "noteOn"  },
      { "deltaTime": 239, "channel": 0, "type": "channel", "subtype": "noteOff", "noteNumber": 40, "velocity": 0  },
      { "deltaTime": 1, "channel": 0, "type": "channel", "noteNumber": 47, "velocity": 64, "subtype": "noteOn"  },
      { "deltaTime": 239, "channel": 0, "type": "channel", "subtype": "noteOff", "noteNumber": 47, "velocity": 0  },
      { "deltaTime": 1, "channel": 0, "type": "channel", "noteNumber": 50, "velocity": 64, "subtype": "noteOn"  },
      { "deltaTime": 239, "channel": 0, "type": "channel", "subtype": "noteOff", "noteNumber": 50, "velocity": 0  },
      { "deltaTime": 1, "channel": 0, "type": "channel", "noteNumber": 47, "velocity": 64, "subtype": "noteOn"  },
      { "deltaTime": 239, "channel": 0, "type": "channel", "subtype": "noteOff", "noteNumber": 47, "velocity": 0  },
      { "deltaTime": 1, "channel": 0, "type": "channel", "noteNumber": 40, "velocity": 64, "subtype": "noteOn"  },
      { "deltaTime": 239, "channel": 0, "type": "channel", "subtype": "noteOff", "noteNumber": 40, "velocity": 0  },
      { "deltaTime": 1, "channel": 0, "type": "channel", "noteNumber": 47, "velocity": 64, "subtype": "noteOn"  },
      { "deltaTime": 239, "channel": 0, "type": "channel", "subtype": "noteOff", "noteNumber": 47, "velocity": 0  },
      { "deltaTime": 1, "channel": 0, "type": "channel", "noteNumber": 47, "velocity": 64, "subtype": "noteOn"  },
      { "deltaTime": 239, "channel": 0, "type": "channel", "subtype": "noteOff", "noteNumber": 47, "velocity": 0  },
      { "deltaTime": 1, "channel": 0, "type": "channel", "noteNumber": 40, "velocity": 64, "subtype": "noteOn"  },
      { "deltaTime": 239, "channel": 0, "type": "channel", "subtype": "noteOff", "noteNumber": 40, "velocity": 0  },
      { "deltaTime": 1, "channel": 0, "type": "channel", "noteNumber": 46, "velocity": 64, "subtype": "noteOn"  },
      { "deltaTime": 239, "channel": 0, "type": "channel", "subtype": "noteOff", "noteNumber": 46, "velocity": 0  },
      { "deltaTime": 1, "channel": 0, "type": "channel", "noteNumber": 46, "velocity": 64, "subtype": "noteOn"  },
      { "deltaTime": 239, "channel": 0, "type": "channel", "subtype": "noteOff", "noteNumber": 46, "velocity": 0  },
      { "deltaTime": 1, "channel": 0, "type": "channel", "noteNumber": 40, "velocity": 64, "subtype": "noteOn"  },
      { "deltaTime": 239, "channel": 0, "type": "channel", "subtype": "noteOff", "noteNumber": 40, "velocity": 0  },
      { "deltaTime": 1, "channel": 0, "type": "channel", "noteNumber": 47, "velocity": 64, "subtype": "noteOn"  },
      { "deltaTime": 239, "channel": 0, "type": "channel", "subtype": "noteOff", "noteNumber": 47, "velocity": 0  },
      { "deltaTime": 1, "channel": 0, "type": "channel", "noteNumber": 47, "velocity": 64, "subtype": "noteOn"  },
      { "deltaTime": 239, "channel": 0, "type": "channel", "subtype": "noteOff", "noteNumber": 47, "velocity": 0  },
      { "deltaTime": 1, "channel": 0, "type": "channel", "noteNumber": 40, "velocity": 64, "subtype": "noteOn"  },
      { "deltaTime": 239, "channel": 0, "type": "channel", "subtype": "noteOff", "noteNumber": 40, "velocity": 0  },
      { "deltaTime": 1, "channel": 0, "type": "channel", "noteNumber": 52, "velocity": 64, "subtype": "noteOn"  },
      { "deltaTime": 239, "channel": 0, "type": "channel", "subtype": "noteOff", "noteNumber": 52, "velocity": 0  },
      { "deltaTime": 1, "channel": 0, "type": "channel", "noteNumber": 40, "velocity": 64, "subtype": "noteOn"  },
      { "deltaTime": 239, "channel": 0, "type": "channel", "subtype": "noteOff", "noteNumber": 40, "velocity": 0  },
      { "deltaTime": 1, "channel": 0, "type": "channel", "noteNumber": 50, "velocity": 64, "subtype": "noteOn"  },
      { "deltaTime": 239, "channel": 0, "type": "channel", "subtype": "noteOff", "noteNumber": 50, "velocity": 0  },
      { "deltaTime": 1, "channel": 0, "type": "channel", "noteNumber": 40, "velocity": 64, "subtype": "noteOn"  },
      { "deltaTime": 239, "channel": 0, "type": "channel", "subtype": "noteOff", "noteNumber": 40, "velocity": 0  },
      { "deltaTime": 1, "channel": 0, "type": "channel", "noteNumber": 45, "velocity": 64, "subtype": "noteOn"  },
      { "deltaTime": 239, "channel": 0, "type": "channel", "subtype": "noteOff", "noteNumber": 45, "velocity": 0  },
      { "deltaTime": 1, "channel": 0, "type": "channel", "noteNumber": 44, "velocity": 64, "subtype": "noteOn"  },
      { "deltaTime": 239, "channel": 0, "type": "channel", "subtype": "noteOff", "noteNumber": 44, "velocity": 0  },
      { "deltaTime": 1, "channel": 0, "type": "channel", "noteNumber": 40, "velocity": 64, "subtype": "noteOn"  },
      { "deltaTime": 239, "channel": 0, "type": "channel", "subtype": "noteOff", "noteNumber": 40, "velocity": 0  },
      { "deltaTime": 1, "channel": 0, "type": "channel", "noteNumber": 52, "velocity": 64, "subtype": "noteOn"  },
      { "deltaTime": 239, "channel": 0, "type": "channel", "subtype": "noteOff", "noteNumber": 52, "velocity": 0  },
      { "deltaTime": 1, "channel": 0, "type": "channel", "noteNumber": 52, "velocity": 64, "subtype": "noteOn"  },
      { "deltaTime": 239, "channel": 0, "type": "channel", "subtype": "noteOff", "noteNumber": 52, "velocity": 0  },
      { "deltaTime": 1, "channel": 0, "type": "channel", "noteNumber": 40, "velocity": 64, "subtype": "noteOn"  },
      { "deltaTime": 239, "channel": 0, "type": "channel", "subtype": "noteOff", "noteNumber": 40, "velocity": 0  },
      { "deltaTime": 1, "channel": 0, "type": "channel", "noteNumber": 44, "velocity": 64, "subtype": "noteOn"  },
      { "deltaTime": 239, "channel": 0, "type": "channel", "subtype": "noteOff", "noteNumber": 44, "velocity": 0  },
      { "deltaTime": 1, "channel": 0, "type": "channel", "noteNumber": 45, "velocity": 64, "subtype": "noteOn"  },
      { "deltaTime": 239, "channel": 0, "type": "channel", "subtype": "noteOff", "noteNumber": 45, "velocity": 0  },
      { "deltaTime": 1, "channel": 0, "type": "channel", "noteNumber": 40, "velocity": 64, "subtype": "noteOn"  },
      { "deltaTime": 239, "channel": 0, "type": "channel", "subtype": "noteOff", "noteNumber": 40, "velocity": 0  },
      { "deltaTime": 1, "channel": 0, "type": "channel", "noteNumber": 46, "velocity": 64, "subtype": "noteOn"  },
      { "deltaTime": 239, "channel": 0, "type": "channel", "subtype": "noteOff", "noteNumber": 46, "velocity": 0  },
      { "deltaTime": 1, "channel": 0, "type": "channel", "noteNumber": 40, "velocity": 64, "subtype": "noteOn"  },
      { "deltaTime": 239, "channel": 0, "type": "channel", "subtype": "noteOff", "noteNumber": 40, "velocity": 0  },
      { "deltaTime": 1, "channel": 0, "type": "channel", "noteNumber": 47, "velocity": 64, "subtype": "noteOn"  },
      { "deltaTime": 239, "channel": 0, "type": "channel", "subtype": "noteOff", "noteNumber": 47, "velocity": 0  },
      { "deltaTime": 1, "channel": 0, "type": "channel", "noteNumber": 50, "velocity": 64, "subtype": "noteOn"  },
      { "deltaTime": 239, "channel": 0, "type": "channel", "subtype": "noteOff", "noteNumber": 50, "velocity": 0  },
      { "deltaTime": 241, "channel": 0, "type": "channel", "noteNumber": 40, "velocity": 64, "subtype": "noteOn"  },
      { "deltaTime": 239, "channel": 0, "type": "channel", "subtype": "noteOff", "noteNumber": 40, "velocity": 0  },
      { "deltaTime": 1, "channel": 0, "type": "channel", "noteNumber": 52, "velocity": 64, "subtype": "noteOn"  },
      { "deltaTime": 239, "channel": 0, "type": "channel", "subtype": "noteOff", "noteNumber": 52, "velocity": 0  },
      { "deltaTime": 1, "channel": 0, "type": "channel", "noteNumber": 40, "velocity": 64, "subtype": "noteOn"  },
      { "deltaTime": 239, "channel": 0, "type": "channel", "subtype": "noteOff", "noteNumber": 40, "velocity": 0  },
      { "deltaTime": 1, "channel": 0, "type": "channel", "noteNumber": 40, "velocity": 64, "subtype": "noteOn"  },
      { "deltaTime": 239, "channel": 0, "type": "channel", "subtype": "noteOff", "noteNumber": 40, "velocity": 0  },
      { "deltaTime": 1, "channel": 0, "type": "channel", "noteNumber": 50, "velocity": 64, "subtype": "noteOn"  },
      { "deltaTime": 239, "channel": 0, "type": "channel", "subtype": "noteOff", "noteNumber": 50, "velocity": 0  },
      { "deltaTime": 241, "channel": 0, "type": "channel", "noteNumber": 40, "velocity": 64, "subtype": "noteOn"  },
      { "deltaTime": 239, "channel": 0, "type": "channel", "subtype": "noteOff", "noteNumber": 40, "velocity": 0  },
      { "deltaTime": 1, "channel": 0, "type": "channel", "noteNumber": 49, "velocity": 64, "subtype": "noteOn"  },
      { "deltaTime": 239, "channel": 0, "type": "channel", "subtype": "noteOff", "noteNumber": 49, "velocity": 0  },
      { "deltaTime": 1, "channel": 0, "type": "channel", "noteNumber": 40, "velocity": 64, "subtype": "noteOn"  },
      { "deltaTime": 239, "channel": 0, "type": "channel", "subtype": "noteOff", "noteNumber": 40, "velocity": 0  },
      { "deltaTime": 1, "channel": 0, "type": "channel", "noteNumber": 40, "velocity": 64, "subtype": "noteOn"  },
      { "deltaTime": 239, "channel": 0, "type": "channel", "subtype": "noteOff", "noteNumber": 40, "velocity": 0  },
      { "deltaTime": 1, "channel": 0, "type": "channel", "noteNumber": 47, "velocity": 64, "subtype": "noteOn"  },
      { "deltaTime": 239, "channel": 0, "type": "channel", "subtype": "noteOff", "noteNumber": 47, "velocity": 0  },
      { "deltaTime": 241, "channel": 0, "type": "channel", "noteNumber": 40, "velocity": 64, "subtype": "noteOn"  },
      { "deltaTime": 239, "channel": 0, "type": "channel", "subtype": "noteOff", "noteNumber": 40, "velocity": 0  },
      { "deltaTime": 1, "channel": 0, "type": "channel", "noteNumber": 45, "velocity": 64, "subtype": "noteOn"  },
      { "deltaTime": 239, "channel": 0, "type": "channel", "subtype": "noteOff", "noteNumber": 45, "velocity": 0  },
      { "deltaTime": 1, "channel": 0, "type": "channel", "noteNumber": 47, "velocity": 64, "subtype": "noteOn"  },
      { "deltaTime": 239, "channel": 0, "type": "channel", "subtype": "noteOff", "noteNumber": 47, "velocity": 0  },
      { "deltaTime": 1, "channel": 0, "type": "channel", "noteNumber": 52, "velocity": 64, "subtype": "noteOn"  },
      { "deltaTime": 239, "channel": 0, "type": "channel", "subtype": "noteOff", "noteNumber": 52, "velocity": 0  },
      { "deltaTime": 1, "channel": 0, "type": "channel", "noteNumber": 40, "velocity": 64, "subtype": "noteOn"  },
      { "deltaTime": 239, "channel": 0, "type": "channel", "subtype": "noteOff", "noteNumber": 40, "velocity": 0  },
      { "deltaTime": 1, "channel": 0, "type": "channel", "noteNumber": 52, "velocity": 64, "subtype": "noteOn"  },
      { "deltaTime": 239, "channel": 0, "type": "channel", "subtype": "noteOff", "noteNumber": 52, "velocity": 0  },
      { "deltaTime": 1, "channel": 0, "type": "channel", "noteNumber": 40, "velocity": 64, "subtype": "noteOn"  },
      { "deltaTime": 239, "channel": 0, "type": "channel", "subtype": "noteOff", "noteNumber": 40, "velocity": 0  },
      { "deltaTime": 1, "channel": 0, "type": "channel", "noteNumber": 40, "velocity": 64, "subtype": "noteOn"  },
      { "deltaTime": 239, "channel": 0, "type": "channel", "subtype": "noteOff", "noteNumber": 40, "velocity": 0  },
      { "deltaTime": 1, "channel": 0, "type": "channel", "noteNumber": 50, "velocity": 64, "subtype": "noteOn"  },
      { "deltaTime": 239, "channel": 0, "type": "channel", "subtype": "noteOff", "noteNumber": 50, "velocity": 0  },
      { "deltaTime": 241, "channel": 0, "type": "channel", "noteNumber": 40, "velocity": 64, "subtype": "noteOn"  },
      { "deltaTime": 239, "channel": 0, "type": "channel", "subtype": "noteOff", "noteNumber": 40, "velocity": 0  },
      { "deltaTime": 1, "channel": 0, "type": "channel", "noteNumber": 49, "velocity": 64, "subtype": "noteOn"  },
      { "deltaTime": 239, "channel": 0, "type": "channel", "subtype": "noteOff", "noteNumber": 49, "velocity": 0  },
      { "deltaTime": 1, "channel": 0, "type": "channel", "noteNumber": 40, "velocity": 64, "subtype": "noteOn"  },
      { "deltaTime": 239, "channel": 0, "type": "channel", "subtype": "noteOff", "noteNumber": 40, "velocity": 0  },
      { "deltaTime": 1, "channel": 0, "type": "channel", "noteNumber": 40, "velocity": 64, "subtype": "noteOn"  },
      { "deltaTime": 239, "channel": 0, "type": "channel", "subtype": "noteOff", "noteNumber": 40, "velocity": 0  },
      { "deltaTime": 1, "channel": 0, "type": "channel", "noteNumber": 47, "velocity": 64, "subtype": "noteOn"  },
      { "deltaTime": 239, "channel": 0, "type": "channel", "subtype": "noteOff", "noteNumber": 47, "velocity": 0  },
      { "deltaTime": 241, "channel": 0, "type": "channel", "noteNumber": 40, "velocity": 64, "subtype": "noteOn"  },
      { "deltaTime": 239, "channel": 0, "type": "channel", "subtype": "noteOff", "noteNumber": 40, "velocity": 0  },
      { "deltaTime": 1, "channel": 0, "type": "channel", "noteNumber": 52, "velocity": 64, "subtype": "noteOn"  },
      { "deltaTime": 239, "channel": 0, "type": "channel", "subtype": "noteOff", "noteNumber": 52, "velocity": 0  },
      { "deltaTime": 1, "channel": 0, "type": "channel", "noteNumber": 40, "velocity": 64, "subtype": "noteOn"  },
      { "deltaTime": 239, "channel": 0, "type": "channel", "subtype": "noteOff", "noteNumber": 40, "velocity": 0  },
      { "deltaTime": 1, "channel": 0, "type": "channel", "noteNumber": 40, "velocity": 64, "subtype": "noteOn"  },
      { "deltaTime": 239, "channel": 0, "type": "channel", "subtype": "noteOff", "noteNumber": 40, "velocity": 0  },
      { "deltaTime": 1, "channel": 0, "type": "channel", "noteNumber": 50, "velocity": 64, "subtype": "noteOn"  },
      { "deltaTime": 239, "channel": 0, "type": "channel", "subtype": "noteOff", "noteNumber": 50, "velocity": 0  },
      { "deltaTime": 241, "channel": 0, "type": "channel", "noteNumber": 40, "velocity": 64, "subtype": "noteOn"  },
      { "deltaTime": 239, "channel": 0, "type": "channel", "subtype": "noteOff", "noteNumber": 40, "velocity": 0  },
      { "deltaTime": 1, "channel": 0, "type": "channel", "noteNumber": 49, "velocity": 64, "subtype": "noteOn"  },
      { "deltaTime": 239, "channel": 0, "type": "channel", "subtype": "noteOff", "noteNumber": 49, "velocity": 0  },
      { "deltaTime": 1, "channel": 0, "type": "channel", "noteNumber": 40, "velocity": 64, "subtype": "noteOn"  },
      { "deltaTime": 239, "channel": 0, "type": "channel", "subtype": "noteOff", "noteNumber": 40, "velocity": 0  },
      { "deltaTime": 1, "channel": 0, "type": "channel", "noteNumber": 40, "velocity": 64, "subtype": "noteOn"  },
      { "deltaTime": 239, "channel": 0, "type": "channel", "subtype": "noteOff", "noteNumber": 40, "velocity": 0  },
      { "deltaTime": 1, "channel": 0, "type": "channel", "noteNumber": 47, "velocity": 64, "subtype": "noteOn"  },
      { "deltaTime": 239, "channel": 0, "type": "channel", "subtype": "noteOff", "noteNumber": 47, "velocity": 0  },
      { "deltaTime": 241, "channel": 0, "type": "channel", "noteNumber": 40, "velocity": 64, "subtype": "noteOn"  },
      { "deltaTime": 239, "channel": 0, "type": "channel", "subtype": "noteOff", "noteNumber": 40, "velocity": 0  },
      { "deltaTime": 1, "channel": 0, "type": "channel", "noteNumber": 45, "velocity": 64, "subtype": "noteOn"  },
      { "deltaTime": 239, "channel": 0, "type": "channel", "subtype": "noteOff", "noteNumber": 45, "velocity": 0  },
      { "deltaTime": 1, "channel": 0, "type": "channel", "noteNumber": 47, "velocity": 64, "subtype": "noteOn"  },
      { "deltaTime": 239, "channel": 0, "type": "channel", "subtype": "noteOff", "noteNumber": 47, "velocity": 0  },
      { "deltaTime": 1, "channel": 0, "type": "channel", "noteNumber": 52, "velocity": 64, "subtype": "noteOn"  },
      { "deltaTime": 239, "channel": 0, "type": "channel", "subtype": "noteOff", "noteNumber": 52, "velocity": 0  },
      { "deltaTime": 1, "channel": 0, "type": "channel", "noteNumber": 40, "velocity": 64, "subtype": "noteOn"  },
      { "deltaTime": 239, "channel": 0, "type": "channel", "subtype": "noteOff", "noteNumber": 40, "velocity": 0  },
      { "deltaTime": 1, "channel": 0, "type": "channel", "noteNumber": 52, "velocity": 64, "subtype": "noteOn"  },
      { "deltaTime": 239, "channel": 0, "type": "channel", "subtype": "noteOff", "noteNumber": 52, "velocity": 0  },
      { "deltaTime": 1, "channel": 0, "type": "channel", "noteNumber": 40, "velocity": 64, "subtype": "noteOn"  },
      { "deltaTime": 239, "channel": 0, "type": "channel", "subtype": "noteOff", "noteNumber": 40, "velocity": 0  },
      { "deltaTime": 1, "channel": 0, "type": "channel", "noteNumber": 40, "velocity": 64, "subtype": "noteOn"  },
      { "deltaTime": 239, "channel": 0, "type": "channel", "subtype": "noteOff", "noteNumber": 40, "velocity": 0  },
      { "deltaTime": 1, "channel": 0, "type": "channel", "noteNumber": 50, "velocity": 64, "subtype": "noteOn"  },
      { "deltaTime": 239, "channel": 0, "type": "channel", "subtype": "noteOff", "noteNumber": 50, "velocity": 0  },
      { "deltaTime": 241, "channel": 0, "type": "channel", "noteNumber": 40, "velocity": 64, "subtype": "noteOn"  },
      { "deltaTime": 239, "channel": 0, "type": "channel", "subtype": "noteOff", "noteNumber": 40, "velocity": 0  },
      { "deltaTime": 1, "channel": 0, "type": "channel", "noteNumber": 49, "velocity": 64, "subtype": "noteOn"  },
      { "deltaTime": 239, "channel": 0, "type": "channel", "subtype": "noteOff", "noteNumber": 49, "velocity": 0  },
      { "deltaTime": 1, "channel": 0, "type": "channel", "noteNumber": 40, "velocity": 64, "subtype": "noteOn"  },
      { "deltaTime": 239, "channel": 0, "type": "channel", "subtype": "noteOff", "noteNumber": 40, "velocity": 0  },
      { "deltaTime": 1, "channel": 0, "type": "channel", "noteNumber": 40, "velocity": 64, "subtype": "noteOn"  },
      { "deltaTime": 239, "channel": 0, "type": "channel", "subtype": "noteOff", "noteNumber": 40, "velocity": 0  },
      { "deltaTime": 1, "channel": 0, "type": "channel", "noteNumber": 47, "velocity": 64, "subtype": "noteOn"  },
      { "deltaTime": 239, "channel": 0, "type": "channel", "subtype": "noteOff", "noteNumber": 47, "velocity": 0  },
      { "deltaTime": 241, "channel": 0, "type": "channel", "noteNumber": 40, "velocity": 64, "subtype": "noteOn"  },
      { "deltaTime": 239, "channel": 0, "type": "channel", "subtype": "noteOff", "noteNumber": 40, "velocity": 0  },
      { "deltaTime": 1, "channel": 0, "type": "channel", "noteNumber": 52, "velocity": 64, "subtype": "noteOn"  },
      { "deltaTime": 239, "channel": 0, "type": "channel", "subtype": "noteOff", "noteNumber": 52, "velocity": 0  },
      { "deltaTime": 1, "channel": 0, "type": "channel", "noteNumber": 40, "velocity": 64, "subtype": "noteOn"  },
      { "deltaTime": 239, "channel": 0, "type": "channel", "subtype": "noteOff", "noteNumber": 40, "velocity": 0  },
      { "deltaTime": 1, "channel": 0, "type": "channel", "noteNumber": 40, "velocity": 64, "subtype": "noteOn"  },
      { "deltaTime": 239, "channel": 0, "type": "channel", "subtype": "noteOff", "noteNumber": 40, "velocity": 0  },
      { "deltaTime": 1, "channel": 0, "type": "channel", "noteNumber": 50, "velocity": 64, "subtype": "noteOn"  },
      { "deltaTime": 239, "channel": 0, "type": "channel", "subtype": "noteOff", "noteNumber": 50, "velocity": 0  },
      { "deltaTime": 241, "channel": 0, "type": "channel", "noteNumber": 40, "velocity": 64, "subtype": "noteOn"  },
      { "deltaTime": 239, "channel": 0, "type": "channel", "subtype": "noteOff", "noteNumber": 40, "velocity": 0  },
      { "deltaTime": 1, "channel": 0, "type": "channel", "noteNumber": 49, "velocity": 64, "subtype": "noteOn"  },
      { "deltaTime": 239, "channel": 0, "type": "channel", "subtype": "noteOff", "noteNumber": 49, "velocity": 0  },
      { "deltaTime": 1, "channel": 0, "type": "channel", "noteNumber": 40, "velocity": 64, "subtype": "noteOn"  },
      { "deltaTime": 239, "channel": 0, "type": "channel", "subtype": "noteOff", "noteNumber": 40, "velocity": 0  },
      { "deltaTime": 1, "channel": 0, "type": "channel", "noteNumber": 40, "velocity": 64, "subtype": "noteOn"  },
      { "deltaTime": 239, "channel": 0, "type": "channel", "subtype": "noteOff", "noteNumber": 40, "velocity": 0  },
      { "deltaTime": 1, "channel": 0, "type": "channel", "noteNumber": 47, "velocity": 64, "subtype": "noteOn"  },
      { "deltaTime": 239, "channel": 0, "type": "channel", "subtype": "noteOff", "noteNumber": 47, "velocity": 0  },
      { "deltaTime": 241, "channel": 0, "type": "channel", "noteNumber": 40, "velocity": 64, "subtype": "noteOn"  },
      { "deltaTime": 239, "channel": 0, "type": "channel", "subtype": "noteOff", "noteNumber": 40, "velocity": 0  },
      { "deltaTime": 1, "channel": 0, "type": "channel", "noteNumber": 45, "velocity": 64, "subtype": "noteOn"  },
      { "deltaTime": 239, "channel": 0, "type": "channel", "subtype": "noteOff", "noteNumber": 45, "velocity": 0  },
      { "deltaTime": 1, "channel": 0, "type": "channel", "noteNumber": 47, "velocity": 64, "subtype": "noteOn"  },
      { "deltaTime": 239, "channel": 0, "type": "channel", "subtype": "noteOff", "noteNumber": 47, "velocity": 0  },
      { "deltaTime": 1, "channel": 0, "type": "channel", "noteNumber": 52, "velocity": 64, "subtype": "noteOn"  },
      { "deltaTime": 239, "channel": 0, "type": "channel", "subtype": "noteOff", "noteNumber": 52, "velocity": 0  },
      { "deltaTime": 1, "channel": 0, "type": "channel", "noteNumber": 40, "velocity": 64, "subtype": "noteOn"  },
      { "deltaTime": 239, "channel": 0, "type": "channel", "subtype": "noteOff", "noteNumber": 40, "velocity": 0  },
      { "deltaTime": 1, "channel": 0, "type": "channel", "noteNumber": 52, "velocity": 64, "subtype": "noteOn"  },
      { "deltaTime": 239, "channel": 0, "type": "channel", "subtype": "noteOff", "noteNumber": 52, "velocity": 0  },
      { "deltaTime": 1, "channel": 0, "type": "channel", "noteNumber": 40, "velocity": 64, "subtype": "noteOn"  },
      { "deltaTime": 239, "channel": 0, "type": "channel", "subtype": "noteOff", "noteNumber": 40, "velocity": 0  },
      { "deltaTime": 1, "channel": 0, "type": "channel", "noteNumber": 40, "velocity": 64, "subtype": "noteOn"  },
      { "deltaTime": 239, "channel": 0, "type": "channel", "subtype": "noteOff", "noteNumber": 40, "velocity": 0  },
      { "deltaTime": 1, "channel": 0, "type": "channel", "noteNumber": 50, "velocity": 64, "subtype": "noteOn"  },
      { "deltaTime": 239, "channel": 0, "type": "channel", "subtype": "noteOff", "noteNumber": 50, "velocity": 0  },
      { "deltaTime": 241, "channel": 0, "type": "channel", "noteNumber": 40, "velocity": 64, "subtype": "noteOn"  },
      { "deltaTime": 239, "channel": 0, "type": "channel", "subtype": "noteOff", "noteNumber": 40, "velocity": 0  },
      { "deltaTime": 1, "channel": 0, "type": "channel", "noteNumber": 49, "velocity": 64, "subtype": "noteOn"  },
      { "deltaTime": 239, "channel": 0, "type": "channel", "subtype": "noteOff", "noteNumber": 49, "velocity": 0  },
      { "deltaTime": 1, "channel": 0, "type": "channel", "noteNumber": 40, "velocity": 64, "subtype": "noteOn"  },
      { "deltaTime": 239, "channel": 0, "type": "channel", "subtype": "noteOff", "noteNumber": 40, "velocity": 0  },
      { "deltaTime": 1, "channel": 0, "type": "channel", "noteNumber": 40, "velocity": 64, "subtype": "noteOn"  },
      { "deltaTime": 239, "channel": 0, "type": "channel", "subtype": "noteOff", "noteNumber": 40, "velocity": 0  },
      { "deltaTime": 1, "channel": 0, "type": "channel", "noteNumber": 47, "velocity": 64, "subtype": "noteOn"  },
      { "deltaTime": 239, "channel": 0, "type": "channel", "subtype": "noteOff", "noteNumber": 47, "velocity": 0  },
      { "deltaTime": 241, "channel": 0, "type": "channel", "noteNumber": 40, "velocity": 64, "subtype": "noteOn"  },
      { "deltaTime": 239, "channel": 0, "type": "channel", "subtype": "noteOff", "noteNumber": 40, "velocity": 0  },
      { "deltaTime": 1, "channel": 0, "type": "channel", "noteNumber": 52, "velocity": 64, "subtype": "noteOn"  },
      { "deltaTime": 239, "channel": 0, "type": "channel", "subtype": "noteOff", "noteNumber": 52, "velocity": 0  },
      { "deltaTime": 1, "channel": 0, "type": "channel", "noteNumber": 40, "velocity": 64, "subtype": "noteOn"  },
      { "deltaTime": 239, "channel": 0, "type": "channel", "subtype": "noteOff", "noteNumber": 40, "velocity": 0  },
      { "deltaTime": 1, "channel": 0, "type": "channel", "noteNumber": 40, "velocity": 64, "subtype": "noteOn"  },
      { "deltaTime": 239, "channel": 0, "type": "channel", "subtype": "noteOff", "noteNumber": 40, "velocity": 0  },
      { "deltaTime": 1, "channel": 0, "type": "channel", "noteNumber": 50, "velocity": 64, "subtype": "noteOn"  },
      { "deltaTime": 239, "channel": 0, "type": "channel", "subtype": "noteOff", "noteNumber": 50, "velocity": 0  },
      { "deltaTime": 241, "channel": 0, "type": "channel", "noteNumber": 40, "velocity": 64, "subtype": "noteOn"  },
      { "deltaTime": 239, "channel": 0, "type": "channel", "subtype": "noteOff", "noteNumber": 40, "velocity": 0  },
      { "deltaTime": 1, "channel": 0, "type": "channel", "noteNumber": 49, "velocity": 64, "subtype": "noteOn"  },
      { "deltaTime": 239, "channel": 0, "type": "channel", "subtype": "noteOff", "noteNumber": 49, "velocity": 0  },
      { "deltaTime": 1, "channel": 0, "type": "channel", "noteNumber": 40, "velocity": 64, "subtype": "noteOn"  },
      { "deltaTime": 239, "channel": 0, "type": "channel", "subtype": "noteOff", "noteNumber": 40, "velocity": 0  },
      { "deltaTime": 1, "channel": 0, "type": "channel", "noteNumber": 40, "velocity": 64, "subtype": "noteOn"  },
      { "deltaTime": 239, "channel": 0, "type": "channel", "subtype": "noteOff", "noteNumber": 40, "velocity": 0  },
      { "deltaTime": 1, "channel": 0, "type": "channel", "noteNumber": 47, "velocity": 64, "subtype": "noteOn"  },
      { "deltaTime": 239, "channel": 0, "type": "channel", "subtype": "noteOff", "noteNumber": 47, "velocity": 0  },
      { "deltaTime": 241, "channel": 0, "type": "channel", "noteNumber": 40, "velocity": 64, "subtype": "noteOn"  },
      { "deltaTime": 239, "channel": 0, "type": "channel", "subtype": "noteOff", "noteNumber": 40, "velocity": 0  },
      { "deltaTime": 1, "channel": 0, "type": "channel", "noteNumber": 45, "velocity": 64, "subtype": "noteOn"  },
      { "deltaTime": 239, "channel": 0, "type": "channel", "subtype": "noteOff", "noteNumber": 45, "velocity": 0  },
      { "deltaTime": 1, "channel": 0, "type": "channel", "noteNumber": 47, "velocity": 64, "subtype": "noteOn"  },
      { "deltaTime": 239, "channel": 0, "type": "channel", "subtype": "noteOff", "noteNumber": 47, "velocity": 0  },
      { "deltaTime": 1, "channel": 0, "type": "channel", "noteNumber": 52, "velocity": 64, "subtype": "noteOn"  },
      { "deltaTime": 239, "channel": 0, "type": "channel", "subtype": "noteOff", "noteNumber": 52, "velocity": 0  },
      { "deltaTime": 1, "channel": 0, "type": "channel", "noteNumber": 40, "velocity": 64, "subtype": "noteOn"  },
      { "deltaTime": 239, "channel": 0, "type": "channel", "subtype": "noteOff", "noteNumber": 40, "velocity": 0  },
      { "deltaTime": 1, "channel": 0, "type": "channel", "noteNumber": 52, "velocity": 64, "subtype": "noteOn"  },
      { "deltaTime": 239, "channel": 0, "type": "channel", "subtype": "noteOff", "noteNumber": 52, "velocity": 0  },
      { "deltaTime": 1, "channel": 0, "type": "channel", "noteNumber": 40, "velocity": 64, "subtype": "noteOn"  },
      { "deltaTime": 239, "channel": 0, "type": "channel", "subtype": "noteOff", "noteNumber": 40, "velocity": 0  },
      { "deltaTime": 1, "channel": 0, "type": "channel", "noteNumber": 40, "velocity": 64, "subtype": "noteOn"  },
      { "deltaTime": 239, "channel": 0, "type": "channel", "subtype": "noteOff", "noteNumber": 40, "velocity": 0  },
      { "deltaTime": 1, "channel": 0, "type": "channel", "noteNumber": 50, "velocity": 64, "subtype": "noteOn"  },
      { "deltaTime": 239, "channel": 0, "type": "channel", "subtype": "noteOff", "noteNumber": 50, "velocity": 0  },
      { "deltaTime": 241, "channel": 0, "type": "channel", "noteNumber": 40, "velocity": 64, "subtype": "noteOn"  },
      { "deltaTime": 239, "channel": 0, "type": "channel", "subtype": "noteOff", "noteNumber": 40, "velocity": 0  },
      { "deltaTime": 1, "channel": 0, "type": "channel", "noteNumber": 49, "velocity": 64, "subtype": "noteOn"  },
      { "deltaTime": 239, "channel": 0, "type": "channel", "subtype": "noteOff", "noteNumber": 49, "velocity": 0  },
      { "deltaTime": 1, "channel": 0, "type": "channel", "noteNumber": 40, "velocity": 64, "subtype": "noteOn"  },
      { "deltaTime": 239, "channel": 0, "type": "channel", "subtype": "noteOff", "noteNumber": 40, "velocity": 0  },
      { "deltaTime": 1, "channel": 0, "type": "channel", "noteNumber": 40, "velocity": 64, "subtype": "noteOn"  },
      { "deltaTime": 239, "channel": 0, "type": "channel", "subtype": "noteOff", "noteNumber": 40, "velocity": 0  },
      { "deltaTime": 1, "channel": 0, "type": "channel", "noteNumber": 47, "velocity": 64, "subtype": "noteOn"  },
      { "deltaTime": 239, "channel": 0, "type": "channel", "subtype": "noteOff", "noteNumber": 47, "velocity": 0  },
      { "deltaTime": 241, "channel": 0, "type": "channel", "noteNumber": 40, "velocity": 64, "subtype": "noteOn"  },
      { "deltaTime": 239, "channel": 0, "type": "channel", "subtype": "noteOff", "noteNumber": 40, "velocity": 0  },
      { "deltaTime": 1, "channel": 0, "type": "channel", "noteNumber": 47, "velocity": 64, "subtype": "noteOn"  },
      { "deltaTime": 239, "channel": 0, "type": "channel", "subtype": "noteOff", "noteNumber": 47, "velocity": 0  },
      { "deltaTime": 1, "channel": 0, "type": "channel", "noteNumber": 47, "velocity": 64, "subtype": "noteOn"  },
      { "deltaTime": 239, "channel": 0, "type": "channel", "subtype": "noteOff", "noteNumber": 47, "velocity": 0  },
      { "deltaTime": 1, "channel": 0, "type": "channel", "noteNumber": 40, "velocity": 64, "subtype": "noteOn"  },
      { "deltaTime": 239, "channel": 0, "type": "channel", "subtype": "noteOff", "noteNumber": 40, "velocity": 0  },
      { "deltaTime": 1, "channel": 0, "type": "channel", "noteNumber": 46, "velocity": 64, "subtype": "noteOn"  },
      { "deltaTime": 239, "channel": 0, "type": "channel", "subtype": "noteOff", "noteNumber": 46, "velocity": 0  },
      { "deltaTime": 1, "channel": 0, "type": "channel", "noteNumber": 46, "velocity": 64, "subtype": "noteOn"  },
      { "deltaTime": 239, "channel": 0, "type": "channel", "subtype": "noteOff", "noteNumber": 46, "velocity": 0  },
      { "deltaTime": 1, "channel": 0, "type": "channel", "noteNumber": 40, "velocity": 64, "subtype": "noteOn"  },
      { "deltaTime": 239, "channel": 0, "type": "channel", "subtype": "noteOff", "noteNumber": 40, "velocity": 0  },
      { "deltaTime": 1, "channel": 0, "type": "channel", "noteNumber": 47, "velocity": 64, "subtype": "noteOn"  },
      { "deltaTime": 239, "channel": 0, "type": "channel", "subtype": "noteOff", "noteNumber": 47, "velocity": 0  },
      { "deltaTime": 1, "channel": 0, "type": "channel", "noteNumber": 47, "velocity": 64, "subtype": "noteOn"  },
      { "deltaTime": 239, "channel": 0, "type": "channel", "subtype": "noteOff", "noteNumber": 47, "velocity": 0  },
      { "deltaTime": 1, "channel": 0, "type": "channel", "noteNumber": 40, "velocity": 64, "subtype": "noteOn"  },
      { "deltaTime": 239, "channel": 0, "type": "channel", "subtype": "noteOff", "noteNumber": 40, "velocity": 0  },
      { "deltaTime": 1, "channel": 0, "type": "channel", "noteNumber": 52, "velocity": 64, "subtype": "noteOn"  },
      { "deltaTime": 239, "channel": 0, "type": "channel", "subtype": "noteOff", "noteNumber": 52, "velocity": 0  },
      { "deltaTime": 1, "channel": 0, "type": "channel", "noteNumber": 40, "velocity": 64, "subtype": "noteOn"  },
      { "deltaTime": 239, "channel": 0, "type": "channel", "subtype": "noteOff", "noteNumber": 40, "velocity": 0  },
      { "deltaTime": 1, "channel": 0, "type": "channel", "noteNumber": 50, "velocity": 64, "subtype": "noteOn"  },
      { "deltaTime": 239, "channel": 0, "type": "channel", "subtype": "noteOff", "noteNumber": 50, "velocity": 0  },
      { "deltaTime": 1, "channel": 0, "type": "channel", "noteNumber": 40, "velocity": 64, "subtype": "noteOn"  },
      { "deltaTime": 239, "channel": 0, "type": "channel", "subtype": "noteOff", "noteNumber": 40, "velocity": 0  },
      { "deltaTime": 1, "channel": 0, "type": "channel", "noteNumber": 45, "velocity": 64, "subtype": "noteOn"  },
      { "deltaTime": 239, "channel": 0, "type": "channel", "subtype": "noteOff", "noteNumber": 45, "velocity": 0  },
      { "deltaTime": 1, "channel": 0, "type": "channel", "noteNumber": 44, "velocity": 64, "subtype": "noteOn"  },
      { "deltaTime": 239, "channel": 0, "type": "channel", "subtype": "noteOff", "noteNumber": 44, "velocity": 0  },
      { "deltaTime": 1, "channel": 0, "type": "channel", "noteNumber": 40, "velocity": 64, "subtype": "noteOn"  },
      { "deltaTime": 239, "channel": 0, "type": "channel", "subtype": "noteOff", "noteNumber": 40, "velocity": 0  },
      { "deltaTime": 1, "channel": 0, "type": "channel", "noteNumber": 52, "velocity": 64, "subtype": "noteOn"  },
      { "deltaTime": 239, "channel": 0, "type": "channel", "subtype": "noteOff", "noteNumber": 52, "velocity": 0  },
      { "deltaTime": 1, "channel": 0, "type": "channel", "noteNumber": 52, "velocity": 64, "subtype": "noteOn"  },
      { "deltaTime": 239, "channel": 0, "type": "channel", "subtype": "noteOff", "noteNumber": 52, "velocity": 0  },
      { "deltaTime": 1, "channel": 0, "type": "channel", "noteNumber": 40, "velocity": 64, "subtype": "noteOn"  },
      { "deltaTime": 239, "channel": 0, "type": "channel", "subtype": "noteOff", "noteNumber": 40, "velocity": 0  },
      { "deltaTime": 1, "channel": 0, "type": "channel", "noteNumber": 44, "velocity": 64, "subtype": "noteOn"  },
      { "deltaTime": 239, "channel": 0, "type": "channel", "subtype": "noteOff", "noteNumber": 44, "velocity": 0  },
      { "deltaTime": 1, "channel": 0, "type": "channel", "noteNumber": 45, "velocity": 64, "subtype": "noteOn"  },
      { "deltaTime": 239, "channel": 0, "type": "channel", "subtype": "noteOff", "noteNumber": 45, "velocity": 0  },
      { "deltaTime": 1, "channel": 0, "type": "channel", "noteNumber": 40, "velocity": 64, "subtype": "noteOn"  },
      { "deltaTime": 239, "channel": 0, "type": "channel", "subtype": "noteOff", "noteNumber": 40, "velocity": 0  },
      { "deltaTime": 1, "channel": 0, "type": "channel", "noteNumber": 46, "velocity": 64, "subtype": "noteOn"  },
      { "deltaTime": 239, "channel": 0, "type": "channel", "subtype": "noteOff", "noteNumber": 46, "velocity": 0  },
      { "deltaTime": 1, "channel": 0, "type": "channel", "noteNumber": 40, "velocity": 64, "subtype": "noteOn"  },
      { "deltaTime": 239, "channel": 0, "type": "channel", "subtype": "noteOff", "noteNumber": 40, "velocity": 0  },
      { "deltaTime": 1, "channel": 0, "type": "channel", "noteNumber": 47, "velocity": 64, "subtype": "noteOn"  },
      { "deltaTime": 239, "channel": 0, "type": "channel", "subtype": "noteOff", "noteNumber": 47, "velocity": 0  },
      { "deltaTime": 1, "channel": 0, "type": "channel", "noteNumber": 50, "velocity": 64, "subtype": "noteOn"  },
      { "deltaTime": 239, "channel": 0, "type": "channel", "subtype": "noteOff", "noteNumber": 50, "velocity": 0  },
      { "deltaTime": 1, "channel": 0, "type": "channel", "noteNumber": 47, "velocity": 64, "subtype": "noteOn"  },
      { "deltaTime": 239, "channel": 0, "type": "channel", "subtype": "noteOff", "noteNumber": 47, "velocity": 0  },
      { "deltaTime": 1, "channel": 0, "type": "channel", "noteNumber": 40, "velocity": 64, "subtype": "noteOn"  },
      { "deltaTime": 239, "channel": 0, "type": "channel", "subtype": "noteOff", "noteNumber": 40, "velocity": 0  },
      { "deltaTime": 1, "channel": 0, "type": "channel", "noteNumber": 47, "velocity": 64, "subtype": "noteOn"  },
      { "deltaTime": 239, "channel": 0, "type": "channel", "subtype": "noteOff", "noteNumber": 47, "velocity": 0  },
      { "deltaTime": 1, "channel": 0, "type": "channel", "noteNumber": 47, "velocity": 64, "subtype": "noteOn"  },
      { "deltaTime": 239, "channel": 0, "type": "channel", "subtype": "noteOff", "noteNumber": 47, "velocity": 0  },
      { "deltaTime": 1, "channel": 0, "type": "channel", "noteNumber": 40, "velocity": 64, "subtype": "noteOn"  },
      { "deltaTime": 239, "channel": 0, "type": "channel", "subtype": "noteOff", "noteNumber": 40, "velocity": 0  },
      { "deltaTime": 1, "channel": 0, "type": "channel", "noteNumber": 46, "velocity": 64, "subtype": "noteOn"  },
      { "deltaTime": 239, "channel": 0, "type": "channel", "subtype": "noteOff", "noteNumber": 46, "velocity": 0  },
      { "deltaTime": 1, "channel": 0, "type": "channel", "noteNumber": 46, "velocity": 64, "subtype": "noteOn"  },
      { "deltaTime": 239, "channel": 0, "type": "channel", "subtype": "noteOff", "noteNumber": 46, "velocity": 0  },
      { "deltaTime": 1, "channel": 0, "type": "channel", "noteNumber": 40, "velocity": 64, "subtype": "noteOn"  },
      { "deltaTime": 239, "channel": 0, "type": "channel", "subtype": "noteOff", "noteNumber": 40, "velocity": 0  },
      { "deltaTime": 1, "channel": 0, "type": "channel", "noteNumber": 47, "velocity": 64, "subtype": "noteOn"  },
      { "deltaTime": 239, "channel": 0, "type": "channel", "subtype": "noteOff", "noteNumber": 47, "velocity": 0  },
      { "deltaTime": 1, "channel": 0, "type": "channel", "noteNumber": 47, "velocity": 64, "subtype": "noteOn"  },
      { "deltaTime": 239, "channel": 0, "type": "channel", "subtype": "noteOff", "noteNumber": 47, "velocity": 0  },
      { "deltaTime": 1, "channel": 0, "type": "channel", "noteNumber": 40, "velocity": 64, "subtype": "noteOn"  },
      { "deltaTime": 239, "channel": 0, "type": "channel", "subtype": "noteOff", "noteNumber": 40, "velocity": 0  },
      { "deltaTime": 1, "channel": 0, "type": "channel", "noteNumber": 52, "velocity": 64, "subtype": "noteOn"  },
      { "deltaTime": 239, "channel": 0, "type": "channel", "subtype": "noteOff", "noteNumber": 52, "velocity": 0  },
      { "deltaTime": 1, "channel": 0, "type": "channel", "noteNumber": 40, "velocity": 64, "subtype": "noteOn"  },
      { "deltaTime": 239, "channel": 0, "type": "channel", "subtype": "noteOff", "noteNumber": 40, "velocity": 0  },
      { "deltaTime": 1, "channel": 0, "type": "channel", "noteNumber": 50, "velocity": 64, "subtype": "noteOn"  },
      { "deltaTime": 239, "channel": 0, "type": "channel", "subtype": "noteOff", "noteNumber": 50, "velocity": 0  },
      { "deltaTime": 1, "channel": 0, "type": "channel", "noteNumber": 40, "velocity": 64, "subtype": "noteOn"  },
      { "deltaTime": 239, "channel": 0, "type": "channel", "subtype": "noteOff", "noteNumber": 40, "velocity": 0  },
      { "deltaTime": 1, "channel": 0, "type": "channel", "noteNumber": 45, "velocity": 64, "subtype": "noteOn"  },
      { "deltaTime": 239, "channel": 0, "type": "channel", "subtype": "noteOff", "noteNumber": 45, "velocity": 0  },
      { "deltaTime": 1, "channel": 0, "type": "channel", "noteNumber": 44, "velocity": 64, "subtype": "noteOn"  },
      { "deltaTime": 239, "channel": 0, "type": "channel", "subtype": "noteOff", "noteNumber": 44, "velocity": 0  },
      { "deltaTime": 1, "channel": 0, "type": "channel", "noteNumber": 40, "velocity": 64, "subtype": "noteOn"  },
      { "deltaTime": 239, "channel": 0, "type": "channel", "subtype": "noteOff", "noteNumber": 40, "velocity": 0  },
      { "deltaTime": 1, "channel": 0, "type": "channel", "noteNumber": 52, "velocity": 64, "subtype": "noteOn"  },
      { "deltaTime": 239, "channel": 0, "type": "channel", "subtype": "noteOff", "noteNumber": 52, "velocity": 0  },
      { "deltaTime": 1, "channel": 0, "type": "channel", "noteNumber": 52, "velocity": 64, "subtype": "noteOn"  },
      { "deltaTime": 239, "channel": 0, "type": "channel", "subtype": "noteOff", "noteNumber": 52, "velocity": 0  },
      { "deltaTime": 1, "channel": 0, "type": "channel", "noteNumber": 40, "velocity": 64, "subtype": "noteOn"  },
      { "deltaTime": 239, "channel": 0, "type": "channel", "subtype": "noteOff", "noteNumber": 40, "velocity": 0  },
      { "deltaTime": 1, "channel": 0, "type": "channel", "noteNumber": 44, "velocity": 64, "subtype": "noteOn"  },
      { "deltaTime": 239, "channel": 0, "type": "channel", "subtype": "noteOff", "noteNumber": 44, "velocity": 0  },
      { "deltaTime": 1, "channel": 0, "type": "channel", "noteNumber": 45, "velocity": 64, "subtype": "noteOn"  },
      { "deltaTime": 239, "channel": 0, "type": "channel", "subtype": "noteOff", "noteNumber": 45, "velocity": 0  },
      { "deltaTime": 1, "channel": 0, "type": "channel", "noteNumber": 40, "velocity": 64, "subtype": "noteOn"  },
      { "deltaTime": 239, "channel": 0, "type": "channel", "subtype": "noteOff", "noteNumber": 40, "velocity": 0  },
      { "deltaTime": 1, "channel": 0, "type": "channel", "noteNumber": 46, "velocity": 64, "subtype": "noteOn"  },
      { "deltaTime": 239, "channel": 0, "type": "channel", "subtype": "noteOff", "noteNumber": 46, "velocity": 0  },
      { "deltaTime": 1, "channel": 0, "type": "channel", "noteNumber": 40, "velocity": 64, "subtype": "noteOn"  },
      { "deltaTime": 239, "channel": 0, "type": "channel", "subtype": "noteOff", "noteNumber": 40, "velocity": 0  },
      { "deltaTime": 1, "channel": 0, "type": "channel", "noteNumber": 47, "velocity": 64, "subtype": "noteOn"  },
      { "deltaTime": 239, "channel": 0, "type": "channel", "subtype": "noteOff", "noteNumber": 47, "velocity": 0  },
      { "deltaTime": 1, "channel": 0, "type": "channel", "noteNumber": 50, "velocity": 64, "subtype": "noteOn"  },
      { "deltaTime": 239, "channel": 0, "type": "channel", "subtype": "noteOff", "noteNumber": 50, "velocity": 0  },
      { "deltaTime": 1, "channel": 0, "type": "channel", "noteNumber": 47, "velocity": 64, "subtype": "noteOn"  },
      { "deltaTime": 239, "channel": 0, "type": "channel", "subtype": "noteOff", "noteNumber": 47, "velocity": 0  },
      { "deltaTime": 1, "channel": 0, "type": "channel", "noteNumber": 40, "velocity": 64, "subtype": "noteOn"  },
      { "deltaTime": 239, "channel": 0, "type": "channel", "subtype": "noteOff", "noteNumber": 40, "velocity": 0  },
      { "deltaTime": 1, "channel": 0, "type": "channel", "noteNumber": 47, "velocity": 64, "subtype": "noteOn"  },
      { "deltaTime": 239, "channel": 0, "type": "channel", "subtype": "noteOff", "noteNumber": 47, "velocity": 0  },
      { "deltaTime": 1, "channel": 0, "type": "channel", "noteNumber": 47, "velocity": 64, "subtype": "noteOn"  },
      { "deltaTime": 239, "channel": 0, "type": "channel", "subtype": "noteOff", "noteNumber": 47, "velocity": 0  },
      { "deltaTime": 1, "channel": 0, "type": "channel", "noteNumber": 40, "velocity": 64, "subtype": "noteOn"  },
      { "deltaTime": 239, "channel": 0, "type": "channel", "subtype": "noteOff", "noteNumber": 40, "velocity": 0  },
      { "deltaTime": 1, "channel": 0, "type": "channel", "noteNumber": 46, "velocity": 64, "subtype": "noteOn"  },
      { "deltaTime": 239, "channel": 0, "type": "channel", "subtype": "noteOff", "noteNumber": 46, "velocity": 0  },
      { "deltaTime": 1, "channel": 0, "type": "channel", "noteNumber": 46, "velocity": 64, "subtype": "noteOn"  },
      { "deltaTime": 239, "channel": 0, "type": "channel", "subtype": "noteOff", "noteNumber": 46, "velocity": 0  },
      { "deltaTime": 1, "channel": 0, "type": "channel", "noteNumber": 40, "velocity": 64, "subtype": "noteOn"  },
      { "deltaTime": 239, "channel": 0, "type": "channel", "subtype": "noteOff", "noteNumber": 40, "velocity": 0  },
      { "deltaTime": 1, "channel": 0, "type": "channel", "noteNumber": 47, "velocity": 64, "subtype": "noteOn"  },
      { "deltaTime": 239, "channel": 0, "type": "channel", "subtype": "noteOff", "noteNumber": 47, "velocity": 0  },
      { "deltaTime": 1, "channel": 0, "type": "channel", "noteNumber": 47, "velocity": 64, "subtype": "noteOn"  },
      { "deltaTime": 239, "channel": 0, "type": "channel", "subtype": "noteOff", "noteNumber": 47, "velocity": 0  },
      { "deltaTime": 1, "channel": 0, "type": "channel", "noteNumber": 40, "velocity": 64, "subtype": "noteOn"  },
      { "deltaTime": 239, "channel": 0, "type": "channel", "subtype": "noteOff", "noteNumber": 40, "velocity": 0  },
      { "deltaTime": 1, "channel": 0, "type": "channel", "noteNumber": 52, "velocity": 64, "subtype": "noteOn"  },
      { "deltaTime": 239, "channel": 0, "type": "channel", "subtype": "noteOff", "noteNumber": 52, "velocity": 0  },
      { "deltaTime": 1, "channel": 0, "type": "channel", "noteNumber": 40, "velocity": 64, "subtype": "noteOn"  },
      { "deltaTime": 239, "channel": 0, "type": "channel", "subtype": "noteOff", "noteNumber": 40, "velocity": 0  },
      { "deltaTime": 1, "channel": 0, "type": "channel", "noteNumber": 50, "velocity": 64, "subtype": "noteOn"  },
      { "deltaTime": 239, "channel": 0, "type": "channel", "subtype": "noteOff", "noteNumber": 50, "velocity": 0  },
      { "deltaTime": 1, "channel": 0, "type": "channel", "noteNumber": 40, "velocity": 64, "subtype": "noteOn"  },
      { "deltaTime": 239, "channel": 0, "type": "channel", "subtype": "noteOff", "noteNumber": 40, "velocity": 0  },
      { "deltaTime": 1, "channel": 0, "type": "channel", "noteNumber": 45, "velocity": 64, "subtype": "noteOn"  },
      { "deltaTime": 239, "channel": 0, "type": "channel", "subtype": "noteOff", "noteNumber": 45, "velocity": 0  },
      { "deltaTime": 1, "channel": 0, "type": "channel", "noteNumber": 44, "velocity": 64, "subtype": "noteOn"  },
      { "deltaTime": 239, "channel": 0, "type": "channel", "subtype": "noteOff", "noteNumber": 44, "velocity": 0  },
      { "deltaTime": 1, "channel": 0, "type": "channel", "noteNumber": 40, "velocity": 64, "subtype": "noteOn"  },
      { "deltaTime": 239, "channel": 0, "type": "channel", "subtype": "noteOff", "noteNumber": 40, "velocity": 0  },
      { "deltaTime": 1, "channel": 0, "type": "channel", "noteNumber": 52, "velocity": 64, "subtype": "noteOn"  },
      { "deltaTime": 239, "channel": 0, "type": "channel", "subtype": "noteOff", "noteNumber": 52, "velocity": 0  },
      { "deltaTime": 1, "channel": 0, "type": "channel", "noteNumber": 52, "velocity": 64, "subtype": "noteOn"  },
      { "deltaTime": 239, "channel": 0, "type": "channel", "subtype": "noteOff", "noteNumber": 52, "velocity": 0  },
      { "deltaTime": 1, "channel": 0, "type": "channel", "noteNumber": 40, "velocity": 64, "subtype": "noteOn"  },
      { "deltaTime": 239, "channel": 0, "type": "channel", "subtype": "noteOff", "noteNumber": 40, "velocity": 0  },
      { "deltaTime": 1, "channel": 0, "type": "channel", "noteNumber": 44, "velocity": 64, "subtype": "noteOn"  },
      { "deltaTime": 239, "channel": 0, "type": "channel", "subtype": "noteOff", "noteNumber": 44, "velocity": 0  },
      { "deltaTime": 1, "channel": 0, "type": "channel", "noteNumber": 45, "velocity": 64, "subtype": "noteOn"  },
      { "deltaTime": 239, "channel": 0, "type": "channel", "subtype": "noteOff", "noteNumber": 45, "velocity": 0  },
      { "deltaTime": 1, "channel": 0, "type": "channel", "noteNumber": 40, "velocity": 64, "subtype": "noteOn"  },
      { "deltaTime": 239, "channel": 0, "type": "channel", "subtype": "noteOff", "noteNumber": 40, "velocity": 0  },
      { "deltaTime": 1, "channel": 0, "type": "channel", "noteNumber": 46, "velocity": 64, "subtype": "noteOn"  },
      { "deltaTime": 239, "channel": 0, "type": "channel", "subtype": "noteOff", "noteNumber": 46, "velocity": 0  },
      { "deltaTime": 1, "channel": 0, "type": "channel", "noteNumber": 40, "velocity": 64, "subtype": "noteOn"  },
      { "deltaTime": 239, "channel": 0, "type": "channel", "subtype": "noteOff", "noteNumber": 40, "velocity": 0  },
      { "deltaTime": 1, "channel": 0, "type": "channel", "noteNumber": 47, "velocity": 64, "subtype": "noteOn"  },
      { "deltaTime": 239, "channel": 0, "type": "channel", "subtype": "noteOff", "noteNumber": 47, "velocity": 0  },
      { "deltaTime": 1, "channel": 0, "type": "channel", "noteNumber": 50, "velocity": 64, "subtype": "noteOn"  },
      { "deltaTime": 239, "channel": 0, "type": "channel", "subtype": "noteOff", "noteNumber": 50, "velocity": 0  },
      { "deltaTime": 1, "channel": 0, "type": "channel", "noteNumber": 47, "velocity": 64, "subtype": "noteOn"  },
      { "deltaTime": 239, "channel": 0, "type": "channel", "subtype": "noteOff", "noteNumber": 47, "velocity": 0  },
      { "deltaTime": 1, "channel": 0, "type": "channel", "noteNumber": 40, "velocity": 64, "subtype": "noteOn"  },
      { "deltaTime": 239, "channel": 0, "type": "channel", "subtype": "noteOff", "noteNumber": 40, "velocity": 0  },
      { "deltaTime": 1, "channel": 0, "type": "channel", "noteNumber": 47, "velocity": 64, "subtype": "noteOn"  },
      { "deltaTime": 239, "channel": 0, "type": "channel", "subtype": "noteOff", "noteNumber": 47, "velocity": 0  },
      { "deltaTime": 1, "channel": 0, "type": "channel", "noteNumber": 47, "velocity": 64, "subtype": "noteOn"  },
      { "deltaTime": 239, "channel": 0, "type": "channel", "subtype": "noteOff", "noteNumber": 47, "velocity": 0  },
      { "deltaTime": 1, "channel": 0, "type": "channel", "noteNumber": 40, "velocity": 64, "subtype": "noteOn"  },
      { "deltaTime": 239, "channel": 0, "type": "channel", "subtype": "noteOff", "noteNumber": 40, "velocity": 0  },
      { "deltaTime": 1, "channel": 0, "type": "channel", "noteNumber": 46, "velocity": 64, "subtype": "noteOn"  },
      { "deltaTime": 239, "channel": 0, "type": "channel", "subtype": "noteOff", "noteNumber": 46, "velocity": 0  },
      { "deltaTime": 1, "channel": 0, "type": "channel", "noteNumber": 46, "velocity": 64, "subtype": "noteOn"  },
      { "deltaTime": 239, "channel": 0, "type": "channel", "subtype": "noteOff", "noteNumber": 46, "velocity": 0  },
      { "deltaTime": 1, "channel": 0, "type": "channel", "noteNumber": 40, "velocity": 64, "subtype": "noteOn"  },
      { "deltaTime": 239, "channel": 0, "type": "channel", "subtype": "noteOff", "noteNumber": 40, "velocity": 0  },
      { "deltaTime": 1, "channel": 0, "type": "channel", "noteNumber": 47, "velocity": 64, "subtype": "noteOn"  },
      { "deltaTime": 239, "channel": 0, "type": "channel", "subtype": "noteOff", "noteNumber": 47, "velocity": 0  },
      { "deltaTime": 1, "channel": 0, "type": "channel", "noteNumber": 47, "velocity": 64, "subtype": "noteOn"  },
      { "deltaTime": 239, "channel": 0, "type": "channel", "subtype": "noteOff", "noteNumber": 47, "velocity": 0  },
      { "deltaTime": 1, "channel": 0, "type": "channel", "noteNumber": 40, "velocity": 64, "subtype": "noteOn"  },
      { "deltaTime": 239, "channel": 0, "type": "channel", "subtype": "noteOff", "noteNumber": 40, "velocity": 0  },
      { "deltaTime": 1, "channel": 0, "type": "channel", "noteNumber": 52, "velocity": 64, "subtype": "noteOn"  },
      { "deltaTime": 239, "channel": 0, "type": "channel", "subtype": "noteOff", "noteNumber": 52, "velocity": 0  },
      { "deltaTime": 1, "channel": 0, "type": "channel", "noteNumber": 40, "velocity": 64, "subtype": "noteOn"  },
      { "deltaTime": 239, "channel": 0, "type": "channel", "subtype": "noteOff", "noteNumber": 40, "velocity": 0  },
      { "deltaTime": 1, "channel": 0, "type": "channel", "noteNumber": 50, "velocity": 64, "subtype": "noteOn"  },
      { "deltaTime": 239, "channel": 0, "type": "channel", "subtype": "noteOff", "noteNumber": 50, "velocity": 0  },
      { "deltaTime": 1, "channel": 0, "type": "channel", "noteNumber": 40, "velocity": 64, "subtype": "noteOn"  },
      { "deltaTime": 239, "channel": 0, "type": "channel", "subtype": "noteOff", "noteNumber": 40, "velocity": 0  },
      { "deltaTime": 1, "channel": 0, "type": "channel", "noteNumber": 45, "velocity": 64, "subtype": "noteOn"  },
      { "deltaTime": 239, "channel": 0, "type": "channel", "subtype": "noteOff", "noteNumber": 45, "velocity": 0  },
      { "deltaTime": 1, "channel": 0, "type": "channel", "noteNumber": 44, "velocity": 64, "subtype": "noteOn"  },
      { "deltaTime": 239, "channel": 0, "type": "channel", "subtype": "noteOff", "noteNumber": 44, "velocity": 0  },
      { "deltaTime": 1, "channel": 0, "type": "channel", "noteNumber": 40, "velocity": 64, "subtype": "noteOn"  },
      { "deltaTime": 239, "channel": 0, "type": "channel", "subtype": "noteOff", "noteNumber": 40, "velocity": 0  },
      { "deltaTime": 1, "channel": 0, "type": "channel", "noteNumber": 52, "velocity": 64, "subtype": "noteOn"  },
      { "deltaTime": 239, "channel": 0, "type": "channel", "subtype": "noteOff", "noteNumber": 52, "velocity": 0  },
      { "deltaTime": 1, "channel": 0, "type": "channel", "noteNumber": 52, "velocity": 64, "subtype": "noteOn"  },
      { "deltaTime": 239, "channel": 0, "type": "channel", "subtype": "noteOff", "noteNumber": 52, "velocity": 0  },
      { "deltaTime": 1, "channel": 0, "type": "channel", "noteNumber": 40, "velocity": 64, "subtype": "noteOn"  },
      { "deltaTime": 239, "channel": 0, "type": "channel", "subtype": "noteOff", "noteNumber": 40, "velocity": 0  },
      { "deltaTime": 1, "channel": 0, "type": "channel", "noteNumber": 44, "velocity": 64, "subtype": "noteOn"  },
      { "deltaTime": 239, "channel": 0, "type": "channel", "subtype": "noteOff", "noteNumber": 44, "velocity": 0  },
      { "deltaTime": 1, "channel": 0, "type": "channel", "noteNumber": 45, "velocity": 64, "subtype": "noteOn"  },
      { "deltaTime": 239, "channel": 0, "type": "channel", "subtype": "noteOff", "noteNumber": 45, "velocity": 0  },
      { "deltaTime": 1, "channel": 0, "type": "channel", "noteNumber": 40, "velocity": 64, "subtype": "noteOn"  },
      { "deltaTime": 239, "channel": 0, "type": "channel", "subtype": "noteOff", "noteNumber": 40, "velocity": 0  },
      { "deltaTime": 1, "channel": 0, "type": "channel", "noteNumber": 46, "velocity": 64, "subtype": "noteOn"  },
      { "deltaTime": 239, "channel": 0, "type": "channel", "subtype": "noteOff", "noteNumber": 46, "velocity": 0  },
      { "deltaTime": 1, "channel": 0, "type": "channel", "noteNumber": 40, "velocity": 64, "subtype": "noteOn"  },
      { "deltaTime": 239, "channel": 0, "type": "channel", "subtype": "noteOff", "noteNumber": 40, "velocity": 0  },
      { "deltaTime": 1, "channel": 0, "type": "channel", "noteNumber": 47, "velocity": 64, "subtype": "noteOn"  },
      { "deltaTime": 239, "channel": 0, "type": "channel", "subtype": "noteOff", "noteNumber": 47, "velocity": 0  },
      { "deltaTime": 1, "channel": 0, "type": "channel", "noteNumber": 50, "velocity": 64, "subtype": "noteOn"  },
      { "deltaTime": 239, "channel": 0, "type": "channel", "subtype": "noteOff", "noteNumber": 50, "velocity": 0  },
      { "deltaTime": 241, "channel": 0, "type": "channel", "noteNumber": 40, "velocity": 64, "subtype": "noteOn"  },
      { "deltaTime": 239, "channel": 0, "type": "channel", "subtype": "noteOff", "noteNumber": 40, "velocity": 0  },
      { "deltaTime": 1, "channel": 0, "type": "channel", "noteNumber": 52, "velocity": 64, "subtype": "noteOn"  },
      { "deltaTime": 239, "channel": 0, "type": "channel", "subtype": "noteOff", "noteNumber": 52, "velocity": 0  },
      { "deltaTime": 1, "channel": 0, "type": "channel", "noteNumber": 40, "velocity": 64, "subtype": "noteOn"  },
      { "deltaTime": 239, "channel": 0, "type": "channel", "subtype": "noteOff", "noteNumber": 40, "velocity": 0  },
      { "deltaTime": 1, "channel": 0, "type": "channel", "noteNumber": 40, "velocity": 64, "subtype": "noteOn"  },
      { "deltaTime": 239, "channel": 0, "type": "channel", "subtype": "noteOff", "noteNumber": 40, "velocity": 0  },
      { "deltaTime": 1, "channel": 0, "type": "channel", "noteNumber": 50, "velocity": 64, "subtype": "noteOn"  },
      { "deltaTime": 239, "channel": 0, "type": "channel", "subtype": "noteOff", "noteNumber": 50, "velocity": 0  },
      { "deltaTime": 1, "channel": 0, "type": "channel", "noteNumber": 40, "velocity": 64, "subtype": "noteOn"  },
      { "deltaTime": 239, "channel": 0, "type": "channel", "subtype": "noteOff", "noteNumber": 40, "velocity": 0  },
      { "deltaTime": 1, "channel": 0, "type": "channel", "noteNumber": 40, "velocity": 64, "subtype": "noteOn"  },
      { "deltaTime": 239, "channel": 0, "type": "channel", "subtype": "noteOff", "noteNumber": 40, "velocity": 0  },
      { "deltaTime": 1, "channel": 0, "type": "channel", "noteNumber": 52, "velocity": 64, "subtype": "noteOn"  },
      { "deltaTime": 239, "channel": 0, "type": "channel", "subtype": "noteOff", "noteNumber": 52, "velocity": 0  },
      { "deltaTime": 1, "channel": 0, "type": "channel", "noteNumber": 40, "velocity": 64, "subtype": "noteOn"  },
      { "deltaTime": 239, "channel": 0, "type": "channel", "subtype": "noteOff", "noteNumber": 40, "velocity": 0  },
      { "deltaTime": 1, "channel": 0, "type": "channel", "noteNumber": 40, "velocity": 64, "subtype": "noteOn"  },
      { "deltaTime": 239, "channel": 0, "type": "channel", "subtype": "noteOff", "noteNumber": 40, "velocity": 0  },
      { "deltaTime": 1, "channel": 0, "type": "channel", "noteNumber": 47, "velocity": 64, "subtype": "noteOn"  },
      { "deltaTime": 239, "channel": 0, "type": "channel", "subtype": "noteOff", "noteNumber": 47, "velocity": 0  },
      { "deltaTime": 1, "channel": 0, "type": "channel", "noteNumber": 40, "velocity": 64, "subtype": "noteOn"  },
      { "deltaTime": 239, "channel": 0, "type": "channel", "subtype": "noteOff", "noteNumber": 40, "velocity": 0  },
      { "deltaTime": 1, "channel": 0, "type": "channel", "noteNumber": 50, "velocity": 64, "subtype": "noteOn"  },
      { "deltaTime": 239, "channel": 0, "type": "channel", "subtype": "noteOff", "noteNumber": 50, "velocity": 0  },
      { "deltaTime": 1, "channel": 0, "type": "channel", "noteNumber": 40, "velocity": 64, "subtype": "noteOn"  },
      { "deltaTime": 239, "channel": 0, "type": "channel", "subtype": "noteOff", "noteNumber": 40, "velocity": 0  },
      { "deltaTime": 1, "channel": 0, "type": "channel", "noteNumber": 49, "velocity": 64, "subtype": "noteOn"  },
      { "deltaTime": 239, "channel": 0, "type": "channel", "subtype": "noteOff", "noteNumber": 49, "velocity": 0  },
      { "deltaTime": 1, "channel": 0, "type": "channel", "noteNumber": 50, "velocity": 64, "subtype": "noteOn"  },
      { "deltaTime": 239, "channel": 0, "type": "channel", "subtype": "noteOff", "noteNumber": 50, "velocity": 0  },
      { "deltaTime": 1, "channel": 0, "type": "channel", "noteNumber": 40, "velocity": 64, "subtype": "noteOn"  },
      { "deltaTime": 239, "channel": 0, "type": "channel", "subtype": "noteOff", "noteNumber": 40, "velocity": 0  },
      { "deltaTime": 1, "channel": 0, "type": "channel", "noteNumber": 52, "velocity": 64, "subtype": "noteOn"  },
      { "deltaTime": 239, "channel": 0, "type": "channel", "subtype": "noteOff", "noteNumber": 52, "velocity": 0  },
      { "deltaTime": 1, "channel": 0, "type": "channel", "noteNumber": 40, "velocity": 64, "subtype": "noteOn"  },
      { "deltaTime": 239, "channel": 0, "type": "channel", "subtype": "noteOff", "noteNumber": 40, "velocity": 0  },
      { "deltaTime": 1, "channel": 0, "type": "channel", "noteNumber": 40, "velocity": 64, "subtype": "noteOn"  },
      { "deltaTime": 239, "channel": 0, "type": "channel", "subtype": "noteOff", "noteNumber": 40, "velocity": 0  },
      { "deltaTime": 1, "channel": 0, "type": "channel", "noteNumber": 50, "velocity": 64, "subtype": "noteOn"  },
      { "deltaTime": 239, "channel": 0, "type": "channel", "subtype": "noteOff", "noteNumber": 50, "velocity": 0  },
      { "deltaTime": 1, "channel": 0, "type": "channel", "noteNumber": 40, "velocity": 64, "subtype": "noteOn"  },
      { "deltaTime": 239, "channel": 0, "type": "channel", "subtype": "noteOff", "noteNumber": 40, "velocity": 0  },
      { "deltaTime": 1, "channel": 0, "type": "channel", "noteNumber": 40, "velocity": 64, "subtype": "noteOn"  },
      { "deltaTime": 239, "channel": 0, "type": "channel", "subtype": "noteOff", "noteNumber": 40, "velocity": 0  },
      { "deltaTime": 1, "channel": 0, "type": "channel", "noteNumber": 52, "velocity": 64, "subtype": "noteOn"  },
      { "deltaTime": 239, "channel": 0, "type": "channel", "subtype": "noteOff", "noteNumber": 52, "velocity": 0  },
      { "deltaTime": 1, "channel": 0, "type": "channel", "noteNumber": 40, "velocity": 64, "subtype": "noteOn"  },
      { "deltaTime": 239, "channel": 0, "type": "channel", "subtype": "noteOff", "noteNumber": 40, "velocity": 0  },
      { "deltaTime": 1, "channel": 0, "type": "channel", "noteNumber": 40, "velocity": 64, "subtype": "noteOn"  },
      { "deltaTime": 239, "channel": 0, "type": "channel", "subtype": "noteOff", "noteNumber": 40, "velocity": 0  },
      { "deltaTime": 1, "channel": 0, "type": "channel", "noteNumber": 56, "velocity": 64, "subtype": "noteOn"  },
      { "deltaTime": 239, "channel": 0, "type": "channel", "subtype": "noteOff", "noteNumber": 56, "velocity": 0  },
      { "deltaTime": 1, "channel": 0, "type": "channel", "noteNumber": 40, "velocity": 64, "subtype": "noteOn"  },
      { "deltaTime": 239, "channel": 0, "type": "channel", "subtype": "noteOff", "noteNumber": 40, "velocity": 0  },
      { "deltaTime": 1, "channel": 0, "type": "channel", "noteNumber": 40, "velocity": 64, "subtype": "noteOn"  },
      { "deltaTime": 239, "channel": 0, "type": "channel", "subtype": "noteOff", "noteNumber": 40, "velocity": 0  },
      { "deltaTime": 1, "channel": 0, "type": "channel", "noteNumber": 52, "velocity": 64, "subtype": "noteOn"  },
      { "deltaTime": 239, "channel": 0, "type": "channel", "subtype": "noteOff", "noteNumber": 52, "velocity": 0  },
      { "deltaTime": 1, "channel": 0, "type": "channel", "noteNumber": 40, "velocity": 64, "subtype": "noteOn"  },
      { "deltaTime": 239, "channel": 0, "type": "channel", "subtype": "noteOff", "noteNumber": 40, "velocity": 0  },
      { "deltaTime": 1, "channel": 0, "type": "channel", "noteNumber": 40, "velocity": 64, "subtype": "noteOn"  },
      { "deltaTime": 239, "channel": 0, "type": "channel", "subtype": "noteOff", "noteNumber": 40, "velocity": 0  },
      { "deltaTime": 1, "channel": 0, "type": "channel", "noteNumber": 50, "velocity": 64, "subtype": "noteOn"  },
      { "deltaTime": 239, "channel": 0, "type": "channel", "subtype": "noteOff", "noteNumber": 50, "velocity": 0  },
      { "deltaTime": 1, "channel": 0, "type": "channel", "noteNumber": 40, "velocity": 64, "subtype": "noteOn"  },
      { "deltaTime": 239, "channel": 0, "type": "channel", "subtype": "noteOff", "noteNumber": 40, "velocity": 0  },
      { "deltaTime": 1, "channel": 0, "type": "channel", "noteNumber": 40, "velocity": 64, "subtype": "noteOn"  },
      { "deltaTime": 239, "channel": 0, "type": "channel", "subtype": "noteOff", "noteNumber": 40, "velocity": 0  },
      { "deltaTime": 1, "channel": 0, "type": "channel", "noteNumber": 52, "velocity": 64, "subtype": "noteOn"  },
      { "deltaTime": 239, "channel": 0, "type": "channel", "subtype": "noteOff", "noteNumber": 52, "velocity": 0  },
      { "deltaTime": 1, "channel": 0, "type": "channel", "noteNumber": 40, "velocity": 64, "subtype": "noteOn"  },
      { "deltaTime": 239, "channel": 0, "type": "channel", "subtype": "noteOff", "noteNumber": 40, "velocity": 0  },
      { "deltaTime": 1, "channel": 0, "type": "channel", "noteNumber": 40, "velocity": 64, "subtype": "noteOn"  },
      { "deltaTime": 239, "channel": 0, "type": "channel", "subtype": "noteOff", "noteNumber": 40, "velocity": 0  },
      { "deltaTime": 1, "channel": 0, "type": "channel", "noteNumber": 47, "velocity": 64, "subtype": "noteOn"  },
      { "deltaTime": 239, "channel": 0, "type": "channel", "subtype": "noteOff", "noteNumber": 47, "velocity": 0  },
      { "deltaTime": 1, "channel": 0, "type": "channel", "noteNumber": 40, "velocity": 64, "subtype": "noteOn"  },
      { "deltaTime": 239, "channel": 0, "type": "channel", "subtype": "noteOff", "noteNumber": 40, "velocity": 0  },
      { "deltaTime": 1, "channel": 0, "type": "channel", "noteNumber": 50, "velocity": 64, "subtype": "noteOn"  },
      { "deltaTime": 239, "channel": 0, "type": "channel", "subtype": "noteOff", "noteNumber": 50, "velocity": 0  },
      { "deltaTime": 1, "channel": 0, "type": "channel", "noteNumber": 40, "velocity": 64, "subtype": "noteOn"  },
      { "deltaTime": 239, "channel": 0, "type": "channel", "subtype": "noteOff", "noteNumber": 40, "velocity": 0  },
      { "deltaTime": 1, "channel": 0, "type": "channel", "noteNumber": 49, "velocity": 64, "subtype": "noteOn"  },
      { "deltaTime": 239, "channel": 0, "type": "channel", "subtype": "noteOff", "noteNumber": 49, "velocity": 0  },
      { "deltaTime": 1, "channel": 0, "type": "channel", "noteNumber": 50, "velocity": 64, "subtype": "noteOn"  },
      { "deltaTime": 239, "channel": 0, "type": "channel", "subtype": "noteOff", "noteNumber": 50, "velocity": 0  },
      { "deltaTime": 1, "channel": 0, "type": "channel", "noteNumber": 40, "velocity": 64, "subtype": "noteOn"  },
      { "deltaTime": 239, "channel": 0, "type": "channel", "subtype": "noteOff", "noteNumber": 40, "velocity": 0  },
      { "deltaTime": 1, "channel": 0, "type": "channel", "noteNumber": 52, "velocity": 64, "subtype": "noteOn"  },
      { "deltaTime": 239, "channel": 0, "type": "channel", "subtype": "noteOff", "noteNumber": 52, "velocity": 0  },
      { "deltaTime": 1, "channel": 0, "type": "channel", "noteNumber": 40, "velocity": 64, "subtype": "noteOn"  },
      { "deltaTime": 239, "channel": 0, "type": "channel", "subtype": "noteOff", "noteNumber": 40, "velocity": 0  },
      { "deltaTime": 1, "channel": 0, "type": "channel", "noteNumber": 40, "velocity": 64, "subtype": "noteOn"  },
      { "deltaTime": 239, "channel": 0, "type": "channel", "subtype": "noteOff", "noteNumber": 40, "velocity": 0  },
      { "deltaTime": 1, "channel": 0, "type": "channel", "noteNumber": 50, "velocity": 64, "subtype": "noteOn"  },
      { "deltaTime": 239, "channel": 0, "type": "channel", "subtype": "noteOff", "noteNumber": 50, "velocity": 0  },
      { "deltaTime": 1, "channel": 0, "type": "channel", "noteNumber": 40, "velocity": 64, "subtype": "noteOn"  },
      { "deltaTime": 239, "channel": 0, "type": "channel", "subtype": "noteOff", "noteNumber": 40, "velocity": 0  },
      { "deltaTime": 1, "channel": 0, "type": "channel", "noteNumber": 40, "velocity": 64, "subtype": "noteOn"  },
      { "deltaTime": 239, "channel": 0, "type": "channel", "subtype": "noteOff", "noteNumber": 40, "velocity": 0  },
      { "deltaTime": 1, "channel": 0, "type": "channel", "noteNumber": 52, "velocity": 64, "subtype": "noteOn"  },
      { "deltaTime": 239, "channel": 0, "type": "channel", "subtype": "noteOff", "noteNumber": 52, "velocity": 0  },
      { "deltaTime": 1, "channel": 0, "type": "channel", "noteNumber": 40, "velocity": 64, "subtype": "noteOn"  },
      { "deltaTime": 239, "channel": 0, "type": "channel", "subtype": "noteOff", "noteNumber": 40, "velocity": 0  },
      { "deltaTime": 1, "channel": 0, "type": "channel", "noteNumber": 40, "velocity": 64, "subtype": "noteOn"  },
      { "deltaTime": 239, "channel": 0, "type": "channel", "subtype": "noteOff", "noteNumber": 40, "velocity": 0  },
      { "deltaTime": 1, "channel": 0, "type": "channel", "noteNumber": 56, "velocity": 64, "subtype": "noteOn"  },
      { "deltaTime": 239, "channel": 0, "type": "channel", "subtype": "noteOff", "noteNumber": 56, "velocity": 0  },
      { "deltaTime": 1, "channel": 0, "type": "channel", "noteNumber": 40, "velocity": 64, "subtype": "noteOn"  },
      { "deltaTime": 239, "channel": 0, "type": "channel", "subtype": "noteOff", "noteNumber": 40, "velocity": 0  },
      { "deltaTime": 1, "channel": 0, "type": "channel", "noteNumber": 40, "velocity": 64, "subtype": "noteOn"  },
      { "deltaTime": 239, "channel": 0, "type": "channel", "subtype": "noteOff", "noteNumber": 40, "velocity": 0  },
      { "deltaTime": 1, "channel": 0, "type": "channel", "noteNumber": 52, "velocity": 64, "subtype": "noteOn"  },
      { "deltaTime": 239, "channel": 0, "type": "channel", "subtype": "noteOff", "noteNumber": 52, "velocity": 0  },
      { "deltaTime": 1, "channel": 0, "type": "channel", "noteNumber": 40, "velocity": 64, "subtype": "noteOn"  },
      { "deltaTime": 239, "channel": 0, "type": "channel", "subtype": "noteOff", "noteNumber": 40, "velocity": 0  },
      { "deltaTime": 1, "channel": 0, "type": "channel", "noteNumber": 40, "velocity": 64, "subtype": "noteOn"  },
      { "deltaTime": 239, "channel": 0, "type": "channel", "subtype": "noteOff", "noteNumber": 40, "velocity": 0  },
      { "deltaTime": 1, "channel": 0, "type": "channel", "noteNumber": 50, "velocity": 64, "subtype": "noteOn"  },
      { "deltaTime": 239, "channel": 0, "type": "channel", "subtype": "noteOff", "noteNumber": 50, "velocity": 0  },
      { "deltaTime": 1, "channel": 0, "type": "channel", "noteNumber": 40, "velocity": 64, "subtype": "noteOn"  },
      { "deltaTime": 239, "channel": 0, "type": "channel", "subtype": "noteOff", "noteNumber": 40, "velocity": 0  },
      { "deltaTime": 1, "channel": 0, "type": "channel", "noteNumber": 40, "velocity": 64, "subtype": "noteOn"  },
      { "deltaTime": 239, "channel": 0, "type": "channel", "subtype": "noteOff", "noteNumber": 40, "velocity": 0  },
      { "deltaTime": 1, "channel": 0, "type": "channel", "noteNumber": 52, "velocity": 64, "subtype": "noteOn"  },
      { "deltaTime": 239, "channel": 0, "type": "channel", "subtype": "noteOff", "noteNumber": 52, "velocity": 0  },
      { "deltaTime": 1, "channel": 0, "type": "channel", "noteNumber": 40, "velocity": 64, "subtype": "noteOn"  },
      { "deltaTime": 239, "channel": 0, "type": "channel", "subtype": "noteOff", "noteNumber": 40, "velocity": 0  },
      { "deltaTime": 1, "channel": 0, "type": "channel", "noteNumber": 40, "velocity": 64, "subtype": "noteOn"  },
      { "deltaTime": 239, "channel": 0, "type": "channel", "subtype": "noteOff", "noteNumber": 40, "velocity": 0  },
      { "deltaTime": 1, "channel": 0, "type": "channel", "noteNumber": 47, "velocity": 64, "subtype": "noteOn"  },
      { "deltaTime": 239, "channel": 0, "type": "channel", "subtype": "noteOff", "noteNumber": 47, "velocity": 0  },
      { "deltaTime": 1, "channel": 0, "type": "channel", "noteNumber": 40, "velocity": 64, "subtype": "noteOn"  },
      { "deltaTime": 239, "channel": 0, "type": "channel", "subtype": "noteOff", "noteNumber": 40, "velocity": 0  },
      { "deltaTime": 1, "channel": 0, "type": "channel", "noteNumber": 50, "velocity": 64, "subtype": "noteOn"  },
      { "deltaTime": 239, "channel": 0, "type": "channel", "subtype": "noteOff", "noteNumber": 50, "velocity": 0  },
      { "deltaTime": 1, "channel": 0, "type": "channel", "noteNumber": 40, "velocity": 64, "subtype": "noteOn"  },
      { "deltaTime": 239, "channel": 0, "type": "channel", "subtype": "noteOff", "noteNumber": 40, "velocity": 0  },
      { "deltaTime": 1, "channel": 0, "type": "channel", "noteNumber": 49, "velocity": 64, "subtype": "noteOn"  },
      { "deltaTime": 239, "channel": 0, "type": "channel", "subtype": "noteOff", "noteNumber": 49, "velocity": 0  },
      { "deltaTime": 1, "channel": 0, "type": "channel", "noteNumber": 50, "velocity": 64, "subtype": "noteOn"  },
      { "deltaTime": 239, "channel": 0, "type": "channel", "subtype": "noteOff", "noteNumber": 50, "velocity": 0  },
      { "deltaTime": 1, "channel": 0, "type": "channel", "noteNumber": 40, "velocity": 64, "subtype": "noteOn"  },
      { "deltaTime": 239, "channel": 0, "type": "channel", "subtype": "noteOff", "noteNumber": 40, "velocity": 0  },
      { "deltaTime": 1, "channel": 0, "type": "channel", "noteNumber": 52, "velocity": 64, "subtype": "noteOn"  },
      { "deltaTime": 239, "channel": 0, "type": "channel", "subtype": "noteOff", "noteNumber": 52, "velocity": 0  },
      { "deltaTime": 1, "channel": 0, "type": "channel", "noteNumber": 40, "velocity": 64, "subtype": "noteOn"  },
      { "deltaTime": 239, "channel": 0, "type": "channel", "subtype": "noteOff", "noteNumber": 40, "velocity": 0  },
      { "deltaTime": 1, "channel": 0, "type": "channel", "noteNumber": 40, "velocity": 64, "subtype": "noteOn"  },
      { "deltaTime": 239, "channel": 0, "type": "channel", "subtype": "noteOff", "noteNumber": 40, "velocity": 0  },
      { "deltaTime": 1, "channel": 0, "type": "channel", "noteNumber": 50, "velocity": 64, "subtype": "noteOn"  },
      { "deltaTime": 239, "channel": 0, "type": "channel", "subtype": "noteOff", "noteNumber": 50, "velocity": 0  },
      { "deltaTime": 1, "channel": 0, "type": "channel", "noteNumber": 40, "velocity": 64, "subtype": "noteOn"  },
      { "deltaTime": 239, "channel": 0, "type": "channel", "subtype": "noteOff", "noteNumber": 40, "velocity": 0  },
      { "deltaTime": 1, "channel": 0, "type": "channel", "noteNumber": 40, "velocity": 64, "subtype": "noteOn"  },
      { "deltaTime": 239, "channel": 0, "type": "channel", "subtype": "noteOff", "noteNumber": 40, "velocity": 0  },
      { "deltaTime": 1, "channel": 0, "type": "channel", "noteNumber": 52, "velocity": 64, "subtype": "noteOn"  },
      { "deltaTime": 239, "channel": 0, "type": "channel", "subtype": "noteOff", "noteNumber": 52, "velocity": 0  },
      { "deltaTime": 1, "channel": 0, "type": "channel", "noteNumber": 40, "velocity": 64, "subtype": "noteOn"  },
      { "deltaTime": 239, "channel": 0, "type": "channel", "subtype": "noteOff", "noteNumber": 40, "velocity": 0  },
      { "deltaTime": 1, "channel": 0, "type": "channel", "noteNumber": 40, "velocity": 64, "subtype": "noteOn"  },
      { "deltaTime": 239, "channel": 0, "type": "channel", "subtype": "noteOff", "noteNumber": 40, "velocity": 0  },
      { "deltaTime": 1, "channel": 0, "type": "channel", "noteNumber": 56, "velocity": 64, "subtype": "noteOn"  },
      { "deltaTime": 239, "channel": 0, "type": "channel", "subtype": "noteOff", "noteNumber": 56, "velocity": 0  },
      { "deltaTime": 1, "channel": 0, "type": "channel", "noteNumber": 40, "velocity": 64, "subtype": "noteOn"  },
      { "deltaTime": 239, "channel": 0, "type": "channel", "subtype": "noteOff", "noteNumber": 40, "velocity": 0  },
      { "deltaTime": 1, "channel": 0, "type": "channel", "noteNumber": 40, "velocity": 64, "subtype": "noteOn"  },
      { "deltaTime": 239, "channel": 0, "type": "channel", "subtype": "noteOff", "noteNumber": 40, "velocity": 0  },
      { "deltaTime": 1, "channel": 0, "type": "channel", "noteNumber": 52, "velocity": 64, "subtype": "noteOn"  },
      { "deltaTime": 239, "channel": 0, "type": "channel", "subtype": "noteOff", "noteNumber": 52, "velocity": 0  },
      { "deltaTime": 1, "channel": 0, "type": "channel", "noteNumber": 40, "velocity": 64, "subtype": "noteOn"  },
      { "deltaTime": 239, "channel": 0, "type": "channel", "subtype": "noteOff", "noteNumber": 40, "velocity": 0  },
      { "deltaTime": 1, "channel": 0, "type": "channel", "noteNumber": 40, "velocity": 64, "subtype": "noteOn"  },
      { "deltaTime": 239, "channel": 0, "type": "channel", "subtype": "noteOff", "noteNumber": 40, "velocity": 0  },
      { "deltaTime": 1, "channel": 0, "type": "channel", "noteNumber": 50, "velocity": 64, "subtype": "noteOn"  },
      { "deltaTime": 239, "channel": 0, "type": "channel", "subtype": "noteOff", "noteNumber": 50, "velocity": 0  },
      { "deltaTime": 1, "channel": 0, "type": "channel", "noteNumber": 40, "velocity": 64, "subtype": "noteOn"  },
      { "deltaTime": 239, "channel": 0, "type": "channel", "subtype": "noteOff", "noteNumber": 40, "velocity": 0  },
      { "deltaTime": 1, "channel": 0, "type": "channel", "noteNumber": 40, "velocity": 64, "subtype": "noteOn"  },
      { "deltaTime": 239, "channel": 0, "type": "channel", "subtype": "noteOff", "noteNumber": 40, "velocity": 0  },
      { "deltaTime": 1, "channel": 0, "type": "channel", "noteNumber": 52, "velocity": 64, "subtype": "noteOn"  },
      { "deltaTime": 239, "channel": 0, "type": "channel", "subtype": "noteOff", "noteNumber": 52, "velocity": 0  },
      { "deltaTime": 1, "channel": 0, "type": "channel", "noteNumber": 40, "velocity": 64, "subtype": "noteOn"  },
      { "deltaTime": 239, "channel": 0, "type": "channel", "subtype": "noteOff", "noteNumber": 40, "velocity": 0  },
      { "deltaTime": 1, "channel": 0, "type": "channel", "noteNumber": 40, "velocity": 64, "subtype": "noteOn"  },
      { "deltaTime": 239, "channel": 0, "type": "channel", "subtype": "noteOff", "noteNumber": 40, "velocity": 0  },
      { "deltaTime": 1, "channel": 0, "type": "channel", "noteNumber": 47, "velocity": 64, "subtype": "noteOn"  },
      { "deltaTime": 239, "channel": 0, "type": "channel", "subtype": "noteOff", "noteNumber": 47, "velocity": 0  },
      { "deltaTime": 1, "channel": 0, "type": "channel", "noteNumber": 40, "velocity": 64, "subtype": "noteOn"  },
      { "deltaTime": 239, "channel": 0, "type": "channel", "subtype": "noteOff", "noteNumber": 40, "velocity": 0  },
      { "deltaTime": 1, "channel": 0, "type": "channel", "noteNumber": 50, "velocity": 64, "subtype": "noteOn"  },
      { "deltaTime": 239, "channel": 0, "type": "channel", "subtype": "noteOff", "noteNumber": 50, "velocity": 0  },
      { "deltaTime": 1, "channel": 0, "type": "channel", "noteNumber": 40, "velocity": 64, "subtype": "noteOn"  },
      { "deltaTime": 239, "channel": 0, "type": "channel", "subtype": "noteOff", "noteNumber": 40, "velocity": 0  },
      { "deltaTime": 1, "channel": 0, "type": "channel", "noteNumber": 49, "velocity": 64, "subtype": "noteOn"  },
      { "deltaTime": 239, "channel": 0, "type": "channel", "subtype": "noteOff", "noteNumber": 49, "velocity": 0  },
      { "deltaTime": 1, "channel": 0, "type": "channel", "noteNumber": 50, "velocity": 64, "subtype": "noteOn"  },
      { "deltaTime": 239, "channel": 0, "type": "channel", "subtype": "noteOff", "noteNumber": 50, "velocity": 0  },
      { "deltaTime": 1, "channel": 0, "type": "channel", "noteNumber": 40, "velocity": 64, "subtype": "noteOn"  },
      { "deltaTime": 239, "channel": 0, "type": "channel", "subtype": "noteOff", "noteNumber": 40, "velocity": 0  },
      { "deltaTime": 1, "channel": 0, "type": "channel", "noteNumber": 52, "velocity": 64, "subtype": "noteOn"  },
      { "deltaTime": 239, "channel": 0, "type": "channel", "subtype": "noteOff", "noteNumber": 52, "velocity": 0  },
      { "deltaTime": 1, "channel": 0, "type": "channel", "noteNumber": 40, "velocity": 64, "subtype": "noteOn"  },
      { "deltaTime": 239, "channel": 0, "type": "channel", "subtype": "noteOff", "noteNumber": 40, "velocity": 0  },
      { "deltaTime": 1, "channel": 0, "type": "channel", "noteNumber": 40, "velocity": 64, "subtype": "noteOn"  },
      { "deltaTime": 239, "channel": 0, "type": "channel", "subtype": "noteOff", "noteNumber": 40, "velocity": 0  },
      { "deltaTime": 1, "channel": 0, "type": "channel", "noteNumber": 50, "velocity": 64, "subtype": "noteOn"  },
      { "deltaTime": 239, "channel": 0, "type": "channel", "subtype": "noteOff", "noteNumber": 50, "velocity": 0  },
      { "deltaTime": 1, "channel": 0, "type": "channel", "noteNumber": 40, "velocity": 64, "subtype": "noteOn"  },
      { "deltaTime": 239, "channel": 0, "type": "channel", "subtype": "noteOff", "noteNumber": 40, "velocity": 0  },
      { "deltaTime": 1, "channel": 0, "type": "channel", "noteNumber": 40, "velocity": 64, "subtype": "noteOn"  },
      { "deltaTime": 239, "channel": 0, "type": "channel", "subtype": "noteOff", "noteNumber": 40, "velocity": 0  },
      { "deltaTime": 1, "channel": 0, "type": "channel", "noteNumber": 52, "velocity": 64, "subtype": "noteOn"  },
      { "deltaTime": 239, "channel": 0, "type": "channel", "subtype": "noteOff", "noteNumber": 52, "velocity": 0  },
      { "deltaTime": 1, "channel": 0, "type": "channel", "noteNumber": 40, "velocity": 64, "subtype": "noteOn"  },
      { "deltaTime": 239, "channel": 0, "type": "channel", "subtype": "noteOff", "noteNumber": 40, "velocity": 0  },
      { "deltaTime": 1, "channel": 0, "type": "channel", "noteNumber": 40, "velocity": 64, "subtype": "noteOn"  },
      { "deltaTime": 239, "channel": 0, "type": "channel", "subtype": "noteOff", "noteNumber": 40, "velocity": 0  },
      { "deltaTime": 1, "channel": 0, "type": "channel", "noteNumber": 56, "velocity": 64, "subtype": "noteOn"  },
      { "deltaTime": 239, "channel": 0, "type": "channel", "subtype": "noteOff", "noteNumber": 56, "velocity": 0  },
      { "deltaTime": 1, "channel": 0, "type": "channel", "noteNumber": 40, "velocity": 64, "subtype": "noteOn"  },
      { "deltaTime": 239, "channel": 0, "type": "channel", "subtype": "noteOff", "noteNumber": 40, "velocity": 0  },
      { "deltaTime": 1, "channel": 0, "type": "channel", "noteNumber": 40, "velocity": 64, "subtype": "noteOn"  },
      { "deltaTime": 239, "channel": 0, "type": "channel", "subtype": "noteOff", "noteNumber": 40, "velocity": 0  },
      { "deltaTime": 1, "channel": 0, "type": "channel", "noteNumber": 47, "velocity": 64, "subtype": "noteOn"  },
      { "deltaTime": 239, "channel": 0, "type": "channel", "subtype": "noteOff", "noteNumber": 47, "velocity": 0  },
      { "deltaTime": 1, "channel": 0, "type": "channel", "noteNumber": 47, "velocity": 64, "subtype": "noteOn"  },
      { "deltaTime": 239, "channel": 0, "type": "channel", "subtype": "noteOff", "noteNumber": 47, "velocity": 0  },
      { "deltaTime": 1, "channel": 0, "type": "channel", "noteNumber": 40, "velocity": 64, "subtype": "noteOn"  },
      { "deltaTime": 239, "channel": 0, "type": "channel", "subtype": "noteOff", "noteNumber": 40, "velocity": 0  },
      { "deltaTime": 1, "channel": 0, "type": "channel", "noteNumber": 46, "velocity": 64, "subtype": "noteOn"  },
      { "deltaTime": 239, "channel": 0, "type": "channel", "subtype": "noteOff", "noteNumber": 46, "velocity": 0  },
      { "deltaTime": 1, "channel": 0, "type": "channel", "noteNumber": 46, "velocity": 64, "subtype": "noteOn"  },
      { "deltaTime": 239, "channel": 0, "type": "channel", "subtype": "noteOff", "noteNumber": 46, "velocity": 0  },
      { "deltaTime": 1, "channel": 0, "type": "channel", "noteNumber": 40, "velocity": 64, "subtype": "noteOn"  },
      { "deltaTime": 239, "channel": 0, "type": "channel", "subtype": "noteOff", "noteNumber": 40, "velocity": 0  },
      { "deltaTime": 1, "channel": 0, "type": "channel", "noteNumber": 47, "velocity": 64, "subtype": "noteOn"  },
      { "deltaTime": 239, "channel": 0, "type": "channel", "subtype": "noteOff", "noteNumber": 47, "velocity": 0  },
      { "deltaTime": 1, "channel": 0, "type": "channel", "noteNumber": 47, "velocity": 64, "subtype": "noteOn"  },
      { "deltaTime": 239, "channel": 0, "type": "channel", "subtype": "noteOff", "noteNumber": 47, "velocity": 0  },
      { "deltaTime": 1, "channel": 0, "type": "channel", "noteNumber": 40, "velocity": 64, "subtype": "noteOn"  },
      { "deltaTime": 239, "channel": 0, "type": "channel", "subtype": "noteOff", "noteNumber": 40, "velocity": 0  },
      { "deltaTime": 1, "channel": 0, "type": "channel", "noteNumber": 52, "velocity": 64, "subtype": "noteOn"  },
      { "deltaTime": 239, "channel": 0, "type": "channel", "subtype": "noteOff", "noteNumber": 52, "velocity": 0  },
      { "deltaTime": 1, "channel": 0, "type": "channel", "noteNumber": 40, "velocity": 64, "subtype": "noteOn"  },
      { "deltaTime": 239, "channel": 0, "type": "channel", "subtype": "noteOff", "noteNumber": 40, "velocity": 0  },
      { "deltaTime": 1, "channel": 0, "type": "channel", "noteNumber": 50, "velocity": 64, "subtype": "noteOn"  },
      { "deltaTime": 239, "channel": 0, "type": "channel", "subtype": "noteOff", "noteNumber": 50, "velocity": 0  },
      { "deltaTime": 1, "channel": 0, "type": "channel", "noteNumber": 40, "velocity": 64, "subtype": "noteOn"  },
      { "deltaTime": 239, "channel": 0, "type": "channel", "subtype": "noteOff", "noteNumber": 40, "velocity": 0  },
      { "deltaTime": 1, "channel": 0, "type": "channel", "noteNumber": 45, "velocity": 64, "subtype": "noteOn"  },
      { "deltaTime": 239, "channel": 0, "type": "channel", "subtype": "noteOff", "noteNumber": 45, "velocity": 0  },
      { "deltaTime": 1, "channel": 0, "type": "channel", "noteNumber": 44, "velocity": 64, "subtype": "noteOn"  },
      { "deltaTime": 239, "channel": 0, "type": "channel", "subtype": "noteOff", "noteNumber": 44, "velocity": 0  },
      { "deltaTime": 1, "channel": 0, "type": "channel", "noteNumber": 40, "velocity": 64, "subtype": "noteOn"  },
      { "deltaTime": 239, "channel": 0, "type": "channel", "subtype": "noteOff", "noteNumber": 40, "velocity": 0  },
      { "deltaTime": 1, "channel": 0, "type": "channel", "noteNumber": 52, "velocity": 64, "subtype": "noteOn"  },
      { "deltaTime": 239, "channel": 0, "type": "channel", "subtype": "noteOff", "noteNumber": 52, "velocity": 0  },
      { "deltaTime": 1, "channel": 0, "type": "channel", "noteNumber": 52, "velocity": 64, "subtype": "noteOn"  },
      { "deltaTime": 239, "channel": 0, "type": "channel", "subtype": "noteOff", "noteNumber": 52, "velocity": 0  },
      { "deltaTime": 1, "channel": 0, "type": "channel", "noteNumber": 40, "velocity": 64, "subtype": "noteOn"  },
      { "deltaTime": 239, "channel": 0, "type": "channel", "subtype": "noteOff", "noteNumber": 40, "velocity": 0  },
      { "deltaTime": 1, "channel": 0, "type": "channel", "noteNumber": 44, "velocity": 64, "subtype": "noteOn"  },
      { "deltaTime": 239, "channel": 0, "type": "channel", "subtype": "noteOff", "noteNumber": 44, "velocity": 0  },
      { "deltaTime": 1, "channel": 0, "type": "channel", "noteNumber": 45, "velocity": 64, "subtype": "noteOn"  },
      { "deltaTime": 239, "channel": 0, "type": "channel", "subtype": "noteOff", "noteNumber": 45, "velocity": 0  },
      { "deltaTime": 1, "channel": 0, "type": "channel", "noteNumber": 40, "velocity": 64, "subtype": "noteOn"  },
      { "deltaTime": 239, "channel": 0, "type": "channel", "subtype": "noteOff", "noteNumber": 40, "velocity": 0  },
      { "deltaTime": 1, "channel": 0, "type": "channel", "noteNumber": 46, "velocity": 64, "subtype": "noteOn"  },
      { "deltaTime": 239, "channel": 0, "type": "channel", "subtype": "noteOff", "noteNumber": 46, "velocity": 0  },
      { "deltaTime": 1, "channel": 0, "type": "channel", "noteNumber": 40, "velocity": 64, "subtype": "noteOn"  },
      { "deltaTime": 239, "channel": 0, "type": "channel", "subtype": "noteOff", "noteNumber": 40, "velocity": 0  },
      { "deltaTime": 1, "channel": 0, "type": "channel", "noteNumber": 47, "velocity": 64, "subtype": "noteOn"  },
      { "deltaTime": 239, "channel": 0, "type": "channel", "subtype": "noteOff", "noteNumber": 47, "velocity": 0  },
      { "deltaTime": 1, "channel": 0, "type": "channel", "noteNumber": 50, "velocity": 64, "subtype": "noteOn"  },
      { "deltaTime": 239, "channel": 0, "type": "channel", "subtype": "noteOff", "noteNumber": 50, "velocity": 0  },
      { "deltaTime": 1, "channel": 0, "type": "channel", "noteNumber": 47, "velocity": 64, "subtype": "noteOn"  },
      { "deltaTime": 239, "channel": 0, "type": "channel", "subtype": "noteOff", "noteNumber": 47, "velocity": 0  },
      { "deltaTime": 1, "channel": 0, "type": "channel", "noteNumber": 40, "velocity": 64, "subtype": "noteOn"  },
      { "deltaTime": 239, "channel": 0, "type": "channel", "subtype": "noteOff", "noteNumber": 40, "velocity": 0  },
      { "deltaTime": 1, "channel": 0, "type": "channel", "noteNumber": 47, "velocity": 64, "subtype": "noteOn"  },
      { "deltaTime": 239, "channel": 0, "type": "channel", "subtype": "noteOff", "noteNumber": 47, "velocity": 0  },
      { "deltaTime": 1, "channel": 0, "type": "channel", "noteNumber": 47, "velocity": 64, "subtype": "noteOn"  },
      { "deltaTime": 239, "channel": 0, "type": "channel", "subtype": "noteOff", "noteNumber": 47, "velocity": 0  },
      { "deltaTime": 1, "channel": 0, "type": "channel", "noteNumber": 40, "velocity": 64, "subtype": "noteOn"  },
      { "deltaTime": 239, "channel": 0, "type": "channel", "subtype": "noteOff", "noteNumber": 40, "velocity": 0  },
      { "deltaTime": 1, "channel": 0, "type": "channel", "noteNumber": 46, "velocity": 64, "subtype": "noteOn"  },
      { "deltaTime": 239, "channel": 0, "type": "channel", "subtype": "noteOff", "noteNumber": 46, "velocity": 0  },
      { "deltaTime": 1, "channel": 0, "type": "channel", "noteNumber": 46, "velocity": 64, "subtype": "noteOn"  },
      { "deltaTime": 239, "channel": 0, "type": "channel", "subtype": "noteOff", "noteNumber": 46, "velocity": 0  },
      { "deltaTime": 1, "channel": 0, "type": "channel", "noteNumber": 40, "velocity": 64, "subtype": "noteOn"  },
      { "deltaTime": 239, "channel": 0, "type": "channel", "subtype": "noteOff", "noteNumber": 40, "velocity": 0  },
      { "deltaTime": 1, "channel": 0, "type": "channel", "noteNumber": 47, "velocity": 64, "subtype": "noteOn"  },
      { "deltaTime": 239, "channel": 0, "type": "channel", "subtype": "noteOff", "noteNumber": 47, "velocity": 0  },
      { "deltaTime": 1, "channel": 0, "type": "channel", "noteNumber": 47, "velocity": 64, "subtype": "noteOn"  },
      { "deltaTime": 239, "channel": 0, "type": "channel", "subtype": "noteOff", "noteNumber": 47, "velocity": 0  },
      { "deltaTime": 1, "channel": 0, "type": "channel", "noteNumber": 40, "velocity": 64, "subtype": "noteOn"  },
      { "deltaTime": 239, "channel": 0, "type": "channel", "subtype": "noteOff", "noteNumber": 40, "velocity": 0  },
      { "deltaTime": 1, "channel": 0, "type": "channel", "noteNumber": 52, "velocity": 64, "subtype": "noteOn"  },
      { "deltaTime": 239, "channel": 0, "type": "channel", "subtype": "noteOff", "noteNumber": 52, "velocity": 0  },
      { "deltaTime": 1, "channel": 0, "type": "channel", "noteNumber": 40, "velocity": 64, "subtype": "noteOn"  },
      { "deltaTime": 239, "channel": 0, "type": "channel", "subtype": "noteOff", "noteNumber": 40, "velocity": 0  },
      { "deltaTime": 1, "channel": 0, "type": "channel", "noteNumber": 50, "velocity": 64, "subtype": "noteOn"  },
      { "deltaTime": 239, "channel": 0, "type": "channel", "subtype": "noteOff", "noteNumber": 50, "velocity": 0  },
      { "deltaTime": 1, "channel": 0, "type": "channel", "noteNumber": 40, "velocity": 64, "subtype": "noteOn"  },
      { "deltaTime": 239, "channel": 0, "type": "channel", "subtype": "noteOff", "noteNumber": 40, "velocity": 0  },
      { "deltaTime": 1, "channel": 0, "type": "channel", "noteNumber": 45, "velocity": 64, "subtype": "noteOn"  },
      { "deltaTime": 239, "channel": 0, "type": "channel", "subtype": "noteOff", "noteNumber": 45, "velocity": 0  },
      { "deltaTime": 1, "channel": 0, "type": "channel", "noteNumber": 44, "velocity": 64, "subtype": "noteOn"  },
      { "deltaTime": 239, "channel": 0, "type": "channel", "subtype": "noteOff", "noteNumber": 44, "velocity": 0  },
      { "deltaTime": 1, "channel": 0, "type": "channel", "noteNumber": 40, "velocity": 64, "subtype": "noteOn"  },
      { "deltaTime": 239, "channel": 0, "type": "channel", "subtype": "noteOff", "noteNumber": 40, "velocity": 0  },
      { "deltaTime": 1, "channel": 0, "type": "channel", "noteNumber": 52, "velocity": 64, "subtype": "noteOn"  },
      { "deltaTime": 239, "channel": 0, "type": "channel", "subtype": "noteOff", "noteNumber": 52, "velocity": 0  },
      { "deltaTime": 1, "channel": 0, "type": "channel", "noteNumber": 52, "velocity": 64, "subtype": "noteOn"  },
      { "deltaTime": 239, "channel": 0, "type": "channel", "subtype": "noteOff", "noteNumber": 52, "velocity": 0  },
      { "deltaTime": 1, "channel": 0, "type": "channel", "noteNumber": 40, "velocity": 64, "subtype": "noteOn"  },
      { "deltaTime": 239, "channel": 0, "type": "channel", "subtype": "noteOff", "noteNumber": 40, "velocity": 0  },
      { "deltaTime": 1, "channel": 0, "type": "channel", "noteNumber": 44, "velocity": 64, "subtype": "noteOn"  },
      { "deltaTime": 239, "channel": 0, "type": "channel", "subtype": "noteOff", "noteNumber": 44, "velocity": 0  },
      { "deltaTime": 1, "channel": 0, "type": "channel", "noteNumber": 45, "velocity": 64, "subtype": "noteOn"  },
      { "deltaTime": 239, "channel": 0, "type": "channel", "subtype": "noteOff", "noteNumber": 45, "velocity": 0  },
      { "deltaTime": 1, "channel": 0, "type": "channel", "noteNumber": 40, "velocity": 64, "subtype": "noteOn"  },
      { "deltaTime": 239, "channel": 0, "type": "channel", "subtype": "noteOff", "noteNumber": 40, "velocity": 0  },
      { "deltaTime": 1, "channel": 0, "type": "channel", "noteNumber": 46, "velocity": 64, "subtype": "noteOn"  },
      { "deltaTime": 239, "channel": 0, "type": "channel", "subtype": "noteOff", "noteNumber": 46, "velocity": 0  },
      { "deltaTime": 1, "channel": 0, "type": "channel", "noteNumber": 40, "velocity": 64, "subtype": "noteOn"  },
      { "deltaTime": 239, "channel": 0, "type": "channel", "subtype": "noteOff", "noteNumber": 40, "velocity": 0  },
      { "deltaTime": 1, "channel": 0, "type": "channel", "noteNumber": 47, "velocity": 64, "subtype": "noteOn"  },
      { "deltaTime": 239, "channel": 0, "type": "channel", "subtype": "noteOff", "noteNumber": 47, "velocity": 0  },
      { "deltaTime": 1, "channel": 0, "type": "channel", "noteNumber": 50, "velocity": 64, "subtype": "noteOn"  },
      { "deltaTime": 239, "channel": 0, "type": "channel", "subtype": "noteOff", "noteNumber": 50, "velocity": 0  },
      { "deltaTime": 1, "channel": 0, "type": "channel", "noteNumber": 47, "velocity": 64, "subtype": "noteOn"  },
      { "deltaTime": 239, "channel": 0, "type": "channel", "subtype": "noteOff", "noteNumber": 47, "velocity": 0  },
      { "deltaTime": 1, "channel": 0, "type": "channel", "noteNumber": 40, "velocity": 64, "subtype": "noteOn"  },
      { "deltaTime": 239, "channel": 0, "type": "channel", "subtype": "noteOff", "noteNumber": 40, "velocity": 0  },
      { "deltaTime": 1, "channel": 0, "type": "channel", "noteNumber": 47, "velocity": 64, "subtype": "noteOn"  },
      { "deltaTime": 239, "channel": 0, "type": "channel", "subtype": "noteOff", "noteNumber": 47, "velocity": 0  },
      { "deltaTime": 1, "channel": 0, "type": "channel", "noteNumber": 47, "velocity": 64, "subtype": "noteOn"  },
      { "deltaTime": 239, "channel": 0, "type": "channel", "subtype": "noteOff", "noteNumber": 47, "velocity": 0  },
      { "deltaTime": 1, "channel": 0, "type": "channel", "noteNumber": 40, "velocity": 64, "subtype": "noteOn"  },
      { "deltaTime": 239, "channel": 0, "type": "channel", "subtype": "noteOff", "noteNumber": 40, "velocity": 0  },
      { "deltaTime": 1, "channel": 0, "type": "channel", "noteNumber": 46, "velocity": 64, "subtype": "noteOn"  },
      { "deltaTime": 239, "channel": 0, "type": "channel", "subtype": "noteOff", "noteNumber": 46, "velocity": 0  },
      { "deltaTime": 1, "channel": 0, "type": "channel", "noteNumber": 46, "velocity": 64, "subtype": "noteOn"  },
      { "deltaTime": 239, "channel": 0, "type": "channel", "subtype": "noteOff", "noteNumber": 46, "velocity": 0  },
      { "deltaTime": 1, "channel": 0, "type": "channel", "noteNumber": 40, "velocity": 64, "subtype": "noteOn"  },
      { "deltaTime": 239, "channel": 0, "type": "channel", "subtype": "noteOff", "noteNumber": 40, "velocity": 0  },
      { "deltaTime": 1, "channel": 0, "type": "channel", "noteNumber": 47, "velocity": 64, "subtype": "noteOn"  },
      { "deltaTime": 239, "channel": 0, "type": "channel", "subtype": "noteOff", "noteNumber": 47, "velocity": 0  },
      { "deltaTime": 1, "channel": 0, "type": "channel", "noteNumber": 47, "velocity": 64, "subtype": "noteOn"  },
      { "deltaTime": 239, "channel": 0, "type": "channel", "subtype": "noteOff", "noteNumber": 47, "velocity": 0  },
      { "deltaTime": 1, "channel": 0, "type": "channel", "noteNumber": 40, "velocity": 64, "subtype": "noteOn"  },
      { "deltaTime": 239, "channel": 0, "type": "channel", "subtype": "noteOff", "noteNumber": 40, "velocity": 0  },
      { "deltaTime": 1, "channel": 0, "type": "channel", "noteNumber": 52, "velocity": 64, "subtype": "noteOn"  },
      { "deltaTime": 239, "channel": 0, "type": "channel", "subtype": "noteOff", "noteNumber": 52, "velocity": 0  },
      { "deltaTime": 1, "channel": 0, "type": "channel", "noteNumber": 40, "velocity": 64, "subtype": "noteOn"  },
      { "deltaTime": 239, "channel": 0, "type": "channel", "subtype": "noteOff", "noteNumber": 40, "velocity": 0  },
      { "deltaTime": 1, "channel": 0, "type": "channel", "noteNumber": 50, "velocity": 64, "subtype": "noteOn"  },
      { "deltaTime": 239, "channel": 0, "type": "channel", "subtype": "noteOff", "noteNumber": 50, "velocity": 0  },
      { "deltaTime": 1, "channel": 0, "type": "channel", "noteNumber": 40, "velocity": 64, "subtype": "noteOn"  },
      { "deltaTime": 239, "channel": 0, "type": "channel", "subtype": "noteOff", "noteNumber": 40, "velocity": 0  },
      { "deltaTime": 1, "channel": 0, "type": "channel", "noteNumber": 45, "velocity": 64, "subtype": "noteOn"  },
      { "deltaTime": 239, "channel": 0, "type": "channel", "subtype": "noteOff", "noteNumber": 45, "velocity": 0  },
      { "deltaTime": 1, "channel": 0, "type": "channel", "noteNumber": 44, "velocity": 64, "subtype": "noteOn"  },
      { "deltaTime": 239, "channel": 0, "type": "channel", "subtype": "noteOff", "noteNumber": 44, "velocity": 0  },
      { "deltaTime": 1, "channel": 0, "type": "channel", "noteNumber": 40, "velocity": 64, "subtype": "noteOn"  },
      { "deltaTime": 239, "channel": 0, "type": "channel", "subtype": "noteOff", "noteNumber": 40, "velocity": 0  },
      { "deltaTime": 1, "channel": 0, "type": "channel", "noteNumber": 52, "velocity": 64, "subtype": "noteOn"  },
      { "deltaTime": 239, "channel": 0, "type": "channel", "subtype": "noteOff", "noteNumber": 52, "velocity": 0  },
      { "deltaTime": 1, "channel": 0, "type": "channel", "noteNumber": 52, "velocity": 64, "subtype": "noteOn"  },
      { "deltaTime": 239, "channel": 0, "type": "channel", "subtype": "noteOff", "noteNumber": 52, "velocity": 0  },
      { "deltaTime": 1, "channel": 0, "type": "channel", "noteNumber": 40, "velocity": 64, "subtype": "noteOn"  },
      { "deltaTime": 239, "channel": 0, "type": "channel", "subtype": "noteOff", "noteNumber": 40, "velocity": 0  },
      { "deltaTime": 1, "channel": 0, "type": "channel", "noteNumber": 44, "velocity": 64, "subtype": "noteOn"  },
      { "deltaTime": 239, "channel": 0, "type": "channel", "subtype": "noteOff", "noteNumber": 44, "velocity": 0  },
      { "deltaTime": 1, "channel": 0, "type": "channel", "noteNumber": 45, "velocity": 64, "subtype": "noteOn"  },
      { "deltaTime": 239, "channel": 0, "type": "channel", "subtype": "noteOff", "noteNumber": 45, "velocity": 0  },
      { "deltaTime": 1, "channel": 0, "type": "channel", "noteNumber": 40, "velocity": 64, "subtype": "noteOn"  },
      { "deltaTime": 239, "channel": 0, "type": "channel", "subtype": "noteOff", "noteNumber": 40, "velocity": 0  },
      { "deltaTime": 1, "channel": 0, "type": "channel", "noteNumber": 46, "velocity": 64, "subtype": "noteOn"  },
      { "deltaTime": 239, "channel": 0, "type": "channel", "subtype": "noteOff", "noteNumber": 46, "velocity": 0  },
      { "deltaTime": 1, "channel": 0, "type": "channel", "noteNumber": 40, "velocity": 64, "subtype": "noteOn"  },
      { "deltaTime": 239, "channel": 0, "type": "channel", "subtype": "noteOff", "noteNumber": 40, "velocity": 0  },
      { "deltaTime": 1, "channel": 0, "type": "channel", "noteNumber": 47, "velocity": 64, "subtype": "noteOn"  },
      { "deltaTime": 239, "channel": 0, "type": "channel", "subtype": "noteOff", "noteNumber": 47, "velocity": 0  },
      { "deltaTime": 1, "channel": 0, "type": "channel", "noteNumber": 50, "velocity": 64, "subtype": "noteOn"  },
      { "deltaTime": 239, "channel": 0, "type": "channel", "subtype": "noteOff", "noteNumber": 50, "velocity": 0  },
      { "deltaTime": 1, "channel": 0, "type": "channel", "noteNumber": 47, "velocity": 64, "subtype": "noteOn"  },
      { "deltaTime": 239, "channel": 0, "type": "channel", "subtype": "noteOff", "noteNumber": 47, "velocity": 0  },
      { "deltaTime": 1, "channel": 0, "type": "channel", "noteNumber": 40, "velocity": 64, "subtype": "noteOn"  },
      { "deltaTime": 239, "channel": 0, "type": "channel", "subtype": "noteOff", "noteNumber": 40, "velocity": 0  },
      { "deltaTime": 1, "channel": 0, "type": "channel", "noteNumber": 47, "velocity": 64, "subtype": "noteOn"  },
      { "deltaTime": 239, "channel": 0, "type": "channel", "subtype": "noteOff", "noteNumber": 47, "velocity": 0  },
      { "deltaTime": 1, "channel": 0, "type": "channel", "noteNumber": 47, "velocity": 64, "subtype": "noteOn"  },
      { "deltaTime": 239, "channel": 0, "type": "channel", "subtype": "noteOff", "noteNumber": 47, "velocity": 0  },
      { "deltaTime": 1, "channel": 0, "type": "channel", "noteNumber": 40, "velocity": 64, "subtype": "noteOn"  },
      { "deltaTime": 239, "channel": 0, "type": "channel", "subtype": "noteOff", "noteNumber": 40, "velocity": 0  },
      { "deltaTime": 1, "channel": 0, "type": "channel", "noteNumber": 46, "velocity": 64, "subtype": "noteOn"  },
      { "deltaTime": 239, "channel": 0, "type": "channel", "subtype": "noteOff", "noteNumber": 46, "velocity": 0  },
      { "deltaTime": 1, "channel": 0, "type": "channel", "noteNumber": 46, "velocity": 64, "subtype": "noteOn"  },
      { "deltaTime": 239, "channel": 0, "type": "channel", "subtype": "noteOff", "noteNumber": 46, "velocity": 0  },
      { "deltaTime": 1, "channel": 0, "type": "channel", "noteNumber": 40, "velocity": 64, "subtype": "noteOn"  },
      { "deltaTime": 239, "channel": 0, "type": "channel", "subtype": "noteOff", "noteNumber": 40, "velocity": 0  },
      { "deltaTime": 1, "channel": 0, "type": "channel", "noteNumber": 47, "velocity": 64, "subtype": "noteOn"  },
      { "deltaTime": 239, "channel": 0, "type": "channel", "subtype": "noteOff", "noteNumber": 47, "velocity": 0  },
      { "deltaTime": 1, "channel": 0, "type": "channel", "noteNumber": 47, "velocity": 64, "subtype": "noteOn"  },
      { "deltaTime": 239, "channel": 0, "type": "channel", "subtype": "noteOff", "noteNumber": 47, "velocity": 0  },
      { "deltaTime": 1, "channel": 0, "type": "channel", "noteNumber": 40, "velocity": 64, "subtype": "noteOn"  },
      { "deltaTime": 239, "channel": 0, "type": "channel", "subtype": "noteOff", "noteNumber": 40, "velocity": 0  },
      { "deltaTime": 1, "channel": 0, "type": "channel", "noteNumber": 52, "velocity": 64, "subtype": "noteOn"  },
      { "deltaTime": 239, "channel": 0, "type": "channel", "subtype": "noteOff", "noteNumber": 52, "velocity": 0  },
      { "deltaTime": 1, "channel": 0, "type": "channel", "noteNumber": 40, "velocity": 64, "subtype": "noteOn"  },
      { "deltaTime": 239, "channel": 0, "type": "channel", "subtype": "noteOff", "noteNumber": 40, "velocity": 0  },
      { "deltaTime": 1, "channel": 0, "type": "channel", "noteNumber": 50, "velocity": 64, "subtype": "noteOn"  },
      { "deltaTime": 239, "channel": 0, "type": "channel", "subtype": "noteOff", "noteNumber": 50, "velocity": 0  },
      { "deltaTime": 1, "channel": 0, "type": "channel", "noteNumber": 40, "velocity": 64, "subtype": "noteOn"  },
      { "deltaTime": 239, "channel": 0, "type": "channel", "subtype": "noteOff", "noteNumber": 40, "velocity": 0  },
      { "deltaTime": 1, "channel": 0, "type": "channel", "noteNumber": 45, "velocity": 64, "subtype": "noteOn"  },
      { "deltaTime": 239, "channel": 0, "type": "channel", "subtype": "noteOff", "noteNumber": 45, "velocity": 0  },
      { "deltaTime": 1, "channel": 0, "type": "channel", "noteNumber": 44, "velocity": 64, "subtype": "noteOn"  },
      { "deltaTime": 239, "channel": 0, "type": "channel", "subtype": "noteOff", "noteNumber": 44, "velocity": 0  },
      { "deltaTime": 1, "channel": 0, "type": "channel", "noteNumber": 40, "velocity": 64, "subtype": "noteOn"  },
      { "deltaTime": 239, "channel": 0, "type": "channel", "subtype": "noteOff", "noteNumber": 40, "velocity": 0  },
      { "deltaTime": 1, "channel": 0, "type": "channel", "noteNumber": 52, "velocity": 64, "subtype": "noteOn"  },
      { "deltaTime": 239, "channel": 0, "type": "channel", "subtype": "noteOff", "noteNumber": 52, "velocity": 0  },
      { "deltaTime": 1, "channel": 0, "type": "channel", "noteNumber": 52, "velocity": 64, "subtype": "noteOn"  },
      { "deltaTime": 239, "channel": 0, "type": "channel", "subtype": "noteOff", "noteNumber": 52, "velocity": 0  },
      { "deltaTime": 1, "channel": 0, "type": "channel", "noteNumber": 40, "velocity": 64, "subtype": "noteOn"  },
      { "deltaTime": 239, "channel": 0, "type": "channel", "subtype": "noteOff", "noteNumber": 40, "velocity": 0  },
      { "deltaTime": 1, "channel": 0, "type": "channel", "noteNumber": 44, "velocity": 64, "subtype": "noteOn"  },
      { "deltaTime": 239, "channel": 0, "type": "channel", "subtype": "noteOff", "noteNumber": 44, "velocity": 0  },
      { "deltaTime": 1, "channel": 0, "type": "channel", "noteNumber": 45, "velocity": 64, "subtype": "noteOn"  },
      { "deltaTime": 239, "channel": 0, "type": "channel", "subtype": "noteOff", "noteNumber": 45, "velocity": 0  },
      { "deltaTime": 1, "channel": 0, "type": "channel", "noteNumber": 40, "velocity": 64, "subtype": "noteOn"  },
      { "deltaTime": 239, "channel": 0, "type": "channel", "subtype": "noteOff", "noteNumber": 40, "velocity": 0  },
      { "deltaTime": 1, "channel": 0, "type": "channel", "noteNumber": 46, "velocity": 64, "subtype": "noteOn"  },
      { "deltaTime": 239, "channel": 0, "type": "channel", "subtype": "noteOff", "noteNumber": 46, "velocity": 0  },
      { "deltaTime": 1, "channel": 0, "type": "channel", "noteNumber": 40, "velocity": 64, "subtype": "noteOn"  },
      { "deltaTime": 239, "channel": 0, "type": "channel", "subtype": "noteOff", "noteNumber": 40, "velocity": 0  },
      { "deltaTime": 1, "channel": 0, "type": "channel", "noteNumber": 47, "velocity": 64, "subtype": "noteOn"  },
      { "deltaTime": 239, "channel": 0, "type": "channel", "subtype": "noteOff", "noteNumber": 47, "velocity": 0  },
      { "deltaTime": 1, "channel": 0, "type": "channel", "noteNumber": 50, "velocity": 64, "subtype": "noteOn"  },
      { "deltaTime": 239, "channel": 0, "type": "channel", "subtype": "noteOff", "noteNumber": 50, "velocity": 0  },
      { "deltaTime": 1, "channel": 0, "type": "channel", "noteNumber": 47, "velocity": 64, "subtype": "noteOn"  },
      { "deltaTime": 239, "channel": 0, "type": "channel", "subtype": "noteOff", "noteNumber": 47, "velocity": 0  },
      { "deltaTime": 6721, "channel": 0, "type": "channel", "noteNumber": 40, "velocity": 64, "subtype": "noteOn"  },
      { "deltaTime": 239, "channel": 0, "type": "channel", "subtype": "noteOff", "noteNumber": 40, "velocity": 0  },
      { "deltaTime": 1, "channel": 0, "type": "channel", "noteNumber": 52, "velocity": 64, "subtype": "noteOn"  },
      { "deltaTime": 239, "channel": 0, "type": "channel", "subtype": "noteOff", "noteNumber": 52, "velocity": 0  },
      { "deltaTime": 1, "channel": 0, "type": "channel", "noteNumber": 40, "velocity": 64, "subtype": "noteOn"  },
      { "deltaTime": 239, "channel": 0, "type": "channel", "subtype": "noteOff", "noteNumber": 40, "velocity": 0  },
      { "deltaTime": 1, "channel": 0, "type": "channel", "noteNumber": 40, "velocity": 64, "subtype": "noteOn"  },
      { "deltaTime": 239, "channel": 0, "type": "channel", "subtype": "noteOff", "noteNumber": 40, "velocity": 0  },
      { "deltaTime": 1, "channel": 0, "type": "channel", "noteNumber": 50, "velocity": 64, "subtype": "noteOn"  },
      { "deltaTime": 239, "channel": 0, "type": "channel", "subtype": "noteOff", "noteNumber": 50, "velocity": 0  },
      { "deltaTime": 1, "channel": 0, "type": "channel", "noteNumber": 40, "velocity": 64, "subtype": "noteOn"  },
      { "deltaTime": 239, "channel": 0, "type": "channel", "subtype": "noteOff", "noteNumber": 40, "velocity": 0  },
      { "deltaTime": 1, "channel": 0, "type": "channel", "noteNumber": 40, "velocity": 64, "subtype": "noteOn"  },
      { "deltaTime": 239, "channel": 0, "type": "channel", "subtype": "noteOff", "noteNumber": 40, "velocity": 0  },
      { "deltaTime": 1, "channel": 0, "type": "channel", "noteNumber": 52, "velocity": 64, "subtype": "noteOn"  },
      { "deltaTime": 239, "channel": 0, "type": "channel", "subtype": "noteOff", "noteNumber": 52, "velocity": 0  },
      { "deltaTime": 1, "channel": 0, "type": "channel", "noteNumber": 40, "velocity": 64, "subtype": "noteOn"  },
      { "deltaTime": 239, "channel": 0, "type": "channel", "subtype": "noteOff", "noteNumber": 40, "velocity": 0  },
      { "deltaTime": 1, "channel": 0, "type": "channel", "noteNumber": 40, "velocity": 64, "subtype": "noteOn"  },
      { "deltaTime": 239, "channel": 0, "type": "channel", "subtype": "noteOff", "noteNumber": 40, "velocity": 0  },
      { "deltaTime": 1, "channel": 0, "type": "channel", "noteNumber": 47, "velocity": 64, "subtype": "noteOn"  },
      { "deltaTime": 239, "channel": 0, "type": "channel", "subtype": "noteOff", "noteNumber": 47, "velocity": 0  },
      { "deltaTime": 1, "channel": 0, "type": "channel", "noteNumber": 40, "velocity": 64, "subtype": "noteOn"  },
      { "deltaTime": 239, "channel": 0, "type": "channel", "subtype": "noteOff", "noteNumber": 40, "velocity": 0  },
      { "deltaTime": 1, "channel": 0, "type": "channel", "noteNumber": 50, "velocity": 64, "subtype": "noteOn"  },
      { "deltaTime": 239, "channel": 0, "type": "channel", "subtype": "noteOff", "noteNumber": 50, "velocity": 0  },
      { "deltaTime": 1, "channel": 0, "type": "channel", "noteNumber": 40, "velocity": 64, "subtype": "noteOn"  },
      { "deltaTime": 239, "channel": 0, "type": "channel", "subtype": "noteOff", "noteNumber": 40, "velocity": 0  },
      { "deltaTime": 1, "channel": 0, "type": "channel", "noteNumber": 49, "velocity": 64, "subtype": "noteOn"  },
      { "deltaTime": 239, "channel": 0, "type": "channel", "subtype": "noteOff", "noteNumber": 49, "velocity": 0  },
      { "deltaTime": 1, "channel": 0, "type": "channel", "noteNumber": 50, "velocity": 64, "subtype": "noteOn"  },
      { "deltaTime": 239, "channel": 0, "type": "channel", "subtype": "noteOff", "noteNumber": 50, "velocity": 0  },
      { "deltaTime": 1, "channel": 0, "type": "channel", "noteNumber": 40, "velocity": 64, "subtype": "noteOn"  },
      { "deltaTime": 239, "channel": 0, "type": "channel", "subtype": "noteOff", "noteNumber": 40, "velocity": 0  },
      { "deltaTime": 1, "channel": 0, "type": "channel", "noteNumber": 52, "velocity": 64, "subtype": "noteOn"  },
      { "deltaTime": 239, "channel": 0, "type": "channel", "subtype": "noteOff", "noteNumber": 52, "velocity": 0  },
      { "deltaTime": 1, "channel": 0, "type": "channel", "noteNumber": 40, "velocity": 64, "subtype": "noteOn"  },
      { "deltaTime": 239, "channel": 0, "type": "channel", "subtype": "noteOff", "noteNumber": 40, "velocity": 0  },
      { "deltaTime": 1, "channel": 0, "type": "channel", "noteNumber": 40, "velocity": 64, "subtype": "noteOn"  },
      { "deltaTime": 239, "channel": 0, "type": "channel", "subtype": "noteOff", "noteNumber": 40, "velocity": 0  },
      { "deltaTime": 1, "channel": 0, "type": "channel", "noteNumber": 50, "velocity": 64, "subtype": "noteOn"  },
      { "deltaTime": 239, "channel": 0, "type": "channel", "subtype": "noteOff", "noteNumber": 50, "velocity": 0  },
      { "deltaTime": 1, "channel": 0, "type": "channel", "noteNumber": 40, "velocity": 64, "subtype": "noteOn"  },
      { "deltaTime": 239, "channel": 0, "type": "channel", "subtype": "noteOff", "noteNumber": 40, "velocity": 0  },
      { "deltaTime": 1, "channel": 0, "type": "channel", "noteNumber": 40, "velocity": 64, "subtype": "noteOn"  },
      { "deltaTime": 239, "channel": 0, "type": "channel", "subtype": "noteOff", "noteNumber": 40, "velocity": 0  },
      { "deltaTime": 1, "channel": 0, "type": "channel", "noteNumber": 52, "velocity": 64, "subtype": "noteOn"  },
      { "deltaTime": 239, "channel": 0, "type": "channel", "subtype": "noteOff", "noteNumber": 52, "velocity": 0  },
      { "deltaTime": 1, "channel": 0, "type": "channel", "noteNumber": 40, "velocity": 64, "subtype": "noteOn"  },
      { "deltaTime": 239, "channel": 0, "type": "channel", "subtype": "noteOff", "noteNumber": 40, "velocity": 0  },
      { "deltaTime": 1, "channel": 0, "type": "channel", "noteNumber": 40, "velocity": 64, "subtype": "noteOn"  },
      { "deltaTime": 239, "channel": 0, "type": "channel", "subtype": "noteOff", "noteNumber": 40, "velocity": 0  },
      { "deltaTime": 1, "channel": 0, "type": "channel", "noteNumber": 56, "velocity": 64, "subtype": "noteOn"  },
      { "deltaTime": 239, "channel": 0, "type": "channel", "subtype": "noteOff", "noteNumber": 56, "velocity": 0  },
      { "deltaTime": 1, "channel": 0, "type": "channel", "noteNumber": 40, "velocity": 64, "subtype": "noteOn"  },
      { "deltaTime": 239, "channel": 0, "type": "channel", "subtype": "noteOff", "noteNumber": 40, "velocity": 0  },
      { "deltaTime": 1, "channel": 0, "type": "channel", "noteNumber": 40, "velocity": 64, "subtype": "noteOn"  },
      { "deltaTime": 239, "channel": 0, "type": "channel", "subtype": "noteOff", "noteNumber": 40, "velocity": 0  },
      { "deltaTime": 1, "channel": 0, "type": "channel", "noteNumber": 52, "velocity": 64, "subtype": "noteOn"  },
      { "deltaTime": 239, "channel": 0, "type": "channel", "subtype": "noteOff", "noteNumber": 52, "velocity": 0  },
      { "deltaTime": 1, "channel": 0, "type": "channel", "noteNumber": 40, "velocity": 64, "subtype": "noteOn"  },
      { "deltaTime": 239, "channel": 0, "type": "channel", "subtype": "noteOff", "noteNumber": 40, "velocity": 0  },
      { "deltaTime": 1, "channel": 0, "type": "channel", "noteNumber": 40, "velocity": 64, "subtype": "noteOn"  },
      { "deltaTime": 239, "channel": 0, "type": "channel", "subtype": "noteOff", "noteNumber": 40, "velocity": 0  },
      { "deltaTime": 1, "channel": 0, "type": "channel", "noteNumber": 50, "velocity": 64, "subtype": "noteOn"  },
      { "deltaTime": 239, "channel": 0, "type": "channel", "subtype": "noteOff", "noteNumber": 50, "velocity": 0  },
      { "deltaTime": 1, "channel": 0, "type": "channel", "noteNumber": 40, "velocity": 64, "subtype": "noteOn"  },
      { "deltaTime": 239, "channel": 0, "type": "channel", "subtype": "noteOff", "noteNumber": 40, "velocity": 0  },
      { "deltaTime": 1, "channel": 0, "type": "channel", "noteNumber": 40, "velocity": 64, "subtype": "noteOn"  },
      { "deltaTime": 239, "channel": 0, "type": "channel", "subtype": "noteOff", "noteNumber": 40, "velocity": 0  },
      { "deltaTime": 1, "channel": 0, "type": "channel", "noteNumber": 52, "velocity": 64, "subtype": "noteOn"  },
      { "deltaTime": 239, "channel": 0, "type": "channel", "subtype": "noteOff", "noteNumber": 52, "velocity": 0  },
      { "deltaTime": 1, "channel": 0, "type": "channel", "noteNumber": 40, "velocity": 64, "subtype": "noteOn"  },
      { "deltaTime": 239, "channel": 0, "type": "channel", "subtype": "noteOff", "noteNumber": 40, "velocity": 0  },
      { "deltaTime": 1, "channel": 0, "type": "channel", "noteNumber": 40, "velocity": 64, "subtype": "noteOn"  },
      { "deltaTime": 239, "channel": 0, "type": "channel", "subtype": "noteOff", "noteNumber": 40, "velocity": 0  },
      { "deltaTime": 1, "channel": 0, "type": "channel", "noteNumber": 47, "velocity": 64, "subtype": "noteOn"  },
      { "deltaTime": 239, "channel": 0, "type": "channel", "subtype": "noteOff", "noteNumber": 47, "velocity": 0  },
      { "deltaTime": 1, "channel": 0, "type": "channel", "noteNumber": 40, "velocity": 64, "subtype": "noteOn"  },
      { "deltaTime": 239, "channel": 0, "type": "channel", "subtype": "noteOff", "noteNumber": 40, "velocity": 0  },
      { "deltaTime": 1, "channel": 0, "type": "channel", "noteNumber": 50, "velocity": 64, "subtype": "noteOn"  },
      { "deltaTime": 239, "channel": 0, "type": "channel", "subtype": "noteOff", "noteNumber": 50, "velocity": 0  },
      { "deltaTime": 1, "channel": 0, "type": "channel", "noteNumber": 40, "velocity": 64, "subtype": "noteOn"  },
      { "deltaTime": 239, "channel": 0, "type": "channel", "subtype": "noteOff", "noteNumber": 40, "velocity": 0  },
      { "deltaTime": 1, "channel": 0, "type": "channel", "noteNumber": 49, "velocity": 64, "subtype": "noteOn"  },
      { "deltaTime": 239, "channel": 0, "type": "channel", "subtype": "noteOff", "noteNumber": 49, "velocity": 0  },
      { "deltaTime": 1, "channel": 0, "type": "channel", "noteNumber": 50, "velocity": 64, "subtype": "noteOn"  },
      { "deltaTime": 239, "channel": 0, "type": "channel", "subtype": "noteOff", "noteNumber": 50, "velocity": 0  },
      { "deltaTime": 1, "channel": 0, "type": "channel", "noteNumber": 40, "velocity": 64, "subtype": "noteOn"  },
      { "deltaTime": 239, "channel": 0, "type": "channel", "subtype": "noteOff", "noteNumber": 40, "velocity": 0  },
      { "deltaTime": 1, "channel": 0, "type": "channel", "noteNumber": 52, "velocity": 64, "subtype": "noteOn"  },
      { "deltaTime": 239, "channel": 0, "type": "channel", "subtype": "noteOff", "noteNumber": 52, "velocity": 0  },
      { "deltaTime": 1, "channel": 0, "type": "channel", "noteNumber": 40, "velocity": 64, "subtype": "noteOn"  },
      { "deltaTime": 239, "channel": 0, "type": "channel", "subtype": "noteOff", "noteNumber": 40, "velocity": 0  },
      { "deltaTime": 1, "channel": 0, "type": "channel", "noteNumber": 40, "velocity": 64, "subtype": "noteOn"  },
      { "deltaTime": 239, "channel": 0, "type": "channel", "subtype": "noteOff", "noteNumber": 40, "velocity": 0  },
      { "deltaTime": 1, "channel": 0, "type": "channel", "noteNumber": 50, "velocity": 64, "subtype": "noteOn"  },
      { "deltaTime": 239, "channel": 0, "type": "channel", "subtype": "noteOff", "noteNumber": 50, "velocity": 0  },
      { "deltaTime": 1, "channel": 0, "type": "channel", "noteNumber": 40, "velocity": 64, "subtype": "noteOn"  },
      { "deltaTime": 239, "channel": 0, "type": "channel", "subtype": "noteOff", "noteNumber": 40, "velocity": 0  },
      { "deltaTime": 1, "channel": 0, "type": "channel", "noteNumber": 40, "velocity": 64, "subtype": "noteOn"  },
      { "deltaTime": 239, "channel": 0, "type": "channel", "subtype": "noteOff", "noteNumber": 40, "velocity": 0  },
      { "deltaTime": 1, "channel": 0, "type": "channel", "noteNumber": 52, "velocity": 64, "subtype": "noteOn"  },
      { "deltaTime": 239, "channel": 0, "type": "channel", "subtype": "noteOff", "noteNumber": 52, "velocity": 0  },
      { "deltaTime": 1, "channel": 0, "type": "channel", "noteNumber": 40, "velocity": 64, "subtype": "noteOn"  },
      { "deltaTime": 239, "channel": 0, "type": "channel", "subtype": "noteOff", "noteNumber": 40, "velocity": 0  },
      { "deltaTime": 1, "channel": 0, "type": "channel", "noteNumber": 40, "velocity": 64, "subtype": "noteOn"  },
      { "deltaTime": 239, "channel": 0, "type": "channel", "subtype": "noteOff", "noteNumber": 40, "velocity": 0  },
      { "deltaTime": 1, "channel": 0, "type": "channel", "noteNumber": 56, "velocity": 64, "subtype": "noteOn"  },
      { "deltaTime": 239, "channel": 0, "type": "channel", "subtype": "noteOff", "noteNumber": 56, "velocity": 0  },
      { "deltaTime": 1, "channel": 0, "type": "channel", "noteNumber": 40, "velocity": 64, "subtype": "noteOn"  },
      { "deltaTime": 239, "channel": 0, "type": "channel", "subtype": "noteOff", "noteNumber": 40, "velocity": 0  },
      { "deltaTime": 1, "channel": 0, "type": "channel", "noteNumber": 40, "velocity": 64, "subtype": "noteOn"  },
      { "deltaTime": 239, "channel": 0, "type": "channel", "subtype": "noteOff", "noteNumber": 40, "velocity": 0  },
      { "deltaTime": 1, "channel": 0, "type": "channel", "noteNumber": 52, "velocity": 64, "subtype": "noteOn"  },
      { "deltaTime": 239, "channel": 0, "type": "channel", "subtype": "noteOff", "noteNumber": 52, "velocity": 0  },
      { "deltaTime": 1, "channel": 0, "type": "channel", "noteNumber": 40, "velocity": 64, "subtype": "noteOn"  },
      { "deltaTime": 239, "channel": 0, "type": "channel", "subtype": "noteOff", "noteNumber": 40, "velocity": 0  },
      { "deltaTime": 1, "channel": 0, "type": "channel", "noteNumber": 40, "velocity": 64, "subtype": "noteOn"  },
      { "deltaTime": 239, "channel": 0, "type": "channel", "subtype": "noteOff", "noteNumber": 40, "velocity": 0  },
      { "deltaTime": 1, "channel": 0, "type": "channel", "noteNumber": 50, "velocity": 64, "subtype": "noteOn"  },
      { "deltaTime": 239, "channel": 0, "type": "channel", "subtype": "noteOff", "noteNumber": 50, "velocity": 0  },
      { "deltaTime": 1, "channel": 0, "type": "channel", "noteNumber": 40, "velocity": 64, "subtype": "noteOn"  },
      { "deltaTime": 239, "channel": 0, "type": "channel", "subtype": "noteOff", "noteNumber": 40, "velocity": 0  },
      { "deltaTime": 1, "channel": 0, "type": "channel", "noteNumber": 40, "velocity": 64, "subtype": "noteOn"  },
      { "deltaTime": 239, "channel": 0, "type": "channel", "subtype": "noteOff", "noteNumber": 40, "velocity": 0  },
      { "deltaTime": 1, "channel": 0, "type": "channel", "noteNumber": 52, "velocity": 64, "subtype": "noteOn"  },
      { "deltaTime": 239, "channel": 0, "type": "channel", "subtype": "noteOff", "noteNumber": 52, "velocity": 0  },
      { "deltaTime": 1, "channel": 0, "type": "channel", "noteNumber": 40, "velocity": 64, "subtype": "noteOn"  },
      { "deltaTime": 239, "channel": 0, "type": "channel", "subtype": "noteOff", "noteNumber": 40, "velocity": 0  },
      { "deltaTime": 1, "channel": 0, "type": "channel", "noteNumber": 40, "velocity": 64, "subtype": "noteOn"  },
      { "deltaTime": 239, "channel": 0, "type": "channel", "subtype": "noteOff", "noteNumber": 40, "velocity": 0  },
      { "deltaTime": 1, "channel": 0, "type": "channel", "noteNumber": 47, "velocity": 64, "subtype": "noteOn"  },
      { "deltaTime": 239, "channel": 0, "type": "channel", "subtype": "noteOff", "noteNumber": 47, "velocity": 0  },
      { "deltaTime": 1, "channel": 0, "type": "channel", "noteNumber": 40, "velocity": 64, "subtype": "noteOn"  },
      { "deltaTime": 239, "channel": 0, "type": "channel", "subtype": "noteOff", "noteNumber": 40, "velocity": 0  },
      { "deltaTime": 1, "channel": 0, "type": "channel", "noteNumber": 50, "velocity": 64, "subtype": "noteOn"  },
      { "deltaTime": 239, "channel": 0, "type": "channel", "subtype": "noteOff", "noteNumber": 50, "velocity": 0  },
      { "deltaTime": 1, "channel": 0, "type": "channel", "noteNumber": 40, "velocity": 64, "subtype": "noteOn"  },
      { "deltaTime": 239, "channel": 0, "type": "channel", "subtype": "noteOff", "noteNumber": 40, "velocity": 0  },
      { "deltaTime": 1, "channel": 0, "type": "channel", "noteNumber": 49, "velocity": 64, "subtype": "noteOn"  },
      { "deltaTime": 239, "channel": 0, "type": "channel", "subtype": "noteOff", "noteNumber": 49, "velocity": 0  },
      { "deltaTime": 1, "channel": 0, "type": "channel", "noteNumber": 50, "velocity": 64, "subtype": "noteOn"  },
      { "deltaTime": 239, "channel": 0, "type": "channel", "subtype": "noteOff", "noteNumber": 50, "velocity": 0  },
      { "deltaTime": 1, "channel": 0, "type": "channel", "noteNumber": 40, "velocity": 64, "subtype": "noteOn"  },
      { "deltaTime": 239, "channel": 0, "type": "channel", "subtype": "noteOff", "noteNumber": 40, "velocity": 0  },
      { "deltaTime": 1, "channel": 0, "type": "channel", "noteNumber": 52, "velocity": 64, "subtype": "noteOn"  },
      { "deltaTime": 239, "channel": 0, "type": "channel", "subtype": "noteOff", "noteNumber": 52, "velocity": 0  },
      { "deltaTime": 1, "channel": 0, "type": "channel", "noteNumber": 40, "velocity": 64, "subtype": "noteOn"  },
      { "deltaTime": 239, "channel": 0, "type": "channel", "subtype": "noteOff", "noteNumber": 40, "velocity": 0  },
      { "deltaTime": 1, "channel": 0, "type": "channel", "noteNumber": 40, "velocity": 64, "subtype": "noteOn"  },
      { "deltaTime": 239, "channel": 0, "type": "channel", "subtype": "noteOff", "noteNumber": 40, "velocity": 0  },
      { "deltaTime": 1, "channel": 0, "type": "channel", "noteNumber": 50, "velocity": 64, "subtype": "noteOn"  },
      { "deltaTime": 239, "channel": 0, "type": "channel", "subtype": "noteOff", "noteNumber": 50, "velocity": 0  },
      { "deltaTime": 1, "channel": 0, "type": "channel", "noteNumber": 40, "velocity": 64, "subtype": "noteOn"  },
      { "deltaTime": 239, "channel": 0, "type": "channel", "subtype": "noteOff", "noteNumber": 40, "velocity": 0  },
      { "deltaTime": 1, "channel": 0, "type": "channel", "noteNumber": 40, "velocity": 64, "subtype": "noteOn"  },
      { "deltaTime": 239, "channel": 0, "type": "channel", "subtype": "noteOff", "noteNumber": 40, "velocity": 0  },
      { "deltaTime": 1, "channel": 0, "type": "channel", "noteNumber": 52, "velocity": 64, "subtype": "noteOn"  },
      { "deltaTime": 239, "channel": 0, "type": "channel", "subtype": "noteOff", "noteNumber": 52, "velocity": 0  },
      { "deltaTime": 1, "channel": 0, "type": "channel", "noteNumber": 40, "velocity": 64, "subtype": "noteOn"  },
      { "deltaTime": 239, "channel": 0, "type": "channel", "subtype": "noteOff", "noteNumber": 40, "velocity": 0  },
      { "deltaTime": 1, "channel": 0, "type": "channel", "noteNumber": 40, "velocity": 64, "subtype": "noteOn"  },
      { "deltaTime": 239, "channel": 0, "type": "channel", "subtype": "noteOff", "noteNumber": 40, "velocity": 0  },
      { "deltaTime": 1, "channel": 0, "type": "channel", "noteNumber": 56, "velocity": 64, "subtype": "noteOn"  },
      { "deltaTime": 239, "channel": 0, "type": "channel", "subtype": "noteOff", "noteNumber": 56, "velocity": 0  },
      { "deltaTime": 1, "channel": 0, "type": "channel", "noteNumber": 40, "velocity": 64, "subtype": "noteOn"  },
      { "deltaTime": 239, "channel": 0, "type": "channel", "subtype": "noteOff", "noteNumber": 40, "velocity": 0  },
      { "deltaTime": 1, "channel": 0, "type": "channel", "noteNumber": 40, "velocity": 64, "subtype": "noteOn"  },
      { "deltaTime": 239, "channel": 0, "type": "channel", "subtype": "noteOff", "noteNumber": 40, "velocity": 0  },
      { "deltaTime": 1, "channel": 0, "type": "channel", "noteNumber": 47, "velocity": 64, "subtype": "noteOn"  },
      { "deltaTime": 239, "channel": 0, "type": "channel", "subtype": "noteOff", "noteNumber": 47, "velocity": 0  },
      { "deltaTime": 1, "channel": 0, "type": "channel", "noteNumber": 47, "velocity": 64, "subtype": "noteOn"  },
      { "deltaTime": 239, "channel": 0, "type": "channel", "subtype": "noteOff", "noteNumber": 47, "velocity": 0  },
      { "deltaTime": 1, "channel": 0, "type": "channel", "noteNumber": 40, "velocity": 64, "subtype": "noteOn"  },
      { "deltaTime": 239, "channel": 0, "type": "channel", "subtype": "noteOff", "noteNumber": 40, "velocity": 0  },
      { "deltaTime": 1, "channel": 0, "type": "channel", "noteNumber": 46, "velocity": 64, "subtype": "noteOn"  },
      { "deltaTime": 239, "channel": 0, "type": "channel", "subtype": "noteOff", "noteNumber": 46, "velocity": 0  },
      { "deltaTime": 1, "channel": 0, "type": "channel", "noteNumber": 46, "velocity": 64, "subtype": "noteOn"  },
      { "deltaTime": 239, "channel": 0, "type": "channel", "subtype": "noteOff", "noteNumber": 46, "velocity": 0  },
      { "deltaTime": 1, "channel": 0, "type": "channel", "noteNumber": 40, "velocity": 64, "subtype": "noteOn"  },
      { "deltaTime": 239, "channel": 0, "type": "channel", "subtype": "noteOff", "noteNumber": 40, "velocity": 0  },
      { "deltaTime": 1, "channel": 0, "type": "channel", "noteNumber": 47, "velocity": 64, "subtype": "noteOn"  },
      { "deltaTime": 239, "channel": 0, "type": "channel", "subtype": "noteOff", "noteNumber": 47, "velocity": 0  },
      { "deltaTime": 1, "channel": 0, "type": "channel", "noteNumber": 47, "velocity": 64, "subtype": "noteOn"  },
      { "deltaTime": 239, "channel": 0, "type": "channel", "subtype": "noteOff", "noteNumber": 47, "velocity": 0  },
      { "deltaTime": 1, "channel": 0, "type": "channel", "noteNumber": 40, "velocity": 64, "subtype": "noteOn"  },
      { "deltaTime": 239, "channel": 0, "type": "channel", "subtype": "noteOff", "noteNumber": 40, "velocity": 0  },
      { "deltaTime": 1, "channel": 0, "type": "channel", "noteNumber": 52, "velocity": 64, "subtype": "noteOn"  },
      { "deltaTime": 239, "channel": 0, "type": "channel", "subtype": "noteOff", "noteNumber": 52, "velocity": 0  },
      { "deltaTime": 1, "channel": 0, "type": "channel", "noteNumber": 40, "velocity": 64, "subtype": "noteOn"  },
      { "deltaTime": 239, "channel": 0, "type": "channel", "subtype": "noteOff", "noteNumber": 40, "velocity": 0  },
      { "deltaTime": 1, "channel": 0, "type": "channel", "noteNumber": 50, "velocity": 64, "subtype": "noteOn"  },
      { "deltaTime": 239, "channel": 0, "type": "channel", "subtype": "noteOff", "noteNumber": 50, "velocity": 0  },
      { "deltaTime": 1, "channel": 0, "type": "channel", "noteNumber": 40, "velocity": 64, "subtype": "noteOn"  },
      { "deltaTime": 239, "channel": 0, "type": "channel", "subtype": "noteOff", "noteNumber": 40, "velocity": 0  },
      { "deltaTime": 1, "channel": 0, "type": "channel", "noteNumber": 45, "velocity": 64, "subtype": "noteOn"  },
      { "deltaTime": 239, "channel": 0, "type": "channel", "subtype": "noteOff", "noteNumber": 45, "velocity": 0  },
      { "deltaTime": 1, "channel": 0, "type": "channel", "noteNumber": 44, "velocity": 64, "subtype": "noteOn"  },
      { "deltaTime": 239, "channel": 0, "type": "channel", "subtype": "noteOff", "noteNumber": 44, "velocity": 0  },
      { "deltaTime": 1, "channel": 0, "type": "channel", "noteNumber": 40, "velocity": 64, "subtype": "noteOn"  },
      { "deltaTime": 239, "channel": 0, "type": "channel", "subtype": "noteOff", "noteNumber": 40, "velocity": 0  },
      { "deltaTime": 1, "channel": 0, "type": "channel", "noteNumber": 52, "velocity": 64, "subtype": "noteOn"  },
      { "deltaTime": 239, "channel": 0, "type": "channel", "subtype": "noteOff", "noteNumber": 52, "velocity": 0  },
      { "deltaTime": 1, "channel": 0, "type": "channel", "noteNumber": 52, "velocity": 64, "subtype": "noteOn"  },
      { "deltaTime": 239, "channel": 0, "type": "channel", "subtype": "noteOff", "noteNumber": 52, "velocity": 0  },
      { "deltaTime": 1, "channel": 0, "type": "channel", "noteNumber": 40, "velocity": 64, "subtype": "noteOn"  },
      { "deltaTime": 239, "channel": 0, "type": "channel", "subtype": "noteOff", "noteNumber": 40, "velocity": 0  },
      { "deltaTime": 1, "channel": 0, "type": "channel", "noteNumber": 44, "velocity": 64, "subtype": "noteOn"  },
      { "deltaTime": 239, "channel": 0, "type": "channel", "subtype": "noteOff", "noteNumber": 44, "velocity": 0  },
      { "deltaTime": 1, "channel": 0, "type": "channel", "noteNumber": 45, "velocity": 64, "subtype": "noteOn"  },
      { "deltaTime": 239, "channel": 0, "type": "channel", "subtype": "noteOff", "noteNumber": 45, "velocity": 0  },
      { "deltaTime": 1, "channel": 0, "type": "channel", "noteNumber": 40, "velocity": 64, "subtype": "noteOn"  },
      { "deltaTime": 239, "channel": 0, "type": "channel", "subtype": "noteOff", "noteNumber": 40, "velocity": 0  },
      { "deltaTime": 1, "channel": 0, "type": "channel", "noteNumber": 46, "velocity": 64, "subtype": "noteOn"  },
      { "deltaTime": 239, "channel": 0, "type": "channel", "subtype": "noteOff", "noteNumber": 46, "velocity": 0  },
      { "deltaTime": 1, "channel": 0, "type": "channel", "noteNumber": 40, "velocity": 64, "subtype": "noteOn"  },
      { "deltaTime": 239, "channel": 0, "type": "channel", "subtype": "noteOff", "noteNumber": 40, "velocity": 0  },
      { "deltaTime": 1, "channel": 0, "type": "channel", "noteNumber": 47, "velocity": 64, "subtype": "noteOn"  },
      { "deltaTime": 239, "channel": 0, "type": "channel", "subtype": "noteOff", "noteNumber": 47, "velocity": 0  },
      { "deltaTime": 1, "channel": 0, "type": "channel", "noteNumber": 50, "velocity": 64, "subtype": "noteOn"  },
      { "deltaTime": 239, "channel": 0, "type": "channel", "subtype": "noteOff", "noteNumber": 50, "velocity": 0  },
      { "deltaTime": 1, "channel": 0, "type": "channel", "noteNumber": 47, "velocity": 64, "subtype": "noteOn"  },
      { "deltaTime": 239, "channel": 0, "type": "channel", "subtype": "noteOff", "noteNumber": 47, "velocity": 0  },
      { "deltaTime": 1, "channel": 0, "type": "channel", "noteNumber": 40, "velocity": 64, "subtype": "noteOn"  },
      { "deltaTime": 239, "channel": 0, "type": "channel", "subtype": "noteOff", "noteNumber": 40, "velocity": 0  },
      { "deltaTime": 1, "channel": 0, "type": "channel", "noteNumber": 47, "velocity": 64, "subtype": "noteOn"  },
      { "deltaTime": 239, "channel": 0, "type": "channel", "subtype": "noteOff", "noteNumber": 47, "velocity": 0  },
      { "deltaTime": 1, "channel": 0, "type": "channel", "noteNumber": 47, "velocity": 64, "subtype": "noteOn"  },
      { "deltaTime": 239, "channel": 0, "type": "channel", "subtype": "noteOff", "noteNumber": 47, "velocity": 0  },
      { "deltaTime": 1, "channel": 0, "type": "channel", "noteNumber": 40, "velocity": 64, "subtype": "noteOn"  },
      { "deltaTime": 239, "channel": 0, "type": "channel", "subtype": "noteOff", "noteNumber": 40, "velocity": 0  },
      { "deltaTime": 1, "channel": 0, "type": "channel", "noteNumber": 46, "velocity": 64, "subtype": "noteOn"  },
      { "deltaTime": 239, "channel": 0, "type": "channel", "subtype": "noteOff", "noteNumber": 46, "velocity": 0  },
      { "deltaTime": 1, "channel": 0, "type": "channel", "noteNumber": 46, "velocity": 64, "subtype": "noteOn"  },
      { "deltaTime": 239, "channel": 0, "type": "channel", "subtype": "noteOff", "noteNumber": 46, "velocity": 0  },
      { "deltaTime": 1, "channel": 0, "type": "channel", "noteNumber": 40, "velocity": 64, "subtype": "noteOn"  },
      { "deltaTime": 239, "channel": 0, "type": "channel", "subtype": "noteOff", "noteNumber": 40, "velocity": 0  },
      { "deltaTime": 1, "channel": 0, "type": "channel", "noteNumber": 47, "velocity": 64, "subtype": "noteOn"  },
      { "deltaTime": 239, "channel": 0, "type": "channel", "subtype": "noteOff", "noteNumber": 47, "velocity": 0  },
      { "deltaTime": 1, "channel": 0, "type": "channel", "noteNumber": 47, "velocity": 64, "subtype": "noteOn"  },
      { "deltaTime": 239, "channel": 0, "type": "channel", "subtype": "noteOff", "noteNumber": 47, "velocity": 0  },
      { "deltaTime": 1, "channel": 0, "type": "channel", "noteNumber": 40, "velocity": 64, "subtype": "noteOn"  },
      { "deltaTime": 239, "channel": 0, "type": "channel", "subtype": "noteOff", "noteNumber": 40, "velocity": 0  },
      { "deltaTime": 1, "channel": 0, "type": "channel", "noteNumber": 52, "velocity": 64, "subtype": "noteOn"  },
      { "deltaTime": 239, "channel": 0, "type": "channel", "subtype": "noteOff", "noteNumber": 52, "velocity": 0  },
      { "deltaTime": 1, "channel": 0, "type": "channel", "noteNumber": 40, "velocity": 64, "subtype": "noteOn"  },
      { "deltaTime": 239, "channel": 0, "type": "channel", "subtype": "noteOff", "noteNumber": 40, "velocity": 0  },
      { "deltaTime": 1, "channel": 0, "type": "channel", "noteNumber": 50, "velocity": 64, "subtype": "noteOn"  },
      { "deltaTime": 239, "channel": 0, "type": "channel", "subtype": "noteOff", "noteNumber": 50, "velocity": 0  },
      { "deltaTime": 1, "channel": 0, "type": "channel", "noteNumber": 40, "velocity": 64, "subtype": "noteOn"  },
      { "deltaTime": 239, "channel": 0, "type": "channel", "subtype": "noteOff", "noteNumber": 40, "velocity": 0  },
      { "deltaTime": 1, "channel": 0, "type": "channel", "noteNumber": 45, "velocity": 64, "subtype": "noteOn"  },
      { "deltaTime": 239, "channel": 0, "type": "channel", "subtype": "noteOff", "noteNumber": 45, "velocity": 0  },
      { "deltaTime": 1, "channel": 0, "type": "channel", "noteNumber": 44, "velocity": 64, "subtype": "noteOn"  },
      { "deltaTime": 239, "channel": 0, "type": "channel", "subtype": "noteOff", "noteNumber": 44, "velocity": 0  },
      { "deltaTime": 1, "channel": 0, "type": "channel", "noteNumber": 40, "velocity": 64, "subtype": "noteOn"  },
      { "deltaTime": 239, "channel": 0, "type": "channel", "subtype": "noteOff", "noteNumber": 40, "velocity": 0  },
      { "deltaTime": 1, "channel": 0, "type": "channel", "noteNumber": 52, "velocity": 64, "subtype": "noteOn"  },
      { "deltaTime": 239, "channel": 0, "type": "channel", "subtype": "noteOff", "noteNumber": 52, "velocity": 0  },
      { "deltaTime": 1, "channel": 0, "type": "channel", "noteNumber": 52, "velocity": 64, "subtype": "noteOn"  },
      { "deltaTime": 239, "channel": 0, "type": "channel", "subtype": "noteOff", "noteNumber": 52, "velocity": 0  },
      { "deltaTime": 1, "channel": 0, "type": "channel", "noteNumber": 40, "velocity": 64, "subtype": "noteOn"  },
      { "deltaTime": 239, "channel": 0, "type": "channel", "subtype": "noteOff", "noteNumber": 40, "velocity": 0  },
      { "deltaTime": 1, "channel": 0, "type": "channel", "noteNumber": 44, "velocity": 64, "subtype": "noteOn"  },
      { "deltaTime": 239, "channel": 0, "type": "channel", "subtype": "noteOff", "noteNumber": 44, "velocity": 0  },
      { "deltaTime": 1, "channel": 0, "type": "channel", "noteNumber": 45, "velocity": 64, "subtype": "noteOn"  },
      { "deltaTime": 239, "channel": 0, "type": "channel", "subtype": "noteOff", "noteNumber": 45, "velocity": 0  },
      { "deltaTime": 1, "channel": 0, "type": "channel", "noteNumber": 40, "velocity": 64, "subtype": "noteOn"  },
      { "deltaTime": 239, "channel": 0, "type": "channel", "subtype": "noteOff", "noteNumber": 40, "velocity": 0  },
      { "deltaTime": 1, "channel": 0, "type": "channel", "noteNumber": 46, "velocity": 64, "subtype": "noteOn"  },
      { "deltaTime": 239, "channel": 0, "type": "channel", "subtype": "noteOff", "noteNumber": 46, "velocity": 0  },
      { "deltaTime": 1, "channel": 0, "type": "channel", "noteNumber": 40, "velocity": 64, "subtype": "noteOn"  },
      { "deltaTime": 239, "channel": 0, "type": "channel", "subtype": "noteOff", "noteNumber": 40, "velocity": 0  },
      { "deltaTime": 1, "channel": 0, "type": "channel", "noteNumber": 47, "velocity": 64, "subtype": "noteOn"  },
      { "deltaTime": 239, "channel": 0, "type": "channel", "subtype": "noteOff", "noteNumber": 47, "velocity": 0  },
      { "deltaTime": 1, "channel": 0, "type": "channel", "noteNumber": 50, "velocity": 64, "subtype": "noteOn"  },
      { "deltaTime": 239, "channel": 0, "type": "channel", "subtype": "noteOff", "noteNumber": 50, "velocity": 0  },
      { "deltaTime": 1, "channel": 0, "type": "channel", "noteNumber": 47, "velocity": 64, "subtype": "noteOn"  },
      { "deltaTime": 239, "channel": 0, "type": "channel", "subtype": "noteOff", "noteNumber": 47, "velocity": 0  },
      { "deltaTime": 1, "channel": 0, "type": "channel", "noteNumber": 40, "velocity": 64, "subtype": "noteOn"  },
      { "deltaTime": 239, "channel": 0, "type": "channel", "subtype": "noteOff", "noteNumber": 40, "velocity": 0  },
      { "deltaTime": 1, "channel": 0, "type": "channel", "noteNumber": 47, "velocity": 64, "subtype": "noteOn"  },
      { "deltaTime": 239, "channel": 0, "type": "channel", "subtype": "noteOff", "noteNumber": 47, "velocity": 0  },
      { "deltaTime": 1, "channel": 0, "type": "channel", "noteNumber": 47, "velocity": 64, "subtype": "noteOn"  },
      { "deltaTime": 239, "channel": 0, "type": "channel", "subtype": "noteOff", "noteNumber": 47, "velocity": 0  },
      { "deltaTime": 1, "channel": 0, "type": "channel", "noteNumber": 40, "velocity": 64, "subtype": "noteOn"  },
      { "deltaTime": 239, "channel": 0, "type": "channel", "subtype": "noteOff", "noteNumber": 40, "velocity": 0  },
      { "deltaTime": 1, "channel": 0, "type": "channel", "noteNumber": 46, "velocity": 64, "subtype": "noteOn"  },
      { "deltaTime": 239, "channel": 0, "type": "channel", "subtype": "noteOff", "noteNumber": 46, "velocity": 0  },
      { "deltaTime": 1, "channel": 0, "type": "channel", "noteNumber": 46, "velocity": 64, "subtype": "noteOn"  },
      { "deltaTime": 239, "channel": 0, "type": "channel", "subtype": "noteOff", "noteNumber": 46, "velocity": 0  },
      { "deltaTime": 1, "channel": 0, "type": "channel", "noteNumber": 40, "velocity": 64, "subtype": "noteOn"  },
      { "deltaTime": 239, "channel": 0, "type": "channel", "subtype": "noteOff", "noteNumber": 40, "velocity": 0  },
      { "deltaTime": 1, "channel": 0, "type": "channel", "noteNumber": 47, "velocity": 64, "subtype": "noteOn"  },
      { "deltaTime": 239, "channel": 0, "type": "channel", "subtype": "noteOff", "noteNumber": 47, "velocity": 0  },
      { "deltaTime": 1, "channel": 0, "type": "channel", "noteNumber": 47, "velocity": 64, "subtype": "noteOn"  },
      { "deltaTime": 239, "channel": 0, "type": "channel", "subtype": "noteOff", "noteNumber": 47, "velocity": 0  },
      { "deltaTime": 1, "channel": 0, "type": "channel", "noteNumber": 40, "velocity": 64, "subtype": "noteOn"  },
      { "deltaTime": 239, "channel": 0, "type": "channel", "subtype": "noteOff", "noteNumber": 40, "velocity": 0  },
      { "deltaTime": 1, "channel": 0, "type": "channel", "noteNumber": 52, "velocity": 64, "subtype": "noteOn"  },
      { "deltaTime": 239, "channel": 0, "type": "channel", "subtype": "noteOff", "noteNumber": 52, "velocity": 0  },
      { "deltaTime": 1, "channel": 0, "type": "channel", "noteNumber": 40, "velocity": 64, "subtype": "noteOn"  },
      { "deltaTime": 239, "channel": 0, "type": "channel", "subtype": "noteOff", "noteNumber": 40, "velocity": 0  },
      { "deltaTime": 1, "channel": 0, "type": "channel", "noteNumber": 50, "velocity": 64, "subtype": "noteOn"  },
      { "deltaTime": 239, "channel": 0, "type": "channel", "subtype": "noteOff", "noteNumber": 50, "velocity": 0  },
      { "deltaTime": 1, "channel": 0, "type": "channel", "noteNumber": 40, "velocity": 64, "subtype": "noteOn"  },
      { "deltaTime": 239, "channel": 0, "type": "channel", "subtype": "noteOff", "noteNumber": 40, "velocity": 0  },
      { "deltaTime": 1, "channel": 0, "type": "channel", "noteNumber": 45, "velocity": 64, "subtype": "noteOn"  },
      { "deltaTime": 239, "channel": 0, "type": "channel", "subtype": "noteOff", "noteNumber": 45, "velocity": 0  },
      { "deltaTime": 1, "channel": 0, "type": "channel", "noteNumber": 44, "velocity": 64, "subtype": "noteOn"  },
      { "deltaTime": 239, "channel": 0, "type": "channel", "subtype": "noteOff", "noteNumber": 44, "velocity": 0  },
      { "deltaTime": 1, "channel": 0, "type": "channel", "noteNumber": 40, "velocity": 64, "subtype": "noteOn"  },
      { "deltaTime": 239, "channel": 0, "type": "channel", "subtype": "noteOff", "noteNumber": 40, "velocity": 0  },
      { "deltaTime": 1, "channel": 0, "type": "channel", "noteNumber": 52, "velocity": 64, "subtype": "noteOn"  },
      { "deltaTime": 239, "channel": 0, "type": "channel", "subtype": "noteOff", "noteNumber": 52, "velocity": 0  },
      { "deltaTime": 1, "channel": 0, "type": "channel", "noteNumber": 52, "velocity": 64, "subtype": "noteOn"  },
      { "deltaTime": 239, "channel": 0, "type": "channel", "subtype": "noteOff", "noteNumber": 52, "velocity": 0  },
      { "deltaTime": 1, "channel": 0, "type": "channel", "noteNumber": 40, "velocity": 64, "subtype": "noteOn"  },
      { "deltaTime": 239, "channel": 0, "type": "channel", "subtype": "noteOff", "noteNumber": 40, "velocity": 0  },
      { "deltaTime": 1, "channel": 0, "type": "channel", "noteNumber": 44, "velocity": 64, "subtype": "noteOn"  },
      { "deltaTime": 239, "channel": 0, "type": "channel", "subtype": "noteOff", "noteNumber": 44, "velocity": 0  },
      { "deltaTime": 1, "channel": 0, "type": "channel", "noteNumber": 45, "velocity": 64, "subtype": "noteOn"  },
      { "deltaTime": 239, "channel": 0, "type": "channel", "subtype": "noteOff", "noteNumber": 45, "velocity": 0  },
      { "deltaTime": 1, "channel": 0, "type": "channel", "noteNumber": 40, "velocity": 64, "subtype": "noteOn"  },
      { "deltaTime": 239, "channel": 0, "type": "channel", "subtype": "noteOff", "noteNumber": 40, "velocity": 0  },
      { "deltaTime": 1, "channel": 0, "type": "channel", "noteNumber": 46, "velocity": 64, "subtype": "noteOn"  },
      { "deltaTime": 239, "channel": 0, "type": "channel", "subtype": "noteOff", "noteNumber": 46, "velocity": 0  },
      { "deltaTime": 1, "channel": 0, "type": "channel", "noteNumber": 40, "velocity": 64, "subtype": "noteOn"  },
      { "deltaTime": 239, "channel": 0, "type": "channel", "subtype": "noteOff", "noteNumber": 40, "velocity": 0  },
      { "deltaTime": 1, "channel": 0, "type": "channel", "noteNumber": 47, "velocity": 64, "subtype": "noteOn"  },
      { "deltaTime": 239, "channel": 0, "type": "channel", "subtype": "noteOff", "noteNumber": 47, "velocity": 0  },
      { "deltaTime": 1, "channel": 0, "type": "channel", "noteNumber": 50, "velocity": 64, "subtype": "noteOn"  },
      { "deltaTime": 239, "channel": 0, "type": "channel", "subtype": "noteOff", "noteNumber": 50, "velocity": 0  },
      { "deltaTime": 1, "channel": 0, "type": "channel", "noteNumber": 47, "velocity": 64, "subtype": "noteOn"  },
      { "deltaTime": 239, "channel": 0, "type": "channel", "subtype": "noteOff", "noteNumber": 47, "velocity": 0  },
      { "deltaTime": 1, "channel": 0, "type": "channel", "noteNumber": 40, "velocity": 64, "subtype": "noteOn"  },
      { "deltaTime": 239, "channel": 0, "type": "channel", "subtype": "noteOff", "noteNumber": 40, "velocity": 0  },
      { "deltaTime": 1, "channel": 0, "type": "channel", "noteNumber": 47, "velocity": 64, "subtype": "noteOn"  },
      { "deltaTime": 239, "channel": 0, "type": "channel", "subtype": "noteOff", "noteNumber": 47, "velocity": 0  },
      { "deltaTime": 1, "channel": 0, "type": "channel", "noteNumber": 47, "velocity": 64, "subtype": "noteOn"  },
      { "deltaTime": 239, "channel": 0, "type": "channel", "subtype": "noteOff", "noteNumber": 47, "velocity": 0  },
      { "deltaTime": 1, "channel": 0, "type": "channel", "noteNumber": 40, "velocity": 64, "subtype": "noteOn"  },
      { "deltaTime": 239, "channel": 0, "type": "channel", "subtype": "noteOff", "noteNumber": 40, "velocity": 0  },
      { "deltaTime": 1, "channel": 0, "type": "channel", "noteNumber": 46, "velocity": 64, "subtype": "noteOn"  },
      { "deltaTime": 239, "channel": 0, "type": "channel", "subtype": "noteOff", "noteNumber": 46, "velocity": 0  },
      { "deltaTime": 1, "channel": 0, "type": "channel", "noteNumber": 46, "velocity": 64, "subtype": "noteOn"  },
      { "deltaTime": 239, "channel": 0, "type": "channel", "subtype": "noteOff", "noteNumber": 46, "velocity": 0  },
      { "deltaTime": 1, "channel": 0, "type": "channel", "noteNumber": 40, "velocity": 64, "subtype": "noteOn"  },
      { "deltaTime": 239, "channel": 0, "type": "channel", "subtype": "noteOff", "noteNumber": 40, "velocity": 0  },
      { "deltaTime": 1, "channel": 0, "type": "channel", "noteNumber": 47, "velocity": 64, "subtype": "noteOn"  },
      { "deltaTime": 239, "channel": 0, "type": "channel", "subtype": "noteOff", "noteNumber": 47, "velocity": 0  },
      { "deltaTime": 1, "channel": 0, "type": "channel", "noteNumber": 47, "velocity": 64, "subtype": "noteOn"  },
      { "deltaTime": 239, "channel": 0, "type": "channel", "subtype": "noteOff", "noteNumber": 47, "velocity": 0  },
      { "deltaTime": 1, "channel": 0, "type": "channel", "noteNumber": 40, "velocity": 64, "subtype": "noteOn"  },
      { "deltaTime": 239, "channel": 0, "type": "channel", "subtype": "noteOff", "noteNumber": 40, "velocity": 0  },
      { "deltaTime": 1, "channel": 0, "type": "channel", "noteNumber": 52, "velocity": 64, "subtype": "noteOn"  },
      { "deltaTime": 239, "channel": 0, "type": "channel", "subtype": "noteOff", "noteNumber": 52, "velocity": 0  },
      { "deltaTime": 1, "channel": 0, "type": "channel", "noteNumber": 40, "velocity": 64, "subtype": "noteOn"  },
      { "deltaTime": 239, "channel": 0, "type": "channel", "subtype": "noteOff", "noteNumber": 40, "velocity": 0  },
      { "deltaTime": 1, "channel": 0, "type": "channel", "noteNumber": 50, "velocity": 64, "subtype": "noteOn"  },
      { "deltaTime": 239, "channel": 0, "type": "channel", "subtype": "noteOff", "noteNumber": 50, "velocity": 0  },
      { "deltaTime": 1, "channel": 0, "type": "channel", "noteNumber": 40, "velocity": 64, "subtype": "noteOn"  },
      { "deltaTime": 239, "channel": 0, "type": "channel", "subtype": "noteOff", "noteNumber": 40, "velocity": 0  },
      { "deltaTime": 1, "channel": 0, "type": "channel", "noteNumber": 45, "velocity": 64, "subtype": "noteOn"  },
      { "deltaTime": 239, "channel": 0, "type": "channel", "subtype": "noteOff", "noteNumber": 45, "velocity": 0  },
      { "deltaTime": 1, "channel": 0, "type": "channel", "noteNumber": 44, "velocity": 64, "subtype": "noteOn"  },
      { "deltaTime": 239, "channel": 0, "type": "channel", "subtype": "noteOff", "noteNumber": 44, "velocity": 0  },
      { "deltaTime": 1, "channel": 0, "type": "channel", "noteNumber": 40, "velocity": 64, "subtype": "noteOn"  },
      { "deltaTime": 239, "channel": 0, "type": "channel", "subtype": "noteOff", "noteNumber": 40, "velocity": 0  },
      { "deltaTime": 1, "channel": 0, "type": "channel", "noteNumber": 52, "velocity": 64, "subtype": "noteOn"  },
      { "deltaTime": 239, "channel": 0, "type": "channel", "subtype": "noteOff", "noteNumber": 52, "velocity": 0  },
      { "deltaTime": 1, "channel": 0, "type": "channel", "noteNumber": 52, "velocity": 64, "subtype": "noteOn"  },
      { "deltaTime": 239, "channel": 0, "type": "channel", "subtype": "noteOff", "noteNumber": 52, "velocity": 0  },
      { "deltaTime": 1, "channel": 0, "type": "channel", "noteNumber": 40, "velocity": 64, "subtype": "noteOn"  },
      { "deltaTime": 239, "channel": 0, "type": "channel", "subtype": "noteOff", "noteNumber": 40, "velocity": 0  },
      { "deltaTime": 1, "channel": 0, "type": "channel", "noteNumber": 44, "velocity": 64, "subtype": "noteOn"  },
      { "deltaTime": 239, "channel": 0, "type": "channel", "subtype": "noteOff", "noteNumber": 44, "velocity": 0  },
      { "deltaTime": 1, "channel": 0, "type": "channel", "noteNumber": 45, "velocity": 64, "subtype": "noteOn"  },
      { "deltaTime": 239, "channel": 0, "type": "channel", "subtype": "noteOff", "noteNumber": 45, "velocity": 0  },
      { "deltaTime": 1, "channel": 0, "type": "channel", "noteNumber": 40, "velocity": 64, "subtype": "noteOn"  },
      { "deltaTime": 239, "channel": 0, "type": "channel", "subtype": "noteOff", "noteNumber": 40, "velocity": 0  },
      { "deltaTime": 1, "channel": 0, "type": "channel", "noteNumber": 46, "velocity": 64, "subtype": "noteOn"  },
      { "deltaTime": 239, "channel": 0, "type": "channel", "subtype": "noteOff", "noteNumber": 46, "velocity": 0  },
      { "deltaTime": 1, "channel": 0, "type": "channel", "noteNumber": 40, "velocity": 64, "subtype": "noteOn"  },
      { "deltaTime": 239, "channel": 0, "type": "channel", "subtype": "noteOff", "noteNumber": 40, "velocity": 0  },
      { "deltaTime": 1, "channel": 0, "type": "channel", "noteNumber": 47, "velocity": 64, "subtype": "noteOn"  },
      { "deltaTime": 239, "channel": 0, "type": "channel", "subtype": "noteOff", "noteNumber": 47, "velocity": 0  },
      { "deltaTime": 1, "channel": 0, "type": "channel", "noteNumber": 50, "velocity": 64, "subtype": "noteOn"  },
      { "deltaTime": 239, "channel": 0, "type": "channel", "subtype": "noteOff", "noteNumber": 50, "velocity": 0  },
      { "deltaTime": 1, "channel": 0, "type": "channel", "noteNumber": 47, "velocity": 64, "subtype": "noteOn"  },
      { "deltaTime": 239, "channel": 0, "type": "channel", "subtype": "noteOff", "noteNumber": 47, "velocity": 0  },
      { "deltaTime": 1, "channel": 0, "type": "channel", "noteNumber": 40, "velocity": 64, "subtype": "noteOn"  },
      { "deltaTime": 239, "channel": 0, "type": "channel", "subtype": "noteOff", "noteNumber": 40, "velocity": 0  },
      { "deltaTime": 1, "channel": 0, "type": "channel", "noteNumber": 52, "velocity": 64, "subtype": "noteOn"  },
      { "deltaTime": 239, "channel": 0, "type": "channel", "subtype": "noteOff", "noteNumber": 52, "velocity": 0  },
      { "deltaTime": 1, "channel": 0, "type": "channel", "noteNumber": 40, "velocity": 64, "subtype": "noteOn"  },
      { "deltaTime": 239, "channel": 0, "type": "channel", "subtype": "noteOff", "noteNumber": 40, "velocity": 0  },
      { "deltaTime": 1, "channel": 0, "type": "channel", "noteNumber": 40, "velocity": 64, "subtype": "noteOn"  },
      { "deltaTime": 239, "channel": 0, "type": "channel", "subtype": "noteOff", "noteNumber": 40, "velocity": 0  },
      { "deltaTime": 481, "channel": 0, "type": "channel", "noteNumber": 40, "velocity": 64, "subtype": "noteOn"  },
      { "deltaTime": 239, "channel": 0, "type": "channel", "subtype": "noteOff", "noteNumber": 40, "velocity": 0  },
      { "deltaTime": 1, "channel": 0, "type": "channel", "noteNumber": 50, "velocity": 64, "subtype": "noteOn"  },
      { "deltaTime": 239, "channel": 0, "type": "channel", "subtype": "noteOff", "noteNumber": 50, "velocity": 0  },
      { "deltaTime": 1, "channel": 0, "type": "channel", "noteNumber": 40, "velocity": 64, "subtype": "noteOn"  },
      { "deltaTime": 239, "channel": 0, "type": "channel", "subtype": "noteOff", "noteNumber": 40, "velocity": 0  },
      { "deltaTime": 1, "channel": 0, "type": "channel", "noteNumber": 40, "velocity": 64, "subtype": "noteOn"  },
      { "deltaTime": 239, "channel": 0, "type": "channel", "subtype": "noteOff", "noteNumber": 40, "velocity": 0  },
      { "deltaTime": 481, "channel": 0, "type": "channel", "noteNumber": 40, "velocity": 64, "subtype": "noteOn"  },
      { "deltaTime": 239, "channel": 0, "type": "channel", "subtype": "noteOff", "noteNumber": 40, "velocity": 0  },
      { "deltaTime": 1, "channel": 0, "type": "channel", "noteNumber": 52, "velocity": 64, "subtype": "noteOn"  },
      { "deltaTime": 239, "channel": 0, "type": "channel", "subtype": "noteOff", "noteNumber": 52, "velocity": 0  },
      { "deltaTime": 1, "channel": 0, "type": "channel", "noteNumber": 40, "velocity": 64, "subtype": "noteOn"  },
      { "deltaTime": 239, "channel": 0, "type": "channel", "subtype": "noteOff", "noteNumber": 40, "velocity": 0  },
      { "deltaTime": 1, "channel": 0, "type": "channel", "noteNumber": 40, "velocity": 64, "subtype": "noteOn"  },
      { "deltaTime": 239, "channel": 0, "type": "channel", "subtype": "noteOff", "noteNumber": 40, "velocity": 0  },
      { "deltaTime": 481, "channel": 0, "type": "channel", "noteNumber": 40, "velocity": 64, "subtype": "noteOn"  },
      { "deltaTime": 239, "channel": 0, "type": "channel", "subtype": "noteOff", "noteNumber": 40, "velocity": 0  },
      { "deltaTime": 1, "channel": 0, "type": "channel", "noteNumber": 40, "velocity": 64, "subtype": "noteOn"  },
      { "deltaTime": 239, "channel": 0, "type": "channel", "subtype": "noteOff", "noteNumber": 40, "velocity": 0  },
      { "deltaTime": 1, "channel": 0, "type": "channel", "noteNumber": 50, "velocity": 64, "subtype": "noteOn"  },
      { "deltaTime": 239, "channel": 0, "type": "channel", "subtype": "noteOff", "noteNumber": 50, "velocity": 0  },
      { "deltaTime": 1, "channel": 0, "type": "channel", "noteNumber": 40, "velocity": 64, "subtype": "noteOn"  },
      { "deltaTime": 239, "channel": 0, "type": "channel", "subtype": "noteOff", "noteNumber": 40, "velocity": 0  },
      { "deltaTime": 481, "channel": 0, "type": "channel", "noteNumber": 45, "velocity": 64, "subtype": "noteOn"  },
      { "deltaTime": 239, "channel": 0, "type": "channel", "subtype": "noteOff", "noteNumber": 45, "velocity": 0  },
      { "deltaTime": 1, "channel": 0, "type": "channel", "noteNumber": 46, "velocity": 64, "subtype": "noteOn"  },
      { "deltaTime": 239, "channel": 0, "type": "channel", "subtype": "noteOff", "noteNumber": 46, "velocity": 0  },
      { "deltaTime": 1, "channel": 0, "type": "channel", "noteNumber": 47, "velocity": 64, "subtype": "noteOn"  },
      { "deltaTime": 239, "channel": 0, "type": "channel", "subtype": "noteOff", "noteNumber": 47, "velocity": 0  },
      { "deltaTime": 1, "channel": 0, "type": "channel", "noteNumber": 50, "velocity": 64, "subtype": "noteOn"  },
      { "deltaTime": 239, "channel": 0, "type": "channel", "subtype": "noteOff", "noteNumber": 50, "velocity": 0  },
      { "deltaTime": 1, "channel": 0, "type": "channel", "noteNumber": 40, "velocity": 64, "subtype": "noteOn"  },
      { "deltaTime": 239, "channel": 0, "type": "channel", "subtype": "noteOff", "noteNumber": 40, "velocity": 0  },
      { "deltaTime": 1, "channel": 0, "type": "channel", "noteNumber": 52, "velocity": 64, "subtype": "noteOn"  },
      { "deltaTime": 239, "channel": 0, "type": "channel", "subtype": "noteOff", "noteNumber": 52, "velocity": 0  },
      { "deltaTime": 1, "channel": 0, "type": "channel", "noteNumber": 40, "velocity": 64, "subtype": "noteOn"  },
      { "deltaTime": 239, "channel": 0, "type": "channel", "subtype": "noteOff", "noteNumber": 40, "velocity": 0  },
      { "deltaTime": 1, "channel": 0, "type": "channel", "noteNumber": 40, "velocity": 64, "subtype": "noteOn"  },
      { "deltaTime": 239, "channel": 0, "type": "channel", "subtype": "noteOff", "noteNumber": 40, "velocity": 0  },
      { "deltaTime": 481, "channel": 0, "type": "channel", "noteNumber": 40, "velocity": 64, "subtype": "noteOn"  },
      { "deltaTime": 239, "channel": 0, "type": "channel", "subtype": "noteOff", "noteNumber": 40, "velocity": 0  },
      { "deltaTime": 1, "channel": 0, "type": "channel", "noteNumber": 50, "velocity": 64, "subtype": "noteOn"  },
      { "deltaTime": 239, "channel": 0, "type": "channel", "subtype": "noteOff", "noteNumber": 50, "velocity": 0  },
      { "deltaTime": 1, "channel": 0, "type": "channel", "noteNumber": 40, "velocity": 64, "subtype": "noteOn"  },
      { "deltaTime": 239, "channel": 0, "type": "channel", "subtype": "noteOff", "noteNumber": 40, "velocity": 0  },
      { "deltaTime": 1, "channel": 0, "type": "channel", "noteNumber": 40, "velocity": 64, "subtype": "noteOn"  },
      { "deltaTime": 239, "channel": 0, "type": "channel", "subtype": "noteOff", "noteNumber": 40, "velocity": 0  },
      { "deltaTime": 481, "channel": 0, "type": "channel", "noteNumber": 40, "velocity": 64, "subtype": "noteOn"  },
      { "deltaTime": 239, "channel": 0, "type": "channel", "subtype": "noteOff", "noteNumber": 40, "velocity": 0  },
      { "deltaTime": 1, "channel": 0, "type": "channel", "noteNumber": 52, "velocity": 64, "subtype": "noteOn"  },
      { "deltaTime": 239, "channel": 0, "type": "channel", "subtype": "noteOff", "noteNumber": 52, "velocity": 0  },
      { "deltaTime": 1, "channel": 0, "type": "channel", "noteNumber": 40, "velocity": 64, "subtype": "noteOn"  },
      { "deltaTime": 239, "channel": 0, "type": "channel", "subtype": "noteOff", "noteNumber": 40, "velocity": 0  },
      { "deltaTime": 1, "channel": 0, "type": "channel", "noteNumber": 40, "velocity": 64, "subtype": "noteOn"  },
      { "deltaTime": 239, "channel": 0, "type": "channel", "subtype": "noteOff", "noteNumber": 40, "velocity": 0  },
      { "deltaTime": 481, "channel": 0, "type": "channel", "noteNumber": 40, "velocity": 64, "subtype": "noteOn"  },
      { "deltaTime": 239, "channel": 0, "type": "channel", "subtype": "noteOff", "noteNumber": 40, "velocity": 0  },
      { "deltaTime": 1, "channel": 0, "type": "channel", "noteNumber": 40, "velocity": 64, "subtype": "noteOn"  },
      { "deltaTime": 239, "channel": 0, "type": "channel", "subtype": "noteOff", "noteNumber": 40, "velocity": 0  },
      { "deltaTime": 1, "channel": 0, "type": "channel", "noteNumber": 50, "velocity": 64, "subtype": "noteOn"  },
      { "deltaTime": 239, "channel": 0, "type": "channel", "subtype": "noteOff", "noteNumber": 50, "velocity": 0  },
      { "deltaTime": 1, "channel": 0, "type": "channel", "noteNumber": 40, "velocity": 64, "subtype": "noteOn"  },
      { "deltaTime": 239, "channel": 0, "type": "channel", "subtype": "noteOff", "noteNumber": 40, "velocity": 0  },
      { "deltaTime": 481, "channel": 0, "type": "channel", "noteNumber": 45, "velocity": 64, "subtype": "noteOn"  },
      { "deltaTime": 239, "channel": 0, "type": "channel", "subtype": "noteOff", "noteNumber": 45, "velocity": 0  },
      { "deltaTime": 1, "channel": 0, "type": "channel", "noteNumber": 46, "velocity": 64, "subtype": "noteOn"  },
      { "deltaTime": 239, "channel": 0, "type": "channel", "subtype": "noteOff", "noteNumber": 46, "velocity": 0  },
      { "deltaTime": 1, "channel": 0, "type": "channel", "noteNumber": 47, "velocity": 64, "subtype": "noteOn"  },
      { "deltaTime": 239, "channel": 0, "type": "channel", "subtype": "noteOff", "noteNumber": 47, "velocity": 0  },
      { "deltaTime": 1, "channel": 0, "type": "channel", "noteNumber": 50, "velocity": 64, "subtype": "noteOn"  },
      { "deltaTime": 239, "channel": 0, "type": "channel", "subtype": "noteOff", "noteNumber": 50, "velocity": 0  },
      { "deltaTime": 1, "channel": 0, "type": "channel", "noteNumber": 40, "velocity": 64, "subtype": "noteOn"  },
      { "deltaTime": 239, "channel": 0, "type": "channel", "subtype": "noteOff", "noteNumber": 40, "velocity": 0  },
      { "deltaTime": 1, "channel": 0, "type": "channel", "noteNumber": 52, "velocity": 64, "subtype": "noteOn"  },
      { "deltaTime": 239, "channel": 0, "type": "channel", "subtype": "noteOff", "noteNumber": 52, "velocity": 0  },
      { "deltaTime": 1, "channel": 0, "type": "channel", "noteNumber": 40, "velocity": 64, "subtype": "noteOn"  },
      { "deltaTime": 239, "channel": 0, "type": "channel", "subtype": "noteOff", "noteNumber": 40, "velocity": 0  },
      { "deltaTime": 1, "channel": 0, "type": "channel", "noteNumber": 40, "velocity": 64, "subtype": "noteOn"  },
      { "deltaTime": 239, "channel": 0, "type": "channel", "subtype": "noteOff", "noteNumber": 40, "velocity": 0  },
      { "deltaTime": 481, "channel": 0, "type": "channel", "noteNumber": 40, "velocity": 64, "subtype": "noteOn"  },
      { "deltaTime": 239, "channel": 0, "type": "channel", "subtype": "noteOff", "noteNumber": 40, "velocity": 0  },
      { "deltaTime": 1, "channel": 0, "type": "channel", "noteNumber": 50, "velocity": 64, "subtype": "noteOn"  },
      { "deltaTime": 239, "channel": 0, "type": "channel", "subtype": "noteOff", "noteNumber": 50, "velocity": 0  },
      { "deltaTime": 1, "channel": 0, "type": "channel", "noteNumber": 40, "velocity": 64, "subtype": "noteOn"  },
      { "deltaTime": 239, "channel": 0, "type": "channel", "subtype": "noteOff", "noteNumber": 40, "velocity": 0  },
      { "deltaTime": 1, "channel": 0, "type": "channel", "noteNumber": 40, "velocity": 64, "subtype": "noteOn"  },
      { "deltaTime": 239, "channel": 0, "type": "channel", "subtype": "noteOff", "noteNumber": 40, "velocity": 0  },
      { "deltaTime": 481, "channel": 0, "type": "channel", "noteNumber": 40, "velocity": 64, "subtype": "noteOn"  },
      { "deltaTime": 239, "channel": 0, "type": "channel", "subtype": "noteOff", "noteNumber": 40, "velocity": 0  },
      { "deltaTime": 1, "channel": 0, "type": "channel", "noteNumber": 52, "velocity": 64, "subtype": "noteOn"  },
      { "deltaTime": 239, "channel": 0, "type": "channel", "subtype": "noteOff", "noteNumber": 52, "velocity": 0  },
      { "deltaTime": 1, "channel": 0, "type": "channel", "noteNumber": 40, "velocity": 64, "subtype": "noteOn"  },
      { "deltaTime": 239, "channel": 0, "type": "channel", "subtype": "noteOff", "noteNumber": 40, "velocity": 0  },
      { "deltaTime": 1, "channel": 0, "type": "channel", "noteNumber": 40, "velocity": 64, "subtype": "noteOn"  },
      { "deltaTime": 239, "channel": 0, "type": "channel", "subtype": "noteOff", "noteNumber": 40, "velocity": 0  },
      { "deltaTime": 481, "channel": 0, "type": "channel", "noteNumber": 40, "velocity": 64, "subtype": "noteOn"  },
      { "deltaTime": 239, "channel": 0, "type": "channel", "subtype": "noteOff", "noteNumber": 40, "velocity": 0  },
      { "deltaTime": 1, "channel": 0, "type": "channel", "noteNumber": 40, "velocity": 64, "subtype": "noteOn"  },
      { "deltaTime": 239, "channel": 0, "type": "channel", "subtype": "noteOff", "noteNumber": 40, "velocity": 0  },
      { "deltaTime": 1, "channel": 0, "type": "channel", "noteNumber": 50, "velocity": 64, "subtype": "noteOn"  },
      { "deltaTime": 239, "channel": 0, "type": "channel", "subtype": "noteOff", "noteNumber": 50, "velocity": 0  },
      { "deltaTime": 1, "channel": 0, "type": "channel", "noteNumber": 40, "velocity": 64, "subtype": "noteOn"  },
      { "deltaTime": 239, "channel": 0, "type": "channel", "subtype": "noteOff", "noteNumber": 40, "velocity": 0  },
      { "deltaTime": 481, "channel": 0, "type": "channel", "noteNumber": 45, "velocity": 64, "subtype": "noteOn"  },
      { "deltaTime": 239, "channel": 0, "type": "channel", "subtype": "noteOff", "noteNumber": 45, "velocity": 0  },
      { "deltaTime": 1, "channel": 0, "type": "channel", "noteNumber": 46, "velocity": 64, "subtype": "noteOn"  },
      { "deltaTime": 239, "channel": 0, "type": "channel", "subtype": "noteOff", "noteNumber": 46, "velocity": 0  },
      { "deltaTime": 1, "channel": 0, "type": "channel", "noteNumber": 47, "velocity": 64, "subtype": "noteOn"  },
      { "deltaTime": 239, "channel": 0, "type": "channel", "subtype": "noteOff", "noteNumber": 47, "velocity": 0  },
      { "deltaTime": 1, "channel": 0, "type": "channel", "noteNumber": 50, "velocity": 64, "subtype": "noteOn"  },
      { "deltaTime": 239, "channel": 0, "type": "channel", "subtype": "noteOff", "noteNumber": 50, "velocity": 0  },
      { "deltaTime": 1, "channel": 0, "type": "channel", "noteNumber": 40, "velocity": 64, "subtype": "noteOn"  },
      { "deltaTime": 239, "channel": 0, "type": "channel", "subtype": "noteOff", "noteNumber": 40, "velocity": 0  },
      { "deltaTime": 1, "channel": 0, "type": "channel", "noteNumber": 52, "velocity": 64, "subtype": "noteOn"  },
      { "deltaTime": 239, "channel": 0, "type": "channel", "subtype": "noteOff", "noteNumber": 52, "velocity": 0  },
      { "deltaTime": 1, "channel": 0, "type": "channel", "noteNumber": 40, "velocity": 64, "subtype": "noteOn"  },
      { "deltaTime": 239, "channel": 0, "type": "channel", "subtype": "noteOff", "noteNumber": 40, "velocity": 0  },
      { "deltaTime": 1, "channel": 0, "type": "channel", "noteNumber": 40, "velocity": 64, "subtype": "noteOn"  },
      { "deltaTime": 239, "channel": 0, "type": "channel", "subtype": "noteOff", "noteNumber": 40, "velocity": 0  },
      { "deltaTime": 481, "channel": 0, "type": "channel", "noteNumber": 40, "velocity": 64, "subtype": "noteOn"  },
      { "deltaTime": 239, "channel": 0, "type": "channel", "subtype": "noteOff", "noteNumber": 40, "velocity": 0  },
      { "deltaTime": 1, "channel": 0, "type": "channel", "noteNumber": 50, "velocity": 64, "subtype": "noteOn"  },
      { "deltaTime": 239, "channel": 0, "type": "channel", "subtype": "noteOff", "noteNumber": 50, "velocity": 0  },
      { "deltaTime": 1, "channel": 0, "type": "channel", "noteNumber": 40, "velocity": 64, "subtype": "noteOn"  },
      { "deltaTime": 239, "channel": 0, "type": "channel", "subtype": "noteOff", "noteNumber": 40, "velocity": 0  },
      { "deltaTime": 1, "channel": 0, "type": "channel", "noteNumber": 40, "velocity": 64, "subtype": "noteOn"  },
      { "deltaTime": 239, "channel": 0, "type": "channel", "subtype": "noteOff", "noteNumber": 40, "velocity": 0  },
      { "deltaTime": 481, "channel": 0, "type": "channel", "noteNumber": 40, "velocity": 64, "subtype": "noteOn"  },
      { "deltaTime": 239, "channel": 0, "type": "channel", "subtype": "noteOff", "noteNumber": 40, "velocity": 0  },
      { "deltaTime": 1, "channel": 0, "type": "channel", "noteNumber": 52, "velocity": 64, "subtype": "noteOn"  },
      { "deltaTime": 239, "channel": 0, "type": "channel", "subtype": "noteOff", "noteNumber": 52, "velocity": 0  },
      { "deltaTime": 1, "channel": 0, "type": "channel", "noteNumber": 40, "velocity": 64, "subtype": "noteOn"  },
      { "deltaTime": 239, "channel": 0, "type": "channel", "subtype": "noteOff", "noteNumber": 40, "velocity": 0  },
      { "deltaTime": 1, "channel": 0, "type": "channel", "noteNumber": 40, "velocity": 64, "subtype": "noteOn"  },
      { "deltaTime": 239, "channel": 0, "type": "channel", "subtype": "noteOff", "noteNumber": 40, "velocity": 0  },
      { "deltaTime": 481, "channel": 0, "type": "channel", "noteNumber": 40, "velocity": 64, "subtype": "noteOn"  },
      { "deltaTime": 239, "channel": 0, "type": "channel", "subtype": "noteOff", "noteNumber": 40, "velocity": 0  },
      { "deltaTime": 1, "channel": 0, "type": "channel", "noteNumber": 40, "velocity": 64, "subtype": "noteOn"  },
      { "deltaTime": 239, "channel": 0, "type": "channel", "subtype": "noteOff", "noteNumber": 40, "velocity": 0  },
      { "deltaTime": 1, "channel": 0, "type": "channel", "noteNumber": 50, "velocity": 64, "subtype": "noteOn"  },
      { "deltaTime": 239, "channel": 0, "type": "channel", "subtype": "noteOff", "noteNumber": 50, "velocity": 0  },
      { "deltaTime": 1, "channel": 0, "type": "channel", "noteNumber": 40, "velocity": 64, "subtype": "noteOn"  },
      { "deltaTime": 239, "channel": 0, "type": "channel", "subtype": "noteOff", "noteNumber": 40, "velocity": 0  },
      { "deltaTime": 481, "channel": 0, "type": "channel", "noteNumber": 45, "velocity": 64, "subtype": "noteOn"  },
      { "deltaTime": 239, "channel": 0, "type": "channel", "subtype": "noteOff", "noteNumber": 45, "velocity": 0  },
      { "deltaTime": 1, "channel": 0, "type": "channel", "noteNumber": 46, "velocity": 64, "subtype": "noteOn"  },
      { "deltaTime": 239, "channel": 0, "type": "channel", "subtype": "noteOff", "noteNumber": 46, "velocity": 0  },
      { "deltaTime": 1, "channel": 0, "type": "channel", "noteNumber": 47, "velocity": 64, "subtype": "noteOn"  },
      { "deltaTime": 239, "channel": 0, "type": "channel", "subtype": "noteOff", "noteNumber": 47, "velocity": 0  },
      { "deltaTime": 1, "channel": 0, "type": "channel", "noteNumber": 50, "velocity": 64, "subtype": "noteOn"  },
      { "deltaTime": 239, "channel": 0, "type": "channel", "subtype": "noteOff", "noteNumber": 50, "velocity": 0  },
      { "deltaTime": 1, "channel": 0, "type": "channel", "noteNumber": 40, "velocity": 64, "subtype": "noteOn"  },
      { "deltaTime": 479, "channel": 0, "type": "channel", "subtype": "noteOff", "noteNumber": 40, "velocity": 0  },
      { "deltaTime": 1, "channel": 0, "type": "channel", "noteNumber": 47, "velocity": 64, "subtype": "noteOn"  },
      { "deltaTime": 239, "channel": 0, "type": "channel", "subtype": "noteOff", "noteNumber": 47, "velocity": 0  },
      { "deltaTime": 1, "channel": 0, "type": "channel", "noteNumber": 40, "velocity": 64, "subtype": "noteOn"  },
      { "deltaTime": 239, "channel": 0, "type": "channel", "subtype": "noteOff", "noteNumber": 40, "velocity": 0  },
      { "deltaTime": 481, "channel": 0, "type": "channel", "noteNumber": 40, "velocity": 64, "subtype": "noteOn"  },
      { "deltaTime": 479, "channel": 0, "type": "channel", "subtype": "noteOff", "noteNumber": 40, "velocity": 0  },
      { "deltaTime": 1, "channel": 0, "type": "channel", "noteNumber": 46, "velocity": 64, "subtype": "noteOn"  },
      { "deltaTime": 239, "channel": 0, "type": "channel", "subtype": "noteOff", "noteNumber": 46, "velocity": 0  },
      { "deltaTime": 1, "channel": 0, "type": "channel", "noteNumber": 40, "velocity": 64, "subtype": "noteOn"  },
      { "deltaTime": 239, "channel": 0, "type": "channel", "subtype": "noteOff", "noteNumber": 40, "velocity": 0  },
      { "deltaTime": 481, "channel": 0, "type": "channel", "noteNumber": 40, "velocity": 64, "subtype": "noteOn"  },
      { "deltaTime": 479, "channel": 0, "type": "channel", "subtype": "noteOff", "noteNumber": 40, "velocity": 0  },
      { "deltaTime": 1, "channel": 0, "type": "channel", "noteNumber": 44, "velocity": 64, "subtype": "noteOn"  },
      { "deltaTime": 239, "channel": 0, "type": "channel", "subtype": "noteOff", "noteNumber": 44, "velocity": 0  },
      { "deltaTime": 1, "channel": 0, "type": "channel", "noteNumber": 40, "velocity": 64, "subtype": "noteOn"  },
      { "deltaTime": 239, "channel": 0, "type": "channel", "subtype": "noteOff", "noteNumber": 40, "velocity": 0  },
      { "deltaTime": 241, "channel": 0, "type": "channel", "noteNumber": 40, "velocity": 64, "subtype": "noteOn"  },
      { "deltaTime": 479, "channel": 0, "type": "channel", "subtype": "noteOff", "noteNumber": 40, "velocity": 0  },
      { "deltaTime": 1, "channel": 0, "type": "channel", "noteNumber": 46, "velocity": 64, "subtype": "noteOn"  },
      { "deltaTime": 239, "channel": 0, "type": "channel", "subtype": "noteOff", "noteNumber": 46, "velocity": 0  },
      { "deltaTime": 241, "channel": 0, "type": "channel", "noteNumber": 40, "velocity": 64, "subtype": "noteOn"  },
      { "deltaTime": 239, "channel": 0, "type": "channel", "subtype": "noteOff", "noteNumber": 40, "velocity": 0  },
      { "deltaTime": 241, "channel": 0, "type": "channel", "noteNumber": 40, "velocity": 64, "subtype": "noteOn"  },
      { "deltaTime": 239, "channel": 0, "type": "channel", "subtype": "noteOff", "noteNumber": 40, "velocity": 0  },
      { "deltaTime": 241, "channel": 0, "type": "channel", "noteNumber": 47, "velocity": 64, "subtype": "noteOn"  },
      { "deltaTime": 239, "channel": 0, "type": "channel", "subtype": "noteOff", "noteNumber": 47, "velocity": 0  },
      { "deltaTime": 1, "channel": 0, "type": "channel", "noteNumber": 40, "velocity": 64, "subtype": "noteOn"  },
      { "deltaTime": 239, "channel": 0, "type": "channel", "subtype": "noteOff", "noteNumber": 40, "velocity": 0  },
      { "deltaTime": 241, "channel": 0, "type": "channel", "noteNumber": 40, "velocity": 64, "subtype": "noteOn"  },
      { "deltaTime": 239, "channel": 0, "type": "channel", "subtype": "noteOff", "noteNumber": 40, "velocity": 0  },
      { "deltaTime": 1, "channel": 0, "type": "channel", "noteNumber": 52, "velocity": 64, "subtype": "noteOn"  },
      { "deltaTime": 239, "channel": 0, "type": "channel", "subtype": "noteOff", "noteNumber": 52, "velocity": 0  },
      { "deltaTime": 1, "channel": 0, "type": "channel", "noteNumber": 40, "velocity": 64, "subtype": "noteOn"  },
      { "deltaTime": 239, "channel": 0, "type": "channel", "subtype": "noteOff", "noteNumber": 40, "velocity": 0  },
      { "deltaTime": 1, "channel": 0, "type": "channel", "noteNumber": 40, "velocity": 64, "subtype": "noteOn"  },
      { "deltaTime": 239, "channel": 0, "type": "channel", "subtype": "noteOff", "noteNumber": 40, "velocity": 0  },
      { "deltaTime": 481, "channel": 0, "type": "channel", "noteNumber": 40, "velocity": 64, "subtype": "noteOn"  },
      { "deltaTime": 239, "channel": 0, "type": "channel", "subtype": "noteOff", "noteNumber": 40, "velocity": 0  },
      { "deltaTime": 1, "channel": 0, "type": "channel", "noteNumber": 50, "velocity": 64, "subtype": "noteOn"  },
      { "deltaTime": 239, "channel": 0, "type": "channel", "subtype": "noteOff", "noteNumber": 50, "velocity": 0  },
      { "deltaTime": 1, "channel": 0, "type": "channel", "noteNumber": 40, "velocity": 64, "subtype": "noteOn"  },
      { "deltaTime": 239, "channel": 0, "type": "channel", "subtype": "noteOff", "noteNumber": 40, "velocity": 0  },
      { "deltaTime": 1, "channel": 0, "type": "channel", "noteNumber": 40, "velocity": 64, "subtype": "noteOn"  },
      { "deltaTime": 239, "channel": 0, "type": "channel", "subtype": "noteOff", "noteNumber": 40, "velocity": 0  },
      { "deltaTime": 481, "channel": 0, "type": "channel", "noteNumber": 40, "velocity": 64, "subtype": "noteOn"  },
      { "deltaTime": 239, "channel": 0, "type": "channel", "subtype": "noteOff", "noteNumber": 40, "velocity": 0  },
      { "deltaTime": 1, "channel": 0, "type": "channel", "noteNumber": 52, "velocity": 64, "subtype": "noteOn"  },
      { "deltaTime": 239, "channel": 0, "type": "channel", "subtype": "noteOff", "noteNumber": 52, "velocity": 0  },
      { "deltaTime": 1, "channel": 0, "type": "channel", "noteNumber": 40, "velocity": 64, "subtype": "noteOn"  },
      { "deltaTime": 239, "channel": 0, "type": "channel", "subtype": "noteOff", "noteNumber": 40, "velocity": 0  },
      { "deltaTime": 1, "channel": 0, "type": "channel", "noteNumber": 40, "velocity": 64, "subtype": "noteOn"  },
      { "deltaTime": 239, "channel": 0, "type": "channel", "subtype": "noteOff", "noteNumber": 40, "velocity": 0  },
      { "deltaTime": 481, "channel": 0, "type": "channel", "noteNumber": 40, "velocity": 64, "subtype": "noteOn"  },
      { "deltaTime": 239, "channel": 0, "type": "channel", "subtype": "noteOff", "noteNumber": 40, "velocity": 0  },
      { "deltaTime": 1, "channel": 0, "type": "channel", "noteNumber": 40, "velocity": 64, "subtype": "noteOn"  },
      { "deltaTime": 239, "channel": 0, "type": "channel", "subtype": "noteOff", "noteNumber": 40, "velocity": 0  },
      { "deltaTime": 1, "channel": 0, "type": "channel", "noteNumber": 50, "velocity": 64, "subtype": "noteOn"  },
      { "deltaTime": 239, "channel": 0, "type": "channel", "subtype": "noteOff", "noteNumber": 50, "velocity": 0  },
      { "deltaTime": 1, "channel": 0, "type": "channel", "noteNumber": 40, "velocity": 64, "subtype": "noteOn"  },
      { "deltaTime": 239, "channel": 0, "type": "channel", "subtype": "noteOff", "noteNumber": 40, "velocity": 0  },
      { "deltaTime": 481, "channel": 0, "type": "channel", "noteNumber": 45, "velocity": 64, "subtype": "noteOn"  },
      { "deltaTime": 239, "channel": 0, "type": "channel", "subtype": "noteOff", "noteNumber": 45, "velocity": 0  },
      { "deltaTime": 1, "channel": 0, "type": "channel", "noteNumber": 46, "velocity": 64, "subtype": "noteOn"  },
      { "deltaTime": 239, "channel": 0, "type": "channel", "subtype": "noteOff", "noteNumber": 46, "velocity": 0  },
      { "deltaTime": 1, "channel": 0, "type": "channel", "noteNumber": 47, "velocity": 64, "subtype": "noteOn"  },
      { "deltaTime": 239, "channel": 0, "type": "channel", "subtype": "noteOff", "noteNumber": 47, "velocity": 0  },
      { "deltaTime": 1, "channel": 0, "type": "channel", "noteNumber": 50, "velocity": 64, "subtype": "noteOn"  },
      { "deltaTime": 239, "channel": 0, "type": "channel", "subtype": "noteOff", "noteNumber": 50, "velocity": 0  },
      { "deltaTime": 1, "channel": 0, "type": "channel", "noteNumber": 40, "velocity": 64, "subtype": "noteOn"  },
      { "deltaTime": 479, "channel": 0, "type": "channel", "subtype": "noteOff", "noteNumber": 40, "velocity": 0  },
      { "deltaTime": 1, "channel": 0, "type": "channel", "noteNumber": 47, "velocity": 64, "subtype": "noteOn"  },
      { "deltaTime": 239, "channel": 0, "type": "channel", "subtype": "noteOff", "noteNumber": 47, "velocity": 0  },
      { "deltaTime": 1, "channel": 0, "type": "channel", "noteNumber": 40, "velocity": 64, "subtype": "noteOn"  },
      { "deltaTime": 239, "channel": 0, "type": "channel", "subtype": "noteOff", "noteNumber": 40, "velocity": 0  },
      { "deltaTime": 481, "channel": 0, "type": "channel", "noteNumber": 40, "velocity": 64, "subtype": "noteOn"  },
      { "deltaTime": 479, "channel": 0, "type": "channel", "subtype": "noteOff", "noteNumber": 40, "velocity": 0  },
      { "deltaTime": 1, "channel": 0, "type": "channel", "noteNumber": 46, "velocity": 64, "subtype": "noteOn"  },
      { "deltaTime": 239, "channel": 0, "type": "channel", "subtype": "noteOff", "noteNumber": 46, "velocity": 0  },
      { "deltaTime": 1, "channel": 0, "type": "channel", "noteNumber": 40, "velocity": 64, "subtype": "noteOn"  },
      { "deltaTime": 239, "channel": 0, "type": "channel", "subtype": "noteOff", "noteNumber": 40, "velocity": 0  },
      { "deltaTime": 481, "channel": 0, "type": "channel", "noteNumber": 40, "velocity": 64, "subtype": "noteOn"  },
      { "deltaTime": 479, "channel": 0, "type": "channel", "subtype": "noteOff", "noteNumber": 40, "velocity": 0  },
      { "deltaTime": 1, "channel": 0, "type": "channel", "noteNumber": 44, "velocity": 64, "subtype": "noteOn"  },
      { "deltaTime": 239, "channel": 0, "type": "channel", "subtype": "noteOff", "noteNumber": 44, "velocity": 0  },
      { "deltaTime": 1, "channel": 0, "type": "channel", "noteNumber": 40, "velocity": 64, "subtype": "noteOn"  },
      { "deltaTime": 239, "channel": 0, "type": "channel", "subtype": "noteOff", "noteNumber": 40, "velocity": 0  },
      { "deltaTime": 241, "channel": 0, "type": "channel", "noteNumber": 40, "velocity": 64, "subtype": "noteOn"  },
      { "deltaTime": 479, "channel": 0, "type": "channel", "subtype": "noteOff", "noteNumber": 40, "velocity": 0  },
      { "deltaTime": 1, "channel": 0, "type": "channel", "noteNumber": 46, "velocity": 64, "subtype": "noteOn"  },
      { "deltaTime": 239, "channel": 0, "type": "channel", "subtype": "noteOff", "noteNumber": 46, "velocity": 0  },
      { "deltaTime": 241, "channel": 0, "type": "channel", "noteNumber": 40, "velocity": 64, "subtype": "noteOn"  },
      { "deltaTime": 239, "channel": 0, "type": "channel", "subtype": "noteOff", "noteNumber": 40, "velocity": 0  },
      { "deltaTime": 241, "channel": 0, "type": "channel", "noteNumber": 40, "velocity": 64, "subtype": "noteOn"  },
      { "deltaTime": 239, "channel": 0, "type": "channel", "subtype": "noteOff", "noteNumber": 40, "velocity": 0  },
      { "deltaTime": 241, "channel": 0, "type": "channel", "noteNumber": 47, "velocity": 64, "subtype": "noteOn"  },
      { "deltaTime": 239, "channel": 0, "type": "channel", "subtype": "noteOff", "noteNumber": 47, "velocity": 0  },
      { "deltaTime": 1, "channel": 0, "type": "channel", "noteNumber": 40, "velocity": 64, "subtype": "noteOn"  },
      { "deltaTime": 239, "channel": 0, "type": "channel", "subtype": "noteOff", "noteNumber": 40, "velocity": 0  },
      { "deltaTime": 241, "channel": 0, "type": "channel", "noteNumber": 40, "velocity": 64, "subtype": "noteOn"  },
      { "deltaTime": 239, "channel": 0, "type": "channel", "subtype": "noteOff", "noteNumber": 40, "velocity": 0  },
      { "deltaTime": 1, "channel": 0, "type": "channel", "noteNumber": 52, "velocity": 64, "subtype": "noteOn"  },
      { "deltaTime": 239, "channel": 0, "type": "channel", "subtype": "noteOff", "noteNumber": 52, "velocity": 0  },
      { "deltaTime": 1, "channel": 0, "type": "channel", "noteNumber": 40, "velocity": 64, "subtype": "noteOn"  },
      { "deltaTime": 239, "channel": 0, "type": "channel", "subtype": "noteOff", "noteNumber": 40, "velocity": 0  },
      { "deltaTime": 1, "channel": 0, "type": "channel", "noteNumber": 40, "velocity": 64, "subtype": "noteOn"  },
      { "deltaTime": 239, "channel": 0, "type": "channel", "subtype": "noteOff", "noteNumber": 40, "velocity": 0  },
      { "deltaTime": 481, "channel": 0, "type": "channel", "noteNumber": 40, "velocity": 64, "subtype": "noteOn"  },
      { "deltaTime": 239, "channel": 0, "type": "channel", "subtype": "noteOff", "noteNumber": 40, "velocity": 0  },
      { "deltaTime": 1, "channel": 0, "type": "channel", "noteNumber": 50, "velocity": 64, "subtype": "noteOn"  },
      { "deltaTime": 239, "channel": 0, "type": "channel", "subtype": "noteOff", "noteNumber": 50, "velocity": 0  },
      { "deltaTime": 1, "channel": 0, "type": "channel", "noteNumber": 40, "velocity": 64, "subtype": "noteOn"  },
      { "deltaTime": 239, "channel": 0, "type": "channel", "subtype": "noteOff", "noteNumber": 40, "velocity": 0  },
      { "deltaTime": 1, "channel": 0, "type": "channel", "noteNumber": 40, "velocity": 64, "subtype": "noteOn"  },
      { "deltaTime": 239, "channel": 0, "type": "channel", "subtype": "noteOff", "noteNumber": 40, "velocity": 0  },
      { "deltaTime": 481, "channel": 0, "type": "channel", "noteNumber": 40, "velocity": 64, "subtype": "noteOn"  },
      { "deltaTime": 239, "channel": 0, "type": "channel", "subtype": "noteOff", "noteNumber": 40, "velocity": 0  },
      { "deltaTime": 1, "channel": 0, "type": "channel", "noteNumber": 52, "velocity": 64, "subtype": "noteOn"  },
      { "deltaTime": 239, "channel": 0, "type": "channel", "subtype": "noteOff", "noteNumber": 52, "velocity": 0  },
      { "deltaTime": 1, "channel": 0, "type": "channel", "noteNumber": 40, "velocity": 64, "subtype": "noteOn"  },
      { "deltaTime": 239, "channel": 0, "type": "channel", "subtype": "noteOff", "noteNumber": 40, "velocity": 0  },
      { "deltaTime": 1, "channel": 0, "type": "channel", "noteNumber": 40, "velocity": 64, "subtype": "noteOn"  },
      { "deltaTime": 239, "channel": 0, "type": "channel", "subtype": "noteOff", "noteNumber": 40, "velocity": 0  },
      { "deltaTime": 481, "channel": 0, "type": "channel", "noteNumber": 40, "velocity": 64, "subtype": "noteOn"  },
      { "deltaTime": 239, "channel": 0, "type": "channel", "subtype": "noteOff", "noteNumber": 40, "velocity": 0  },
      { "deltaTime": 1, "channel": 0, "type": "channel", "noteNumber": 40, "velocity": 64, "subtype": "noteOn"  },
      { "deltaTime": 239, "channel": 0, "type": "channel", "subtype": "noteOff", "noteNumber": 40, "velocity": 0  },
      { "deltaTime": 1, "channel": 0, "type": "channel", "noteNumber": 50, "velocity": 64, "subtype": "noteOn"  },
      { "deltaTime": 239, "channel": 0, "type": "channel", "subtype": "noteOff", "noteNumber": 50, "velocity": 0  },
      { "deltaTime": 1, "channel": 0, "type": "channel", "noteNumber": 40, "velocity": 64, "subtype": "noteOn"  },
      { "deltaTime": 239, "channel": 0, "type": "channel", "subtype": "noteOff", "noteNumber": 40, "velocity": 0  },
      { "deltaTime": 481, "channel": 0, "type": "channel", "noteNumber": 45, "velocity": 64, "subtype": "noteOn"  },
      { "deltaTime": 239, "channel": 0, "type": "channel", "subtype": "noteOff", "noteNumber": 45, "velocity": 0  },
      { "deltaTime": 1, "channel": 0, "type": "channel", "noteNumber": 46, "velocity": 64, "subtype": "noteOn"  },
      { "deltaTime": 239, "channel": 0, "type": "channel", "subtype": "noteOff", "noteNumber": 46, "velocity": 0  },
      { "deltaTime": 1, "channel": 0, "type": "channel", "noteNumber": 47, "velocity": 64, "subtype": "noteOn"  },
      { "deltaTime": 239, "channel": 0, "type": "channel", "subtype": "noteOff", "noteNumber": 47, "velocity": 0  },
      { "deltaTime": 1, "channel": 0, "type": "channel", "noteNumber": 50, "velocity": 64, "subtype": "noteOn"  },
      { "deltaTime": 239, "channel": 0, "type": "channel", "subtype": "noteOff", "noteNumber": 50, "velocity": 0  },
      { "deltaTime": 1, "channel": 0, "type": "channel", "noteNumber": 40, "velocity": 64, "subtype": "noteOn"  },
      { "deltaTime": 239, "channel": 0, "type": "channel", "subtype": "noteOff", "noteNumber": 40, "velocity": 0  },
      { "deltaTime": 1, "channel": 0, "type": "channel", "noteNumber": 52, "velocity": 64, "subtype": "noteOn"  },
      { "deltaTime": 239, "channel": 0, "type": "channel", "subtype": "noteOff", "noteNumber": 52, "velocity": 0  },
      { "deltaTime": 1, "channel": 0, "type": "channel", "noteNumber": 40, "velocity": 64, "subtype": "noteOn"  },
      { "deltaTime": 239, "channel": 0, "type": "channel", "subtype": "noteOff", "noteNumber": 40, "velocity": 0  },
      { "deltaTime": 1, "channel": 0, "type": "channel", "noteNumber": 40, "velocity": 64, "subtype": "noteOn"  },
      { "deltaTime": 239, "channel": 0, "type": "channel", "subtype": "noteOff", "noteNumber": 40, "velocity": 0  },
      { "deltaTime": 1, "channel": 0, "type": "channel", "noteNumber": 50, "velocity": 64, "subtype": "noteOn"  },
      { "deltaTime": 239, "channel": 0, "type": "channel", "subtype": "noteOff", "noteNumber": 50, "velocity": 0  },
      { "deltaTime": 241, "channel": 0, "type": "channel", "noteNumber": 40, "velocity": 64, "subtype": "noteOn"  },
      { "deltaTime": 239, "channel": 0, "type": "channel", "subtype": "noteOff", "noteNumber": 40, "velocity": 0  },
      { "deltaTime": 1, "channel": 0, "type": "channel", "noteNumber": 49, "velocity": 64, "subtype": "noteOn"  },
      { "deltaTime": 239, "channel": 0, "type": "channel", "subtype": "noteOff", "noteNumber": 49, "velocity": 0  },
      { "deltaTime": 1, "channel": 0, "type": "channel", "noteNumber": 40, "velocity": 64, "subtype": "noteOn"  },
      { "deltaTime": 239, "channel": 0, "type": "channel", "subtype": "noteOff", "noteNumber": 40, "velocity": 0  },
      { "deltaTime": 1, "channel": 0, "type": "channel", "noteNumber": 40, "velocity": 64, "subtype": "noteOn"  },
      { "deltaTime": 239, "channel": 0, "type": "channel", "subtype": "noteOff", "noteNumber": 40, "velocity": 0  },
      { "deltaTime": 1, "channel": 0, "type": "channel", "noteNumber": 47, "velocity": 64, "subtype": "noteOn"  },
      { "deltaTime": 239, "channel": 0, "type": "channel", "subtype": "noteOff", "noteNumber": 47, "velocity": 0  },
      { "deltaTime": 241, "channel": 0, "type": "channel", "noteNumber": 40, "velocity": 64, "subtype": "noteOn"  },
      { "deltaTime": 239, "channel": 0, "type": "channel", "subtype": "noteOff", "noteNumber": 40, "velocity": 0  },
      { "deltaTime": 1, "channel": 0, "type": "channel", "noteNumber": 45, "velocity": 64, "subtype": "noteOn"  },
      { "deltaTime": 239, "channel": 0, "type": "channel", "subtype": "noteOff", "noteNumber": 45, "velocity": 0  },
      { "deltaTime": 1, "channel": 0, "type": "channel", "noteNumber": 47, "velocity": 64, "subtype": "noteOn"  },
      { "deltaTime": 239, "channel": 0, "type": "channel", "subtype": "noteOff", "noteNumber": 47, "velocity": 0  },
      { "deltaTime": 1, "channel": 0, "type": "channel", "noteNumber": 52, "velocity": 64, "subtype": "noteOn"  },
      { "deltaTime": 239, "channel": 0, "type": "channel", "subtype": "noteOff", "noteNumber": 52, "velocity": 0  },
      { "deltaTime": 1, "channel": 0, "type": "channel", "noteNumber": 40, "velocity": 64, "subtype": "noteOn"  },
      { "deltaTime": 239, "channel": 0, "type": "channel", "subtype": "noteOff", "noteNumber": 40, "velocity": 0  },
      { "deltaTime": 1, "channel": 0, "type": "channel", "noteNumber": 52, "velocity": 64, "subtype": "noteOn"  },
      { "deltaTime": 239, "channel": 0, "type": "channel", "subtype": "noteOff", "noteNumber": 52, "velocity": 0  },
      { "deltaTime": 1, "channel": 0, "type": "channel", "noteNumber": 40, "velocity": 64, "subtype": "noteOn"  },
      { "deltaTime": 239, "channel": 0, "type": "channel", "subtype": "noteOff", "noteNumber": 40, "velocity": 0  },
      { "deltaTime": 1, "channel": 0, "type": "channel", "noteNumber": 40, "velocity": 64, "subtype": "noteOn"  },
      { "deltaTime": 239, "channel": 0, "type": "channel", "subtype": "noteOff", "noteNumber": 40, "velocity": 0  },
      { "deltaTime": 1, "channel": 0, "type": "channel", "noteNumber": 50, "velocity": 64, "subtype": "noteOn"  },
      { "deltaTime": 239, "channel": 0, "type": "channel", "subtype": "noteOff", "noteNumber": 50, "velocity": 0  },
      { "deltaTime": 241, "channel": 0, "type": "channel", "noteNumber": 40, "velocity": 64, "subtype": "noteOn"  },
      { "deltaTime": 239, "channel": 0, "type": "channel", "subtype": "noteOff", "noteNumber": 40, "velocity": 0  },
      { "deltaTime": 1, "channel": 0, "type": "channel", "noteNumber": 49, "velocity": 64, "subtype": "noteOn"  },
      { "deltaTime": 239, "channel": 0, "type": "channel", "subtype": "noteOff", "noteNumber": 49, "velocity": 0  },
      { "deltaTime": 1, "channel": 0, "type": "channel", "noteNumber": 40, "velocity": 64, "subtype": "noteOn"  },
      { "deltaTime": 239, "channel": 0, "type": "channel", "subtype": "noteOff", "noteNumber": 40, "velocity": 0  },
      { "deltaTime": 1, "channel": 0, "type": "channel", "noteNumber": 40, "velocity": 64, "subtype": "noteOn"  },
      { "deltaTime": 239, "channel": 0, "type": "channel", "subtype": "noteOff", "noteNumber": 40, "velocity": 0  },
      { "deltaTime": 1, "channel": 0, "type": "channel", "noteNumber": 47, "velocity": 64, "subtype": "noteOn"  },
      { "deltaTime": 239, "channel": 0, "type": "channel", "subtype": "noteOff", "noteNumber": 47, "velocity": 0  },
      { "deltaTime": 241, "channel": 0, "type": "channel", "noteNumber": 40, "velocity": 64, "subtype": "noteOn"  },
      { "deltaTime": 239, "channel": 0, "type": "channel", "subtype": "noteOff", "noteNumber": 40, "velocity": 0  },
      { "deltaTime": 1, "channel": 0, "type": "channel", "noteNumber": 52, "velocity": 64, "subtype": "noteOn"  },
      { "deltaTime": 239, "channel": 0, "type": "channel", "subtype": "noteOff", "noteNumber": 52, "velocity": 0  },
      { "deltaTime": 1, "channel": 0, "type": "channel", "noteNumber": 40, "velocity": 64, "subtype": "noteOn"  },
      { "deltaTime": 239, "channel": 0, "type": "channel", "subtype": "noteOff", "noteNumber": 40, "velocity": 0  },
      { "deltaTime": 1, "channel": 0, "type": "channel", "noteNumber": 40, "velocity": 64, "subtype": "noteOn"  },
      { "deltaTime": 239, "channel": 0, "type": "channel", "subtype": "noteOff", "noteNumber": 40, "velocity": 0  },
      { "deltaTime": 1, "channel": 0, "type": "channel", "noteNumber": 50, "velocity": 64, "subtype": "noteOn"  },
      { "deltaTime": 239, "channel": 0, "type": "channel", "subtype": "noteOff", "noteNumber": 50, "velocity": 0  },
      { "deltaTime": 241, "channel": 0, "type": "channel", "noteNumber": 40, "velocity": 64, "subtype": "noteOn"  },
      { "deltaTime": 239, "channel": 0, "type": "channel", "subtype": "noteOff", "noteNumber": 40, "velocity": 0  },
      { "deltaTime": 1, "channel": 0, "type": "channel", "noteNumber": 49, "velocity": 64, "subtype": "noteOn"  },
      { "deltaTime": 239, "channel": 0, "type": "channel", "subtype": "noteOff", "noteNumber": 49, "velocity": 0  },
      { "deltaTime": 1, "channel": 0, "type": "channel", "noteNumber": 40, "velocity": 64, "subtype": "noteOn"  },
      { "deltaTime": 239, "channel": 0, "type": "channel", "subtype": "noteOff", "noteNumber": 40, "velocity": 0  },
      { "deltaTime": 1, "channel": 0, "type": "channel", "noteNumber": 40, "velocity": 64, "subtype": "noteOn"  },
      { "deltaTime": 239, "channel": 0, "type": "channel", "subtype": "noteOff", "noteNumber": 40, "velocity": 0  },
      { "deltaTime": 1, "channel": 0, "type": "channel", "noteNumber": 47, "velocity": 64, "subtype": "noteOn"  },
      { "deltaTime": 239, "channel": 0, "type": "channel", "subtype": "noteOff", "noteNumber": 47, "velocity": 0  },
      { "deltaTime": 241, "channel": 0, "type": "channel", "noteNumber": 40, "velocity": 64, "subtype": "noteOn"  },
      { "deltaTime": 239, "channel": 0, "type": "channel", "subtype": "noteOff", "noteNumber": 40, "velocity": 0  },
      { "deltaTime": 1, "channel": 0, "type": "channel", "noteNumber": 45, "velocity": 64, "subtype": "noteOn"  },
      { "deltaTime": 239, "channel": 0, "type": "channel", "subtype": "noteOff", "noteNumber": 45, "velocity": 0  },
      { "deltaTime": 1, "channel": 0, "type": "channel", "noteNumber": 47, "velocity": 64, "subtype": "noteOn"  },
      { "deltaTime": 239, "channel": 0, "type": "channel", "subtype": "noteOff", "noteNumber": 47, "velocity": 0  },
      { "deltaTime": 1, "channel": 0, "type": "channel", "noteNumber": 52, "velocity": 64, "subtype": "noteOn"  },
      { "deltaTime": 239, "channel": 0, "type": "channel", "subtype": "noteOff", "noteNumber": 52, "velocity": 0  },
      { "deltaTime": 1, "channel": 0, "type": "channel", "noteNumber": 40, "velocity": 64, "subtype": "noteOn"  },
      { "deltaTime": 239, "channel": 0, "type": "channel", "subtype": "noteOff", "noteNumber": 40, "velocity": 0  },
      { "deltaTime": 1, "channel": 0, "type": "channel", "noteNumber": 52, "velocity": 64, "subtype": "noteOn"  },
      { "deltaTime": 239, "channel": 0, "type": "channel", "subtype": "noteOff", "noteNumber": 52, "velocity": 0  },
      { "deltaTime": 1, "channel": 0, "type": "channel", "noteNumber": 40, "velocity": 64, "subtype": "noteOn"  },
      { "deltaTime": 239, "channel": 0, "type": "channel", "subtype": "noteOff", "noteNumber": 40, "velocity": 0  },
      { "deltaTime": 1, "channel": 0, "type": "channel", "noteNumber": 40, "velocity": 64, "subtype": "noteOn"  },
      { "deltaTime": 239, "channel": 0, "type": "channel", "subtype": "noteOff", "noteNumber": 40, "velocity": 0  },
      { "deltaTime": 1, "channel": 0, "type": "channel", "noteNumber": 50, "velocity": 64, "subtype": "noteOn"  },
      { "deltaTime": 239, "channel": 0, "type": "channel", "subtype": "noteOff", "noteNumber": 50, "velocity": 0  },
      { "deltaTime": 241, "channel": 0, "type": "channel", "noteNumber": 40, "velocity": 64, "subtype": "noteOn"  },
      { "deltaTime": 239, "channel": 0, "type": "channel", "subtype": "noteOff", "noteNumber": 40, "velocity": 0  },
      { "deltaTime": 1, "channel": 0, "type": "channel", "noteNumber": 49, "velocity": 64, "subtype": "noteOn"  },
      { "deltaTime": 239, "channel": 0, "type": "channel", "subtype": "noteOff", "noteNumber": 49, "velocity": 0  },
      { "deltaTime": 1, "channel": 0, "type": "channel", "noteNumber": 40, "velocity": 64, "subtype": "noteOn"  },
      { "deltaTime": 239, "channel": 0, "type": "channel", "subtype": "noteOff", "noteNumber": 40, "velocity": 0  },
      { "deltaTime": 1, "channel": 0, "type": "channel", "noteNumber": 40, "velocity": 64, "subtype": "noteOn"  },
      { "deltaTime": 239, "channel": 0, "type": "channel", "subtype": "noteOff", "noteNumber": 40, "velocity": 0  },
      { "deltaTime": 1, "channel": 0, "type": "channel", "noteNumber": 47, "velocity": 64, "subtype": "noteOn"  },
      { "deltaTime": 239, "channel": 0, "type": "channel", "subtype": "noteOff", "noteNumber": 47, "velocity": 0  },
      { "deltaTime": 241, "channel": 0, "type": "channel", "noteNumber": 40, "velocity": 64, "subtype": "noteOn"  },
      { "deltaTime": 239, "channel": 0, "type": "channel", "subtype": "noteOff", "noteNumber": 40, "velocity": 0  },
      { "deltaTime": 1, "channel": 0, "type": "channel", "noteNumber": 52, "velocity": 64, "subtype": "noteOn"  },
      { "deltaTime": 239, "channel": 0, "type": "channel", "subtype": "noteOff", "noteNumber": 52, "velocity": 0  },
      { "deltaTime": 1, "channel": 0, "type": "channel", "noteNumber": 40, "velocity": 64, "subtype": "noteOn"  },
      { "deltaTime": 239, "channel": 0, "type": "channel", "subtype": "noteOff", "noteNumber": 40, "velocity": 0  },
      { "deltaTime": 1, "channel": 0, "type": "channel", "noteNumber": 40, "velocity": 64, "subtype": "noteOn"  },
      { "deltaTime": 239, "channel": 0, "type": "channel", "subtype": "noteOff", "noteNumber": 40, "velocity": 0  },
      { "deltaTime": 1, "channel": 0, "type": "channel", "noteNumber": 50, "velocity": 64, "subtype": "noteOn"  },
      { "deltaTime": 239, "channel": 0, "type": "channel", "subtype": "noteOff", "noteNumber": 50, "velocity": 0  },
      { "deltaTime": 241, "channel": 0, "type": "channel", "noteNumber": 40, "velocity": 64, "subtype": "noteOn"  },
      { "deltaTime": 239, "channel": 0, "type": "channel", "subtype": "noteOff", "noteNumber": 40, "velocity": 0  },
      { "deltaTime": 1, "channel": 0, "type": "channel", "noteNumber": 49, "velocity": 64, "subtype": "noteOn"  },
      { "deltaTime": 239, "channel": 0, "type": "channel", "subtype": "noteOff", "noteNumber": 49, "velocity": 0  },
      { "deltaTime": 1, "channel": 0, "type": "channel", "noteNumber": 40, "velocity": 64, "subtype": "noteOn"  },
      { "deltaTime": 239, "channel": 0, "type": "channel", "subtype": "noteOff", "noteNumber": 40, "velocity": 0  },
      { "deltaTime": 1, "channel": 0, "type": "channel", "noteNumber": 40, "velocity": 64, "subtype": "noteOn"  },
      { "deltaTime": 239, "channel": 0, "type": "channel", "subtype": "noteOff", "noteNumber": 40, "velocity": 0  },
      { "deltaTime": 1, "channel": 0, "type": "channel", "noteNumber": 47, "velocity": 64, "subtype": "noteOn"  },
      { "deltaTime": 239, "channel": 0, "type": "channel", "subtype": "noteOff", "noteNumber": 47, "velocity": 0  },
      { "deltaTime": 241, "channel": 0, "type": "channel", "noteNumber": 40, "velocity": 64, "subtype": "noteOn"  },
      { "deltaTime": 239, "channel": 0, "type": "channel", "subtype": "noteOff", "noteNumber": 40, "velocity": 0  },
      { "deltaTime": 1, "channel": 0, "type": "channel", "noteNumber": 45, "velocity": 64, "subtype": "noteOn"  },
      { "deltaTime": 239, "channel": 0, "type": "channel", "subtype": "noteOff", "noteNumber": 45, "velocity": 0  },
      { "deltaTime": 1, "channel": 0, "type": "channel", "noteNumber": 47, "velocity": 64, "subtype": "noteOn"  },
      { "deltaTime": 239, "channel": 0, "type": "channel", "subtype": "noteOff", "noteNumber": 47, "velocity": 0  },
      { "deltaTime": 1, "channel": 0, "type": "channel", "noteNumber": 52, "velocity": 64, "subtype": "noteOn"  },
      { "deltaTime": 239, "channel": 0, "type": "channel", "subtype": "noteOff", "noteNumber": 52, "velocity": 0  },
      { "deltaTime": 1, "channel": 0, "type": "channel", "noteNumber": 40, "velocity": 64, "subtype": "noteOn"  },
      { "deltaTime": 239, "channel": 0, "type": "channel", "subtype": "noteOff", "noteNumber": 40, "velocity": 0  },
      { "deltaTime": 1, "channel": 0, "type": "channel", "noteNumber": 52, "velocity": 64, "subtype": "noteOn"  },
      { "deltaTime": 239, "channel": 0, "type": "channel", "subtype": "noteOff", "noteNumber": 52, "velocity": 0  },
      { "deltaTime": 1, "channel": 0, "type": "channel", "noteNumber": 40, "velocity": 64, "subtype": "noteOn"  },
      { "deltaTime": 239, "channel": 0, "type": "channel", "subtype": "noteOff", "noteNumber": 40, "velocity": 0  },
      { "deltaTime": 1, "channel": 0, "type": "channel", "noteNumber": 40, "velocity": 64, "subtype": "noteOn"  },
      { "deltaTime": 239, "channel": 0, "type": "channel", "subtype": "noteOff", "noteNumber": 40, "velocity": 0  },
      { "deltaTime": 1, "channel": 0, "type": "channel", "noteNumber": 50, "velocity": 64, "subtype": "noteOn"  },
      { "deltaTime": 239, "channel": 0, "type": "channel", "subtype": "noteOff", "noteNumber": 50, "velocity": 0  },
      { "deltaTime": 241, "channel": 0, "type": "channel", "noteNumber": 40, "velocity": 64, "subtype": "noteOn"  },
      { "deltaTime": 239, "channel": 0, "type": "channel", "subtype": "noteOff", "noteNumber": 40, "velocity": 0  },
      { "deltaTime": 1, "channel": 0, "type": "channel", "noteNumber": 49, "velocity": 64, "subtype": "noteOn"  },
      { "deltaTime": 239, "channel": 0, "type": "channel", "subtype": "noteOff", "noteNumber": 49, "velocity": 0  },
      { "deltaTime": 1, "channel": 0, "type": "channel", "noteNumber": 40, "velocity": 64, "subtype": "noteOn"  },
      { "deltaTime": 239, "channel": 0, "type": "channel", "subtype": "noteOff", "noteNumber": 40, "velocity": 0  },
      { "deltaTime": 1, "channel": 0, "type": "channel", "noteNumber": 40, "velocity": 64, "subtype": "noteOn"  },
      { "deltaTime": 239, "channel": 0, "type": "channel", "subtype": "noteOff", "noteNumber": 40, "velocity": 0  },
      { "deltaTime": 1, "channel": 0, "type": "channel", "noteNumber": 47, "velocity": 64, "subtype": "noteOn"  },
      { "deltaTime": 239, "channel": 0, "type": "channel", "subtype": "noteOff", "noteNumber": 47, "velocity": 0  },
      { "deltaTime": 241, "channel": 0, "type": "channel", "noteNumber": 40, "velocity": 64, "subtype": "noteOn"  },
      { "deltaTime": 239, "channel": 0, "type": "channel", "subtype": "noteOff", "noteNumber": 40, "velocity": 0  },
      { "deltaTime": 1, "channel": 0, "type": "channel", "noteNumber": 52, "velocity": 64, "subtype": "noteOn"  },
      { "deltaTime": 239, "channel": 0, "type": "channel", "subtype": "noteOff", "noteNumber": 52, "velocity": 0  },
      { "deltaTime": 1, "channel": 0, "type": "channel", "noteNumber": 40, "velocity": 64, "subtype": "noteOn"  },
      { "deltaTime": 239, "channel": 0, "type": "channel", "subtype": "noteOff", "noteNumber": 40, "velocity": 0  },
      { "deltaTime": 1, "channel": 0, "type": "channel", "noteNumber": 40, "velocity": 64, "subtype": "noteOn"  },
      { "deltaTime": 239, "channel": 0, "type": "channel", "subtype": "noteOff", "noteNumber": 40, "velocity": 0  },
      { "deltaTime": 1, "channel": 0, "type": "channel", "noteNumber": 50, "velocity": 64, "subtype": "noteOn"  },
      { "deltaTime": 239, "channel": 0, "type": "channel", "subtype": "noteOff", "noteNumber": 50, "velocity": 0  },
      { "deltaTime": 241, "channel": 0, "type": "channel", "noteNumber": 40, "velocity": 64, "subtype": "noteOn"  },
      { "deltaTime": 239, "channel": 0, "type": "channel", "subtype": "noteOff", "noteNumber": 40, "velocity": 0  },
      { "deltaTime": 1, "channel": 0, "type": "channel", "noteNumber": 49, "velocity": 64, "subtype": "noteOn"  },
      { "deltaTime": 239, "channel": 0, "type": "channel", "subtype": "noteOff", "noteNumber": 49, "velocity": 0  },
      { "deltaTime": 1, "channel": 0, "type": "channel", "noteNumber": 40, "velocity": 64, "subtype": "noteOn"  },
      { "deltaTime": 239, "channel": 0, "type": "channel", "subtype": "noteOff", "noteNumber": 40, "velocity": 0  },
      { "deltaTime": 1, "channel": 0, "type": "channel", "noteNumber": 40, "velocity": 64, "subtype": "noteOn"  },
      { "deltaTime": 239, "channel": 0, "type": "channel", "subtype": "noteOff", "noteNumber": 40, "velocity": 0  },
      { "deltaTime": 1, "channel": 0, "type": "channel", "noteNumber": 47, "velocity": 64, "subtype": "noteOn"  },
      { "deltaTime": 239, "channel": 0, "type": "channel", "subtype": "noteOff", "noteNumber": 47, "velocity": 0  },
      { "deltaTime": 241, "channel": 0, "type": "channel", "noteNumber": 40, "velocity": 64, "subtype": "noteOn"  },
      { "deltaTime": 239, "channel": 0, "type": "channel", "subtype": "noteOff", "noteNumber": 40, "velocity": 0  },
      { "deltaTime": 1, "channel": 0, "type": "channel", "noteNumber": 45, "velocity": 64, "subtype": "noteOn"  },
      { "deltaTime": 239, "channel": 0, "type": "channel", "subtype": "noteOff", "noteNumber": 45, "velocity": 0  },
      { "deltaTime": 1, "channel": 0, "type": "channel", "noteNumber": 47, "velocity": 64, "subtype": "noteOn"  },
      { "deltaTime": 239, "channel": 0, "type": "channel", "subtype": "noteOff", "noteNumber": 47, "velocity": 0  },
      { "deltaTime": 1, "channel": 0, "type": "channel", "noteNumber": 52, "velocity": 64, "subtype": "noteOn"  },
      { "deltaTime": 239, "channel": 0, "type": "channel", "subtype": "noteOff", "noteNumber": 52, "velocity": 0  },
      { "deltaTime": 1, "channel": 0, "type": "channel", "noteNumber": 40, "velocity": 64, "subtype": "noteOn"  },
      { "deltaTime": 239, "channel": 0, "type": "channel", "subtype": "noteOff", "noteNumber": 40, "velocity": 0  },
      { "deltaTime": 1, "channel": 0, "type": "channel", "noteNumber": 52, "velocity": 64, "subtype": "noteOn"  },
      { "deltaTime": 239, "channel": 0, "type": "channel", "subtype": "noteOff", "noteNumber": 52, "velocity": 0  },
      { "deltaTime": 1, "channel": 0, "type": "channel", "noteNumber": 40, "velocity": 64, "subtype": "noteOn"  },
      { "deltaTime": 239, "channel": 0, "type": "channel", "subtype": "noteOff", "noteNumber": 40, "velocity": 0  },
      { "deltaTime": 1, "channel": 0, "type": "channel", "noteNumber": 40, "velocity": 64, "subtype": "noteOn"  },
      { "deltaTime": 239, "channel": 0, "type": "channel", "subtype": "noteOff", "noteNumber": 40, "velocity": 0  },
      { "deltaTime": 1, "channel": 0, "type": "channel", "noteNumber": 50, "velocity": 64, "subtype": "noteOn"  },
      { "deltaTime": 239, "channel": 0, "type": "channel", "subtype": "noteOff", "noteNumber": 50, "velocity": 0  },
      { "deltaTime": 241, "channel": 0, "type": "channel", "noteNumber": 40, "velocity": 64, "subtype": "noteOn"  },
      { "deltaTime": 239, "channel": 0, "type": "channel", "subtype": "noteOff", "noteNumber": 40, "velocity": 0  },
      { "deltaTime": 1, "channel": 0, "type": "channel", "noteNumber": 49, "velocity": 64, "subtype": "noteOn"  },
      { "deltaTime": 239, "channel": 0, "type": "channel", "subtype": "noteOff", "noteNumber": 49, "velocity": 0  },
      { "deltaTime": 1, "channel": 0, "type": "channel", "noteNumber": 40, "velocity": 64, "subtype": "noteOn"  },
      { "deltaTime": 239, "channel": 0, "type": "channel", "subtype": "noteOff", "noteNumber": 40, "velocity": 0  },
      { "deltaTime": 1, "channel": 0, "type": "channel", "noteNumber": 40, "velocity": 64, "subtype": "noteOn"  },
      { "deltaTime": 239, "channel": 0, "type": "channel", "subtype": "noteOff", "noteNumber": 40, "velocity": 0  },
      { "deltaTime": 1, "channel": 0, "type": "channel", "noteNumber": 47, "velocity": 64, "subtype": "noteOn"  },
      { "deltaTime": 239, "channel": 0, "type": "channel", "subtype": "noteOff", "noteNumber": 47, "velocity": 0  },
      { "deltaTime": 241, "channel": 0, "type": "channel", "noteNumber": 40, "velocity": 64, "subtype": "noteOn"  },
      { "deltaTime": 239, "channel": 0, "type": "channel", "subtype": "noteOff", "noteNumber": 40, "velocity": 0  },
      { "deltaTime": 1, "channel": 0, "type": "channel", "noteNumber": 52, "velocity": 64, "subtype": "noteOn"  },
      { "deltaTime": 239, "channel": 0, "type": "channel", "subtype": "noteOff", "noteNumber": 52, "velocity": 0  },
      { "deltaTime": 1, "channel": 0, "type": "channel", "noteNumber": 40, "velocity": 64, "subtype": "noteOn"  },
      { "deltaTime": 239, "channel": 0, "type": "channel", "subtype": "noteOff", "noteNumber": 40, "velocity": 0  },
      { "deltaTime": 1, "channel": 0, "type": "channel", "noteNumber": 40, "velocity": 64, "subtype": "noteOn"  },
      { "deltaTime": 239, "channel": 0, "type": "channel", "subtype": "noteOff", "noteNumber": 40, "velocity": 0  },
      { "deltaTime": 1, "channel": 0, "type": "channel", "noteNumber": 50, "velocity": 64, "subtype": "noteOn"  },
      { "deltaTime": 239, "channel": 0, "type": "channel", "subtype": "noteOff", "noteNumber": 50, "velocity": 0  },
      { "deltaTime": 1, "channel": 0, "type": "channel", "noteNumber": 40, "velocity": 64, "subtype": "noteOn"  },
      { "deltaTime": 239, "channel": 0, "type": "channel", "subtype": "noteOff", "noteNumber": 40, "velocity": 0  },
      { "deltaTime": 1, "channel": 0, "type": "channel", "noteNumber": 40, "velocity": 64, "subtype": "noteOn"  },
      { "deltaTime": 239, "channel": 0, "type": "channel", "subtype": "noteOff", "noteNumber": 40, "velocity": 0  },
      { "deltaTime": 1, "channel": 0, "type": "channel", "noteNumber": 52, "velocity": 64, "subtype": "noteOn"  },
      { "deltaTime": 239, "channel": 0, "type": "channel", "subtype": "noteOff", "noteNumber": 52, "velocity": 0  },
      { "deltaTime": 1, "channel": 0, "type": "channel", "noteNumber": 40, "velocity": 64, "subtype": "noteOn"  },
      { "deltaTime": 239, "channel": 0, "type": "channel", "subtype": "noteOff", "noteNumber": 40, "velocity": 0  },
      { "deltaTime": 1, "channel": 0, "type": "channel", "noteNumber": 40, "velocity": 64, "subtype": "noteOn"  },
      { "deltaTime": 239, "channel": 0, "type": "channel", "subtype": "noteOff", "noteNumber": 40, "velocity": 0  },
      { "deltaTime": 1, "channel": 0, "type": "channel", "noteNumber": 47, "velocity": 64, "subtype": "noteOn"  },
      { "deltaTime": 239, "channel": 0, "type": "channel", "subtype": "noteOff", "noteNumber": 47, "velocity": 0  },
      { "deltaTime": 1, "channel": 0, "type": "channel", "noteNumber": 40, "velocity": 64, "subtype": "noteOn"  },
      { "deltaTime": 239, "channel": 0, "type": "channel", "subtype": "noteOff", "noteNumber": 40, "velocity": 0  },
      { "deltaTime": 1, "channel": 0, "type": "channel", "noteNumber": 50, "velocity": 64, "subtype": "noteOn"  },
      { "deltaTime": 239, "channel": 0, "type": "channel", "subtype": "noteOff", "noteNumber": 50, "velocity": 0  },
      { "deltaTime": 1, "channel": 0, "type": "channel", "noteNumber": 40, "velocity": 64, "subtype": "noteOn"  },
      { "deltaTime": 239, "channel": 0, "type": "channel", "subtype": "noteOff", "noteNumber": 40, "velocity": 0  },
      { "deltaTime": 1, "channel": 0, "type": "channel", "noteNumber": 49, "velocity": 64, "subtype": "noteOn"  },
      { "deltaTime": 239, "channel": 0, "type": "channel", "subtype": "noteOff", "noteNumber": 49, "velocity": 0  },
      { "deltaTime": 1, "channel": 0, "type": "channel", "noteNumber": 50, "velocity": 64, "subtype": "noteOn"  },
      { "deltaTime": 239, "channel": 0, "type": "channel", "subtype": "noteOff", "noteNumber": 50, "velocity": 0  },
      { "deltaTime": 1, "channel": 0, "type": "channel", "noteNumber": 40, "velocity": 64, "subtype": "noteOn"  },
      { "deltaTime": 239, "channel": 0, "type": "channel", "subtype": "noteOff", "noteNumber": 40, "velocity": 0  },
      { "deltaTime": 1, "channel": 0, "type": "channel", "noteNumber": 52, "velocity": 64, "subtype": "noteOn"  },
      { "deltaTime": 239, "channel": 0, "type": "channel", "subtype": "noteOff", "noteNumber": 52, "velocity": 0  },
      { "deltaTime": 1, "channel": 0, "type": "channel", "noteNumber": 40, "velocity": 64, "subtype": "noteOn"  },
      { "deltaTime": 239, "channel": 0, "type": "channel", "subtype": "noteOff", "noteNumber": 40, "velocity": 0  },
      { "deltaTime": 1, "channel": 0, "type": "channel", "noteNumber": 40, "velocity": 64, "subtype": "noteOn"  },
      { "deltaTime": 239, "channel": 0, "type": "channel", "subtype": "noteOff", "noteNumber": 40, "velocity": 0  },
      { "deltaTime": 1, "channel": 0, "type": "channel", "noteNumber": 50, "velocity": 64, "subtype": "noteOn"  },
      { "deltaTime": 239, "channel": 0, "type": "channel", "subtype": "noteOff", "noteNumber": 50, "velocity": 0  },
      { "deltaTime": 1, "channel": 0, "type": "channel", "noteNumber": 40, "velocity": 64, "subtype": "noteOn"  },
      { "deltaTime": 239, "channel": 0, "type": "channel", "subtype": "noteOff", "noteNumber": 40, "velocity": 0  },
      { "deltaTime": 1, "channel": 0, "type": "channel", "noteNumber": 40, "velocity": 64, "subtype": "noteOn"  },
      { "deltaTime": 239, "channel": 0, "type": "channel", "subtype": "noteOff", "noteNumber": 40, "velocity": 0  },
      { "deltaTime": 1, "channel": 0, "type": "channel", "noteNumber": 52, "velocity": 64, "subtype": "noteOn"  },
      { "deltaTime": 239, "channel": 0, "type": "channel", "subtype": "noteOff", "noteNumber": 52, "velocity": 0  },
      { "deltaTime": 1, "channel": 0, "type": "channel", "noteNumber": 40, "velocity": 64, "subtype": "noteOn"  },
      { "deltaTime": 239, "channel": 0, "type": "channel", "subtype": "noteOff", "noteNumber": 40, "velocity": 0  },
      { "deltaTime": 1, "channel": 0, "type": "channel", "noteNumber": 40, "velocity": 64, "subtype": "noteOn"  },
      { "deltaTime": 239, "channel": 0, "type": "channel", "subtype": "noteOff", "noteNumber": 40, "velocity": 0  },
      { "deltaTime": 1, "channel": 0, "type": "channel", "noteNumber": 56, "velocity": 64, "subtype": "noteOn"  },
      { "deltaTime": 239, "channel": 0, "type": "channel", "subtype": "noteOff", "noteNumber": 56, "velocity": 0  },
      { "deltaTime": 1, "channel": 0, "type": "channel", "noteNumber": 40, "velocity": 64, "subtype": "noteOn"  },
      { "deltaTime": 239, "channel": 0, "type": "channel", "subtype": "noteOff", "noteNumber": 40, "velocity": 0  },
      { "deltaTime": 1, "channel": 0, "type": "channel", "noteNumber": 40, "velocity": 64, "subtype": "noteOn"  },
      { "deltaTime": 239, "channel": 0, "type": "channel", "subtype": "noteOff", "noteNumber": 40, "velocity": 0  },
      { "deltaTime": 1, "channel": 0, "type": "channel", "noteNumber": 52, "velocity": 64, "subtype": "noteOn"  },
      { "deltaTime": 239, "channel": 0, "type": "channel", "subtype": "noteOff", "noteNumber": 52, "velocity": 0  },
      { "deltaTime": 1, "channel": 0, "type": "channel", "noteNumber": 40, "velocity": 64, "subtype": "noteOn"  },
      { "deltaTime": 239, "channel": 0, "type": "channel", "subtype": "noteOff", "noteNumber": 40, "velocity": 0  },
      { "deltaTime": 1, "channel": 0, "type": "channel", "noteNumber": 40, "velocity": 64, "subtype": "noteOn"  },
      { "deltaTime": 239, "channel": 0, "type": "channel", "subtype": "noteOff", "noteNumber": 40, "velocity": 0  },
      { "deltaTime": 1, "channel": 0, "type": "channel", "noteNumber": 50, "velocity": 64, "subtype": "noteOn"  },
      { "deltaTime": 239, "channel": 0, "type": "channel", "subtype": "noteOff", "noteNumber": 50, "velocity": 0  },
      { "deltaTime": 1, "channel": 0, "type": "channel", "noteNumber": 40, "velocity": 64, "subtype": "noteOn"  },
      { "deltaTime": 239, "channel": 0, "type": "channel", "subtype": "noteOff", "noteNumber": 40, "velocity": 0  },
      { "deltaTime": 1, "channel": 0, "type": "channel", "noteNumber": 40, "velocity": 64, "subtype": "noteOn"  },
      { "deltaTime": 239, "channel": 0, "type": "channel", "subtype": "noteOff", "noteNumber": 40, "velocity": 0  },
      { "deltaTime": 1, "channel": 0, "type": "channel", "noteNumber": 52, "velocity": 64, "subtype": "noteOn"  },
      { "deltaTime": 239, "channel": 0, "type": "channel", "subtype": "noteOff", "noteNumber": 52, "velocity": 0  },
      { "deltaTime": 1, "channel": 0, "type": "channel", "noteNumber": 40, "velocity": 64, "subtype": "noteOn"  },
      { "deltaTime": 239, "channel": 0, "type": "channel", "subtype": "noteOff", "noteNumber": 40, "velocity": 0  },
      { "deltaTime": 1, "channel": 0, "type": "channel", "noteNumber": 40, "velocity": 64, "subtype": "noteOn"  },
      { "deltaTime": 239, "channel": 0, "type": "channel", "subtype": "noteOff", "noteNumber": 40, "velocity": 0  },
      { "deltaTime": 1, "channel": 0, "type": "channel", "noteNumber": 47, "velocity": 64, "subtype": "noteOn"  },
      { "deltaTime": 239, "channel": 0, "type": "channel", "subtype": "noteOff", "noteNumber": 47, "velocity": 0  },
      { "deltaTime": 1, "channel": 0, "type": "channel", "noteNumber": 40, "velocity": 64, "subtype": "noteOn"  },
      { "deltaTime": 239, "channel": 0, "type": "channel", "subtype": "noteOff", "noteNumber": 40, "velocity": 0  },
      { "deltaTime": 1, "channel": 0, "type": "channel", "noteNumber": 50, "velocity": 64, "subtype": "noteOn"  },
      { "deltaTime": 239, "channel": 0, "type": "channel", "subtype": "noteOff", "noteNumber": 50, "velocity": 0  },
      { "deltaTime": 1, "channel": 0, "type": "channel", "noteNumber": 40, "velocity": 64, "subtype": "noteOn"  },
      { "deltaTime": 239, "channel": 0, "type": "channel", "subtype": "noteOff", "noteNumber": 40, "velocity": 0  },
      { "deltaTime": 1, "channel": 0, "type": "channel", "noteNumber": 49, "velocity": 64, "subtype": "noteOn"  },
      { "deltaTime": 239, "channel": 0, "type": "channel", "subtype": "noteOff", "noteNumber": 49, "velocity": 0  },
      { "deltaTime": 1, "channel": 0, "type": "channel", "noteNumber": 50, "velocity": 64, "subtype": "noteOn"  },
      { "deltaTime": 239, "channel": 0, "type": "channel", "subtype": "noteOff", "noteNumber": 50, "velocity": 0  },
      { "deltaTime": 1, "channel": 0, "type": "channel", "noteNumber": 40, "velocity": 64, "subtype": "noteOn"  },
      { "deltaTime": 239, "channel": 0, "type": "channel", "subtype": "noteOff", "noteNumber": 40, "velocity": 0  },
      { "deltaTime": 1, "channel": 0, "type": "channel", "noteNumber": 52, "velocity": 64, "subtype": "noteOn"  },
      { "deltaTime": 239, "channel": 0, "type": "channel", "subtype": "noteOff", "noteNumber": 52, "velocity": 0  },
      { "deltaTime": 1, "channel": 0, "type": "channel", "noteNumber": 40, "velocity": 64, "subtype": "noteOn"  },
      { "deltaTime": 239, "channel": 0, "type": "channel", "subtype": "noteOff", "noteNumber": 40, "velocity": 0  },
      { "deltaTime": 1, "channel": 0, "type": "channel", "noteNumber": 40, "velocity": 64, "subtype": "noteOn"  },
      { "deltaTime": 239, "channel": 0, "type": "channel", "subtype": "noteOff", "noteNumber": 40, "velocity": 0  },
      { "deltaTime": 1, "channel": 0, "type": "channel", "noteNumber": 50, "velocity": 64, "subtype": "noteOn"  },
      { "deltaTime": 239, "channel": 0, "type": "channel", "subtype": "noteOff", "noteNumber": 50, "velocity": 0  },
      { "deltaTime": 1, "channel": 0, "type": "channel", "noteNumber": 40, "velocity": 64, "subtype": "noteOn"  },
      { "deltaTime": 239, "channel": 0, "type": "channel", "subtype": "noteOff", "noteNumber": 40, "velocity": 0  },
      { "deltaTime": 1, "channel": 0, "type": "channel", "noteNumber": 40, "velocity": 64, "subtype": "noteOn"  },
      { "deltaTime": 239, "channel": 0, "type": "channel", "subtype": "noteOff", "noteNumber": 40, "velocity": 0  },
      { "deltaTime": 1, "channel": 0, "type": "channel", "noteNumber": 52, "velocity": 64, "subtype": "noteOn"  },
      { "deltaTime": 239, "channel": 0, "type": "channel", "subtype": "noteOff", "noteNumber": 52, "velocity": 0  },
      { "deltaTime": 1, "channel": 0, "type": "channel", "noteNumber": 40, "velocity": 64, "subtype": "noteOn"  },
      { "deltaTime": 239, "channel": 0, "type": "channel", "subtype": "noteOff", "noteNumber": 40, "velocity": 0  },
      { "deltaTime": 1, "channel": 0, "type": "channel", "noteNumber": 40, "velocity": 64, "subtype": "noteOn"  },
      { "deltaTime": 239, "channel": 0, "type": "channel", "subtype": "noteOff", "noteNumber": 40, "velocity": 0  },
      { "deltaTime": 1, "channel": 0, "type": "channel", "noteNumber": 56, "velocity": 64, "subtype": "noteOn"  },
      { "deltaTime": 239, "channel": 0, "type": "channel", "subtype": "noteOff", "noteNumber": 56, "velocity": 0  },
      { "deltaTime": 1, "channel": 0, "type": "channel", "noteNumber": 40, "velocity": 64, "subtype": "noteOn"  },
      { "deltaTime": 239, "channel": 0, "type": "channel", "subtype": "noteOff", "noteNumber": 40, "velocity": 0  },
      { "deltaTime": 1, "channel": 0, "type": "channel", "noteNumber": 40, "velocity": 64, "subtype": "noteOn"  },
      { "deltaTime": 239, "channel": 0, "type": "channel", "subtype": "noteOff", "noteNumber": 40, "velocity": 0  },
      { "deltaTime": 1, "channel": 0, "type": "channel", "noteNumber": 52, "velocity": 64, "subtype": "noteOn"  },
      { "deltaTime": 239, "channel": 0, "type": "channel", "subtype": "noteOff", "noteNumber": 52, "velocity": 0  },
      { "deltaTime": 1, "channel": 0, "type": "channel", "noteNumber": 40, "velocity": 64, "subtype": "noteOn"  },
      { "deltaTime": 239, "channel": 0, "type": "channel", "subtype": "noteOff", "noteNumber": 40, "velocity": 0  },
      { "deltaTime": 1, "channel": 0, "type": "channel", "noteNumber": 40, "velocity": 64, "subtype": "noteOn"  },
      { "deltaTime": 239, "channel": 0, "type": "channel", "subtype": "noteOff", "noteNumber": 40, "velocity": 0  },
      { "deltaTime": 1, "channel": 0, "type": "channel", "noteNumber": 50, "velocity": 64, "subtype": "noteOn"  },
      { "deltaTime": 239, "channel": 0, "type": "channel", "subtype": "noteOff", "noteNumber": 50, "velocity": 0  },
      { "deltaTime": 241, "channel": 0, "type": "channel", "noteNumber": 40, "velocity": 64, "subtype": "noteOn"  },
      { "deltaTime": 239, "channel": 0, "type": "channel", "subtype": "noteOff", "noteNumber": 40, "velocity": 0  },
      { "deltaTime": 1, "channel": 0, "type": "channel", "noteNumber": 49, "velocity": 64, "subtype": "noteOn"  },
      { "deltaTime": 239, "channel": 0, "type": "channel", "subtype": "noteOff", "noteNumber": 49, "velocity": 0  },
      { "deltaTime": 1, "channel": 0, "type": "channel", "noteNumber": 40, "velocity": 64, "subtype": "noteOn"  },
      { "deltaTime": 239, "channel": 0, "type": "channel", "subtype": "noteOff", "noteNumber": 40, "velocity": 0  },
      { "deltaTime": 1, "channel": 0, "type": "channel", "noteNumber": 40, "velocity": 64, "subtype": "noteOn"  },
      { "deltaTime": 239, "channel": 0, "type": "channel", "subtype": "noteOff", "noteNumber": 40, "velocity": 0  },
      { "deltaTime": 1, "channel": 0, "type": "channel", "noteNumber": 47, "velocity": 64, "subtype": "noteOn"  },
      { "deltaTime": 239, "channel": 0, "type": "channel", "subtype": "noteOff", "noteNumber": 47, "velocity": 0  },
      { "deltaTime": 241, "channel": 0, "type": "channel", "noteNumber": 40, "velocity": 64, "subtype": "noteOn"  },
      { "deltaTime": 239, "channel": 0, "type": "channel", "subtype": "noteOff", "noteNumber": 40, "velocity": 0  },
      { "deltaTime": 1, "channel": 0, "type": "channel", "noteNumber": 45, "velocity": 64, "subtype": "noteOn"  },
      { "deltaTime": 239, "channel": 0, "type": "channel", "subtype": "noteOff", "noteNumber": 45, "velocity": 0  },
      { "deltaTime": 1, "channel": 0, "type": "channel", "noteNumber": 47, "velocity": 64, "subtype": "noteOn"  },
      { "deltaTime": 239, "channel": 0, "type": "channel", "subtype": "noteOff", "noteNumber": 47, "velocity": 0  },
      { "deltaTime": 1, "channel": 0, "type": "channel", "noteNumber": 52, "velocity": 64, "subtype": "noteOn"  },
      { "deltaTime": 239, "channel": 0, "type": "channel", "subtype": "noteOff", "noteNumber": 52, "velocity": 0  },
      { "deltaTime": 1, "channel": 0, "type": "channel", "noteNumber": 40, "velocity": 64, "subtype": "noteOn"  },
      { "deltaTime": 239, "channel": 0, "type": "channel", "subtype": "noteOff", "noteNumber": 40, "velocity": 0  },
      { "deltaTime": 1, "channel": 0, "type": "channel", "noteNumber": 52, "velocity": 64, "subtype": "noteOn"  },
      { "deltaTime": 239, "channel": 0, "type": "channel", "subtype": "noteOff", "noteNumber": 52, "velocity": 0  },
      { "deltaTime": 1, "channel": 0, "type": "channel", "noteNumber": 40, "velocity": 64, "subtype": "noteOn"  },
      { "deltaTime": 239, "channel": 0, "type": "channel", "subtype": "noteOff", "noteNumber": 40, "velocity": 0  },
      { "deltaTime": 1, "channel": 0, "type": "channel", "noteNumber": 40, "velocity": 64, "subtype": "noteOn"  },
      { "deltaTime": 239, "channel": 0, "type": "channel", "subtype": "noteOff", "noteNumber": 40, "velocity": 0  },
      { "deltaTime": 1, "channel": 0, "type": "channel", "noteNumber": 50, "velocity": 64, "subtype": "noteOn"  },
      { "deltaTime": 239, "channel": 0, "type": "channel", "subtype": "noteOff", "noteNumber": 50, "velocity": 0  },
      { "deltaTime": 241, "channel": 0, "type": "channel", "noteNumber": 40, "velocity": 64, "subtype": "noteOn"  },
      { "deltaTime": 239, "channel": 0, "type": "channel", "subtype": "noteOff", "noteNumber": 40, "velocity": 0  },
      { "deltaTime": 1, "channel": 0, "type": "channel", "noteNumber": 49, "velocity": 64, "subtype": "noteOn"  },
      { "deltaTime": 239, "channel": 0, "type": "channel", "subtype": "noteOff", "noteNumber": 49, "velocity": 0  },
      { "deltaTime": 1, "channel": 0, "type": "channel", "noteNumber": 40, "velocity": 64, "subtype": "noteOn"  },
      { "deltaTime": 239, "channel": 0, "type": "channel", "subtype": "noteOff", "noteNumber": 40, "velocity": 0  },
      { "deltaTime": 1, "channel": 0, "type": "channel", "noteNumber": 40, "velocity": 64, "subtype": "noteOn"  },
      { "deltaTime": 239, "channel": 0, "type": "channel", "subtype": "noteOff", "noteNumber": 40, "velocity": 0  },
      { "deltaTime": 1, "channel": 0, "type": "channel", "noteNumber": 47, "velocity": 64, "subtype": "noteOn"  },
      { "deltaTime": 239, "channel": 0, "type": "channel", "subtype": "noteOff", "noteNumber": 47, "velocity": 0  },
      { "deltaTime": 241, "channel": 0, "type": "channel", "noteNumber": 40, "velocity": 64, "subtype": "noteOn"  },
      { "deltaTime": 239, "channel": 0, "type": "channel", "subtype": "noteOff", "noteNumber": 40, "velocity": 0  },
      { "deltaTime": 1, "channel": 0, "type": "channel", "noteNumber": 52, "velocity": 64, "subtype": "noteOn"  },
      { "deltaTime": 239, "channel": 0, "type": "channel", "subtype": "noteOff", "noteNumber": 52, "velocity": 0  },
      { "deltaTime": 1, "channel": 0, "type": "channel", "noteNumber": 40, "velocity": 64, "subtype": "noteOn"  },
      { "deltaTime": 239, "channel": 0, "type": "channel", "subtype": "noteOff", "noteNumber": 40, "velocity": 0  },
      { "deltaTime": 1, "channel": 0, "type": "channel", "noteNumber": 40, "velocity": 64, "subtype": "noteOn"  },
      { "deltaTime": 239, "channel": 0, "type": "channel", "subtype": "noteOff", "noteNumber": 40, "velocity": 0  },
      { "deltaTime": 1, "channel": 0, "type": "channel", "noteNumber": 50, "velocity": 64, "subtype": "noteOn"  },
      { "deltaTime": 239, "channel": 0, "type": "channel", "subtype": "noteOff", "noteNumber": 50, "velocity": 0  },
      { "deltaTime": 241, "channel": 0, "type": "channel", "noteNumber": 40, "velocity": 64, "subtype": "noteOn"  },
      { "deltaTime": 239, "channel": 0, "type": "channel", "subtype": "noteOff", "noteNumber": 40, "velocity": 0  },
      { "deltaTime": 1, "channel": 0, "type": "channel", "noteNumber": 49, "velocity": 64, "subtype": "noteOn"  },
      { "deltaTime": 239, "channel": 0, "type": "channel", "subtype": "noteOff", "noteNumber": 49, "velocity": 0  },
      { "deltaTime": 1, "channel": 0, "type": "channel", "noteNumber": 40, "velocity": 64, "subtype": "noteOn"  },
      { "deltaTime": 239, "channel": 0, "type": "channel", "subtype": "noteOff", "noteNumber": 40, "velocity": 0  },
      { "deltaTime": 1, "channel": 0, "type": "channel", "noteNumber": 40, "velocity": 64, "subtype": "noteOn"  },
      { "deltaTime": 239, "channel": 0, "type": "channel", "subtype": "noteOff", "noteNumber": 40, "velocity": 0  },
      { "deltaTime": 1, "channel": 0, "type": "channel", "noteNumber": 47, "velocity": 64, "subtype": "noteOn"  },
      { "deltaTime": 239, "channel": 0, "type": "channel", "subtype": "noteOff", "noteNumber": 47, "velocity": 0  },
      { "deltaTime": 241, "channel": 0, "type": "channel", "noteNumber": 40, "velocity": 64, "subtype": "noteOn"  },
      { "deltaTime": 239, "channel": 0, "type": "channel", "subtype": "noteOff", "noteNumber": 40, "velocity": 0  },
      { "deltaTime": 1, "channel": 0, "type": "channel", "noteNumber": 45, "velocity": 64, "subtype": "noteOn"  },
      { "deltaTime": 239, "channel": 0, "type": "channel", "subtype": "noteOff", "noteNumber": 45, "velocity": 0  },
      { "deltaTime": 1, "channel": 0, "type": "channel", "noteNumber": 47, "velocity": 64, "subtype": "noteOn"  },
      { "deltaTime": 239, "channel": 0, "type": "channel", "subtype": "noteOff", "noteNumber": 47, "velocity": 0  },
      { "deltaTime": 1, "channel": 0, "type": "channel", "noteNumber": 52, "velocity": 64, "subtype": "noteOn"  },
      { "deltaTime": 239, "channel": 0, "type": "channel", "subtype": "noteOff", "noteNumber": 52, "velocity": 0  },
      { "deltaTime": 1, "channel": 0, "type": "channel", "noteNumber": 40, "velocity": 64, "subtype": "noteOn"  },
      { "deltaTime": 239, "channel": 0, "type": "channel", "subtype": "noteOff", "noteNumber": 40, "velocity": 0  },
      { "deltaTime": 1, "channel": 0, "type": "channel", "noteNumber": 52, "velocity": 64, "subtype": "noteOn"  },
      { "deltaTime": 239, "channel": 0, "type": "channel", "subtype": "noteOff", "noteNumber": 52, "velocity": 0  },
      { "deltaTime": 1, "channel": 0, "type": "channel", "noteNumber": 40, "velocity": 64, "subtype": "noteOn"  },
      { "deltaTime": 239, "channel": 0, "type": "channel", "subtype": "noteOff", "noteNumber": 40, "velocity": 0  },
      { "deltaTime": 1, "channel": 0, "type": "channel", "noteNumber": 40, "velocity": 64, "subtype": "noteOn"  },
      { "deltaTime": 239, "channel": 0, "type": "channel", "subtype": "noteOff", "noteNumber": 40, "velocity": 0  },
      { "deltaTime": 1, "channel": 0, "type": "channel", "noteNumber": 50, "velocity": 64, "subtype": "noteOn"  },
      { "deltaTime": 239, "channel": 0, "type": "channel", "subtype": "noteOff", "noteNumber": 50, "velocity": 0  },
      { "deltaTime": 241, "channel": 0, "type": "channel", "noteNumber": 40, "velocity": 64, "subtype": "noteOn"  },
      { "deltaTime": 239, "channel": 0, "type": "channel", "subtype": "noteOff", "noteNumber": 40, "velocity": 0  },
      { "deltaTime": 1, "channel": 0, "type": "channel", "noteNumber": 49, "velocity": 64, "subtype": "noteOn"  },
      { "deltaTime": 239, "channel": 0, "type": "channel", "subtype": "noteOff", "noteNumber": 49, "velocity": 0  },
      { "deltaTime": 1, "channel": 0, "type": "channel", "noteNumber": 40, "velocity": 64, "subtype": "noteOn"  },
      { "deltaTime": 239, "channel": 0, "type": "channel", "subtype": "noteOff", "noteNumber": 40, "velocity": 0  },
      { "deltaTime": 1, "channel": 0, "type": "channel", "noteNumber": 40, "velocity": 64, "subtype": "noteOn"  },
      { "deltaTime": 239, "channel": 0, "type": "channel", "subtype": "noteOff", "noteNumber": 40, "velocity": 0  },
      { "deltaTime": 1, "channel": 0, "type": "channel", "noteNumber": 47, "velocity": 64, "subtype": "noteOn"  },
      { "deltaTime": 239, "channel": 0, "type": "channel", "subtype": "noteOff", "noteNumber": 47, "velocity": 0  },
      { "deltaTime": 241, "channel": 0, "type": "channel", "noteNumber": 40, "velocity": 64, "subtype": "noteOn"  },
      { "deltaTime": 239, "channel": 0, "type": "channel", "subtype": "noteOff", "noteNumber": 40, "velocity": 0  },
      { "deltaTime": 1, "channel": 0, "type": "channel", "noteNumber": 47, "velocity": 64, "subtype": "noteOn"  },
      { "deltaTime": 239, "channel": 0, "type": "channel", "subtype": "noteOff", "noteNumber": 47, "velocity": 0  },
      { "deltaTime": 1, "channel": 0, "type": "channel", "noteNumber": 47, "velocity": 64, "subtype": "noteOn"  },
      { "deltaTime": 239, "channel": 0, "type": "channel", "subtype": "noteOff", "noteNumber": 47, "velocity": 0  },
      { "deltaTime": 1, "channel": 0, "type": "channel", "noteNumber": 40, "velocity": 64, "subtype": "noteOn"  },
      { "deltaTime": 239, "channel": 0, "type": "channel", "subtype": "noteOff", "noteNumber": 40, "velocity": 0  },
      { "deltaTime": 1, "channel": 0, "type": "channel", "noteNumber": 46, "velocity": 64, "subtype": "noteOn"  },
      { "deltaTime": 239, "channel": 0, "type": "channel", "subtype": "noteOff", "noteNumber": 46, "velocity": 0  },
      { "deltaTime": 1, "channel": 0, "type": "channel", "noteNumber": 46, "velocity": 64, "subtype": "noteOn"  },
      { "deltaTime": 239, "channel": 0, "type": "channel", "subtype": "noteOff", "noteNumber": 46, "velocity": 0  },
      { "deltaTime": 1, "channel": 0, "type": "channel", "noteNumber": 40, "velocity": 64, "subtype": "noteOn"  },
      { "deltaTime": 239, "channel": 0, "type": "channel", "subtype": "noteOff", "noteNumber": 40, "velocity": 0  },
      { "deltaTime": 1, "channel": 0, "type": "channel", "noteNumber": 47, "velocity": 64, "subtype": "noteOn"  },
      { "deltaTime": 239, "channel": 0, "type": "channel", "subtype": "noteOff", "noteNumber": 47, "velocity": 0  },
      { "deltaTime": 1, "channel": 0, "type": "channel", "noteNumber": 47, "velocity": 64, "subtype": "noteOn"  },
      { "deltaTime": 239, "channel": 0, "type": "channel", "subtype": "noteOff", "noteNumber": 47, "velocity": 0  },
      { "deltaTime": 1, "channel": 0, "type": "channel", "noteNumber": 40, "velocity": 64, "subtype": "noteOn"  },
      { "deltaTime": 239, "channel": 0, "type": "channel", "subtype": "noteOff", "noteNumber": 40, "velocity": 0  },
      { "deltaTime": 1, "channel": 0, "type": "channel", "noteNumber": 52, "velocity": 64, "subtype": "noteOn"  },
      { "deltaTime": 239, "channel": 0, "type": "channel", "subtype": "noteOff", "noteNumber": 52, "velocity": 0  },
      { "deltaTime": 1, "channel": 0, "type": "channel", "noteNumber": 40, "velocity": 64, "subtype": "noteOn"  },
      { "deltaTime": 239, "channel": 0, "type": "channel", "subtype": "noteOff", "noteNumber": 40, "velocity": 0  },
      { "deltaTime": 1, "channel": 0, "type": "channel", "noteNumber": 50, "velocity": 64, "subtype": "noteOn"  },
      { "deltaTime": 239, "channel": 0, "type": "channel", "subtype": "noteOff", "noteNumber": 50, "velocity": 0  },
      { "deltaTime": 1, "channel": 0, "type": "channel", "noteNumber": 40, "velocity": 64, "subtype": "noteOn"  },
      { "deltaTime": 239, "channel": 0, "type": "channel", "subtype": "noteOff", "noteNumber": 40, "velocity": 0  },
      { "deltaTime": 1, "channel": 0, "type": "channel", "noteNumber": 45, "velocity": 64, "subtype": "noteOn"  },
      { "deltaTime": 239, "channel": 0, "type": "channel", "subtype": "noteOff", "noteNumber": 45, "velocity": 0  },
      { "deltaTime": 1, "channel": 0, "type": "channel", "noteNumber": 44, "velocity": 64, "subtype": "noteOn"  },
      { "deltaTime": 239, "channel": 0, "type": "channel", "subtype": "noteOff", "noteNumber": 44, "velocity": 0  },
      { "deltaTime": 1, "channel": 0, "type": "channel", "noteNumber": 40, "velocity": 64, "subtype": "noteOn"  },
      { "deltaTime": 239, "channel": 0, "type": "channel", "subtype": "noteOff", "noteNumber": 40, "velocity": 0  },
      { "deltaTime": 1, "channel": 0, "type": "channel", "noteNumber": 52, "velocity": 64, "subtype": "noteOn"  },
      { "deltaTime": 239, "channel": 0, "type": "channel", "subtype": "noteOff", "noteNumber": 52, "velocity": 0  },
      { "deltaTime": 1, "channel": 0, "type": "channel", "noteNumber": 52, "velocity": 64, "subtype": "noteOn"  },
      { "deltaTime": 239, "channel": 0, "type": "channel", "subtype": "noteOff", "noteNumber": 52, "velocity": 0  },
      { "deltaTime": 1, "channel": 0, "type": "channel", "noteNumber": 40, "velocity": 64, "subtype": "noteOn"  },
      { "deltaTime": 239, "channel": 0, "type": "channel", "subtype": "noteOff", "noteNumber": 40, "velocity": 0  },
      { "deltaTime": 1, "channel": 0, "type": "channel", "noteNumber": 44, "velocity": 64, "subtype": "noteOn"  },
      { "deltaTime": 239, "channel": 0, "type": "channel", "subtype": "noteOff", "noteNumber": 44, "velocity": 0  },
      { "deltaTime": 1, "channel": 0, "type": "channel", "noteNumber": 45, "velocity": 64, "subtype": "noteOn"  },
      { "deltaTime": 239, "channel": 0, "type": "channel", "subtype": "noteOff", "noteNumber": 45, "velocity": 0  },
      { "deltaTime": 1, "channel": 0, "type": "channel", "noteNumber": 40, "velocity": 64, "subtype": "noteOn"  },
      { "deltaTime": 239, "channel": 0, "type": "channel", "subtype": "noteOff", "noteNumber": 40, "velocity": 0  },
      { "deltaTime": 1, "channel": 0, "type": "channel", "noteNumber": 46, "velocity": 64, "subtype": "noteOn"  },
      { "deltaTime": 239, "channel": 0, "type": "channel", "subtype": "noteOff", "noteNumber": 46, "velocity": 0  },
      { "deltaTime": 1, "channel": 0, "type": "channel", "noteNumber": 40, "velocity": 64, "subtype": "noteOn"  },
      { "deltaTime": 239, "channel": 0, "type": "channel", "subtype": "noteOff", "noteNumber": 40, "velocity": 0  },
      { "deltaTime": 1, "channel": 0, "type": "channel", "noteNumber": 47, "velocity": 64, "subtype": "noteOn"  },
      { "deltaTime": 239, "channel": 0, "type": "channel", "subtype": "noteOff", "noteNumber": 47, "velocity": 0  },
      { "deltaTime": 1, "channel": 0, "type": "channel", "noteNumber": 50, "velocity": 64, "subtype": "noteOn"  },
      { "deltaTime": 239, "channel": 0, "type": "channel", "subtype": "noteOff", "noteNumber": 50, "velocity": 0  },
      { "deltaTime": 1, "channel": 0, "type": "channel", "noteNumber": 47, "velocity": 64, "subtype": "noteOn"  },
      { "deltaTime": 239, "channel": 0, "type": "channel", "subtype": "noteOff", "noteNumber": 47, "velocity": 0  },
      { "deltaTime": 1, "channel": 0, "type": "channel", "noteNumber": 40, "velocity": 64, "subtype": "noteOn"  },
      { "deltaTime": 239, "channel": 0, "type": "channel", "subtype": "noteOff", "noteNumber": 40, "velocity": 0  },
      { "deltaTime": 1, "channel": 0, "type": "channel", "noteNumber": 47, "velocity": 64, "subtype": "noteOn"  },
      { "deltaTime": 239, "channel": 0, "type": "channel", "subtype": "noteOff", "noteNumber": 47, "velocity": 0  },
      { "deltaTime": 1, "channel": 0, "type": "channel", "noteNumber": 47, "velocity": 64, "subtype": "noteOn"  },
      { "deltaTime": 239, "channel": 0, "type": "channel", "subtype": "noteOff", "noteNumber": 47, "velocity": 0  },
      { "deltaTime": 1, "channel": 0, "type": "channel", "noteNumber": 40, "velocity": 64, "subtype": "noteOn"  },
      { "deltaTime": 239, "channel": 0, "type": "channel", "subtype": "noteOff", "noteNumber": 40, "velocity": 0  },
      { "deltaTime": 1, "channel": 0, "type": "channel", "noteNumber": 46, "velocity": 64, "subtype": "noteOn"  },
      { "deltaTime": 239, "channel": 0, "type": "channel", "subtype": "noteOff", "noteNumber": 46, "velocity": 0  },
      { "deltaTime": 1, "channel": 0, "type": "channel", "noteNumber": 46, "velocity": 64, "subtype": "noteOn"  },
      { "deltaTime": 239, "channel": 0, "type": "channel", "subtype": "noteOff", "noteNumber": 46, "velocity": 0  },
      { "deltaTime": 1, "channel": 0, "type": "channel", "noteNumber": 40, "velocity": 64, "subtype": "noteOn"  },
      { "deltaTime": 239, "channel": 0, "type": "channel", "subtype": "noteOff", "noteNumber": 40, "velocity": 0  },
      { "deltaTime": 1, "channel": 0, "type": "channel", "noteNumber": 47, "velocity": 64, "subtype": "noteOn"  },
      { "deltaTime": 239, "channel": 0, "type": "channel", "subtype": "noteOff", "noteNumber": 47, "velocity": 0  },
      { "deltaTime": 1, "channel": 0, "type": "channel", "noteNumber": 47, "velocity": 64, "subtype": "noteOn"  },
      { "deltaTime": 239, "channel": 0, "type": "channel", "subtype": "noteOff", "noteNumber": 47, "velocity": 0  },
      { "deltaTime": 1, "channel": 0, "type": "channel", "noteNumber": 40, "velocity": 64, "subtype": "noteOn"  },
      { "deltaTime": 239, "channel": 0, "type": "channel", "subtype": "noteOff", "noteNumber": 40, "velocity": 0  },
      { "deltaTime": 1, "channel": 0, "type": "channel", "noteNumber": 52, "velocity": 64, "subtype": "noteOn"  },
      { "deltaTime": 239, "channel": 0, "type": "channel", "subtype": "noteOff", "noteNumber": 52, "velocity": 0  },
      { "deltaTime": 1, "channel": 0, "type": "channel", "noteNumber": 40, "velocity": 64, "subtype": "noteOn"  },
      { "deltaTime": 239, "channel": 0, "type": "channel", "subtype": "noteOff", "noteNumber": 40, "velocity": 0  },
      { "deltaTime": 1, "channel": 0, "type": "channel", "noteNumber": 50, "velocity": 64, "subtype": "noteOn"  },
      { "deltaTime": 239, "channel": 0, "type": "channel", "subtype": "noteOff", "noteNumber": 50, "velocity": 0  },
      { "deltaTime": 1, "channel": 0, "type": "channel", "noteNumber": 40, "velocity": 64, "subtype": "noteOn"  },
      { "deltaTime": 239, "channel": 0, "type": "channel", "subtype": "noteOff", "noteNumber": 40, "velocity": 0  },
      { "deltaTime": 1, "channel": 0, "type": "channel", "noteNumber": 45, "velocity": 64, "subtype": "noteOn"  },
      { "deltaTime": 239, "channel": 0, "type": "channel", "subtype": "noteOff", "noteNumber": 45, "velocity": 0  },
      { "deltaTime": 1, "channel": 0, "type": "channel", "noteNumber": 44, "velocity": 64, "subtype": "noteOn"  },
      { "deltaTime": 239, "channel": 0, "type": "channel", "subtype": "noteOff", "noteNumber": 44, "velocity": 0  },
      { "deltaTime": 1, "channel": 0, "type": "channel", "noteNumber": 40, "velocity": 64, "subtype": "noteOn"  },
      { "deltaTime": 239, "channel": 0, "type": "channel", "subtype": "noteOff", "noteNumber": 40, "velocity": 0  },
      { "deltaTime": 1, "channel": 0, "type": "channel", "noteNumber": 52, "velocity": 64, "subtype": "noteOn"  },
      { "deltaTime": 239, "channel": 0, "type": "channel", "subtype": "noteOff", "noteNumber": 52, "velocity": 0  },
      { "deltaTime": 1, "channel": 0, "type": "channel", "noteNumber": 52, "velocity": 64, "subtype": "noteOn"  },
      { "deltaTime": 239, "channel": 0, "type": "channel", "subtype": "noteOff", "noteNumber": 52, "velocity": 0  },
      { "deltaTime": 1, "channel": 0, "type": "channel", "noteNumber": 40, "velocity": 64, "subtype": "noteOn"  },
      { "deltaTime": 239, "channel": 0, "type": "channel", "subtype": "noteOff", "noteNumber": 40, "velocity": 0  },
      { "deltaTime": 1, "channel": 0, "type": "channel", "noteNumber": 44, "velocity": 64, "subtype": "noteOn"  },
      { "deltaTime": 239, "channel": 0, "type": "channel", "subtype": "noteOff", "noteNumber": 44, "velocity": 0  },
      { "deltaTime": 1, "channel": 0, "type": "channel", "noteNumber": 45, "velocity": 64, "subtype": "noteOn"  },
      { "deltaTime": 239, "channel": 0, "type": "channel", "subtype": "noteOff", "noteNumber": 45, "velocity": 0  },
      { "deltaTime": 1, "channel": 0, "type": "channel", "noteNumber": 40, "velocity": 64, "subtype": "noteOn"  },
      { "deltaTime": 239, "channel": 0, "type": "channel", "subtype": "noteOff", "noteNumber": 40, "velocity": 0  },
      { "deltaTime": 1, "channel": 0, "type": "channel", "noteNumber": 46, "velocity": 64, "subtype": "noteOn"  },
      { "deltaTime": 239, "channel": 0, "type": "channel", "subtype": "noteOff", "noteNumber": 46, "velocity": 0  },
      { "deltaTime": 1, "channel": 0, "type": "channel", "noteNumber": 40, "velocity": 64, "subtype": "noteOn"  },
      { "deltaTime": 239, "channel": 0, "type": "channel", "subtype": "noteOff", "noteNumber": 40, "velocity": 0  },
      { "deltaTime": 1, "channel": 0, "type": "channel", "noteNumber": 47, "velocity": 64, "subtype": "noteOn"  },
      { "deltaTime": 239, "channel": 0, "type": "channel", "subtype": "noteOff", "noteNumber": 47, "velocity": 0  },
      { "deltaTime": 1, "channel": 0, "type": "channel", "noteNumber": 50, "velocity": 64, "subtype": "noteOn"  },
      { "deltaTime": 239, "channel": 0, "type": "channel", "subtype": "noteOff", "noteNumber": 50, "velocity": 0  },
      { "deltaTime": 1, "channel": 0, "type": "channel", "noteNumber": 47, "velocity": 64, "subtype": "noteOn"  },
      { "deltaTime": 239, "channel": 0, "type": "channel", "subtype": "noteOff", "noteNumber": 47, "velocity": 0  },
      { "deltaTime": 1, "channel": 0, "type": "channel", "noteNumber": 40, "velocity": 64, "subtype": "noteOn"  },
      { "deltaTime": 239, "channel": 0, "type": "channel", "subtype": "noteOff", "noteNumber": 40, "velocity": 0  },
      { "deltaTime": 1, "channel": 0, "type": "channel", "noteNumber": 47, "velocity": 64, "subtype": "noteOn"  },
      { "deltaTime": 239, "channel": 0, "type": "channel", "subtype": "noteOff", "noteNumber": 47, "velocity": 0  },
      { "deltaTime": 1, "channel": 0, "type": "channel", "noteNumber": 47, "velocity": 64, "subtype": "noteOn"  },
      { "deltaTime": 239, "channel": 0, "type": "channel", "subtype": "noteOff", "noteNumber": 47, "velocity": 0  },
      { "deltaTime": 1, "channel": 0, "type": "channel", "noteNumber": 40, "velocity": 64, "subtype": "noteOn"  },
      { "deltaTime": 239, "channel": 0, "type": "channel", "subtype": "noteOff", "noteNumber": 40, "velocity": 0  },
      { "deltaTime": 1, "channel": 0, "type": "channel", "noteNumber": 46, "velocity": 64, "subtype": "noteOn"  },
      { "deltaTime": 239, "channel": 0, "type": "channel", "subtype": "noteOff", "noteNumber": 46, "velocity": 0  },
      { "deltaTime": 1, "channel": 0, "type": "channel", "noteNumber": 46, "velocity": 64, "subtype": "noteOn"  },
      { "deltaTime": 239, "channel": 0, "type": "channel", "subtype": "noteOff", "noteNumber": 46, "velocity": 0  },
      { "deltaTime": 1, "channel": 0, "type": "channel", "noteNumber": 40, "velocity": 64, "subtype": "noteOn"  },
      { "deltaTime": 239, "channel": 0, "type": "channel", "subtype": "noteOff", "noteNumber": 40, "velocity": 0  },
      { "deltaTime": 1, "channel": 0, "type": "channel", "noteNumber": 47, "velocity": 64, "subtype": "noteOn"  },
      { "deltaTime": 239, "channel": 0, "type": "channel", "subtype": "noteOff", "noteNumber": 47, "velocity": 0  },
      { "deltaTime": 1, "channel": 0, "type": "channel", "noteNumber": 47, "velocity": 64, "subtype": "noteOn"  },
      { "deltaTime": 239, "channel": 0, "type": "channel", "subtype": "noteOff", "noteNumber": 47, "velocity": 0  },
      { "deltaTime": 1, "channel": 0, "type": "channel", "noteNumber": 40, "velocity": 64, "subtype": "noteOn"  },
      { "deltaTime": 239, "channel": 0, "type": "channel", "subtype": "noteOff", "noteNumber": 40, "velocity": 0  },
      { "deltaTime": 1, "channel": 0, "type": "channel", "noteNumber": 52, "velocity": 64, "subtype": "noteOn"  },
      { "deltaTime": 239, "channel": 0, "type": "channel", "subtype": "noteOff", "noteNumber": 52, "velocity": 0  },
      { "deltaTime": 1, "channel": 0, "type": "channel", "noteNumber": 40, "velocity": 64, "subtype": "noteOn"  },
      { "deltaTime": 239, "channel": 0, "type": "channel", "subtype": "noteOff", "noteNumber": 40, "velocity": 0  },
      { "deltaTime": 1, "channel": 0, "type": "channel", "noteNumber": 50, "velocity": 64, "subtype": "noteOn"  },
      { "deltaTime": 239, "channel": 0, "type": "channel", "subtype": "noteOff", "noteNumber": 50, "velocity": 0  },
      { "deltaTime": 1, "channel": 0, "type": "channel", "noteNumber": 40, "velocity": 64, "subtype": "noteOn"  },
      { "deltaTime": 239, "channel": 0, "type": "channel", "subtype": "noteOff", "noteNumber": 40, "velocity": 0  },
      { "deltaTime": 1, "channel": 0, "type": "channel", "noteNumber": 45, "velocity": 64, "subtype": "noteOn"  },
      { "deltaTime": 239, "channel": 0, "type": "channel", "subtype": "noteOff", "noteNumber": 45, "velocity": 0  },
      { "deltaTime": 1, "channel": 0, "type": "channel", "noteNumber": 44, "velocity": 64, "subtype": "noteOn"  },
      { "deltaTime": 239, "channel": 0, "type": "channel", "subtype": "noteOff", "noteNumber": 44, "velocity": 0  },
      { "deltaTime": 1, "channel": 0, "type": "channel", "noteNumber": 40, "velocity": 64, "subtype": "noteOn"  },
      { "deltaTime": 239, "channel": 0, "type": "channel", "subtype": "noteOff", "noteNumber": 40, "velocity": 0  },
      { "deltaTime": 1, "channel": 0, "type": "channel", "noteNumber": 52, "velocity": 64, "subtype": "noteOn"  },
      { "deltaTime": 239, "channel": 0, "type": "channel", "subtype": "noteOff", "noteNumber": 52, "velocity": 0  },
      { "deltaTime": 1, "channel": 0, "type": "channel", "noteNumber": 52, "velocity": 64, "subtype": "noteOn"  },
      { "deltaTime": 239, "channel": 0, "type": "channel", "subtype": "noteOff", "noteNumber": 52, "velocity": 0  },
      { "deltaTime": 1, "channel": 0, "type": "channel", "noteNumber": 40, "velocity": 64, "subtype": "noteOn"  },
      { "deltaTime": 239, "channel": 0, "type": "channel", "subtype": "noteOff", "noteNumber": 40, "velocity": 0  },
      { "deltaTime": 1, "channel": 0, "type": "channel", "noteNumber": 44, "velocity": 64, "subtype": "noteOn"  },
      { "deltaTime": 239, "channel": 0, "type": "channel", "subtype": "noteOff", "noteNumber": 44, "velocity": 0  },
      { "deltaTime": 1, "channel": 0, "type": "channel", "noteNumber": 45, "velocity": 64, "subtype": "noteOn"  },
      { "deltaTime": 239, "channel": 0, "type": "channel", "subtype": "noteOff", "noteNumber": 45, "velocity": 0  },
      { "deltaTime": 1, "channel": 0, "type": "channel", "noteNumber": 40, "velocity": 64, "subtype": "noteOn"  },
      { "deltaTime": 239, "channel": 0, "type": "channel", "subtype": "noteOff", "noteNumber": 40, "velocity": 0  },
      { "deltaTime": 1, "channel": 0, "type": "channel", "noteNumber": 46, "velocity": 64, "subtype": "noteOn"  },
      { "deltaTime": 239, "channel": 0, "type": "channel", "subtype": "noteOff", "noteNumber": 46, "velocity": 0  },
      { "deltaTime": 1, "channel": 0, "type": "channel", "noteNumber": 40, "velocity": 64, "subtype": "noteOn"  },
      { "deltaTime": 239, "channel": 0, "type": "channel", "subtype": "noteOff", "noteNumber": 40, "velocity": 0  },
      { "deltaTime": 1, "channel": 0, "type": "channel", "noteNumber": 47, "velocity": 64, "subtype": "noteOn"  },
      { "deltaTime": 239, "channel": 0, "type": "channel", "subtype": "noteOff", "noteNumber": 47, "velocity": 0  },
      { "deltaTime": 1, "channel": 0, "type": "channel", "noteNumber": 50, "velocity": 64, "subtype": "noteOn"  },
      { "deltaTime": 239, "channel": 0, "type": "channel", "subtype": "noteOff", "noteNumber": 50, "velocity": 0  },
      { "deltaTime": 1, "channel": 0, "type": "channel", "noteNumber": 47, "velocity": 64, "subtype": "noteOn"  },
      { "deltaTime": 239, "channel": 0, "type": "channel", "subtype": "noteOff", "noteNumber": 47, "velocity": 0  },
      { "deltaTime": 1, "channel": 0, "type": "channel", "noteNumber": 40, "velocity": 64, "subtype": "noteOn"  },
      { "deltaTime": 239, "channel": 0, "type": "channel", "subtype": "noteOff", "noteNumber": 40, "velocity": 0  },
      { "deltaTime": 1, "channel": 0, "type": "channel", "noteNumber": 47, "velocity": 64, "subtype": "noteOn"  },
      { "deltaTime": 239, "channel": 0, "type": "channel", "subtype": "noteOff", "noteNumber": 47, "velocity": 0  },
      { "deltaTime": 1, "channel": 0, "type": "channel", "noteNumber": 47, "velocity": 64, "subtype": "noteOn"  },
      { "deltaTime": 239, "channel": 0, "type": "channel", "subtype": "noteOff", "noteNumber": 47, "velocity": 0  },
      { "deltaTime": 1, "channel": 0, "type": "channel", "noteNumber": 40, "velocity": 64, "subtype": "noteOn"  },
      { "deltaTime": 239, "channel": 0, "type": "channel", "subtype": "noteOff", "noteNumber": 40, "velocity": 0  },
      { "deltaTime": 1, "channel": 0, "type": "channel", "noteNumber": 46, "velocity": 64, "subtype": "noteOn"  },
      { "deltaTime": 239, "channel": 0, "type": "channel", "subtype": "noteOff", "noteNumber": 46, "velocity": 0  },
      { "deltaTime": 1, "channel": 0, "type": "channel", "noteNumber": 46, "velocity": 64, "subtype": "noteOn"  },
      { "deltaTime": 239, "channel": 0, "type": "channel", "subtype": "noteOff", "noteNumber": 46, "velocity": 0  },
      { "deltaTime": 1, "channel": 0, "type": "channel", "noteNumber": 40, "velocity": 64, "subtype": "noteOn"  },
      { "deltaTime": 239, "channel": 0, "type": "channel", "subtype": "noteOff", "noteNumber": 40, "velocity": 0  },
      { "deltaTime": 1, "channel": 0, "type": "channel", "noteNumber": 47, "velocity": 64, "subtype": "noteOn"  },
      { "deltaTime": 239, "channel": 0, "type": "channel", "subtype": "noteOff", "noteNumber": 47, "velocity": 0  },
      { "deltaTime": 1, "channel": 0, "type": "channel", "noteNumber": 47, "velocity": 64, "subtype": "noteOn"  },
      { "deltaTime": 239, "channel": 0, "type": "channel", "subtype": "noteOff", "noteNumber": 47, "velocity": 0  },
      { "deltaTime": 1, "channel": 0, "type": "channel", "noteNumber": 40, "velocity": 64, "subtype": "noteOn"  },
      { "deltaTime": 239, "channel": 0, "type": "channel", "subtype": "noteOff", "noteNumber": 40, "velocity": 0  },
      { "deltaTime": 1, "channel": 0, "type": "channel", "noteNumber": 52, "velocity": 64, "subtype": "noteOn"  },
      { "deltaTime": 239, "channel": 0, "type": "channel", "subtype": "noteOff", "noteNumber": 52, "velocity": 0  },
      { "deltaTime": 1, "channel": 0, "type": "channel", "noteNumber": 40, "velocity": 64, "subtype": "noteOn"  },
      { "deltaTime": 239, "channel": 0, "type": "channel", "subtype": "noteOff", "noteNumber": 40, "velocity": 0  },
      { "deltaTime": 1, "channel": 0, "type": "channel", "noteNumber": 50, "velocity": 64, "subtype": "noteOn"  },
      { "deltaTime": 239, "channel": 0, "type": "channel", "subtype": "noteOff", "noteNumber": 50, "velocity": 0  },
      { "deltaTime": 1, "channel": 0, "type": "channel", "noteNumber": 40, "velocity": 64, "subtype": "noteOn"  },
      { "deltaTime": 239, "channel": 0, "type": "channel", "subtype": "noteOff", "noteNumber": 40, "velocity": 0  },
      { "deltaTime": 1, "channel": 0, "type": "channel", "noteNumber": 45, "velocity": 64, "subtype": "noteOn"  },
      { "deltaTime": 239, "channel": 0, "type": "channel", "subtype": "noteOff", "noteNumber": 45, "velocity": 0  },
      { "deltaTime": 1, "channel": 0, "type": "channel", "noteNumber": 44, "velocity": 64, "subtype": "noteOn"  },
      { "deltaTime": 239, "channel": 0, "type": "channel", "subtype": "noteOff", "noteNumber": 44, "velocity": 0  },
      { "deltaTime": 1, "channel": 0, "type": "channel", "noteNumber": 40, "velocity": 64, "subtype": "noteOn"  },
      { "deltaTime": 239, "channel": 0, "type": "channel", "subtype": "noteOff", "noteNumber": 40, "velocity": 0  },
      { "deltaTime": 1, "channel": 0, "type": "channel", "noteNumber": 52, "velocity": 64, "subtype": "noteOn"  },
      { "deltaTime": 239, "channel": 0, "type": "channel", "subtype": "noteOff", "noteNumber": 52, "velocity": 0  },
      { "deltaTime": 1, "channel": 0, "type": "channel", "noteNumber": 52, "velocity": 64, "subtype": "noteOn"  },
      { "deltaTime": 239, "channel": 0, "type": "channel", "subtype": "noteOff", "noteNumber": 52, "velocity": 0  },
      { "deltaTime": 1, "channel": 0, "type": "channel", "noteNumber": 40, "velocity": 64, "subtype": "noteOn"  },
      { "deltaTime": 239, "channel": 0, "type": "channel", "subtype": "noteOff", "noteNumber": 40, "velocity": 0  },
      { "deltaTime": 1, "channel": 0, "type": "channel", "noteNumber": 44, "velocity": 64, "subtype": "noteOn"  },
      { "deltaTime": 239, "channel": 0, "type": "channel", "subtype": "noteOff", "noteNumber": 44, "velocity": 0  },
      { "deltaTime": 1, "channel": 0, "type": "channel", "noteNumber": 45, "velocity": 64, "subtype": "noteOn"  },
      { "deltaTime": 239, "channel": 0, "type": "channel", "subtype": "noteOff", "noteNumber": 45, "velocity": 0  },
      { "deltaTime": 1, "channel": 0, "type": "channel", "noteNumber": 40, "velocity": 64, "subtype": "noteOn"  },
      { "deltaTime": 239, "channel": 0, "type": "channel", "subtype": "noteOff", "noteNumber": 40, "velocity": 0  },
      { "deltaTime": 1, "channel": 0, "type": "channel", "noteNumber": 46, "velocity": 64, "subtype": "noteOn"  },
      { "deltaTime": 239, "channel": 0, "type": "channel", "subtype": "noteOff", "noteNumber": 46, "velocity": 0  },
      { "deltaTime": 1, "channel": 0, "type": "channel", "noteNumber": 40, "velocity": 64, "subtype": "noteOn"  },
      { "deltaTime": 239, "channel": 0, "type": "channel", "subtype": "noteOff", "noteNumber": 40, "velocity": 0  },
      { "deltaTime": 1, "channel": 0, "type": "channel", "noteNumber": 47, "velocity": 64, "subtype": "noteOn"  },
      { "deltaTime": 239, "channel": 0, "type": "channel", "subtype": "noteOff", "noteNumber": 47, "velocity": 0  },
      { "deltaTime": 1, "channel": 0, "type": "channel", "noteNumber": 50, "velocity": 64, "subtype": "noteOn"  },
      { "deltaTime": 239, "channel": 0, "type": "channel", "subtype": "noteOff", "noteNumber": 50, "velocity": 0  },
      { "deltaTime": 1, "channel": 0, "type": "channel", "noteNumber": 47, "velocity": 64, "subtype": "noteOn"  },
      { "deltaTime": 239, "channel": 0, "type": "channel", "subtype": "noteOff", "noteNumber": 47, "velocity": 0  },
      { "deltaTime": 1, "channel": 0, "type": "channel", "noteNumber": 40, "velocity": 64, "subtype": "noteOn"  },
      { "deltaTime": 239, "channel": 0, "type": "channel", "subtype": "noteOff", "noteNumber": 40, "velocity": 0  },
      { "deltaTime": 1, "channel": 0, "type": "channel", "noteNumber": 52, "velocity": 64, "subtype": "noteOn"  },
      { "deltaTime": 239, "channel": 0, "type": "channel", "subtype": "noteOff", "noteNumber": 52, "velocity": 0  },
      { "deltaTime": 1, "channel": 0, "type": "channel", "noteNumber": 40, "velocity": 64, "subtype": "noteOn"  },
      { "deltaTime": 239, "channel": 0, "type": "channel", "subtype": "noteOff", "noteNumber": 40, "velocity": 0  },
      { "deltaTime": 1, "channel": 0, "type": "channel", "noteNumber": 40, "velocity": 64, "subtype": "noteOn"  },
      { "deltaTime": 239, "channel": 0, "type": "channel", "subtype": "noteOff", "noteNumber": 40, "velocity": 0  },
      { "deltaTime": 1, "channel": 0, "type": "channel", "noteNumber": 50, "velocity": 64, "subtype": "noteOn"  },
      { "deltaTime": 239, "channel": 0, "type": "channel", "subtype": "noteOff", "noteNumber": 50, "velocity": 0  },
      { "deltaTime": 1, "channel": 0, "type": "channel", "noteNumber": 40, "velocity": 64, "subtype": "noteOn"  },
      { "deltaTime": 239, "channel": 0, "type": "channel", "subtype": "noteOff", "noteNumber": 40, "velocity": 0  },
      { "deltaTime": 1, "channel": 0, "type": "channel", "noteNumber": 40, "velocity": 64, "subtype": "noteOn"  },
      { "deltaTime": 239, "channel": 0, "type": "channel", "subtype": "noteOff", "noteNumber": 40, "velocity": 0  },
      { "deltaTime": 1, "channel": 0, "type": "channel", "noteNumber": 52, "velocity": 64, "subtype": "noteOn"  },
      { "deltaTime": 239, "channel": 0, "type": "channel", "subtype": "noteOff", "noteNumber": 52, "velocity": 0  },
      { "deltaTime": 1, "channel": 0, "type": "channel", "noteNumber": 40, "velocity": 64, "subtype": "noteOn"  },
      { "deltaTime": 239, "channel": 0, "type": "channel", "subtype": "noteOff", "noteNumber": 40, "velocity": 0  },
      { "deltaTime": 1, "channel": 0, "type": "channel", "noteNumber": 40, "velocity": 64, "subtype": "noteOn"  },
      { "deltaTime": 239, "channel": 0, "type": "channel", "subtype": "noteOff", "noteNumber": 40, "velocity": 0  },
      { "deltaTime": 1, "channel": 0, "type": "channel", "noteNumber": 47, "velocity": 64, "subtype": "noteOn"  },
      { "deltaTime": 239, "channel": 0, "type": "channel", "subtype": "noteOff", "noteNumber": 47, "velocity": 0  },
      { "deltaTime": 1, "channel": 0, "type": "channel", "noteNumber": 40, "velocity": 64, "subtype": "noteOn"  },
      { "deltaTime": 239, "channel": 0, "type": "channel", "subtype": "noteOff", "noteNumber": 40, "velocity": 0  },
      { "deltaTime": 1, "channel": 0, "type": "channel", "noteNumber": 50, "velocity": 64, "subtype": "noteOn"  },
      { "deltaTime": 239, "channel": 0, "type": "channel", "subtype": "noteOff", "noteNumber": 50, "velocity": 0  },
      { "deltaTime": 1, "channel": 0, "type": "channel", "noteNumber": 40, "velocity": 64, "subtype": "noteOn"  },
      { "deltaTime": 239, "channel": 0, "type": "channel", "subtype": "noteOff", "noteNumber": 40, "velocity": 0  },
      { "deltaTime": 1, "channel": 0, "type": "channel", "noteNumber": 49, "velocity": 64, "subtype": "noteOn"  },
      { "deltaTime": 239, "channel": 0, "type": "channel", "subtype": "noteOff", "noteNumber": 49, "velocity": 0  },
      { "deltaTime": 1, "channel": 0, "type": "channel", "noteNumber": 50, "velocity": 64, "subtype": "noteOn"  },
      { "deltaTime": 239, "channel": 0, "type": "channel", "subtype": "noteOff", "noteNumber": 50, "velocity": 0  },
      { "deltaTime": 1, "channel": 0, "type": "channel", "noteNumber": 40, "velocity": 64, "subtype": "noteOn"  },
      { "deltaTime": 239, "channel": 0, "type": "channel", "subtype": "noteOff", "noteNumber": 40, "velocity": 0  },
      { "deltaTime": 1, "channel": 0, "type": "channel", "noteNumber": 52, "velocity": 64, "subtype": "noteOn"  },
      { "deltaTime": 239, "channel": 0, "type": "channel", "subtype": "noteOff", "noteNumber": 52, "velocity": 0  },
      { "deltaTime": 1, "channel": 0, "type": "channel", "noteNumber": 40, "velocity": 64, "subtype": "noteOn"  },
      { "deltaTime": 239, "channel": 0, "type": "channel", "subtype": "noteOff", "noteNumber": 40, "velocity": 0  },
      { "deltaTime": 1, "channel": 0, "type": "channel", "noteNumber": 40, "velocity": 64, "subtype": "noteOn"  },
      { "deltaTime": 239, "channel": 0, "type": "channel", "subtype": "noteOff", "noteNumber": 40, "velocity": 0  },
      { "deltaTime": 1, "channel": 0, "type": "channel", "noteNumber": 50, "velocity": 64, "subtype": "noteOn"  },
      { "deltaTime": 239, "channel": 0, "type": "channel", "subtype": "noteOff", "noteNumber": 50, "velocity": 0  },
      { "deltaTime": 1, "channel": 0, "type": "channel", "noteNumber": 40, "velocity": 64, "subtype": "noteOn"  },
      { "deltaTime": 239, "channel": 0, "type": "channel", "subtype": "noteOff", "noteNumber": 40, "velocity": 0  },
      { "deltaTime": 1, "channel": 0, "type": "channel", "noteNumber": 40, "velocity": 64, "subtype": "noteOn"  },
      { "deltaTime": 239, "channel": 0, "type": "channel", "subtype": "noteOff", "noteNumber": 40, "velocity": 0  },
      { "deltaTime": 1, "channel": 0, "type": "channel", "noteNumber": 52, "velocity": 64, "subtype": "noteOn"  },
      { "deltaTime": 239, "channel": 0, "type": "channel", "subtype": "noteOff", "noteNumber": 52, "velocity": 0  },
      { "deltaTime": 1, "channel": 0, "type": "channel", "noteNumber": 40, "velocity": 64, "subtype": "noteOn"  },
      { "deltaTime": 239, "channel": 0, "type": "channel", "subtype": "noteOff", "noteNumber": 40, "velocity": 0  },
      { "deltaTime": 1, "channel": 0, "type": "channel", "noteNumber": 40, "velocity": 64, "subtype": "noteOn"  },
      { "deltaTime": 239, "channel": 0, "type": "channel", "subtype": "noteOff", "noteNumber": 40, "velocity": 0  },
      { "deltaTime": 1, "channel": 0, "type": "channel", "noteNumber": 56, "velocity": 64, "subtype": "noteOn"  },
      { "deltaTime": 239, "channel": 0, "type": "channel", "subtype": "noteOff", "noteNumber": 56, "velocity": 0  },
      { "deltaTime": 1, "channel": 0, "type": "channel", "noteNumber": 40, "velocity": 64, "subtype": "noteOn"  },
      { "deltaTime": 239, "channel": 0, "type": "channel", "subtype": "noteOff", "noteNumber": 40, "velocity": 0  },
      { "deltaTime": 1, "channel": 0, "type": "channel", "noteNumber": 40, "velocity": 64, "subtype": "noteOn"  },
      { "deltaTime": 239, "channel": 0, "type": "channel", "subtype": "noteOff", "noteNumber": 40, "velocity": 0  },
      { "deltaTime": 1, "channel": 0, "type": "channel", "noteNumber": 52, "velocity": 64, "subtype": "noteOn"  },
      { "deltaTime": 239, "channel": 0, "type": "channel", "subtype": "noteOff", "noteNumber": 52, "velocity": 0  },
      { "deltaTime": 1, "channel": 0, "type": "channel", "noteNumber": 40, "velocity": 64, "subtype": "noteOn"  },
      { "deltaTime": 239, "channel": 0, "type": "channel", "subtype": "noteOff", "noteNumber": 40, "velocity": 0  },
      { "deltaTime": 1, "channel": 0, "type": "channel", "noteNumber": 40, "velocity": 64, "subtype": "noteOn"  },
      { "deltaTime": 239, "channel": 0, "type": "channel", "subtype": "noteOff", "noteNumber": 40, "velocity": 0  },
      { "deltaTime": 1, "channel": 0, "type": "channel", "noteNumber": 50, "velocity": 64, "subtype": "noteOn"  },
      { "deltaTime": 239, "channel": 0, "type": "channel", "subtype": "noteOff", "noteNumber": 50, "velocity": 0  },
      { "deltaTime": 1, "channel": 0, "type": "channel", "noteNumber": 40, "velocity": 64, "subtype": "noteOn"  },
      { "deltaTime": 239, "channel": 0, "type": "channel", "subtype": "noteOff", "noteNumber": 40, "velocity": 0  },
      { "deltaTime": 1, "channel": 0, "type": "channel", "noteNumber": 40, "velocity": 64, "subtype": "noteOn"  },
      { "deltaTime": 239, "channel": 0, "type": "channel", "subtype": "noteOff", "noteNumber": 40, "velocity": 0  },
      { "deltaTime": 1, "channel": 0, "type": "channel", "noteNumber": 52, "velocity": 64, "subtype": "noteOn"  },
      { "deltaTime": 239, "channel": 0, "type": "channel", "subtype": "noteOff", "noteNumber": 52, "velocity": 0  },
      { "deltaTime": 1, "channel": 0, "type": "channel", "noteNumber": 40, "velocity": 64, "subtype": "noteOn"  },
      { "deltaTime": 239, "channel": 0, "type": "channel", "subtype": "noteOff", "noteNumber": 40, "velocity": 0  },
      { "deltaTime": 1, "channel": 0, "type": "channel", "noteNumber": 40, "velocity": 64, "subtype": "noteOn"  },
      { "deltaTime": 239, "channel": 0, "type": "channel", "subtype": "noteOff", "noteNumber": 40, "velocity": 0  },
      { "deltaTime": 1, "channel": 0, "type": "channel", "noteNumber": 47, "velocity": 64, "subtype": "noteOn"  },
      { "deltaTime": 239, "channel": 0, "type": "channel", "subtype": "noteOff", "noteNumber": 47, "velocity": 0  },
      { "deltaTime": 1, "channel": 0, "type": "channel", "noteNumber": 40, "velocity": 64, "subtype": "noteOn"  },
      { "deltaTime": 239, "channel": 0, "type": "channel", "subtype": "noteOff", "noteNumber": 40, "velocity": 0  },
      { "deltaTime": 1, "channel": 0, "type": "channel", "noteNumber": 50, "velocity": 64, "subtype": "noteOn"  },
      { "deltaTime": 239, "channel": 0, "type": "channel", "subtype": "noteOff", "noteNumber": 50, "velocity": 0  },
      { "deltaTime": 1, "channel": 0, "type": "channel", "noteNumber": 40, "velocity": 64, "subtype": "noteOn"  },
      { "deltaTime": 239, "channel": 0, "type": "channel", "subtype": "noteOff", "noteNumber": 40, "velocity": 0  },
      { "deltaTime": 1, "channel": 0, "type": "channel", "noteNumber": 49, "velocity": 64, "subtype": "noteOn"  },
      { "deltaTime": 239, "channel": 0, "type": "channel", "subtype": "noteOff", "noteNumber": 49, "velocity": 0  },
      { "deltaTime": 1, "channel": 0, "type": "channel", "noteNumber": 50, "velocity": 64, "subtype": "noteOn"  },
      { "deltaTime": 239, "channel": 0, "type": "channel", "subtype": "noteOff", "noteNumber": 50, "velocity": 0  },
      { "deltaTime": 1, "channel": 0, "type": "channel", "noteNumber": 40, "velocity": 64, "subtype": "noteOn"  },
      { "deltaTime": 239, "channel": 0, "type": "channel", "subtype": "noteOff", "noteNumber": 40, "velocity": 0  },
      { "deltaTime": 1, "channel": 0, "type": "channel", "noteNumber": 52, "velocity": 64, "subtype": "noteOn"  },
      { "deltaTime": 239, "channel": 0, "type": "channel", "subtype": "noteOff", "noteNumber": 52, "velocity": 0  },
      { "deltaTime": 1, "channel": 0, "type": "channel", "noteNumber": 40, "velocity": 64, "subtype": "noteOn"  },
      { "deltaTime": 239, "channel": 0, "type": "channel", "subtype": "noteOff", "noteNumber": 40, "velocity": 0  },
      { "deltaTime": 1, "channel": 0, "type": "channel", "noteNumber": 40, "velocity": 64, "subtype": "noteOn"  },
      { "deltaTime": 239, "channel": 0, "type": "channel", "subtype": "noteOff", "noteNumber": 40, "velocity": 0  },
      { "deltaTime": 1, "channel": 0, "type": "channel", "noteNumber": 50, "velocity": 64, "subtype": "noteOn"  },
      { "deltaTime": 239, "channel": 0, "type": "channel", "subtype": "noteOff", "noteNumber": 50, "velocity": 0  },
      { "deltaTime": 1, "channel": 0, "type": "channel", "noteNumber": 40, "velocity": 64, "subtype": "noteOn"  },
      { "deltaTime": 239, "channel": 0, "type": "channel", "subtype": "noteOff", "noteNumber": 40, "velocity": 0  },
      { "deltaTime": 1, "channel": 0, "type": "channel", "noteNumber": 40, "velocity": 64, "subtype": "noteOn"  },
      { "deltaTime": 239, "channel": 0, "type": "channel", "subtype": "noteOff", "noteNumber": 40, "velocity": 0  },
      { "deltaTime": 1, "channel": 0, "type": "channel", "noteNumber": 52, "velocity": 64, "subtype": "noteOn"  },
      { "deltaTime": 239, "channel": 0, "type": "channel", "subtype": "noteOff", "noteNumber": 52, "velocity": 0  },
      { "deltaTime": 1, "channel": 0, "type": "channel", "noteNumber": 40, "velocity": 64, "subtype": "noteOn"  },
      { "deltaTime": 239, "channel": 0, "type": "channel", "subtype": "noteOff", "noteNumber": 40, "velocity": 0  },
      { "deltaTime": 1, "channel": 0, "type": "channel", "noteNumber": 40, "velocity": 64, "subtype": "noteOn"  },
      { "deltaTime": 239, "channel": 0, "type": "channel", "subtype": "noteOff", "noteNumber": 40, "velocity": 0  },
      { "deltaTime": 1, "channel": 0, "type": "channel", "noteNumber": 56, "velocity": 64, "subtype": "noteOn"  },
      { "deltaTime": 239, "channel": 0, "type": "channel", "subtype": "noteOff", "noteNumber": 56, "velocity": 0  },
      { "deltaTime": 1, "channel": 0, "type": "channel", "noteNumber": 40, "velocity": 64, "subtype": "noteOn"  },
      { "deltaTime": 239, "channel": 0, "type": "channel", "subtype": "noteOff", "noteNumber": 40, "velocity": 0  },
      { "deltaTime": 1, "channel": 0, "type": "channel", "noteNumber": 40, "velocity": 64, "subtype": "noteOn"  },
      { "deltaTime": 239, "channel": 0, "type": "channel", "subtype": "noteOff", "noteNumber": 40, "velocity": 0  },
      { "deltaTime": 1, "channel": 0, "type": "channel", "noteNumber": 52, "velocity": 64, "subtype": "noteOn"  },
      { "deltaTime": 239, "channel": 0, "type": "channel", "subtype": "noteOff", "noteNumber": 52, "velocity": 0  },
      { "deltaTime": 1, "channel": 0, "type": "channel", "noteNumber": 40, "velocity": 64, "subtype": "noteOn"  },
      { "deltaTime": 239, "channel": 0, "type": "channel", "subtype": "noteOff", "noteNumber": 40, "velocity": 0  },
      { "deltaTime": 1, "channel": 0, "type": "channel", "noteNumber": 40, "velocity": 64, "subtype": "noteOn"  },
      { "deltaTime": 239, "channel": 0, "type": "channel", "subtype": "noteOff", "noteNumber": 40, "velocity": 0  },
      { "deltaTime": 1, "channel": 0, "type": "channel", "noteNumber": 50, "velocity": 64, "subtype": "noteOn"  },
      { "deltaTime": 239, "channel": 0, "type": "channel", "subtype": "noteOff", "noteNumber": 50, "velocity": 0  },
      { "deltaTime": 1, "channel": 0, "type": "channel", "noteNumber": 40, "velocity": 64, "subtype": "noteOn"  },
      { "deltaTime": 239, "channel": 0, "type": "channel", "subtype": "noteOff", "noteNumber": 40, "velocity": 0  },
      { "deltaTime": 1, "channel": 0, "type": "channel", "noteNumber": 40, "velocity": 64, "subtype": "noteOn"  },
      { "deltaTime": 239, "channel": 0, "type": "channel", "subtype": "noteOff", "noteNumber": 40, "velocity": 0  },
      { "deltaTime": 1, "channel": 0, "type": "channel", "noteNumber": 52, "velocity": 64, "subtype": "noteOn"  },
      { "deltaTime": 239, "channel": 0, "type": "channel", "subtype": "noteOff", "noteNumber": 52, "velocity": 0  },
      { "deltaTime": 1, "channel": 0, "type": "channel", "noteNumber": 40, "velocity": 64, "subtype": "noteOn"  },
      { "deltaTime": 239, "channel": 0, "type": "channel", "subtype": "noteOff", "noteNumber": 40, "velocity": 0  },
      { "deltaTime": 1, "channel": 0, "type": "channel", "noteNumber": 40, "velocity": 64, "subtype": "noteOn"  },
      { "deltaTime": 239, "channel": 0, "type": "channel", "subtype": "noteOff", "noteNumber": 40, "velocity": 0  },
      { "deltaTime": 1, "channel": 0, "type": "channel", "noteNumber": 47, "velocity": 64, "subtype": "noteOn"  },
      { "deltaTime": 239, "channel": 0, "type": "channel", "subtype": "noteOff", "noteNumber": 47, "velocity": 0  },
      { "deltaTime": 1, "channel": 0, "type": "channel", "noteNumber": 40, "velocity": 64, "subtype": "noteOn"  },
      { "deltaTime": 239, "channel": 0, "type": "channel", "subtype": "noteOff", "noteNumber": 40, "velocity": 0  },
      { "deltaTime": 1, "channel": 0, "type": "channel", "noteNumber": 50, "velocity": 64, "subtype": "noteOn"  },
      { "deltaTime": 239, "channel": 0, "type": "channel", "subtype": "noteOff", "noteNumber": 50, "velocity": 0  },
      { "deltaTime": 1, "channel": 0, "type": "channel", "noteNumber": 40, "velocity": 64, "subtype": "noteOn"  },
      { "deltaTime": 239, "channel": 0, "type": "channel", "subtype": "noteOff", "noteNumber": 40, "velocity": 0  },
      { "deltaTime": 1, "channel": 0, "type": "channel", "noteNumber": 49, "velocity": 64, "subtype": "noteOn"  },
      { "deltaTime": 239, "channel": 0, "type": "channel", "subtype": "noteOff", "noteNumber": 49, "velocity": 0  },
      { "deltaTime": 1, "channel": 0, "type": "channel", "noteNumber": 50, "velocity": 64, "subtype": "noteOn"  },
      { "deltaTime": 239, "channel": 0, "type": "channel", "subtype": "noteOff", "noteNumber": 50, "velocity": 0  },
      { "deltaTime": 1, "channel": 0, "type": "channel", "noteNumber": 40, "velocity": 64, "subtype": "noteOn"  },
      { "deltaTime": 239, "channel": 0, "type": "channel", "subtype": "noteOff", "noteNumber": 40, "velocity": 0  },
      { "deltaTime": 1, "channel": 0, "type": "channel", "noteNumber": 52, "velocity": 64, "subtype": "noteOn"  },
      { "deltaTime": 239, "channel": 0, "type": "channel", "subtype": "noteOff", "noteNumber": 52, "velocity": 0  },
      { "deltaTime": 1, "channel": 0, "type": "channel", "noteNumber": 40, "velocity": 64, "subtype": "noteOn"  },
      { "deltaTime": 239, "channel": 0, "type": "channel", "subtype": "noteOff", "noteNumber": 40, "velocity": 0  },
      { "deltaTime": 1, "channel": 0, "type": "channel", "noteNumber": 40, "velocity": 64, "subtype": "noteOn"  },
      { "deltaTime": 239, "channel": 0, "type": "channel", "subtype": "noteOff", "noteNumber": 40, "velocity": 0  },
      { "deltaTime": 1, "channel": 0, "type": "channel", "noteNumber": 50, "velocity": 64, "subtype": "noteOn"  },
      { "deltaTime": 239, "channel": 0, "type": "channel", "subtype": "noteOff", "noteNumber": 50, "velocity": 0  },
      { "deltaTime": 1, "channel": 0, "type": "channel", "noteNumber": 40, "velocity": 64, "subtype": "noteOn"  },
      { "deltaTime": 239, "channel": 0, "type": "channel", "subtype": "noteOff", "noteNumber": 40, "velocity": 0  },
      { "deltaTime": 1, "channel": 0, "type": "channel", "noteNumber": 40, "velocity": 64, "subtype": "noteOn"  },
      { "deltaTime": 239, "channel": 0, "type": "channel", "subtype": "noteOff", "noteNumber": 40, "velocity": 0  },
      { "deltaTime": 1, "channel": 0, "type": "channel", "noteNumber": 52, "velocity": 64, "subtype": "noteOn"  },
      { "deltaTime": 239, "channel": 0, "type": "channel", "subtype": "noteOff", "noteNumber": 52, "velocity": 0  },
      { "deltaTime": 1, "channel": 0, "type": "channel", "noteNumber": 40, "velocity": 64, "subtype": "noteOn"  },
      { "deltaTime": 239, "channel": 0, "type": "channel", "subtype": "noteOff", "noteNumber": 40, "velocity": 0  },
      { "deltaTime": 1, "channel": 0, "type": "channel", "noteNumber": 40, "velocity": 64, "subtype": "noteOn"  },
      { "deltaTime": 239, "channel": 0, "type": "channel", "subtype": "noteOff", "noteNumber": 40, "velocity": 0  },
      { "deltaTime": 1, "channel": 0, "type": "channel", "noteNumber": 56, "velocity": 64, "subtype": "noteOn"  },
      { "deltaTime": 239, "channel": 0, "type": "channel", "subtype": "noteOff", "noteNumber": 56, "velocity": 0  },
      { "deltaTime": 1, "channel": 0, "type": "channel", "noteNumber": 40, "velocity": 64, "subtype": "noteOn"  },
      { "deltaTime": 239, "channel": 0, "type": "channel", "subtype": "noteOff", "noteNumber": 40, "velocity": 0  },
      { "deltaTime": 1, "channel": 0, "type": "channel", "noteNumber": 40, "velocity": 64, "subtype": "noteOn"  },
      { "deltaTime": 239, "channel": 0, "type": "channel", "subtype": "noteOff", "noteNumber": 40, "velocity": 0  },
      { "deltaTime": 1, "channel": 0, "type": "channel", "noteNumber": 52, "velocity": 64, "subtype": "noteOn"  },
      { "deltaTime": 239, "channel": 0, "type": "channel", "subtype": "noteOff", "noteNumber": 52, "velocity": 0  },
      { "deltaTime": 1, "channel": 0, "type": "channel", "noteNumber": 40, "velocity": 64, "subtype": "noteOn"  },
      { "deltaTime": 239, "channel": 0, "type": "channel", "subtype": "noteOff", "noteNumber": 40, "velocity": 0  },
      { "deltaTime": 1, "channel": 0, "type": "channel", "noteNumber": 40, "velocity": 64, "subtype": "noteOn"  },
      { "deltaTime": 239, "channel": 0, "type": "channel", "subtype": "noteOff", "noteNumber": 40, "velocity": 0  },
      { "deltaTime": 1, "channel": 0, "type": "channel", "noteNumber": 50, "velocity": 64, "subtype": "noteOn"  },
      { "deltaTime": 239, "channel": 0, "type": "channel", "subtype": "noteOff", "noteNumber": 50, "velocity": 0  },
      { "deltaTime": 1, "channel": 0, "type": "channel", "noteNumber": 40, "velocity": 64, "subtype": "noteOn"  },
      { "deltaTime": 239, "channel": 0, "type": "channel", "subtype": "noteOff", "noteNumber": 40, "velocity": 0  },
      { "deltaTime": 1, "channel": 0, "type": "channel", "noteNumber": 40, "velocity": 64, "subtype": "noteOn"  },
      { "deltaTime": 239, "channel": 0, "type": "channel", "subtype": "noteOff", "noteNumber": 40, "velocity": 0  },
      { "deltaTime": 1, "channel": 0, "type": "channel", "noteNumber": 52, "velocity": 64, "subtype": "noteOn"  },
      { "deltaTime": 239, "channel": 0, "type": "channel", "subtype": "noteOff", "noteNumber": 52, "velocity": 0  },
      { "deltaTime": 1, "channel": 0, "type": "channel", "noteNumber": 40, "velocity": 64, "subtype": "noteOn"  },
      { "deltaTime": 239, "channel": 0, "type": "channel", "subtype": "noteOff", "noteNumber": 40, "velocity": 0  },
      { "deltaTime": 1, "channel": 0, "type": "channel", "noteNumber": 40, "velocity": 64, "subtype": "noteOn"  },
      { "deltaTime": 239, "channel": 0, "type": "channel", "subtype": "noteOff", "noteNumber": 40, "velocity": 0  },
      { "deltaTime": 1, "channel": 0, "type": "channel", "noteNumber": 47, "velocity": 64, "subtype": "noteOn"  },
      { "deltaTime": 239, "channel": 0, "type": "channel", "subtype": "noteOff", "noteNumber": 47, "velocity": 0  },
      { "deltaTime": 1, "channel": 0, "type": "channel", "noteNumber": 40, "velocity": 64, "subtype": "noteOn"  },
      { "deltaTime": 239, "channel": 0, "type": "channel", "subtype": "noteOff", "noteNumber": 40, "velocity": 0  },
      { "deltaTime": 1, "channel": 0, "type": "channel", "noteNumber": 50, "velocity": 64, "subtype": "noteOn"  },
      { "deltaTime": 239, "channel": 0, "type": "channel", "subtype": "noteOff", "noteNumber": 50, "velocity": 0  },
      { "deltaTime": 1, "channel": 0, "type": "channel", "noteNumber": 40, "velocity": 64, "subtype": "noteOn"  },
      { "deltaTime": 239, "channel": 0, "type": "channel", "subtype": "noteOff", "noteNumber": 40, "velocity": 0  },
      { "deltaTime": 1, "channel": 0, "type": "channel", "noteNumber": 49, "velocity": 64, "subtype": "noteOn"  },
      { "deltaTime": 239, "channel": 0, "type": "channel", "subtype": "noteOff", "noteNumber": 49, "velocity": 0  },
      { "deltaTime": 1, "channel": 0, "type": "channel", "noteNumber": 50, "velocity": 64, "subtype": "noteOn"  },
      { "deltaTime": 239, "channel": 0, "type": "channel", "subtype": "noteOff", "noteNumber": 50, "velocity": 0  },
      { "deltaTime": 1, "channel": 0, "type": "channel", "noteNumber": 40, "velocity": 64, "subtype": "noteOn"  },
      { "deltaTime": 239, "channel": 0, "type": "channel", "subtype": "noteOff", "noteNumber": 40, "velocity": 0  },
      { "deltaTime": 1, "channel": 0, "type": "channel", "noteNumber": 52, "velocity": 64, "subtype": "noteOn"  },
      { "deltaTime": 239, "channel": 0, "type": "channel", "subtype": "noteOff", "noteNumber": 52, "velocity": 0  },
      { "deltaTime": 1, "channel": 0, "type": "channel", "noteNumber": 40, "velocity": 64, "subtype": "noteOn"  },
      { "deltaTime": 239, "channel": 0, "type": "channel", "subtype": "noteOff", "noteNumber": 40, "velocity": 0  },
      { "deltaTime": 1, "channel": 0, "type": "channel", "noteNumber": 40, "velocity": 64, "subtype": "noteOn"  },
      { "deltaTime": 239, "channel": 0, "type": "channel", "subtype": "noteOff", "noteNumber": 40, "velocity": 0  },
      { "deltaTime": 1, "channel": 0, "type": "channel", "noteNumber": 50, "velocity": 64, "subtype": "noteOn"  },
      { "deltaTime": 239, "channel": 0, "type": "channel", "subtype": "noteOff", "noteNumber": 50, "velocity": 0  },
      { "deltaTime": 1, "channel": 0, "type": "channel", "noteNumber": 40, "velocity": 64, "subtype": "noteOn"  },
      { "deltaTime": 239, "channel": 0, "type": "channel", "subtype": "noteOff", "noteNumber": 40, "velocity": 0  },
      { "deltaTime": 1, "channel": 0, "type": "channel", "noteNumber": 40, "velocity": 64, "subtype": "noteOn"  },
      { "deltaTime": 239, "channel": 0, "type": "channel", "subtype": "noteOff", "noteNumber": 40, "velocity": 0  },
      { "deltaTime": 1, "channel": 0, "type": "channel", "noteNumber": 52, "velocity": 64, "subtype": "noteOn"  },
      { "deltaTime": 239, "channel": 0, "type": "channel", "subtype": "noteOff", "noteNumber": 52, "velocity": 0  },
      { "deltaTime": 1, "channel": 0, "type": "channel", "noteNumber": 40, "velocity": 64, "subtype": "noteOn"  },
      { "deltaTime": 239, "channel": 0, "type": "channel", "subtype": "noteOff", "noteNumber": 40, "velocity": 0  },
      { "deltaTime": 1, "channel": 0, "type": "channel", "noteNumber": 40, "velocity": 64, "subtype": "noteOn"  },
      { "deltaTime": 239, "channel": 0, "type": "channel", "subtype": "noteOff", "noteNumber": 40, "velocity": 0  },
      { "deltaTime": 1, "channel": 0, "type": "channel", "noteNumber": 56, "velocity": 64, "subtype": "noteOn"  },
      { "deltaTime": 239, "channel": 0, "type": "channel", "subtype": "noteOff", "noteNumber": 56, "velocity": 0  },
      { "deltaTime": 1, "channel": 0, "type": "channel", "noteNumber": 40, "velocity": 64, "subtype": "noteOn"  },
      { "deltaTime": 239, "channel": 0, "type": "channel", "subtype": "noteOff", "noteNumber": 40, "velocity": 0  },
      { "deltaTime": 1, "channel": 0, "type": "channel", "noteNumber": 40, "velocity": 64, "subtype": "noteOn"  },
      { "deltaTime": 239, "channel": 0, "type": "channel", "subtype": "noteOff", "noteNumber": 40, "velocity": 0  },
      { "deltaTime": 1, "channel": 0, "type": "channel", "noteNumber": 52, "velocity": 64, "subtype": "noteOn"  },
      { "deltaTime": 239, "channel": 0, "type": "channel", "subtype": "noteOff", "noteNumber": 52, "velocity": 0  },
      { "deltaTime": 1, "channel": 0, "type": "channel", "noteNumber": 40, "velocity": 64, "subtype": "noteOn"  },
      { "deltaTime": 239, "channel": 0, "type": "channel", "subtype": "noteOff", "noteNumber": 40, "velocity": 0  },
      { "deltaTime": 1, "channel": 0, "type": "channel", "noteNumber": 40, "velocity": 64, "subtype": "noteOn"  },
      { "deltaTime": 239, "channel": 0, "type": "channel", "subtype": "noteOff", "noteNumber": 40, "velocity": 0  },
      { "deltaTime": 1, "channel": 0, "type": "channel", "noteNumber": 50, "velocity": 64, "subtype": "noteOn"  },
      { "deltaTime": 239, "channel": 0, "type": "channel", "subtype": "noteOff", "noteNumber": 50, "velocity": 0  },
      { "deltaTime": 241, "channel": 0, "type": "channel", "noteNumber": 40, "velocity": 64, "subtype": "noteOn"  },
      { "deltaTime": 239, "channel": 0, "type": "channel", "subtype": "noteOff", "noteNumber": 40, "velocity": 0  },
      { "deltaTime": 1, "channel": 0, "type": "channel", "noteNumber": 49, "velocity": 64, "subtype": "noteOn"  },
      { "deltaTime": 239, "channel": 0, "type": "channel", "subtype": "noteOff", "noteNumber": 49, "velocity": 0  },
      { "deltaTime": 1, "channel": 0, "type": "channel", "noteNumber": 40, "velocity": 64, "subtype": "noteOn"  },
      { "deltaTime": 239, "channel": 0, "type": "channel", "subtype": "noteOff", "noteNumber": 40, "velocity": 0  },
      { "deltaTime": 1, "channel": 0, "type": "channel", "noteNumber": 40, "velocity": 64, "subtype": "noteOn"  },
      { "deltaTime": 239, "channel": 0, "type": "channel", "subtype": "noteOff", "noteNumber": 40, "velocity": 0  },
      { "deltaTime": 1, "channel": 0, "type": "channel", "noteNumber": 47, "velocity": 64, "subtype": "noteOn"  },
      { "deltaTime": 239, "channel": 0, "type": "channel", "subtype": "noteOff", "noteNumber": 47, "velocity": 0  },
      { "deltaTime": 241, "channel": 0, "type": "channel", "noteNumber": 40, "velocity": 64, "subtype": "noteOn"  },
      { "deltaTime": 239, "channel": 0, "type": "channel", "subtype": "noteOff", "noteNumber": 40, "velocity": 0  },
      { "deltaTime": 1, "channel": 0, "type": "channel", "noteNumber": 45, "velocity": 64, "subtype": "noteOn"  },
      { "deltaTime": 239, "channel": 0, "type": "channel", "subtype": "noteOff", "noteNumber": 45, "velocity": 0  },
      { "deltaTime": 1, "channel": 0, "type": "channel", "noteNumber": 47, "velocity": 64, "subtype": "noteOn"  },
      { "deltaTime": 239, "channel": 0, "type": "channel", "subtype": "noteOff", "noteNumber": 47, "velocity": 0  },
      { "deltaTime": 1, "channel": 0, "type": "channel", "noteNumber": 52, "velocity": 64, "subtype": "noteOn"  },
      { "deltaTime": 239, "channel": 0, "type": "channel", "subtype": "noteOff", "noteNumber": 52, "velocity": 0  },
      { "deltaTime": 1, "channel": 0, "type": "channel", "noteNumber": 40, "velocity": 64, "subtype": "noteOn"  },
      { "deltaTime": 239, "channel": 0, "type": "channel", "subtype": "noteOff", "noteNumber": 40, "velocity": 0  },
      { "deltaTime": 1, "channel": 0, "type": "channel", "noteNumber": 52, "velocity": 64, "subtype": "noteOn"  },
      { "deltaTime": 239, "channel": 0, "type": "channel", "subtype": "noteOff", "noteNumber": 52, "velocity": 0  },
      { "deltaTime": 1, "channel": 0, "type": "channel", "noteNumber": 40, "velocity": 64, "subtype": "noteOn"  },
      { "deltaTime": 239, "channel": 0, "type": "channel", "subtype": "noteOff", "noteNumber": 40, "velocity": 0  },
      { "deltaTime": 1, "channel": 0, "type": "channel", "noteNumber": 40, "velocity": 64, "subtype": "noteOn"  },
      { "deltaTime": 239, "channel": 0, "type": "channel", "subtype": "noteOff", "noteNumber": 40, "velocity": 0  },
      { "deltaTime": 1, "channel": 0, "type": "channel", "noteNumber": 50, "velocity": 64, "subtype": "noteOn"  },
      { "deltaTime": 239, "channel": 0, "type": "channel", "subtype": "noteOff", "noteNumber": 50, "velocity": 0  },
      { "deltaTime": 241, "channel": 0, "type": "channel", "noteNumber": 40, "velocity": 64, "subtype": "noteOn"  },
      { "deltaTime": 239, "channel": 0, "type": "channel", "subtype": "noteOff", "noteNumber": 40, "velocity": 0  },
      { "deltaTime": 1, "channel": 0, "type": "channel", "noteNumber": 49, "velocity": 64, "subtype": "noteOn"  },
      { "deltaTime": 239, "channel": 0, "type": "channel", "subtype": "noteOff", "noteNumber": 49, "velocity": 0  },
      { "deltaTime": 1, "channel": 0, "type": "channel", "noteNumber": 40, "velocity": 64, "subtype": "noteOn"  },
      { "deltaTime": 239, "channel": 0, "type": "channel", "subtype": "noteOff", "noteNumber": 40, "velocity": 0  },
      { "deltaTime": 1, "channel": 0, "type": "channel", "noteNumber": 40, "velocity": 64, "subtype": "noteOn"  },
      { "deltaTime": 239, "channel": 0, "type": "channel", "subtype": "noteOff", "noteNumber": 40, "velocity": 0  },
      { "deltaTime": 1, "channel": 0, "type": "channel", "noteNumber": 47, "velocity": 64, "subtype": "noteOn"  },
      { "deltaTime": 239, "channel": 0, "type": "channel", "subtype": "noteOff", "noteNumber": 47, "velocity": 0  },
      { "deltaTime": 241, "channel": 0, "type": "channel", "noteNumber": 40, "velocity": 64, "subtype": "noteOn"  },
      { "deltaTime": 239, "channel": 0, "type": "channel", "subtype": "noteOff", "noteNumber": 40, "velocity": 0  },
      { "deltaTime": 1, "channel": 0, "type": "channel", "noteNumber": 52, "velocity": 64, "subtype": "noteOn"  },
      { "deltaTime": 239, "channel": 0, "type": "channel", "subtype": "noteOff", "noteNumber": 52, "velocity": 0  },
      { "deltaTime": 1, "channel": 0, "type": "channel", "noteNumber": 40, "velocity": 64, "subtype": "noteOn"  },
      { "deltaTime": 239, "channel": 0, "type": "channel", "subtype": "noteOff", "noteNumber": 40, "velocity": 0  },
      { "deltaTime": 1, "channel": 0, "type": "channel", "noteNumber": 40, "velocity": 64, "subtype": "noteOn"  },
      { "deltaTime": 239, "channel": 0, "type": "channel", "subtype": "noteOff", "noteNumber": 40, "velocity": 0  },
      { "deltaTime": 1, "channel": 0, "type": "channel", "noteNumber": 50, "velocity": 64, "subtype": "noteOn"  },
      { "deltaTime": 239, "channel": 0, "type": "channel", "subtype": "noteOff", "noteNumber": 50, "velocity": 0  },
      { "deltaTime": 241, "channel": 0, "type": "channel", "noteNumber": 40, "velocity": 64, "subtype": "noteOn"  },
      { "deltaTime": 239, "channel": 0, "type": "channel", "subtype": "noteOff", "noteNumber": 40, "velocity": 0  },
      { "deltaTime": 1, "channel": 0, "type": "channel", "noteNumber": 49, "velocity": 64, "subtype": "noteOn"  },
      { "deltaTime": 239, "channel": 0, "type": "channel", "subtype": "noteOff", "noteNumber": 49, "velocity": 0  },
      { "deltaTime": 1, "channel": 0, "type": "channel", "noteNumber": 40, "velocity": 64, "subtype": "noteOn"  },
      { "deltaTime": 239, "channel": 0, "type": "channel", "subtype": "noteOff", "noteNumber": 40, "velocity": 0  },
      { "deltaTime": 1, "channel": 0, "type": "channel", "noteNumber": 40, "velocity": 64, "subtype": "noteOn"  },
      { "deltaTime": 239, "channel": 0, "type": "channel", "subtype": "noteOff", "noteNumber": 40, "velocity": 0  },
      { "deltaTime": 1, "channel": 0, "type": "channel", "noteNumber": 47, "velocity": 64, "subtype": "noteOn"  },
      { "deltaTime": 239, "channel": 0, "type": "channel", "subtype": "noteOff", "noteNumber": 47, "velocity": 0  },
      { "deltaTime": 241, "channel": 0, "type": "channel", "noteNumber": 40, "velocity": 64, "subtype": "noteOn"  },
      { "deltaTime": 239, "channel": 0, "type": "channel", "subtype": "noteOff", "noteNumber": 40, "velocity": 0  },
      { "deltaTime": 1, "channel": 0, "type": "channel", "noteNumber": 45, "velocity": 64, "subtype": "noteOn"  },
      { "deltaTime": 239, "channel": 0, "type": "channel", "subtype": "noteOff", "noteNumber": 45, "velocity": 0  },
      { "deltaTime": 1, "channel": 0, "type": "channel", "noteNumber": 47, "velocity": 64, "subtype": "noteOn"  },
      { "deltaTime": 239, "channel": 0, "type": "channel", "subtype": "noteOff", "noteNumber": 47, "velocity": 0  },
      { "deltaTime": 1, "channel": 0, "type": "channel", "noteNumber": 52, "velocity": 64, "subtype": "noteOn"  },
      { "deltaTime": 239, "channel": 0, "type": "channel", "subtype": "noteOff", "noteNumber": 52, "velocity": 0  },
      { "deltaTime": 1, "channel": 0, "type": "channel", "noteNumber": 40, "velocity": 64, "subtype": "noteOn"  },
      { "deltaTime": 239, "channel": 0, "type": "channel", "subtype": "noteOff", "noteNumber": 40, "velocity": 0  },
      { "deltaTime": 1, "channel": 0, "type": "channel", "noteNumber": 52, "velocity": 64, "subtype": "noteOn"  },
      { "deltaTime": 239, "channel": 0, "type": "channel", "subtype": "noteOff", "noteNumber": 52, "velocity": 0  },
      { "deltaTime": 1, "channel": 0, "type": "channel", "noteNumber": 40, "velocity": 64, "subtype": "noteOn"  },
      { "deltaTime": 239, "channel": 0, "type": "channel", "subtype": "noteOff", "noteNumber": 40, "velocity": 0  },
      { "deltaTime": 1, "channel": 0, "type": "channel", "noteNumber": 40, "velocity": 64, "subtype": "noteOn"  },
      { "deltaTime": 239, "channel": 0, "type": "channel", "subtype": "noteOff", "noteNumber": 40, "velocity": 0  },
      { "deltaTime": 1, "channel": 0, "type": "channel", "noteNumber": 50, "velocity": 64, "subtype": "noteOn"  },
      { "deltaTime": 239, "channel": 0, "type": "channel", "subtype": "noteOff", "noteNumber": 50, "velocity": 0  },
      { "deltaTime": 241, "channel": 0, "type": "channel", "noteNumber": 40, "velocity": 64, "subtype": "noteOn"  },
      { "deltaTime": 239, "channel": 0, "type": "channel", "subtype": "noteOff", "noteNumber": 40, "velocity": 0  },
      { "deltaTime": 1, "channel": 0, "type": "channel", "noteNumber": 49, "velocity": 64, "subtype": "noteOn"  },
      { "deltaTime": 239, "channel": 0, "type": "channel", "subtype": "noteOff", "noteNumber": 49, "velocity": 0  },
      { "deltaTime": 1, "channel": 0, "type": "channel", "noteNumber": 40, "velocity": 64, "subtype": "noteOn"  },
      { "deltaTime": 239, "channel": 0, "type": "channel", "subtype": "noteOff", "noteNumber": 40, "velocity": 0  },
      { "deltaTime": 1, "channel": 0, "type": "channel", "noteNumber": 40, "velocity": 64, "subtype": "noteOn"  },
      { "deltaTime": 239, "channel": 0, "type": "channel", "subtype": "noteOff", "noteNumber": 40, "velocity": 0  },
      { "deltaTime": 1, "channel": 0, "type": "channel", "noteNumber": 47, "velocity": 64, "subtype": "noteOn"  },
      { "deltaTime": 239, "channel": 0, "type": "channel", "subtype": "noteOff", "noteNumber": 47, "velocity": 0  },
      { "deltaTime": 241, "channel": 0, "type": "channel", "noteNumber": 40, "velocity": 64, "subtype": "noteOn"  },
      { "deltaTime": 239, "channel": 0, "type": "channel", "subtype": "noteOff", "noteNumber": 40, "velocity": 0  },
      { "deltaTime": 1, "channel": 0, "type": "channel", "noteNumber": 52, "velocity": 64, "subtype": "noteOn"  },
      { "deltaTime": 239, "channel": 0, "type": "channel", "subtype": "noteOff", "noteNumber": 52, "velocity": 0  },
      { "deltaTime": 1, "channel": 0, "type": "channel", "noteNumber": 40, "velocity": 64, "subtype": "noteOn"  },
      { "deltaTime": 239, "channel": 0, "type": "channel", "subtype": "noteOff", "noteNumber": 40, "velocity": 0  },
      { "deltaTime": 1, "channel": 0, "type": "channel", "noteNumber": 40, "velocity": 64, "subtype": "noteOn"  },
      { "deltaTime": 239, "channel": 0, "type": "channel", "subtype": "noteOff", "noteNumber": 40, "velocity": 0  },
      { "deltaTime": 1, "channel": 0, "type": "channel", "noteNumber": 50, "velocity": 64, "subtype": "noteOn"  },
      { "deltaTime": 239, "channel": 0, "type": "channel", "subtype": "noteOff", "noteNumber": 50, "velocity": 0  },
      { "deltaTime": 241, "channel": 0, "type": "channel", "noteNumber": 40, "velocity": 64, "subtype": "noteOn"  },
      { "deltaTime": 239, "channel": 0, "type": "channel", "subtype": "noteOff", "noteNumber": 40, "velocity": 0  },
      { "deltaTime": 1, "channel": 0, "type": "channel", "noteNumber": 49, "velocity": 64, "subtype": "noteOn"  },
      { "deltaTime": 239, "channel": 0, "type": "channel", "subtype": "noteOff", "noteNumber": 49, "velocity": 0  },
      { "deltaTime": 1, "channel": 0, "type": "channel", "noteNumber": 40, "velocity": 64, "subtype": "noteOn"  },
      { "deltaTime": 239, "channel": 0, "type": "channel", "subtype": "noteOff", "noteNumber": 40, "velocity": 0  },
      { "deltaTime": 1, "channel": 0, "type": "channel", "noteNumber": 40, "velocity": 64, "subtype": "noteOn"  },
      { "deltaTime": 239, "channel": 0, "type": "channel", "subtype": "noteOff", "noteNumber": 40, "velocity": 0  },
      { "deltaTime": 1, "channel": 0, "type": "channel", "noteNumber": 47, "velocity": 64, "subtype": "noteOn"  },
      { "deltaTime": 239, "channel": 0, "type": "channel", "subtype": "noteOff", "noteNumber": 47, "velocity": 0  },
      { "deltaTime": 241, "channel": 0, "type": "channel", "noteNumber": 40, "velocity": 64, "subtype": "noteOn"  },
      { "deltaTime": 239, "channel": 0, "type": "channel", "subtype": "noteOff", "noteNumber": 40, "velocity": 0  },
      { "deltaTime": 1, "channel": 0, "type": "channel", "noteNumber": 45, "velocity": 64, "subtype": "noteOn"  },
      { "deltaTime": 239, "channel": 0, "type": "channel", "subtype": "noteOff", "noteNumber": 45, "velocity": 0  },
      { "deltaTime": 1, "channel": 0, "type": "channel", "noteNumber": 47, "velocity": 64, "subtype": "noteOn"  },
      { "deltaTime": 239, "channel": 0, "type": "channel", "subtype": "noteOff", "noteNumber": 47, "velocity": 0  },
      { "deltaTime": 1, "channel": 0, "type": "channel", "noteNumber": 52, "velocity": 64, "subtype": "noteOn"  },
      { "deltaTime": 239, "channel": 0, "type": "channel", "subtype": "noteOff", "noteNumber": 52, "velocity": 0  },
      { "deltaTime": 1, "channel": 0, "type": "channel", "noteNumber": 40, "velocity": 64, "subtype": "noteOn"  },
      { "deltaTime": 239, "channel": 0, "type": "channel", "subtype": "noteOff", "noteNumber": 40, "velocity": 0  },
      { "deltaTime": 1, "channel": 0, "type": "channel", "noteNumber": 52, "velocity": 64, "subtype": "noteOn"  },
      { "deltaTime": 239, "channel": 0, "type": "channel", "subtype": "noteOff", "noteNumber": 52, "velocity": 0  },
      { "deltaTime": 1, "channel": 0, "type": "channel", "noteNumber": 40, "velocity": 64, "subtype": "noteOn"  },
      { "deltaTime": 239, "channel": 0, "type": "channel", "subtype": "noteOff", "noteNumber": 40, "velocity": 0  },
      { "deltaTime": 1, "channel": 0, "type": "channel", "noteNumber": 40, "velocity": 64, "subtype": "noteOn"  },
      { "deltaTime": 239, "channel": 0, "type": "channel", "subtype": "noteOff", "noteNumber": 40, "velocity": 0  },
      { "deltaTime": 1, "channel": 0, "type": "channel", "noteNumber": 50, "velocity": 64, "subtype": "noteOn"  },
      { "deltaTime": 239, "channel": 0, "type": "channel", "subtype": "noteOff", "noteNumber": 50, "velocity": 0  },
      { "deltaTime": 241, "channel": 0, "type": "channel", "noteNumber": 40, "velocity": 64, "subtype": "noteOn"  },
      { "deltaTime": 239, "channel": 0, "type": "channel", "subtype": "noteOff", "noteNumber": 40, "velocity": 0  },
      { "deltaTime": 1, "channel": 0, "type": "channel", "noteNumber": 49, "velocity": 64, "subtype": "noteOn"  },
      { "deltaTime": 239, "channel": 0, "type": "channel", "subtype": "noteOff", "noteNumber": 49, "velocity": 0  },
      { "deltaTime": 1, "channel": 0, "type": "channel", "noteNumber": 40, "velocity": 64, "subtype": "noteOn"  },
      { "deltaTime": 239, "channel": 0, "type": "channel", "subtype": "noteOff", "noteNumber": 40, "velocity": 0  },
      { "deltaTime": 1, "channel": 0, "type": "channel", "noteNumber": 40, "velocity": 64, "subtype": "noteOn"  },
      { "deltaTime": 239, "channel": 0, "type": "channel", "subtype": "noteOff", "noteNumber": 40, "velocity": 0  },
      { "deltaTime": 1, "channel": 0, "type": "channel", "noteNumber": 47, "velocity": 64, "subtype": "noteOn"  },
      { "deltaTime": 239, "channel": 0, "type": "channel", "subtype": "noteOff", "noteNumber": 47, "velocity": 0  },
      { "deltaTime": 241, "channel": 0, "type": "channel", "noteNumber": 40, "velocity": 64, "subtype": "noteOn"  },
      { "deltaTime": 239, "channel": 0, "type": "channel", "subtype": "noteOff", "noteNumber": 40, "velocity": 0  },
      { "deltaTime": 1, "channel": 0, "type": "channel", "noteNumber": 52, "velocity": 64, "subtype": "noteOn"  },
      { "deltaTime": 239, "channel": 0, "type": "channel", "subtype": "noteOff", "noteNumber": 52, "velocity": 0  },
      { "deltaTime": 1, "channel": 0, "type": "channel", "noteNumber": 40, "velocity": 64, "subtype": "noteOn"  },
      { "deltaTime": 239, "channel": 0, "type": "channel", "subtype": "noteOff", "noteNumber": 40, "velocity": 0  },
      { "deltaTime": 1, "channel": 0, "type": "channel", "noteNumber": 40, "velocity": 64, "subtype": "noteOn"  },
      { "deltaTime": 239, "channel": 0, "type": "channel", "subtype": "noteOff", "noteNumber": 40, "velocity": 0  },
      { "deltaTime": 1, "channel": 0, "type": "channel", "noteNumber": 50, "velocity": 64, "subtype": "noteOn"  },
      { "deltaTime": 239, "channel": 0, "type": "channel", "subtype": "noteOff", "noteNumber": 50, "velocity": 0  },
      { "deltaTime": 241, "channel": 0, "type": "channel", "noteNumber": 40, "velocity": 64, "subtype": "noteOn"  },
      { "deltaTime": 239, "channel": 0, "type": "channel", "subtype": "noteOff", "noteNumber": 40, "velocity": 0  },
      { "deltaTime": 1, "channel": 0, "type": "channel", "noteNumber": 49, "velocity": 64, "subtype": "noteOn"  },
      { "deltaTime": 239, "channel": 0, "type": "channel", "subtype": "noteOff", "noteNumber": 49, "velocity": 0  },
      { "deltaTime": 1, "channel": 0, "type": "channel", "noteNumber": 40, "velocity": 64, "subtype": "noteOn"  },
      { "deltaTime": 239, "channel": 0, "type": "channel", "subtype": "noteOff", "noteNumber": 40, "velocity": 0  },
      { "deltaTime": 1, "channel": 0, "type": "channel", "noteNumber": 40, "velocity": 64, "subtype": "noteOn"  },
      { "deltaTime": 239, "channel": 0, "type": "channel", "subtype": "noteOff", "noteNumber": 40, "velocity": 0  },
      { "deltaTime": 1, "channel": 0, "type": "channel", "noteNumber": 47, "velocity": 64, "subtype": "noteOn"  },
      { "deltaTime": 239, "channel": 0, "type": "channel", "subtype": "noteOff", "noteNumber": 47, "velocity": 0  },
      { "deltaTime": 241, "channel": 0, "type": "channel", "noteNumber": 40, "velocity": 64, "subtype": "noteOn"  },
      { "deltaTime": 239, "channel": 0, "type": "channel", "subtype": "noteOff", "noteNumber": 40, "velocity": 0  },
      { "deltaTime": 1, "channel": 0, "type": "channel", "noteNumber": 45, "velocity": 64, "subtype": "noteOn"  },
      { "deltaTime": 239, "channel": 0, "type": "channel", "subtype": "noteOff", "noteNumber": 45, "velocity": 0  },
      { "deltaTime": 1, "channel": 0, "type": "channel", "noteNumber": 47, "velocity": 64, "subtype": "noteOn"  },
      { "deltaTime": 239, "channel": 0, "type": "channel", "subtype": "noteOff", "noteNumber": 47, "velocity": 0  },
      { "deltaTime": 1, "channel": 0, "type": "channel", "noteNumber": 52, "velocity": 64, "subtype": "noteOn"  },
      { "deltaTime": 239, "channel": 0, "type": "channel", "subtype": "noteOff", "noteNumber": 52, "velocity": 0  },
      { "deltaTime": 1, "channel": 0, "type": "channel", "noteNumber": 40, "velocity": 64, "subtype": "noteOn"  },
      { "deltaTime": 239, "channel": 0, "type": "channel", "subtype": "noteOff", "noteNumber": 40, "velocity": 0  },
      { "deltaTime": 1, "channel": 0, "type": "channel", "noteNumber": 52, "velocity": 64, "subtype": "noteOn"  },
      { "deltaTime": 239, "channel": 0, "type": "channel", "subtype": "noteOff", "noteNumber": 52, "velocity": 0  },
      { "deltaTime": 1, "channel": 0, "type": "channel", "noteNumber": 40, "velocity": 64, "subtype": "noteOn"  },
      { "deltaTime": 239, "channel": 0, "type": "channel", "subtype": "noteOff", "noteNumber": 40, "velocity": 0  },
      { "deltaTime": 1, "channel": 0, "type": "channel", "noteNumber": 40, "velocity": 64, "subtype": "noteOn"  },
      { "deltaTime": 239, "channel": 0, "type": "channel", "subtype": "noteOff", "noteNumber": 40, "velocity": 0  },
      { "deltaTime": 1, "channel": 0, "type": "channel", "noteNumber": 50, "velocity": 64, "subtype": "noteOn"  },
      { "deltaTime": 239, "channel": 0, "type": "channel", "subtype": "noteOff", "noteNumber": 50, "velocity": 0  },
      { "deltaTime": 241, "channel": 0, "type": "channel", "noteNumber": 40, "velocity": 64, "subtype": "noteOn"  },
      { "deltaTime": 239, "channel": 0, "type": "channel", "subtype": "noteOff", "noteNumber": 40, "velocity": 0  },
      { "deltaTime": 1, "channel": 0, "type": "channel", "noteNumber": 49, "velocity": 64, "subtype": "noteOn"  },
      { "deltaTime": 239, "channel": 0, "type": "channel", "subtype": "noteOff", "noteNumber": 49, "velocity": 0  },
      { "deltaTime": 1, "channel": 0, "type": "channel", "noteNumber": 40, "velocity": 64, "subtype": "noteOn"  },
      { "deltaTime": 239, "channel": 0, "type": "channel", "subtype": "noteOff", "noteNumber": 40, "velocity": 0  },
      { "deltaTime": 1, "channel": 0, "type": "channel", "noteNumber": 40, "velocity": 64, "subtype": "noteOn"  },
      { "deltaTime": 239, "channel": 0, "type": "channel", "subtype": "noteOff", "noteNumber": 40, "velocity": 0  },
      { "deltaTime": 1, "channel": 0, "type": "channel", "noteNumber": 47, "velocity": 64, "subtype": "noteOn"  },
      { "deltaTime": 239, "channel": 0, "type": "channel", "subtype": "noteOff", "noteNumber": 47, "velocity": 0  },
      { "deltaTime": 0, "type": "meta", "subtype": "endOfTrack" }
    ],
    [
      { "deltaTime": 0, "channel": 9, "type": "channel", "subtype": "programChange", "programNumber": 0  },
      { "deltaTime": 0, "channel": 9, "type": "channel", "subtype": "controller", "controllerType": 7, "value": 127  },
      { "deltaTime": 0, "channel": 9, "type": "channel", "subtype": "controller", "controllerType": 78, "value": 64  },
      { "deltaTime": 0, "type": "meta", "subtype": "trackName", "text": "MIDI Chn 10"  },
      { "deltaTime": 0, "type": "meta", "subtype": "unknown", "data": "\u0001"  },
      { "deltaTime": 3840, "channel": 9, "type": "channel", "subtype": "controller", "controllerType": 7, "value": 127  },
      { "deltaTime": 14400, "channel": 9, "type": "channel", "noteNumber": 56, "velocity": 64, "subtype": "noteOn"  },
      { "deltaTime": 239, "channel": 9, "type": "channel", "subtype": "noteOff", "noteNumber": 56, "velocity": 0  },
      { "deltaTime": 1681, "channel": 9, "type": "channel", "noteNumber": 56, "velocity": 64, "subtype": "noteOn"  },
      { "deltaTime": 239, "channel": 9, "type": "channel", "subtype": "noteOff", "noteNumber": 56, "velocity": 0  },
      { "deltaTime": 1681, "channel": 9, "type": "channel", "noteNumber": 56, "velocity": 64, "subtype": "noteOn"  },
      { "deltaTime": 239, "channel": 9, "type": "channel", "subtype": "noteOff", "noteNumber": 56, "velocity": 0  },
      { "deltaTime": 1681, "channel": 9, "type": "channel", "noteNumber": 56, "velocity": 64, "subtype": "noteOn"  },
      { "deltaTime": 239, "channel": 9, "type": "channel", "subtype": "noteOff", "noteNumber": 56, "velocity": 0  },
      { "deltaTime": 1681, "channel": 9, "type": "channel", "noteNumber": 56, "velocity": 64, "subtype": "noteOn"  },
      { "deltaTime": 239, "channel": 9, "type": "channel", "subtype": "noteOff", "noteNumber": 56, "velocity": 0  },
      { "deltaTime": 1681, "channel": 9, "type": "channel", "noteNumber": 56, "velocity": 64, "subtype": "noteOn"  },
      { "deltaTime": 239, "channel": 9, "type": "channel", "subtype": "noteOff", "noteNumber": 56, "velocity": 0  },
      { "deltaTime": 1441, "channel": 9, "type": "channel", "noteNumber": 77, "velocity": 64, "subtype": "noteOn"  },
      { "deltaTime": 239, "channel": 9, "type": "channel", "subtype": "noteOff", "noteNumber": 77, "velocity": 0  },
      { "deltaTime": 1, "channel": 9, "type": "channel", "noteNumber": 77, "velocity": 64, "subtype": "noteOn"  },
      { "deltaTime": 239, "channel": 9, "type": "channel", "subtype": "noteOff", "noteNumber": 77, "velocity": 0  },
      { "deltaTime": 1, "channel": 9, "type": "channel", "noteNumber": 77, "velocity": 64, "subtype": "noteOn"  },
      { "deltaTime": 239, "channel": 9, "type": "channel", "subtype": "noteOff", "noteNumber": 77, "velocity": 0  },
      { "deltaTime": 1, "channel": 9, "type": "channel", "noteNumber": 77, "velocity": 64, "subtype": "noteOn"  },
      { "deltaTime": 239, "channel": 9, "type": "channel", "subtype": "noteOff", "noteNumber": 77, "velocity": 0  },
      { "deltaTime": 241, "channel": 9, "type": "channel", "noteNumber": 35, "velocity": 64, "subtype": "noteOn"  },
      { "deltaTime": 0, "channel": 9, "type": "channel", "noteNumber": 49, "velocity": 64, "subtype": "noteOn"  },
      { "deltaTime": 239, "channel": 9, "type": "channel", "subtype": "noteOff", "noteNumber": 35, "velocity": 0  },
      { "deltaTime": 0, "channel": 9, "type": "channel", "subtype": "noteOff", "noteNumber": 49, "velocity": 0  },
      { "deltaTime": 241, "channel": 9, "type": "channel", "noteNumber": 35, "velocity": 64, "subtype": "noteOn"  },
      { "deltaTime": 0, "channel": 9, "type": "channel", "noteNumber": 42, "velocity": 64, "subtype": "noteOn"  },
      { "deltaTime": 479, "channel": 9, "type": "channel", "subtype": "noteOff", "noteNumber": 35, "velocity": 0  },
      { "deltaTime": 0, "channel": 9, "type": "channel", "subtype": "noteOff", "noteNumber": 42, "velocity": 0  },
      { "deltaTime": 1, "channel": 9, "type": "channel", "noteNumber": 40, "velocity": 64, "subtype": "noteOn"  },
      { "deltaTime": 0, "channel": 9, "type": "channel", "noteNumber": 42, "velocity": 64, "subtype": "noteOn"  },
      { "deltaTime": 479, "channel": 9, "type": "channel", "subtype": "noteOff", "noteNumber": 40, "velocity": 0  },
      { "deltaTime": 0, "channel": 9, "type": "channel", "subtype": "noteOff", "noteNumber": 42, "velocity": 0  },
      { "deltaTime": 1, "channel": 9, "type": "channel", "noteNumber": 42, "velocity": 64, "subtype": "noteOn"  },
      { "deltaTime": 240, "channel": 9, "type": "channel", "noteNumber": 35, "velocity": 64, "subtype": "noteOn"  },
      { "deltaTime": 239, "channel": 9, "type": "channel", "subtype": "noteOff", "noteNumber": 42, "velocity": 0  },
      { "deltaTime": 1, "channel": 9, "type": "channel", "noteNumber": 35, "velocity": 64, "subtype": "noteOn"  },
      { "deltaTime": 0, "channel": 9, "type": "channel", "noteNumber": 42, "velocity": 64, "subtype": "noteOn"  },
      { "deltaTime": 239, "channel": 9, "type": "channel", "subtype": "noteOff", "noteNumber": 35, "velocity": 0  },
      { "deltaTime": 0, "channel": 9, "type": "channel", "subtype": "noteOff", "noteNumber": 35, "velocity": 0  },
      { "deltaTime": 240, "channel": 9, "type": "channel", "subtype": "noteOff", "noteNumber": 42, "velocity": 0  },
      { "deltaTime": 1, "channel": 9, "type": "channel", "noteNumber": 35, "velocity": 64, "subtype": "noteOn"  },
      { "deltaTime": 0, "channel": 9, "type": "channel", "noteNumber": 42, "velocity": 64, "subtype": "noteOn"  },
      { "deltaTime": 479, "channel": 9, "type": "channel", "subtype": "noteOff", "noteNumber": 35, "velocity": 0  },
      { "deltaTime": 0, "channel": 9, "type": "channel", "subtype": "noteOff", "noteNumber": 42, "velocity": 0  },
      { "deltaTime": 1, "channel": 9, "type": "channel", "noteNumber": 40, "velocity": 64, "subtype": "noteOn"  },
      { "deltaTime": 0, "channel": 9, "type": "channel", "noteNumber": 42, "velocity": 64, "subtype": "noteOn"  },
      { "deltaTime": 240, "channel": 9, "type": "channel", "noteNumber": 35, "velocity": 64, "subtype": "noteOn"  },
      { "deltaTime": 239, "channel": 9, "type": "channel", "subtype": "noteOff", "noteNumber": 35, "velocity": 0  },
      { "deltaTime": 0, "channel": 9, "type": "channel", "subtype": "noteOff", "noteNumber": 40, "velocity": 0  },
      { "deltaTime": 0, "channel": 9, "type": "channel", "subtype": "noteOff", "noteNumber": 42, "velocity": 0  },
      { "deltaTime": 1, "channel": 9, "type": "channel", "noteNumber": 42, "velocity": 64, "subtype": "noteOn"  },
      { "deltaTime": 479, "channel": 9, "type": "channel", "subtype": "noteOff", "noteNumber": 42, "velocity": 0  },
      { "deltaTime": 1, "channel": 9, "type": "channel", "noteNumber": 35, "velocity": 64, "subtype": "noteOn"  },
      { "deltaTime": 0, "channel": 9, "type": "channel", "noteNumber": 42, "velocity": 64, "subtype": "noteOn"  },
      { "deltaTime": 239, "channel": 9, "type": "channel", "subtype": "noteOff", "noteNumber": 35, "velocity": 0  },
      { "deltaTime": 240, "channel": 9, "type": "channel", "subtype": "noteOff", "noteNumber": 42, "velocity": 0  },
      { "deltaTime": 1, "channel": 9, "type": "channel", "noteNumber": 35, "velocity": 64, "subtype": "noteOn"  },
      { "deltaTime": 0, "channel": 9, "type": "channel", "noteNumber": 42, "velocity": 64, "subtype": "noteOn"  },
      { "deltaTime": 239, "channel": 9, "type": "channel", "subtype": "noteOff", "noteNumber": 35, "velocity": 0  },
      { "deltaTime": 1, "channel": 9, "type": "channel", "noteNumber": 35, "velocity": 64, "subtype": "noteOn"  },
      { "deltaTime": 239, "channel": 9, "type": "channel", "subtype": "noteOff", "noteNumber": 35, "velocity": 0  },
      { "deltaTime": 0, "channel": 9, "type": "channel", "subtype": "noteOff", "noteNumber": 42, "velocity": 0  },
      { "deltaTime": 1, "channel": 9, "type": "channel", "noteNumber": 40, "velocity": 64, "subtype": "noteOn"  },
      { "deltaTime": 0, "channel": 9, "type": "channel", "noteNumber": 42, "velocity": 64, "subtype": "noteOn"  },
      { "deltaTime": 239, "channel": 9, "type": "channel", "subtype": "noteOff", "noteNumber": 40, "velocity": 0  },
      { "deltaTime": 1, "channel": 9, "type": "channel", "noteNumber": 40, "velocity": 64, "subtype": "noteOn"  },
      { "deltaTime": 239, "channel": 9, "type": "channel", "subtype": "noteOff", "noteNumber": 40, "velocity": 0  },
      { "deltaTime": 0, "channel": 9, "type": "channel", "subtype": "noteOff", "noteNumber": 42, "velocity": 0  },
      { "deltaTime": 1, "channel": 9, "type": "channel", "noteNumber": 35, "velocity": 64, "subtype": "noteOn"  },
      { "deltaTime": 0, "channel": 9, "type": "channel", "noteNumber": 42, "velocity": 64, "subtype": "noteOn"  },
      { "deltaTime": 239, "channel": 9, "type": "channel", "subtype": "noteOff", "noteNumber": 35, "velocity": 0  },
      { "deltaTime": 240, "channel": 9, "type": "channel", "subtype": "noteOff", "noteNumber": 42, "velocity": 0  },
      { "deltaTime": 1, "channel": 9, "type": "channel", "noteNumber": 35, "velocity": 64, "subtype": "noteOn"  },
      { "deltaTime": 0, "channel": 9, "type": "channel", "noteNumber": 42, "velocity": 64, "subtype": "noteOn"  },
      { "deltaTime": 239, "channel": 9, "type": "channel", "subtype": "noteOff", "noteNumber": 35, "velocity": 0  },
      { "deltaTime": 1, "channel": 9, "type": "channel", "noteNumber": 35, "velocity": 64, "subtype": "noteOn"  },
      { "deltaTime": 239, "channel": 9, "type": "channel", "subtype": "noteOff", "noteNumber": 35, "velocity": 0  },
      { "deltaTime": 0, "channel": 9, "type": "channel", "subtype": "noteOff", "noteNumber": 42, "velocity": 0  },
      { "deltaTime": 1, "channel": 9, "type": "channel", "noteNumber": 42, "velocity": 64, "subtype": "noteOn"  },
      { "deltaTime": 240, "channel": 9, "type": "channel", "noteNumber": 40, "velocity": 64, "subtype": "noteOn"  },
      { "deltaTime": 239, "channel": 9, "type": "channel", "subtype": "noteOff", "noteNumber": 40, "velocity": 0  },
      { "deltaTime": 0, "channel": 9, "type": "channel", "subtype": "noteOff", "noteNumber": 42, "velocity": 0  },
      { "deltaTime": 1, "channel": 9, "type": "channel", "noteNumber": 35, "velocity": 64, "subtype": "noteOn"  },
      { "deltaTime": 0, "channel": 9, "type": "channel", "noteNumber": 42, "velocity": 64, "subtype": "noteOn"  },
      { "deltaTime": 239, "channel": 9, "type": "channel", "subtype": "noteOff", "noteNumber": 35, "velocity": 0  },
      { "deltaTime": 240, "channel": 9, "type": "channel", "subtype": "noteOff", "noteNumber": 42, "velocity": 0  },
      { "deltaTime": 1, "channel": 9, "type": "channel", "noteNumber": 35, "velocity": 64, "subtype": "noteOn"  },
      { "deltaTime": 0, "channel": 9, "type": "channel", "noteNumber": 42, "velocity": 64, "subtype": "noteOn"  },
      { "deltaTime": 479, "channel": 9, "type": "channel", "subtype": "noteOff", "noteNumber": 35, "velocity": 0  },
      { "deltaTime": 0, "channel": 9, "type": "channel", "subtype": "noteOff", "noteNumber": 42, "velocity": 0  },
      { "deltaTime": 1, "channel": 9, "type": "channel", "noteNumber": 40, "velocity": 64, "subtype": "noteOn"  },
      { "deltaTime": 0, "channel": 9, "type": "channel", "noteNumber": 42, "velocity": 64, "subtype": "noteOn"  },
      { "deltaTime": 479, "channel": 9, "type": "channel", "subtype": "noteOff", "noteNumber": 40, "velocity": 0  },
      { "deltaTime": 0, "channel": 9, "type": "channel", "subtype": "noteOff", "noteNumber": 42, "velocity": 0  },
      { "deltaTime": 1, "channel": 9, "type": "channel", "noteNumber": 42, "velocity": 64, "subtype": "noteOn"  },
      { "deltaTime": 240, "channel": 9, "type": "channel", "noteNumber": 35, "velocity": 64, "subtype": "noteOn"  },
      { "deltaTime": 239, "channel": 9, "type": "channel", "subtype": "noteOff", "noteNumber": 42, "velocity": 0  },
      { "deltaTime": 1, "channel": 9, "type": "channel", "noteNumber": 35, "velocity": 64, "subtype": "noteOn"  },
      { "deltaTime": 0, "channel": 9, "type": "channel", "noteNumber": 42, "velocity": 64, "subtype": "noteOn"  },
      { "deltaTime": 239, "channel": 9, "type": "channel", "subtype": "noteOff", "noteNumber": 35, "velocity": 0  },
      { "deltaTime": 0, "channel": 9, "type": "channel", "subtype": "noteOff", "noteNumber": 35, "velocity": 0  },
      { "deltaTime": 240, "channel": 9, "type": "channel", "subtype": "noteOff", "noteNumber": 42, "velocity": 0  },
      { "deltaTime": 1, "channel": 9, "type": "channel", "noteNumber": 35, "velocity": 64, "subtype": "noteOn"  },
      { "deltaTime": 0, "channel": 9, "type": "channel", "noteNumber": 42, "velocity": 64, "subtype": "noteOn"  },
      { "deltaTime": 479, "channel": 9, "type": "channel", "subtype": "noteOff", "noteNumber": 35, "velocity": 0  },
      { "deltaTime": 0, "channel": 9, "type": "channel", "subtype": "noteOff", "noteNumber": 42, "velocity": 0  },
      { "deltaTime": 1, "channel": 9, "type": "channel", "noteNumber": 40, "velocity": 64, "subtype": "noteOn"  },
      { "deltaTime": 0, "channel": 9, "type": "channel", "noteNumber": 42, "velocity": 64, "subtype": "noteOn"  },
      { "deltaTime": 240, "channel": 9, "type": "channel", "noteNumber": 35, "velocity": 64, "subtype": "noteOn"  },
      { "deltaTime": 239, "channel": 9, "type": "channel", "subtype": "noteOff", "noteNumber": 35, "velocity": 0  },
      { "deltaTime": 0, "channel": 9, "type": "channel", "subtype": "noteOff", "noteNumber": 40, "velocity": 0  },
      { "deltaTime": 0, "channel": 9, "type": "channel", "subtype": "noteOff", "noteNumber": 42, "velocity": 0  },
      { "deltaTime": 1, "channel": 9, "type": "channel", "noteNumber": 42, "velocity": 64, "subtype": "noteOn"  },
      { "deltaTime": 479, "channel": 9, "type": "channel", "subtype": "noteOff", "noteNumber": 42, "velocity": 0  },
      { "deltaTime": 1, "channel": 9, "type": "channel", "noteNumber": 35, "velocity": 64, "subtype": "noteOn"  },
      { "deltaTime": 0, "channel": 9, "type": "channel", "noteNumber": 42, "velocity": 64, "subtype": "noteOn"  },
      { "deltaTime": 239, "channel": 9, "type": "channel", "subtype": "noteOff", "noteNumber": 35, "velocity": 0  },
      { "deltaTime": 240, "channel": 9, "type": "channel", "subtype": "noteOff", "noteNumber": 42, "velocity": 0  },
      { "deltaTime": 1, "channel": 9, "type": "channel", "noteNumber": 35, "velocity": 64, "subtype": "noteOn"  },
      { "deltaTime": 0, "channel": 9, "type": "channel", "noteNumber": 42, "velocity": 64, "subtype": "noteOn"  },
      { "deltaTime": 239, "channel": 9, "type": "channel", "subtype": "noteOff", "noteNumber": 35, "velocity": 0  },
      { "deltaTime": 1, "channel": 9, "type": "channel", "noteNumber": 35, "velocity": 64, "subtype": "noteOn"  },
      { "deltaTime": 239, "channel": 9, "type": "channel", "subtype": "noteOff", "noteNumber": 35, "velocity": 0  },
      { "deltaTime": 0, "channel": 9, "type": "channel", "subtype": "noteOff", "noteNumber": 42, "velocity": 0  },
      { "deltaTime": 1, "channel": 9, "type": "channel", "noteNumber": 40, "velocity": 64, "subtype": "noteOn"  },
      { "deltaTime": 0, "channel": 9, "type": "channel", "noteNumber": 42, "velocity": 64, "subtype": "noteOn"  },
      { "deltaTime": 239, "channel": 9, "type": "channel", "subtype": "noteOff", "noteNumber": 40, "velocity": 0  },
      { "deltaTime": 1, "channel": 9, "type": "channel", "noteNumber": 40, "velocity": 64, "subtype": "noteOn"  },
      { "deltaTime": 239, "channel": 9, "type": "channel", "subtype": "noteOff", "noteNumber": 40, "velocity": 0  },
      { "deltaTime": 0, "channel": 9, "type": "channel", "subtype": "noteOff", "noteNumber": 42, "velocity": 0  },
      { "deltaTime": 1, "channel": 9, "type": "channel", "noteNumber": 35, "velocity": 64, "subtype": "noteOn"  },
      { "deltaTime": 0, "channel": 9, "type": "channel", "noteNumber": 42, "velocity": 64, "subtype": "noteOn"  },
      { "deltaTime": 239, "channel": 9, "type": "channel", "subtype": "noteOff", "noteNumber": 35, "velocity": 0  },
      { "deltaTime": 240, "channel": 9, "type": "channel", "subtype": "noteOff", "noteNumber": 42, "velocity": 0  },
      { "deltaTime": 1, "channel": 9, "type": "channel", "noteNumber": 35, "velocity": 64, "subtype": "noteOn"  },
      { "deltaTime": 0, "channel": 9, "type": "channel", "noteNumber": 42, "velocity": 64, "subtype": "noteOn"  },
      { "deltaTime": 239, "channel": 9, "type": "channel", "subtype": "noteOff", "noteNumber": 35, "velocity": 0  },
      { "deltaTime": 1, "channel": 9, "type": "channel", "noteNumber": 35, "velocity": 64, "subtype": "noteOn"  },
      { "deltaTime": 239, "channel": 9, "type": "channel", "subtype": "noteOff", "noteNumber": 35, "velocity": 0  },
      { "deltaTime": 0, "channel": 9, "type": "channel", "subtype": "noteOff", "noteNumber": 42, "velocity": 0  },
      { "deltaTime": 1, "channel": 9, "type": "channel", "noteNumber": 42, "velocity": 64, "subtype": "noteOn"  },
      { "deltaTime": 240, "channel": 9, "type": "channel", "noteNumber": 40, "velocity": 64, "subtype": "noteOn"  },
      { "deltaTime": 239, "channel": 9, "type": "channel", "subtype": "noteOff", "noteNumber": 40, "velocity": 0  },
      { "deltaTime": 0, "channel": 9, "type": "channel", "subtype": "noteOff", "noteNumber": 42, "velocity": 0  },
      { "deltaTime": 1, "channel": 9, "type": "channel", "noteNumber": 35, "velocity": 64, "subtype": "noteOn"  },
      { "deltaTime": 0, "channel": 9, "type": "channel", "noteNumber": 42, "velocity": 64, "subtype": "noteOn"  },
      { "deltaTime": 0, "channel": 9, "type": "channel", "noteNumber": 77, "velocity": 64, "subtype": "noteOn"  },
      { "deltaTime": 239, "channel": 9, "type": "channel", "subtype": "noteOff", "noteNumber": 35, "velocity": 0  },
      { "deltaTime": 0, "channel": 9, "type": "channel", "subtype": "noteOff", "noteNumber": 42, "velocity": 0  },
      { "deltaTime": 0, "channel": 9, "type": "channel", "subtype": "noteOff", "noteNumber": 77, "velocity": 0  },
      { "deltaTime": 1, "channel": 9, "type": "channel", "noteNumber": 77, "velocity": 64, "subtype": "noteOn"  },
      { "deltaTime": 239, "channel": 9, "type": "channel", "subtype": "noteOff", "noteNumber": 77, "velocity": 0  },
      { "deltaTime": 1, "channel": 9, "type": "channel", "noteNumber": 35, "velocity": 64, "subtype": "noteOn"  },
      { "deltaTime": 0, "channel": 9, "type": "channel", "noteNumber": 42, "velocity": 64, "subtype": "noteOn"  },
      { "deltaTime": 0, "channel": 9, "type": "channel", "noteNumber": 77, "velocity": 64, "subtype": "noteOn"  },
      { "deltaTime": 239, "channel": 9, "type": "channel", "subtype": "noteOff", "noteNumber": 77, "velocity": 0  },
      { "deltaTime": 1, "channel": 9, "type": "channel", "noteNumber": 77, "velocity": 64, "subtype": "noteOn"  },
      { "deltaTime": 239, "channel": 9, "type": "channel", "subtype": "noteOff", "noteNumber": 35, "velocity": 0  },
      { "deltaTime": 0, "channel": 9, "type": "channel", "subtype": "noteOff", "noteNumber": 42, "velocity": 0  },
      { "deltaTime": 0, "channel": 9, "type": "channel", "subtype": "noteOff", "noteNumber": 77, "velocity": 0  },
      { "deltaTime": 1, "channel": 9, "type": "channel", "noteNumber": 40, "velocity": 64, "subtype": "noteOn"  },
      { "deltaTime": 0, "channel": 9, "type": "channel", "noteNumber": 42, "velocity": 64, "subtype": "noteOn"  },
      { "deltaTime": 479, "channel": 9, "type": "channel", "subtype": "noteOff", "noteNumber": 40, "velocity": 0  },
      { "deltaTime": 0, "channel": 9, "type": "channel", "subtype": "noteOff", "noteNumber": 42, "velocity": 0  },
      { "deltaTime": 1, "channel": 9, "type": "channel", "noteNumber": 42, "velocity": 64, "subtype": "noteOn"  },
      { "deltaTime": 0, "channel": 9, "type": "channel", "noteNumber": 55, "velocity": 64, "subtype": "noteOn"  },
      { "deltaTime": 239, "channel": 9, "type": "channel", "subtype": "noteOff", "noteNumber": 55, "velocity": 0  },
      { "deltaTime": 1, "channel": 9, "type": "channel", "noteNumber": 35, "velocity": 64, "subtype": "noteOn"  },
      { "deltaTime": 0, "channel": 9, "type": "channel", "noteNumber": 55, "velocity": 64, "subtype": "noteOn"  },
      { "deltaTime": 239, "channel": 9, "type": "channel", "subtype": "noteOff", "noteNumber": 42, "velocity": 0  },
      { "deltaTime": 0, "channel": 9, "type": "channel", "subtype": "noteOff", "noteNumber": 55, "velocity": 0  },
      { "deltaTime": 1, "channel": 9, "type": "channel", "noteNumber": 35, "velocity": 64, "subtype": "noteOn"  },
      { "deltaTime": 0, "channel": 9, "type": "channel", "noteNumber": 42, "velocity": 64, "subtype": "noteOn"  },
      { "deltaTime": 239, "channel": 9, "type": "channel", "subtype": "noteOff", "noteNumber": 35, "velocity": 0  },
      { "deltaTime": 0, "channel": 9, "type": "channel", "subtype": "noteOff", "noteNumber": 35, "velocity": 0  },
      { "deltaTime": 240, "channel": 9, "type": "channel", "subtype": "noteOff", "noteNumber": 42, "velocity": 0  },
      { "deltaTime": 1, "channel": 9, "type": "channel", "noteNumber": 35, "velocity": 64, "subtype": "noteOn"  },
      { "deltaTime": 0, "channel": 9, "type": "channel", "noteNumber": 42, "velocity": 64, "subtype": "noteOn"  },
      { "deltaTime": 479, "channel": 9, "type": "channel", "subtype": "noteOff", "noteNumber": 35, "velocity": 0  },
      { "deltaTime": 0, "channel": 9, "type": "channel", "subtype": "noteOff", "noteNumber": 42, "velocity": 0  },
      { "deltaTime": 1, "channel": 9, "type": "channel", "noteNumber": 40, "velocity": 64, "subtype": "noteOn"  },
      { "deltaTime": 0, "channel": 9, "type": "channel", "noteNumber": 42, "velocity": 64, "subtype": "noteOn"  },
      { "deltaTime": 0, "channel": 9, "type": "channel", "noteNumber": 45, "velocity": 64, "subtype": "noteOn"  },
      { "deltaTime": 0, "channel": 9, "type": "channel", "noteNumber": 47, "velocity": 64, "subtype": "noteOn"  },
      { "deltaTime": 239, "channel": 9, "type": "channel", "subtype": "noteOff", "noteNumber": 45, "velocity": 0  },
      { "deltaTime": 0, "channel": 9, "type": "channel", "subtype": "noteOff", "noteNumber": 47, "velocity": 0  },
      { "deltaTime": 1, "channel": 9, "type": "channel", "noteNumber": 35, "velocity": 64, "subtype": "noteOn"  },
      { "deltaTime": 239, "channel": 9, "type": "channel", "subtype": "noteOff", "noteNumber": 35, "velocity": 0  },
      { "deltaTime": 0, "channel": 9, "type": "channel", "subtype": "noteOff", "noteNumber": 40, "velocity": 0  },
      { "deltaTime": 0, "channel": 9, "type": "channel", "subtype": "noteOff", "noteNumber": 42, "velocity": 0  },
      { "deltaTime": 1, "channel": 9, "type": "channel", "noteNumber": 42, "velocity": 64, "subtype": "noteOn"  },
      { "deltaTime": 479, "channel": 9, "type": "channel", "subtype": "noteOff", "noteNumber": 42, "velocity": 0  },
      { "deltaTime": 1, "channel": 9, "type": "channel", "noteNumber": 35, "velocity": 64, "subtype": "noteOn"  },
      { "deltaTime": 0, "channel": 9, "type": "channel", "noteNumber": 42, "velocity": 64, "subtype": "noteOn"  },
      { "deltaTime": 239, "channel": 9, "type": "channel", "subtype": "noteOff", "noteNumber": 35, "velocity": 0  },
      { "deltaTime": 240, "channel": 9, "type": "channel", "subtype": "noteOff", "noteNumber": 42, "velocity": 0  },
      { "deltaTime": 1, "channel": 9, "type": "channel", "noteNumber": 35, "velocity": 64, "subtype": "noteOn"  },
      { "deltaTime": 0, "channel": 9, "type": "channel", "noteNumber": 42, "velocity": 64, "subtype": "noteOn"  },
      { "deltaTime": 239, "channel": 9, "type": "channel", "subtype": "noteOff", "noteNumber": 35, "velocity": 0  },
      { "deltaTime": 1, "channel": 9, "type": "channel", "noteNumber": 35, "velocity": 64, "subtype": "noteOn"  },
      { "deltaTime": 239, "channel": 9, "type": "channel", "subtype": "noteOff", "noteNumber": 35, "velocity": 0  },
      { "deltaTime": 0, "channel": 9, "type": "channel", "subtype": "noteOff", "noteNumber": 42, "velocity": 0  },
      { "deltaTime": 1, "channel": 9, "type": "channel", "noteNumber": 40, "velocity": 64, "subtype": "noteOn"  },
      { "deltaTime": 0, "channel": 9, "type": "channel", "noteNumber": 42, "velocity": 64, "subtype": "noteOn"  },
      { "deltaTime": 239, "channel": 9, "type": "channel", "subtype": "noteOff", "noteNumber": 40, "velocity": 0  },
      { "deltaTime": 1, "channel": 9, "type": "channel", "noteNumber": 40, "velocity": 64, "subtype": "noteOn"  },
      { "deltaTime": 239, "channel": 9, "type": "channel", "subtype": "noteOff", "noteNumber": 40, "velocity": 0  },
      { "deltaTime": 0, "channel": 9, "type": "channel", "subtype": "noteOff", "noteNumber": 42, "velocity": 0  },
      { "deltaTime": 1, "channel": 9, "type": "channel", "noteNumber": 35, "velocity": 64, "subtype": "noteOn"  },
      { "deltaTime": 0, "channel": 9, "type": "channel", "noteNumber": 42, "velocity": 64, "subtype": "noteOn"  },
      { "deltaTime": 0, "channel": 9, "type": "channel", "noteNumber": 77, "velocity": 64, "subtype": "noteOn"  },
      { "deltaTime": 239, "channel": 9, "type": "channel", "subtype": "noteOff", "noteNumber": 35, "velocity": 0  },
      { "deltaTime": 0, "channel": 9, "type": "channel", "subtype": "noteOff", "noteNumber": 77, "velocity": 0  },
      { "deltaTime": 240, "channel": 9, "type": "channel", "subtype": "noteOff", "noteNumber": 42, "velocity": 0  },
      { "deltaTime": 1, "channel": 9, "type": "channel", "noteNumber": 35, "velocity": 64, "subtype": "noteOn"  },
      { "deltaTime": 0, "channel": 9, "type": "channel", "noteNumber": 42, "velocity": 64, "subtype": "noteOn"  },
      { "deltaTime": 239, "channel": 9, "type": "channel", "subtype": "noteOff", "noteNumber": 35, "velocity": 0  },
      { "deltaTime": 1, "channel": 9, "type": "channel", "noteNumber": 35, "velocity": 64, "subtype": "noteOn"  },
      { "deltaTime": 0, "channel": 9, "type": "channel", "noteNumber": 77, "velocity": 64, "subtype": "noteOn"  },
      { "deltaTime": 239, "channel": 9, "type": "channel", "subtype": "noteOff", "noteNumber": 35, "velocity": 0  },
      { "deltaTime": 0, "channel": 9, "type": "channel", "subtype": "noteOff", "noteNumber": 42, "velocity": 0  },
      { "deltaTime": 0, "channel": 9, "type": "channel", "subtype": "noteOff", "noteNumber": 77, "velocity": 0  },
      { "deltaTime": 1, "channel": 9, "type": "channel", "noteNumber": 42, "velocity": 64, "subtype": "noteOn"  },
      { "deltaTime": 240, "channel": 9, "type": "channel", "noteNumber": 40, "velocity": 64, "subtype": "noteOn"  },
      { "deltaTime": 239, "channel": 9, "type": "channel", "subtype": "noteOff", "noteNumber": 40, "velocity": 0  },
      { "deltaTime": 0, "channel": 9, "type": "channel", "subtype": "noteOff", "noteNumber": 42, "velocity": 0  },
      { "deltaTime": 1, "channel": 9, "type": "channel", "noteNumber": 35, "velocity": 64, "subtype": "noteOn"  },
      { "deltaTime": 0, "channel": 9, "type": "channel", "noteNumber": 42, "velocity": 64, "subtype": "noteOn"  },
      { "deltaTime": 0, "channel": 9, "type": "channel", "noteNumber": 77, "velocity": 64, "subtype": "noteOn"  },
      { "deltaTime": 239, "channel": 9, "type": "channel", "subtype": "noteOff", "noteNumber": 35, "velocity": 0  },
      { "deltaTime": 0, "channel": 9, "type": "channel", "subtype": "noteOff", "noteNumber": 77, "velocity": 0  },
      { "deltaTime": 1, "channel": 9, "type": "channel", "noteNumber": 77, "velocity": 64, "subtype": "noteOn"  },
      { "deltaTime": 239, "channel": 9, "type": "channel", "subtype": "noteOff", "noteNumber": 42, "velocity": 0  },
      { "deltaTime": 0, "channel": 9, "type": "channel", "subtype": "noteOff", "noteNumber": 77, "velocity": 0  },
      { "deltaTime": 1, "channel": 9, "type": "channel", "noteNumber": 35, "velocity": 64, "subtype": "noteOn"  },
      { "deltaTime": 0, "channel": 9, "type": "channel", "noteNumber": 42, "velocity": 64, "subtype": "noteOn"  },
      { "deltaTime": 0, "channel": 9, "type": "channel", "noteNumber": 77, "velocity": 64, "subtype": "noteOn"  },
      { "deltaTime": 239, "channel": 9, "type": "channel", "subtype": "noteOff", "noteNumber": 77, "velocity": 0  },
      { "deltaTime": 1, "channel": 9, "type": "channel", "noteNumber": 77, "velocity": 64, "subtype": "noteOn"  },
      { "deltaTime": 239, "channel": 9, "type": "channel", "subtype": "noteOff", "noteNumber": 35, "velocity": 0  },
      { "deltaTime": 0, "channel": 9, "type": "channel", "subtype": "noteOff", "noteNumber": 42, "velocity": 0  },
      { "deltaTime": 0, "channel": 9, "type": "channel", "subtype": "noteOff", "noteNumber": 77, "velocity": 0  },
      { "deltaTime": 1, "channel": 9, "type": "channel", "noteNumber": 40, "velocity": 64, "subtype": "noteOn"  },
      { "deltaTime": 0, "channel": 9, "type": "channel", "noteNumber": 42, "velocity": 64, "subtype": "noteOn"  },
      { "deltaTime": 479, "channel": 9, "type": "channel", "subtype": "noteOff", "noteNumber": 40, "velocity": 0  },
      { "deltaTime": 0, "channel": 9, "type": "channel", "subtype": "noteOff", "noteNumber": 42, "velocity": 0  },
      { "deltaTime": 1, "channel": 9, "type": "channel", "noteNumber": 42, "velocity": 64, "subtype": "noteOn"  },
      { "deltaTime": 0, "channel": 9, "type": "channel", "noteNumber": 55, "velocity": 64, "subtype": "noteOn"  },
      { "deltaTime": 239, "channel": 9, "type": "channel", "subtype": "noteOff", "noteNumber": 55, "velocity": 0  },
      { "deltaTime": 1, "channel": 9, "type": "channel", "noteNumber": 35, "velocity": 64, "subtype": "noteOn"  },
      { "deltaTime": 0, "channel": 9, "type": "channel", "noteNumber": 55, "velocity": 64, "subtype": "noteOn"  },
      { "deltaTime": 239, "channel": 9, "type": "channel", "subtype": "noteOff", "noteNumber": 42, "velocity": 0  },
      { "deltaTime": 0, "channel": 9, "type": "channel", "subtype": "noteOff", "noteNumber": 55, "velocity": 0  },
      { "deltaTime": 1, "channel": 9, "type": "channel", "noteNumber": 35, "velocity": 64, "subtype": "noteOn"  },
      { "deltaTime": 0, "channel": 9, "type": "channel", "noteNumber": 42, "velocity": 64, "subtype": "noteOn"  },
      { "deltaTime": 239, "channel": 9, "type": "channel", "subtype": "noteOff", "noteNumber": 35, "velocity": 0  },
      { "deltaTime": 0, "channel": 9, "type": "channel", "subtype": "noteOff", "noteNumber": 35, "velocity": 0  },
      { "deltaTime": 240, "channel": 9, "type": "channel", "subtype": "noteOff", "noteNumber": 42, "velocity": 0  },
      { "deltaTime": 1, "channel": 9, "type": "channel", "noteNumber": 35, "velocity": 64, "subtype": "noteOn"  },
      { "deltaTime": 0, "channel": 9, "type": "channel", "noteNumber": 42, "velocity": 64, "subtype": "noteOn"  },
      { "deltaTime": 479, "channel": 9, "type": "channel", "subtype": "noteOff", "noteNumber": 35, "velocity": 0  },
      { "deltaTime": 0, "channel": 9, "type": "channel", "subtype": "noteOff", "noteNumber": 42, "velocity": 0  },
      { "deltaTime": 1, "channel": 9, "type": "channel", "noteNumber": 40, "velocity": 64, "subtype": "noteOn"  },
      { "deltaTime": 0, "channel": 9, "type": "channel", "noteNumber": 42, "velocity": 64, "subtype": "noteOn"  },
      { "deltaTime": 0, "channel": 9, "type": "channel", "noteNumber": 45, "velocity": 64, "subtype": "noteOn"  },
      { "deltaTime": 0, "channel": 9, "type": "channel", "noteNumber": 47, "velocity": 64, "subtype": "noteOn"  },
      { "deltaTime": 239, "channel": 9, "type": "channel", "subtype": "noteOff", "noteNumber": 45, "velocity": 0  },
      { "deltaTime": 0, "channel": 9, "type": "channel", "subtype": "noteOff", "noteNumber": 47, "velocity": 0  },
      { "deltaTime": 1, "channel": 9, "type": "channel", "noteNumber": 35, "velocity": 64, "subtype": "noteOn"  },
      { "deltaTime": 239, "channel": 9, "type": "channel", "subtype": "noteOff", "noteNumber": 35, "velocity": 0  },
      { "deltaTime": 0, "channel": 9, "type": "channel", "subtype": "noteOff", "noteNumber": 40, "velocity": 0  },
      { "deltaTime": 0, "channel": 9, "type": "channel", "subtype": "noteOff", "noteNumber": 42, "velocity": 0  },
      { "deltaTime": 1, "channel": 9, "type": "channel", "noteNumber": 42, "velocity": 64, "subtype": "noteOn"  },
      { "deltaTime": 479, "channel": 9, "type": "channel", "subtype": "noteOff", "noteNumber": 42, "velocity": 0  },
      { "deltaTime": 1, "channel": 9, "type": "channel", "noteNumber": 35, "velocity": 64, "subtype": "noteOn"  },
      { "deltaTime": 0, "channel": 9, "type": "channel", "noteNumber": 42, "velocity": 64, "subtype": "noteOn"  },
      { "deltaTime": 239, "channel": 9, "type": "channel", "subtype": "noteOff", "noteNumber": 35, "velocity": 0  },
      { "deltaTime": 240, "channel": 9, "type": "channel", "subtype": "noteOff", "noteNumber": 42, "velocity": 0  },
      { "deltaTime": 1, "channel": 9, "type": "channel", "noteNumber": 35, "velocity": 64, "subtype": "noteOn"  },
      { "deltaTime": 0, "channel": 9, "type": "channel", "noteNumber": 42, "velocity": 64, "subtype": "noteOn"  },
      { "deltaTime": 239, "channel": 9, "type": "channel", "subtype": "noteOff", "noteNumber": 35, "velocity": 0  },
      { "deltaTime": 1, "channel": 9, "type": "channel", "noteNumber": 35, "velocity": 64, "subtype": "noteOn"  },
      { "deltaTime": 239, "channel": 9, "type": "channel", "subtype": "noteOff", "noteNumber": 35, "velocity": 0  },
      { "deltaTime": 0, "channel": 9, "type": "channel", "subtype": "noteOff", "noteNumber": 42, "velocity": 0  },
      { "deltaTime": 1, "channel": 9, "type": "channel", "noteNumber": 40, "velocity": 64, "subtype": "noteOn"  },
      { "deltaTime": 0, "channel": 9, "type": "channel", "noteNumber": 42, "velocity": 64, "subtype": "noteOn"  },
      { "deltaTime": 239, "channel": 9, "type": "channel", "subtype": "noteOff", "noteNumber": 40, "velocity": 0  },
      { "deltaTime": 1, "channel": 9, "type": "channel", "noteNumber": 40, "velocity": 64, "subtype": "noteOn"  },
      { "deltaTime": 239, "channel": 9, "type": "channel", "subtype": "noteOff", "noteNumber": 40, "velocity": 0  },
      { "deltaTime": 0, "channel": 9, "type": "channel", "subtype": "noteOff", "noteNumber": 42, "velocity": 0  },
      { "deltaTime": 1, "channel": 9, "type": "channel", "noteNumber": 35, "velocity": 64, "subtype": "noteOn"  },
      { "deltaTime": 0, "channel": 9, "type": "channel", "noteNumber": 42, "velocity": 64, "subtype": "noteOn"  },
      { "deltaTime": 0, "channel": 9, "type": "channel", "noteNumber": 77, "velocity": 64, "subtype": "noteOn"  },
      { "deltaTime": 239, "channel": 9, "type": "channel", "subtype": "noteOff", "noteNumber": 35, "velocity": 0  },
      { "deltaTime": 0, "channel": 9, "type": "channel", "subtype": "noteOff", "noteNumber": 77, "velocity": 0  },
      { "deltaTime": 240, "channel": 9, "type": "channel", "subtype": "noteOff", "noteNumber": 42, "velocity": 0  },
      { "deltaTime": 1, "channel": 9, "type": "channel", "noteNumber": 35, "velocity": 64, "subtype": "noteOn"  },
      { "deltaTime": 0, "channel": 9, "type": "channel", "noteNumber": 42, "velocity": 64, "subtype": "noteOn"  },
      { "deltaTime": 239, "channel": 9, "type": "channel", "subtype": "noteOff", "noteNumber": 35, "velocity": 0  },
      { "deltaTime": 1, "channel": 9, "type": "channel", "noteNumber": 35, "velocity": 64, "subtype": "noteOn"  },
      { "deltaTime": 0, "channel": 9, "type": "channel", "noteNumber": 77, "velocity": 64, "subtype": "noteOn"  },
      { "deltaTime": 239, "channel": 9, "type": "channel", "subtype": "noteOff", "noteNumber": 35, "velocity": 0  },
      { "deltaTime": 0, "channel": 9, "type": "channel", "subtype": "noteOff", "noteNumber": 42, "velocity": 0  },
      { "deltaTime": 0, "channel": 9, "type": "channel", "subtype": "noteOff", "noteNumber": 77, "velocity": 0  },
      { "deltaTime": 1, "channel": 9, "type": "channel", "noteNumber": 42, "velocity": 64, "subtype": "noteOn"  },
      { "deltaTime": 240, "channel": 9, "type": "channel", "noteNumber": 40, "velocity": 64, "subtype": "noteOn"  },
      { "deltaTime": 239, "channel": 9, "type": "channel", "subtype": "noteOff", "noteNumber": 40, "velocity": 0  },
      { "deltaTime": 0, "channel": 9, "type": "channel", "subtype": "noteOff", "noteNumber": 42, "velocity": 0  },
      { "deltaTime": 1, "channel": 9, "type": "channel", "noteNumber": 35, "velocity": 64, "subtype": "noteOn"  },
      { "deltaTime": 0, "channel": 9, "type": "channel", "noteNumber": 57, "velocity": 64, "subtype": "noteOn"  },
      { "deltaTime": 239, "channel": 9, "type": "channel", "subtype": "noteOff", "noteNumber": 35, "velocity": 0  },
      { "deltaTime": 0, "channel": 9, "type": "channel", "subtype": "noteOff", "noteNumber": 57, "velocity": 0  },
      { "deltaTime": 241, "channel": 9, "type": "channel", "noteNumber": 42, "velocity": 64, "subtype": "noteOn"  },
      { "deltaTime": 239, "channel": 9, "type": "channel", "subtype": "noteOff", "noteNumber": 42, "velocity": 0  },
      { "deltaTime": 1, "channel": 9, "type": "channel", "noteNumber": 42, "velocity": 64, "subtype": "noteOn"  },
      { "deltaTime": 239, "channel": 9, "type": "channel", "subtype": "noteOff", "noteNumber": 42, "velocity": 0  },
      { "deltaTime": 1, "channel": 9, "type": "channel", "noteNumber": 40, "velocity": 64, "subtype": "noteOn"  },
      { "deltaTime": 239, "channel": 9, "type": "channel", "subtype": "noteOff", "noteNumber": 40, "velocity": 0  },
      { "deltaTime": 241, "channel": 9, "type": "channel", "noteNumber": 42, "velocity": 64, "subtype": "noteOn"  },
      { "deltaTime": 239, "channel": 9, "type": "channel", "subtype": "noteOff", "noteNumber": 42, "velocity": 0  },
      { "deltaTime": 1, "channel": 9, "type": "channel", "noteNumber": 42, "velocity": 64, "subtype": "noteOn"  },
      { "deltaTime": 239, "channel": 9, "type": "channel", "subtype": "noteOff", "noteNumber": 42, "velocity": 0  },
      { "deltaTime": 1, "channel": 9, "type": "channel", "noteNumber": 35, "velocity": 64, "subtype": "noteOn"  },
      { "deltaTime": 0, "channel": 9, "type": "channel", "noteNumber": 42, "velocity": 64, "subtype": "noteOn"  },
      { "deltaTime": 239, "channel": 9, "type": "channel", "subtype": "noteOff", "noteNumber": 35, "velocity": 0  },
      { "deltaTime": 0, "channel": 9, "type": "channel", "subtype": "noteOff", "noteNumber": 42, "velocity": 0  },
      { "deltaTime": 1, "channel": 9, "type": "channel", "noteNumber": 42, "velocity": 64, "subtype": "noteOn"  },
      { "deltaTime": 239, "channel": 9, "type": "channel", "subtype": "noteOff", "noteNumber": 42, "velocity": 0  },
      { "deltaTime": 1, "channel": 9, "type": "channel", "noteNumber": 40, "velocity": 64, "subtype": "noteOn"  },
      { "deltaTime": 0, "channel": 9, "type": "channel", "noteNumber": 56, "velocity": 64, "subtype": "noteOn"  },
      { "deltaTime": 239, "channel": 9, "type": "channel", "subtype": "noteOff", "noteNumber": 40, "velocity": 0  },
      { "deltaTime": 0, "channel": 9, "type": "channel", "subtype": "noteOff", "noteNumber": 56, "velocity": 0  },
      { "deltaTime": 1, "channel": 9, "type": "channel", "noteNumber": 56, "velocity": 64, "subtype": "noteOn"  },
      { "deltaTime": 239, "channel": 9, "type": "channel", "subtype": "noteOff", "noteNumber": 56, "velocity": 0  },
      { "deltaTime": 1, "channel": 9, "type": "channel", "noteNumber": 40, "velocity": 64, "subtype": "noteOn"  },
      { "deltaTime": 0, "channel": 9, "type": "channel", "noteNumber": 56, "velocity": 64, "subtype": "noteOn"  },
      { "deltaTime": 239, "channel": 9, "type": "channel", "subtype": "noteOff", "noteNumber": 40, "velocity": 0  },
      { "deltaTime": 0, "channel": 9, "type": "channel", "subtype": "noteOff", "noteNumber": 56, "velocity": 0  },
      { "deltaTime": 1, "channel": 9, "type": "channel", "noteNumber": 40, "velocity": 64, "subtype": "noteOn"  },
      { "deltaTime": 0, "channel": 9, "type": "channel", "noteNumber": 56, "velocity": 64, "subtype": "noteOn"  },
      { "deltaTime": 239, "channel": 9, "type": "channel", "subtype": "noteOff", "noteNumber": 40, "velocity": 0  },
      { "deltaTime": 0, "channel": 9, "type": "channel", "subtype": "noteOff", "noteNumber": 56, "velocity": 0  },
      { "deltaTime": 481, "channel": 9, "type": "channel", "noteNumber": 35, "velocity": 64, "subtype": "noteOn"  },
      { "deltaTime": 0, "channel": 9, "type": "channel", "noteNumber": 42, "velocity": 64, "subtype": "noteOn"  },
      { "deltaTime": 239, "channel": 9, "type": "channel", "subtype": "noteOff", "noteNumber": 35, "velocity": 0  },
      { "deltaTime": 0, "channel": 9, "type": "channel", "subtype": "noteOff", "noteNumber": 42, "velocity": 0  },
      { "deltaTime": 1, "channel": 9, "type": "channel", "noteNumber": 42, "velocity": 64, "subtype": "noteOn"  },
      { "deltaTime": 239, "channel": 9, "type": "channel", "subtype": "noteOff", "noteNumber": 42, "velocity": 0  },
      { "deltaTime": 1, "channel": 9, "type": "channel", "noteNumber": 42, "velocity": 64, "subtype": "noteOn"  },
      { "deltaTime": 239, "channel": 9, "type": "channel", "subtype": "noteOff", "noteNumber": 42, "velocity": 0  },
      { "deltaTime": 241, "channel": 9, "type": "channel", "noteNumber": 40, "velocity": 64, "subtype": "noteOn"  },
      { "deltaTime": 0, "channel": 9, "type": "channel", "noteNumber": 49, "velocity": 64, "subtype": "noteOn"  },
      { "deltaTime": 239, "channel": 9, "type": "channel", "subtype": "noteOff", "noteNumber": 40, "velocity": 0  },
      { "deltaTime": 0, "channel": 9, "type": "channel", "subtype": "noteOff", "noteNumber": 49, "velocity": 0  },
      { "deltaTime": 481, "channel": 9, "type": "channel", "noteNumber": 40, "velocity": 64, "subtype": "noteOn"  },
      { "deltaTime": 0, "channel": 9, "type": "channel", "noteNumber": 65, "velocity": 64, "subtype": "noteOn"  },
      { "deltaTime": 239, "channel": 9, "type": "channel", "subtype": "noteOff", "noteNumber": 40, "velocity": 0  },
      { "deltaTime": 0, "channel": 9, "type": "channel", "subtype": "noteOff", "noteNumber": 65, "velocity": 0  },
      { "deltaTime": 1, "channel": 9, "type": "channel", "noteNumber": 40, "velocity": 64, "subtype": "noteOn"  },
      { "deltaTime": 0, "channel": 9, "type": "channel", "noteNumber": 65, "velocity": 64, "subtype": "noteOn"  },
      { "deltaTime": 239, "channel": 9, "type": "channel", "subtype": "noteOff", "noteNumber": 40, "velocity": 0  },
      { "deltaTime": 0, "channel": 9, "type": "channel", "subtype": "noteOff", "noteNumber": 65, "velocity": 0  },
      { "deltaTime": 1, "channel": 9, "type": "channel", "noteNumber": 35, "velocity": 64, "subtype": "noteOn"  },
      { "deltaTime": 0, "channel": 9, "type": "channel", "noteNumber": 57, "velocity": 64, "subtype": "noteOn"  },
      { "deltaTime": 239, "channel": 9, "type": "channel", "subtype": "noteOff", "noteNumber": 35, "velocity": 0  },
      { "deltaTime": 0, "channel": 9, "type": "channel", "subtype": "noteOff", "noteNumber": 57, "velocity": 0  },
      { "deltaTime": 481, "channel": 9, "type": "channel", "noteNumber": 35, "velocity": 64, "subtype": "noteOn"  },
      { "deltaTime": 239, "channel": 9, "type": "channel", "subtype": "noteOff", "noteNumber": 35, "velocity": 0  },
      { "deltaTime": 241, "channel": 9, "type": "channel", "noteNumber": 42, "velocity": 64, "subtype": "noteOn"  },
      { "deltaTime": 239, "channel": 9, "type": "channel", "subtype": "noteOff", "noteNumber": 42, "velocity": 0  },
      { "deltaTime": 1, "channel": 9, "type": "channel", "noteNumber": 42, "velocity": 64, "subtype": "noteOn"  },
      { "deltaTime": 239, "channel": 9, "type": "channel", "subtype": "noteOff", "noteNumber": 42, "velocity": 0  },
      { "deltaTime": 1, "channel": 9, "type": "channel", "noteNumber": 40, "velocity": 64, "subtype": "noteOn"  },
      { "deltaTime": 239, "channel": 9, "type": "channel", "subtype": "noteOff", "noteNumber": 40, "velocity": 0  },
      { "deltaTime": 241, "channel": 9, "type": "channel", "noteNumber": 42, "velocity": 64, "subtype": "noteOn"  },
      { "deltaTime": 239, "channel": 9, "type": "channel", "subtype": "noteOff", "noteNumber": 42, "velocity": 0  },
      { "deltaTime": 1, "channel": 9, "type": "channel", "noteNumber": 42, "velocity": 64, "subtype": "noteOn"  },
      { "deltaTime": 239, "channel": 9, "type": "channel", "subtype": "noteOff", "noteNumber": 42, "velocity": 0  },
      { "deltaTime": 1, "channel": 9, "type": "channel", "noteNumber": 35, "velocity": 64, "subtype": "noteOn"  },
      { "deltaTime": 0, "channel": 9, "type": "channel", "noteNumber": 42, "velocity": 64, "subtype": "noteOn"  },
      { "deltaTime": 239, "channel": 9, "type": "channel", "subtype": "noteOff", "noteNumber": 35, "velocity": 0  },
      { "deltaTime": 0, "channel": 9, "type": "channel", "subtype": "noteOff", "noteNumber": 42, "velocity": 0  },
      { "deltaTime": 1, "channel": 9, "type": "channel", "noteNumber": 42, "velocity": 64, "subtype": "noteOn"  },
      { "deltaTime": 239, "channel": 9, "type": "channel", "subtype": "noteOff", "noteNumber": 42, "velocity": 0  },
      { "deltaTime": 1, "channel": 9, "type": "channel", "noteNumber": 40, "velocity": 64, "subtype": "noteOn"  },
      { "deltaTime": 0, "channel": 9, "type": "channel", "noteNumber": 56, "velocity": 64, "subtype": "noteOn"  },
      { "deltaTime": 239, "channel": 9, "type": "channel", "subtype": "noteOff", "noteNumber": 40, "velocity": 0  },
      { "deltaTime": 0, "channel": 9, "type": "channel", "subtype": "noteOff", "noteNumber": 56, "velocity": 0  },
      { "deltaTime": 1, "channel": 9, "type": "channel", "noteNumber": 56, "velocity": 64, "subtype": "noteOn"  },
      { "deltaTime": 239, "channel": 9, "type": "channel", "subtype": "noteOff", "noteNumber": 56, "velocity": 0  },
      { "deltaTime": 1, "channel": 9, "type": "channel", "noteNumber": 40, "velocity": 64, "subtype": "noteOn"  },
      { "deltaTime": 0, "channel": 9, "type": "channel", "noteNumber": 56, "velocity": 64, "subtype": "noteOn"  },
      { "deltaTime": 239, "channel": 9, "type": "channel", "subtype": "noteOff", "noteNumber": 40, "velocity": 0  },
      { "deltaTime": 0, "channel": 9, "type": "channel", "subtype": "noteOff", "noteNumber": 56, "velocity": 0  },
      { "deltaTime": 1, "channel": 9, "type": "channel", "noteNumber": 40, "velocity": 64, "subtype": "noteOn"  },
      { "deltaTime": 0, "channel": 9, "type": "channel", "noteNumber": 56, "velocity": 64, "subtype": "noteOn"  },
      { "deltaTime": 239, "channel": 9, "type": "channel", "subtype": "noteOff", "noteNumber": 40, "velocity": 0  },
      { "deltaTime": 0, "channel": 9, "type": "channel", "subtype": "noteOff", "noteNumber": 56, "velocity": 0  },
      { "deltaTime": 481, "channel": 9, "type": "channel", "noteNumber": 35, "velocity": 64, "subtype": "noteOn"  },
      { "deltaTime": 0, "channel": 9, "type": "channel", "noteNumber": 42, "velocity": 64, "subtype": "noteOn"  },
      { "deltaTime": 239, "channel": 9, "type": "channel", "subtype": "noteOff", "noteNumber": 35, "velocity": 0  },
      { "deltaTime": 0, "channel": 9, "type": "channel", "subtype": "noteOff", "noteNumber": 42, "velocity": 0  },
      { "deltaTime": 1, "channel": 9, "type": "channel", "noteNumber": 42, "velocity": 64, "subtype": "noteOn"  },
      { "deltaTime": 239, "channel": 9, "type": "channel", "subtype": "noteOff", "noteNumber": 42, "velocity": 0  },
      { "deltaTime": 1, "channel": 9, "type": "channel", "noteNumber": 42, "velocity": 64, "subtype": "noteOn"  },
      { "deltaTime": 239, "channel": 9, "type": "channel", "subtype": "noteOff", "noteNumber": 42, "velocity": 0  },
      { "deltaTime": 241, "channel": 9, "type": "channel", "noteNumber": 40, "velocity": 64, "subtype": "noteOn"  },
      { "deltaTime": 0, "channel": 9, "type": "channel", "noteNumber": 49, "velocity": 64, "subtype": "noteOn"  },
      { "deltaTime": 239, "channel": 9, "type": "channel", "subtype": "noteOff", "noteNumber": 40, "velocity": 0  },
      { "deltaTime": 0, "channel": 9, "type": "channel", "subtype": "noteOff", "noteNumber": 49, "velocity": 0  },
      { "deltaTime": 481, "channel": 9, "type": "channel", "noteNumber": 40, "velocity": 64, "subtype": "noteOn"  },
      { "deltaTime": 0, "channel": 9, "type": "channel", "noteNumber": 65, "velocity": 64, "subtype": "noteOn"  },
      { "deltaTime": 239, "channel": 9, "type": "channel", "subtype": "noteOff", "noteNumber": 40, "velocity": 0  },
      { "deltaTime": 0, "channel": 9, "type": "channel", "subtype": "noteOff", "noteNumber": 65, "velocity": 0  },
      { "deltaTime": 1, "channel": 9, "type": "channel", "noteNumber": 40, "velocity": 64, "subtype": "noteOn"  },
      { "deltaTime": 0, "channel": 9, "type": "channel", "noteNumber": 65, "velocity": 64, "subtype": "noteOn"  },
      { "deltaTime": 239, "channel": 9, "type": "channel", "subtype": "noteOff", "noteNumber": 40, "velocity": 0  },
      { "deltaTime": 0, "channel": 9, "type": "channel", "subtype": "noteOff", "noteNumber": 65, "velocity": 0  },
      { "deltaTime": 1, "channel": 9, "type": "channel", "noteNumber": 35, "velocity": 64, "subtype": "noteOn"  },
      { "deltaTime": 0, "channel": 9, "type": "channel", "noteNumber": 57, "velocity": 64, "subtype": "noteOn"  },
      { "deltaTime": 239, "channel": 9, "type": "channel", "subtype": "noteOff", "noteNumber": 35, "velocity": 0  },
      { "deltaTime": 0, "channel": 9, "type": "channel", "subtype": "noteOff", "noteNumber": 57, "velocity": 0  },
      { "deltaTime": 481, "channel": 9, "type": "channel", "noteNumber": 35, "velocity": 64, "subtype": "noteOn"  },
      { "deltaTime": 239, "channel": 9, "type": "channel", "subtype": "noteOff", "noteNumber": 35, "velocity": 0  },
      { "deltaTime": 241, "channel": 9, "type": "channel", "noteNumber": 42, "velocity": 64, "subtype": "noteOn"  },
      { "deltaTime": 239, "channel": 9, "type": "channel", "subtype": "noteOff", "noteNumber": 42, "velocity": 0  },
      { "deltaTime": 1, "channel": 9, "type": "channel", "noteNumber": 42, "velocity": 64, "subtype": "noteOn"  },
      { "deltaTime": 239, "channel": 9, "type": "channel", "subtype": "noteOff", "noteNumber": 42, "velocity": 0  },
      { "deltaTime": 1, "channel": 9, "type": "channel", "noteNumber": 40, "velocity": 64, "subtype": "noteOn"  },
      { "deltaTime": 239, "channel": 9, "type": "channel", "subtype": "noteOff", "noteNumber": 40, "velocity": 0  },
      { "deltaTime": 241, "channel": 9, "type": "channel", "noteNumber": 42, "velocity": 64, "subtype": "noteOn"  },
      { "deltaTime": 239, "channel": 9, "type": "channel", "subtype": "noteOff", "noteNumber": 42, "velocity": 0  },
      { "deltaTime": 1, "channel": 9, "type": "channel", "noteNumber": 42, "velocity": 64, "subtype": "noteOn"  },
      { "deltaTime": 239, "channel": 9, "type": "channel", "subtype": "noteOff", "noteNumber": 42, "velocity": 0  },
      { "deltaTime": 1, "channel": 9, "type": "channel", "noteNumber": 35, "velocity": 64, "subtype": "noteOn"  },
      { "deltaTime": 0, "channel": 9, "type": "channel", "noteNumber": 42, "velocity": 64, "subtype": "noteOn"  },
      { "deltaTime": 239, "channel": 9, "type": "channel", "subtype": "noteOff", "noteNumber": 35, "velocity": 0  },
      { "deltaTime": 0, "channel": 9, "type": "channel", "subtype": "noteOff", "noteNumber": 42, "velocity": 0  },
      { "deltaTime": 1, "channel": 9, "type": "channel", "noteNumber": 42, "velocity": 64, "subtype": "noteOn"  },
      { "deltaTime": 239, "channel": 9, "type": "channel", "subtype": "noteOff", "noteNumber": 42, "velocity": 0  },
      { "deltaTime": 1, "channel": 9, "type": "channel", "noteNumber": 40, "velocity": 64, "subtype": "noteOn"  },
      { "deltaTime": 0, "channel": 9, "type": "channel", "noteNumber": 56, "velocity": 64, "subtype": "noteOn"  },
      { "deltaTime": 239, "channel": 9, "type": "channel", "subtype": "noteOff", "noteNumber": 40, "velocity": 0  },
      { "deltaTime": 0, "channel": 9, "type": "channel", "subtype": "noteOff", "noteNumber": 56, "velocity": 0  },
      { "deltaTime": 1, "channel": 9, "type": "channel", "noteNumber": 56, "velocity": 64, "subtype": "noteOn"  },
      { "deltaTime": 239, "channel": 9, "type": "channel", "subtype": "noteOff", "noteNumber": 56, "velocity": 0  },
      { "deltaTime": 1, "channel": 9, "type": "channel", "noteNumber": 40, "velocity": 64, "subtype": "noteOn"  },
      { "deltaTime": 0, "channel": 9, "type": "channel", "noteNumber": 56, "velocity": 64, "subtype": "noteOn"  },
      { "deltaTime": 239, "channel": 9, "type": "channel", "subtype": "noteOff", "noteNumber": 40, "velocity": 0  },
      { "deltaTime": 0, "channel": 9, "type": "channel", "subtype": "noteOff", "noteNumber": 56, "velocity": 0  },
      { "deltaTime": 1, "channel": 9, "type": "channel", "noteNumber": 40, "velocity": 64, "subtype": "noteOn"  },
      { "deltaTime": 0, "channel": 9, "type": "channel", "noteNumber": 56, "velocity": 64, "subtype": "noteOn"  },
      { "deltaTime": 239, "channel": 9, "type": "channel", "subtype": "noteOff", "noteNumber": 40, "velocity": 0  },
      { "deltaTime": 0, "channel": 9, "type": "channel", "subtype": "noteOff", "noteNumber": 56, "velocity": 0  },
      { "deltaTime": 481, "channel": 9, "type": "channel", "noteNumber": 35, "velocity": 64, "subtype": "noteOn"  },
      { "deltaTime": 0, "channel": 9, "type": "channel", "noteNumber": 42, "velocity": 64, "subtype": "noteOn"  },
      { "deltaTime": 239, "channel": 9, "type": "channel", "subtype": "noteOff", "noteNumber": 35, "velocity": 0  },
      { "deltaTime": 0, "channel": 9, "type": "channel", "subtype": "noteOff", "noteNumber": 42, "velocity": 0  },
      { "deltaTime": 1, "channel": 9, "type": "channel", "noteNumber": 42, "velocity": 64, "subtype": "noteOn"  },
      { "deltaTime": 239, "channel": 9, "type": "channel", "subtype": "noteOff", "noteNumber": 42, "velocity": 0  },
      { "deltaTime": 1, "channel": 9, "type": "channel", "noteNumber": 42, "velocity": 64, "subtype": "noteOn"  },
      { "deltaTime": 239, "channel": 9, "type": "channel", "subtype": "noteOff", "noteNumber": 42, "velocity": 0  },
      { "deltaTime": 241, "channel": 9, "type": "channel", "noteNumber": 40, "velocity": 64, "subtype": "noteOn"  },
      { "deltaTime": 0, "channel": 9, "type": "channel", "noteNumber": 49, "velocity": 64, "subtype": "noteOn"  },
      { "deltaTime": 239, "channel": 9, "type": "channel", "subtype": "noteOff", "noteNumber": 40, "velocity": 0  },
      { "deltaTime": 0, "channel": 9, "type": "channel", "subtype": "noteOff", "noteNumber": 49, "velocity": 0  },
      { "deltaTime": 481, "channel": 9, "type": "channel", "noteNumber": 40, "velocity": 64, "subtype": "noteOn"  },
      { "deltaTime": 0, "channel": 9, "type": "channel", "noteNumber": 65, "velocity": 64, "subtype": "noteOn"  },
      { "deltaTime": 239, "channel": 9, "type": "channel", "subtype": "noteOff", "noteNumber": 40, "velocity": 0  },
      { "deltaTime": 0, "channel": 9, "type": "channel", "subtype": "noteOff", "noteNumber": 65, "velocity": 0  },
      { "deltaTime": 1, "channel": 9, "type": "channel", "noteNumber": 40, "velocity": 64, "subtype": "noteOn"  },
      { "deltaTime": 0, "channel": 9, "type": "channel", "noteNumber": 65, "velocity": 64, "subtype": "noteOn"  },
      { "deltaTime": 239, "channel": 9, "type": "channel", "subtype": "noteOff", "noteNumber": 40, "velocity": 0  },
      { "deltaTime": 0, "channel": 9, "type": "channel", "subtype": "noteOff", "noteNumber": 65, "velocity": 0  },
      { "deltaTime": 1, "channel": 9, "type": "channel", "noteNumber": 35, "velocity": 64, "subtype": "noteOn"  },
      { "deltaTime": 0, "channel": 9, "type": "channel", "noteNumber": 57, "velocity": 64, "subtype": "noteOn"  },
      { "deltaTime": 239, "channel": 9, "type": "channel", "subtype": "noteOff", "noteNumber": 35, "velocity": 0  },
      { "deltaTime": 0, "channel": 9, "type": "channel", "subtype": "noteOff", "noteNumber": 57, "velocity": 0  },
      { "deltaTime": 481, "channel": 9, "type": "channel", "noteNumber": 35, "velocity": 64, "subtype": "noteOn"  },
      { "deltaTime": 239, "channel": 9, "type": "channel", "subtype": "noteOff", "noteNumber": 35, "velocity": 0  },
      { "deltaTime": 241, "channel": 9, "type": "channel", "noteNumber": 42, "velocity": 64, "subtype": "noteOn"  },
      { "deltaTime": 239, "channel": 9, "type": "channel", "subtype": "noteOff", "noteNumber": 42, "velocity": 0  },
      { "deltaTime": 1, "channel": 9, "type": "channel", "noteNumber": 42, "velocity": 64, "subtype": "noteOn"  },
      { "deltaTime": 239, "channel": 9, "type": "channel", "subtype": "noteOff", "noteNumber": 42, "velocity": 0  },
      { "deltaTime": 1, "channel": 9, "type": "channel", "noteNumber": 40, "velocity": 64, "subtype": "noteOn"  },
      { "deltaTime": 239, "channel": 9, "type": "channel", "subtype": "noteOff", "noteNumber": 40, "velocity": 0  },
      { "deltaTime": 241, "channel": 9, "type": "channel", "noteNumber": 42, "velocity": 64, "subtype": "noteOn"  },
      { "deltaTime": 239, "channel": 9, "type": "channel", "subtype": "noteOff", "noteNumber": 42, "velocity": 0  },
      { "deltaTime": 1, "channel": 9, "type": "channel", "noteNumber": 42, "velocity": 64, "subtype": "noteOn"  },
      { "deltaTime": 239, "channel": 9, "type": "channel", "subtype": "noteOff", "noteNumber": 42, "velocity": 0  },
      { "deltaTime": 1, "channel": 9, "type": "channel", "noteNumber": 35, "velocity": 64, "subtype": "noteOn"  },
      { "deltaTime": 0, "channel": 9, "type": "channel", "noteNumber": 42, "velocity": 64, "subtype": "noteOn"  },
      { "deltaTime": 239, "channel": 9, "type": "channel", "subtype": "noteOff", "noteNumber": 35, "velocity": 0  },
      { "deltaTime": 0, "channel": 9, "type": "channel", "subtype": "noteOff", "noteNumber": 42, "velocity": 0  },
      { "deltaTime": 1, "channel": 9, "type": "channel", "noteNumber": 42, "velocity": 64, "subtype": "noteOn"  },
      { "deltaTime": 239, "channel": 9, "type": "channel", "subtype": "noteOff", "noteNumber": 42, "velocity": 0  },
      { "deltaTime": 1, "channel": 9, "type": "channel", "noteNumber": 40, "velocity": 64, "subtype": "noteOn"  },
      { "deltaTime": 0, "channel": 9, "type": "channel", "noteNumber": 56, "velocity": 64, "subtype": "noteOn"  },
      { "deltaTime": 239, "channel": 9, "type": "channel", "subtype": "noteOff", "noteNumber": 40, "velocity": 0  },
      { "deltaTime": 0, "channel": 9, "type": "channel", "subtype": "noteOff", "noteNumber": 56, "velocity": 0  },
      { "deltaTime": 1, "channel": 9, "type": "channel", "noteNumber": 56, "velocity": 64, "subtype": "noteOn"  },
      { "deltaTime": 239, "channel": 9, "type": "channel", "subtype": "noteOff", "noteNumber": 56, "velocity": 0  },
      { "deltaTime": 1, "channel": 9, "type": "channel", "noteNumber": 40, "velocity": 64, "subtype": "noteOn"  },
      { "deltaTime": 0, "channel": 9, "type": "channel", "noteNumber": 56, "velocity": 64, "subtype": "noteOn"  },
      { "deltaTime": 239, "channel": 9, "type": "channel", "subtype": "noteOff", "noteNumber": 40, "velocity": 0  },
      { "deltaTime": 0, "channel": 9, "type": "channel", "subtype": "noteOff", "noteNumber": 56, "velocity": 0  },
      { "deltaTime": 1, "channel": 9, "type": "channel", "noteNumber": 40, "velocity": 64, "subtype": "noteOn"  },
      { "deltaTime": 0, "channel": 9, "type": "channel", "noteNumber": 56, "velocity": 64, "subtype": "noteOn"  },
      { "deltaTime": 239, "channel": 9, "type": "channel", "subtype": "noteOff", "noteNumber": 40, "velocity": 0  },
      { "deltaTime": 0, "channel": 9, "type": "channel", "subtype": "noteOff", "noteNumber": 56, "velocity": 0  },
      { "deltaTime": 481, "channel": 9, "type": "channel", "noteNumber": 35, "velocity": 64, "subtype": "noteOn"  },
      { "deltaTime": 0, "channel": 9, "type": "channel", "noteNumber": 42, "velocity": 64, "subtype": "noteOn"  },
      { "deltaTime": 239, "channel": 9, "type": "channel", "subtype": "noteOff", "noteNumber": 35, "velocity": 0  },
      { "deltaTime": 0, "channel": 9, "type": "channel", "subtype": "noteOff", "noteNumber": 42, "velocity": 0  },
      { "deltaTime": 1, "channel": 9, "type": "channel", "noteNumber": 42, "velocity": 64, "subtype": "noteOn"  },
      { "deltaTime": 239, "channel": 9, "type": "channel", "subtype": "noteOff", "noteNumber": 42, "velocity": 0  },
      { "deltaTime": 1, "channel": 9, "type": "channel", "noteNumber": 42, "velocity": 64, "subtype": "noteOn"  },
      { "deltaTime": 239, "channel": 9, "type": "channel", "subtype": "noteOff", "noteNumber": 42, "velocity": 0  },
      { "deltaTime": 241, "channel": 9, "type": "channel", "noteNumber": 40, "velocity": 64, "subtype": "noteOn"  },
      { "deltaTime": 0, "channel": 9, "type": "channel", "noteNumber": 49, "velocity": 64, "subtype": "noteOn"  },
      { "deltaTime": 239, "channel": 9, "type": "channel", "subtype": "noteOff", "noteNumber": 40, "velocity": 0  },
      { "deltaTime": 0, "channel": 9, "type": "channel", "subtype": "noteOff", "noteNumber": 49, "velocity": 0  },
      { "deltaTime": 481, "channel": 9, "type": "channel", "noteNumber": 40, "velocity": 64, "subtype": "noteOn"  },
      { "deltaTime": 0, "channel": 9, "type": "channel", "noteNumber": 65, "velocity": 64, "subtype": "noteOn"  },
      { "deltaTime": 239, "channel": 9, "type": "channel", "subtype": "noteOff", "noteNumber": 40, "velocity": 0  },
      { "deltaTime": 0, "channel": 9, "type": "channel", "subtype": "noteOff", "noteNumber": 65, "velocity": 0  },
      { "deltaTime": 1, "channel": 9, "type": "channel", "noteNumber": 40, "velocity": 64, "subtype": "noteOn"  },
      { "deltaTime": 0, "channel": 9, "type": "channel", "noteNumber": 65, "velocity": 64, "subtype": "noteOn"  },
      { "deltaTime": 239, "channel": 9, "type": "channel", "subtype": "noteOff", "noteNumber": 40, "velocity": 0  },
      { "deltaTime": 0, "channel": 9, "type": "channel", "subtype": "noteOff", "noteNumber": 65, "velocity": 0  },
      { "deltaTime": 1, "channel": 9, "type": "channel", "noteNumber": 35, "velocity": 64, "subtype": "noteOn"  },
      { "deltaTime": 0, "channel": 9, "type": "channel", "noteNumber": 57, "velocity": 64, "subtype": "noteOn"  },
      { "deltaTime": 239, "channel": 9, "type": "channel", "subtype": "noteOff", "noteNumber": 35, "velocity": 0  },
      { "deltaTime": 0, "channel": 9, "type": "channel", "subtype": "noteOff", "noteNumber": 57, "velocity": 0  },
      { "deltaTime": 481, "channel": 9, "type": "channel", "noteNumber": 35, "velocity": 64, "subtype": "noteOn"  },
      { "deltaTime": 0, "channel": 9, "type": "channel", "noteNumber": 43, "velocity": 64, "subtype": "noteOn"  },
      { "deltaTime": 0, "channel": 9, "type": "channel", "noteNumber": 45, "velocity": 64, "subtype": "noteOn"  },
      { "deltaTime": 239, "channel": 9, "type": "channel", "subtype": "noteOff", "noteNumber": 35, "velocity": 0  },
      { "deltaTime": 0, "channel": 9, "type": "channel", "subtype": "noteOff", "noteNumber": 43, "velocity": 0  },
      { "deltaTime": 0, "channel": 9, "type": "channel", "subtype": "noteOff", "noteNumber": 45, "velocity": 0  },
      { "deltaTime": 241, "channel": 9, "type": "channel", "noteNumber": 35, "velocity": 64, "subtype": "noteOn"  },
      { "deltaTime": 239, "channel": 9, "type": "channel", "subtype": "noteOff", "noteNumber": 35, "velocity": 0  },
      { "deltaTime": 1, "channel": 9, "type": "channel", "noteNumber": 35, "velocity": 64, "subtype": "noteOn"  },
      { "deltaTime": 239, "channel": 9, "type": "channel", "subtype": "noteOff", "noteNumber": 35, "velocity": 0  },
      { "deltaTime": 1, "channel": 9, "type": "channel", "noteNumber": 40, "velocity": 64, "subtype": "noteOn"  },
      { "deltaTime": 0, "channel": 9, "type": "channel", "noteNumber": 56, "velocity": 64, "subtype": "noteOn"  },
      { "deltaTime": 239, "channel": 9, "type": "channel", "subtype": "noteOff", "noteNumber": 40, "velocity": 0  },
      { "deltaTime": 0, "channel": 9, "type": "channel", "subtype": "noteOff", "noteNumber": 56, "velocity": 0  },
      { "deltaTime": 721, "channel": 9, "type": "channel", "noteNumber": 35, "velocity": 64, "subtype": "noteOn"  },
      { "deltaTime": 0, "channel": 9, "type": "channel", "noteNumber": 56, "velocity": 64, "subtype": "noteOn"  },
      { "deltaTime": 239, "channel": 9, "type": "channel", "subtype": "noteOff", "noteNumber": 35, "velocity": 0  },
      { "deltaTime": 0, "channel": 9, "type": "channel", "subtype": "noteOff", "noteNumber": 56, "velocity": 0  },
      { "deltaTime": 241, "channel": 9, "type": "channel", "noteNumber": 35, "velocity": 64, "subtype": "noteOn"  },
      { "deltaTime": 239, "channel": 9, "type": "channel", "subtype": "noteOff", "noteNumber": 35, "velocity": 0  },
      { "deltaTime": 241, "channel": 9, "type": "channel", "noteNumber": 40, "velocity": 64, "subtype": "noteOn"  },
      { "deltaTime": 0, "channel": 9, "type": "channel", "noteNumber": 56, "velocity": 64, "subtype": "noteOn"  },
      { "deltaTime": 239, "channel": 9, "type": "channel", "subtype": "noteOff", "noteNumber": 40, "velocity": 0  },
      { "deltaTime": 0, "channel": 9, "type": "channel", "subtype": "noteOff", "noteNumber": 56, "velocity": 0  },
      { "deltaTime": 721, "channel": 9, "type": "channel", "noteNumber": 35, "velocity": 64, "subtype": "noteOn"  },
      { "deltaTime": 0, "channel": 9, "type": "channel", "noteNumber": 56, "velocity": 64, "subtype": "noteOn"  },
      { "deltaTime": 239, "channel": 9, "type": "channel", "subtype": "noteOff", "noteNumber": 35, "velocity": 0  },
      { "deltaTime": 0, "channel": 9, "type": "channel", "subtype": "noteOff", "noteNumber": 56, "velocity": 0  },
      { "deltaTime": 241, "channel": 9, "type": "channel", "noteNumber": 35, "velocity": 64, "subtype": "noteOn"  },
      { "deltaTime": 239, "channel": 9, "type": "channel", "subtype": "noteOff", "noteNumber": 35, "velocity": 0  },
      { "deltaTime": 241, "channel": 9, "type": "channel", "noteNumber": 40, "velocity": 64, "subtype": "noteOn"  },
      { "deltaTime": 0, "channel": 9, "type": "channel", "noteNumber": 56, "velocity": 64, "subtype": "noteOn"  },
      { "deltaTime": 239, "channel": 9, "type": "channel", "subtype": "noteOff", "noteNumber": 40, "velocity": 0  },
      { "deltaTime": 0, "channel": 9, "type": "channel", "subtype": "noteOff", "noteNumber": 56, "velocity": 0  },
      { "deltaTime": 721, "channel": 9, "type": "channel", "noteNumber": 35, "velocity": 64, "subtype": "noteOn"  },
      { "deltaTime": 0, "channel": 9, "type": "channel", "noteNumber": 56, "velocity": 64, "subtype": "noteOn"  },
      { "deltaTime": 239, "channel": 9, "type": "channel", "subtype": "noteOff", "noteNumber": 35, "velocity": 0  },
      { "deltaTime": 0, "channel": 9, "type": "channel", "subtype": "noteOff", "noteNumber": 56, "velocity": 0  },
      { "deltaTime": 241, "channel": 9, "type": "channel", "noteNumber": 35, "velocity": 64, "subtype": "noteOn"  },
      { "deltaTime": 239, "channel": 9, "type": "channel", "subtype": "noteOff", "noteNumber": 35, "velocity": 0  },
      { "deltaTime": 241, "channel": 9, "type": "channel", "noteNumber": 40, "velocity": 64, "subtype": "noteOn"  },
      { "deltaTime": 0, "channel": 9, "type": "channel", "noteNumber": 56, "velocity": 64, "subtype": "noteOn"  },
      { "deltaTime": 119, "channel": 9, "type": "channel", "subtype": "noteOff", "noteNumber": 40, "velocity": 0  },
      { "deltaTime": 120, "channel": 9, "type": "channel", "subtype": "noteOff", "noteNumber": 56, "velocity": 0  },
      { "deltaTime": 721, "channel": 9, "type": "channel", "noteNumber": 35, "velocity": 64, "subtype": "noteOn"  },
      { "deltaTime": 0, "channel": 9, "type": "channel", "noteNumber": 56, "velocity": 64, "subtype": "noteOn"  },
      { "deltaTime": 239, "channel": 9, "type": "channel", "subtype": "noteOff", "noteNumber": 35, "velocity": 0  },
      { "deltaTime": 240, "channel": 9, "type": "channel", "subtype": "noteOff", "noteNumber": 56, "velocity": 0  },
      { "deltaTime": 1, "channel": 9, "type": "channel", "noteNumber": 35, "velocity": 64, "subtype": "noteOn"  },
      { "deltaTime": 239, "channel": 9, "type": "channel", "subtype": "noteOff", "noteNumber": 35, "velocity": 0  },
      { "deltaTime": 241, "channel": 9, "type": "channel", "noteNumber": 40, "velocity": 64, "subtype": "noteOn"  },
      { "deltaTime": 0, "channel": 9, "type": "channel", "noteNumber": 56, "velocity": 64, "subtype": "noteOn"  },
      { "deltaTime": 239, "channel": 9, "type": "channel", "subtype": "noteOff", "noteNumber": 40, "velocity": 0  },
      { "deltaTime": 240, "channel": 9, "type": "channel", "subtype": "noteOff", "noteNumber": 56, "velocity": 0  },
      { "deltaTime": 481, "channel": 9, "type": "channel", "noteNumber": 35, "velocity": 64, "subtype": "noteOn"  },
      { "deltaTime": 0, "channel": 9, "type": "channel", "noteNumber": 56, "velocity": 64, "subtype": "noteOn"  },
      { "deltaTime": 239, "channel": 9, "type": "channel", "subtype": "noteOff", "noteNumber": 35, "velocity": 0  },
      { "deltaTime": 241, "channel": 9, "type": "channel", "noteNumber": 35, "velocity": 64, "subtype": "noteOn"  },
      { "deltaTime": 239, "channel": 9, "type": "channel", "subtype": "noteOff", "noteNumber": 35, "velocity": 0  },
      { "deltaTime": 240, "channel": 9, "type": "channel", "subtype": "noteOff", "noteNumber": 56, "velocity": 0  },
      { "deltaTime": 1, "channel": 9, "type": "channel", "noteNumber": 40, "velocity": 64, "subtype": "noteOn"  },
      { "deltaTime": 0, "channel": 9, "type": "channel", "noteNumber": 56, "velocity": 64, "subtype": "noteOn"  },
      { "deltaTime": 239, "channel": 9, "type": "channel", "subtype": "noteOff", "noteNumber": 40, "velocity": 0  },
      { "deltaTime": 720, "channel": 9, "type": "channel", "subtype": "noteOff", "noteNumber": 56, "velocity": 0  },
      { "deltaTime": 1, "channel": 9, "type": "channel", "noteNumber": 35, "velocity": 64, "subtype": "noteOn"  },
      { "deltaTime": 0, "channel": 9, "type": "channel", "noteNumber": 56, "velocity": 64, "subtype": "noteOn"  },
      { "deltaTime": 239, "channel": 9, "type": "channel", "subtype": "noteOff", "noteNumber": 35, "velocity": 0  },
      { "deltaTime": 241, "channel": 9, "type": "channel", "noteNumber": 35, "velocity": 64, "subtype": "noteOn"  },
      { "deltaTime": 239, "channel": 9, "type": "channel", "subtype": "noteOff", "noteNumber": 35, "velocity": 0  },
      { "deltaTime": 240, "channel": 9, "type": "channel", "subtype": "noteOff", "noteNumber": 56, "velocity": 0  },
      { "deltaTime": 1, "channel": 9, "type": "channel", "noteNumber": 40, "velocity": 64, "subtype": "noteOn"  },
      { "deltaTime": 0, "channel": 9, "type": "channel", "noteNumber": 56, "velocity": 64, "subtype": "noteOn"  },
      { "deltaTime": 0, "channel": 9, "type": "channel", "noteNumber": 66, "velocity": 64, "subtype": "noteOn"  },
      { "deltaTime": 239, "channel": 9, "type": "channel", "subtype": "noteOff", "noteNumber": 40, "velocity": 0  },
      { "deltaTime": 0, "channel": 9, "type": "channel", "subtype": "noteOff", "noteNumber": 66, "velocity": 0  },
      { "deltaTime": 1, "channel": 9, "type": "channel", "noteNumber": 40, "velocity": 64, "subtype": "noteOn"  },
      { "deltaTime": 0, "channel": 9, "type": "channel", "noteNumber": 46, "velocity": 64, "subtype": "noteOn"  },
      { "deltaTime": 0, "channel": 9, "type": "channel", "noteNumber": 66, "velocity": 64, "subtype": "noteOn"  },
      { "deltaTime": 239, "channel": 9, "type": "channel", "subtype": "noteOff", "noteNumber": 40, "velocity": 0  },
      { "deltaTime": 0, "channel": 9, "type": "channel", "subtype": "noteOff", "noteNumber": 46, "velocity": 0  },
      { "deltaTime": 0, "channel": 9, "type": "channel", "subtype": "noteOff", "noteNumber": 66, "velocity": 0  },
      { "deltaTime": 241, "channel": 9, "type": "channel", "noteNumber": 40, "velocity": 64, "subtype": "noteOn"  },
      { "deltaTime": 0, "channel": 9, "type": "channel", "noteNumber": 44, "velocity": 64, "subtype": "noteOn"  },
      { "deltaTime": 0, "channel": 9, "type": "channel", "noteNumber": 66, "velocity": 64, "subtype": "noteOn"  },
      { "deltaTime": 239, "channel": 9, "type": "channel", "subtype": "noteOff", "noteNumber": 40, "velocity": 0  },
      { "deltaTime": 0, "channel": 9, "type": "channel", "subtype": "noteOff", "noteNumber": 44, "velocity": 0  },
      { "deltaTime": 0, "channel": 9, "type": "channel", "subtype": "noteOff", "noteNumber": 56, "velocity": 0  },
      { "deltaTime": 0, "channel": 9, "type": "channel", "subtype": "noteOff", "noteNumber": 66, "velocity": 0  },
      { "deltaTime": 1, "channel": 9, "type": "channel", "noteNumber": 35, "velocity": 64, "subtype": "noteOn"  },
      { "deltaTime": 0, "channel": 9, "type": "channel", "noteNumber": 56, "velocity": 64, "subtype": "noteOn"  },
      { "deltaTime": 239, "channel": 9, "type": "channel", "subtype": "noteOff", "noteNumber": 35, "velocity": 0  },
      { "deltaTime": 241, "channel": 9, "type": "channel", "noteNumber": 35, "velocity": 64, "subtype": "noteOn"  },
      { "deltaTime": 239, "channel": 9, "type": "channel", "subtype": "noteOff", "noteNumber": 35, "velocity": 0  },
      { "deltaTime": 240, "channel": 9, "type": "channel", "subtype": "noteOff", "noteNumber": 56, "velocity": 0  },
      { "deltaTime": 1, "channel": 9, "type": "channel", "noteNumber": 40, "velocity": 64, "subtype": "noteOn"  },
      { "deltaTime": 0, "channel": 9, "type": "channel", "noteNumber": 56, "velocity": 64, "subtype": "noteOn"  },
      { "deltaTime": 239, "channel": 9, "type": "channel", "subtype": "noteOff", "noteNumber": 40, "velocity": 0  },
      { "deltaTime": 720, "channel": 9, "type": "channel", "subtype": "noteOff", "noteNumber": 56, "velocity": 0  },
      { "deltaTime": 1, "channel": 9, "type": "channel", "noteNumber": 35, "velocity": 64, "subtype": "noteOn"  },
      { "deltaTime": 0, "channel": 9, "type": "channel", "noteNumber": 56, "velocity": 64, "subtype": "noteOn"  },
      { "deltaTime": 239, "channel": 9, "type": "channel", "subtype": "noteOff", "noteNumber": 35, "velocity": 0  },
      { "deltaTime": 241, "channel": 9, "type": "channel", "noteNumber": 35, "velocity": 64, "subtype": "noteOn"  },
      { "deltaTime": 239, "channel": 9, "type": "channel", "subtype": "noteOff", "noteNumber": 35, "velocity": 0  },
      { "deltaTime": 240, "channel": 9, "type": "channel", "subtype": "noteOff", "noteNumber": 56, "velocity": 0  },
      { "deltaTime": 1, "channel": 9, "type": "channel", "noteNumber": 40, "velocity": 64, "subtype": "noteOn"  },
      { "deltaTime": 0, "channel": 9, "type": "channel", "noteNumber": 56, "velocity": 64, "subtype": "noteOn"  },
      { "deltaTime": 239, "channel": 9, "type": "channel", "subtype": "noteOff", "noteNumber": 40, "velocity": 0  },
      { "deltaTime": 720, "channel": 9, "type": "channel", "subtype": "noteOff", "noteNumber": 56, "velocity": 0  },
      { "deltaTime": 1, "channel": 9, "type": "channel", "noteNumber": 35, "velocity": 64, "subtype": "noteOn"  },
      { "deltaTime": 0, "channel": 9, "type": "channel", "noteNumber": 56, "velocity": 64, "subtype": "noteOn"  },
      { "deltaTime": 239, "channel": 9, "type": "channel", "subtype": "noteOff", "noteNumber": 35, "velocity": 0  },
      { "deltaTime": 241, "channel": 9, "type": "channel", "noteNumber": 35, "velocity": 64, "subtype": "noteOn"  },
      { "deltaTime": 239, "channel": 9, "type": "channel", "subtype": "noteOff", "noteNumber": 35, "velocity": 0  },
      { "deltaTime": 240, "channel": 9, "type": "channel", "subtype": "noteOff", "noteNumber": 56, "velocity": 0  },
      { "deltaTime": 1, "channel": 9, "type": "channel", "noteNumber": 40, "velocity": 64, "subtype": "noteOn"  },
      { "deltaTime": 0, "channel": 9, "type": "channel", "noteNumber": 56, "velocity": 64, "subtype": "noteOn"  },
      { "deltaTime": 239, "channel": 9, "type": "channel", "subtype": "noteOff", "noteNumber": 40, "velocity": 0  },
      { "deltaTime": 720, "channel": 9, "type": "channel", "subtype": "noteOff", "noteNumber": 56, "velocity": 0  },
      { "deltaTime": 1, "channel": 9, "type": "channel", "noteNumber": 35, "velocity": 64, "subtype": "noteOn"  },
      { "deltaTime": 0, "channel": 9, "type": "channel", "noteNumber": 56, "velocity": 64, "subtype": "noteOn"  },
      { "deltaTime": 239, "channel": 9, "type": "channel", "subtype": "noteOff", "noteNumber": 35, "velocity": 0  },
      { "deltaTime": 241, "channel": 9, "type": "channel", "noteNumber": 35, "velocity": 64, "subtype": "noteOn"  },
      { "deltaTime": 239, "channel": 9, "type": "channel", "subtype": "noteOff", "noteNumber": 35, "velocity": 0  },
      { "deltaTime": 240, "channel": 9, "type": "channel", "subtype": "noteOff", "noteNumber": 56, "velocity": 0  },
      { "deltaTime": 1, "channel": 9, "type": "channel", "noteNumber": 40, "velocity": 64, "subtype": "noteOn"  },
      { "deltaTime": 0, "channel": 9, "type": "channel", "noteNumber": 56, "velocity": 64, "subtype": "noteOn"  },
      { "deltaTime": 239, "channel": 9, "type": "channel", "subtype": "noteOff", "noteNumber": 40, "velocity": 0  },
      { "deltaTime": 720, "channel": 9, "type": "channel", "subtype": "noteOff", "noteNumber": 56, "velocity": 0  },
      { "deltaTime": 1, "channel": 9, "type": "channel", "noteNumber": 35, "velocity": 64, "subtype": "noteOn"  },
      { "deltaTime": 0, "channel": 9, "type": "channel", "noteNumber": 56, "velocity": 64, "subtype": "noteOn"  },
      { "deltaTime": 239, "channel": 9, "type": "channel", "subtype": "noteOff", "noteNumber": 35, "velocity": 0  },
      { "deltaTime": 241, "channel": 9, "type": "channel", "noteNumber": 35, "velocity": 64, "subtype": "noteOn"  },
      { "deltaTime": 239, "channel": 9, "type": "channel", "subtype": "noteOff", "noteNumber": 35, "velocity": 0  },
      { "deltaTime": 240, "channel": 9, "type": "channel", "subtype": "noteOff", "noteNumber": 56, "velocity": 0  },
      { "deltaTime": 1, "channel": 9, "type": "channel", "noteNumber": 40, "velocity": 64, "subtype": "noteOn"  },
      { "deltaTime": 0, "channel": 9, "type": "channel", "noteNumber": 56, "velocity": 64, "subtype": "noteOn"  },
      { "deltaTime": 239, "channel": 9, "type": "channel", "subtype": "noteOff", "noteNumber": 40, "velocity": 0  },
      { "deltaTime": 720, "channel": 9, "type": "channel", "subtype": "noteOff", "noteNumber": 56, "velocity": 0  },
      { "deltaTime": 1, "channel": 9, "type": "channel", "noteNumber": 35, "velocity": 64, "subtype": "noteOn"  },
      { "deltaTime": 0, "channel": 9, "type": "channel", "noteNumber": 56, "velocity": 64, "subtype": "noteOn"  },
      { "deltaTime": 239, "channel": 9, "type": "channel", "subtype": "noteOff", "noteNumber": 35, "velocity": 0  },
      { "deltaTime": 241, "channel": 9, "type": "channel", "noteNumber": 35, "velocity": 64, "subtype": "noteOn"  },
      { "deltaTime": 239, "channel": 9, "type": "channel", "subtype": "noteOff", "noteNumber": 35, "velocity": 0  },
      { "deltaTime": 240, "channel": 9, "type": "channel", "subtype": "noteOff", "noteNumber": 56, "velocity": 0  },
      { "deltaTime": 1, "channel": 9, "type": "channel", "noteNumber": 40, "velocity": 64, "subtype": "noteOn"  },
      { "deltaTime": 0, "channel": 9, "type": "channel", "noteNumber": 56, "velocity": 64, "subtype": "noteOn"  },
      { "deltaTime": 239, "channel": 9, "type": "channel", "subtype": "noteOff", "noteNumber": 40, "velocity": 0  },
      { "deltaTime": 720, "channel": 9, "type": "channel", "subtype": "noteOff", "noteNumber": 56, "velocity": 0  },
      { "deltaTime": 1, "channel": 9, "type": "channel", "noteNumber": 35, "velocity": 64, "subtype": "noteOn"  },
      { "deltaTime": 0, "channel": 9, "type": "channel", "noteNumber": 56, "velocity": 64, "subtype": "noteOn"  },
      { "deltaTime": 239, "channel": 9, "type": "channel", "subtype": "noteOff", "noteNumber": 35, "velocity": 0  },
      { "deltaTime": 241, "channel": 9, "type": "channel", "noteNumber": 35, "velocity": 64, "subtype": "noteOn"  },
      { "deltaTime": 239, "channel": 9, "type": "channel", "subtype": "noteOff", "noteNumber": 35, "velocity": 0  },
      { "deltaTime": 240, "channel": 9, "type": "channel", "subtype": "noteOff", "noteNumber": 56, "velocity": 0  },
      { "deltaTime": 1, "channel": 9, "type": "channel", "noteNumber": 40, "velocity": 64, "subtype": "noteOn"  },
      { "deltaTime": 0, "channel": 9, "type": "channel", "noteNumber": 65, "velocity": 64, "subtype": "noteOn"  },
      { "deltaTime": 239, "channel": 9, "type": "channel", "subtype": "noteOff", "noteNumber": 40, "velocity": 0  },
      { "deltaTime": 0, "channel": 9, "type": "channel", "subtype": "noteOff", "noteNumber": 65, "velocity": 0  },
      { "deltaTime": 1, "channel": 9, "type": "channel", "noteNumber": 40, "velocity": 64, "subtype": "noteOn"  },
      { "deltaTime": 0, "channel": 9, "type": "channel", "noteNumber": 65, "velocity": 64, "subtype": "noteOn"  },
      { "deltaTime": 239, "channel": 9, "type": "channel", "subtype": "noteOff", "noteNumber": 40, "velocity": 0  },
      { "deltaTime": 0, "channel": 9, "type": "channel", "subtype": "noteOff", "noteNumber": 65, "velocity": 0  },
      { "deltaTime": 241, "channel": 9, "type": "channel", "noteNumber": 40, "velocity": 64, "subtype": "noteOn"  },
      { "deltaTime": 0, "channel": 9, "type": "channel", "noteNumber": 65, "velocity": 64, "subtype": "noteOn"  },
      { "deltaTime": 239, "channel": 9, "type": "channel", "subtype": "noteOff", "noteNumber": 40, "velocity": 0  },
      { "deltaTime": 0, "channel": 9, "type": "channel", "subtype": "noteOff", "noteNumber": 65, "velocity": 0  },
      { "deltaTime": 1, "channel": 9, "type": "channel", "noteNumber": 35, "velocity": 64, "subtype": "noteOn"  },
      { "deltaTime": 239, "channel": 9, "type": "channel", "subtype": "noteOff", "noteNumber": 35, "velocity": 0  },
      { "deltaTime": 241, "channel": 9, "type": "channel", "noteNumber": 42, "velocity": 64, "subtype": "noteOn"  },
      { "deltaTime": 239, "channel": 9, "type": "channel", "subtype": "noteOff", "noteNumber": 42, "velocity": 0  },
      { "deltaTime": 1, "channel": 9, "type": "channel", "noteNumber": 42, "velocity": 64, "subtype": "noteOn"  },
      { "deltaTime": 239, "channel": 9, "type": "channel", "subtype": "noteOff", "noteNumber": 42, "velocity": 0  },
      { "deltaTime": 1, "channel": 9, "type": "channel", "noteNumber": 40, "velocity": 64, "subtype": "noteOn"  },
      { "deltaTime": 239, "channel": 9, "type": "channel", "subtype": "noteOff", "noteNumber": 40, "velocity": 0  },
      { "deltaTime": 241, "channel": 9, "type": "channel", "noteNumber": 42, "velocity": 64, "subtype": "noteOn"  },
      { "deltaTime": 239, "channel": 9, "type": "channel", "subtype": "noteOff", "noteNumber": 42, "velocity": 0  },
      { "deltaTime": 1, "channel": 9, "type": "channel", "noteNumber": 42, "velocity": 64, "subtype": "noteOn"  },
      { "deltaTime": 239, "channel": 9, "type": "channel", "subtype": "noteOff", "noteNumber": 42, "velocity": 0  },
      { "deltaTime": 1, "channel": 9, "type": "channel", "noteNumber": 35, "velocity": 64, "subtype": "noteOn"  },
      { "deltaTime": 0, "channel": 9, "type": "channel", "noteNumber": 42, "velocity": 64, "subtype": "noteOn"  },
      { "deltaTime": 239, "channel": 9, "type": "channel", "subtype": "noteOff", "noteNumber": 35, "velocity": 0  },
      { "deltaTime": 0, "channel": 9, "type": "channel", "subtype": "noteOff", "noteNumber": 42, "velocity": 0  },
      { "deltaTime": 1, "channel": 9, "type": "channel", "noteNumber": 42, "velocity": 64, "subtype": "noteOn"  },
      { "deltaTime": 239, "channel": 9, "type": "channel", "subtype": "noteOff", "noteNumber": 42, "velocity": 0  },
      { "deltaTime": 1, "channel": 9, "type": "channel", "noteNumber": 40, "velocity": 64, "subtype": "noteOn"  },
      { "deltaTime": 0, "channel": 9, "type": "channel", "noteNumber": 56, "velocity": 64, "subtype": "noteOn"  },
      { "deltaTime": 239, "channel": 9, "type": "channel", "subtype": "noteOff", "noteNumber": 40, "velocity": 0  },
      { "deltaTime": 0, "channel": 9, "type": "channel", "subtype": "noteOff", "noteNumber": 56, "velocity": 0  },
      { "deltaTime": 1, "channel": 9, "type": "channel", "noteNumber": 56, "velocity": 64, "subtype": "noteOn"  },
      { "deltaTime": 239, "channel": 9, "type": "channel", "subtype": "noteOff", "noteNumber": 56, "velocity": 0  },
      { "deltaTime": 1, "channel": 9, "type": "channel", "noteNumber": 40, "velocity": 64, "subtype": "noteOn"  },
      { "deltaTime": 0, "channel": 9, "type": "channel", "noteNumber": 56, "velocity": 64, "subtype": "noteOn"  },
      { "deltaTime": 239, "channel": 9, "type": "channel", "subtype": "noteOff", "noteNumber": 40, "velocity": 0  },
      { "deltaTime": 0, "channel": 9, "type": "channel", "subtype": "noteOff", "noteNumber": 56, "velocity": 0  },
      { "deltaTime": 1, "channel": 9, "type": "channel", "noteNumber": 40, "velocity": 64, "subtype": "noteOn"  },
      { "deltaTime": 0, "channel": 9, "type": "channel", "noteNumber": 56, "velocity": 64, "subtype": "noteOn"  },
      { "deltaTime": 239, "channel": 9, "type": "channel", "subtype": "noteOff", "noteNumber": 40, "velocity": 0  },
      { "deltaTime": 0, "channel": 9, "type": "channel", "subtype": "noteOff", "noteNumber": 56, "velocity": 0  },
      { "deltaTime": 481, "channel": 9, "type": "channel", "noteNumber": 35, "velocity": 64, "subtype": "noteOn"  },
      { "deltaTime": 0, "channel": 9, "type": "channel", "noteNumber": 42, "velocity": 64, "subtype": "noteOn"  },
      { "deltaTime": 239, "channel": 9, "type": "channel", "subtype": "noteOff", "noteNumber": 35, "velocity": 0  },
      { "deltaTime": 0, "channel": 9, "type": "channel", "subtype": "noteOff", "noteNumber": 42, "velocity": 0  },
      { "deltaTime": 1, "channel": 9, "type": "channel", "noteNumber": 42, "velocity": 64, "subtype": "noteOn"  },
      { "deltaTime": 239, "channel": 9, "type": "channel", "subtype": "noteOff", "noteNumber": 42, "velocity": 0  },
      { "deltaTime": 1, "channel": 9, "type": "channel", "noteNumber": 42, "velocity": 64, "subtype": "noteOn"  },
      { "deltaTime": 239, "channel": 9, "type": "channel", "subtype": "noteOff", "noteNumber": 42, "velocity": 0  },
      { "deltaTime": 241, "channel": 9, "type": "channel", "noteNumber": 40, "velocity": 64, "subtype": "noteOn"  },
      { "deltaTime": 0, "channel": 9, "type": "channel", "noteNumber": 49, "velocity": 64, "subtype": "noteOn"  },
      { "deltaTime": 239, "channel": 9, "type": "channel", "subtype": "noteOff", "noteNumber": 40, "velocity": 0  },
      { "deltaTime": 0, "channel": 9, "type": "channel", "subtype": "noteOff", "noteNumber": 49, "velocity": 0  },
      { "deltaTime": 481, "channel": 9, "type": "channel", "noteNumber": 40, "velocity": 64, "subtype": "noteOn"  },
      { "deltaTime": 0, "channel": 9, "type": "channel", "noteNumber": 65, "velocity": 64, "subtype": "noteOn"  },
      { "deltaTime": 239, "channel": 9, "type": "channel", "subtype": "noteOff", "noteNumber": 40, "velocity": 0  },
      { "deltaTime": 0, "channel": 9, "type": "channel", "subtype": "noteOff", "noteNumber": 65, "velocity": 0  },
      { "deltaTime": 1, "channel": 9, "type": "channel", "noteNumber": 40, "velocity": 64, "subtype": "noteOn"  },
      { "deltaTime": 0, "channel": 9, "type": "channel", "noteNumber": 65, "velocity": 64, "subtype": "noteOn"  },
      { "deltaTime": 239, "channel": 9, "type": "channel", "subtype": "noteOff", "noteNumber": 40, "velocity": 0  },
      { "deltaTime": 0, "channel": 9, "type": "channel", "subtype": "noteOff", "noteNumber": 65, "velocity": 0  },
      { "deltaTime": 1, "channel": 9, "type": "channel", "noteNumber": 35, "velocity": 64, "subtype": "noteOn"  },
      { "deltaTime": 0, "channel": 9, "type": "channel", "noteNumber": 57, "velocity": 64, "subtype": "noteOn"  },
      { "deltaTime": 239, "channel": 9, "type": "channel", "subtype": "noteOff", "noteNumber": 35, "velocity": 0  },
      { "deltaTime": 0, "channel": 9, "type": "channel", "subtype": "noteOff", "noteNumber": 57, "velocity": 0  },
      { "deltaTime": 481, "channel": 9, "type": "channel", "noteNumber": 35, "velocity": 64, "subtype": "noteOn"  },
      { "deltaTime": 239, "channel": 9, "type": "channel", "subtype": "noteOff", "noteNumber": 35, "velocity": 0  },
      { "deltaTime": 241, "channel": 9, "type": "channel", "noteNumber": 42, "velocity": 64, "subtype": "noteOn"  },
      { "deltaTime": 239, "channel": 9, "type": "channel", "subtype": "noteOff", "noteNumber": 42, "velocity": 0  },
      { "deltaTime": 1, "channel": 9, "type": "channel", "noteNumber": 42, "velocity": 64, "subtype": "noteOn"  },
      { "deltaTime": 239, "channel": 9, "type": "channel", "subtype": "noteOff", "noteNumber": 42, "velocity": 0  },
      { "deltaTime": 1, "channel": 9, "type": "channel", "noteNumber": 40, "velocity": 64, "subtype": "noteOn"  },
      { "deltaTime": 239, "channel": 9, "type": "channel", "subtype": "noteOff", "noteNumber": 40, "velocity": 0  },
      { "deltaTime": 241, "channel": 9, "type": "channel", "noteNumber": 42, "velocity": 64, "subtype": "noteOn"  },
      { "deltaTime": 239, "channel": 9, "type": "channel", "subtype": "noteOff", "noteNumber": 42, "velocity": 0  },
      { "deltaTime": 1, "channel": 9, "type": "channel", "noteNumber": 42, "velocity": 64, "subtype": "noteOn"  },
      { "deltaTime": 239, "channel": 9, "type": "channel", "subtype": "noteOff", "noteNumber": 42, "velocity": 0  },
      { "deltaTime": 1, "channel": 9, "type": "channel", "noteNumber": 35, "velocity": 64, "subtype": "noteOn"  },
      { "deltaTime": 0, "channel": 9, "type": "channel", "noteNumber": 42, "velocity": 64, "subtype": "noteOn"  },
      { "deltaTime": 239, "channel": 9, "type": "channel", "subtype": "noteOff", "noteNumber": 35, "velocity": 0  },
      { "deltaTime": 0, "channel": 9, "type": "channel", "subtype": "noteOff", "noteNumber": 42, "velocity": 0  },
      { "deltaTime": 1, "channel": 9, "type": "channel", "noteNumber": 42, "velocity": 64, "subtype": "noteOn"  },
      { "deltaTime": 239, "channel": 9, "type": "channel", "subtype": "noteOff", "noteNumber": 42, "velocity": 0  },
      { "deltaTime": 1, "channel": 9, "type": "channel", "noteNumber": 40, "velocity": 64, "subtype": "noteOn"  },
      { "deltaTime": 0, "channel": 9, "type": "channel", "noteNumber": 56, "velocity": 64, "subtype": "noteOn"  },
      { "deltaTime": 239, "channel": 9, "type": "channel", "subtype": "noteOff", "noteNumber": 40, "velocity": 0  },
      { "deltaTime": 0, "channel": 9, "type": "channel", "subtype": "noteOff", "noteNumber": 56, "velocity": 0  },
      { "deltaTime": 1, "channel": 9, "type": "channel", "noteNumber": 56, "velocity": 64, "subtype": "noteOn"  },
      { "deltaTime": 239, "channel": 9, "type": "channel", "subtype": "noteOff", "noteNumber": 56, "velocity": 0  },
      { "deltaTime": 1, "channel": 9, "type": "channel", "noteNumber": 40, "velocity": 64, "subtype": "noteOn"  },
      { "deltaTime": 0, "channel": 9, "type": "channel", "noteNumber": 56, "velocity": 64, "subtype": "noteOn"  },
      { "deltaTime": 239, "channel": 9, "type": "channel", "subtype": "noteOff", "noteNumber": 40, "velocity": 0  },
      { "deltaTime": 0, "channel": 9, "type": "channel", "subtype": "noteOff", "noteNumber": 56, "velocity": 0  },
      { "deltaTime": 1, "channel": 9, "type": "channel", "noteNumber": 40, "velocity": 64, "subtype": "noteOn"  },
      { "deltaTime": 0, "channel": 9, "type": "channel", "noteNumber": 56, "velocity": 64, "subtype": "noteOn"  },
      { "deltaTime": 239, "channel": 9, "type": "channel", "subtype": "noteOff", "noteNumber": 40, "velocity": 0  },
      { "deltaTime": 0, "channel": 9, "type": "channel", "subtype": "noteOff", "noteNumber": 56, "velocity": 0  },
      { "deltaTime": 481, "channel": 9, "type": "channel", "noteNumber": 35, "velocity": 64, "subtype": "noteOn"  },
      { "deltaTime": 0, "channel": 9, "type": "channel", "noteNumber": 42, "velocity": 64, "subtype": "noteOn"  },
      { "deltaTime": 239, "channel": 9, "type": "channel", "subtype": "noteOff", "noteNumber": 35, "velocity": 0  },
      { "deltaTime": 0, "channel": 9, "type": "channel", "subtype": "noteOff", "noteNumber": 42, "velocity": 0  },
      { "deltaTime": 1, "channel": 9, "type": "channel", "noteNumber": 42, "velocity": 64, "subtype": "noteOn"  },
      { "deltaTime": 239, "channel": 9, "type": "channel", "subtype": "noteOff", "noteNumber": 42, "velocity": 0  },
      { "deltaTime": 1, "channel": 9, "type": "channel", "noteNumber": 42, "velocity": 64, "subtype": "noteOn"  },
      { "deltaTime": 239, "channel": 9, "type": "channel", "subtype": "noteOff", "noteNumber": 42, "velocity": 0  },
      { "deltaTime": 241, "channel": 9, "type": "channel", "noteNumber": 40, "velocity": 64, "subtype": "noteOn"  },
      { "deltaTime": 0, "channel": 9, "type": "channel", "noteNumber": 49, "velocity": 64, "subtype": "noteOn"  },
      { "deltaTime": 239, "channel": 9, "type": "channel", "subtype": "noteOff", "noteNumber": 40, "velocity": 0  },
      { "deltaTime": 0, "channel": 9, "type": "channel", "subtype": "noteOff", "noteNumber": 49, "velocity": 0  },
      { "deltaTime": 481, "channel": 9, "type": "channel", "noteNumber": 40, "velocity": 64, "subtype": "noteOn"  },
      { "deltaTime": 0, "channel": 9, "type": "channel", "noteNumber": 65, "velocity": 64, "subtype": "noteOn"  },
      { "deltaTime": 239, "channel": 9, "type": "channel", "subtype": "noteOff", "noteNumber": 40, "velocity": 0  },
      { "deltaTime": 0, "channel": 9, "type": "channel", "subtype": "noteOff", "noteNumber": 65, "velocity": 0  },
      { "deltaTime": 1, "channel": 9, "type": "channel", "noteNumber": 40, "velocity": 64, "subtype": "noteOn"  },
      { "deltaTime": 0, "channel": 9, "type": "channel", "noteNumber": 65, "velocity": 64, "subtype": "noteOn"  },
      { "deltaTime": 239, "channel": 9, "type": "channel", "subtype": "noteOff", "noteNumber": 40, "velocity": 0  },
      { "deltaTime": 0, "channel": 9, "type": "channel", "subtype": "noteOff", "noteNumber": 65, "velocity": 0  },
      { "deltaTime": 1, "channel": 9, "type": "channel", "noteNumber": 35, "velocity": 64, "subtype": "noteOn"  },
      { "deltaTime": 0, "channel": 9, "type": "channel", "noteNumber": 57, "velocity": 64, "subtype": "noteOn"  },
      { "deltaTime": 239, "channel": 9, "type": "channel", "subtype": "noteOff", "noteNumber": 35, "velocity": 0  },
      { "deltaTime": 0, "channel": 9, "type": "channel", "subtype": "noteOff", "noteNumber": 57, "velocity": 0  },
      { "deltaTime": 481, "channel": 9, "type": "channel", "noteNumber": 35, "velocity": 64, "subtype": "noteOn"  },
      { "deltaTime": 239, "channel": 9, "type": "channel", "subtype": "noteOff", "noteNumber": 35, "velocity": 0  },
      { "deltaTime": 241, "channel": 9, "type": "channel", "noteNumber": 42, "velocity": 64, "subtype": "noteOn"  },
      { "deltaTime": 239, "channel": 9, "type": "channel", "subtype": "noteOff", "noteNumber": 42, "velocity": 0  },
      { "deltaTime": 1, "channel": 9, "type": "channel", "noteNumber": 42, "velocity": 64, "subtype": "noteOn"  },
      { "deltaTime": 239, "channel": 9, "type": "channel", "subtype": "noteOff", "noteNumber": 42, "velocity": 0  },
      { "deltaTime": 1, "channel": 9, "type": "channel", "noteNumber": 40, "velocity": 64, "subtype": "noteOn"  },
      { "deltaTime": 239, "channel": 9, "type": "channel", "subtype": "noteOff", "noteNumber": 40, "velocity": 0  },
      { "deltaTime": 241, "channel": 9, "type": "channel", "noteNumber": 42, "velocity": 64, "subtype": "noteOn"  },
      { "deltaTime": 239, "channel": 9, "type": "channel", "subtype": "noteOff", "noteNumber": 42, "velocity": 0  },
      { "deltaTime": 1, "channel": 9, "type": "channel", "noteNumber": 42, "velocity": 64, "subtype": "noteOn"  },
      { "deltaTime": 239, "channel": 9, "type": "channel", "subtype": "noteOff", "noteNumber": 42, "velocity": 0  },
      { "deltaTime": 1, "channel": 9, "type": "channel", "noteNumber": 35, "velocity": 64, "subtype": "noteOn"  },
      { "deltaTime": 0, "channel": 9, "type": "channel", "noteNumber": 42, "velocity": 64, "subtype": "noteOn"  },
      { "deltaTime": 239, "channel": 9, "type": "channel", "subtype": "noteOff", "noteNumber": 35, "velocity": 0  },
      { "deltaTime": 0, "channel": 9, "type": "channel", "subtype": "noteOff", "noteNumber": 42, "velocity": 0  },
      { "deltaTime": 1, "channel": 9, "type": "channel", "noteNumber": 42, "velocity": 64, "subtype": "noteOn"  },
      { "deltaTime": 239, "channel": 9, "type": "channel", "subtype": "noteOff", "noteNumber": 42, "velocity": 0  },
      { "deltaTime": 1, "channel": 9, "type": "channel", "noteNumber": 40, "velocity": 64, "subtype": "noteOn"  },
      { "deltaTime": 0, "channel": 9, "type": "channel", "noteNumber": 56, "velocity": 64, "subtype": "noteOn"  },
      { "deltaTime": 239, "channel": 9, "type": "channel", "subtype": "noteOff", "noteNumber": 40, "velocity": 0  },
      { "deltaTime": 0, "channel": 9, "type": "channel", "subtype": "noteOff", "noteNumber": 56, "velocity": 0  },
      { "deltaTime": 1, "channel": 9, "type": "channel", "noteNumber": 56, "velocity": 64, "subtype": "noteOn"  },
      { "deltaTime": 239, "channel": 9, "type": "channel", "subtype": "noteOff", "noteNumber": 56, "velocity": 0  },
      { "deltaTime": 1, "channel": 9, "type": "channel", "noteNumber": 40, "velocity": 64, "subtype": "noteOn"  },
      { "deltaTime": 0, "channel": 9, "type": "channel", "noteNumber": 56, "velocity": 64, "subtype": "noteOn"  },
      { "deltaTime": 239, "channel": 9, "type": "channel", "subtype": "noteOff", "noteNumber": 40, "velocity": 0  },
      { "deltaTime": 0, "channel": 9, "type": "channel", "subtype": "noteOff", "noteNumber": 56, "velocity": 0  },
      { "deltaTime": 1, "channel": 9, "type": "channel", "noteNumber": 40, "velocity": 64, "subtype": "noteOn"  },
      { "deltaTime": 0, "channel": 9, "type": "channel", "noteNumber": 56, "velocity": 64, "subtype": "noteOn"  },
      { "deltaTime": 239, "channel": 9, "type": "channel", "subtype": "noteOff", "noteNumber": 40, "velocity": 0  },
      { "deltaTime": 0, "channel": 9, "type": "channel", "subtype": "noteOff", "noteNumber": 56, "velocity": 0  },
      { "deltaTime": 481, "channel": 9, "type": "channel", "noteNumber": 35, "velocity": 64, "subtype": "noteOn"  },
      { "deltaTime": 0, "channel": 9, "type": "channel", "noteNumber": 42, "velocity": 64, "subtype": "noteOn"  },
      { "deltaTime": 239, "channel": 9, "type": "channel", "subtype": "noteOff", "noteNumber": 35, "velocity": 0  },
      { "deltaTime": 0, "channel": 9, "type": "channel", "subtype": "noteOff", "noteNumber": 42, "velocity": 0  },
      { "deltaTime": 1, "channel": 9, "type": "channel", "noteNumber": 42, "velocity": 64, "subtype": "noteOn"  },
      { "deltaTime": 239, "channel": 9, "type": "channel", "subtype": "noteOff", "noteNumber": 42, "velocity": 0  },
      { "deltaTime": 1, "channel": 9, "type": "channel", "noteNumber": 42, "velocity": 64, "subtype": "noteOn"  },
      { "deltaTime": 239, "channel": 9, "type": "channel", "subtype": "noteOff", "noteNumber": 42, "velocity": 0  },
      { "deltaTime": 241, "channel": 9, "type": "channel", "noteNumber": 40, "velocity": 64, "subtype": "noteOn"  },
      { "deltaTime": 0, "channel": 9, "type": "channel", "noteNumber": 49, "velocity": 64, "subtype": "noteOn"  },
      { "deltaTime": 239, "channel": 9, "type": "channel", "subtype": "noteOff", "noteNumber": 40, "velocity": 0  },
      { "deltaTime": 0, "channel": 9, "type": "channel", "subtype": "noteOff", "noteNumber": 49, "velocity": 0  },
      { "deltaTime": 481, "channel": 9, "type": "channel", "noteNumber": 40, "velocity": 64, "subtype": "noteOn"  },
      { "deltaTime": 0, "channel": 9, "type": "channel", "noteNumber": 65, "velocity": 64, "subtype": "noteOn"  },
      { "deltaTime": 239, "channel": 9, "type": "channel", "subtype": "noteOff", "noteNumber": 40, "velocity": 0  },
      { "deltaTime": 0, "channel": 9, "type": "channel", "subtype": "noteOff", "noteNumber": 65, "velocity": 0  },
      { "deltaTime": 1, "channel": 9, "type": "channel", "noteNumber": 40, "velocity": 64, "subtype": "noteOn"  },
      { "deltaTime": 0, "channel": 9, "type": "channel", "noteNumber": 65, "velocity": 64, "subtype": "noteOn"  },
      { "deltaTime": 239, "channel": 9, "type": "channel", "subtype": "noteOff", "noteNumber": 40, "velocity": 0  },
      { "deltaTime": 0, "channel": 9, "type": "channel", "subtype": "noteOff", "noteNumber": 65, "velocity": 0  },
      { "deltaTime": 1, "channel": 9, "type": "channel", "noteNumber": 35, "velocity": 64, "subtype": "noteOn"  },
      { "deltaTime": 0, "channel": 9, "type": "channel", "noteNumber": 57, "velocity": 64, "subtype": "noteOn"  },
      { "deltaTime": 239, "channel": 9, "type": "channel", "subtype": "noteOff", "noteNumber": 35, "velocity": 0  },
      { "deltaTime": 0, "channel": 9, "type": "channel", "subtype": "noteOff", "noteNumber": 57, "velocity": 0  },
      { "deltaTime": 481, "channel": 9, "type": "channel", "noteNumber": 35, "velocity": 64, "subtype": "noteOn"  },
      { "deltaTime": 239, "channel": 9, "type": "channel", "subtype": "noteOff", "noteNumber": 35, "velocity": 0  },
      { "deltaTime": 241, "channel": 9, "type": "channel", "noteNumber": 42, "velocity": 64, "subtype": "noteOn"  },
      { "deltaTime": 239, "channel": 9, "type": "channel", "subtype": "noteOff", "noteNumber": 42, "velocity": 0  },
      { "deltaTime": 1, "channel": 9, "type": "channel", "noteNumber": 42, "velocity": 64, "subtype": "noteOn"  },
      { "deltaTime": 239, "channel": 9, "type": "channel", "subtype": "noteOff", "noteNumber": 42, "velocity": 0  },
      { "deltaTime": 1, "channel": 9, "type": "channel", "noteNumber": 40, "velocity": 64, "subtype": "noteOn"  },
      { "deltaTime": 239, "channel": 9, "type": "channel", "subtype": "noteOff", "noteNumber": 40, "velocity": 0  },
      { "deltaTime": 241, "channel": 9, "type": "channel", "noteNumber": 42, "velocity": 64, "subtype": "noteOn"  },
      { "deltaTime": 239, "channel": 9, "type": "channel", "subtype": "noteOff", "noteNumber": 42, "velocity": 0  },
      { "deltaTime": 1, "channel": 9, "type": "channel", "noteNumber": 42, "velocity": 64, "subtype": "noteOn"  },
      { "deltaTime": 239, "channel": 9, "type": "channel", "subtype": "noteOff", "noteNumber": 42, "velocity": 0  },
      { "deltaTime": 1, "channel": 9, "type": "channel", "noteNumber": 35, "velocity": 64, "subtype": "noteOn"  },
      { "deltaTime": 0, "channel": 9, "type": "channel", "noteNumber": 42, "velocity": 64, "subtype": "noteOn"  },
      { "deltaTime": 239, "channel": 9, "type": "channel", "subtype": "noteOff", "noteNumber": 35, "velocity": 0  },
      { "deltaTime": 0, "channel": 9, "type": "channel", "subtype": "noteOff", "noteNumber": 42, "velocity": 0  },
      { "deltaTime": 1, "channel": 9, "type": "channel", "noteNumber": 42, "velocity": 64, "subtype": "noteOn"  },
      { "deltaTime": 239, "channel": 9, "type": "channel", "subtype": "noteOff", "noteNumber": 42, "velocity": 0  },
      { "deltaTime": 1, "channel": 9, "type": "channel", "noteNumber": 40, "velocity": 64, "subtype": "noteOn"  },
      { "deltaTime": 0, "channel": 9, "type": "channel", "noteNumber": 56, "velocity": 64, "subtype": "noteOn"  },
      { "deltaTime": 239, "channel": 9, "type": "channel", "subtype": "noteOff", "noteNumber": 40, "velocity": 0  },
      { "deltaTime": 0, "channel": 9, "type": "channel", "subtype": "noteOff", "noteNumber": 56, "velocity": 0  },
      { "deltaTime": 1, "channel": 9, "type": "channel", "noteNumber": 56, "velocity": 64, "subtype": "noteOn"  },
      { "deltaTime": 239, "channel": 9, "type": "channel", "subtype": "noteOff", "noteNumber": 56, "velocity": 0  },
      { "deltaTime": 1, "channel": 9, "type": "channel", "noteNumber": 40, "velocity": 64, "subtype": "noteOn"  },
      { "deltaTime": 0, "channel": 9, "type": "channel", "noteNumber": 56, "velocity": 64, "subtype": "noteOn"  },
      { "deltaTime": 239, "channel": 9, "type": "channel", "subtype": "noteOff", "noteNumber": 40, "velocity": 0  },
      { "deltaTime": 0, "channel": 9, "type": "channel", "subtype": "noteOff", "noteNumber": 56, "velocity": 0  },
      { "deltaTime": 1, "channel": 9, "type": "channel", "noteNumber": 40, "velocity": 64, "subtype": "noteOn"  },
      { "deltaTime": 0, "channel": 9, "type": "channel", "noteNumber": 56, "velocity": 64, "subtype": "noteOn"  },
      { "deltaTime": 239, "channel": 9, "type": "channel", "subtype": "noteOff", "noteNumber": 40, "velocity": 0  },
      { "deltaTime": 0, "channel": 9, "type": "channel", "subtype": "noteOff", "noteNumber": 56, "velocity": 0  },
      { "deltaTime": 481, "channel": 9, "type": "channel", "noteNumber": 35, "velocity": 64, "subtype": "noteOn"  },
      { "deltaTime": 0, "channel": 9, "type": "channel", "noteNumber": 42, "velocity": 64, "subtype": "noteOn"  },
      { "deltaTime": 239, "channel": 9, "type": "channel", "subtype": "noteOff", "noteNumber": 35, "velocity": 0  },
      { "deltaTime": 0, "channel": 9, "type": "channel", "subtype": "noteOff", "noteNumber": 42, "velocity": 0  },
      { "deltaTime": 1, "channel": 9, "type": "channel", "noteNumber": 42, "velocity": 64, "subtype": "noteOn"  },
      { "deltaTime": 239, "channel": 9, "type": "channel", "subtype": "noteOff", "noteNumber": 42, "velocity": 0  },
      { "deltaTime": 1, "channel": 9, "type": "channel", "noteNumber": 42, "velocity": 64, "subtype": "noteOn"  },
      { "deltaTime": 239, "channel": 9, "type": "channel", "subtype": "noteOff", "noteNumber": 42, "velocity": 0  },
      { "deltaTime": 241, "channel": 9, "type": "channel", "noteNumber": 40, "velocity": 64, "subtype": "noteOn"  },
      { "deltaTime": 0, "channel": 9, "type": "channel", "noteNumber": 49, "velocity": 64, "subtype": "noteOn"  },
      { "deltaTime": 239, "channel": 9, "type": "channel", "subtype": "noteOff", "noteNumber": 40, "velocity": 0  },
      { "deltaTime": 0, "channel": 9, "type": "channel", "subtype": "noteOff", "noteNumber": 49, "velocity": 0  },
      { "deltaTime": 481, "channel": 9, "type": "channel", "noteNumber": 40, "velocity": 64, "subtype": "noteOn"  },
      { "deltaTime": 0, "channel": 9, "type": "channel", "noteNumber": 65, "velocity": 64, "subtype": "noteOn"  },
      { "deltaTime": 239, "channel": 9, "type": "channel", "subtype": "noteOff", "noteNumber": 40, "velocity": 0  },
      { "deltaTime": 0, "channel": 9, "type": "channel", "subtype": "noteOff", "noteNumber": 65, "velocity": 0  },
      { "deltaTime": 1, "channel": 9, "type": "channel", "noteNumber": 40, "velocity": 64, "subtype": "noteOn"  },
      { "deltaTime": 0, "channel": 9, "type": "channel", "noteNumber": 65, "velocity": 64, "subtype": "noteOn"  },
      { "deltaTime": 239, "channel": 9, "type": "channel", "subtype": "noteOff", "noteNumber": 40, "velocity": 0  },
      { "deltaTime": 0, "channel": 9, "type": "channel", "subtype": "noteOff", "noteNumber": 65, "velocity": 0  },
      { "deltaTime": 1, "channel": 9, "type": "channel", "noteNumber": 35, "velocity": 64, "subtype": "noteOn"  },
      { "deltaTime": 0, "channel": 9, "type": "channel", "noteNumber": 57, "velocity": 64, "subtype": "noteOn"  },
      { "deltaTime": 239, "channel": 9, "type": "channel", "subtype": "noteOff", "noteNumber": 35, "velocity": 0  },
      { "deltaTime": 0, "channel": 9, "type": "channel", "subtype": "noteOff", "noteNumber": 57, "velocity": 0  },
      { "deltaTime": 481, "channel": 9, "type": "channel", "noteNumber": 41, "velocity": 64, "subtype": "noteOn"  },
      { "deltaTime": 0, "channel": 9, "type": "channel", "noteNumber": 43, "velocity": 64, "subtype": "noteOn"  },
      { "deltaTime": 239, "channel": 9, "type": "channel", "subtype": "noteOff", "noteNumber": 41, "velocity": 0  },
      { "deltaTime": 0, "channel": 9, "type": "channel", "subtype": "noteOff", "noteNumber": 43, "velocity": 0  },
      { "deltaTime": 721, "channel": 9, "type": "channel", "noteNumber": 42, "velocity": 64, "subtype": "noteOn"  },
      { "deltaTime": 239, "channel": 9, "type": "channel", "subtype": "noteOff", "noteNumber": 42, "velocity": 0  },
      { "deltaTime": 1681, "channel": 9, "type": "channel", "noteNumber": 42, "velocity": 64, "subtype": "noteOn"  },
      { "deltaTime": 239, "channel": 9, "type": "channel", "subtype": "noteOff", "noteNumber": 42, "velocity": 0  },
      { "deltaTime": 1681, "channel": 9, "type": "channel", "noteNumber": 42, "velocity": 64, "subtype": "noteOn"  },
      { "deltaTime": 239, "channel": 9, "type": "channel", "subtype": "noteOff", "noteNumber": 42, "velocity": 0  },
      { "deltaTime": 1681, "channel": 9, "type": "channel", "noteNumber": 42, "velocity": 64, "subtype": "noteOn"  },
      { "deltaTime": 0, "channel": 9, "type": "channel", "noteNumber": 46, "velocity": 64, "subtype": "noteOn"  },
      { "deltaTime": 239, "channel": 9, "type": "channel", "subtype": "noteOff", "noteNumber": 42, "velocity": 0  },
      { "deltaTime": 0, "channel": 9, "type": "channel", "subtype": "noteOff", "noteNumber": 46, "velocity": 0  },
      { "deltaTime": 121, "channel": 9, "type": "channel", "noteNumber": 44, "velocity": 64, "subtype": "noteOn"  },
      { "deltaTime": 239, "channel": 9, "type": "channel", "subtype": "noteOff", "noteNumber": 44, "velocity": 0  },
      { "deltaTime": 1321, "channel": 9, "type": "channel", "noteNumber": 42, "velocity": 64, "subtype": "noteOn"  },
      { "deltaTime": 239, "channel": 9, "type": "channel", "subtype": "noteOff", "noteNumber": 42, "velocity": 0  },
      { "deltaTime": 1681, "channel": 9, "type": "channel", "noteNumber": 42, "velocity": 64, "subtype": "noteOn"  },
      { "deltaTime": 239, "channel": 9, "type": "channel", "subtype": "noteOff", "noteNumber": 42, "velocity": 0  },
      { "deltaTime": 1441, "channel": 9, "type": "channel", "noteNumber": 77, "velocity": 64, "subtype": "noteOn"  },
      { "deltaTime": 239, "channel": 9, "type": "channel", "subtype": "noteOff", "noteNumber": 77, "velocity": 0  },
      { "deltaTime": 1, "channel": 9, "type": "channel", "noteNumber": 77, "velocity": 64, "subtype": "noteOn"  },
      { "deltaTime": 239, "channel": 9, "type": "channel", "subtype": "noteOff", "noteNumber": 77, "velocity": 0  },
      { "deltaTime": 1, "channel": 9, "type": "channel", "noteNumber": 77, "velocity": 64, "subtype": "noteOn"  },
      { "deltaTime": 239, "channel": 9, "type": "channel", "subtype": "noteOff", "noteNumber": 77, "velocity": 0  },
      { "deltaTime": 1, "channel": 9, "type": "channel", "noteNumber": 77, "velocity": 64, "subtype": "noteOn"  },
      { "deltaTime": 239, "channel": 9, "type": "channel", "subtype": "noteOff", "noteNumber": 77, "velocity": 0  },
      { "deltaTime": 241, "channel": 9, "type": "channel", "noteNumber": 35, "velocity": 64, "subtype": "noteOn"  },
      { "deltaTime": 0, "channel": 9, "type": "channel", "noteNumber": 57, "velocity": 64, "subtype": "noteOn"  },
      { "deltaTime": 239, "channel": 9, "type": "channel", "subtype": "noteOff", "noteNumber": 35, "velocity": 0  },
      { "deltaTime": 0, "channel": 9, "type": "channel", "subtype": "noteOff", "noteNumber": 57, "velocity": 0  },
      { "deltaTime": 241, "channel": 9, "type": "channel", "noteNumber": 35, "velocity": 64, "subtype": "noteOn"  },
      { "deltaTime": 239, "channel": 9, "type": "channel", "subtype": "noteOff", "noteNumber": 35, "velocity": 0  },
      { "deltaTime": 241, "channel": 9, "type": "channel", "noteNumber": 40, "velocity": 64, "subtype": "noteOn"  },
      { "deltaTime": 239, "channel": 9, "type": "channel", "subtype": "noteOff", "noteNumber": 40, "velocity": 0  },
      { "deltaTime": 721, "channel": 9, "type": "channel", "noteNumber": 35, "velocity": 64, "subtype": "noteOn"  },
      { "deltaTime": 239, "channel": 9, "type": "channel", "subtype": "noteOff", "noteNumber": 35, "velocity": 0  },
      { "deltaTime": 241, "channel": 9, "type": "channel", "noteNumber": 35, "velocity": 64, "subtype": "noteOn"  },
      { "deltaTime": 239, "channel": 9, "type": "channel", "subtype": "noteOff", "noteNumber": 35, "velocity": 0  },
      { "deltaTime": 241, "channel": 9, "type": "channel", "noteNumber": 40, "velocity": 64, "subtype": "noteOn"  },
      { "deltaTime": 239, "channel": 9, "type": "channel", "subtype": "noteOff", "noteNumber": 40, "velocity": 0  },
      { "deltaTime": 721, "channel": 9, "type": "channel", "noteNumber": 35, "velocity": 64, "subtype": "noteOn"  },
      { "deltaTime": 239, "channel": 9, "type": "channel", "subtype": "noteOff", "noteNumber": 35, "velocity": 0  },
      { "deltaTime": 241, "channel": 9, "type": "channel", "noteNumber": 35, "velocity": 64, "subtype": "noteOn"  },
      { "deltaTime": 239, "channel": 9, "type": "channel", "subtype": "noteOff", "noteNumber": 35, "velocity": 0  },
      { "deltaTime": 241, "channel": 9, "type": "channel", "noteNumber": 40, "velocity": 64, "subtype": "noteOn"  },
      { "deltaTime": 239, "channel": 9, "type": "channel", "subtype": "noteOff", "noteNumber": 40, "velocity": 0  },
      { "deltaTime": 721, "channel": 9, "type": "channel", "noteNumber": 35, "velocity": 64, "subtype": "noteOn"  },
      { "deltaTime": 239, "channel": 9, "type": "channel", "subtype": "noteOff", "noteNumber": 35, "velocity": 0  },
      { "deltaTime": 241, "channel": 9, "type": "channel", "noteNumber": 35, "velocity": 64, "subtype": "noteOn"  },
      { "deltaTime": 239, "channel": 9, "type": "channel", "subtype": "noteOff", "noteNumber": 35, "velocity": 0  },
      { "deltaTime": 241, "channel": 9, "type": "channel", "noteNumber": 40, "velocity": 64, "subtype": "noteOn"  },
      { "deltaTime": 239, "channel": 9, "type": "channel", "subtype": "noteOff", "noteNumber": 40, "velocity": 0  },
      { "deltaTime": 721, "channel": 9, "type": "channel", "noteNumber": 35, "velocity": 64, "subtype": "noteOn"  },
      { "deltaTime": 239, "channel": 9, "type": "channel", "subtype": "noteOff", "noteNumber": 35, "velocity": 0  },
      { "deltaTime": 241, "channel": 9, "type": "channel", "noteNumber": 35, "velocity": 64, "subtype": "noteOn"  },
      { "deltaTime": 239, "channel": 9, "type": "channel", "subtype": "noteOff", "noteNumber": 35, "velocity": 0  },
      { "deltaTime": 241, "channel": 9, "type": "channel", "noteNumber": 40, "velocity": 64, "subtype": "noteOn"  },
      { "deltaTime": 239, "channel": 9, "type": "channel", "subtype": "noteOff", "noteNumber": 40, "velocity": 0  },
      { "deltaTime": 721, "channel": 9, "type": "channel", "noteNumber": 35, "velocity": 64, "subtype": "noteOn"  },
      { "deltaTime": 239, "channel": 9, "type": "channel", "subtype": "noteOff", "noteNumber": 35, "velocity": 0  },
      { "deltaTime": 241, "channel": 9, "type": "channel", "noteNumber": 35, "velocity": 64, "subtype": "noteOn"  },
      { "deltaTime": 239, "channel": 9, "type": "channel", "subtype": "noteOff", "noteNumber": 35, "velocity": 0  },
      { "deltaTime": 241, "channel": 9, "type": "channel", "noteNumber": 40, "velocity": 64, "subtype": "noteOn"  },
      { "deltaTime": 239, "channel": 9, "type": "channel", "subtype": "noteOff", "noteNumber": 40, "velocity": 0  },
      { "deltaTime": 721, "channel": 9, "type": "channel", "noteNumber": 35, "velocity": 64, "subtype": "noteOn"  },
      { "deltaTime": 239, "channel": 9, "type": "channel", "subtype": "noteOff", "noteNumber": 35, "velocity": 0  },
      { "deltaTime": 241, "channel": 9, "type": "channel", "noteNumber": 35, "velocity": 64, "subtype": "noteOn"  },
      { "deltaTime": 239, "channel": 9, "type": "channel", "subtype": "noteOff", "noteNumber": 35, "velocity": 0  },
      { "deltaTime": 241, "channel": 9, "type": "channel", "noteNumber": 40, "velocity": 64, "subtype": "noteOn"  },
      { "deltaTime": 0, "channel": 9, "type": "channel", "noteNumber": 65, "velocity": 64, "subtype": "noteOn"  },
      { "deltaTime": 239, "channel": 9, "type": "channel", "subtype": "noteOff", "noteNumber": 40, "velocity": 0  },
      { "deltaTime": 0, "channel": 9, "type": "channel", "subtype": "noteOff", "noteNumber": 65, "velocity": 0  },
      { "deltaTime": 1, "channel": 9, "type": "channel", "noteNumber": 40, "velocity": 64, "subtype": "noteOn"  },
      { "deltaTime": 0, "channel": 9, "type": "channel", "noteNumber": 65, "velocity": 64, "subtype": "noteOn"  },
      { "deltaTime": 239, "channel": 9, "type": "channel", "subtype": "noteOff", "noteNumber": 40, "velocity": 0  },
      { "deltaTime": 0, "channel": 9, "type": "channel", "subtype": "noteOff", "noteNumber": 65, "velocity": 0  },
      { "deltaTime": 241, "channel": 9, "type": "channel", "noteNumber": 40, "velocity": 64, "subtype": "noteOn"  },
      { "deltaTime": 0, "channel": 9, "type": "channel", "noteNumber": 65, "velocity": 64, "subtype": "noteOn"  },
      { "deltaTime": 239, "channel": 9, "type": "channel", "subtype": "noteOff", "noteNumber": 40, "velocity": 0  },
      { "deltaTime": 0, "channel": 9, "type": "channel", "subtype": "noteOff", "noteNumber": 65, "velocity": 0  },
      { "deltaTime": 1, "channel": 9, "type": "channel", "noteNumber": 46, "velocity": 64, "subtype": "noteOn"  },
      { "deltaTime": 119, "channel": 9, "type": "channel", "subtype": "noteOff", "noteNumber": 46, "velocity": 0  },
      { "deltaTime": 361, "channel": 9, "type": "channel", "noteNumber": 44, "velocity": 64, "subtype": "noteOn"  },
      { "deltaTime": 119, "channel": 9, "type": "channel", "subtype": "noteOff", "noteNumber": 44, "velocity": 0  },
      { "deltaTime": 13801, "channel": 9, "type": "channel", "subtype": "controller", "controllerType": 7, "value": 127  },
      { "deltaTime": 1200, "channel": 9, "type": "channel", "noteNumber": 40, "velocity": 3, "subtype": "noteOn"  },
      { "deltaTime": 239, "channel": 9, "type": "channel", "subtype": "noteOff", "noteNumber": 40, "velocity": 0  },
      { "deltaTime": 1, "channel": 9, "type": "channel", "noteNumber": 40, "velocity": 6, "subtype": "noteOn"  },
      { "deltaTime": 239, "channel": 9, "type": "channel", "subtype": "noteOff", "noteNumber": 40, "velocity": 0  },
      { "deltaTime": 1, "channel": 9, "type": "channel", "noteNumber": 40, "velocity": 9, "subtype": "noteOn"  },
      { "deltaTime": 239, "channel": 9, "type": "channel", "subtype": "noteOff", "noteNumber": 40, "velocity": 0  },
      { "deltaTime": 1, "channel": 9, "type": "channel", "noteNumber": 40, "velocity": 12, "subtype": "noteOn"  },
      { "deltaTime": 239, "channel": 9, "type": "channel", "subtype": "noteOff", "noteNumber": 40, "velocity": 0  },
      { "deltaTime": 1, "channel": 9, "type": "channel", "noteNumber": 40, "velocity": 15, "subtype": "noteOn"  },
      { "deltaTime": 239, "channel": 9, "type": "channel", "subtype": "noteOff", "noteNumber": 40, "velocity": 0  },
      { "deltaTime": 1, "channel": 9, "type": "channel", "noteNumber": 40, "velocity": 18, "subtype": "noteOn"  },
      { "deltaTime": 239, "channel": 9, "type": "channel", "subtype": "noteOff", "noteNumber": 40, "velocity": 0  },
      { "deltaTime": 1, "channel": 9, "type": "channel", "noteNumber": 40, "velocity": 21, "subtype": "noteOn"  },
      { "deltaTime": 239, "channel": 9, "type": "channel", "subtype": "noteOff", "noteNumber": 40, "velocity": 0  },
      { "deltaTime": 1, "channel": 9, "type": "channel", "noteNumber": 40, "velocity": 24, "subtype": "noteOn"  },
      { "deltaTime": 239, "channel": 9, "type": "channel", "subtype": "noteOff", "noteNumber": 40, "velocity": 0  },
      { "deltaTime": 1, "channel": 9, "type": "channel", "noteNumber": 40, "velocity": 27, "subtype": "noteOn"  },
      { "deltaTime": 239, "channel": 9, "type": "channel", "subtype": "noteOff", "noteNumber": 40, "velocity": 0  },
      { "deltaTime": 1, "channel": 9, "type": "channel", "noteNumber": 40, "velocity": 30, "subtype": "noteOn"  },
      { "deltaTime": 239, "channel": 9, "type": "channel", "subtype": "noteOff", "noteNumber": 40, "velocity": 0  },
      { "deltaTime": 1, "channel": 9, "type": "channel", "noteNumber": 40, "velocity": 33, "subtype": "noteOn"  },
      { "deltaTime": 239, "channel": 9, "type": "channel", "subtype": "noteOff", "noteNumber": 40, "velocity": 0  },
      { "deltaTime": 1, "channel": 9, "type": "channel", "noteNumber": 40, "velocity": 36, "subtype": "noteOn"  },
      { "deltaTime": 239, "channel": 9, "type": "channel", "subtype": "noteOff", "noteNumber": 40, "velocity": 0  },
      { "deltaTime": 1, "channel": 9, "type": "channel", "noteNumber": 40, "velocity": 39, "subtype": "noteOn"  },
      { "deltaTime": 239, "channel": 9, "type": "channel", "subtype": "noteOff", "noteNumber": 40, "velocity": 0  },
      { "deltaTime": 1, "channel": 9, "type": "channel", "noteNumber": 40, "velocity": 42, "subtype": "noteOn"  },
      { "deltaTime": 239, "channel": 9, "type": "channel", "subtype": "noteOff", "noteNumber": 40, "velocity": 0  },
      { "deltaTime": 1, "channel": 9, "type": "channel", "noteNumber": 40, "velocity": 45, "subtype": "noteOn"  },
      { "deltaTime": 239, "channel": 9, "type": "channel", "subtype": "noteOff", "noteNumber": 40, "velocity": 0  },
      { "deltaTime": 1, "channel": 9, "type": "channel", "noteNumber": 40, "velocity": 48, "subtype": "noteOn"  },
      { "deltaTime": 239, "channel": 9, "type": "channel", "subtype": "noteOff", "noteNumber": 40, "velocity": 0  },
      { "deltaTime": 1, "channel": 9, "type": "channel", "noteNumber": 40, "velocity": 51, "subtype": "noteOn"  },
      { "deltaTime": 239, "channel": 9, "type": "channel", "subtype": "noteOff", "noteNumber": 40, "velocity": 0  },
      { "deltaTime": 1, "channel": 9, "type": "channel", "noteNumber": 40, "velocity": 54, "subtype": "noteOn"  },
      { "deltaTime": 239, "channel": 9, "type": "channel", "subtype": "noteOff", "noteNumber": 40, "velocity": 0  },
      { "deltaTime": 1, "channel": 9, "type": "channel", "noteNumber": 40, "velocity": 57, "subtype": "noteOn"  },
      { "deltaTime": 239, "channel": 9, "type": "channel", "subtype": "noteOff", "noteNumber": 40, "velocity": 0  },
      { "deltaTime": 1, "channel": 9, "type": "channel", "noteNumber": 46, "velocity": 64, "subtype": "noteOn"  },
      { "deltaTime": 0, "channel": 9, "type": "channel", "noteNumber": 49, "velocity": 64, "subtype": "noteOn"  },
      { "deltaTime": 20, "channel": 9, "type": "channel", "subtype": "controller", "controllerType": 7, "value": 127  },
      { "deltaTime": 219, "channel": 9, "type": "channel", "subtype": "noteOff", "noteNumber": 49, "velocity": 0  },
      { "deltaTime": 241, "channel": 9, "type": "channel", "noteNumber": 44, "velocity": 64, "subtype": "noteOn"  },
      { "deltaTime": 239, "channel": 9, "type": "channel", "subtype": "noteOff", "noteNumber": 44, "velocity": 0  },
      { "deltaTime": 240, "channel": 9, "type": "channel", "subtype": "noteOff", "noteNumber": 46, "velocity": 0  },
      { "deltaTime": 1201, "channel": 9, "type": "channel", "noteNumber": 40, "velocity": 3, "subtype": "noteOn"  },
      { "deltaTime": 239, "channel": 9, "type": "channel", "subtype": "noteOff", "noteNumber": 40, "velocity": 0  },
      { "deltaTime": 1, "channel": 9, "type": "channel", "noteNumber": 40, "velocity": 6, "subtype": "noteOn"  },
      { "deltaTime": 239, "channel": 9, "type": "channel", "subtype": "noteOff", "noteNumber": 40, "velocity": 0  },
      { "deltaTime": 1, "channel": 9, "type": "channel", "noteNumber": 40, "velocity": 9, "subtype": "noteOn"  },
      { "deltaTime": 239, "channel": 9, "type": "channel", "subtype": "noteOff", "noteNumber": 40, "velocity": 0  },
      { "deltaTime": 1, "channel": 9, "type": "channel", "noteNumber": 40, "velocity": 12, "subtype": "noteOn"  },
      { "deltaTime": 239, "channel": 9, "type": "channel", "subtype": "noteOff", "noteNumber": 40, "velocity": 0  },
      { "deltaTime": 1, "channel": 9, "type": "channel", "noteNumber": 40, "velocity": 15, "subtype": "noteOn"  },
      { "deltaTime": 239, "channel": 9, "type": "channel", "subtype": "noteOff", "noteNumber": 40, "velocity": 0  },
      { "deltaTime": 1, "channel": 9, "type": "channel", "noteNumber": 40, "velocity": 18, "subtype": "noteOn"  },
      { "deltaTime": 239, "channel": 9, "type": "channel", "subtype": "noteOff", "noteNumber": 40, "velocity": 0  },
      { "deltaTime": 1, "channel": 9, "type": "channel", "noteNumber": 40, "velocity": 21, "subtype": "noteOn"  },
      { "deltaTime": 239, "channel": 9, "type": "channel", "subtype": "noteOff", "noteNumber": 40, "velocity": 0  },
      { "deltaTime": 1, "channel": 9, "type": "channel", "noteNumber": 40, "velocity": 24, "subtype": "noteOn"  },
      { "deltaTime": 239, "channel": 9, "type": "channel", "subtype": "noteOff", "noteNumber": 40, "velocity": 0  },
      { "deltaTime": 1, "channel": 9, "type": "channel", "noteNumber": 40, "velocity": 27, "subtype": "noteOn"  },
      { "deltaTime": 239, "channel": 9, "type": "channel", "subtype": "noteOff", "noteNumber": 40, "velocity": 0  },
      { "deltaTime": 1, "channel": 9, "type": "channel", "noteNumber": 40, "velocity": 30, "subtype": "noteOn"  },
      { "deltaTime": 239, "channel": 9, "type": "channel", "subtype": "noteOff", "noteNumber": 40, "velocity": 0  },
      { "deltaTime": 1, "channel": 9, "type": "channel", "noteNumber": 40, "velocity": 33, "subtype": "noteOn"  },
      { "deltaTime": 239, "channel": 9, "type": "channel", "subtype": "noteOff", "noteNumber": 40, "velocity": 0  },
      { "deltaTime": 1, "channel": 9, "type": "channel", "noteNumber": 40, "velocity": 36, "subtype": "noteOn"  },
      { "deltaTime": 239, "channel": 9, "type": "channel", "subtype": "noteOff", "noteNumber": 40, "velocity": 0  },
      { "deltaTime": 1, "channel": 9, "type": "channel", "noteNumber": 40, "velocity": 39, "subtype": "noteOn"  },
      { "deltaTime": 239, "channel": 9, "type": "channel", "subtype": "noteOff", "noteNumber": 40, "velocity": 0  },
      { "deltaTime": 1, "channel": 9, "type": "channel", "noteNumber": 40, "velocity": 42, "subtype": "noteOn"  },
      { "deltaTime": 239, "channel": 9, "type": "channel", "subtype": "noteOff", "noteNumber": 40, "velocity": 0  },
      { "deltaTime": 1, "channel": 9, "type": "channel", "noteNumber": 40, "velocity": 45, "subtype": "noteOn"  },
      { "deltaTime": 239, "channel": 9, "type": "channel", "subtype": "noteOff", "noteNumber": 40, "velocity": 0  },
      { "deltaTime": 1, "channel": 9, "type": "channel", "noteNumber": 40, "velocity": 48, "subtype": "noteOn"  },
      { "deltaTime": 0, "channel": 9, "type": "channel", "noteNumber": 65, "velocity": 48, "subtype": "noteOn"  },
      { "deltaTime": 239, "channel": 9, "type": "channel", "subtype": "noteOff", "noteNumber": 40, "velocity": 0  },
      { "deltaTime": 0, "channel": 9, "type": "channel", "subtype": "noteOff", "noteNumber": 65, "velocity": 0  },
      { "deltaTime": 1, "channel": 9, "type": "channel", "noteNumber": 40, "velocity": 51, "subtype": "noteOn"  },
      { "deltaTime": 0, "channel": 9, "type": "channel", "noteNumber": 65, "velocity": 51, "subtype": "noteOn"  },
      { "deltaTime": 239, "channel": 9, "type": "channel", "subtype": "noteOff", "noteNumber": 40, "velocity": 0  },
      { "deltaTime": 0, "channel": 9, "type": "channel", "subtype": "noteOff", "noteNumber": 65, "velocity": 0  },
      { "deltaTime": 1, "channel": 9, "type": "channel", "noteNumber": 40, "velocity": 54, "subtype": "noteOn"  },
      { "deltaTime": 0, "channel": 9, "type": "channel", "noteNumber": 65, "velocity": 54, "subtype": "noteOn"  },
      { "deltaTime": 239, "channel": 9, "type": "channel", "subtype": "noteOff", "noteNumber": 40, "velocity": 0  },
      { "deltaTime": 0, "channel": 9, "type": "channel", "subtype": "noteOff", "noteNumber": 65, "velocity": 0  },
      { "deltaTime": 1, "channel": 9, "type": "channel", "noteNumber": 40, "velocity": 57, "subtype": "noteOn"  },
      { "deltaTime": 0, "channel": 9, "type": "channel", "noteNumber": 65, "velocity": 57, "subtype": "noteOn"  },
      { "deltaTime": 239, "channel": 9, "type": "channel", "subtype": "noteOff", "noteNumber": 40, "velocity": 0  },
      { "deltaTime": 0, "channel": 9, "type": "channel", "subtype": "noteOff", "noteNumber": 65, "velocity": 0  },
      { "deltaTime": 1, "channel": 9, "type": "channel", "noteNumber": 35, "velocity": 64, "subtype": "noteOn"  },
      { "deltaTime": 0, "channel": 9, "type": "channel", "noteNumber": 49, "velocity": 64, "subtype": "noteOn"  },
      { "deltaTime": 239, "channel": 9, "type": "channel", "subtype": "noteOff", "noteNumber": 35, "velocity": 0  },
      { "deltaTime": 0, "channel": 9, "type": "channel", "subtype": "noteOff", "noteNumber": 49, "velocity": 0  },
      { "deltaTime": 241, "channel": 9, "type": "channel", "noteNumber": 35, "velocity": 64, "subtype": "noteOn"  },
      { "deltaTime": 0, "channel": 9, "type": "channel", "noteNumber": 42, "velocity": 64, "subtype": "noteOn"  },
      { "deltaTime": 479, "channel": 9, "type": "channel", "subtype": "noteOff", "noteNumber": 35, "velocity": 0  },
      { "deltaTime": 0, "channel": 9, "type": "channel", "subtype": "noteOff", "noteNumber": 42, "velocity": 0  },
      { "deltaTime": 1, "channel": 9, "type": "channel", "noteNumber": 40, "velocity": 64, "subtype": "noteOn"  },
      { "deltaTime": 0, "channel": 9, "type": "channel", "noteNumber": 42, "velocity": 64, "subtype": "noteOn"  },
      { "deltaTime": 479, "channel": 9, "type": "channel", "subtype": "noteOff", "noteNumber": 40, "velocity": 0  },
      { "deltaTime": 0, "channel": 9, "type": "channel", "subtype": "noteOff", "noteNumber": 42, "velocity": 0  },
      { "deltaTime": 1, "channel": 9, "type": "channel", "noteNumber": 42, "velocity": 64, "subtype": "noteOn"  },
      { "deltaTime": 240, "channel": 9, "type": "channel", "noteNumber": 35, "velocity": 64, "subtype": "noteOn"  },
      { "deltaTime": 239, "channel": 9, "type": "channel", "subtype": "noteOff", "noteNumber": 42, "velocity": 0  },
      { "deltaTime": 1, "channel": 9, "type": "channel", "noteNumber": 35, "velocity": 64, "subtype": "noteOn"  },
      { "deltaTime": 0, "channel": 9, "type": "channel", "noteNumber": 42, "velocity": 64, "subtype": "noteOn"  },
      { "deltaTime": 239, "channel": 9, "type": "channel", "subtype": "noteOff", "noteNumber": 35, "velocity": 0  },
      { "deltaTime": 0, "channel": 9, "type": "channel", "subtype": "noteOff", "noteNumber": 35, "velocity": 0  },
      { "deltaTime": 240, "channel": 9, "type": "channel", "subtype": "noteOff", "noteNumber": 42, "velocity": 0  },
      { "deltaTime": 1, "channel": 9, "type": "channel", "noteNumber": 35, "velocity": 64, "subtype": "noteOn"  },
      { "deltaTime": 0, "channel": 9, "type": "channel", "noteNumber": 42, "velocity": 64, "subtype": "noteOn"  },
      { "deltaTime": 479, "channel": 9, "type": "channel", "subtype": "noteOff", "noteNumber": 35, "velocity": 0  },
      { "deltaTime": 0, "channel": 9, "type": "channel", "subtype": "noteOff", "noteNumber": 42, "velocity": 0  },
      { "deltaTime": 1, "channel": 9, "type": "channel", "noteNumber": 40, "velocity": 64, "subtype": "noteOn"  },
      { "deltaTime": 0, "channel": 9, "type": "channel", "noteNumber": 42, "velocity": 64, "subtype": "noteOn"  },
      { "deltaTime": 240, "channel": 9, "type": "channel", "noteNumber": 35, "velocity": 64, "subtype": "noteOn"  },
      { "deltaTime": 239, "channel": 9, "type": "channel", "subtype": "noteOff", "noteNumber": 35, "velocity": 0  },
      { "deltaTime": 0, "channel": 9, "type": "channel", "subtype": "noteOff", "noteNumber": 40, "velocity": 0  },
      { "deltaTime": 0, "channel": 9, "type": "channel", "subtype": "noteOff", "noteNumber": 42, "velocity": 0  },
      { "deltaTime": 1, "channel": 9, "type": "channel", "noteNumber": 42, "velocity": 64, "subtype": "noteOn"  },
      { "deltaTime": 479, "channel": 9, "type": "channel", "subtype": "noteOff", "noteNumber": 42, "velocity": 0  },
      { "deltaTime": 1, "channel": 9, "type": "channel", "noteNumber": 35, "velocity": 64, "subtype": "noteOn"  },
      { "deltaTime": 0, "channel": 9, "type": "channel", "noteNumber": 42, "velocity": 64, "subtype": "noteOn"  },
      { "deltaTime": 239, "channel": 9, "type": "channel", "subtype": "noteOff", "noteNumber": 35, "velocity": 0  },
      { "deltaTime": 240, "channel": 9, "type": "channel", "subtype": "noteOff", "noteNumber": 42, "velocity": 0  },
      { "deltaTime": 1, "channel": 9, "type": "channel", "noteNumber": 35, "velocity": 64, "subtype": "noteOn"  },
      { "deltaTime": 0, "channel": 9, "type": "channel", "noteNumber": 42, "velocity": 64, "subtype": "noteOn"  },
      { "deltaTime": 239, "channel": 9, "type": "channel", "subtype": "noteOff", "noteNumber": 35, "velocity": 0  },
      { "deltaTime": 1, "channel": 9, "type": "channel", "noteNumber": 35, "velocity": 64, "subtype": "noteOn"  },
      { "deltaTime": 239, "channel": 9, "type": "channel", "subtype": "noteOff", "noteNumber": 35, "velocity": 0  },
      { "deltaTime": 0, "channel": 9, "type": "channel", "subtype": "noteOff", "noteNumber": 42, "velocity": 0  },
      { "deltaTime": 1, "channel": 9, "type": "channel", "noteNumber": 40, "velocity": 64, "subtype": "noteOn"  },
      { "deltaTime": 0, "channel": 9, "type": "channel", "noteNumber": 42, "velocity": 64, "subtype": "noteOn"  },
      { "deltaTime": 239, "channel": 9, "type": "channel", "subtype": "noteOff", "noteNumber": 40, "velocity": 0  },
      { "deltaTime": 1, "channel": 9, "type": "channel", "noteNumber": 40, "velocity": 64, "subtype": "noteOn"  },
      { "deltaTime": 239, "channel": 9, "type": "channel", "subtype": "noteOff", "noteNumber": 40, "velocity": 0  },
      { "deltaTime": 0, "channel": 9, "type": "channel", "subtype": "noteOff", "noteNumber": 42, "velocity": 0  },
      { "deltaTime": 1, "channel": 9, "type": "channel", "noteNumber": 35, "velocity": 64, "subtype": "noteOn"  },
      { "deltaTime": 0, "channel": 9, "type": "channel", "noteNumber": 42, "velocity": 64, "subtype": "noteOn"  },
      { "deltaTime": 239, "channel": 9, "type": "channel", "subtype": "noteOff", "noteNumber": 35, "velocity": 0  },
      { "deltaTime": 240, "channel": 9, "type": "channel", "subtype": "noteOff", "noteNumber": 42, "velocity": 0  },
      { "deltaTime": 1, "channel": 9, "type": "channel", "noteNumber": 35, "velocity": 64, "subtype": "noteOn"  },
      { "deltaTime": 0, "channel": 9, "type": "channel", "noteNumber": 42, "velocity": 64, "subtype": "noteOn"  },
      { "deltaTime": 239, "channel": 9, "type": "channel", "subtype": "noteOff", "noteNumber": 35, "velocity": 0  },
      { "deltaTime": 1, "channel": 9, "type": "channel", "noteNumber": 35, "velocity": 64, "subtype": "noteOn"  },
      { "deltaTime": 239, "channel": 9, "type": "channel", "subtype": "noteOff", "noteNumber": 35, "velocity": 0  },
      { "deltaTime": 0, "channel": 9, "type": "channel", "subtype": "noteOff", "noteNumber": 42, "velocity": 0  },
      { "deltaTime": 1, "channel": 9, "type": "channel", "noteNumber": 42, "velocity": 64, "subtype": "noteOn"  },
      { "deltaTime": 240, "channel": 9, "type": "channel", "noteNumber": 40, "velocity": 64, "subtype": "noteOn"  },
      { "deltaTime": 239, "channel": 9, "type": "channel", "subtype": "noteOff", "noteNumber": 40, "velocity": 0  },
      { "deltaTime": 0, "channel": 9, "type": "channel", "subtype": "noteOff", "noteNumber": 42, "velocity": 0  },
      { "deltaTime": 1, "channel": 9, "type": "channel", "noteNumber": 35, "velocity": 64, "subtype": "noteOn"  },
      { "deltaTime": 0, "channel": 9, "type": "channel", "noteNumber": 42, "velocity": 64, "subtype": "noteOn"  },
      { "deltaTime": 239, "channel": 9, "type": "channel", "subtype": "noteOff", "noteNumber": 35, "velocity": 0  },
      { "deltaTime": 240, "channel": 9, "type": "channel", "subtype": "noteOff", "noteNumber": 42, "velocity": 0  },
      { "deltaTime": 1, "channel": 9, "type": "channel", "noteNumber": 35, "velocity": 64, "subtype": "noteOn"  },
      { "deltaTime": 0, "channel": 9, "type": "channel", "noteNumber": 42, "velocity": 64, "subtype": "noteOn"  },
      { "deltaTime": 479, "channel": 9, "type": "channel", "subtype": "noteOff", "noteNumber": 35, "velocity": 0  },
      { "deltaTime": 0, "channel": 9, "type": "channel", "subtype": "noteOff", "noteNumber": 42, "velocity": 0  },
      { "deltaTime": 1, "channel": 9, "type": "channel", "noteNumber": 40, "velocity": 64, "subtype": "noteOn"  },
      { "deltaTime": 0, "channel": 9, "type": "channel", "noteNumber": 42, "velocity": 64, "subtype": "noteOn"  },
      { "deltaTime": 479, "channel": 9, "type": "channel", "subtype": "noteOff", "noteNumber": 40, "velocity": 0  },
      { "deltaTime": 0, "channel": 9, "type": "channel", "subtype": "noteOff", "noteNumber": 42, "velocity": 0  },
      { "deltaTime": 1, "channel": 9, "type": "channel", "noteNumber": 42, "velocity": 64, "subtype": "noteOn"  },
      { "deltaTime": 240, "channel": 9, "type": "channel", "noteNumber": 35, "velocity": 64, "subtype": "noteOn"  },
      { "deltaTime": 239, "channel": 9, "type": "channel", "subtype": "noteOff", "noteNumber": 42, "velocity": 0  },
      { "deltaTime": 1, "channel": 9, "type": "channel", "noteNumber": 35, "velocity": 64, "subtype": "noteOn"  },
      { "deltaTime": 0, "channel": 9, "type": "channel", "noteNumber": 42, "velocity": 64, "subtype": "noteOn"  },
      { "deltaTime": 239, "channel": 9, "type": "channel", "subtype": "noteOff", "noteNumber": 35, "velocity": 0  },
      { "deltaTime": 0, "channel": 9, "type": "channel", "subtype": "noteOff", "noteNumber": 35, "velocity": 0  },
      { "deltaTime": 240, "channel": 9, "type": "channel", "subtype": "noteOff", "noteNumber": 42, "velocity": 0  },
      { "deltaTime": 1, "channel": 9, "type": "channel", "noteNumber": 35, "velocity": 64, "subtype": "noteOn"  },
      { "deltaTime": 0, "channel": 9, "type": "channel", "noteNumber": 42, "velocity": 64, "subtype": "noteOn"  },
      { "deltaTime": 479, "channel": 9, "type": "channel", "subtype": "noteOff", "noteNumber": 35, "velocity": 0  },
      { "deltaTime": 0, "channel": 9, "type": "channel", "subtype": "noteOff", "noteNumber": 42, "velocity": 0  },
      { "deltaTime": 1, "channel": 9, "type": "channel", "noteNumber": 40, "velocity": 64, "subtype": "noteOn"  },
      { "deltaTime": 0, "channel": 9, "type": "channel", "noteNumber": 42, "velocity": 64, "subtype": "noteOn"  },
      { "deltaTime": 240, "channel": 9, "type": "channel", "noteNumber": 35, "velocity": 64, "subtype": "noteOn"  },
      { "deltaTime": 239, "channel": 9, "type": "channel", "subtype": "noteOff", "noteNumber": 35, "velocity": 0  },
      { "deltaTime": 0, "channel": 9, "type": "channel", "subtype": "noteOff", "noteNumber": 40, "velocity": 0  },
      { "deltaTime": 0, "channel": 9, "type": "channel", "subtype": "noteOff", "noteNumber": 42, "velocity": 0  },
      { "deltaTime": 1, "channel": 9, "type": "channel", "noteNumber": 42, "velocity": 64, "subtype": "noteOn"  },
      { "deltaTime": 479, "channel": 9, "type": "channel", "subtype": "noteOff", "noteNumber": 42, "velocity": 0  },
      { "deltaTime": 1, "channel": 9, "type": "channel", "noteNumber": 35, "velocity": 64, "subtype": "noteOn"  },
      { "deltaTime": 0, "channel": 9, "type": "channel", "noteNumber": 42, "velocity": 64, "subtype": "noteOn"  },
      { "deltaTime": 239, "channel": 9, "type": "channel", "subtype": "noteOff", "noteNumber": 35, "velocity": 0  },
      { "deltaTime": 240, "channel": 9, "type": "channel", "subtype": "noteOff", "noteNumber": 42, "velocity": 0  },
      { "deltaTime": 1, "channel": 9, "type": "channel", "noteNumber": 35, "velocity": 64, "subtype": "noteOn"  },
      { "deltaTime": 0, "channel": 9, "type": "channel", "noteNumber": 42, "velocity": 64, "subtype": "noteOn"  },
      { "deltaTime": 239, "channel": 9, "type": "channel", "subtype": "noteOff", "noteNumber": 35, "velocity": 0  },
      { "deltaTime": 1, "channel": 9, "type": "channel", "noteNumber": 35, "velocity": 64, "subtype": "noteOn"  },
      { "deltaTime": 239, "channel": 9, "type": "channel", "subtype": "noteOff", "noteNumber": 35, "velocity": 0  },
      { "deltaTime": 0, "channel": 9, "type": "channel", "subtype": "noteOff", "noteNumber": 42, "velocity": 0  },
      { "deltaTime": 1, "channel": 9, "type": "channel", "noteNumber": 40, "velocity": 64, "subtype": "noteOn"  },
      { "deltaTime": 0, "channel": 9, "type": "channel", "noteNumber": 42, "velocity": 64, "subtype": "noteOn"  },
      { "deltaTime": 239, "channel": 9, "type": "channel", "subtype": "noteOff", "noteNumber": 40, "velocity": 0  },
      { "deltaTime": 1, "channel": 9, "type": "channel", "noteNumber": 40, "velocity": 64, "subtype": "noteOn"  },
      { "deltaTime": 239, "channel": 9, "type": "channel", "subtype": "noteOff", "noteNumber": 40, "velocity": 0  },
      { "deltaTime": 0, "channel": 9, "type": "channel", "subtype": "noteOff", "noteNumber": 42, "velocity": 0  },
      { "deltaTime": 1, "channel": 9, "type": "channel", "noteNumber": 35, "velocity": 64, "subtype": "noteOn"  },
      { "deltaTime": 0, "channel": 9, "type": "channel", "noteNumber": 42, "velocity": 64, "subtype": "noteOn"  },
      { "deltaTime": 239, "channel": 9, "type": "channel", "subtype": "noteOff", "noteNumber": 35, "velocity": 0  },
      { "deltaTime": 240, "channel": 9, "type": "channel", "subtype": "noteOff", "noteNumber": 42, "velocity": 0  },
      { "deltaTime": 1, "channel": 9, "type": "channel", "noteNumber": 35, "velocity": 64, "subtype": "noteOn"  },
      { "deltaTime": 0, "channel": 9, "type": "channel", "noteNumber": 42, "velocity": 64, "subtype": "noteOn"  },
      { "deltaTime": 239, "channel": 9, "type": "channel", "subtype": "noteOff", "noteNumber": 35, "velocity": 0  },
      { "deltaTime": 1, "channel": 9, "type": "channel", "noteNumber": 35, "velocity": 64, "subtype": "noteOn"  },
      { "deltaTime": 239, "channel": 9, "type": "channel", "subtype": "noteOff", "noteNumber": 35, "velocity": 0  },
      { "deltaTime": 0, "channel": 9, "type": "channel", "subtype": "noteOff", "noteNumber": 42, "velocity": 0  },
      { "deltaTime": 1, "channel": 9, "type": "channel", "noteNumber": 42, "velocity": 64, "subtype": "noteOn"  },
      { "deltaTime": 240, "channel": 9, "type": "channel", "noteNumber": 40, "velocity": 64, "subtype": "noteOn"  },
      { "deltaTime": 239, "channel": 9, "type": "channel", "subtype": "noteOff", "noteNumber": 40, "velocity": 0  },
      { "deltaTime": 0, "channel": 9, "type": "channel", "subtype": "noteOff", "noteNumber": 42, "velocity": 0  },
      { "deltaTime": 1, "channel": 9, "type": "channel", "noteNumber": 35, "velocity": 64, "subtype": "noteOn"  },
      { "deltaTime": 0, "channel": 9, "type": "channel", "noteNumber": 42, "velocity": 64, "subtype": "noteOn"  },
      { "deltaTime": 0, "channel": 9, "type": "channel", "noteNumber": 77, "velocity": 64, "subtype": "noteOn"  },
      { "deltaTime": 239, "channel": 9, "type": "channel", "subtype": "noteOff", "noteNumber": 35, "velocity": 0  },
      { "deltaTime": 0, "channel": 9, "type": "channel", "subtype": "noteOff", "noteNumber": 42, "velocity": 0  },
      { "deltaTime": 0, "channel": 9, "type": "channel", "subtype": "noteOff", "noteNumber": 77, "velocity": 0  },
      { "deltaTime": 1, "channel": 9, "type": "channel", "noteNumber": 77, "velocity": 64, "subtype": "noteOn"  },
      { "deltaTime": 239, "channel": 9, "type": "channel", "subtype": "noteOff", "noteNumber": 77, "velocity": 0  },
      { "deltaTime": 1, "channel": 9, "type": "channel", "noteNumber": 35, "velocity": 64, "subtype": "noteOn"  },
      { "deltaTime": 0, "channel": 9, "type": "channel", "noteNumber": 42, "velocity": 64, "subtype": "noteOn"  },
      { "deltaTime": 0, "channel": 9, "type": "channel", "noteNumber": 77, "velocity": 64, "subtype": "noteOn"  },
      { "deltaTime": 239, "channel": 9, "type": "channel", "subtype": "noteOff", "noteNumber": 77, "velocity": 0  },
      { "deltaTime": 1, "channel": 9, "type": "channel", "noteNumber": 77, "velocity": 64, "subtype": "noteOn"  },
      { "deltaTime": 239, "channel": 9, "type": "channel", "subtype": "noteOff", "noteNumber": 35, "velocity": 0  },
      { "deltaTime": 0, "channel": 9, "type": "channel", "subtype": "noteOff", "noteNumber": 42, "velocity": 0  },
      { "deltaTime": 0, "channel": 9, "type": "channel", "subtype": "noteOff", "noteNumber": 77, "velocity": 0  },
      { "deltaTime": 1, "channel": 9, "type": "channel", "noteNumber": 40, "velocity": 64, "subtype": "noteOn"  },
      { "deltaTime": 0, "channel": 9, "type": "channel", "noteNumber": 42, "velocity": 64, "subtype": "noteOn"  },
      { "deltaTime": 479, "channel": 9, "type": "channel", "subtype": "noteOff", "noteNumber": 40, "velocity": 0  },
      { "deltaTime": 0, "channel": 9, "type": "channel", "subtype": "noteOff", "noteNumber": 42, "velocity": 0  },
      { "deltaTime": 1, "channel": 9, "type": "channel", "noteNumber": 42, "velocity": 64, "subtype": "noteOn"  },
      { "deltaTime": 0, "channel": 9, "type": "channel", "noteNumber": 55, "velocity": 64, "subtype": "noteOn"  },
      { "deltaTime": 239, "channel": 9, "type": "channel", "subtype": "noteOff", "noteNumber": 55, "velocity": 0  },
      { "deltaTime": 1, "channel": 9, "type": "channel", "noteNumber": 35, "velocity": 64, "subtype": "noteOn"  },
      { "deltaTime": 0, "channel": 9, "type": "channel", "noteNumber": 55, "velocity": 64, "subtype": "noteOn"  },
      { "deltaTime": 239, "channel": 9, "type": "channel", "subtype": "noteOff", "noteNumber": 42, "velocity": 0  },
      { "deltaTime": 0, "channel": 9, "type": "channel", "subtype": "noteOff", "noteNumber": 55, "velocity": 0  },
      { "deltaTime": 1, "channel": 9, "type": "channel", "noteNumber": 35, "velocity": 64, "subtype": "noteOn"  },
      { "deltaTime": 0, "channel": 9, "type": "channel", "noteNumber": 42, "velocity": 64, "subtype": "noteOn"  },
      { "deltaTime": 239, "channel": 9, "type": "channel", "subtype": "noteOff", "noteNumber": 35, "velocity": 0  },
      { "deltaTime": 0, "channel": 9, "type": "channel", "subtype": "noteOff", "noteNumber": 35, "velocity": 0  },
      { "deltaTime": 240, "channel": 9, "type": "channel", "subtype": "noteOff", "noteNumber": 42, "velocity": 0  },
      { "deltaTime": 1, "channel": 9, "type": "channel", "noteNumber": 35, "velocity": 64, "subtype": "noteOn"  },
      { "deltaTime": 0, "channel": 9, "type": "channel", "noteNumber": 42, "velocity": 64, "subtype": "noteOn"  },
      { "deltaTime": 479, "channel": 9, "type": "channel", "subtype": "noteOff", "noteNumber": 35, "velocity": 0  },
      { "deltaTime": 0, "channel": 9, "type": "channel", "subtype": "noteOff", "noteNumber": 42, "velocity": 0  },
      { "deltaTime": 1, "channel": 9, "type": "channel", "noteNumber": 40, "velocity": 64, "subtype": "noteOn"  },
      { "deltaTime": 0, "channel": 9, "type": "channel", "noteNumber": 42, "velocity": 64, "subtype": "noteOn"  },
      { "deltaTime": 0, "channel": 9, "type": "channel", "noteNumber": 45, "velocity": 64, "subtype": "noteOn"  },
      { "deltaTime": 0, "channel": 9, "type": "channel", "noteNumber": 47, "velocity": 64, "subtype": "noteOn"  },
      { "deltaTime": 239, "channel": 9, "type": "channel", "subtype": "noteOff", "noteNumber": 45, "velocity": 0  },
      { "deltaTime": 0, "channel": 9, "type": "channel", "subtype": "noteOff", "noteNumber": 47, "velocity": 0  },
      { "deltaTime": 1, "channel": 9, "type": "channel", "noteNumber": 35, "velocity": 64, "subtype": "noteOn"  },
      { "deltaTime": 239, "channel": 9, "type": "channel", "subtype": "noteOff", "noteNumber": 35, "velocity": 0  },
      { "deltaTime": 0, "channel": 9, "type": "channel", "subtype": "noteOff", "noteNumber": 40, "velocity": 0  },
      { "deltaTime": 0, "channel": 9, "type": "channel", "subtype": "noteOff", "noteNumber": 42, "velocity": 0  },
      { "deltaTime": 1, "channel": 9, "type": "channel", "noteNumber": 42, "velocity": 64, "subtype": "noteOn"  },
      { "deltaTime": 479, "channel": 9, "type": "channel", "subtype": "noteOff", "noteNumber": 42, "velocity": 0  },
      { "deltaTime": 1, "channel": 9, "type": "channel", "noteNumber": 35, "velocity": 64, "subtype": "noteOn"  },
      { "deltaTime": 0, "channel": 9, "type": "channel", "noteNumber": 42, "velocity": 64, "subtype": "noteOn"  },
      { "deltaTime": 239, "channel": 9, "type": "channel", "subtype": "noteOff", "noteNumber": 35, "velocity": 0  },
      { "deltaTime": 240, "channel": 9, "type": "channel", "subtype": "noteOff", "noteNumber": 42, "velocity": 0  },
      { "deltaTime": 1, "channel": 9, "type": "channel", "noteNumber": 35, "velocity": 64, "subtype": "noteOn"  },
      { "deltaTime": 0, "channel": 9, "type": "channel", "noteNumber": 42, "velocity": 64, "subtype": "noteOn"  },
      { "deltaTime": 239, "channel": 9, "type": "channel", "subtype": "noteOff", "noteNumber": 35, "velocity": 0  },
      { "deltaTime": 1, "channel": 9, "type": "channel", "noteNumber": 35, "velocity": 64, "subtype": "noteOn"  },
      { "deltaTime": 239, "channel": 9, "type": "channel", "subtype": "noteOff", "noteNumber": 35, "velocity": 0  },
      { "deltaTime": 0, "channel": 9, "type": "channel", "subtype": "noteOff", "noteNumber": 42, "velocity": 0  },
      { "deltaTime": 1, "channel": 9, "type": "channel", "noteNumber": 40, "velocity": 64, "subtype": "noteOn"  },
      { "deltaTime": 0, "channel": 9, "type": "channel", "noteNumber": 42, "velocity": 64, "subtype": "noteOn"  },
      { "deltaTime": 239, "channel": 9, "type": "channel", "subtype": "noteOff", "noteNumber": 40, "velocity": 0  },
      { "deltaTime": 1, "channel": 9, "type": "channel", "noteNumber": 40, "velocity": 64, "subtype": "noteOn"  },
      { "deltaTime": 239, "channel": 9, "type": "channel", "subtype": "noteOff", "noteNumber": 40, "velocity": 0  },
      { "deltaTime": 0, "channel": 9, "type": "channel", "subtype": "noteOff", "noteNumber": 42, "velocity": 0  },
      { "deltaTime": 1, "channel": 9, "type": "channel", "noteNumber": 35, "velocity": 64, "subtype": "noteOn"  },
      { "deltaTime": 0, "channel": 9, "type": "channel", "noteNumber": 42, "velocity": 64, "subtype": "noteOn"  },
      { "deltaTime": 0, "channel": 9, "type": "channel", "noteNumber": 77, "velocity": 64, "subtype": "noteOn"  },
      { "deltaTime": 239, "channel": 9, "type": "channel", "subtype": "noteOff", "noteNumber": 35, "velocity": 0  },
      { "deltaTime": 0, "channel": 9, "type": "channel", "subtype": "noteOff", "noteNumber": 77, "velocity": 0  },
      { "deltaTime": 240, "channel": 9, "type": "channel", "subtype": "noteOff", "noteNumber": 42, "velocity": 0  },
      { "deltaTime": 1, "channel": 9, "type": "channel", "noteNumber": 35, "velocity": 64, "subtype": "noteOn"  },
      { "deltaTime": 0, "channel": 9, "type": "channel", "noteNumber": 42, "velocity": 64, "subtype": "noteOn"  },
      { "deltaTime": 239, "channel": 9, "type": "channel", "subtype": "noteOff", "noteNumber": 35, "velocity": 0  },
      { "deltaTime": 1, "channel": 9, "type": "channel", "noteNumber": 35, "velocity": 64, "subtype": "noteOn"  },
      { "deltaTime": 0, "channel": 9, "type": "channel", "noteNumber": 77, "velocity": 64, "subtype": "noteOn"  },
      { "deltaTime": 239, "channel": 9, "type": "channel", "subtype": "noteOff", "noteNumber": 35, "velocity": 0  },
      { "deltaTime": 0, "channel": 9, "type": "channel", "subtype": "noteOff", "noteNumber": 42, "velocity": 0  },
      { "deltaTime": 0, "channel": 9, "type": "channel", "subtype": "noteOff", "noteNumber": 77, "velocity": 0  },
      { "deltaTime": 1, "channel": 9, "type": "channel", "noteNumber": 42, "velocity": 64, "subtype": "noteOn"  },
      { "deltaTime": 240, "channel": 9, "type": "channel", "noteNumber": 40, "velocity": 64, "subtype": "noteOn"  },
      { "deltaTime": 239, "channel": 9, "type": "channel", "subtype": "noteOff", "noteNumber": 40, "velocity": 0  },
      { "deltaTime": 0, "channel": 9, "type": "channel", "subtype": "noteOff", "noteNumber": 42, "velocity": 0  },
      { "deltaTime": 1, "channel": 9, "type": "channel", "noteNumber": 35, "velocity": 64, "subtype": "noteOn"  },
      { "deltaTime": 0, "channel": 9, "type": "channel", "noteNumber": 42, "velocity": 64, "subtype": "noteOn"  },
      { "deltaTime": 0, "channel": 9, "type": "channel", "noteNumber": 77, "velocity": 64, "subtype": "noteOn"  },
      { "deltaTime": 239, "channel": 9, "type": "channel", "subtype": "noteOff", "noteNumber": 35, "velocity": 0  },
      { "deltaTime": 0, "channel": 9, "type": "channel", "subtype": "noteOff", "noteNumber": 77, "velocity": 0  },
      { "deltaTime": 1, "channel": 9, "type": "channel", "noteNumber": 77, "velocity": 64, "subtype": "noteOn"  },
      { "deltaTime": 239, "channel": 9, "type": "channel", "subtype": "noteOff", "noteNumber": 42, "velocity": 0  },
      { "deltaTime": 0, "channel": 9, "type": "channel", "subtype": "noteOff", "noteNumber": 77, "velocity": 0  },
      { "deltaTime": 1, "channel": 9, "type": "channel", "noteNumber": 35, "velocity": 64, "subtype": "noteOn"  },
      { "deltaTime": 0, "channel": 9, "type": "channel", "noteNumber": 42, "velocity": 64, "subtype": "noteOn"  },
      { "deltaTime": 0, "channel": 9, "type": "channel", "noteNumber": 77, "velocity": 64, "subtype": "noteOn"  },
      { "deltaTime": 239, "channel": 9, "type": "channel", "subtype": "noteOff", "noteNumber": 77, "velocity": 0  },
      { "deltaTime": 1, "channel": 9, "type": "channel", "noteNumber": 77, "velocity": 64, "subtype": "noteOn"  },
      { "deltaTime": 239, "channel": 9, "type": "channel", "subtype": "noteOff", "noteNumber": 35, "velocity": 0  },
      { "deltaTime": 0, "channel": 9, "type": "channel", "subtype": "noteOff", "noteNumber": 42, "velocity": 0  },
      { "deltaTime": 0, "channel": 9, "type": "channel", "subtype": "noteOff", "noteNumber": 77, "velocity": 0  },
      { "deltaTime": 1, "channel": 9, "type": "channel", "noteNumber": 40, "velocity": 64, "subtype": "noteOn"  },
      { "deltaTime": 0, "channel": 9, "type": "channel", "noteNumber": 42, "velocity": 64, "subtype": "noteOn"  },
      { "deltaTime": 479, "channel": 9, "type": "channel", "subtype": "noteOff", "noteNumber": 40, "velocity": 0  },
      { "deltaTime": 0, "channel": 9, "type": "channel", "subtype": "noteOff", "noteNumber": 42, "velocity": 0  },
      { "deltaTime": 1, "channel": 9, "type": "channel", "noteNumber": 42, "velocity": 64, "subtype": "noteOn"  },
      { "deltaTime": 0, "channel": 9, "type": "channel", "noteNumber": 55, "velocity": 64, "subtype": "noteOn"  },
      { "deltaTime": 239, "channel": 9, "type": "channel", "subtype": "noteOff", "noteNumber": 55, "velocity": 0  },
      { "deltaTime": 1, "channel": 9, "type": "channel", "noteNumber": 35, "velocity": 64, "subtype": "noteOn"  },
      { "deltaTime": 0, "channel": 9, "type": "channel", "noteNumber": 55, "velocity": 64, "subtype": "noteOn"  },
      { "deltaTime": 239, "channel": 9, "type": "channel", "subtype": "noteOff", "noteNumber": 42, "velocity": 0  },
      { "deltaTime": 0, "channel": 9, "type": "channel", "subtype": "noteOff", "noteNumber": 55, "velocity": 0  },
      { "deltaTime": 1, "channel": 9, "type": "channel", "noteNumber": 35, "velocity": 64, "subtype": "noteOn"  },
      { "deltaTime": 0, "channel": 9, "type": "channel", "noteNumber": 42, "velocity": 64, "subtype": "noteOn"  },
      { "deltaTime": 239, "channel": 9, "type": "channel", "subtype": "noteOff", "noteNumber": 35, "velocity": 0  },
      { "deltaTime": 0, "channel": 9, "type": "channel", "subtype": "noteOff", "noteNumber": 35, "velocity": 0  },
      { "deltaTime": 240, "channel": 9, "type": "channel", "subtype": "noteOff", "noteNumber": 42, "velocity": 0  },
      { "deltaTime": 1, "channel": 9, "type": "channel", "noteNumber": 35, "velocity": 64, "subtype": "noteOn"  },
      { "deltaTime": 0, "channel": 9, "type": "channel", "noteNumber": 42, "velocity": 64, "subtype": "noteOn"  },
      { "deltaTime": 479, "channel": 9, "type": "channel", "subtype": "noteOff", "noteNumber": 35, "velocity": 0  },
      { "deltaTime": 0, "channel": 9, "type": "channel", "subtype": "noteOff", "noteNumber": 42, "velocity": 0  },
      { "deltaTime": 1, "channel": 9, "type": "channel", "noteNumber": 40, "velocity": 64, "subtype": "noteOn"  },
      { "deltaTime": 0, "channel": 9, "type": "channel", "noteNumber": 42, "velocity": 64, "subtype": "noteOn"  },
      { "deltaTime": 0, "channel": 9, "type": "channel", "noteNumber": 45, "velocity": 64, "subtype": "noteOn"  },
      { "deltaTime": 0, "channel": 9, "type": "channel", "noteNumber": 47, "velocity": 64, "subtype": "noteOn"  },
      { "deltaTime": 239, "channel": 9, "type": "channel", "subtype": "noteOff", "noteNumber": 45, "velocity": 0  },
      { "deltaTime": 0, "channel": 9, "type": "channel", "subtype": "noteOff", "noteNumber": 47, "velocity": 0  },
      { "deltaTime": 1, "channel": 9, "type": "channel", "noteNumber": 35, "velocity": 64, "subtype": "noteOn"  },
      { "deltaTime": 239, "channel": 9, "type": "channel", "subtype": "noteOff", "noteNumber": 35, "velocity": 0  },
      { "deltaTime": 0, "channel": 9, "type": "channel", "subtype": "noteOff", "noteNumber": 40, "velocity": 0  },
      { "deltaTime": 0, "channel": 9, "type": "channel", "subtype": "noteOff", "noteNumber": 42, "velocity": 0  },
      { "deltaTime": 1, "channel": 9, "type": "channel", "noteNumber": 42, "velocity": 64, "subtype": "noteOn"  },
      { "deltaTime": 479, "channel": 9, "type": "channel", "subtype": "noteOff", "noteNumber": 42, "velocity": 0  },
      { "deltaTime": 1, "channel": 9, "type": "channel", "noteNumber": 35, "velocity": 64, "subtype": "noteOn"  },
      { "deltaTime": 0, "channel": 9, "type": "channel", "noteNumber": 42, "velocity": 64, "subtype": "noteOn"  },
      { "deltaTime": 239, "channel": 9, "type": "channel", "subtype": "noteOff", "noteNumber": 35, "velocity": 0  },
      { "deltaTime": 240, "channel": 9, "type": "channel", "subtype": "noteOff", "noteNumber": 42, "velocity": 0  },
      { "deltaTime": 1, "channel": 9, "type": "channel", "noteNumber": 35, "velocity": 64, "subtype": "noteOn"  },
      { "deltaTime": 0, "channel": 9, "type": "channel", "noteNumber": 42, "velocity": 64, "subtype": "noteOn"  },
      { "deltaTime": 239, "channel": 9, "type": "channel", "subtype": "noteOff", "noteNumber": 35, "velocity": 0  },
      { "deltaTime": 1, "channel": 9, "type": "channel", "noteNumber": 35, "velocity": 64, "subtype": "noteOn"  },
      { "deltaTime": 239, "channel": 9, "type": "channel", "subtype": "noteOff", "noteNumber": 35, "velocity": 0  },
      { "deltaTime": 0, "channel": 9, "type": "channel", "subtype": "noteOff", "noteNumber": 42, "velocity": 0  },
      { "deltaTime": 1, "channel": 9, "type": "channel", "noteNumber": 40, "velocity": 64, "subtype": "noteOn"  },
      { "deltaTime": 0, "channel": 9, "type": "channel", "noteNumber": 42, "velocity": 64, "subtype": "noteOn"  },
      { "deltaTime": 239, "channel": 9, "type": "channel", "subtype": "noteOff", "noteNumber": 40, "velocity": 0  },
      { "deltaTime": 1, "channel": 9, "type": "channel", "noteNumber": 40, "velocity": 64, "subtype": "noteOn"  },
      { "deltaTime": 239, "channel": 9, "type": "channel", "subtype": "noteOff", "noteNumber": 40, "velocity": 0  },
      { "deltaTime": 0, "channel": 9, "type": "channel", "subtype": "noteOff", "noteNumber": 42, "velocity": 0  },
      { "deltaTime": 1, "channel": 9, "type": "channel", "noteNumber": 35, "velocity": 64, "subtype": "noteOn"  },
      { "deltaTime": 0, "channel": 9, "type": "channel", "noteNumber": 42, "velocity": 64, "subtype": "noteOn"  },
      { "deltaTime": 0, "channel": 9, "type": "channel", "noteNumber": 77, "velocity": 64, "subtype": "noteOn"  },
      { "deltaTime": 239, "channel": 9, "type": "channel", "subtype": "noteOff", "noteNumber": 35, "velocity": 0  },
      { "deltaTime": 0, "channel": 9, "type": "channel", "subtype": "noteOff", "noteNumber": 77, "velocity": 0  },
      { "deltaTime": 240, "channel": 9, "type": "channel", "subtype": "noteOff", "noteNumber": 42, "velocity": 0  },
      { "deltaTime": 1, "channel": 9, "type": "channel", "noteNumber": 35, "velocity": 64, "subtype": "noteOn"  },
      { "deltaTime": 0, "channel": 9, "type": "channel", "noteNumber": 42, "velocity": 64, "subtype": "noteOn"  },
      { "deltaTime": 239, "channel": 9, "type": "channel", "subtype": "noteOff", "noteNumber": 35, "velocity": 0  },
      { "deltaTime": 1, "channel": 9, "type": "channel", "noteNumber": 35, "velocity": 64, "subtype": "noteOn"  },
      { "deltaTime": 0, "channel": 9, "type": "channel", "noteNumber": 77, "velocity": 64, "subtype": "noteOn"  },
      { "deltaTime": 239, "channel": 9, "type": "channel", "subtype": "noteOff", "noteNumber": 35, "velocity": 0  },
      { "deltaTime": 0, "channel": 9, "type": "channel", "subtype": "noteOff", "noteNumber": 42, "velocity": 0  },
      { "deltaTime": 0, "channel": 9, "type": "channel", "subtype": "noteOff", "noteNumber": 77, "velocity": 0  },
      { "deltaTime": 1, "channel": 9, "type": "channel", "noteNumber": 42, "velocity": 64, "subtype": "noteOn"  },
      { "deltaTime": 240, "channel": 9, "type": "channel", "noteNumber": 40, "velocity": 64, "subtype": "noteOn"  },
      { "deltaTime": 239, "channel": 9, "type": "channel", "subtype": "noteOff", "noteNumber": 40, "velocity": 0  },
      { "deltaTime": 0, "channel": 9, "type": "channel", "subtype": "noteOff", "noteNumber": 42, "velocity": 0  },
      { "deltaTime": 1, "channel": 9, "type": "channel", "noteNumber": 40, "velocity": 64, "subtype": "noteOn"  },
      { "deltaTime": 0, "channel": 9, "type": "channel", "noteNumber": 56, "velocity": 64, "subtype": "noteOn"  },
      { "deltaTime": 239, "channel": 9, "type": "channel", "subtype": "noteOff", "noteNumber": 40, "velocity": 0  },
      { "deltaTime": 0, "channel": 9, "type": "channel", "subtype": "noteOff", "noteNumber": 56, "velocity": 0  },
      { "deltaTime": 1, "channel": 9, "type": "channel", "noteNumber": 40, "velocity": 64, "subtype": "noteOn"  },
      { "deltaTime": 239, "channel": 9, "type": "channel", "subtype": "noteOff", "noteNumber": 40, "velocity": 0  },
      { "deltaTime": 1, "channel": 9, "type": "channel", "noteNumber": 40, "velocity": 64, "subtype": "noteOn"  },
      { "deltaTime": 0, "channel": 9, "type": "channel", "noteNumber": 56, "velocity": 64, "subtype": "noteOn"  },
      { "deltaTime": 239, "channel": 9, "type": "channel", "subtype": "noteOff", "noteNumber": 40, "velocity": 0  },
      { "deltaTime": 0, "channel": 9, "type": "channel", "subtype": "noteOff", "noteNumber": 56, "velocity": 0  },
      { "deltaTime": 1, "channel": 9, "type": "channel", "noteNumber": 40, "velocity": 64, "subtype": "noteOn"  },
      { "deltaTime": 239, "channel": 9, "type": "channel", "subtype": "noteOff", "noteNumber": 40, "velocity": 0  },
      { "deltaTime": 1, "channel": 9, "type": "channel", "noteNumber": 55, "velocity": 64, "subtype": "noteOn"  },
      { "deltaTime": 239, "channel": 9, "type": "channel", "subtype": "noteOff", "noteNumber": 55, "velocity": 0  },
      { "deltaTime": 241, "channel": 9, "type": "channel", "noteNumber": 40, "velocity": 64, "subtype": "noteOn"  },
      { "deltaTime": 0, "channel": 9, "type": "channel", "noteNumber": 46, "velocity": 64, "subtype": "noteOn"  },
      { "deltaTime": 239, "channel": 9, "type": "channel", "subtype": "noteOff", "noteNumber": 40, "velocity": 0  },
      { "deltaTime": 0, "channel": 9, "type": "channel", "subtype": "noteOff", "noteNumber": 46, "velocity": 0  },
      { "deltaTime": 1, "channel": 9, "type": "channel", "noteNumber": 40, "velocity": 64, "subtype": "noteOn"  },
      { "deltaTime": 239, "channel": 9, "type": "channel", "subtype": "noteOff", "noteNumber": 40, "velocity": 0  },
      { "deltaTime": 1, "channel": 9, "type": "channel", "noteNumber": 40, "velocity": 64, "subtype": "noteOn"  },
      { "deltaTime": 0, "channel": 9, "type": "channel", "noteNumber": 44, "velocity": 64, "subtype": "noteOn"  },
      { "deltaTime": 239, "channel": 9, "type": "channel", "subtype": "noteOff", "noteNumber": 40, "velocity": 0  },
      { "deltaTime": 0, "channel": 9, "type": "channel", "subtype": "noteOff", "noteNumber": 44, "velocity": 0  },
      { "deltaTime": 1, "channel": 9, "type": "channel", "noteNumber": 40, "velocity": 64, "subtype": "noteOn"  },
      { "deltaTime": 239, "channel": 9, "type": "channel", "subtype": "noteOff", "noteNumber": 40, "velocity": 0  },
      { "deltaTime": 481, "channel": 9, "type": "channel", "noteNumber": 40, "velocity": 64, "subtype": "noteOn"  },
      { "deltaTime": 0, "channel": 9, "type": "channel", "noteNumber": 56, "velocity": 64, "subtype": "noteOn"  },
      { "deltaTime": 239, "channel": 9, "type": "channel", "subtype": "noteOff", "noteNumber": 40, "velocity": 0  },
      { "deltaTime": 0, "channel": 9, "type": "channel", "subtype": "noteOff", "noteNumber": 56, "velocity": 0  },
      { "deltaTime": 1, "channel": 9, "type": "channel", "noteNumber": 40, "velocity": 64, "subtype": "noteOn"  },
      { "deltaTime": 239, "channel": 9, "type": "channel", "subtype": "noteOff", "noteNumber": 40, "velocity": 0  },
      { "deltaTime": 1, "channel": 9, "type": "channel", "noteNumber": 40, "velocity": 64, "subtype": "noteOn"  },
      { "deltaTime": 0, "channel": 9, "type": "channel", "noteNumber": 56, "velocity": 64, "subtype": "noteOn"  },
      { "deltaTime": 239, "channel": 9, "type": "channel", "subtype": "noteOff", "noteNumber": 40, "velocity": 0  },
      { "deltaTime": 0, "channel": 9, "type": "channel", "subtype": "noteOff", "noteNumber": 56, "velocity": 0  },
      { "deltaTime": 1, "channel": 9, "type": "channel", "noteNumber": 40, "velocity": 64, "subtype": "noteOn"  },
      { "deltaTime": 239, "channel": 9, "type": "channel", "subtype": "noteOff", "noteNumber": 40, "velocity": 0  },
      { "deltaTime": 1, "channel": 9, "type": "channel", "noteNumber": 55, "velocity": 64, "subtype": "noteOn"  },
      { "deltaTime": 239, "channel": 9, "type": "channel", "subtype": "noteOff", "noteNumber": 55, "velocity": 0  },
      { "deltaTime": 241, "channel": 9, "type": "channel", "noteNumber": 40, "velocity": 64, "subtype": "noteOn"  },
      { "deltaTime": 239, "channel": 9, "type": "channel", "subtype": "noteOff", "noteNumber": 40, "velocity": 0  },
      { "deltaTime": 1, "channel": 9, "type": "channel", "noteNumber": 40, "velocity": 64, "subtype": "noteOn"  },
      { "deltaTime": 239, "channel": 9, "type": "channel", "subtype": "noteOff", "noteNumber": 40, "velocity": 0  },
      { "deltaTime": 1, "channel": 9, "type": "channel", "noteNumber": 35, "velocity": 64, "subtype": "noteOn"  },
      { "deltaTime": 0, "channel": 9, "type": "channel", "noteNumber": 40, "velocity": 64, "subtype": "noteOn"  },
      { "deltaTime": 0, "channel": 9, "type": "channel", "noteNumber": 46, "velocity": 64, "subtype": "noteOn"  },
      { "deltaTime": 239, "channel": 9, "type": "channel", "subtype": "noteOff", "noteNumber": 35, "velocity": 0  },
      { "deltaTime": 0, "channel": 9, "type": "channel", "subtype": "noteOff", "noteNumber": 40, "velocity": 0  },
      { "deltaTime": 0, "channel": 9, "type": "channel", "subtype": "noteOff", "noteNumber": 46, "velocity": 0  },
      { "deltaTime": 1, "channel": 9, "type": "channel", "noteNumber": 40, "velocity": 64, "subtype": "noteOn"  },
      { "deltaTime": 239, "channel": 9, "type": "channel", "subtype": "noteOff", "noteNumber": 40, "velocity": 0  },
      { "deltaTime": 1, "channel": 9, "type": "channel", "noteNumber": 44, "velocity": 64, "subtype": "noteOn"  },
      { "deltaTime": 0, "channel": 9, "type": "channel", "noteNumber": 77, "velocity": 64, "subtype": "noteOn"  },
      { "deltaTime": 239, "channel": 9, "type": "channel", "subtype": "noteOff", "noteNumber": 44, "velocity": 0  },
      { "deltaTime": 0, "channel": 9, "type": "channel", "subtype": "noteOff", "noteNumber": 77, "velocity": 0  },
      { "deltaTime": 1, "channel": 9, "type": "channel", "noteNumber": 77, "velocity": 64, "subtype": "noteOn"  },
      { "deltaTime": 239, "channel": 9, "type": "channel", "subtype": "noteOff", "noteNumber": 77, "velocity": 0  },
      { "deltaTime": 1, "channel": 9, "type": "channel", "noteNumber": 40, "velocity": 64, "subtype": "noteOn"  },
      { "deltaTime": 239, "channel": 9, "type": "channel", "subtype": "noteOff", "noteNumber": 40, "velocity": 0  },
      { "deltaTime": 1, "channel": 9, "type": "channel", "noteNumber": 40, "velocity": 64, "subtype": "noteOn"  },
      { "deltaTime": 239, "channel": 9, "type": "channel", "subtype": "noteOff", "noteNumber": 40, "velocity": 0  },
      { "deltaTime": 1, "channel": 9, "type": "channel", "noteNumber": 40, "velocity": 64, "subtype": "noteOn"  },
      { "deltaTime": 239, "channel": 9, "type": "channel", "subtype": "noteOff", "noteNumber": 40, "velocity": 0  },
      { "deltaTime": 1, "channel": 9, "type": "channel", "noteNumber": 40, "velocity": 64, "subtype": "noteOn"  },
      { "deltaTime": 239, "channel": 9, "type": "channel", "subtype": "noteOff", "noteNumber": 40, "velocity": 0  },
      { "deltaTime": 1, "channel": 9, "type": "channel", "noteNumber": 40, "velocity": 64, "subtype": "noteOn"  },
      { "deltaTime": 0, "channel": 9, "type": "channel", "noteNumber": 56, "velocity": 64, "subtype": "noteOn"  },
      { "deltaTime": 239, "channel": 9, "type": "channel", "subtype": "noteOff", "noteNumber": 40, "velocity": 0  },
      { "deltaTime": 0, "channel": 9, "type": "channel", "subtype": "noteOff", "noteNumber": 56, "velocity": 0  },
      { "deltaTime": 1, "channel": 9, "type": "channel", "noteNumber": 40, "velocity": 64, "subtype": "noteOn"  },
      { "deltaTime": 239, "channel": 9, "type": "channel", "subtype": "noteOff", "noteNumber": 40, "velocity": 0  },
      { "deltaTime": 1, "channel": 9, "type": "channel", "noteNumber": 40, "velocity": 64, "subtype": "noteOn"  },
      { "deltaTime": 0, "channel": 9, "type": "channel", "noteNumber": 56, "velocity": 64, "subtype": "noteOn"  },
      { "deltaTime": 239, "channel": 9, "type": "channel", "subtype": "noteOff", "noteNumber": 40, "velocity": 0  },
      { "deltaTime": 0, "channel": 9, "type": "channel", "subtype": "noteOff", "noteNumber": 56, "velocity": 0  },
      { "deltaTime": 1, "channel": 9, "type": "channel", "noteNumber": 40, "velocity": 64, "subtype": "noteOn"  },
      { "deltaTime": 239, "channel": 9, "type": "channel", "subtype": "noteOff", "noteNumber": 40, "velocity": 0  },
      { "deltaTime": 1, "channel": 9, "type": "channel", "noteNumber": 55, "velocity": 64, "subtype": "noteOn"  },
      { "deltaTime": 239, "channel": 9, "type": "channel", "subtype": "noteOff", "noteNumber": 55, "velocity": 0  },
      { "deltaTime": 241, "channel": 9, "type": "channel", "noteNumber": 40, "velocity": 64, "subtype": "noteOn"  },
      { "deltaTime": 0, "channel": 9, "type": "channel", "noteNumber": 46, "velocity": 64, "subtype": "noteOn"  },
      { "deltaTime": 239, "channel": 9, "type": "channel", "subtype": "noteOff", "noteNumber": 40, "velocity": 0  },
      { "deltaTime": 0, "channel": 9, "type": "channel", "subtype": "noteOff", "noteNumber": 46, "velocity": 0  },
      { "deltaTime": 1, "channel": 9, "type": "channel", "noteNumber": 40, "velocity": 64, "subtype": "noteOn"  },
      { "deltaTime": 239, "channel": 9, "type": "channel", "subtype": "noteOff", "noteNumber": 40, "velocity": 0  },
      { "deltaTime": 1, "channel": 9, "type": "channel", "noteNumber": 40, "velocity": 64, "subtype": "noteOn"  },
      { "deltaTime": 0, "channel": 9, "type": "channel", "noteNumber": 44, "velocity": 64, "subtype": "noteOn"  },
      { "deltaTime": 239, "channel": 9, "type": "channel", "subtype": "noteOff", "noteNumber": 40, "velocity": 0  },
      { "deltaTime": 0, "channel": 9, "type": "channel", "subtype": "noteOff", "noteNumber": 44, "velocity": 0  },
      { "deltaTime": 1, "channel": 9, "type": "channel", "noteNumber": 40, "velocity": 64, "subtype": "noteOn"  },
      { "deltaTime": 239, "channel": 9, "type": "channel", "subtype": "noteOff", "noteNumber": 40, "velocity": 0  },
      { "deltaTime": 481, "channel": 9, "type": "channel", "noteNumber": 40, "velocity": 64, "subtype": "noteOn"  },
      { "deltaTime": 0, "channel": 9, "type": "channel", "noteNumber": 56, "velocity": 64, "subtype": "noteOn"  },
      { "deltaTime": 239, "channel": 9, "type": "channel", "subtype": "noteOff", "noteNumber": 40, "velocity": 0  },
      { "deltaTime": 0, "channel": 9, "type": "channel", "subtype": "noteOff", "noteNumber": 56, "velocity": 0  },
      { "deltaTime": 1, "channel": 9, "type": "channel", "noteNumber": 40, "velocity": 64, "subtype": "noteOn"  },
      { "deltaTime": 239, "channel": 9, "type": "channel", "subtype": "noteOff", "noteNumber": 40, "velocity": 0  },
      { "deltaTime": 1, "channel": 9, "type": "channel", "noteNumber": 40, "velocity": 64, "subtype": "noteOn"  },
      { "deltaTime": 0, "channel": 9, "type": "channel", "noteNumber": 56, "velocity": 64, "subtype": "noteOn"  },
      { "deltaTime": 239, "channel": 9, "type": "channel", "subtype": "noteOff", "noteNumber": 40, "velocity": 0  },
      { "deltaTime": 0, "channel": 9, "type": "channel", "subtype": "noteOff", "noteNumber": 56, "velocity": 0  },
      { "deltaTime": 1, "channel": 9, "type": "channel", "noteNumber": 40, "velocity": 64, "subtype": "noteOn"  },
      { "deltaTime": 239, "channel": 9, "type": "channel", "subtype": "noteOff", "noteNumber": 40, "velocity": 0  },
      { "deltaTime": 1, "channel": 9, "type": "channel", "noteNumber": 55, "velocity": 64, "subtype": "noteOn"  },
      { "deltaTime": 239, "channel": 9, "type": "channel", "subtype": "noteOff", "noteNumber": 55, "velocity": 0  },
      { "deltaTime": 241, "channel": 9, "type": "channel", "noteNumber": 40, "velocity": 64, "subtype": "noteOn"  },
      { "deltaTime": 239, "channel": 9, "type": "channel", "subtype": "noteOff", "noteNumber": 40, "velocity": 0  },
      { "deltaTime": 1, "channel": 9, "type": "channel", "noteNumber": 40, "velocity": 64, "subtype": "noteOn"  },
      { "deltaTime": 239, "channel": 9, "type": "channel", "subtype": "noteOff", "noteNumber": 40, "velocity": 0  },
      { "deltaTime": 1, "channel": 9, "type": "channel", "noteNumber": 35, "velocity": 64, "subtype": "noteOn"  },
      { "deltaTime": 0, "channel": 9, "type": "channel", "noteNumber": 40, "velocity": 64, "subtype": "noteOn"  },
      { "deltaTime": 0, "channel": 9, "type": "channel", "noteNumber": 46, "velocity": 64, "subtype": "noteOn"  },
      { "deltaTime": 239, "channel": 9, "type": "channel", "subtype": "noteOff", "noteNumber": 35, "velocity": 0  },
      { "deltaTime": 0, "channel": 9, "type": "channel", "subtype": "noteOff", "noteNumber": 40, "velocity": 0  },
      { "deltaTime": 0, "channel": 9, "type": "channel", "subtype": "noteOff", "noteNumber": 46, "velocity": 0  },
      { "deltaTime": 1, "channel": 9, "type": "channel", "noteNumber": 40, "velocity": 64, "subtype": "noteOn"  },
      { "deltaTime": 239, "channel": 9, "type": "channel", "subtype": "noteOff", "noteNumber": 40, "velocity": 0  },
      { "deltaTime": 1, "channel": 9, "type": "channel", "noteNumber": 44, "velocity": 64, "subtype": "noteOn"  },
      { "deltaTime": 239, "channel": 9, "type": "channel", "subtype": "noteOff", "noteNumber": 44, "velocity": 0  },
      { "deltaTime": 241, "channel": 9, "type": "channel", "noteNumber": 40, "velocity": 64, "subtype": "noteOn"  },
      { "deltaTime": 239, "channel": 9, "type": "channel", "subtype": "noteOff", "noteNumber": 40, "velocity": 0  },
      { "deltaTime": 1, "channel": 9, "type": "channel", "noteNumber": 40, "velocity": 64, "subtype": "noteOn"  },
      { "deltaTime": 239, "channel": 9, "type": "channel", "subtype": "noteOff", "noteNumber": 40, "velocity": 0  },
      { "deltaTime": 1, "channel": 9, "type": "channel", "noteNumber": 40, "velocity": 64, "subtype": "noteOn"  },
      { "deltaTime": 239, "channel": 9, "type": "channel", "subtype": "noteOff", "noteNumber": 40, "velocity": 0  },
      { "deltaTime": 1, "channel": 9, "type": "channel", "noteNumber": 40, "velocity": 64, "subtype": "noteOn"  },
      { "deltaTime": 239, "channel": 9, "type": "channel", "subtype": "noteOff", "noteNumber": 40, "velocity": 0  },
      { "deltaTime": 1, "channel": 9, "type": "channel", "noteNumber": 40, "velocity": 64, "subtype": "noteOn"  },
      { "deltaTime": 0, "channel": 9, "type": "channel", "noteNumber": 56, "velocity": 64, "subtype": "noteOn"  },
      { "deltaTime": 239, "channel": 9, "type": "channel", "subtype": "noteOff", "noteNumber": 40, "velocity": 0  },
      { "deltaTime": 0, "channel": 9, "type": "channel", "subtype": "noteOff", "noteNumber": 56, "velocity": 0  },
      { "deltaTime": 1, "channel": 9, "type": "channel", "noteNumber": 40, "velocity": 64, "subtype": "noteOn"  },
      { "deltaTime": 239, "channel": 9, "type": "channel", "subtype": "noteOff", "noteNumber": 40, "velocity": 0  },
      { "deltaTime": 1, "channel": 9, "type": "channel", "noteNumber": 40, "velocity": 64, "subtype": "noteOn"  },
      { "deltaTime": 0, "channel": 9, "type": "channel", "noteNumber": 56, "velocity": 64, "subtype": "noteOn"  },
      { "deltaTime": 239, "channel": 9, "type": "channel", "subtype": "noteOff", "noteNumber": 40, "velocity": 0  },
      { "deltaTime": 0, "channel": 9, "type": "channel", "subtype": "noteOff", "noteNumber": 56, "velocity": 0  },
      { "deltaTime": 1, "channel": 9, "type": "channel", "noteNumber": 40, "velocity": 64, "subtype": "noteOn"  },
      { "deltaTime": 239, "channel": 9, "type": "channel", "subtype": "noteOff", "noteNumber": 40, "velocity": 0  },
      { "deltaTime": 1, "channel": 9, "type": "channel", "noteNumber": 55, "velocity": 64, "subtype": "noteOn"  },
      { "deltaTime": 239, "channel": 9, "type": "channel", "subtype": "noteOff", "noteNumber": 55, "velocity": 0  },
      { "deltaTime": 241, "channel": 9, "type": "channel", "noteNumber": 40, "velocity": 64, "subtype": "noteOn"  },
      { "deltaTime": 0, "channel": 9, "type": "channel", "noteNumber": 46, "velocity": 64, "subtype": "noteOn"  },
      { "deltaTime": 239, "channel": 9, "type": "channel", "subtype": "noteOff", "noteNumber": 40, "velocity": 0  },
      { "deltaTime": 0, "channel": 9, "type": "channel", "subtype": "noteOff", "noteNumber": 46, "velocity": 0  },
      { "deltaTime": 1, "channel": 9, "type": "channel", "noteNumber": 40, "velocity": 64, "subtype": "noteOn"  },
      { "deltaTime": 239, "channel": 9, "type": "channel", "subtype": "noteOff", "noteNumber": 40, "velocity": 0  },
      { "deltaTime": 1, "channel": 9, "type": "channel", "noteNumber": 40, "velocity": 64, "subtype": "noteOn"  },
      { "deltaTime": 0, "channel": 9, "type": "channel", "noteNumber": 44, "velocity": 64, "subtype": "noteOn"  },
      { "deltaTime": 239, "channel": 9, "type": "channel", "subtype": "noteOff", "noteNumber": 40, "velocity": 0  },
      { "deltaTime": 0, "channel": 9, "type": "channel", "subtype": "noteOff", "noteNumber": 44, "velocity": 0  },
      { "deltaTime": 1, "channel": 9, "type": "channel", "noteNumber": 40, "velocity": 64, "subtype": "noteOn"  },
      { "deltaTime": 239, "channel": 9, "type": "channel", "subtype": "noteOff", "noteNumber": 40, "velocity": 0  },
      { "deltaTime": 481, "channel": 9, "type": "channel", "noteNumber": 40, "velocity": 64, "subtype": "noteOn"  },
      { "deltaTime": 0, "channel": 9, "type": "channel", "noteNumber": 56, "velocity": 64, "subtype": "noteOn"  },
      { "deltaTime": 239, "channel": 9, "type": "channel", "subtype": "noteOff", "noteNumber": 40, "velocity": 0  },
      { "deltaTime": 0, "channel": 9, "type": "channel", "subtype": "noteOff", "noteNumber": 56, "velocity": 0  },
      { "deltaTime": 1, "channel": 9, "type": "channel", "noteNumber": 40, "velocity": 64, "subtype": "noteOn"  },
      { "deltaTime": 239, "channel": 9, "type": "channel", "subtype": "noteOff", "noteNumber": 40, "velocity": 0  },
      { "deltaTime": 1, "channel": 9, "type": "channel", "noteNumber": 40, "velocity": 64, "subtype": "noteOn"  },
      { "deltaTime": 0, "channel": 9, "type": "channel", "noteNumber": 56, "velocity": 64, "subtype": "noteOn"  },
      { "deltaTime": 239, "channel": 9, "type": "channel", "subtype": "noteOff", "noteNumber": 40, "velocity": 0  },
      { "deltaTime": 0, "channel": 9, "type": "channel", "subtype": "noteOff", "noteNumber": 56, "velocity": 0  },
      { "deltaTime": 1, "channel": 9, "type": "channel", "noteNumber": 40, "velocity": 64, "subtype": "noteOn"  },
      { "deltaTime": 239, "channel": 9, "type": "channel", "subtype": "noteOff", "noteNumber": 40, "velocity": 0  },
      { "deltaTime": 1, "channel": 9, "type": "channel", "noteNumber": 55, "velocity": 64, "subtype": "noteOn"  },
      { "deltaTime": 239, "channel": 9, "type": "channel", "subtype": "noteOff", "noteNumber": 55, "velocity": 0  },
      { "deltaTime": 241, "channel": 9, "type": "channel", "noteNumber": 40, "velocity": 64, "subtype": "noteOn"  },
      { "deltaTime": 239, "channel": 9, "type": "channel", "subtype": "noteOff", "noteNumber": 40, "velocity": 0  },
      { "deltaTime": 1, "channel": 9, "type": "channel", "noteNumber": 40, "velocity": 64, "subtype": "noteOn"  },
      { "deltaTime": 239, "channel": 9, "type": "channel", "subtype": "noteOff", "noteNumber": 40, "velocity": 0  },
      { "deltaTime": 1, "channel": 9, "type": "channel", "noteNumber": 35, "velocity": 64, "subtype": "noteOn"  },
      { "deltaTime": 0, "channel": 9, "type": "channel", "noteNumber": 40, "velocity": 64, "subtype": "noteOn"  },
      { "deltaTime": 0, "channel": 9, "type": "channel", "noteNumber": 46, "velocity": 64, "subtype": "noteOn"  },
      { "deltaTime": 239, "channel": 9, "type": "channel", "subtype": "noteOff", "noteNumber": 35, "velocity": 0  },
      { "deltaTime": 0, "channel": 9, "type": "channel", "subtype": "noteOff", "noteNumber": 40, "velocity": 0  },
      { "deltaTime": 0, "channel": 9, "type": "channel", "subtype": "noteOff", "noteNumber": 46, "velocity": 0  },
      { "deltaTime": 1, "channel": 9, "type": "channel", "noteNumber": 40, "velocity": 64, "subtype": "noteOn"  },
      { "deltaTime": 239, "channel": 9, "type": "channel", "subtype": "noteOff", "noteNumber": 40, "velocity": 0  },
      { "deltaTime": 1, "channel": 9, "type": "channel", "noteNumber": 44, "velocity": 64, "subtype": "noteOn"  },
      { "deltaTime": 239, "channel": 9, "type": "channel", "subtype": "noteOff", "noteNumber": 44, "velocity": 0  },
      { "deltaTime": 241, "channel": 9, "type": "channel", "noteNumber": 40, "velocity": 64, "subtype": "noteOn"  },
      { "deltaTime": 239, "channel": 9, "type": "channel", "subtype": "noteOff", "noteNumber": 40, "velocity": 0  },
      { "deltaTime": 1, "channel": 9, "type": "channel", "noteNumber": 40, "velocity": 64, "subtype": "noteOn"  },
      { "deltaTime": 239, "channel": 9, "type": "channel", "subtype": "noteOff", "noteNumber": 40, "velocity": 0  },
      { "deltaTime": 1, "channel": 9, "type": "channel", "noteNumber": 40, "velocity": 64, "subtype": "noteOn"  },
      { "deltaTime": 239, "channel": 9, "type": "channel", "subtype": "noteOff", "noteNumber": 40, "velocity": 0  },
      { "deltaTime": 1, "channel": 9, "type": "channel", "noteNumber": 40, "velocity": 64, "subtype": "noteOn"  },
      { "deltaTime": 239, "channel": 9, "type": "channel", "subtype": "noteOff", "noteNumber": 40, "velocity": 0  },
      { "deltaTime": 1, "channel": 9, "type": "channel", "noteNumber": 40, "velocity": 64, "subtype": "noteOn"  },
      { "deltaTime": 0, "channel": 9, "type": "channel", "noteNumber": 56, "velocity": 64, "subtype": "noteOn"  },
      { "deltaTime": 239, "channel": 9, "type": "channel", "subtype": "noteOff", "noteNumber": 40, "velocity": 0  },
      { "deltaTime": 0, "channel": 9, "type": "channel", "subtype": "noteOff", "noteNumber": 56, "velocity": 0  },
      { "deltaTime": 1, "channel": 9, "type": "channel", "noteNumber": 40, "velocity": 64, "subtype": "noteOn"  },
      { "deltaTime": 239, "channel": 9, "type": "channel", "subtype": "noteOff", "noteNumber": 40, "velocity": 0  },
      { "deltaTime": 1, "channel": 9, "type": "channel", "noteNumber": 40, "velocity": 64, "subtype": "noteOn"  },
      { "deltaTime": 0, "channel": 9, "type": "channel", "noteNumber": 56, "velocity": 64, "subtype": "noteOn"  },
      { "deltaTime": 239, "channel": 9, "type": "channel", "subtype": "noteOff", "noteNumber": 40, "velocity": 0  },
      { "deltaTime": 0, "channel": 9, "type": "channel", "subtype": "noteOff", "noteNumber": 56, "velocity": 0  },
      { "deltaTime": 1, "channel": 9, "type": "channel", "noteNumber": 40, "velocity": 64, "subtype": "noteOn"  },
      { "deltaTime": 239, "channel": 9, "type": "channel", "subtype": "noteOff", "noteNumber": 40, "velocity": 0  },
      { "deltaTime": 1, "channel": 9, "type": "channel", "noteNumber": 55, "velocity": 64, "subtype": "noteOn"  },
      { "deltaTime": 239, "channel": 9, "type": "channel", "subtype": "noteOff", "noteNumber": 55, "velocity": 0  },
      { "deltaTime": 241, "channel": 9, "type": "channel", "noteNumber": 40, "velocity": 64, "subtype": "noteOn"  },
      { "deltaTime": 0, "channel": 9, "type": "channel", "noteNumber": 46, "velocity": 64, "subtype": "noteOn"  },
      { "deltaTime": 239, "channel": 9, "type": "channel", "subtype": "noteOff", "noteNumber": 40, "velocity": 0  },
      { "deltaTime": 0, "channel": 9, "type": "channel", "subtype": "noteOff", "noteNumber": 46, "velocity": 0  },
      { "deltaTime": 1, "channel": 9, "type": "channel", "noteNumber": 40, "velocity": 64, "subtype": "noteOn"  },
      { "deltaTime": 239, "channel": 9, "type": "channel", "subtype": "noteOff", "noteNumber": 40, "velocity": 0  },
      { "deltaTime": 1, "channel": 9, "type": "channel", "noteNumber": 40, "velocity": 64, "subtype": "noteOn"  },
      { "deltaTime": 0, "channel": 9, "type": "channel", "noteNumber": 44, "velocity": 64, "subtype": "noteOn"  },
      { "deltaTime": 239, "channel": 9, "type": "channel", "subtype": "noteOff", "noteNumber": 40, "velocity": 0  },
      { "deltaTime": 0, "channel": 9, "type": "channel", "subtype": "noteOff", "noteNumber": 44, "velocity": 0  },
      { "deltaTime": 1, "channel": 9, "type": "channel", "noteNumber": 40, "velocity": 64, "subtype": "noteOn"  },
      { "deltaTime": 239, "channel": 9, "type": "channel", "subtype": "noteOff", "noteNumber": 40, "velocity": 0  },
      { "deltaTime": 481, "channel": 9, "type": "channel", "noteNumber": 40, "velocity": 64, "subtype": "noteOn"  },
      { "deltaTime": 0, "channel": 9, "type": "channel", "noteNumber": 56, "velocity": 64, "subtype": "noteOn"  },
      { "deltaTime": 239, "channel": 9, "type": "channel", "subtype": "noteOff", "noteNumber": 40, "velocity": 0  },
      { "deltaTime": 0, "channel": 9, "type": "channel", "subtype": "noteOff", "noteNumber": 56, "velocity": 0  },
      { "deltaTime": 1, "channel": 9, "type": "channel", "noteNumber": 40, "velocity": 64, "subtype": "noteOn"  },
      { "deltaTime": 239, "channel": 9, "type": "channel", "subtype": "noteOff", "noteNumber": 40, "velocity": 0  },
      { "deltaTime": 1, "channel": 9, "type": "channel", "noteNumber": 40, "velocity": 64, "subtype": "noteOn"  },
      { "deltaTime": 0, "channel": 9, "type": "channel", "noteNumber": 56, "velocity": 64, "subtype": "noteOn"  },
      { "deltaTime": 239, "channel": 9, "type": "channel", "subtype": "noteOff", "noteNumber": 40, "velocity": 0  },
      { "deltaTime": 0, "channel": 9, "type": "channel", "subtype": "noteOff", "noteNumber": 56, "velocity": 0  },
      { "deltaTime": 1, "channel": 9, "type": "channel", "noteNumber": 40, "velocity": 64, "subtype": "noteOn"  },
      { "deltaTime": 239, "channel": 9, "type": "channel", "subtype": "noteOff", "noteNumber": 40, "velocity": 0  },
      { "deltaTime": 1, "channel": 9, "type": "channel", "noteNumber": 55, "velocity": 64, "subtype": "noteOn"  },
      { "deltaTime": 239, "channel": 9, "type": "channel", "subtype": "noteOff", "noteNumber": 55, "velocity": 0  },
      { "deltaTime": 241, "channel": 9, "type": "channel", "noteNumber": 40, "velocity": 64, "subtype": "noteOn"  },
      { "deltaTime": 239, "channel": 9, "type": "channel", "subtype": "noteOff", "noteNumber": 40, "velocity": 0  },
      { "deltaTime": 1, "channel": 9, "type": "channel", "noteNumber": 40, "velocity": 64, "subtype": "noteOn"  },
      { "deltaTime": 239, "channel": 9, "type": "channel", "subtype": "noteOff", "noteNumber": 40, "velocity": 0  },
      { "deltaTime": 1, "channel": 9, "type": "channel", "noteNumber": 35, "velocity": 64, "subtype": "noteOn"  },
      { "deltaTime": 0, "channel": 9, "type": "channel", "noteNumber": 40, "velocity": 64, "subtype": "noteOn"  },
      { "deltaTime": 0, "channel": 9, "type": "channel", "noteNumber": 46, "velocity": 64, "subtype": "noteOn"  },
      { "deltaTime": 239, "channel": 9, "type": "channel", "subtype": "noteOff", "noteNumber": 35, "velocity": 0  },
      { "deltaTime": 0, "channel": 9, "type": "channel", "subtype": "noteOff", "noteNumber": 40, "velocity": 0  },
      { "deltaTime": 0, "channel": 9, "type": "channel", "subtype": "noteOff", "noteNumber": 46, "velocity": 0  },
      { "deltaTime": 1, "channel": 9, "type": "channel", "noteNumber": 40, "velocity": 64, "subtype": "noteOn"  },
      { "deltaTime": 239, "channel": 9, "type": "channel", "subtype": "noteOff", "noteNumber": 40, "velocity": 0  },
      { "deltaTime": 1, "channel": 9, "type": "channel", "noteNumber": 44, "velocity": 64, "subtype": "noteOn"  },
      { "deltaTime": 239, "channel": 9, "type": "channel", "subtype": "noteOff", "noteNumber": 44, "velocity": 0  },
      { "deltaTime": 241, "channel": 9, "type": "channel", "noteNumber": 40, "velocity": 64, "subtype": "noteOn"  },
      { "deltaTime": 0, "channel": 9, "type": "channel", "noteNumber": 77, "velocity": 64, "subtype": "noteOn"  },
      { "deltaTime": 239, "channel": 9, "type": "channel", "subtype": "noteOff", "noteNumber": 40, "velocity": 0  },
      { "deltaTime": 0, "channel": 9, "type": "channel", "subtype": "noteOff", "noteNumber": 77, "velocity": 0  },
      { "deltaTime": 1, "channel": 9, "type": "channel", "noteNumber": 40, "velocity": 64, "subtype": "noteOn"  },
      { "deltaTime": 0, "channel": 9, "type": "channel", "noteNumber": 77, "velocity": 64, "subtype": "noteOn"  },
      { "deltaTime": 239, "channel": 9, "type": "channel", "subtype": "noteOff", "noteNumber": 40, "velocity": 0  },
      { "deltaTime": 0, "channel": 9, "type": "channel", "subtype": "noteOff", "noteNumber": 77, "velocity": 0  },
      { "deltaTime": 1, "channel": 9, "type": "channel", "noteNumber": 40, "velocity": 64, "subtype": "noteOn"  },
      { "deltaTime": 239, "channel": 9, "type": "channel", "subtype": "noteOff", "noteNumber": 40, "velocity": 0  },
      { "deltaTime": 1, "channel": 9, "type": "channel", "noteNumber": 40, "velocity": 64, "subtype": "noteOn"  },
      { "deltaTime": 239, "channel": 9, "type": "channel", "subtype": "noteOff", "noteNumber": 40, "velocity": 0  },
      { "deltaTime": 1, "channel": 9, "type": "channel", "noteNumber": 35, "velocity": 64, "subtype": "noteOn"  },
      { "deltaTime": 0, "channel": 9, "type": "channel", "noteNumber": 57, "velocity": 64, "subtype": "noteOn"  },
      { "deltaTime": 239, "channel": 9, "type": "channel", "subtype": "noteOff", "noteNumber": 35, "velocity": 0  },
      { "deltaTime": 0, "channel": 9, "type": "channel", "subtype": "noteOff", "noteNumber": 57, "velocity": 0  },
      { "deltaTime": 241, "channel": 9, "type": "channel", "noteNumber": 56, "velocity": 64, "subtype": "noteOn"  },
      { "deltaTime": 239, "channel": 9, "type": "channel", "subtype": "noteOff", "noteNumber": 56, "velocity": 0  },
      { "deltaTime": 241, "channel": 9, "type": "channel", "noteNumber": 35, "velocity": 64, "subtype": "noteOn"  },
      { "deltaTime": 0, "channel": 9, "type": "channel", "noteNumber": 40, "velocity": 64, "subtype": "noteOn"  },
      { "deltaTime": 0, "channel": 9, "type": "channel", "noteNumber": 55, "velocity": 64, "subtype": "noteOn"  },
      { "deltaTime": 0, "channel": 9, "type": "channel", "noteNumber": 65, "velocity": 64, "subtype": "noteOn"  },
      { "deltaTime": 239, "channel": 9, "type": "channel", "subtype": "noteOff", "noteNumber": 35, "velocity": 0  },
      { "deltaTime": 0, "channel": 9, "type": "channel", "subtype": "noteOff", "noteNumber": 40, "velocity": 0  },
      { "deltaTime": 0, "channel": 9, "type": "channel", "subtype": "noteOff", "noteNumber": 55, "velocity": 0  },
      { "deltaTime": 0, "channel": 9, "type": "channel", "subtype": "noteOff", "noteNumber": 65, "velocity": 0  },
      { "deltaTime": 1, "channel": 9, "type": "channel", "noteNumber": 40, "velocity": 64, "subtype": "noteOn"  },
      { "deltaTime": 0, "channel": 9, "type": "channel", "noteNumber": 65, "velocity": 64, "subtype": "noteOn"  },
      { "deltaTime": 239, "channel": 9, "type": "channel", "subtype": "noteOff", "noteNumber": 40, "velocity": 0  },
      { "deltaTime": 0, "channel": 9, "type": "channel", "subtype": "noteOff", "noteNumber": 65, "velocity": 0  },
      { "deltaTime": 481, "channel": 9, "type": "channel", "noteNumber": 35, "velocity": 64, "subtype": "noteOn"  },
      { "deltaTime": 0, "channel": 9, "type": "channel", "noteNumber": 56, "velocity": 64, "subtype": "noteOn"  },
      { "deltaTime": 239, "channel": 9, "type": "channel", "subtype": "noteOff", "noteNumber": 35, "velocity": 0  },
      { "deltaTime": 0, "channel": 9, "type": "channel", "subtype": "noteOff", "noteNumber": 56, "velocity": 0  },
      { "deltaTime": 241, "channel": 9, "type": "channel", "noteNumber": 55, "velocity": 64, "subtype": "noteOn"  },
      { "deltaTime": 239, "channel": 9, "type": "channel", "subtype": "noteOff", "noteNumber": 55, "velocity": 0  },
      { "deltaTime": 241, "channel": 9, "type": "channel", "noteNumber": 35, "velocity": 64, "subtype": "noteOn"  },
      { "deltaTime": 239, "channel": 9, "type": "channel", "subtype": "noteOff", "noteNumber": 35, "velocity": 0  },
      { "deltaTime": 241, "channel": 9, "type": "channel", "noteNumber": 56, "velocity": 64, "subtype": "noteOn"  },
      { "deltaTime": 239, "channel": 9, "type": "channel", "subtype": "noteOff", "noteNumber": 56, "velocity": 0  },
      { "deltaTime": 241, "channel": 9, "type": "channel", "noteNumber": 35, "velocity": 64, "subtype": "noteOn"  },
      { "deltaTime": 0, "channel": 9, "type": "channel", "noteNumber": 40, "velocity": 64, "subtype": "noteOn"  },
      { "deltaTime": 0, "channel": 9, "type": "channel", "noteNumber": 55, "velocity": 64, "subtype": "noteOn"  },
      { "deltaTime": 0, "channel": 9, "type": "channel", "noteNumber": 65, "velocity": 64, "subtype": "noteOn"  },
      { "deltaTime": 239, "channel": 9, "type": "channel", "subtype": "noteOff", "noteNumber": 35, "velocity": 0  },
      { "deltaTime": 0, "channel": 9, "type": "channel", "subtype": "noteOff", "noteNumber": 40, "velocity": 0  },
      { "deltaTime": 0, "channel": 9, "type": "channel", "subtype": "noteOff", "noteNumber": 55, "velocity": 0  },
      { "deltaTime": 0, "channel": 9, "type": "channel", "subtype": "noteOff", "noteNumber": 65, "velocity": 0  },
      { "deltaTime": 1, "channel": 9, "type": "channel", "noteNumber": 40, "velocity": 64, "subtype": "noteOn"  },
      { "deltaTime": 0, "channel": 9, "type": "channel", "noteNumber": 65, "velocity": 64, "subtype": "noteOn"  },
      { "deltaTime": 239, "channel": 9, "type": "channel", "subtype": "noteOff", "noteNumber": 40, "velocity": 0  },
      { "deltaTime": 0, "channel": 9, "type": "channel", "subtype": "noteOff", "noteNumber": 65, "velocity": 0  },
      { "deltaTime": 241, "channel": 9, "type": "channel", "noteNumber": 55, "velocity": 64, "subtype": "noteOn"  },
      { "deltaTime": 239, "channel": 9, "type": "channel", "subtype": "noteOff", "noteNumber": 55, "velocity": 0  },
      { "deltaTime": 1, "channel": 9, "type": "channel", "noteNumber": 35, "velocity": 64, "subtype": "noteOn"  },
      { "deltaTime": 0, "channel": 9, "type": "channel", "noteNumber": 55, "velocity": 64, "subtype": "noteOn"  },
      { "deltaTime": 239, "channel": 9, "type": "channel", "subtype": "noteOff", "noteNumber": 35, "velocity": 0  },
      { "deltaTime": 0, "channel": 9, "type": "channel", "subtype": "noteOff", "noteNumber": 55, "velocity": 0  },
      { "deltaTime": 241, "channel": 9, "type": "channel", "noteNumber": 56, "velocity": 64, "subtype": "noteOn"  },
      { "deltaTime": 239, "channel": 9, "type": "channel", "subtype": "noteOff", "noteNumber": 56, "velocity": 0  },
      { "deltaTime": 241, "channel": 9, "type": "channel", "noteNumber": 35, "velocity": 64, "subtype": "noteOn"  },
      { "deltaTime": 0, "channel": 9, "type": "channel", "noteNumber": 67, "velocity": 64, "subtype": "noteOn"  },
      { "deltaTime": 239, "channel": 9, "type": "channel", "subtype": "noteOff", "noteNumber": 35, "velocity": 0  },
      { "deltaTime": 0, "channel": 9, "type": "channel", "subtype": "noteOff", "noteNumber": 67, "velocity": 0  },
      { "deltaTime": 1, "channel": 9, "type": "channel", "noteNumber": 55, "velocity": 64, "subtype": "noteOn"  },
      { "deltaTime": 239, "channel": 9, "type": "channel", "subtype": "noteOff", "noteNumber": 55, "velocity": 0  },
      { "deltaTime": 1, "channel": 9, "type": "channel", "noteNumber": 67, "velocity": 64, "subtype": "noteOn"  },
      { "deltaTime": 239, "channel": 9, "type": "channel", "subtype": "noteOff", "noteNumber": 67, "velocity": 0  },
      { "deltaTime": 241, "channel": 9, "type": "channel", "noteNumber": 40, "velocity": 64, "subtype": "noteOn"  },
      { "deltaTime": 0, "channel": 9, "type": "channel", "noteNumber": 56, "velocity": 64, "subtype": "noteOn"  },
      { "deltaTime": 239, "channel": 9, "type": "channel", "subtype": "noteOff", "noteNumber": 40, "velocity": 0  },
      { "deltaTime": 0, "channel": 9, "type": "channel", "subtype": "noteOff", "noteNumber": 56, "velocity": 0  },
      { "deltaTime": 1, "channel": 9, "type": "channel", "noteNumber": 40, "velocity": 64, "subtype": "noteOn"  },
      { "deltaTime": 239, "channel": 9, "type": "channel", "subtype": "noteOff", "noteNumber": 40, "velocity": 0  },
      { "deltaTime": 1, "channel": 9, "type": "channel", "noteNumber": 40, "velocity": 64, "subtype": "noteOn"  },
      { "deltaTime": 0, "channel": 9, "type": "channel", "noteNumber": 56, "velocity": 64, "subtype": "noteOn"  },
      { "deltaTime": 239, "channel": 9, "type": "channel", "subtype": "noteOff", "noteNumber": 40, "velocity": 0  },
      { "deltaTime": 0, "channel": 9, "type": "channel", "subtype": "noteOff", "noteNumber": 56, "velocity": 0  },
      { "deltaTime": 1, "channel": 9, "type": "channel", "noteNumber": 40, "velocity": 64, "subtype": "noteOn"  },
      { "deltaTime": 239, "channel": 9, "type": "channel", "subtype": "noteOff", "noteNumber": 40, "velocity": 0  },
      { "deltaTime": 1, "channel": 9, "type": "channel", "noteNumber": 55, "velocity": 64, "subtype": "noteOn"  },
      { "deltaTime": 239, "channel": 9, "type": "channel", "subtype": "noteOff", "noteNumber": 55, "velocity": 0  },
      { "deltaTime": 241, "channel": 9, "type": "channel", "noteNumber": 40, "velocity": 64, "subtype": "noteOn"  },
      { "deltaTime": 0, "channel": 9, "type": "channel", "noteNumber": 46, "velocity": 64, "subtype": "noteOn"  },
      { "deltaTime": 239, "channel": 9, "type": "channel", "subtype": "noteOff", "noteNumber": 40, "velocity": 0  },
      { "deltaTime": 0, "channel": 9, "type": "channel", "subtype": "noteOff", "noteNumber": 46, "velocity": 0  },
      { "deltaTime": 1, "channel": 9, "type": "channel", "noteNumber": 40, "velocity": 64, "subtype": "noteOn"  },
      { "deltaTime": 239, "channel": 9, "type": "channel", "subtype": "noteOff", "noteNumber": 40, "velocity": 0  },
      { "deltaTime": 1, "channel": 9, "type": "channel", "noteNumber": 40, "velocity": 64, "subtype": "noteOn"  },
      { "deltaTime": 0, "channel": 9, "type": "channel", "noteNumber": 44, "velocity": 64, "subtype": "noteOn"  },
      { "deltaTime": 239, "channel": 9, "type": "channel", "subtype": "noteOff", "noteNumber": 40, "velocity": 0  },
      { "deltaTime": 0, "channel": 9, "type": "channel", "subtype": "noteOff", "noteNumber": 44, "velocity": 0  },
      { "deltaTime": 1, "channel": 9, "type": "channel", "noteNumber": 40, "velocity": 64, "subtype": "noteOn"  },
      { "deltaTime": 239, "channel": 9, "type": "channel", "subtype": "noteOff", "noteNumber": 40, "velocity": 0  },
      { "deltaTime": 481, "channel": 9, "type": "channel", "noteNumber": 40, "velocity": 64, "subtype": "noteOn"  },
      { "deltaTime": 0, "channel": 9, "type": "channel", "noteNumber": 56, "velocity": 64, "subtype": "noteOn"  },
      { "deltaTime": 239, "channel": 9, "type": "channel", "subtype": "noteOff", "noteNumber": 40, "velocity": 0  },
      { "deltaTime": 0, "channel": 9, "type": "channel", "subtype": "noteOff", "noteNumber": 56, "velocity": 0  },
      { "deltaTime": 1, "channel": 9, "type": "channel", "noteNumber": 40, "velocity": 64, "subtype": "noteOn"  },
      { "deltaTime": 239, "channel": 9, "type": "channel", "subtype": "noteOff", "noteNumber": 40, "velocity": 0  },
      { "deltaTime": 1, "channel": 9, "type": "channel", "noteNumber": 40, "velocity": 64, "subtype": "noteOn"  },
      { "deltaTime": 0, "channel": 9, "type": "channel", "noteNumber": 56, "velocity": 64, "subtype": "noteOn"  },
      { "deltaTime": 239, "channel": 9, "type": "channel", "subtype": "noteOff", "noteNumber": 40, "velocity": 0  },
      { "deltaTime": 0, "channel": 9, "type": "channel", "subtype": "noteOff", "noteNumber": 56, "velocity": 0  },
      { "deltaTime": 1, "channel": 9, "type": "channel", "noteNumber": 40, "velocity": 64, "subtype": "noteOn"  },
      { "deltaTime": 239, "channel": 9, "type": "channel", "subtype": "noteOff", "noteNumber": 40, "velocity": 0  },
      { "deltaTime": 1, "channel": 9, "type": "channel", "noteNumber": 55, "velocity": 64, "subtype": "noteOn"  },
      { "deltaTime": 239, "channel": 9, "type": "channel", "subtype": "noteOff", "noteNumber": 55, "velocity": 0  },
      { "deltaTime": 241, "channel": 9, "type": "channel", "noteNumber": 40, "velocity": 64, "subtype": "noteOn"  },
      { "deltaTime": 239, "channel": 9, "type": "channel", "subtype": "noteOff", "noteNumber": 40, "velocity": 0  },
      { "deltaTime": 1, "channel": 9, "type": "channel", "noteNumber": 40, "velocity": 64, "subtype": "noteOn"  },
      { "deltaTime": 239, "channel": 9, "type": "channel", "subtype": "noteOff", "noteNumber": 40, "velocity": 0  },
      { "deltaTime": 1, "channel": 9, "type": "channel", "noteNumber": 35, "velocity": 64, "subtype": "noteOn"  },
      { "deltaTime": 0, "channel": 9, "type": "channel", "noteNumber": 40, "velocity": 64, "subtype": "noteOn"  },
      { "deltaTime": 0, "channel": 9, "type": "channel", "noteNumber": 46, "velocity": 64, "subtype": "noteOn"  },
      { "deltaTime": 239, "channel": 9, "type": "channel", "subtype": "noteOff", "noteNumber": 35, "velocity": 0  },
      { "deltaTime": 0, "channel": 9, "type": "channel", "subtype": "noteOff", "noteNumber": 40, "velocity": 0  },
      { "deltaTime": 0, "channel": 9, "type": "channel", "subtype": "noteOff", "noteNumber": 46, "velocity": 0  },
      { "deltaTime": 1, "channel": 9, "type": "channel", "noteNumber": 40, "velocity": 64, "subtype": "noteOn"  },
      { "deltaTime": 239, "channel": 9, "type": "channel", "subtype": "noteOff", "noteNumber": 40, "velocity": 0  },
      { "deltaTime": 1, "channel": 9, "type": "channel", "noteNumber": 44, "velocity": 64, "subtype": "noteOn"  },
      { "deltaTime": 239, "channel": 9, "type": "channel", "subtype": "noteOff", "noteNumber": 44, "velocity": 0  },
      { "deltaTime": 241, "channel": 9, "type": "channel", "noteNumber": 40, "velocity": 64, "subtype": "noteOn"  },
      { "deltaTime": 0, "channel": 9, "type": "channel", "noteNumber": 77, "velocity": 64, "subtype": "noteOn"  },
      { "deltaTime": 239, "channel": 9, "type": "channel", "subtype": "noteOff", "noteNumber": 40, "velocity": 0  },
      { "deltaTime": 0, "channel": 9, "type": "channel", "subtype": "noteOff", "noteNumber": 77, "velocity": 0  },
      { "deltaTime": 1, "channel": 9, "type": "channel", "noteNumber": 40, "velocity": 64, "subtype": "noteOn"  },
      { "deltaTime": 0, "channel": 9, "type": "channel", "noteNumber": 77, "velocity": 64, "subtype": "noteOn"  },
      { "deltaTime": 239, "channel": 9, "type": "channel", "subtype": "noteOff", "noteNumber": 40, "velocity": 0  },
      { "deltaTime": 0, "channel": 9, "type": "channel", "subtype": "noteOff", "noteNumber": 77, "velocity": 0  },
      { "deltaTime": 1, "channel": 9, "type": "channel", "noteNumber": 40, "velocity": 64, "subtype": "noteOn"  },
      { "deltaTime": 239, "channel": 9, "type": "channel", "subtype": "noteOff", "noteNumber": 40, "velocity": 0  },
      { "deltaTime": 1, "channel": 9, "type": "channel", "noteNumber": 40, "velocity": 64, "subtype": "noteOn"  },
      { "deltaTime": 239, "channel": 9, "type": "channel", "subtype": "noteOff", "noteNumber": 40, "velocity": 0  },
      { "deltaTime": 1, "channel": 9, "type": "channel", "noteNumber": 35, "velocity": 64, "subtype": "noteOn"  },
      { "deltaTime": 0, "channel": 9, "type": "channel", "noteNumber": 57, "velocity": 64, "subtype": "noteOn"  },
      { "deltaTime": 239, "channel": 9, "type": "channel", "subtype": "noteOff", "noteNumber": 35, "velocity": 0  },
      { "deltaTime": 0, "channel": 9, "type": "channel", "subtype": "noteOff", "noteNumber": 57, "velocity": 0  },
      { "deltaTime": 241, "channel": 9, "type": "channel", "noteNumber": 56, "velocity": 64, "subtype": "noteOn"  },
      { "deltaTime": 239, "channel": 9, "type": "channel", "subtype": "noteOff", "noteNumber": 56, "velocity": 0  },
      { "deltaTime": 241, "channel": 9, "type": "channel", "noteNumber": 35, "velocity": 64, "subtype": "noteOn"  },
      { "deltaTime": 0, "channel": 9, "type": "channel", "noteNumber": 40, "velocity": 64, "subtype": "noteOn"  },
      { "deltaTime": 0, "channel": 9, "type": "channel", "noteNumber": 55, "velocity": 64, "subtype": "noteOn"  },
      { "deltaTime": 0, "channel": 9, "type": "channel", "noteNumber": 65, "velocity": 64, "subtype": "noteOn"  },
      { "deltaTime": 239, "channel": 9, "type": "channel", "subtype": "noteOff", "noteNumber": 35, "velocity": 0  },
      { "deltaTime": 0, "channel": 9, "type": "channel", "subtype": "noteOff", "noteNumber": 40, "velocity": 0  },
      { "deltaTime": 0, "channel": 9, "type": "channel", "subtype": "noteOff", "noteNumber": 55, "velocity": 0  },
      { "deltaTime": 0, "channel": 9, "type": "channel", "subtype": "noteOff", "noteNumber": 65, "velocity": 0  },
      { "deltaTime": 1, "channel": 9, "type": "channel", "noteNumber": 40, "velocity": 64, "subtype": "noteOn"  },
      { "deltaTime": 0, "channel": 9, "type": "channel", "noteNumber": 65, "velocity": 64, "subtype": "noteOn"  },
      { "deltaTime": 239, "channel": 9, "type": "channel", "subtype": "noteOff", "noteNumber": 40, "velocity": 0  },
      { "deltaTime": 0, "channel": 9, "type": "channel", "subtype": "noteOff", "noteNumber": 65, "velocity": 0  },
      { "deltaTime": 481, "channel": 9, "type": "channel", "noteNumber": 35, "velocity": 64, "subtype": "noteOn"  },
      { "deltaTime": 0, "channel": 9, "type": "channel", "noteNumber": 56, "velocity": 64, "subtype": "noteOn"  },
      { "deltaTime": 239, "channel": 9, "type": "channel", "subtype": "noteOff", "noteNumber": 35, "velocity": 0  },
      { "deltaTime": 0, "channel": 9, "type": "channel", "subtype": "noteOff", "noteNumber": 56, "velocity": 0  },
      { "deltaTime": 241, "channel": 9, "type": "channel", "noteNumber": 55, "velocity": 64, "subtype": "noteOn"  },
      { "deltaTime": 239, "channel": 9, "type": "channel", "subtype": "noteOff", "noteNumber": 55, "velocity": 0  },
      { "deltaTime": 241, "channel": 9, "type": "channel", "noteNumber": 35, "velocity": 64, "subtype": "noteOn"  },
      { "deltaTime": 239, "channel": 9, "type": "channel", "subtype": "noteOff", "noteNumber": 35, "velocity": 0  },
      { "deltaTime": 241, "channel": 9, "type": "channel", "noteNumber": 56, "velocity": 64, "subtype": "noteOn"  },
      { "deltaTime": 239, "channel": 9, "type": "channel", "subtype": "noteOff", "noteNumber": 56, "velocity": 0  },
      { "deltaTime": 241, "channel": 9, "type": "channel", "noteNumber": 35, "velocity": 64, "subtype": "noteOn"  },
      { "deltaTime": 0, "channel": 9, "type": "channel", "noteNumber": 40, "velocity": 64, "subtype": "noteOn"  },
      { "deltaTime": 0, "channel": 9, "type": "channel", "noteNumber": 55, "velocity": 64, "subtype": "noteOn"  },
      { "deltaTime": 0, "channel": 9, "type": "channel", "noteNumber": 65, "velocity": 64, "subtype": "noteOn"  },
      { "deltaTime": 239, "channel": 9, "type": "channel", "subtype": "noteOff", "noteNumber": 35, "velocity": 0  },
      { "deltaTime": 0, "channel": 9, "type": "channel", "subtype": "noteOff", "noteNumber": 40, "velocity": 0  },
      { "deltaTime": 0, "channel": 9, "type": "channel", "subtype": "noteOff", "noteNumber": 55, "velocity": 0  },
      { "deltaTime": 0, "channel": 9, "type": "channel", "subtype": "noteOff", "noteNumber": 65, "velocity": 0  },
      { "deltaTime": 1, "channel": 9, "type": "channel", "noteNumber": 40, "velocity": 64, "subtype": "noteOn"  },
      { "deltaTime": 0, "channel": 9, "type": "channel", "noteNumber": 65, "velocity": 64, "subtype": "noteOn"  },
      { "deltaTime": 239, "channel": 9, "type": "channel", "subtype": "noteOff", "noteNumber": 40, "velocity": 0  },
      { "deltaTime": 0, "channel": 9, "type": "channel", "subtype": "noteOff", "noteNumber": 65, "velocity": 0  },
      { "deltaTime": 241, "channel": 9, "type": "channel", "noteNumber": 55, "velocity": 64, "subtype": "noteOn"  },
      { "deltaTime": 239, "channel": 9, "type": "channel", "subtype": "noteOff", "noteNumber": 55, "velocity": 0  },
      { "deltaTime": 1, "channel": 9, "type": "channel", "noteNumber": 35, "velocity": 64, "subtype": "noteOn"  },
      { "deltaTime": 0, "channel": 9, "type": "channel", "noteNumber": 55, "velocity": 64, "subtype": "noteOn"  },
      { "deltaTime": 239, "channel": 9, "type": "channel", "subtype": "noteOff", "noteNumber": 35, "velocity": 0  },
      { "deltaTime": 0, "channel": 9, "type": "channel", "subtype": "noteOff", "noteNumber": 55, "velocity": 0  },
      { "deltaTime": 241, "channel": 9, "type": "channel", "noteNumber": 56, "velocity": 64, "subtype": "noteOn"  },
      { "deltaTime": 239, "channel": 9, "type": "channel", "subtype": "noteOff", "noteNumber": 56, "velocity": 0  },
      { "deltaTime": 241, "channel": 9, "type": "channel", "noteNumber": 35, "velocity": 64, "subtype": "noteOn"  },
      { "deltaTime": 0, "channel": 9, "type": "channel", "noteNumber": 67, "velocity": 64, "subtype": "noteOn"  },
      { "deltaTime": 239, "channel": 9, "type": "channel", "subtype": "noteOff", "noteNumber": 35, "velocity": 0  },
      { "deltaTime": 0, "channel": 9, "type": "channel", "subtype": "noteOff", "noteNumber": 67, "velocity": 0  },
      { "deltaTime": 1, "channel": 9, "type": "channel", "noteNumber": 55, "velocity": 64, "subtype": "noteOn"  },
      { "deltaTime": 239, "channel": 9, "type": "channel", "subtype": "noteOff", "noteNumber": 55, "velocity": 0  },
      { "deltaTime": 1, "channel": 9, "type": "channel", "noteNumber": 67, "velocity": 64, "subtype": "noteOn"  },
      { "deltaTime": 239, "channel": 9, "type": "channel", "subtype": "noteOff", "noteNumber": 67, "velocity": 0  },
      { "deltaTime": 241, "channel": 9, "type": "channel", "noteNumber": 40, "velocity": 64, "subtype": "noteOn"  },
      { "deltaTime": 0, "channel": 9, "type": "channel", "noteNumber": 56, "velocity": 64, "subtype": "noteOn"  },
      { "deltaTime": 239, "channel": 9, "type": "channel", "subtype": "noteOff", "noteNumber": 40, "velocity": 0  },
      { "deltaTime": 0, "channel": 9, "type": "channel", "subtype": "noteOff", "noteNumber": 56, "velocity": 0  },
      { "deltaTime": 1, "channel": 9, "type": "channel", "noteNumber": 40, "velocity": 64, "subtype": "noteOn"  },
      { "deltaTime": 239, "channel": 9, "type": "channel", "subtype": "noteOff", "noteNumber": 40, "velocity": 0  },
      { "deltaTime": 1, "channel": 9, "type": "channel", "noteNumber": 40, "velocity": 64, "subtype": "noteOn"  },
      { "deltaTime": 0, "channel": 9, "type": "channel", "noteNumber": 56, "velocity": 64, "subtype": "noteOn"  },
      { "deltaTime": 239, "channel": 9, "type": "channel", "subtype": "noteOff", "noteNumber": 40, "velocity": 0  },
      { "deltaTime": 0, "channel": 9, "type": "channel", "subtype": "noteOff", "noteNumber": 56, "velocity": 0  },
      { "deltaTime": 1, "channel": 9, "type": "channel", "noteNumber": 40, "velocity": 64, "subtype": "noteOn"  },
      { "deltaTime": 239, "channel": 9, "type": "channel", "subtype": "noteOff", "noteNumber": 40, "velocity": 0  },
      { "deltaTime": 1, "channel": 9, "type": "channel", "noteNumber": 55, "velocity": 64, "subtype": "noteOn"  },
      { "deltaTime": 239, "channel": 9, "type": "channel", "subtype": "noteOff", "noteNumber": 55, "velocity": 0  },
      { "deltaTime": 241, "channel": 9, "type": "channel", "noteNumber": 40, "velocity": 64, "subtype": "noteOn"  },
      { "deltaTime": 0, "channel": 9, "type": "channel", "noteNumber": 46, "velocity": 64, "subtype": "noteOn"  },
      { "deltaTime": 239, "channel": 9, "type": "channel", "subtype": "noteOff", "noteNumber": 40, "velocity": 0  },
      { "deltaTime": 0, "channel": 9, "type": "channel", "subtype": "noteOff", "noteNumber": 46, "velocity": 0  },
      { "deltaTime": 1, "channel": 9, "type": "channel", "noteNumber": 40, "velocity": 64, "subtype": "noteOn"  },
      { "deltaTime": 239, "channel": 9, "type": "channel", "subtype": "noteOff", "noteNumber": 40, "velocity": 0  },
      { "deltaTime": 1, "channel": 9, "type": "channel", "noteNumber": 40, "velocity": 64, "subtype": "noteOn"  },
      { "deltaTime": 0, "channel": 9, "type": "channel", "noteNumber": 44, "velocity": 64, "subtype": "noteOn"  },
      { "deltaTime": 239, "channel": 9, "type": "channel", "subtype": "noteOff", "noteNumber": 40, "velocity": 0  },
      { "deltaTime": 0, "channel": 9, "type": "channel", "subtype": "noteOff", "noteNumber": 44, "velocity": 0  },
      { "deltaTime": 1, "channel": 9, "type": "channel", "noteNumber": 40, "velocity": 64, "subtype": "noteOn"  },
      { "deltaTime": 239, "channel": 9, "type": "channel", "subtype": "noteOff", "noteNumber": 40, "velocity": 0  },
      { "deltaTime": 481, "channel": 9, "type": "channel", "noteNumber": 40, "velocity": 64, "subtype": "noteOn"  },
      { "deltaTime": 0, "channel": 9, "type": "channel", "noteNumber": 56, "velocity": 64, "subtype": "noteOn"  },
      { "deltaTime": 239, "channel": 9, "type": "channel", "subtype": "noteOff", "noteNumber": 40, "velocity": 0  },
      { "deltaTime": 0, "channel": 9, "type": "channel", "subtype": "noteOff", "noteNumber": 56, "velocity": 0  },
      { "deltaTime": 1, "channel": 9, "type": "channel", "noteNumber": 40, "velocity": 64, "subtype": "noteOn"  },
      { "deltaTime": 239, "channel": 9, "type": "channel", "subtype": "noteOff", "noteNumber": 40, "velocity": 0  },
      { "deltaTime": 1, "channel": 9, "type": "channel", "noteNumber": 40, "velocity": 64, "subtype": "noteOn"  },
      { "deltaTime": 0, "channel": 9, "type": "channel", "noteNumber": 56, "velocity": 64, "subtype": "noteOn"  },
      { "deltaTime": 239, "channel": 9, "type": "channel", "subtype": "noteOff", "noteNumber": 40, "velocity": 0  },
      { "deltaTime": 0, "channel": 9, "type": "channel", "subtype": "noteOff", "noteNumber": 56, "velocity": 0  },
      { "deltaTime": 1, "channel": 9, "type": "channel", "noteNumber": 40, "velocity": 64, "subtype": "noteOn"  },
      { "deltaTime": 239, "channel": 9, "type": "channel", "subtype": "noteOff", "noteNumber": 40, "velocity": 0  },
      { "deltaTime": 1, "channel": 9, "type": "channel", "noteNumber": 55, "velocity": 64, "subtype": "noteOn"  },
      { "deltaTime": 239, "channel": 9, "type": "channel", "subtype": "noteOff", "noteNumber": 55, "velocity": 0  },
      { "deltaTime": 241, "channel": 9, "type": "channel", "noteNumber": 40, "velocity": 64, "subtype": "noteOn"  },
      { "deltaTime": 239, "channel": 9, "type": "channel", "subtype": "noteOff", "noteNumber": 40, "velocity": 0  },
      { "deltaTime": 1, "channel": 9, "type": "channel", "noteNumber": 40, "velocity": 64, "subtype": "noteOn"  },
      { "deltaTime": 239, "channel": 9, "type": "channel", "subtype": "noteOff", "noteNumber": 40, "velocity": 0  },
      { "deltaTime": 1, "channel": 9, "type": "channel", "noteNumber": 35, "velocity": 64, "subtype": "noteOn"  },
      { "deltaTime": 0, "channel": 9, "type": "channel", "noteNumber": 40, "velocity": 64, "subtype": "noteOn"  },
      { "deltaTime": 0, "channel": 9, "type": "channel", "noteNumber": 46, "velocity": 64, "subtype": "noteOn"  },
      { "deltaTime": 239, "channel": 9, "type": "channel", "subtype": "noteOff", "noteNumber": 35, "velocity": 0  },
      { "deltaTime": 0, "channel": 9, "type": "channel", "subtype": "noteOff", "noteNumber": 40, "velocity": 0  },
      { "deltaTime": 0, "channel": 9, "type": "channel", "subtype": "noteOff", "noteNumber": 46, "velocity": 0  },
      { "deltaTime": 1, "channel": 9, "type": "channel", "noteNumber": 40, "velocity": 64, "subtype": "noteOn"  },
      { "deltaTime": 239, "channel": 9, "type": "channel", "subtype": "noteOff", "noteNumber": 40, "velocity": 0  },
      { "deltaTime": 1, "channel": 9, "type": "channel", "noteNumber": 44, "velocity": 64, "subtype": "noteOn"  },
      { "deltaTime": 0, "channel": 9, "type": "channel", "noteNumber": 77, "velocity": 64, "subtype": "noteOn"  },
      { "deltaTime": 239, "channel": 9, "type": "channel", "subtype": "noteOff", "noteNumber": 44, "velocity": 0  },
      { "deltaTime": 0, "channel": 9, "type": "channel", "subtype": "noteOff", "noteNumber": 77, "velocity": 0  },
      { "deltaTime": 1, "channel": 9, "type": "channel", "noteNumber": 77, "velocity": 64, "subtype": "noteOn"  },
      { "deltaTime": 239, "channel": 9, "type": "channel", "subtype": "noteOff", "noteNumber": 77, "velocity": 0  },
      { "deltaTime": 1, "channel": 9, "type": "channel", "noteNumber": 40, "velocity": 64, "subtype": "noteOn"  },
      { "deltaTime": 239, "channel": 9, "type": "channel", "subtype": "noteOff", "noteNumber": 40, "velocity": 0  },
      { "deltaTime": 1, "channel": 9, "type": "channel", "noteNumber": 40, "velocity": 64, "subtype": "noteOn"  },
      { "deltaTime": 239, "channel": 9, "type": "channel", "subtype": "noteOff", "noteNumber": 40, "velocity": 0  },
      { "deltaTime": 1, "channel": 9, "type": "channel", "noteNumber": 40, "velocity": 64, "subtype": "noteOn"  },
      { "deltaTime": 239, "channel": 9, "type": "channel", "subtype": "noteOff", "noteNumber": 40, "velocity": 0  },
      { "deltaTime": 1, "channel": 9, "type": "channel", "noteNumber": 40, "velocity": 64, "subtype": "noteOn"  },
      { "deltaTime": 239, "channel": 9, "type": "channel", "subtype": "noteOff", "noteNumber": 40, "velocity": 0  },
      { "deltaTime": 1, "channel": 9, "type": "channel", "noteNumber": 35, "velocity": 64, "subtype": "noteOn"  },
      { "deltaTime": 0, "channel": 9, "type": "channel", "noteNumber": 57, "velocity": 64, "subtype": "noteOn"  },
      { "deltaTime": 239, "channel": 9, "type": "channel", "subtype": "noteOff", "noteNumber": 35, "velocity": 0  },
      { "deltaTime": 0, "channel": 9, "type": "channel", "subtype": "noteOff", "noteNumber": 57, "velocity": 0  },
      { "deltaTime": 241, "channel": 9, "type": "channel", "noteNumber": 42, "velocity": 64, "subtype": "noteOn"  },
      { "deltaTime": 239, "channel": 9, "type": "channel", "subtype": "noteOff", "noteNumber": 42, "velocity": 0  },
      { "deltaTime": 1, "channel": 9, "type": "channel", "noteNumber": 42, "velocity": 64, "subtype": "noteOn"  },
      { "deltaTime": 239, "channel": 9, "type": "channel", "subtype": "noteOff", "noteNumber": 42, "velocity": 0  },
      { "deltaTime": 1, "channel": 9, "type": "channel", "noteNumber": 40, "velocity": 64, "subtype": "noteOn"  },
      { "deltaTime": 239, "channel": 9, "type": "channel", "subtype": "noteOff", "noteNumber": 40, "velocity": 0  },
      { "deltaTime": 241, "channel": 9, "type": "channel", "noteNumber": 42, "velocity": 64, "subtype": "noteOn"  },
      { "deltaTime": 239, "channel": 9, "type": "channel", "subtype": "noteOff", "noteNumber": 42, "velocity": 0  },
      { "deltaTime": 1, "channel": 9, "type": "channel", "noteNumber": 42, "velocity": 64, "subtype": "noteOn"  },
      { "deltaTime": 239, "channel": 9, "type": "channel", "subtype": "noteOff", "noteNumber": 42, "velocity": 0  },
      { "deltaTime": 1, "channel": 9, "type": "channel", "noteNumber": 35, "velocity": 64, "subtype": "noteOn"  },
      { "deltaTime": 0, "channel": 9, "type": "channel", "noteNumber": 42, "velocity": 64, "subtype": "noteOn"  },
      { "deltaTime": 239, "channel": 9, "type": "channel", "subtype": "noteOff", "noteNumber": 35, "velocity": 0  },
      { "deltaTime": 0, "channel": 9, "type": "channel", "subtype": "noteOff", "noteNumber": 42, "velocity": 0  },
      { "deltaTime": 1, "channel": 9, "type": "channel", "noteNumber": 42, "velocity": 64, "subtype": "noteOn"  },
      { "deltaTime": 239, "channel": 9, "type": "channel", "subtype": "noteOff", "noteNumber": 42, "velocity": 0  },
      { "deltaTime": 1, "channel": 9, "type": "channel", "noteNumber": 40, "velocity": 64, "subtype": "noteOn"  },
      { "deltaTime": 0, "channel": 9, "type": "channel", "noteNumber": 56, "velocity": 64, "subtype": "noteOn"  },
      { "deltaTime": 239, "channel": 9, "type": "channel", "subtype": "noteOff", "noteNumber": 40, "velocity": 0  },
      { "deltaTime": 0, "channel": 9, "type": "channel", "subtype": "noteOff", "noteNumber": 56, "velocity": 0  },
      { "deltaTime": 1, "channel": 9, "type": "channel", "noteNumber": 56, "velocity": 64, "subtype": "noteOn"  },
      { "deltaTime": 239, "channel": 9, "type": "channel", "subtype": "noteOff", "noteNumber": 56, "velocity": 0  },
      { "deltaTime": 1, "channel": 9, "type": "channel", "noteNumber": 40, "velocity": 64, "subtype": "noteOn"  },
      { "deltaTime": 0, "channel": 9, "type": "channel", "noteNumber": 56, "velocity": 64, "subtype": "noteOn"  },
      { "deltaTime": 239, "channel": 9, "type": "channel", "subtype": "noteOff", "noteNumber": 40, "velocity": 0  },
      { "deltaTime": 0, "channel": 9, "type": "channel", "subtype": "noteOff", "noteNumber": 56, "velocity": 0  },
      { "deltaTime": 1, "channel": 9, "type": "channel", "noteNumber": 40, "velocity": 64, "subtype": "noteOn"  },
      { "deltaTime": 0, "channel": 9, "type": "channel", "noteNumber": 56, "velocity": 64, "subtype": "noteOn"  },
      { "deltaTime": 239, "channel": 9, "type": "channel", "subtype": "noteOff", "noteNumber": 40, "velocity": 0  },
      { "deltaTime": 0, "channel": 9, "type": "channel", "subtype": "noteOff", "noteNumber": 56, "velocity": 0  },
      { "deltaTime": 481, "channel": 9, "type": "channel", "noteNumber": 35, "velocity": 64, "subtype": "noteOn"  },
      { "deltaTime": 0, "channel": 9, "type": "channel", "noteNumber": 42, "velocity": 64, "subtype": "noteOn"  },
      { "deltaTime": 239, "channel": 9, "type": "channel", "subtype": "noteOff", "noteNumber": 35, "velocity": 0  },
      { "deltaTime": 0, "channel": 9, "type": "channel", "subtype": "noteOff", "noteNumber": 42, "velocity": 0  },
      { "deltaTime": 1, "channel": 9, "type": "channel", "noteNumber": 42, "velocity": 64, "subtype": "noteOn"  },
      { "deltaTime": 239, "channel": 9, "type": "channel", "subtype": "noteOff", "noteNumber": 42, "velocity": 0  },
      { "deltaTime": 1, "channel": 9, "type": "channel", "noteNumber": 42, "velocity": 64, "subtype": "noteOn"  },
      { "deltaTime": 239, "channel": 9, "type": "channel", "subtype": "noteOff", "noteNumber": 42, "velocity": 0  },
      { "deltaTime": 241, "channel": 9, "type": "channel", "noteNumber": 40, "velocity": 64, "subtype": "noteOn"  },
      { "deltaTime": 0, "channel": 9, "type": "channel", "noteNumber": 49, "velocity": 64, "subtype": "noteOn"  },
      { "deltaTime": 239, "channel": 9, "type": "channel", "subtype": "noteOff", "noteNumber": 40, "velocity": 0  },
      { "deltaTime": 0, "channel": 9, "type": "channel", "subtype": "noteOff", "noteNumber": 49, "velocity": 0  },
      { "deltaTime": 481, "channel": 9, "type": "channel", "noteNumber": 40, "velocity": 64, "subtype": "noteOn"  },
      { "deltaTime": 0, "channel": 9, "type": "channel", "noteNumber": 65, "velocity": 64, "subtype": "noteOn"  },
      { "deltaTime": 239, "channel": 9, "type": "channel", "subtype": "noteOff", "noteNumber": 40, "velocity": 0  },
      { "deltaTime": 0, "channel": 9, "type": "channel", "subtype": "noteOff", "noteNumber": 65, "velocity": 0  },
      { "deltaTime": 1, "channel": 9, "type": "channel", "noteNumber": 40, "velocity": 64, "subtype": "noteOn"  },
      { "deltaTime": 0, "channel": 9, "type": "channel", "noteNumber": 65, "velocity": 64, "subtype": "noteOn"  },
      { "deltaTime": 239, "channel": 9, "type": "channel", "subtype": "noteOff", "noteNumber": 40, "velocity": 0  },
      { "deltaTime": 0, "channel": 9, "type": "channel", "subtype": "noteOff", "noteNumber": 65, "velocity": 0  },
      { "deltaTime": 1, "channel": 9, "type": "channel", "noteNumber": 35, "velocity": 64, "subtype": "noteOn"  },
      { "deltaTime": 0, "channel": 9, "type": "channel", "noteNumber": 57, "velocity": 64, "subtype": "noteOn"  },
      { "deltaTime": 239, "channel": 9, "type": "channel", "subtype": "noteOff", "noteNumber": 35, "velocity": 0  },
      { "deltaTime": 0, "channel": 9, "type": "channel", "subtype": "noteOff", "noteNumber": 57, "velocity": 0  },
      { "deltaTime": 481, "channel": 9, "type": "channel", "noteNumber": 35, "velocity": 64, "subtype": "noteOn"  },
      { "deltaTime": 239, "channel": 9, "type": "channel", "subtype": "noteOff", "noteNumber": 35, "velocity": 0  },
      { "deltaTime": 241, "channel": 9, "type": "channel", "noteNumber": 42, "velocity": 64, "subtype": "noteOn"  },
      { "deltaTime": 239, "channel": 9, "type": "channel", "subtype": "noteOff", "noteNumber": 42, "velocity": 0  },
      { "deltaTime": 1, "channel": 9, "type": "channel", "noteNumber": 42, "velocity": 64, "subtype": "noteOn"  },
      { "deltaTime": 239, "channel": 9, "type": "channel", "subtype": "noteOff", "noteNumber": 42, "velocity": 0  },
      { "deltaTime": 1, "channel": 9, "type": "channel", "noteNumber": 40, "velocity": 64, "subtype": "noteOn"  },
      { "deltaTime": 239, "channel": 9, "type": "channel", "subtype": "noteOff", "noteNumber": 40, "velocity": 0  },
      { "deltaTime": 241, "channel": 9, "type": "channel", "noteNumber": 42, "velocity": 64, "subtype": "noteOn"  },
      { "deltaTime": 239, "channel": 9, "type": "channel", "subtype": "noteOff", "noteNumber": 42, "velocity": 0  },
      { "deltaTime": 1, "channel": 9, "type": "channel", "noteNumber": 42, "velocity": 64, "subtype": "noteOn"  },
      { "deltaTime": 239, "channel": 9, "type": "channel", "subtype": "noteOff", "noteNumber": 42, "velocity": 0  },
      { "deltaTime": 1, "channel": 9, "type": "channel", "noteNumber": 35, "velocity": 64, "subtype": "noteOn"  },
      { "deltaTime": 0, "channel": 9, "type": "channel", "noteNumber": 42, "velocity": 64, "subtype": "noteOn"  },
      { "deltaTime": 239, "channel": 9, "type": "channel", "subtype": "noteOff", "noteNumber": 35, "velocity": 0  },
      { "deltaTime": 0, "channel": 9, "type": "channel", "subtype": "noteOff", "noteNumber": 42, "velocity": 0  },
      { "deltaTime": 1, "channel": 9, "type": "channel", "noteNumber": 42, "velocity": 64, "subtype": "noteOn"  },
      { "deltaTime": 239, "channel": 9, "type": "channel", "subtype": "noteOff", "noteNumber": 42, "velocity": 0  },
      { "deltaTime": 1, "channel": 9, "type": "channel", "noteNumber": 40, "velocity": 64, "subtype": "noteOn"  },
      { "deltaTime": 0, "channel": 9, "type": "channel", "noteNumber": 56, "velocity": 64, "subtype": "noteOn"  },
      { "deltaTime": 239, "channel": 9, "type": "channel", "subtype": "noteOff", "noteNumber": 40, "velocity": 0  },
      { "deltaTime": 0, "channel": 9, "type": "channel", "subtype": "noteOff", "noteNumber": 56, "velocity": 0  },
      { "deltaTime": 1, "channel": 9, "type": "channel", "noteNumber": 56, "velocity": 64, "subtype": "noteOn"  },
      { "deltaTime": 239, "channel": 9, "type": "channel", "subtype": "noteOff", "noteNumber": 56, "velocity": 0  },
      { "deltaTime": 1, "channel": 9, "type": "channel", "noteNumber": 40, "velocity": 64, "subtype": "noteOn"  },
      { "deltaTime": 0, "channel": 9, "type": "channel", "noteNumber": 56, "velocity": 64, "subtype": "noteOn"  },
      { "deltaTime": 239, "channel": 9, "type": "channel", "subtype": "noteOff", "noteNumber": 40, "velocity": 0  },
      { "deltaTime": 0, "channel": 9, "type": "channel", "subtype": "noteOff", "noteNumber": 56, "velocity": 0  },
      { "deltaTime": 1, "channel": 9, "type": "channel", "noteNumber": 40, "velocity": 64, "subtype": "noteOn"  },
      { "deltaTime": 0, "channel": 9, "type": "channel", "noteNumber": 56, "velocity": 64, "subtype": "noteOn"  },
      { "deltaTime": 239, "channel": 9, "type": "channel", "subtype": "noteOff", "noteNumber": 40, "velocity": 0  },
      { "deltaTime": 0, "channel": 9, "type": "channel", "subtype": "noteOff", "noteNumber": 56, "velocity": 0  },
      { "deltaTime": 481, "channel": 9, "type": "channel", "noteNumber": 35, "velocity": 64, "subtype": "noteOn"  },
      { "deltaTime": 0, "channel": 9, "type": "channel", "noteNumber": 42, "velocity": 64, "subtype": "noteOn"  },
      { "deltaTime": 239, "channel": 9, "type": "channel", "subtype": "noteOff", "noteNumber": 35, "velocity": 0  },
      { "deltaTime": 0, "channel": 9, "type": "channel", "subtype": "noteOff", "noteNumber": 42, "velocity": 0  },
      { "deltaTime": 1, "channel": 9, "type": "channel", "noteNumber": 42, "velocity": 64, "subtype": "noteOn"  },
      { "deltaTime": 239, "channel": 9, "type": "channel", "subtype": "noteOff", "noteNumber": 42, "velocity": 0  },
      { "deltaTime": 1, "channel": 9, "type": "channel", "noteNumber": 42, "velocity": 64, "subtype": "noteOn"  },
      { "deltaTime": 239, "channel": 9, "type": "channel", "subtype": "noteOff", "noteNumber": 42, "velocity": 0  },
      { "deltaTime": 241, "channel": 9, "type": "channel", "noteNumber": 40, "velocity": 64, "subtype": "noteOn"  },
      { "deltaTime": 0, "channel": 9, "type": "channel", "noteNumber": 49, "velocity": 64, "subtype": "noteOn"  },
      { "deltaTime": 239, "channel": 9, "type": "channel", "subtype": "noteOff", "noteNumber": 40, "velocity": 0  },
      { "deltaTime": 0, "channel": 9, "type": "channel", "subtype": "noteOff", "noteNumber": 49, "velocity": 0  },
      { "deltaTime": 481, "channel": 9, "type": "channel", "noteNumber": 40, "velocity": 64, "subtype": "noteOn"  },
      { "deltaTime": 0, "channel": 9, "type": "channel", "noteNumber": 65, "velocity": 64, "subtype": "noteOn"  },
      { "deltaTime": 239, "channel": 9, "type": "channel", "subtype": "noteOff", "noteNumber": 40, "velocity": 0  },
      { "deltaTime": 0, "channel": 9, "type": "channel", "subtype": "noteOff", "noteNumber": 65, "velocity": 0  },
      { "deltaTime": 1, "channel": 9, "type": "channel", "noteNumber": 40, "velocity": 64, "subtype": "noteOn"  },
      { "deltaTime": 0, "channel": 9, "type": "channel", "noteNumber": 65, "velocity": 64, "subtype": "noteOn"  },
      { "deltaTime": 239, "channel": 9, "type": "channel", "subtype": "noteOff", "noteNumber": 40, "velocity": 0  },
      { "deltaTime": 0, "channel": 9, "type": "channel", "subtype": "noteOff", "noteNumber": 65, "velocity": 0  },
      { "deltaTime": 1, "channel": 9, "type": "channel", "noteNumber": 35, "velocity": 64, "subtype": "noteOn"  },
      { "deltaTime": 0, "channel": 9, "type": "channel", "noteNumber": 57, "velocity": 64, "subtype": "noteOn"  },
      { "deltaTime": 239, "channel": 9, "type": "channel", "subtype": "noteOff", "noteNumber": 35, "velocity": 0  },
      { "deltaTime": 0, "channel": 9, "type": "channel", "subtype": "noteOff", "noteNumber": 57, "velocity": 0  },
      { "deltaTime": 481, "channel": 9, "type": "channel", "noteNumber": 35, "velocity": 64, "subtype": "noteOn"  },
      { "deltaTime": 239, "channel": 9, "type": "channel", "subtype": "noteOff", "noteNumber": 35, "velocity": 0  },
      { "deltaTime": 241, "channel": 9, "type": "channel", "noteNumber": 42, "velocity": 64, "subtype": "noteOn"  },
      { "deltaTime": 239, "channel": 9, "type": "channel", "subtype": "noteOff", "noteNumber": 42, "velocity": 0  },
      { "deltaTime": 1, "channel": 9, "type": "channel", "noteNumber": 42, "velocity": 64, "subtype": "noteOn"  },
      { "deltaTime": 239, "channel": 9, "type": "channel", "subtype": "noteOff", "noteNumber": 42, "velocity": 0  },
      { "deltaTime": 1, "channel": 9, "type": "channel", "noteNumber": 40, "velocity": 64, "subtype": "noteOn"  },
      { "deltaTime": 239, "channel": 9, "type": "channel", "subtype": "noteOff", "noteNumber": 40, "velocity": 0  },
      { "deltaTime": 241, "channel": 9, "type": "channel", "noteNumber": 42, "velocity": 64, "subtype": "noteOn"  },
      { "deltaTime": 239, "channel": 9, "type": "channel", "subtype": "noteOff", "noteNumber": 42, "velocity": 0  },
      { "deltaTime": 1, "channel": 9, "type": "channel", "noteNumber": 42, "velocity": 64, "subtype": "noteOn"  },
      { "deltaTime": 239, "channel": 9, "type": "channel", "subtype": "noteOff", "noteNumber": 42, "velocity": 0  },
      { "deltaTime": 1, "channel": 9, "type": "channel", "noteNumber": 35, "velocity": 64, "subtype": "noteOn"  },
      { "deltaTime": 0, "channel": 9, "type": "channel", "noteNumber": 42, "velocity": 64, "subtype": "noteOn"  },
      { "deltaTime": 239, "channel": 9, "type": "channel", "subtype": "noteOff", "noteNumber": 35, "velocity": 0  },
      { "deltaTime": 0, "channel": 9, "type": "channel", "subtype": "noteOff", "noteNumber": 42, "velocity": 0  },
      { "deltaTime": 1, "channel": 9, "type": "channel", "noteNumber": 42, "velocity": 64, "subtype": "noteOn"  },
      { "deltaTime": 239, "channel": 9, "type": "channel", "subtype": "noteOff", "noteNumber": 42, "velocity": 0  },
      { "deltaTime": 1, "channel": 9, "type": "channel", "noteNumber": 40, "velocity": 64, "subtype": "noteOn"  },
      { "deltaTime": 0, "channel": 9, "type": "channel", "noteNumber": 56, "velocity": 64, "subtype": "noteOn"  },
      { "deltaTime": 239, "channel": 9, "type": "channel", "subtype": "noteOff", "noteNumber": 40, "velocity": 0  },
      { "deltaTime": 0, "channel": 9, "type": "channel", "subtype": "noteOff", "noteNumber": 56, "velocity": 0  },
      { "deltaTime": 1, "channel": 9, "type": "channel", "noteNumber": 56, "velocity": 64, "subtype": "noteOn"  },
      { "deltaTime": 239, "channel": 9, "type": "channel", "subtype": "noteOff", "noteNumber": 56, "velocity": 0  },
      { "deltaTime": 1, "channel": 9, "type": "channel", "noteNumber": 40, "velocity": 64, "subtype": "noteOn"  },
      { "deltaTime": 0, "channel": 9, "type": "channel", "noteNumber": 56, "velocity": 64, "subtype": "noteOn"  },
      { "deltaTime": 239, "channel": 9, "type": "channel", "subtype": "noteOff", "noteNumber": 40, "velocity": 0  },
      { "deltaTime": 0, "channel": 9, "type": "channel", "subtype": "noteOff", "noteNumber": 56, "velocity": 0  },
      { "deltaTime": 1, "channel": 9, "type": "channel", "noteNumber": 40, "velocity": 64, "subtype": "noteOn"  },
      { "deltaTime": 0, "channel": 9, "type": "channel", "noteNumber": 56, "velocity": 64, "subtype": "noteOn"  },
      { "deltaTime": 239, "channel": 9, "type": "channel", "subtype": "noteOff", "noteNumber": 40, "velocity": 0  },
      { "deltaTime": 0, "channel": 9, "type": "channel", "subtype": "noteOff", "noteNumber": 56, "velocity": 0  },
      { "deltaTime": 481, "channel": 9, "type": "channel", "noteNumber": 35, "velocity": 64, "subtype": "noteOn"  },
      { "deltaTime": 0, "channel": 9, "type": "channel", "noteNumber": 42, "velocity": 64, "subtype": "noteOn"  },
      { "deltaTime": 239, "channel": 9, "type": "channel", "subtype": "noteOff", "noteNumber": 35, "velocity": 0  },
      { "deltaTime": 0, "channel": 9, "type": "channel", "subtype": "noteOff", "noteNumber": 42, "velocity": 0  },
      { "deltaTime": 1, "channel": 9, "type": "channel", "noteNumber": 42, "velocity": 64, "subtype": "noteOn"  },
      { "deltaTime": 239, "channel": 9, "type": "channel", "subtype": "noteOff", "noteNumber": 42, "velocity": 0  },
      { "deltaTime": 1, "channel": 9, "type": "channel", "noteNumber": 42, "velocity": 64, "subtype": "noteOn"  },
      { "deltaTime": 239, "channel": 9, "type": "channel", "subtype": "noteOff", "noteNumber": 42, "velocity": 0  },
      { "deltaTime": 241, "channel": 9, "type": "channel", "noteNumber": 40, "velocity": 64, "subtype": "noteOn"  },
      { "deltaTime": 0, "channel": 9, "type": "channel", "noteNumber": 49, "velocity": 64, "subtype": "noteOn"  },
      { "deltaTime": 239, "channel": 9, "type": "channel", "subtype": "noteOff", "noteNumber": 40, "velocity": 0  },
      { "deltaTime": 0, "channel": 9, "type": "channel", "subtype": "noteOff", "noteNumber": 49, "velocity": 0  },
      { "deltaTime": 481, "channel": 9, "type": "channel", "noteNumber": 40, "velocity": 64, "subtype": "noteOn"  },
      { "deltaTime": 0, "channel": 9, "type": "channel", "noteNumber": 65, "velocity": 64, "subtype": "noteOn"  },
      { "deltaTime": 239, "channel": 9, "type": "channel", "subtype": "noteOff", "noteNumber": 40, "velocity": 0  },
      { "deltaTime": 0, "channel": 9, "type": "channel", "subtype": "noteOff", "noteNumber": 65, "velocity": 0  },
      { "deltaTime": 1, "channel": 9, "type": "channel", "noteNumber": 40, "velocity": 64, "subtype": "noteOn"  },
      { "deltaTime": 0, "channel": 9, "type": "channel", "noteNumber": 65, "velocity": 64, "subtype": "noteOn"  },
      { "deltaTime": 239, "channel": 9, "type": "channel", "subtype": "noteOff", "noteNumber": 40, "velocity": 0  },
      { "deltaTime": 0, "channel": 9, "type": "channel", "subtype": "noteOff", "noteNumber": 65, "velocity": 0  },
      { "deltaTime": 1, "channel": 9, "type": "channel", "noteNumber": 35, "velocity": 64, "subtype": "noteOn"  },
      { "deltaTime": 0, "channel": 9, "type": "channel", "noteNumber": 57, "velocity": 64, "subtype": "noteOn"  },
      { "deltaTime": 239, "channel": 9, "type": "channel", "subtype": "noteOff", "noteNumber": 35, "velocity": 0  },
      { "deltaTime": 0, "channel": 9, "type": "channel", "subtype": "noteOff", "noteNumber": 57, "velocity": 0  },
      { "deltaTime": 481, "channel": 9, "type": "channel", "noteNumber": 35, "velocity": 64, "subtype": "noteOn"  },
      { "deltaTime": 239, "channel": 9, "type": "channel", "subtype": "noteOff", "noteNumber": 35, "velocity": 0  },
      { "deltaTime": 241, "channel": 9, "type": "channel", "noteNumber": 42, "velocity": 64, "subtype": "noteOn"  },
      { "deltaTime": 239, "channel": 9, "type": "channel", "subtype": "noteOff", "noteNumber": 42, "velocity": 0  },
      { "deltaTime": 1, "channel": 9, "type": "channel", "noteNumber": 42, "velocity": 64, "subtype": "noteOn"  },
      { "deltaTime": 239, "channel": 9, "type": "channel", "subtype": "noteOff", "noteNumber": 42, "velocity": 0  },
      { "deltaTime": 1, "channel": 9, "type": "channel", "noteNumber": 40, "velocity": 64, "subtype": "noteOn"  },
      { "deltaTime": 239, "channel": 9, "type": "channel", "subtype": "noteOff", "noteNumber": 40, "velocity": 0  },
      { "deltaTime": 241, "channel": 9, "type": "channel", "noteNumber": 42, "velocity": 64, "subtype": "noteOn"  },
      { "deltaTime": 239, "channel": 9, "type": "channel", "subtype": "noteOff", "noteNumber": 42, "velocity": 0  },
      { "deltaTime": 1, "channel": 9, "type": "channel", "noteNumber": 42, "velocity": 64, "subtype": "noteOn"  },
      { "deltaTime": 239, "channel": 9, "type": "channel", "subtype": "noteOff", "noteNumber": 42, "velocity": 0  },
      { "deltaTime": 1, "channel": 9, "type": "channel", "noteNumber": 35, "velocity": 64, "subtype": "noteOn"  },
      { "deltaTime": 0, "channel": 9, "type": "channel", "noteNumber": 42, "velocity": 64, "subtype": "noteOn"  },
      { "deltaTime": 239, "channel": 9, "type": "channel", "subtype": "noteOff", "noteNumber": 35, "velocity": 0  },
      { "deltaTime": 0, "channel": 9, "type": "channel", "subtype": "noteOff", "noteNumber": 42, "velocity": 0  },
      { "deltaTime": 1, "channel": 9, "type": "channel", "noteNumber": 42, "velocity": 64, "subtype": "noteOn"  },
      { "deltaTime": 239, "channel": 9, "type": "channel", "subtype": "noteOff", "noteNumber": 42, "velocity": 0  },
      { "deltaTime": 1, "channel": 9, "type": "channel", "noteNumber": 40, "velocity": 64, "subtype": "noteOn"  },
      { "deltaTime": 0, "channel": 9, "type": "channel", "noteNumber": 56, "velocity": 64, "subtype": "noteOn"  },
      { "deltaTime": 239, "channel": 9, "type": "channel", "subtype": "noteOff", "noteNumber": 40, "velocity": 0  },
      { "deltaTime": 0, "channel": 9, "type": "channel", "subtype": "noteOff", "noteNumber": 56, "velocity": 0  },
      { "deltaTime": 1, "channel": 9, "type": "channel", "noteNumber": 56, "velocity": 64, "subtype": "noteOn"  },
      { "deltaTime": 239, "channel": 9, "type": "channel", "subtype": "noteOff", "noteNumber": 56, "velocity": 0  },
      { "deltaTime": 1, "channel": 9, "type": "channel", "noteNumber": 40, "velocity": 64, "subtype": "noteOn"  },
      { "deltaTime": 0, "channel": 9, "type": "channel", "noteNumber": 56, "velocity": 64, "subtype": "noteOn"  },
      { "deltaTime": 239, "channel": 9, "type": "channel", "subtype": "noteOff", "noteNumber": 40, "velocity": 0  },
      { "deltaTime": 0, "channel": 9, "type": "channel", "subtype": "noteOff", "noteNumber": 56, "velocity": 0  },
      { "deltaTime": 1, "channel": 9, "type": "channel", "noteNumber": 40, "velocity": 64, "subtype": "noteOn"  },
      { "deltaTime": 0, "channel": 9, "type": "channel", "noteNumber": 56, "velocity": 64, "subtype": "noteOn"  },
      { "deltaTime": 239, "channel": 9, "type": "channel", "subtype": "noteOff", "noteNumber": 40, "velocity": 0  },
      { "deltaTime": 0, "channel": 9, "type": "channel", "subtype": "noteOff", "noteNumber": 56, "velocity": 0  },
      { "deltaTime": 481, "channel": 9, "type": "channel", "noteNumber": 35, "velocity": 64, "subtype": "noteOn"  },
      { "deltaTime": 0, "channel": 9, "type": "channel", "noteNumber": 42, "velocity": 64, "subtype": "noteOn"  },
      { "deltaTime": 239, "channel": 9, "type": "channel", "subtype": "noteOff", "noteNumber": 35, "velocity": 0  },
      { "deltaTime": 0, "channel": 9, "type": "channel", "subtype": "noteOff", "noteNumber": 42, "velocity": 0  },
      { "deltaTime": 1, "channel": 9, "type": "channel", "noteNumber": 42, "velocity": 64, "subtype": "noteOn"  },
      { "deltaTime": 239, "channel": 9, "type": "channel", "subtype": "noteOff", "noteNumber": 42, "velocity": 0  },
      { "deltaTime": 1, "channel": 9, "type": "channel", "noteNumber": 42, "velocity": 64, "subtype": "noteOn"  },
      { "deltaTime": 239, "channel": 9, "type": "channel", "subtype": "noteOff", "noteNumber": 42, "velocity": 0  },
      { "deltaTime": 241, "channel": 9, "type": "channel", "noteNumber": 40, "velocity": 64, "subtype": "noteOn"  },
      { "deltaTime": 0, "channel": 9, "type": "channel", "noteNumber": 49, "velocity": 64, "subtype": "noteOn"  },
      { "deltaTime": 239, "channel": 9, "type": "channel", "subtype": "noteOff", "noteNumber": 40, "velocity": 0  },
      { "deltaTime": 0, "channel": 9, "type": "channel", "subtype": "noteOff", "noteNumber": 49, "velocity": 0  },
      { "deltaTime": 481, "channel": 9, "type": "channel", "noteNumber": 40, "velocity": 64, "subtype": "noteOn"  },
      { "deltaTime": 0, "channel": 9, "type": "channel", "noteNumber": 65, "velocity": 64, "subtype": "noteOn"  },
      { "deltaTime": 239, "channel": 9, "type": "channel", "subtype": "noteOff", "noteNumber": 40, "velocity": 0  },
      { "deltaTime": 0, "channel": 9, "type": "channel", "subtype": "noteOff", "noteNumber": 65, "velocity": 0  },
      { "deltaTime": 1, "channel": 9, "type": "channel", "noteNumber": 40, "velocity": 64, "subtype": "noteOn"  },
      { "deltaTime": 0, "channel": 9, "type": "channel", "noteNumber": 65, "velocity": 64, "subtype": "noteOn"  },
      { "deltaTime": 239, "channel": 9, "type": "channel", "subtype": "noteOff", "noteNumber": 40, "velocity": 0  },
      { "deltaTime": 0, "channel": 9, "type": "channel", "subtype": "noteOff", "noteNumber": 65, "velocity": 0  },
      { "deltaTime": 1, "channel": 9, "type": "channel", "noteNumber": 35, "velocity": 64, "subtype": "noteOn"  },
      { "deltaTime": 0, "channel": 9, "type": "channel", "noteNumber": 57, "velocity": 64, "subtype": "noteOn"  },
      { "deltaTime": 239, "channel": 9, "type": "channel", "subtype": "noteOff", "noteNumber": 35, "velocity": 0  },
      { "deltaTime": 0, "channel": 9, "type": "channel", "subtype": "noteOff", "noteNumber": 57, "velocity": 0  },
      { "deltaTime": 481, "channel": 9, "type": "channel", "noteNumber": 43, "velocity": 64, "subtype": "noteOn"  },
      { "deltaTime": 0, "channel": 9, "type": "channel", "noteNumber": 45, "velocity": 64, "subtype": "noteOn"  },
      { "deltaTime": 239, "channel": 9, "type": "channel", "subtype": "noteOff", "noteNumber": 43, "velocity": 0  },
      { "deltaTime": 0, "channel": 9, "type": "channel", "subtype": "noteOff", "noteNumber": 45, "velocity": 0  },
      { "deltaTime": 6481, "channel": 9, "type": "channel", "noteNumber": 43, "velocity": 64, "subtype": "noteOn"  },
      { "deltaTime": 0, "channel": 9, "type": "channel", "noteNumber": 45, "velocity": 64, "subtype": "noteOn"  },
      { "deltaTime": 239, "channel": 9, "type": "channel", "subtype": "noteOff", "noteNumber": 43, "velocity": 0  },
      { "deltaTime": 0, "channel": 9, "type": "channel", "subtype": "noteOff", "noteNumber": 45, "velocity": 0  },
      { "deltaTime": 1681, "channel": 9, "type": "channel", "noteNumber": 43, "velocity": 64, "subtype": "noteOn"  },
      { "deltaTime": 0, "channel": 9, "type": "channel", "noteNumber": 45, "velocity": 64, "subtype": "noteOn"  },
      { "deltaTime": 239, "channel": 9, "type": "channel", "subtype": "noteOff", "noteNumber": 43, "velocity": 0  },
      { "deltaTime": 0, "channel": 9, "type": "channel", "subtype": "noteOff", "noteNumber": 45, "velocity": 0  },
      { "deltaTime": 1681, "channel": 9, "type": "channel", "noteNumber": 43, "velocity": 64, "subtype": "noteOn"  },
      { "deltaTime": 0, "channel": 9, "type": "channel", "noteNumber": 45, "velocity": 64, "subtype": "noteOn"  },
      { "deltaTime": 239, "channel": 9, "type": "channel", "subtype": "noteOff", "noteNumber": 43, "velocity": 0  },
      { "deltaTime": 0, "channel": 9, "type": "channel", "subtype": "noteOff", "noteNumber": 45, "velocity": 0  },
      { "deltaTime": 1681, "channel": 9, "type": "channel", "noteNumber": 77, "velocity": 64, "subtype": "noteOn"  },
      { "deltaTime": 239, "channel": 9, "type": "channel", "subtype": "noteOff", "noteNumber": 77, "velocity": 0  },
      { "deltaTime": 1, "channel": 9, "type": "channel", "noteNumber": 77, "velocity": 64, "subtype": "noteOn"  },
      { "deltaTime": 239, "channel": 9, "type": "channel", "subtype": "noteOff", "noteNumber": 77, "velocity": 0  },
      { "deltaTime": 1, "channel": 9, "type": "channel", "noteNumber": 67, "velocity": 64, "subtype": "noteOn"  },
      { "deltaTime": 239, "channel": 9, "type": "channel", "subtype": "noteOff", "noteNumber": 67, "velocity": 0  },
      { "deltaTime": 241, "channel": 9, "type": "channel", "noteNumber": 35, "velocity": 64, "subtype": "noteOn"  },
      { "deltaTime": 0, "channel": 9, "type": "channel", "noteNumber": 57, "velocity": 64, "subtype": "noteOn"  },
      { "deltaTime": 239, "channel": 9, "type": "channel", "subtype": "noteOff", "noteNumber": 35, "velocity": 0  },
      { "deltaTime": 0, "channel": 9, "type": "channel", "subtype": "noteOff", "noteNumber": 57, "velocity": 0  },
      { "deltaTime": 241, "channel": 9, "type": "channel", "noteNumber": 42, "velocity": 64, "subtype": "noteOn"  },
      { "deltaTime": 239, "channel": 9, "type": "channel", "subtype": "noteOff", "noteNumber": 42, "velocity": 0  },
      { "deltaTime": 241, "channel": 9, "type": "channel", "noteNumber": 37, "velocity": 64, "subtype": "noteOn"  },
      { "deltaTime": 0, "channel": 9, "type": "channel", "noteNumber": 40, "velocity": 64, "subtype": "noteOn"  },
      { "deltaTime": 239, "channel": 9, "type": "channel", "subtype": "noteOff", "noteNumber": 37, "velocity": 0  },
      { "deltaTime": 0, "channel": 9, "type": "channel", "subtype": "noteOff", "noteNumber": 40, "velocity": 0  },
      { "deltaTime": 241, "channel": 9, "type": "channel", "noteNumber": 42, "velocity": 64, "subtype": "noteOn"  },
      { "deltaTime": 479, "channel": 9, "type": "channel", "subtype": "noteOff", "noteNumber": 42, "velocity": 0  },
      { "deltaTime": 1, "channel": 9, "type": "channel", "noteNumber": 37, "velocity": 64, "subtype": "noteOn"  },
      { "deltaTime": 239, "channel": 9, "type": "channel", "subtype": "noteOff", "noteNumber": 37, "velocity": 0  },
      { "deltaTime": 241, "channel": 9, "type": "channel", "noteNumber": 42, "velocity": 64, "subtype": "noteOn"  },
      { "deltaTime": 479, "channel": 9, "type": "channel", "subtype": "noteOff", "noteNumber": 42, "velocity": 0  },
      { "deltaTime": 1, "channel": 9, "type": "channel", "noteNumber": 37, "velocity": 64, "subtype": "noteOn"  },
      { "deltaTime": 0, "channel": 9, "type": "channel", "noteNumber": 40, "velocity": 64, "subtype": "noteOn"  },
      { "deltaTime": 239, "channel": 9, "type": "channel", "subtype": "noteOff", "noteNumber": 37, "velocity": 0  },
      { "deltaTime": 0, "channel": 9, "type": "channel", "subtype": "noteOff", "noteNumber": 40, "velocity": 0  },
      { "deltaTime": 241, "channel": 9, "type": "channel", "noteNumber": 42, "velocity": 64, "subtype": "noteOn"  },
      { "deltaTime": 239, "channel": 9, "type": "channel", "subtype": "noteOff", "noteNumber": 42, "velocity": 0  },
      { "deltaTime": 1, "channel": 9, "type": "channel", "noteNumber": 42, "velocity": 64, "subtype": "noteOn"  },
      { "deltaTime": 239, "channel": 9, "type": "channel", "subtype": "noteOff", "noteNumber": 42, "velocity": 0  },
      { "deltaTime": 1, "channel": 9, "type": "channel", "noteNumber": 37, "velocity": 64, "subtype": "noteOn"  },
      { "deltaTime": 239, "channel": 9, "type": "channel", "subtype": "noteOff", "noteNumber": 37, "velocity": 0  },
      { "deltaTime": 241, "channel": 9, "type": "channel", "noteNumber": 42, "velocity": 64, "subtype": "noteOn"  },
      { "deltaTime": 239, "channel": 9, "type": "channel", "subtype": "noteOff", "noteNumber": 42, "velocity": 0  },
      { "deltaTime": 241, "channel": 9, "type": "channel", "noteNumber": 37, "velocity": 64, "subtype": "noteOn"  },
      { "deltaTime": 0, "channel": 9, "type": "channel", "noteNumber": 40, "velocity": 64, "subtype": "noteOn"  },
      { "deltaTime": 239, "channel": 9, "type": "channel", "subtype": "noteOff", "noteNumber": 37, "velocity": 0  },
      { "deltaTime": 0, "channel": 9, "type": "channel", "subtype": "noteOff", "noteNumber": 40, "velocity": 0  },
      { "deltaTime": 241, "channel": 9, "type": "channel", "noteNumber": 42, "velocity": 64, "subtype": "noteOn"  },
      { "deltaTime": 239, "channel": 9, "type": "channel", "subtype": "noteOff", "noteNumber": 42, "velocity": 0  },
      { "deltaTime": 241, "channel": 9, "type": "channel", "noteNumber": 37, "velocity": 64, "subtype": "noteOn"  },
      { "deltaTime": 239, "channel": 9, "type": "channel", "subtype": "noteOff", "noteNumber": 37, "velocity": 0  },
      { "deltaTime": 241, "channel": 9, "type": "channel", "noteNumber": 56, "velocity": 64, "subtype": "noteOn"  },
      { "deltaTime": 239, "channel": 9, "type": "channel", "subtype": "noteOff", "noteNumber": 56, "velocity": 0  },
      { "deltaTime": 241, "channel": 9, "type": "channel", "noteNumber": 37, "velocity": 64, "subtype": "noteOn"  },
      { "deltaTime": 0, "channel": 9, "type": "channel", "noteNumber": 40, "velocity": 64, "subtype": "noteOn"  },
      { "deltaTime": 239, "channel": 9, "type": "channel", "subtype": "noteOff", "noteNumber": 37, "velocity": 0  },
      { "deltaTime": 0, "channel": 9, "type": "channel", "subtype": "noteOff", "noteNumber": 40, "velocity": 0  },
      { "deltaTime": 241, "channel": 9, "type": "channel", "noteNumber": 42, "velocity": 64, "subtype": "noteOn"  },
      { "deltaTime": 239, "channel": 9, "type": "channel", "subtype": "noteOff", "noteNumber": 42, "velocity": 0  },
      { "deltaTime": 241, "channel": 9, "type": "channel", "noteNumber": 37, "velocity": 64, "subtype": "noteOn"  },
      { "deltaTime": 239, "channel": 9, "type": "channel", "subtype": "noteOff", "noteNumber": 37, "velocity": 0  },
      { "deltaTime": 241, "channel": 9, "type": "channel", "noteNumber": 42, "velocity": 64, "subtype": "noteOn"  },
      { "deltaTime": 239, "channel": 9, "type": "channel", "subtype": "noteOff", "noteNumber": 42, "velocity": 0  },
      { "deltaTime": 241, "channel": 9, "type": "channel", "noteNumber": 37, "velocity": 64, "subtype": "noteOn"  },
      { "deltaTime": 0, "channel": 9, "type": "channel", "noteNumber": 40, "velocity": 64, "subtype": "noteOn"  },
      { "deltaTime": 239, "channel": 9, "type": "channel", "subtype": "noteOff", "noteNumber": 37, "velocity": 0  },
      { "deltaTime": 0, "channel": 9, "type": "channel", "subtype": "noteOff", "noteNumber": 40, "velocity": 0  },
      { "deltaTime": 1, "channel": 9, "type": "channel", "noteNumber": 40, "velocity": 3, "subtype": "noteOn"  },
      { "deltaTime": 239, "channel": 9, "type": "channel", "subtype": "noteOff", "noteNumber": 40, "velocity": 0  },
      { "deltaTime": 1, "channel": 9, "type": "channel", "noteNumber": 40, "velocity": 6, "subtype": "noteOn"  },
      { "deltaTime": 0, "channel": 9, "type": "channel", "noteNumber": 42, "velocity": 64, "subtype": "noteOn"  },
      { "deltaTime": 239, "channel": 9, "type": "channel", "subtype": "noteOff", "noteNumber": 40, "velocity": 0  },
      { "deltaTime": 0, "channel": 9, "type": "channel", "subtype": "noteOff", "noteNumber": 42, "velocity": 0  },
      { "deltaTime": 1, "channel": 9, "type": "channel", "noteNumber": 40, "velocity": 9, "subtype": "noteOn"  },
      { "deltaTime": 0, "channel": 9, "type": "channel", "noteNumber": 42, "velocity": 64, "subtype": "noteOn"  },
      { "deltaTime": 239, "channel": 9, "type": "channel", "subtype": "noteOff", "noteNumber": 40, "velocity": 0  },
      { "deltaTime": 0, "channel": 9, "type": "channel", "subtype": "noteOff", "noteNumber": 42, "velocity": 0  },
      { "deltaTime": 1, "channel": 9, "type": "channel", "noteNumber": 37, "velocity": 64, "subtype": "noteOn"  },
      { "deltaTime": 0, "channel": 9, "type": "channel", "noteNumber": 40, "velocity": 12, "subtype": "noteOn"  },
      { "deltaTime": 239, "channel": 9, "type": "channel", "subtype": "noteOff", "noteNumber": 37, "velocity": 0  },
      { "deltaTime": 0, "channel": 9, "type": "channel", "subtype": "noteOff", "noteNumber": 40, "velocity": 0  },
      { "deltaTime": 1, "channel": 9, "type": "channel", "noteNumber": 40, "velocity": 15, "subtype": "noteOn"  },
      { "deltaTime": 239, "channel": 9, "type": "channel", "subtype": "noteOff", "noteNumber": 40, "velocity": 0  },
      { "deltaTime": 1, "channel": 9, "type": "channel", "noteNumber": 40, "velocity": 18, "subtype": "noteOn"  },
      { "deltaTime": 0, "channel": 9, "type": "channel", "noteNumber": 42, "velocity": 64, "subtype": "noteOn"  },
      { "deltaTime": 239, "channel": 9, "type": "channel", "subtype": "noteOff", "noteNumber": 40, "velocity": 0  },
      { "deltaTime": 0, "channel": 9, "type": "channel", "subtype": "noteOff", "noteNumber": 42, "velocity": 0  },
      { "deltaTime": 1, "channel": 9, "type": "channel", "noteNumber": 40, "velocity": 21, "subtype": "noteOn"  },
      { "deltaTime": 239, "channel": 9, "type": "channel", "subtype": "noteOff", "noteNumber": 40, "velocity": 0  },
      { "deltaTime": 1, "channel": 9, "type": "channel", "noteNumber": 37, "velocity": 64, "subtype": "noteOn"  },
      { "deltaTime": 0, "channel": 9, "type": "channel", "noteNumber": 40, "velocity": 24, "subtype": "noteOn"  },
      { "deltaTime": 0, "channel": 9, "type": "channel", "noteNumber": 40, "velocity": 64, "subtype": "noteOn"  },
      { "deltaTime": 239, "channel": 9, "type": "channel", "subtype": "noteOff", "noteNumber": 37, "velocity": 0  },
      { "deltaTime": 0, "channel": 9, "type": "channel", "subtype": "noteOff", "noteNumber": 40, "velocity": 0  },
      { "deltaTime": 0, "channel": 9, "type": "channel", "subtype": "noteOff", "noteNumber": 40, "velocity": 0  },
      { "deltaTime": 1, "channel": 9, "type": "channel", "noteNumber": 40, "velocity": 27, "subtype": "noteOn"  },
      { "deltaTime": 239, "channel": 9, "type": "channel", "subtype": "noteOff", "noteNumber": 40, "velocity": 0  },
      { "deltaTime": 1, "channel": 9, "type": "channel", "noteNumber": 40, "velocity": 30, "subtype": "noteOn"  },
      { "deltaTime": 0, "channel": 9, "type": "channel", "noteNumber": 42, "velocity": 64, "subtype": "noteOn"  },
      { "deltaTime": 239, "channel": 9, "type": "channel", "subtype": "noteOff", "noteNumber": 40, "velocity": 0  },
      { "deltaTime": 0, "channel": 9, "type": "channel", "subtype": "noteOff", "noteNumber": 42, "velocity": 0  },
      { "deltaTime": 1, "channel": 9, "type": "channel", "noteNumber": 40, "velocity": 33, "subtype": "noteOn"  },
      { "deltaTime": 239, "channel": 9, "type": "channel", "subtype": "noteOff", "noteNumber": 40, "velocity": 0  },
      { "deltaTime": 1, "channel": 9, "type": "channel", "noteNumber": 37, "velocity": 64, "subtype": "noteOn"  },
      { "deltaTime": 0, "channel": 9, "type": "channel", "noteNumber": 40, "velocity": 36, "subtype": "noteOn"  },
      { "deltaTime": 239, "channel": 9, "type": "channel", "subtype": "noteOff", "noteNumber": 37, "velocity": 0  },
      { "deltaTime": 0, "channel": 9, "type": "channel", "subtype": "noteOff", "noteNumber": 40, "velocity": 0  },
      { "deltaTime": 1, "channel": 9, "type": "channel", "noteNumber": 40, "velocity": 39, "subtype": "noteOn"  },
      { "deltaTime": 239, "channel": 9, "type": "channel", "subtype": "noteOff", "noteNumber": 40, "velocity": 0  },
      { "deltaTime": 1, "channel": 9, "type": "channel", "noteNumber": 40, "velocity": 42, "subtype": "noteOn"  },
      { "deltaTime": 239, "channel": 9, "type": "channel", "subtype": "noteOff", "noteNumber": 40, "velocity": 0  },
      { "deltaTime": 1, "channel": 9, "type": "channel", "noteNumber": 40, "velocity": 45, "subtype": "noteOn"  },
      { "deltaTime": 239, "channel": 9, "type": "channel", "subtype": "noteOff", "noteNumber": 40, "velocity": 0  },
      { "deltaTime": 1, "channel": 9, "type": "channel", "noteNumber": 37, "velocity": 64, "subtype": "noteOn"  },
      { "deltaTime": 0, "channel": 9, "type": "channel", "noteNumber": 40, "velocity": 48, "subtype": "noteOn"  },
      { "deltaTime": 239, "channel": 9, "type": "channel", "subtype": "noteOff", "noteNumber": 37, "velocity": 0  },
      { "deltaTime": 0, "channel": 9, "type": "channel", "subtype": "noteOff", "noteNumber": 40, "velocity": 0  },
      { "deltaTime": 1, "channel": 9, "type": "channel", "noteNumber": 40, "velocity": 51, "subtype": "noteOn"  },
      { "deltaTime": 239, "channel": 9, "type": "channel", "subtype": "noteOff", "noteNumber": 40, "velocity": 0  },
      { "deltaTime": 1, "channel": 9, "type": "channel", "noteNumber": 40, "velocity": 54, "subtype": "noteOn"  },
      { "deltaTime": 239, "channel": 9, "type": "channel", "subtype": "noteOff", "noteNumber": 40, "velocity": 0  },
      { "deltaTime": 1, "channel": 9, "type": "channel", "noteNumber": 40, "velocity": 57, "subtype": "noteOn"  },
      { "deltaTime": 239, "channel": 9, "type": "channel", "subtype": "noteOff", "noteNumber": 40, "velocity": 0  },
      { "deltaTime": 1, "channel": 9, "type": "channel", "noteNumber": 35, "velocity": 64, "subtype": "noteOn"  },
      { "deltaTime": 0, "channel": 9, "type": "channel", "noteNumber": 44, "velocity": 64, "subtype": "noteOn"  },
      { "deltaTime": 0, "channel": 9, "type": "channel", "noteNumber": 57, "velocity": 64, "subtype": "noteOn"  },
      { "deltaTime": 239, "channel": 9, "type": "channel", "subtype": "noteOff", "noteNumber": 35, "velocity": 0  },
      { "deltaTime": 0, "channel": 9, "type": "channel", "subtype": "noteOff", "noteNumber": 57, "velocity": 0  },
      { "deltaTime": 240, "channel": 9, "type": "channel", "subtype": "noteOff", "noteNumber": 44, "velocity": 0  },
      { "deltaTime": 1, "channel": 9, "type": "channel", "noteNumber": 35, "velocity": 64, "subtype": "noteOn"  },
      { "deltaTime": 0, "channel": 9, "type": "channel", "noteNumber": 44, "velocity": 64, "subtype": "noteOn"  },
      { "deltaTime": 239, "channel": 9, "type": "channel", "subtype": "noteOff", "noteNumber": 35, "velocity": 0  },
      { "deltaTime": 240, "channel": 9, "type": "channel", "subtype": "noteOff", "noteNumber": 44, "velocity": 0  },
      { "deltaTime": 1, "channel": 9, "type": "channel", "noteNumber": 40, "velocity": 64, "subtype": "noteOn"  },
      { "deltaTime": 0, "channel": 9, "type": "channel", "noteNumber": 44, "velocity": 64, "subtype": "noteOn"  },
      { "deltaTime": 239, "channel": 9, "type": "channel", "subtype": "noteOff", "noteNumber": 40, "velocity": 0  },
      { "deltaTime": 240, "channel": 9, "type": "channel", "subtype": "noteOff", "noteNumber": 44, "velocity": 0  },
      { "deltaTime": 1, "channel": 9, "type": "channel", "noteNumber": 44, "velocity": 64, "subtype": "noteOn"  },
      { "deltaTime": 240, "channel": 9, "type": "channel", "noteNumber": 35, "velocity": 64, "subtype": "noteOn"  },
      { "deltaTime": 239, "channel": 9, "type": "channel", "subtype": "noteOff", "noteNumber": 35, "velocity": 0  },
      { "deltaTime": 0, "channel": 9, "type": "channel", "subtype": "noteOff", "noteNumber": 44, "velocity": 0  },
      { "deltaTime": 1, "channel": 9, "type": "channel", "noteNumber": 35, "velocity": 64, "subtype": "noteOn"  },
      { "deltaTime": 0, "channel": 9, "type": "channel", "noteNumber": 44, "velocity": 64, "subtype": "noteOn"  },
      { "deltaTime": 479, "channel": 9, "type": "channel", "subtype": "noteOff", "noteNumber": 35, "velocity": 0  },
      { "deltaTime": 0, "channel": 9, "type": "channel", "subtype": "noteOff", "noteNumber": 44, "velocity": 0  },
      { "deltaTime": 1, "channel": 9, "type": "channel", "noteNumber": 35, "velocity": 64, "subtype": "noteOn"  },
      { "deltaTime": 0, "channel": 9, "type": "channel", "noteNumber": 44, "velocity": 64, "subtype": "noteOn"  },
      { "deltaTime": 479, "channel": 9, "type": "channel", "subtype": "noteOff", "noteNumber": 35, "velocity": 0  },
      { "deltaTime": 0, "channel": 9, "type": "channel", "subtype": "noteOff", "noteNumber": 44, "velocity": 0  },
      { "deltaTime": 1, "channel": 9, "type": "channel", "noteNumber": 40, "velocity": 64, "subtype": "noteOn"  },
      { "deltaTime": 0, "channel": 9, "type": "channel", "noteNumber": 44, "velocity": 64, "subtype": "noteOn"  },
      { "deltaTime": 239, "channel": 9, "type": "channel", "subtype": "noteOff", "noteNumber": 40, "velocity": 0  },
      { "deltaTime": 1, "channel": 9, "type": "channel", "noteNumber": 35, "velocity": 64, "subtype": "noteOn"  },
      { "deltaTime": 239, "channel": 9, "type": "channel", "subtype": "noteOff", "noteNumber": 35, "velocity": 0  },
      { "deltaTime": 0, "channel": 9, "type": "channel", "subtype": "noteOff", "noteNumber": 44, "velocity": 0  },
      { "deltaTime": 1, "channel": 9, "type": "channel", "noteNumber": 44, "velocity": 64, "subtype": "noteOn"  },
      { "deltaTime": 479, "channel": 9, "type": "channel", "subtype": "noteOff", "noteNumber": 44, "velocity": 0  },
      { "deltaTime": 1, "channel": 9, "type": "channel", "noteNumber": 35, "velocity": 64, "subtype": "noteOn"  },
      { "deltaTime": 0, "channel": 9, "type": "channel", "noteNumber": 44, "velocity": 64, "subtype": "noteOn"  },
      { "deltaTime": 239, "channel": 9, "type": "channel", "subtype": "noteOff", "noteNumber": 35, "velocity": 0  },
      { "deltaTime": 240, "channel": 9, "type": "channel", "subtype": "noteOff", "noteNumber": 44, "velocity": 0  },
      { "deltaTime": 1, "channel": 9, "type": "channel", "noteNumber": 35, "velocity": 64, "subtype": "noteOn"  },
      { "deltaTime": 0, "channel": 9, "type": "channel", "noteNumber": 44, "velocity": 64, "subtype": "noteOn"  },
      { "deltaTime": 239, "channel": 9, "type": "channel", "subtype": "noteOff", "noteNumber": 35, "velocity": 0  },
      { "deltaTime": 1, "channel": 9, "type": "channel", "noteNumber": 35, "velocity": 64, "subtype": "noteOn"  },
      { "deltaTime": 239, "channel": 9, "type": "channel", "subtype": "noteOff", "noteNumber": 35, "velocity": 0  },
      { "deltaTime": 0, "channel": 9, "type": "channel", "subtype": "noteOff", "noteNumber": 44, "velocity": 0  },
      { "deltaTime": 1, "channel": 9, "type": "channel", "noteNumber": 40, "velocity": 64, "subtype": "noteOn"  },
      { "deltaTime": 0, "channel": 9, "type": "channel", "noteNumber": 44, "velocity": 64, "subtype": "noteOn"  },
      { "deltaTime": 239, "channel": 9, "type": "channel", "subtype": "noteOff", "noteNumber": 40, "velocity": 0  },
      { "deltaTime": 1, "channel": 9, "type": "channel", "noteNumber": 40, "velocity": 64, "subtype": "noteOn"  },
      { "deltaTime": 239, "channel": 9, "type": "channel", "subtype": "noteOff", "noteNumber": 40, "velocity": 0  },
      { "deltaTime": 0, "channel": 9, "type": "channel", "subtype": "noteOff", "noteNumber": 44, "velocity": 0  },
      { "deltaTime": 1, "channel": 9, "type": "channel", "noteNumber": 35, "velocity": 64, "subtype": "noteOn"  },
      { "deltaTime": 0, "channel": 9, "type": "channel", "noteNumber": 44, "velocity": 64, "subtype": "noteOn"  },
      { "deltaTime": 239, "channel": 9, "type": "channel", "subtype": "noteOff", "noteNumber": 35, "velocity": 0  },
      { "deltaTime": 240, "channel": 9, "type": "channel", "subtype": "noteOff", "noteNumber": 44, "velocity": 0  },
      { "deltaTime": 1, "channel": 9, "type": "channel", "noteNumber": 35, "velocity": 64, "subtype": "noteOn"  },
      { "deltaTime": 0, "channel": 9, "type": "channel", "noteNumber": 44, "velocity": 64, "subtype": "noteOn"  },
      { "deltaTime": 239, "channel": 9, "type": "channel", "subtype": "noteOff", "noteNumber": 35, "velocity": 0  },
      { "deltaTime": 1, "channel": 9, "type": "channel", "noteNumber": 35, "velocity": 64, "subtype": "noteOn"  },
      { "deltaTime": 239, "channel": 9, "type": "channel", "subtype": "noteOff", "noteNumber": 35, "velocity": 0  },
      { "deltaTime": 0, "channel": 9, "type": "channel", "subtype": "noteOff", "noteNumber": 44, "velocity": 0  },
      { "deltaTime": 1, "channel": 9, "type": "channel", "noteNumber": 44, "velocity": 64, "subtype": "noteOn"  },
      { "deltaTime": 240, "channel": 9, "type": "channel", "noteNumber": 35, "velocity": 64, "subtype": "noteOn"  },
      { "deltaTime": 239, "channel": 9, "type": "channel", "subtype": "noteOff", "noteNumber": 35, "velocity": 0  },
      { "deltaTime": 0, "channel": 9, "type": "channel", "subtype": "noteOff", "noteNumber": 44, "velocity": 0  },
      { "deltaTime": 1, "channel": 9, "type": "channel", "noteNumber": 35, "velocity": 64, "subtype": "noteOn"  },
      { "deltaTime": 0, "channel": 9, "type": "channel", "noteNumber": 44, "velocity": 64, "subtype": "noteOn"  },
      { "deltaTime": 239, "channel": 9, "type": "channel", "subtype": "noteOff", "noteNumber": 35, "velocity": 0  },
      { "deltaTime": 240, "channel": 9, "type": "channel", "subtype": "noteOff", "noteNumber": 44, "velocity": 0  },
      { "deltaTime": 1, "channel": 9, "type": "channel", "noteNumber": 35, "velocity": 64, "subtype": "noteOn"  },
      { "deltaTime": 0, "channel": 9, "type": "channel", "noteNumber": 44, "velocity": 64, "subtype": "noteOn"  },
      { "deltaTime": 239, "channel": 9, "type": "channel", "subtype": "noteOff", "noteNumber": 35, "velocity": 0  },
      { "deltaTime": 240, "channel": 9, "type": "channel", "subtype": "noteOff", "noteNumber": 44, "velocity": 0  },
      { "deltaTime": 1, "channel": 9, "type": "channel", "noteNumber": 40, "velocity": 64, "subtype": "noteOn"  },
      { "deltaTime": 0, "channel": 9, "type": "channel", "noteNumber": 44, "velocity": 64, "subtype": "noteOn"  },
      { "deltaTime": 239, "channel": 9, "type": "channel", "subtype": "noteOff", "noteNumber": 40, "velocity": 0  },
      { "deltaTime": 240, "channel": 9, "type": "channel", "subtype": "noteOff", "noteNumber": 44, "velocity": 0  },
      { "deltaTime": 1, "channel": 9, "type": "channel", "noteNumber": 44, "velocity": 64, "subtype": "noteOn"  },
      { "deltaTime": 240, "channel": 9, "type": "channel", "noteNumber": 35, "velocity": 64, "subtype": "noteOn"  },
      { "deltaTime": 239, "channel": 9, "type": "channel", "subtype": "noteOff", "noteNumber": 35, "velocity": 0  },
      { "deltaTime": 0, "channel": 9, "type": "channel", "subtype": "noteOff", "noteNumber": 44, "velocity": 0  },
      { "deltaTime": 1, "channel": 9, "type": "channel", "noteNumber": 35, "velocity": 64, "subtype": "noteOn"  },
      { "deltaTime": 0, "channel": 9, "type": "channel", "noteNumber": 44, "velocity": 64, "subtype": "noteOn"  },
      { "deltaTime": 479, "channel": 9, "type": "channel", "subtype": "noteOff", "noteNumber": 35, "velocity": 0  },
      { "deltaTime": 0, "channel": 9, "type": "channel", "subtype": "noteOff", "noteNumber": 44, "velocity": 0  },
      { "deltaTime": 1, "channel": 9, "type": "channel", "noteNumber": 35, "velocity": 64, "subtype": "noteOn"  },
      { "deltaTime": 0, "channel": 9, "type": "channel", "noteNumber": 44, "velocity": 64, "subtype": "noteOn"  },
      { "deltaTime": 479, "channel": 9, "type": "channel", "subtype": "noteOff", "noteNumber": 35, "velocity": 0  },
      { "deltaTime": 0, "channel": 9, "type": "channel", "subtype": "noteOff", "noteNumber": 44, "velocity": 0  },
      { "deltaTime": 1, "channel": 9, "type": "channel", "noteNumber": 40, "velocity": 64, "subtype": "noteOn"  },
      { "deltaTime": 0, "channel": 9, "type": "channel", "noteNumber": 44, "velocity": 64, "subtype": "noteOn"  },
      { "deltaTime": 239, "channel": 9, "type": "channel", "subtype": "noteOff", "noteNumber": 40, "velocity": 0  },
      { "deltaTime": 1, "channel": 9, "type": "channel", "noteNumber": 35, "velocity": 64, "subtype": "noteOn"  },
      { "deltaTime": 239, "channel": 9, "type": "channel", "subtype": "noteOff", "noteNumber": 35, "velocity": 0  },
      { "deltaTime": 0, "channel": 9, "type": "channel", "subtype": "noteOff", "noteNumber": 44, "velocity": 0  },
      { "deltaTime": 1, "channel": 9, "type": "channel", "noteNumber": 44, "velocity": 64, "subtype": "noteOn"  },
      { "deltaTime": 479, "channel": 9, "type": "channel", "subtype": "noteOff", "noteNumber": 44, "velocity": 0  },
      { "deltaTime": 1, "channel": 9, "type": "channel", "noteNumber": 35, "velocity": 64, "subtype": "noteOn"  },
      { "deltaTime": 0, "channel": 9, "type": "channel", "noteNumber": 44, "velocity": 64, "subtype": "noteOn"  },
      { "deltaTime": 239, "channel": 9, "type": "channel", "subtype": "noteOff", "noteNumber": 35, "velocity": 0  },
      { "deltaTime": 240, "channel": 9, "type": "channel", "subtype": "noteOff", "noteNumber": 44, "velocity": 0  },
      { "deltaTime": 1, "channel": 9, "type": "channel", "noteNumber": 35, "velocity": 64, "subtype": "noteOn"  },
      { "deltaTime": 0, "channel": 9, "type": "channel", "noteNumber": 44, "velocity": 64, "subtype": "noteOn"  },
      { "deltaTime": 239, "channel": 9, "type": "channel", "subtype": "noteOff", "noteNumber": 35, "velocity": 0  },
      { "deltaTime": 1, "channel": 9, "type": "channel", "noteNumber": 35, "velocity": 64, "subtype": "noteOn"  },
      { "deltaTime": 239, "channel": 9, "type": "channel", "subtype": "noteOff", "noteNumber": 35, "velocity": 0  },
      { "deltaTime": 0, "channel": 9, "type": "channel", "subtype": "noteOff", "noteNumber": 44, "velocity": 0  },
      { "deltaTime": 1, "channel": 9, "type": "channel", "noteNumber": 40, "velocity": 64, "subtype": "noteOn"  },
      { "deltaTime": 0, "channel": 9, "type": "channel", "noteNumber": 44, "velocity": 64, "subtype": "noteOn"  },
      { "deltaTime": 239, "channel": 9, "type": "channel", "subtype": "noteOff", "noteNumber": 40, "velocity": 0  },
      { "deltaTime": 1, "channel": 9, "type": "channel", "noteNumber": 40, "velocity": 64, "subtype": "noteOn"  },
      { "deltaTime": 239, "channel": 9, "type": "channel", "subtype": "noteOff", "noteNumber": 40, "velocity": 0  },
      { "deltaTime": 0, "channel": 9, "type": "channel", "subtype": "noteOff", "noteNumber": 44, "velocity": 0  },
      { "deltaTime": 1, "channel": 9, "type": "channel", "noteNumber": 35, "velocity": 64, "subtype": "noteOn"  },
      { "deltaTime": 0, "channel": 9, "type": "channel", "noteNumber": 44, "velocity": 64, "subtype": "noteOn"  },
      { "deltaTime": 239, "channel": 9, "type": "channel", "subtype": "noteOff", "noteNumber": 35, "velocity": 0  },
      { "deltaTime": 240, "channel": 9, "type": "channel", "subtype": "noteOff", "noteNumber": 44, "velocity": 0  },
      { "deltaTime": 1, "channel": 9, "type": "channel", "noteNumber": 35, "velocity": 64, "subtype": "noteOn"  },
      { "deltaTime": 0, "channel": 9, "type": "channel", "noteNumber": 44, "velocity": 64, "subtype": "noteOn"  },
      { "deltaTime": 239, "channel": 9, "type": "channel", "subtype": "noteOff", "noteNumber": 35, "velocity": 0  },
      { "deltaTime": 1, "channel": 9, "type": "channel", "noteNumber": 35, "velocity": 64, "subtype": "noteOn"  },
      { "deltaTime": 239, "channel": 9, "type": "channel", "subtype": "noteOff", "noteNumber": 35, "velocity": 0  },
      { "deltaTime": 0, "channel": 9, "type": "channel", "subtype": "noteOff", "noteNumber": 44, "velocity": 0  },
      { "deltaTime": 1, "channel": 9, "type": "channel", "noteNumber": 44, "velocity": 64, "subtype": "noteOn"  },
      { "deltaTime": 240, "channel": 9, "type": "channel", "noteNumber": 35, "velocity": 64, "subtype": "noteOn"  },
      { "deltaTime": 239, "channel": 9, "type": "channel", "subtype": "noteOff", "noteNumber": 35, "velocity": 0  },
      { "deltaTime": 0, "channel": 9, "type": "channel", "subtype": "noteOff", "noteNumber": 44, "velocity": 0  },
      { "deltaTime": 1, "channel": 9, "type": "channel", "noteNumber": 35, "velocity": 64, "subtype": "noteOn"  },
      { "deltaTime": 0, "channel": 9, "type": "channel", "noteNumber": 44, "velocity": 64, "subtype": "noteOn"  },
      { "deltaTime": 0, "channel": 9, "type": "channel", "noteNumber": 77, "velocity": 64, "subtype": "noteOn"  },
      { "deltaTime": 239, "channel": 9, "type": "channel", "subtype": "noteOff", "noteNumber": 35, "velocity": 0  },
      { "deltaTime": 1, "channel": 9, "type": "channel", "noteNumber": 77, "velocity": 64, "subtype": "noteOn"  },
      { "deltaTime": 239, "channel": 9, "type": "channel", "subtype": "noteOff", "noteNumber": 44, "velocity": 0  },
      { "deltaTime": 0, "channel": 9, "type": "channel", "subtype": "noteOff", "noteNumber": 77, "velocity": 0  },
      { "deltaTime": 0, "channel": 9, "type": "channel", "subtype": "noteOff", "noteNumber": 77, "velocity": 0  },
      { "deltaTime": 1, "channel": 9, "type": "channel", "noteNumber": 35, "velocity": 64, "subtype": "noteOn"  },
      { "deltaTime": 0, "channel": 9, "type": "channel", "noteNumber": 44, "velocity": 64, "subtype": "noteOn"  },
      { "deltaTime": 0, "channel": 9, "type": "channel", "noteNumber": 77, "velocity": 64, "subtype": "noteOn"  },
      { "deltaTime": 239, "channel": 9, "type": "channel", "subtype": "noteOff", "noteNumber": 35, "velocity": 0  },
      { "deltaTime": 0, "channel": 9, "type": "channel", "subtype": "noteOff", "noteNumber": 77, "velocity": 0  },
      { "deltaTime": 1, "channel": 9, "type": "channel", "noteNumber": 77, "velocity": 64, "subtype": "noteOn"  },
      { "deltaTime": 239, "channel": 9, "type": "channel", "subtype": "noteOff", "noteNumber": 44, "velocity": 0  },
      { "deltaTime": 0, "channel": 9, "type": "channel", "subtype": "noteOff", "noteNumber": 77, "velocity": 0  },
      { "deltaTime": 1, "channel": 9, "type": "channel", "noteNumber": 40, "velocity": 64, "subtype": "noteOn"  },
      { "deltaTime": 0, "channel": 9, "type": "channel", "noteNumber": 44, "velocity": 64, "subtype": "noteOn"  },
      { "deltaTime": 239, "channel": 9, "type": "channel", "subtype": "noteOff", "noteNumber": 40, "velocity": 0  },
      { "deltaTime": 240, "channel": 9, "type": "channel", "subtype": "noteOff", "noteNumber": 44, "velocity": 0  },
      { "deltaTime": 1, "channel": 9, "type": "channel", "noteNumber": 44, "velocity": 64, "subtype": "noteOn"  },
      { "deltaTime": 0, "channel": 9, "type": "channel", "noteNumber": 55, "velocity": 64, "subtype": "noteOn"  },
      { "deltaTime": 239, "channel": 9, "type": "channel", "subtype": "noteOff", "noteNumber": 55, "velocity": 0  },
      { "deltaTime": 1, "channel": 9, "type": "channel", "noteNumber": 35, "velocity": 64, "subtype": "noteOn"  },
      { "deltaTime": 0, "channel": 9, "type": "channel", "noteNumber": 55, "velocity": 64, "subtype": "noteOn"  },
      { "deltaTime": 239, "channel": 9, "type": "channel", "subtype": "noteOff", "noteNumber": 35, "velocity": 0  },
      { "deltaTime": 0, "channel": 9, "type": "channel", "subtype": "noteOff", "noteNumber": 44, "velocity": 0  },
      { "deltaTime": 0, "channel": 9, "type": "channel", "subtype": "noteOff", "noteNumber": 55, "velocity": 0  },
      { "deltaTime": 1, "channel": 9, "type": "channel", "noteNumber": 35, "velocity": 64, "subtype": "noteOn"  },
      { "deltaTime": 0, "channel": 9, "type": "channel", "noteNumber": 44, "velocity": 64, "subtype": "noteOn"  },
      { "deltaTime": 479, "channel": 9, "type": "channel", "subtype": "noteOff", "noteNumber": 35, "velocity": 0  },
      { "deltaTime": 0, "channel": 9, "type": "channel", "subtype": "noteOff", "noteNumber": 44, "velocity": 0  },
      { "deltaTime": 1, "channel": 9, "type": "channel", "noteNumber": 35, "velocity": 64, "subtype": "noteOn"  },
      { "deltaTime": 0, "channel": 9, "type": "channel", "noteNumber": 44, "velocity": 64, "subtype": "noteOn"  },
      { "deltaTime": 479, "channel": 9, "type": "channel", "subtype": "noteOff", "noteNumber": 35, "velocity": 0  },
      { "deltaTime": 0, "channel": 9, "type": "channel", "subtype": "noteOff", "noteNumber": 44, "velocity": 0  },
      { "deltaTime": 1, "channel": 9, "type": "channel", "noteNumber": 40, "velocity": 64, "subtype": "noteOn"  },
      { "deltaTime": 0, "channel": 9, "type": "channel", "noteNumber": 43, "velocity": 64, "subtype": "noteOn"  },
      { "deltaTime": 0, "channel": 9, "type": "channel", "noteNumber": 44, "velocity": 64, "subtype": "noteOn"  },
      { "deltaTime": 0, "channel": 9, "type": "channel", "noteNumber": 45, "velocity": 64, "subtype": "noteOn"  },
      { "deltaTime": 239, "channel": 9, "type": "channel", "subtype": "noteOff", "noteNumber": 40, "velocity": 0  },
      { "deltaTime": 0, "channel": 9, "type": "channel", "subtype": "noteOff", "noteNumber": 43, "velocity": 0  },
      { "deltaTime": 0, "channel": 9, "type": "channel", "subtype": "noteOff", "noteNumber": 45, "velocity": 0  },
      { "deltaTime": 1, "channel": 9, "type": "channel", "noteNumber": 35, "velocity": 64, "subtype": "noteOn"  },
      { "deltaTime": 239, "channel": 9, "type": "channel", "subtype": "noteOff", "noteNumber": 35, "velocity": 0  },
      { "deltaTime": 0, "channel": 9, "type": "channel", "subtype": "noteOff", "noteNumber": 44, "velocity": 0  },
      { "deltaTime": 1, "channel": 9, "type": "channel", "noteNumber": 44, "velocity": 64, "subtype": "noteOn"  },
      { "deltaTime": 479, "channel": 9, "type": "channel", "subtype": "noteOff", "noteNumber": 44, "velocity": 0  },
      { "deltaTime": 1, "channel": 9, "type": "channel", "noteNumber": 35, "velocity": 64, "subtype": "noteOn"  },
      { "deltaTime": 0, "channel": 9, "type": "channel", "noteNumber": 44, "velocity": 64, "subtype": "noteOn"  },
      { "deltaTime": 239, "channel": 9, "type": "channel", "subtype": "noteOff", "noteNumber": 35, "velocity": 0  },
      { "deltaTime": 240, "channel": 9, "type": "channel", "subtype": "noteOff", "noteNumber": 44, "velocity": 0  },
      { "deltaTime": 1, "channel": 9, "type": "channel", "noteNumber": 35, "velocity": 64, "subtype": "noteOn"  },
      { "deltaTime": 0, "channel": 9, "type": "channel", "noteNumber": 44, "velocity": 64, "subtype": "noteOn"  },
      { "deltaTime": 239, "channel": 9, "type": "channel", "subtype": "noteOff", "noteNumber": 35, "velocity": 0  },
      { "deltaTime": 1, "channel": 9, "type": "channel", "noteNumber": 35, "velocity": 64, "subtype": "noteOn"  },
      { "deltaTime": 239, "channel": 9, "type": "channel", "subtype": "noteOff", "noteNumber": 35, "velocity": 0  },
      { "deltaTime": 0, "channel": 9, "type": "channel", "subtype": "noteOff", "noteNumber": 44, "velocity": 0  },
      { "deltaTime": 1, "channel": 9, "type": "channel", "noteNumber": 40, "velocity": 64, "subtype": "noteOn"  },
      { "deltaTime": 0, "channel": 9, "type": "channel", "noteNumber": 44, "velocity": 64, "subtype": "noteOn"  },
      { "deltaTime": 239, "channel": 9, "type": "channel", "subtype": "noteOff", "noteNumber": 40, "velocity": 0  },
      { "deltaTime": 1, "channel": 9, "type": "channel", "noteNumber": 40, "velocity": 64, "subtype": "noteOn"  },
      { "deltaTime": 239, "channel": 9, "type": "channel", "subtype": "noteOff", "noteNumber": 40, "velocity": 0  },
      { "deltaTime": 0, "channel": 9, "type": "channel", "subtype": "noteOff", "noteNumber": 44, "velocity": 0  },
      { "deltaTime": 1, "channel": 9, "type": "channel", "noteNumber": 35, "velocity": 64, "subtype": "noteOn"  },
      { "deltaTime": 0, "channel": 9, "type": "channel", "noteNumber": 44, "velocity": 64, "subtype": "noteOn"  },
      { "deltaTime": 0, "channel": 9, "type": "channel", "noteNumber": 77, "velocity": 64, "subtype": "noteOn"  },
      { "deltaTime": 239, "channel": 9, "type": "channel", "subtype": "noteOff", "noteNumber": 35, "velocity": 0  },
      { "deltaTime": 0, "channel": 9, "type": "channel", "subtype": "noteOff", "noteNumber": 77, "velocity": 0  },
      { "deltaTime": 240, "channel": 9, "type": "channel", "subtype": "noteOff", "noteNumber": 44, "velocity": 0  },
      { "deltaTime": 1, "channel": 9, "type": "channel", "noteNumber": 35, "velocity": 64, "subtype": "noteOn"  },
      { "deltaTime": 0, "channel": 9, "type": "channel", "noteNumber": 44, "velocity": 64, "subtype": "noteOn"  },
      { "deltaTime": 239, "channel": 9, "type": "channel", "subtype": "noteOff", "noteNumber": 35, "velocity": 0  },
      { "deltaTime": 1, "channel": 9, "type": "channel", "noteNumber": 35, "velocity": 64, "subtype": "noteOn"  },
      { "deltaTime": 0, "channel": 9, "type": "channel", "noteNumber": 77, "velocity": 64, "subtype": "noteOn"  },
      { "deltaTime": 239, "channel": 9, "type": "channel", "subtype": "noteOff", "noteNumber": 35, "velocity": 0  },
      { "deltaTime": 0, "channel": 9, "type": "channel", "subtype": "noteOff", "noteNumber": 44, "velocity": 0  },
      { "deltaTime": 0, "channel": 9, "type": "channel", "subtype": "noteOff", "noteNumber": 77, "velocity": 0  },
      { "deltaTime": 1, "channel": 9, "type": "channel", "noteNumber": 44, "velocity": 64, "subtype": "noteOn"  },
      { "deltaTime": 240, "channel": 9, "type": "channel", "noteNumber": 35, "velocity": 64, "subtype": "noteOn"  },
      { "deltaTime": 239, "channel": 9, "type": "channel", "subtype": "noteOff", "noteNumber": 35, "velocity": 0  },
      { "deltaTime": 0, "channel": 9, "type": "channel", "subtype": "noteOff", "noteNumber": 44, "velocity": 0  },
      { "deltaTime": 1, "channel": 9, "type": "channel", "noteNumber": 35, "velocity": 64, "subtype": "noteOn"  },
      { "deltaTime": 0, "channel": 9, "type": "channel", "noteNumber": 44, "velocity": 64, "subtype": "noteOn"  },
      { "deltaTime": 0, "channel": 9, "type": "channel", "noteNumber": 77, "velocity": 64, "subtype": "noteOn"  },
      { "deltaTime": 239, "channel": 9, "type": "channel", "subtype": "noteOff", "noteNumber": 35, "velocity": 0  },
      { "deltaTime": 0, "channel": 9, "type": "channel", "subtype": "noteOff", "noteNumber": 77, "velocity": 0  },
      { "deltaTime": 1, "channel": 9, "type": "channel", "noteNumber": 77, "velocity": 64, "subtype": "noteOn"  },
      { "deltaTime": 239, "channel": 9, "type": "channel", "subtype": "noteOff", "noteNumber": 44, "velocity": 0  },
      { "deltaTime": 0, "channel": 9, "type": "channel", "subtype": "noteOff", "noteNumber": 77, "velocity": 0  },
      { "deltaTime": 1, "channel": 9, "type": "channel", "noteNumber": 35, "velocity": 64, "subtype": "noteOn"  },
      { "deltaTime": 0, "channel": 9, "type": "channel", "noteNumber": 44, "velocity": 64, "subtype": "noteOn"  },
      { "deltaTime": 0, "channel": 9, "type": "channel", "noteNumber": 77, "velocity": 64, "subtype": "noteOn"  },
      { "deltaTime": 239, "channel": 9, "type": "channel", "subtype": "noteOff", "noteNumber": 35, "velocity": 0  },
      { "deltaTime": 0, "channel": 9, "type": "channel", "subtype": "noteOff", "noteNumber": 77, "velocity": 0  },
      { "deltaTime": 1, "channel": 9, "type": "channel", "noteNumber": 77, "velocity": 64, "subtype": "noteOn"  },
      { "deltaTime": 239, "channel": 9, "type": "channel", "subtype": "noteOff", "noteNumber": 44, "velocity": 0  },
      { "deltaTime": 0, "channel": 9, "type": "channel", "subtype": "noteOff", "noteNumber": 77, "velocity": 0  },
      { "deltaTime": 1, "channel": 9, "type": "channel", "noteNumber": 40, "velocity": 64, "subtype": "noteOn"  },
      { "deltaTime": 0, "channel": 9, "type": "channel", "noteNumber": 44, "velocity": 64, "subtype": "noteOn"  },
      { "deltaTime": 239, "channel": 9, "type": "channel", "subtype": "noteOff", "noteNumber": 40, "velocity": 0  },
      { "deltaTime": 240, "channel": 9, "type": "channel", "subtype": "noteOff", "noteNumber": 44, "velocity": 0  },
      { "deltaTime": 1, "channel": 9, "type": "channel", "noteNumber": 44, "velocity": 64, "subtype": "noteOn"  },
      { "deltaTime": 0, "channel": 9, "type": "channel", "noteNumber": 55, "velocity": 64, "subtype": "noteOn"  },
      { "deltaTime": 239, "channel": 9, "type": "channel", "subtype": "noteOff", "noteNumber": 55, "velocity": 0  },
      { "deltaTime": 1, "channel": 9, "type": "channel", "noteNumber": 35, "velocity": 64, "subtype": "noteOn"  },
      { "deltaTime": 0, "channel": 9, "type": "channel", "noteNumber": 55, "velocity": 64, "subtype": "noteOn"  },
      { "deltaTime": 239, "channel": 9, "type": "channel", "subtype": "noteOff", "noteNumber": 35, "velocity": 0  },
      { "deltaTime": 0, "channel": 9, "type": "channel", "subtype": "noteOff", "noteNumber": 44, "velocity": 0  },
      { "deltaTime": 0, "channel": 9, "type": "channel", "subtype": "noteOff", "noteNumber": 55, "velocity": 0  },
      { "deltaTime": 1, "channel": 9, "type": "channel", "noteNumber": 35, "velocity": 64, "subtype": "noteOn"  },
      { "deltaTime": 0, "channel": 9, "type": "channel", "noteNumber": 44, "velocity": 64, "subtype": "noteOn"  },
      { "deltaTime": 479, "channel": 9, "type": "channel", "subtype": "noteOff", "noteNumber": 35, "velocity": 0  },
      { "deltaTime": 0, "channel": 9, "type": "channel", "subtype": "noteOff", "noteNumber": 44, "velocity": 0  },
      { "deltaTime": 1, "channel": 9, "type": "channel", "noteNumber": 35, "velocity": 64, "subtype": "noteOn"  },
      { "deltaTime": 0, "channel": 9, "type": "channel", "noteNumber": 44, "velocity": 64, "subtype": "noteOn"  },
      { "deltaTime": 479, "channel": 9, "type": "channel", "subtype": "noteOff", "noteNumber": 35, "velocity": 0  },
      { "deltaTime": 0, "channel": 9, "type": "channel", "subtype": "noteOff", "noteNumber": 44, "velocity": 0  },
      { "deltaTime": 1, "channel": 9, "type": "channel", "noteNumber": 40, "velocity": 64, "subtype": "noteOn"  },
      { "deltaTime": 0, "channel": 9, "type": "channel", "noteNumber": 43, "velocity": 64, "subtype": "noteOn"  },
      { "deltaTime": 0, "channel": 9, "type": "channel", "noteNumber": 44, "velocity": 64, "subtype": "noteOn"  },
      { "deltaTime": 0, "channel": 9, "type": "channel", "noteNumber": 45, "velocity": 64, "subtype": "noteOn"  },
      { "deltaTime": 239, "channel": 9, "type": "channel", "subtype": "noteOff", "noteNumber": 40, "velocity": 0  },
      { "deltaTime": 0, "channel": 9, "type": "channel", "subtype": "noteOff", "noteNumber": 43, "velocity": 0  },
      { "deltaTime": 0, "channel": 9, "type": "channel", "subtype": "noteOff", "noteNumber": 45, "velocity": 0  },
      { "deltaTime": 1, "channel": 9, "type": "channel", "noteNumber": 35, "velocity": 64, "subtype": "noteOn"  },
      { "deltaTime": 239, "channel": 9, "type": "channel", "subtype": "noteOff", "noteNumber": 35, "velocity": 0  },
      { "deltaTime": 0, "channel": 9, "type": "channel", "subtype": "noteOff", "noteNumber": 44, "velocity": 0  },
      { "deltaTime": 1, "channel": 9, "type": "channel", "noteNumber": 44, "velocity": 64, "subtype": "noteOn"  },
      { "deltaTime": 479, "channel": 9, "type": "channel", "subtype": "noteOff", "noteNumber": 44, "velocity": 0  },
      { "deltaTime": 1, "channel": 9, "type": "channel", "noteNumber": 35, "velocity": 64, "subtype": "noteOn"  },
      { "deltaTime": 0, "channel": 9, "type": "channel", "noteNumber": 44, "velocity": 64, "subtype": "noteOn"  },
      { "deltaTime": 239, "channel": 9, "type": "channel", "subtype": "noteOff", "noteNumber": 35, "velocity": 0  },
      { "deltaTime": 240, "channel": 9, "type": "channel", "subtype": "noteOff", "noteNumber": 44, "velocity": 0  },
      { "deltaTime": 1, "channel": 9, "type": "channel", "noteNumber": 35, "velocity": 64, "subtype": "noteOn"  },
      { "deltaTime": 0, "channel": 9, "type": "channel", "noteNumber": 44, "velocity": 64, "subtype": "noteOn"  },
      { "deltaTime": 239, "channel": 9, "type": "channel", "subtype": "noteOff", "noteNumber": 35, "velocity": 0  },
      { "deltaTime": 1, "channel": 9, "type": "channel", "noteNumber": 35, "velocity": 64, "subtype": "noteOn"  },
      { "deltaTime": 239, "channel": 9, "type": "channel", "subtype": "noteOff", "noteNumber": 35, "velocity": 0  },
      { "deltaTime": 0, "channel": 9, "type": "channel", "subtype": "noteOff", "noteNumber": 44, "velocity": 0  },
      { "deltaTime": 1, "channel": 9, "type": "channel", "noteNumber": 40, "velocity": 64, "subtype": "noteOn"  },
      { "deltaTime": 0, "channel": 9, "type": "channel", "noteNumber": 44, "velocity": 64, "subtype": "noteOn"  },
      { "deltaTime": 239, "channel": 9, "type": "channel", "subtype": "noteOff", "noteNumber": 40, "velocity": 0  },
      { "deltaTime": 1, "channel": 9, "type": "channel", "noteNumber": 40, "velocity": 64, "subtype": "noteOn"  },
      { "deltaTime": 239, "channel": 9, "type": "channel", "subtype": "noteOff", "noteNumber": 40, "velocity": 0  },
      { "deltaTime": 0, "channel": 9, "type": "channel", "subtype": "noteOff", "noteNumber": 44, "velocity": 0  },
      { "deltaTime": 1, "channel": 9, "type": "channel", "noteNumber": 35, "velocity": 64, "subtype": "noteOn"  },
      { "deltaTime": 0, "channel": 9, "type": "channel", "noteNumber": 44, "velocity": 64, "subtype": "noteOn"  },
      { "deltaTime": 0, "channel": 9, "type": "channel", "noteNumber": 77, "velocity": 64, "subtype": "noteOn"  },
      { "deltaTime": 239, "channel": 9, "type": "channel", "subtype": "noteOff", "noteNumber": 35, "velocity": 0  },
      { "deltaTime": 0, "channel": 9, "type": "channel", "subtype": "noteOff", "noteNumber": 77, "velocity": 0  },
      { "deltaTime": 240, "channel": 9, "type": "channel", "subtype": "noteOff", "noteNumber": 44, "velocity": 0  },
      { "deltaTime": 1, "channel": 9, "type": "channel", "noteNumber": 35, "velocity": 64, "subtype": "noteOn"  },
      { "deltaTime": 0, "channel": 9, "type": "channel", "noteNumber": 44, "velocity": 64, "subtype": "noteOn"  },
      { "deltaTime": 239, "channel": 9, "type": "channel", "subtype": "noteOff", "noteNumber": 35, "velocity": 0  },
      { "deltaTime": 1, "channel": 9, "type": "channel", "noteNumber": 35, "velocity": 64, "subtype": "noteOn"  },
      { "deltaTime": 0, "channel": 9, "type": "channel", "noteNumber": 77, "velocity": 64, "subtype": "noteOn"  },
      { "deltaTime": 239, "channel": 9, "type": "channel", "subtype": "noteOff", "noteNumber": 35, "velocity": 0  },
      { "deltaTime": 0, "channel": 9, "type": "channel", "subtype": "noteOff", "noteNumber": 44, "velocity": 0  },
      { "deltaTime": 0, "channel": 9, "type": "channel", "subtype": "noteOff", "noteNumber": 77, "velocity": 0  },
      { "deltaTime": 1, "channel": 9, "type": "channel", "noteNumber": 44, "velocity": 64, "subtype": "noteOn"  },
      { "deltaTime": 240, "channel": 9, "type": "channel", "noteNumber": 35, "velocity": 64, "subtype": "noteOn"  },
      { "deltaTime": 239, "channel": 9, "type": "channel", "subtype": "noteOff", "noteNumber": 35, "velocity": 0  },
      { "deltaTime": 0, "channel": 9, "type": "channel", "subtype": "noteOff", "noteNumber": 44, "velocity": 0  },
      { "deltaTime": 1, "channel": 9, "type": "channel", "noteNumber": 35, "velocity": 64, "subtype": "noteOn"  },
      { "deltaTime": 239, "channel": 9, "type": "channel", "subtype": "noteOff", "noteNumber": 35, "velocity": 0  },
      { "deltaTime": 241, "channel": 9, "type": "channel", "noteNumber": 42, "velocity": 64, "subtype": "noteOn"  },
      { "deltaTime": 239, "channel": 9, "type": "channel", "subtype": "noteOff", "noteNumber": 42, "velocity": 0  },
      { "deltaTime": 1, "channel": 9, "type": "channel", "noteNumber": 42, "velocity": 64, "subtype": "noteOn"  },
      { "deltaTime": 239, "channel": 9, "type": "channel", "subtype": "noteOff", "noteNumber": 42, "velocity": 0  },
      { "deltaTime": 1, "channel": 9, "type": "channel", "noteNumber": 40, "velocity": 64, "subtype": "noteOn"  },
      { "deltaTime": 239, "channel": 9, "type": "channel", "subtype": "noteOff", "noteNumber": 40, "velocity": 0  },
      { "deltaTime": 241, "channel": 9, "type": "channel", "noteNumber": 42, "velocity": 64, "subtype": "noteOn"  },
      { "deltaTime": 239, "channel": 9, "type": "channel", "subtype": "noteOff", "noteNumber": 42, "velocity": 0  },
      { "deltaTime": 1, "channel": 9, "type": "channel", "noteNumber": 42, "velocity": 64, "subtype": "noteOn"  },
      { "deltaTime": 239, "channel": 9, "type": "channel", "subtype": "noteOff", "noteNumber": 42, "velocity": 0  },
      { "deltaTime": 1, "channel": 9, "type": "channel", "noteNumber": 35, "velocity": 64, "subtype": "noteOn"  },
      { "deltaTime": 0, "channel": 9, "type": "channel", "noteNumber": 42, "velocity": 64, "subtype": "noteOn"  },
      { "deltaTime": 239, "channel": 9, "type": "channel", "subtype": "noteOff", "noteNumber": 35, "velocity": 0  },
      { "deltaTime": 0, "channel": 9, "type": "channel", "subtype": "noteOff", "noteNumber": 42, "velocity": 0  },
      { "deltaTime": 1, "channel": 9, "type": "channel", "noteNumber": 42, "velocity": 64, "subtype": "noteOn"  },
      { "deltaTime": 239, "channel": 9, "type": "channel", "subtype": "noteOff", "noteNumber": 42, "velocity": 0  },
      { "deltaTime": 1, "channel": 9, "type": "channel", "noteNumber": 40, "velocity": 64, "subtype": "noteOn"  },
      { "deltaTime": 0, "channel": 9, "type": "channel", "noteNumber": 56, "velocity": 64, "subtype": "noteOn"  },
      { "deltaTime": 239, "channel": 9, "type": "channel", "subtype": "noteOff", "noteNumber": 40, "velocity": 0  },
      { "deltaTime": 0, "channel": 9, "type": "channel", "subtype": "noteOff", "noteNumber": 56, "velocity": 0  },
      { "deltaTime": 1, "channel": 9, "type": "channel", "noteNumber": 56, "velocity": 64, "subtype": "noteOn"  },
      { "deltaTime": 239, "channel": 9, "type": "channel", "subtype": "noteOff", "noteNumber": 56, "velocity": 0  },
      { "deltaTime": 1, "channel": 9, "type": "channel", "noteNumber": 40, "velocity": 64, "subtype": "noteOn"  },
      { "deltaTime": 0, "channel": 9, "type": "channel", "noteNumber": 56, "velocity": 64, "subtype": "noteOn"  },
      { "deltaTime": 239, "channel": 9, "type": "channel", "subtype": "noteOff", "noteNumber": 40, "velocity": 0  },
      { "deltaTime": 0, "channel": 9, "type": "channel", "subtype": "noteOff", "noteNumber": 56, "velocity": 0  },
      { "deltaTime": 1, "channel": 9, "type": "channel", "noteNumber": 40, "velocity": 64, "subtype": "noteOn"  },
      { "deltaTime": 0, "channel": 9, "type": "channel", "noteNumber": 56, "velocity": 64, "subtype": "noteOn"  },
      { "deltaTime": 239, "channel": 9, "type": "channel", "subtype": "noteOff", "noteNumber": 40, "velocity": 0  },
      { "deltaTime": 0, "channel": 9, "type": "channel", "subtype": "noteOff", "noteNumber": 56, "velocity": 0  },
      { "deltaTime": 481, "channel": 9, "type": "channel", "noteNumber": 35, "velocity": 64, "subtype": "noteOn"  },
      { "deltaTime": 0, "channel": 9, "type": "channel", "noteNumber": 42, "velocity": 64, "subtype": "noteOn"  },
      { "deltaTime": 239, "channel": 9, "type": "channel", "subtype": "noteOff", "noteNumber": 35, "velocity": 0  },
      { "deltaTime": 0, "channel": 9, "type": "channel", "subtype": "noteOff", "noteNumber": 42, "velocity": 0  },
      { "deltaTime": 1, "channel": 9, "type": "channel", "noteNumber": 42, "velocity": 64, "subtype": "noteOn"  },
      { "deltaTime": 239, "channel": 9, "type": "channel", "subtype": "noteOff", "noteNumber": 42, "velocity": 0  },
      { "deltaTime": 1, "channel": 9, "type": "channel", "noteNumber": 42, "velocity": 64, "subtype": "noteOn"  },
      { "deltaTime": 239, "channel": 9, "type": "channel", "subtype": "noteOff", "noteNumber": 42, "velocity": 0  },
      { "deltaTime": 241, "channel": 9, "type": "channel", "noteNumber": 40, "velocity": 64, "subtype": "noteOn"  },
      { "deltaTime": 0, "channel": 9, "type": "channel", "noteNumber": 49, "velocity": 64, "subtype": "noteOn"  },
      { "deltaTime": 239, "channel": 9, "type": "channel", "subtype": "noteOff", "noteNumber": 40, "velocity": 0  },
      { "deltaTime": 0, "channel": 9, "type": "channel", "subtype": "noteOff", "noteNumber": 49, "velocity": 0  },
      { "deltaTime": 481, "channel": 9, "type": "channel", "noteNumber": 40, "velocity": 64, "subtype": "noteOn"  },
      { "deltaTime": 0, "channel": 9, "type": "channel", "noteNumber": 65, "velocity": 64, "subtype": "noteOn"  },
      { "deltaTime": 239, "channel": 9, "type": "channel", "subtype": "noteOff", "noteNumber": 40, "velocity": 0  },
      { "deltaTime": 0, "channel": 9, "type": "channel", "subtype": "noteOff", "noteNumber": 65, "velocity": 0  },
      { "deltaTime": 1, "channel": 9, "type": "channel", "noteNumber": 40, "velocity": 64, "subtype": "noteOn"  },
      { "deltaTime": 0, "channel": 9, "type": "channel", "noteNumber": 65, "velocity": 64, "subtype": "noteOn"  },
      { "deltaTime": 239, "channel": 9, "type": "channel", "subtype": "noteOff", "noteNumber": 40, "velocity": 0  },
      { "deltaTime": 0, "channel": 9, "type": "channel", "subtype": "noteOff", "noteNumber": 65, "velocity": 0  },
      { "deltaTime": 1, "channel": 9, "type": "channel", "noteNumber": 35, "velocity": 64, "subtype": "noteOn"  },
      { "deltaTime": 0, "channel": 9, "type": "channel", "noteNumber": 57, "velocity": 64, "subtype": "noteOn"  },
      { "deltaTime": 239, "channel": 9, "type": "channel", "subtype": "noteOff", "noteNumber": 35, "velocity": 0  },
      { "deltaTime": 0, "channel": 9, "type": "channel", "subtype": "noteOff", "noteNumber": 57, "velocity": 0  },
      { "deltaTime": 481, "channel": 9, "type": "channel", "noteNumber": 35, "velocity": 64, "subtype": "noteOn"  },
      { "deltaTime": 239, "channel": 9, "type": "channel", "subtype": "noteOff", "noteNumber": 35, "velocity": 0  },
      { "deltaTime": 241, "channel": 9, "type": "channel", "noteNumber": 42, "velocity": 64, "subtype": "noteOn"  },
      { "deltaTime": 239, "channel": 9, "type": "channel", "subtype": "noteOff", "noteNumber": 42, "velocity": 0  },
      { "deltaTime": 1, "channel": 9, "type": "channel", "noteNumber": 42, "velocity": 64, "subtype": "noteOn"  },
      { "deltaTime": 239, "channel": 9, "type": "channel", "subtype": "noteOff", "noteNumber": 42, "velocity": 0  },
      { "deltaTime": 1, "channel": 9, "type": "channel", "noteNumber": 40, "velocity": 64, "subtype": "noteOn"  },
      { "deltaTime": 239, "channel": 9, "type": "channel", "subtype": "noteOff", "noteNumber": 40, "velocity": 0  },
      { "deltaTime": 241, "channel": 9, "type": "channel", "noteNumber": 42, "velocity": 64, "subtype": "noteOn"  },
      { "deltaTime": 239, "channel": 9, "type": "channel", "subtype": "noteOff", "noteNumber": 42, "velocity": 0  },
      { "deltaTime": 1, "channel": 9, "type": "channel", "noteNumber": 42, "velocity": 64, "subtype": "noteOn"  },
      { "deltaTime": 239, "channel": 9, "type": "channel", "subtype": "noteOff", "noteNumber": 42, "velocity": 0  },
      { "deltaTime": 1, "channel": 9, "type": "channel", "noteNumber": 35, "velocity": 64, "subtype": "noteOn"  },
      { "deltaTime": 0, "channel": 9, "type": "channel", "noteNumber": 42, "velocity": 64, "subtype": "noteOn"  },
      { "deltaTime": 239, "channel": 9, "type": "channel", "subtype": "noteOff", "noteNumber": 35, "velocity": 0  },
      { "deltaTime": 0, "channel": 9, "type": "channel", "subtype": "noteOff", "noteNumber": 42, "velocity": 0  },
      { "deltaTime": 1, "channel": 9, "type": "channel", "noteNumber": 42, "velocity": 64, "subtype": "noteOn"  },
      { "deltaTime": 239, "channel": 9, "type": "channel", "subtype": "noteOff", "noteNumber": 42, "velocity": 0  },
      { "deltaTime": 1, "channel": 9, "type": "channel", "noteNumber": 40, "velocity": 64, "subtype": "noteOn"  },
      { "deltaTime": 0, "channel": 9, "type": "channel", "noteNumber": 56, "velocity": 64, "subtype": "noteOn"  },
      { "deltaTime": 239, "channel": 9, "type": "channel", "subtype": "noteOff", "noteNumber": 40, "velocity": 0  },
      { "deltaTime": 0, "channel": 9, "type": "channel", "subtype": "noteOff", "noteNumber": 56, "velocity": 0  },
      { "deltaTime": 1, "channel": 9, "type": "channel", "noteNumber": 56, "velocity": 64, "subtype": "noteOn"  },
      { "deltaTime": 239, "channel": 9, "type": "channel", "subtype": "noteOff", "noteNumber": 56, "velocity": 0  },
      { "deltaTime": 1, "channel": 9, "type": "channel", "noteNumber": 40, "velocity": 64, "subtype": "noteOn"  },
      { "deltaTime": 0, "channel": 9, "type": "channel", "noteNumber": 56, "velocity": 64, "subtype": "noteOn"  },
      { "deltaTime": 239, "channel": 9, "type": "channel", "subtype": "noteOff", "noteNumber": 40, "velocity": 0  },
      { "deltaTime": 0, "channel": 9, "type": "channel", "subtype": "noteOff", "noteNumber": 56, "velocity": 0  },
      { "deltaTime": 1, "channel": 9, "type": "channel", "noteNumber": 40, "velocity": 64, "subtype": "noteOn"  },
      { "deltaTime": 0, "channel": 9, "type": "channel", "noteNumber": 56, "velocity": 64, "subtype": "noteOn"  },
      { "deltaTime": 239, "channel": 9, "type": "channel", "subtype": "noteOff", "noteNumber": 40, "velocity": 0  },
      { "deltaTime": 0, "channel": 9, "type": "channel", "subtype": "noteOff", "noteNumber": 56, "velocity": 0  },
      { "deltaTime": 481, "channel": 9, "type": "channel", "noteNumber": 35, "velocity": 64, "subtype": "noteOn"  },
      { "deltaTime": 0, "channel": 9, "type": "channel", "noteNumber": 42, "velocity": 64, "subtype": "noteOn"  },
      { "deltaTime": 239, "channel": 9, "type": "channel", "subtype": "noteOff", "noteNumber": 35, "velocity": 0  },
      { "deltaTime": 0, "channel": 9, "type": "channel", "subtype": "noteOff", "noteNumber": 42, "velocity": 0  },
      { "deltaTime": 1, "channel": 9, "type": "channel", "noteNumber": 42, "velocity": 64, "subtype": "noteOn"  },
      { "deltaTime": 239, "channel": 9, "type": "channel", "subtype": "noteOff", "noteNumber": 42, "velocity": 0  },
      { "deltaTime": 1, "channel": 9, "type": "channel", "noteNumber": 42, "velocity": 64, "subtype": "noteOn"  },
      { "deltaTime": 239, "channel": 9, "type": "channel", "subtype": "noteOff", "noteNumber": 42, "velocity": 0  },
      { "deltaTime": 241, "channel": 9, "type": "channel", "noteNumber": 40, "velocity": 64, "subtype": "noteOn"  },
      { "deltaTime": 0, "channel": 9, "type": "channel", "noteNumber": 49, "velocity": 64, "subtype": "noteOn"  },
      { "deltaTime": 239, "channel": 9, "type": "channel", "subtype": "noteOff", "noteNumber": 40, "velocity": 0  },
      { "deltaTime": 0, "channel": 9, "type": "channel", "subtype": "noteOff", "noteNumber": 49, "velocity": 0  },
      { "deltaTime": 481, "channel": 9, "type": "channel", "noteNumber": 40, "velocity": 64, "subtype": "noteOn"  },
      { "deltaTime": 0, "channel": 9, "type": "channel", "noteNumber": 65, "velocity": 64, "subtype": "noteOn"  },
      { "deltaTime": 239, "channel": 9, "type": "channel", "subtype": "noteOff", "noteNumber": 40, "velocity": 0  },
      { "deltaTime": 0, "channel": 9, "type": "channel", "subtype": "noteOff", "noteNumber": 65, "velocity": 0  },
      { "deltaTime": 1, "channel": 9, "type": "channel", "noteNumber": 40, "velocity": 64, "subtype": "noteOn"  },
      { "deltaTime": 0, "channel": 9, "type": "channel", "noteNumber": 65, "velocity": 64, "subtype": "noteOn"  },
      { "deltaTime": 239, "channel": 9, "type": "channel", "subtype": "noteOff", "noteNumber": 40, "velocity": 0  },
      { "deltaTime": 0, "channel": 9, "type": "channel", "subtype": "noteOff", "noteNumber": 65, "velocity": 0  },
      { "deltaTime": 1, "channel": 9, "type": "channel", "noteNumber": 35, "velocity": 64, "subtype": "noteOn"  },
      { "deltaTime": 0, "channel": 9, "type": "channel", "noteNumber": 57, "velocity": 64, "subtype": "noteOn"  },
      { "deltaTime": 239, "channel": 9, "type": "channel", "subtype": "noteOff", "noteNumber": 35, "velocity": 0  },
      { "deltaTime": 0, "channel": 9, "type": "channel", "subtype": "noteOff", "noteNumber": 57, "velocity": 0  },
      { "deltaTime": 481, "channel": 9, "type": "channel", "noteNumber": 35, "velocity": 64, "subtype": "noteOn"  },
      { "deltaTime": 239, "channel": 9, "type": "channel", "subtype": "noteOff", "noteNumber": 35, "velocity": 0  },
      { "deltaTime": 241, "channel": 9, "type": "channel", "noteNumber": 42, "velocity": 64, "subtype": "noteOn"  },
      { "deltaTime": 239, "channel": 9, "type": "channel", "subtype": "noteOff", "noteNumber": 42, "velocity": 0  },
      { "deltaTime": 1, "channel": 9, "type": "channel", "noteNumber": 42, "velocity": 64, "subtype": "noteOn"  },
      { "deltaTime": 239, "channel": 9, "type": "channel", "subtype": "noteOff", "noteNumber": 42, "velocity": 0  },
      { "deltaTime": 1, "channel": 9, "type": "channel", "noteNumber": 40, "velocity": 64, "subtype": "noteOn"  },
      { "deltaTime": 239, "channel": 9, "type": "channel", "subtype": "noteOff", "noteNumber": 40, "velocity": 0  },
      { "deltaTime": 241, "channel": 9, "type": "channel", "noteNumber": 42, "velocity": 64, "subtype": "noteOn"  },
      { "deltaTime": 239, "channel": 9, "type": "channel", "subtype": "noteOff", "noteNumber": 42, "velocity": 0  },
      { "deltaTime": 1, "channel": 9, "type": "channel", "noteNumber": 42, "velocity": 64, "subtype": "noteOn"  },
      { "deltaTime": 239, "channel": 9, "type": "channel", "subtype": "noteOff", "noteNumber": 42, "velocity": 0  },
      { "deltaTime": 1, "channel": 9, "type": "channel", "noteNumber": 35, "velocity": 64, "subtype": "noteOn"  },
      { "deltaTime": 0, "channel": 9, "type": "channel", "noteNumber": 42, "velocity": 64, "subtype": "noteOn"  },
      { "deltaTime": 239, "channel": 9, "type": "channel", "subtype": "noteOff", "noteNumber": 35, "velocity": 0  },
      { "deltaTime": 0, "channel": 9, "type": "channel", "subtype": "noteOff", "noteNumber": 42, "velocity": 0  },
      { "deltaTime": 1, "channel": 9, "type": "channel", "noteNumber": 42, "velocity": 64, "subtype": "noteOn"  },
      { "deltaTime": 239, "channel": 9, "type": "channel", "subtype": "noteOff", "noteNumber": 42, "velocity": 0  },
      { "deltaTime": 1, "channel": 9, "type": "channel", "noteNumber": 40, "velocity": 64, "subtype": "noteOn"  },
      { "deltaTime": 0, "channel": 9, "type": "channel", "noteNumber": 56, "velocity": 64, "subtype": "noteOn"  },
      { "deltaTime": 239, "channel": 9, "type": "channel", "subtype": "noteOff", "noteNumber": 40, "velocity": 0  },
      { "deltaTime": 0, "channel": 9, "type": "channel", "subtype": "noteOff", "noteNumber": 56, "velocity": 0  },
      { "deltaTime": 1, "channel": 9, "type": "channel", "noteNumber": 56, "velocity": 64, "subtype": "noteOn"  },
      { "deltaTime": 239, "channel": 9, "type": "channel", "subtype": "noteOff", "noteNumber": 56, "velocity": 0  },
      { "deltaTime": 1, "channel": 9, "type": "channel", "noteNumber": 40, "velocity": 64, "subtype": "noteOn"  },
      { "deltaTime": 0, "channel": 9, "type": "channel", "noteNumber": 56, "velocity": 64, "subtype": "noteOn"  },
      { "deltaTime": 239, "channel": 9, "type": "channel", "subtype": "noteOff", "noteNumber": 40, "velocity": 0  },
      { "deltaTime": 0, "channel": 9, "type": "channel", "subtype": "noteOff", "noteNumber": 56, "velocity": 0  },
      { "deltaTime": 1, "channel": 9, "type": "channel", "noteNumber": 40, "velocity": 64, "subtype": "noteOn"  },
      { "deltaTime": 0, "channel": 9, "type": "channel", "noteNumber": 56, "velocity": 64, "subtype": "noteOn"  },
      { "deltaTime": 239, "channel": 9, "type": "channel", "subtype": "noteOff", "noteNumber": 40, "velocity": 0  },
      { "deltaTime": 0, "channel": 9, "type": "channel", "subtype": "noteOff", "noteNumber": 56, "velocity": 0  },
      { "deltaTime": 481, "channel": 9, "type": "channel", "noteNumber": 35, "velocity": 64, "subtype": "noteOn"  },
      { "deltaTime": 0, "channel": 9, "type": "channel", "noteNumber": 42, "velocity": 64, "subtype": "noteOn"  },
      { "deltaTime": 239, "channel": 9, "type": "channel", "subtype": "noteOff", "noteNumber": 35, "velocity": 0  },
      { "deltaTime": 0, "channel": 9, "type": "channel", "subtype": "noteOff", "noteNumber": 42, "velocity": 0  },
      { "deltaTime": 1, "channel": 9, "type": "channel", "noteNumber": 42, "velocity": 64, "subtype": "noteOn"  },
      { "deltaTime": 239, "channel": 9, "type": "channel", "subtype": "noteOff", "noteNumber": 42, "velocity": 0  },
      { "deltaTime": 1, "channel": 9, "type": "channel", "noteNumber": 42, "velocity": 64, "subtype": "noteOn"  },
      { "deltaTime": 239, "channel": 9, "type": "channel", "subtype": "noteOff", "noteNumber": 42, "velocity": 0  },
      { "deltaTime": 241, "channel": 9, "type": "channel", "noteNumber": 40, "velocity": 64, "subtype": "noteOn"  },
      { "deltaTime": 0, "channel": 9, "type": "channel", "noteNumber": 49, "velocity": 64, "subtype": "noteOn"  },
      { "deltaTime": 239, "channel": 9, "type": "channel", "subtype": "noteOff", "noteNumber": 40, "velocity": 0  },
      { "deltaTime": 0, "channel": 9, "type": "channel", "subtype": "noteOff", "noteNumber": 49, "velocity": 0  },
      { "deltaTime": 481, "channel": 9, "type": "channel", "noteNumber": 40, "velocity": 64, "subtype": "noteOn"  },
      { "deltaTime": 0, "channel": 9, "type": "channel", "noteNumber": 65, "velocity": 64, "subtype": "noteOn"  },
      { "deltaTime": 239, "channel": 9, "type": "channel", "subtype": "noteOff", "noteNumber": 40, "velocity": 0  },
      { "deltaTime": 0, "channel": 9, "type": "channel", "subtype": "noteOff", "noteNumber": 65, "velocity": 0  },
      { "deltaTime": 1, "channel": 9, "type": "channel", "noteNumber": 40, "velocity": 64, "subtype": "noteOn"  },
      { "deltaTime": 0, "channel": 9, "type": "channel", "noteNumber": 65, "velocity": 64, "subtype": "noteOn"  },
      { "deltaTime": 239, "channel": 9, "type": "channel", "subtype": "noteOff", "noteNumber": 40, "velocity": 0  },
      { "deltaTime": 0, "channel": 9, "type": "channel", "subtype": "noteOff", "noteNumber": 65, "velocity": 0  },
      { "deltaTime": 1, "channel": 9, "type": "channel", "noteNumber": 35, "velocity": 64, "subtype": "noteOn"  },
      { "deltaTime": 0, "channel": 9, "type": "channel", "noteNumber": 57, "velocity": 64, "subtype": "noteOn"  },
      { "deltaTime": 239, "channel": 9, "type": "channel", "subtype": "noteOff", "noteNumber": 35, "velocity": 0  },
      { "deltaTime": 0, "channel": 9, "type": "channel", "subtype": "noteOff", "noteNumber": 57, "velocity": 0  },
      { "deltaTime": 481, "channel": 9, "type": "channel", "noteNumber": 35, "velocity": 64, "subtype": "noteOn"  },
      { "deltaTime": 239, "channel": 9, "type": "channel", "subtype": "noteOff", "noteNumber": 35, "velocity": 0  },
      { "deltaTime": 241, "channel": 9, "type": "channel", "noteNumber": 42, "velocity": 64, "subtype": "noteOn"  },
      { "deltaTime": 239, "channel": 9, "type": "channel", "subtype": "noteOff", "noteNumber": 42, "velocity": 0  },
      { "deltaTime": 1, "channel": 9, "type": "channel", "noteNumber": 42, "velocity": 64, "subtype": "noteOn"  },
      { "deltaTime": 239, "channel": 9, "type": "channel", "subtype": "noteOff", "noteNumber": 42, "velocity": 0  },
      { "deltaTime": 1, "channel": 9, "type": "channel", "noteNumber": 40, "velocity": 64, "subtype": "noteOn"  },
      { "deltaTime": 239, "channel": 9, "type": "channel", "subtype": "noteOff", "noteNumber": 40, "velocity": 0  },
      { "deltaTime": 241, "channel": 9, "type": "channel", "noteNumber": 42, "velocity": 64, "subtype": "noteOn"  },
      { "deltaTime": 239, "channel": 9, "type": "channel", "subtype": "noteOff", "noteNumber": 42, "velocity": 0  },
      { "deltaTime": 1, "channel": 9, "type": "channel", "noteNumber": 42, "velocity": 64, "subtype": "noteOn"  },
      { "deltaTime": 239, "channel": 9, "type": "channel", "subtype": "noteOff", "noteNumber": 42, "velocity": 0  },
      { "deltaTime": 1, "channel": 9, "type": "channel", "noteNumber": 35, "velocity": 64, "subtype": "noteOn"  },
      { "deltaTime": 0, "channel": 9, "type": "channel", "noteNumber": 42, "velocity": 64, "subtype": "noteOn"  },
      { "deltaTime": 239, "channel": 9, "type": "channel", "subtype": "noteOff", "noteNumber": 35, "velocity": 0  },
      { "deltaTime": 0, "channel": 9, "type": "channel", "subtype": "noteOff", "noteNumber": 42, "velocity": 0  },
      { "deltaTime": 1, "channel": 9, "type": "channel", "noteNumber": 42, "velocity": 64, "subtype": "noteOn"  },
      { "deltaTime": 239, "channel": 9, "type": "channel", "subtype": "noteOff", "noteNumber": 42, "velocity": 0  },
      { "deltaTime": 1, "channel": 9, "type": "channel", "noteNumber": 40, "velocity": 64, "subtype": "noteOn"  },
      { "deltaTime": 0, "channel": 9, "type": "channel", "noteNumber": 56, "velocity": 64, "subtype": "noteOn"  },
      { "deltaTime": 239, "channel": 9, "type": "channel", "subtype": "noteOff", "noteNumber": 40, "velocity": 0  },
      { "deltaTime": 0, "channel": 9, "type": "channel", "subtype": "noteOff", "noteNumber": 56, "velocity": 0  },
      { "deltaTime": 1, "channel": 9, "type": "channel", "noteNumber": 56, "velocity": 64, "subtype": "noteOn"  },
      { "deltaTime": 239, "channel": 9, "type": "channel", "subtype": "noteOff", "noteNumber": 56, "velocity": 0  },
      { "deltaTime": 1, "channel": 9, "type": "channel", "noteNumber": 40, "velocity": 64, "subtype": "noteOn"  },
      { "deltaTime": 0, "channel": 9, "type": "channel", "noteNumber": 56, "velocity": 64, "subtype": "noteOn"  },
      { "deltaTime": 239, "channel": 9, "type": "channel", "subtype": "noteOff", "noteNumber": 40, "velocity": 0  },
      { "deltaTime": 0, "channel": 9, "type": "channel", "subtype": "noteOff", "noteNumber": 56, "velocity": 0  },
      { "deltaTime": 1, "channel": 9, "type": "channel", "noteNumber": 40, "velocity": 64, "subtype": "noteOn"  },
      { "deltaTime": 0, "channel": 9, "type": "channel", "noteNumber": 56, "velocity": 64, "subtype": "noteOn"  },
      { "deltaTime": 239, "channel": 9, "type": "channel", "subtype": "noteOff", "noteNumber": 40, "velocity": 0  },
      { "deltaTime": 0, "channel": 9, "type": "channel", "subtype": "noteOff", "noteNumber": 56, "velocity": 0  },
      { "deltaTime": 481, "channel": 9, "type": "channel", "noteNumber": 35, "velocity": 64, "subtype": "noteOn"  },
      { "deltaTime": 0, "channel": 9, "type": "channel", "noteNumber": 42, "velocity": 64, "subtype": "noteOn"  },
      { "deltaTime": 239, "channel": 9, "type": "channel", "subtype": "noteOff", "noteNumber": 35, "velocity": 0  },
      { "deltaTime": 0, "channel": 9, "type": "channel", "subtype": "noteOff", "noteNumber": 42, "velocity": 0  },
      { "deltaTime": 1, "channel": 9, "type": "channel", "noteNumber": 42, "velocity": 64, "subtype": "noteOn"  },
      { "deltaTime": 239, "channel": 9, "type": "channel", "subtype": "noteOff", "noteNumber": 42, "velocity": 0  },
      { "deltaTime": 1, "channel": 9, "type": "channel", "noteNumber": 42, "velocity": 64, "subtype": "noteOn"  },
      { "deltaTime": 239, "channel": 9, "type": "channel", "subtype": "noteOff", "noteNumber": 42, "velocity": 0  },
      { "deltaTime": 241, "channel": 9, "type": "channel", "noteNumber": 40, "velocity": 64, "subtype": "noteOn"  },
      { "deltaTime": 0, "channel": 9, "type": "channel", "noteNumber": 49, "velocity": 64, "subtype": "noteOn"  },
      { "deltaTime": 239, "channel": 9, "type": "channel", "subtype": "noteOff", "noteNumber": 40, "velocity": 0  },
      { "deltaTime": 0, "channel": 9, "type": "channel", "subtype": "noteOff", "noteNumber": 49, "velocity": 0  },
      { "deltaTime": 481, "channel": 9, "type": "channel", "noteNumber": 40, "velocity": 64, "subtype": "noteOn"  },
      { "deltaTime": 0, "channel": 9, "type": "channel", "noteNumber": 65, "velocity": 64, "subtype": "noteOn"  },
      { "deltaTime": 239, "channel": 9, "type": "channel", "subtype": "noteOff", "noteNumber": 40, "velocity": 0  },
      { "deltaTime": 0, "channel": 9, "type": "channel", "subtype": "noteOff", "noteNumber": 65, "velocity": 0  },
      { "deltaTime": 1, "channel": 9, "type": "channel", "noteNumber": 40, "velocity": 64, "subtype": "noteOn"  },
      { "deltaTime": 0, "channel": 9, "type": "channel", "noteNumber": 65, "velocity": 64, "subtype": "noteOn"  },
      { "deltaTime": 239, "channel": 9, "type": "channel", "subtype": "noteOff", "noteNumber": 40, "velocity": 0  },
      { "deltaTime": 0, "channel": 9, "type": "channel", "subtype": "noteOff", "noteNumber": 65, "velocity": 0  },
      { "deltaTime": 1, "channel": 9, "type": "channel", "noteNumber": 35, "velocity": 64, "subtype": "noteOn"  },
      { "deltaTime": 0, "channel": 9, "type": "channel", "noteNumber": 57, "velocity": 64, "subtype": "noteOn"  },
      { "deltaTime": 239, "channel": 9, "type": "channel", "subtype": "noteOff", "noteNumber": 35, "velocity": 0  },
      { "deltaTime": 0, "channel": 9, "type": "channel", "subtype": "noteOff", "noteNumber": 57, "velocity": 0  },
      { "deltaTime": 481, "channel": 9, "type": "channel", "noteNumber": 43, "velocity": 64, "subtype": "noteOn"  },
      { "deltaTime": 0, "channel": 9, "type": "channel", "noteNumber": 45, "velocity": 64, "subtype": "noteOn"  },
      { "deltaTime": 239, "channel": 9, "type": "channel", "subtype": "noteOff", "noteNumber": 43, "velocity": 0  },
      { "deltaTime": 0, "channel": 9, "type": "channel", "subtype": "noteOff", "noteNumber": 45, "velocity": 0  },
      { "deltaTime": 721, "channel": 9, "type": "channel", "noteNumber": 35, "velocity": 64, "subtype": "noteOn"  },
      { "deltaTime": 0, "channel": 9, "type": "channel", "noteNumber": 56, "velocity": 64, "subtype": "noteOn"  },
      { "deltaTime": 239, "channel": 9, "type": "channel", "subtype": "noteOff", "noteNumber": 35, "velocity": 0  },
      { "deltaTime": 0, "channel": 9, "type": "channel", "subtype": "noteOff", "noteNumber": 56, "velocity": 0  },
      { "deltaTime": 241, "channel": 9, "type": "channel", "noteNumber": 67, "velocity": 64, "subtype": "noteOn"  },
      { "deltaTime": 239, "channel": 9, "type": "channel", "subtype": "noteOff", "noteNumber": 67, "velocity": 0  },
      { "deltaTime": 241, "channel": 9, "type": "channel", "noteNumber": 40, "velocity": 64, "subtype": "noteOn"  },
      { "deltaTime": 0, "channel": 9, "type": "channel", "noteNumber": 56, "velocity": 64, "subtype": "noteOn"  },
      { "deltaTime": 239, "channel": 9, "type": "channel", "subtype": "noteOff", "noteNumber": 40, "velocity": 0  },
      { "deltaTime": 0, "channel": 9, "type": "channel", "subtype": "noteOff", "noteNumber": 56, "velocity": 0  },
      { "deltaTime": 721, "channel": 9, "type": "channel", "noteNumber": 35, "velocity": 64, "subtype": "noteOn"  },
      { "deltaTime": 0, "channel": 9, "type": "channel", "noteNumber": 56, "velocity": 64, "subtype": "noteOn"  },
      { "deltaTime": 239, "channel": 9, "type": "channel", "subtype": "noteOff", "noteNumber": 35, "velocity": 0  },
      { "deltaTime": 0, "channel": 9, "type": "channel", "subtype": "noteOff", "noteNumber": 56, "velocity": 0  },
      { "deltaTime": 241, "channel": 9, "type": "channel", "noteNumber": 35, "velocity": 64, "subtype": "noteOn"  },
      { "deltaTime": 479, "channel": 9, "type": "channel", "subtype": "noteOff", "noteNumber": 35, "velocity": 0  },
      { "deltaTime": 1, "channel": 9, "type": "channel", "noteNumber": 40, "velocity": 64, "subtype": "noteOn"  },
      { "deltaTime": 0, "channel": 9, "type": "channel", "noteNumber": 56, "velocity": 64, "subtype": "noteOn"  },
      { "deltaTime": 239, "channel": 9, "type": "channel", "subtype": "noteOff", "noteNumber": 40, "velocity": 0  },
      { "deltaTime": 0, "channel": 9, "type": "channel", "subtype": "noteOff", "noteNumber": 56, "velocity": 0  },
      { "deltaTime": 721, "channel": 9, "type": "channel", "noteNumber": 35, "velocity": 64, "subtype": "noteOn"  },
      { "deltaTime": 0, "channel": 9, "type": "channel", "noteNumber": 56, "velocity": 64, "subtype": "noteOn"  },
      { "deltaTime": 239, "channel": 9, "type": "channel", "subtype": "noteOff", "noteNumber": 56, "velocity": 0  },
      { "deltaTime": 240, "channel": 9, "type": "channel", "subtype": "noteOff", "noteNumber": 35, "velocity": 0  },
      { "deltaTime": 1, "channel": 9, "type": "channel", "noteNumber": 35, "velocity": 64, "subtype": "noteOn"  },
      { "deltaTime": 0, "channel": 9, "type": "channel", "noteNumber": 46, "velocity": 64, "subtype": "noteOn"  },
      { "deltaTime": 239, "channel": 9, "type": "channel", "subtype": "noteOff", "noteNumber": 46, "velocity": 0  },
      { "deltaTime": 240, "channel": 9, "type": "channel", "subtype": "noteOff", "noteNumber": 35, "velocity": 0  },
      { "deltaTime": 1, "channel": 9, "type": "channel", "noteNumber": 40, "velocity": 64, "subtype": "noteOn"  },
      { "deltaTime": 0, "channel": 9, "type": "channel", "noteNumber": 44, "velocity": 64, "subtype": "noteOn"  },
      { "deltaTime": 0, "channel": 9, "type": "channel", "noteNumber": 56, "velocity": 64, "subtype": "noteOn"  },
      { "deltaTime": 239, "channel": 9, "type": "channel", "subtype": "noteOff", "noteNumber": 40, "velocity": 0  },
      { "deltaTime": 0, "channel": 9, "type": "channel", "subtype": "noteOff", "noteNumber": 44, "velocity": 0  },
      { "deltaTime": 0, "channel": 9, "type": "channel", "subtype": "noteOff", "noteNumber": 56, "velocity": 0  },
      { "deltaTime": 1, "channel": 9, "type": "channel", "noteNumber": 40, "velocity": 64, "subtype": "noteOn"  },
      { "deltaTime": 239, "channel": 9, "type": "channel", "subtype": "noteOff", "noteNumber": 40, "velocity": 0  },
      { "deltaTime": 241, "channel": 9, "type": "channel", "noteNumber": 40, "velocity": 64, "subtype": "noteOn"  },
      { "deltaTime": 239, "channel": 9, "type": "channel", "subtype": "noteOff", "noteNumber": 40, "velocity": 0  },
      { "deltaTime": 1, "channel": 9, "type": "channel", "noteNumber": 35, "velocity": 64, "subtype": "noteOn"  },
      { "deltaTime": 0, "channel": 9, "type": "channel", "noteNumber": 56, "velocity": 64, "subtype": "noteOn"  },
      { "deltaTime": 239, "channel": 9, "type": "channel", "subtype": "noteOff", "noteNumber": 56, "velocity": 0  },
      { "deltaTime": 240, "channel": 9, "type": "channel", "subtype": "noteOff", "noteNumber": 35, "velocity": 0  },
      { "deltaTime": 1, "channel": 9, "type": "channel", "noteNumber": 35, "velocity": 64, "subtype": "noteOn"  },
      { "deltaTime": 479, "channel": 9, "type": "channel", "subtype": "noteOff", "noteNumber": 35, "velocity": 0  },
      { "deltaTime": 1, "channel": 9, "type": "channel", "noteNumber": 40, "velocity": 64, "subtype": "noteOn"  },
      { "deltaTime": 0, "channel": 9, "type": "channel", "noteNumber": 56, "velocity": 64, "subtype": "noteOn"  },
      { "deltaTime": 239, "channel": 9, "type": "channel", "subtype": "noteOff", "noteNumber": 40, "velocity": 0  },
      { "deltaTime": 0, "channel": 9, "type": "channel", "subtype": "noteOff", "noteNumber": 56, "velocity": 0  },
      { "deltaTime": 241, "channel": 9, "type": "channel", "noteNumber": 67, "velocity": 64, "subtype": "noteOn"  },
      { "deltaTime": 239, "channel": 9, "type": "channel", "subtype": "noteOff", "noteNumber": 67, "velocity": 0  },
      { "deltaTime": 241, "channel": 9, "type": "channel", "noteNumber": 35, "velocity": 64, "subtype": "noteOn"  },
      { "deltaTime": 0, "channel": 9, "type": "channel", "noteNumber": 56, "velocity": 64, "subtype": "noteOn"  },
      { "deltaTime": 239, "channel": 9, "type": "channel", "subtype": "noteOff", "noteNumber": 56, "velocity": 0  },
      { "deltaTime": 240, "channel": 9, "type": "channel", "subtype": "noteOff", "noteNumber": 35, "velocity": 0  },
      { "deltaTime": 1, "channel": 9, "type": "channel", "noteNumber": 35, "velocity": 64, "subtype": "noteOn"  },
      { "deltaTime": 479, "channel": 9, "type": "channel", "subtype": "noteOff", "noteNumber": 35, "velocity": 0  },
      { "deltaTime": 1, "channel": 9, "type": "channel", "noteNumber": 40, "velocity": 64, "subtype": "noteOn"  },
      { "deltaTime": 0, "channel": 9, "type": "channel", "noteNumber": 56, "velocity": 64, "subtype": "noteOn"  },
      { "deltaTime": 239, "channel": 9, "type": "channel", "subtype": "noteOff", "noteNumber": 40, "velocity": 0  },
      { "deltaTime": 0, "channel": 9, "type": "channel", "subtype": "noteOff", "noteNumber": 56, "velocity": 0  },
      { "deltaTime": 721, "channel": 9, "type": "channel", "noteNumber": 35, "velocity": 64, "subtype": "noteOn"  },
      { "deltaTime": 0, "channel": 9, "type": "channel", "noteNumber": 56, "velocity": 64, "subtype": "noteOn"  },
      { "deltaTime": 239, "channel": 9, "type": "channel", "subtype": "noteOff", "noteNumber": 56, "velocity": 0  },
      { "deltaTime": 240, "channel": 9, "type": "channel", "subtype": "noteOff", "noteNumber": 35, "velocity": 0  },
      { "deltaTime": 1, "channel": 9, "type": "channel", "noteNumber": 35, "velocity": 64, "subtype": "noteOn"  },
      { "deltaTime": 479, "channel": 9, "type": "channel", "subtype": "noteOff", "noteNumber": 35, "velocity": 0  },
      { "deltaTime": 1, "channel": 9, "type": "channel", "noteNumber": 40, "velocity": 64, "subtype": "noteOn"  },
      { "deltaTime": 0, "channel": 9, "type": "channel", "noteNumber": 56, "velocity": 64, "subtype": "noteOn"  },
      { "deltaTime": 239, "channel": 9, "type": "channel", "subtype": "noteOff", "noteNumber": 40, "velocity": 0  },
      { "deltaTime": 0, "channel": 9, "type": "channel", "subtype": "noteOff", "noteNumber": 56, "velocity": 0  },
      { "deltaTime": 241, "channel": 9, "type": "channel", "noteNumber": 57, "velocity": 64, "subtype": "noteOn"  },
      { "deltaTime": 239, "channel": 9, "type": "channel", "subtype": "noteOff", "noteNumber": 57, "velocity": 0  },
      { "deltaTime": 241, "channel": 9, "type": "channel", "noteNumber": 35, "velocity": 64, "subtype": "noteOn"  },
      { "deltaTime": 0, "channel": 9, "type": "channel", "noteNumber": 56, "velocity": 64, "subtype": "noteOn"  },
      { "deltaTime": 239, "channel": 9, "type": "channel", "subtype": "noteOff", "noteNumber": 56, "velocity": 0  },
      { "deltaTime": 240, "channel": 9, "type": "channel", "subtype": "noteOff", "noteNumber": 35, "velocity": 0  },
      { "deltaTime": 1, "channel": 9, "type": "channel", "noteNumber": 35, "velocity": 64, "subtype": "noteOn"  },
      { "deltaTime": 479, "channel": 9, "type": "channel", "subtype": "noteOff", "noteNumber": 35, "velocity": 0  },
      { "deltaTime": 1, "channel": 9, "type": "channel", "noteNumber": 40, "velocity": 64, "subtype": "noteOn"  },
      { "deltaTime": 0, "channel": 9, "type": "channel", "noteNumber": 56, "velocity": 64, "subtype": "noteOn"  },
      { "deltaTime": 239, "channel": 9, "type": "channel", "subtype": "noteOff", "noteNumber": 40, "velocity": 0  },
      { "deltaTime": 0, "channel": 9, "type": "channel", "subtype": "noteOff", "noteNumber": 56, "velocity": 0  },
      { "deltaTime": 721, "channel": 9, "type": "channel", "noteNumber": 35, "velocity": 64, "subtype": "noteOn"  },
      { "deltaTime": 0, "channel": 9, "type": "channel", "noteNumber": 56, "velocity": 64, "subtype": "noteOn"  },
      { "deltaTime": 239, "channel": 9, "type": "channel", "subtype": "noteOff", "noteNumber": 56, "velocity": 0  },
      { "deltaTime": 240, "channel": 9, "type": "channel", "subtype": "noteOff", "noteNumber": 35, "velocity": 0  },
      { "deltaTime": 1, "channel": 9, "type": "channel", "noteNumber": 67, "velocity": 64, "subtype": "noteOn"  },
      { "deltaTime": 239, "channel": 9, "type": "channel", "subtype": "noteOff", "noteNumber": 67, "velocity": 0  },
      { "deltaTime": 241, "channel": 9, "type": "channel", "noteNumber": 40, "velocity": 64, "subtype": "noteOn"  },
      { "deltaTime": 0, "channel": 9, "type": "channel", "noteNumber": 56, "velocity": 64, "subtype": "noteOn"  },
      { "deltaTime": 239, "channel": 9, "type": "channel", "subtype": "noteOff", "noteNumber": 40, "velocity": 0  },
      { "deltaTime": 0, "channel": 9, "type": "channel", "subtype": "noteOff", "noteNumber": 56, "velocity": 0  },
      { "deltaTime": 721, "channel": 9, "type": "channel", "noteNumber": 35, "velocity": 64, "subtype": "noteOn"  },
      { "deltaTime": 0, "channel": 9, "type": "channel", "noteNumber": 56, "velocity": 64, "subtype": "noteOn"  },
      { "deltaTime": 479, "channel": 9, "type": "channel", "subtype": "noteOff", "noteNumber": 35, "velocity": 0  },
      { "deltaTime": 480, "channel": 9, "type": "channel", "subtype": "noteOff", "noteNumber": 56, "velocity": 0  },
      { "deltaTime": 1, "channel": 9, "type": "channel", "noteNumber": 40, "velocity": 64, "subtype": "noteOn"  },
      { "deltaTime": 0, "channel": 9, "type": "channel", "noteNumber": 56, "velocity": 64, "subtype": "noteOn"  },
      { "deltaTime": 239, "channel": 9, "type": "channel", "subtype": "noteOff", "noteNumber": 40, "velocity": 0  },
      { "deltaTime": 720, "channel": 9, "type": "channel", "subtype": "noteOff", "noteNumber": 56, "velocity": 0  },
      { "deltaTime": 1, "channel": 9, "type": "channel", "noteNumber": 35, "velocity": 64, "subtype": "noteOn"  },
      { "deltaTime": 0, "channel": 9, "type": "channel", "noteNumber": 56, "velocity": 64, "subtype": "noteOn"  },
      { "deltaTime": 479, "channel": 9, "type": "channel", "subtype": "noteOff", "noteNumber": 35, "velocity": 0  },
      { "deltaTime": 1, "channel": 9, "type": "channel", "noteNumber": 46, "velocity": 64, "subtype": "noteOn"  },
      { "deltaTime": 239, "channel": 9, "type": "channel", "subtype": "noteOff", "noteNumber": 46, "velocity": 0  },
      { "deltaTime": 240, "channel": 9, "type": "channel", "subtype": "noteOff", "noteNumber": 56, "velocity": 0  },
      { "deltaTime": 1, "channel": 9, "type": "channel", "noteNumber": 40, "velocity": 64, "subtype": "noteOn"  },
      { "deltaTime": 0, "channel": 9, "type": "channel", "noteNumber": 44, "velocity": 64, "subtype": "noteOn"  },
      { "deltaTime": 0, "channel": 9, "type": "channel", "noteNumber": 56, "velocity": 64, "subtype": "noteOn"  },
      { "deltaTime": 239, "channel": 9, "type": "channel", "subtype": "noteOff", "noteNumber": 40, "velocity": 0  },
      { "deltaTime": 0, "channel": 9, "type": "channel", "subtype": "noteOff", "noteNumber": 44, "velocity": 0  },
      { "deltaTime": 1, "channel": 9, "type": "channel", "noteNumber": 40, "velocity": 64, "subtype": "noteOn"  },
      { "deltaTime": 239, "channel": 9, "type": "channel", "subtype": "noteOff", "noteNumber": 40, "velocity": 0  },
      { "deltaTime": 241, "channel": 9, "type": "channel", "noteNumber": 40, "velocity": 64, "subtype": "noteOn"  },
      { "deltaTime": 239, "channel": 9, "type": "channel", "subtype": "noteOff", "noteNumber": 40, "velocity": 0  },
      { "deltaTime": 0, "channel": 9, "type": "channel", "subtype": "noteOff", "noteNumber": 56, "velocity": 0  },
      { "deltaTime": 1, "channel": 9, "type": "channel", "noteNumber": 35, "velocity": 64, "subtype": "noteOn"  },
      { "deltaTime": 0, "channel": 9, "type": "channel", "noteNumber": 56, "velocity": 64, "subtype": "noteOn"  },
      { "deltaTime": 479, "channel": 9, "type": "channel", "subtype": "noteOff", "noteNumber": 35, "velocity": 0  },
      { "deltaTime": 480, "channel": 9, "type": "channel", "subtype": "noteOff", "noteNumber": 56, "velocity": 0  },
      { "deltaTime": 1, "channel": 9, "type": "channel", "noteNumber": 40, "velocity": 64, "subtype": "noteOn"  },
      { "deltaTime": 0, "channel": 9, "type": "channel", "noteNumber": 56, "velocity": 64, "subtype": "noteOn"  },
      { "deltaTime": 239, "channel": 9, "type": "channel", "subtype": "noteOff", "noteNumber": 40, "velocity": 0  },
      { "deltaTime": 241, "channel": 9, "type": "channel", "noteNumber": 67, "velocity": 64, "subtype": "noteOn"  },
      { "deltaTime": 239, "channel": 9, "type": "channel", "subtype": "noteOff", "noteNumber": 67, "velocity": 0  },
      { "deltaTime": 1, "channel": 9, "type": "channel", "noteNumber": 67, "velocity": 64, "subtype": "noteOn"  },
      { "deltaTime": 239, "channel": 9, "type": "channel", "subtype": "noteOff", "noteNumber": 56, "velocity": 0  },
      { "deltaTime": 0, "channel": 9, "type": "channel", "subtype": "noteOff", "noteNumber": 67, "velocity": 0  },
      { "deltaTime": 1, "channel": 9, "type": "channel", "noteNumber": 35, "velocity": 64, "subtype": "noteOn"  },
      { "deltaTime": 0, "channel": 9, "type": "channel", "noteNumber": 40, "velocity": 3, "subtype": "noteOn"  },
      { "deltaTime": 0, "channel": 9, "type": "channel", "noteNumber": 56, "velocity": 64, "subtype": "noteOn"  },
      { "deltaTime": 239, "channel": 9, "type": "channel", "subtype": "noteOff", "noteNumber": 40, "velocity": 0  },
      { "deltaTime": 1, "channel": 9, "type": "channel", "noteNumber": 40, "velocity": 6, "subtype": "noteOn"  },
      { "deltaTime": 239, "channel": 9, "type": "channel", "subtype": "noteOff", "noteNumber": 35, "velocity": 0  },
      { "deltaTime": 0, "channel": 9, "type": "channel", "subtype": "noteOff", "noteNumber": 40, "velocity": 0  },
      { "deltaTime": 1, "channel": 9, "type": "channel", "noteNumber": 40, "velocity": 9, "subtype": "noteOn"  },
      { "deltaTime": 239, "channel": 9, "type": "channel", "subtype": "noteOff", "noteNumber": 40, "velocity": 0  },
      { "deltaTime": 1, "channel": 9, "type": "channel", "noteNumber": 40, "velocity": 12, "subtype": "noteOn"  },
      { "deltaTime": 239, "channel": 9, "type": "channel", "subtype": "noteOff", "noteNumber": 40, "velocity": 0  },
      { "deltaTime": 0, "channel": 9, "type": "channel", "subtype": "noteOff", "noteNumber": 56, "velocity": 0  },
      { "deltaTime": 1, "channel": 9, "type": "channel", "noteNumber": 40, "velocity": 15, "subtype": "noteOn"  },
      { "deltaTime": 0, "channel": 9, "type": "channel", "noteNumber": 56, "velocity": 64, "subtype": "noteOn"  },
      { "deltaTime": 239, "channel": 9, "type": "channel", "subtype": "noteOff", "noteNumber": 40, "velocity": 0  },
      { "deltaTime": 1, "channel": 9, "type": "channel", "noteNumber": 40, "velocity": 18, "subtype": "noteOn"  },
      { "deltaTime": 239, "channel": 9, "type": "channel", "subtype": "noteOff", "noteNumber": 40, "velocity": 0  },
      { "deltaTime": 1, "channel": 9, "type": "channel", "noteNumber": 40, "velocity": 21, "subtype": "noteOn"  },
      { "deltaTime": 239, "channel": 9, "type": "channel", "subtype": "noteOff", "noteNumber": 40, "velocity": 0  },
      { "deltaTime": 1, "channel": 9, "type": "channel", "noteNumber": 40, "velocity": 24, "subtype": "noteOn"  },
      { "deltaTime": 239, "channel": 9, "type": "channel", "subtype": "noteOff", "noteNumber": 40, "velocity": 0  },
      { "deltaTime": 0, "channel": 9, "type": "channel", "subtype": "noteOff", "noteNumber": 56, "velocity": 0  },
      { "deltaTime": 1, "channel": 9, "type": "channel", "noteNumber": 35, "velocity": 64, "subtype": "noteOn"  },
      { "deltaTime": 0, "channel": 9, "type": "channel", "noteNumber": 40, "velocity": 27, "subtype": "noteOn"  },
      { "deltaTime": 0, "channel": 9, "type": "channel", "noteNumber": 56, "velocity": 64, "subtype": "noteOn"  },
      { "deltaTime": 239, "channel": 9, "type": "channel", "subtype": "noteOff", "noteNumber": 40, "velocity": 0  },
      { "deltaTime": 1, "channel": 9, "type": "channel", "noteNumber": 40, "velocity": 30, "subtype": "noteOn"  },
      { "deltaTime": 239, "channel": 9, "type": "channel", "subtype": "noteOff", "noteNumber": 35, "velocity": 0  },
      { "deltaTime": 0, "channel": 9, "type": "channel", "subtype": "noteOff", "noteNumber": 40, "velocity": 0  },
      { "deltaTime": 1, "channel": 9, "type": "channel", "noteNumber": 40, "velocity": 33, "subtype": "noteOn"  },
      { "deltaTime": 239, "channel": 9, "type": "channel", "subtype": "noteOff", "noteNumber": 40, "velocity": 0  },
      { "deltaTime": 1, "channel": 9, "type": "channel", "noteNumber": 40, "velocity": 36, "subtype": "noteOn"  },
      { "deltaTime": 239, "channel": 9, "type": "channel", "subtype": "noteOff", "noteNumber": 40, "velocity": 0  },
      { "deltaTime": 0, "channel": 9, "type": "channel", "subtype": "noteOff", "noteNumber": 56, "velocity": 0  },
      { "deltaTime": 1, "channel": 9, "type": "channel", "noteNumber": 40, "velocity": 39, "subtype": "noteOn"  },
      { "deltaTime": 0, "channel": 9, "type": "channel", "noteNumber": 56, "velocity": 64, "subtype": "noteOn"  },
      { "deltaTime": 239, "channel": 9, "type": "channel", "subtype": "noteOff", "noteNumber": 40, "velocity": 0  },
      { "deltaTime": 1, "channel": 9, "type": "channel", "noteNumber": 40, "velocity": 42, "subtype": "noteOn"  },
      { "deltaTime": 239, "channel": 9, "type": "channel", "subtype": "noteOff", "noteNumber": 40, "velocity": 0  },
      { "deltaTime": 1, "channel": 9, "type": "channel", "noteNumber": 40, "velocity": 45, "subtype": "noteOn"  },
      { "deltaTime": 239, "channel": 9, "type": "channel", "subtype": "noteOff", "noteNumber": 40, "velocity": 0  },
      { "deltaTime": 1, "channel": 9, "type": "channel", "noteNumber": 40, "velocity": 48, "subtype": "noteOn"  },
      { "deltaTime": 239, "channel": 9, "type": "channel", "subtype": "noteOff", "noteNumber": 40, "velocity": 0  },
      { "deltaTime": 0, "channel": 9, "type": "channel", "subtype": "noteOff", "noteNumber": 56, "velocity": 0  },
      { "deltaTime": 1, "channel": 9, "type": "channel", "noteNumber": 40, "velocity": 51, "subtype": "noteOn"  },
      { "deltaTime": 0, "channel": 9, "type": "channel", "noteNumber": 56, "velocity": 64, "subtype": "noteOn"  },
      { "deltaTime": 239, "channel": 9, "type": "channel", "subtype": "noteOff", "noteNumber": 40, "velocity": 0  },
      { "deltaTime": 1, "channel": 9, "type": "channel", "noteNumber": 40, "velocity": 54, "subtype": "noteOn"  },
      { "deltaTime": 239, "channel": 9, "type": "channel", "subtype": "noteOff", "noteNumber": 40, "velocity": 0  },
      { "deltaTime": 1, "channel": 9, "type": "channel", "noteNumber": 40, "velocity": 57, "subtype": "noteOn"  },
      { "deltaTime": 239, "channel": 9, "type": "channel", "subtype": "noteOff", "noteNumber": 40, "velocity": 0  },
      { "deltaTime": 1, "channel": 9, "type": "channel", "noteNumber": 40, "velocity": 64, "subtype": "noteOn"  },
      { "deltaTime": 239, "channel": 9, "type": "channel", "subtype": "noteOff", "noteNumber": 40, "velocity": 0  },
      { "deltaTime": 0, "channel": 9, "type": "channel", "subtype": "noteOff", "noteNumber": 56, "velocity": 0  },
      { "deltaTime": 1, "channel": 9, "type": "channel", "noteNumber": 35, "velocity": 64, "subtype": "noteOn"  },
      { "deltaTime": 0, "channel": 9, "type": "channel", "noteNumber": 57, "velocity": 64, "subtype": "noteOn"  },
      { "deltaTime": 479, "channel": 9, "type": "channel", "subtype": "noteOff", "noteNumber": 35, "velocity": 0  },
      { "deltaTime": 0, "channel": 9, "type": "channel", "subtype": "noteOff", "noteNumber": 57, "velocity": 0  },
      { "deltaTime": 0, "type": "meta", "subtype": "endOfTrack" }
    ],
    [
      { "deltaTime": 0, "channel": 1, "type": "channel", "subtype": "programChange", "programNumber": 90  },
      { "deltaTime": 0, "channel": 1, "type": "channel", "subtype": "controller", "controllerType": 7, "value": 100  },
      { "deltaTime": 0, "type": "meta", "subtype": "trackName", "text": "MIDI Chn 2"  },
      { "deltaTime": 0, "type": "meta", "subtype": "unknown", "data": "\u0001"  },
      { "deltaTime": 57600, "channel": 1, "type": "channel", "noteNumber": 64, "velocity": 64, "subtype": "noteOn"  },
      { "deltaTime": 239, "channel": 1, "type": "channel", "subtype": "noteOff", "noteNumber": 64, "velocity": 0  },
      { "deltaTime": 1, "channel": 1, "type": "channel", "noteNumber": 64, "velocity": 64, "subtype": "noteOn"  },
      { "deltaTime": 239, "channel": 1, "type": "channel", "subtype": "noteOff", "noteNumber": 64, "velocity": 0  },
      { "deltaTime": 1, "channel": 1, "type": "channel", "noteNumber": 64, "velocity": 64, "subtype": "noteOn"  },
      { "deltaTime": 239, "channel": 1, "type": "channel", "subtype": "noteOff", "noteNumber": 64, "velocity": 0  },
      { "deltaTime": 1, "channel": 1, "type": "channel", "noteNumber": 64, "velocity": 64, "subtype": "noteOn"  },
      { "deltaTime": 239, "channel": 1, "type": "channel", "subtype": "noteOff", "noteNumber": 64, "velocity": 0  },
      { "deltaTime": 481, "channel": 1, "type": "channel", "noteNumber": 52, "velocity": 64, "subtype": "noteOn"  },
      { "deltaTime": 239, "channel": 1, "type": "channel", "subtype": "noteOff", "noteNumber": 52, "velocity": 0  },
      { "deltaTime": 1, "channel": 1, "type": "channel", "noteNumber": 52, "velocity": 64, "subtype": "noteOn"  },
      { "deltaTime": 239, "channel": 1, "type": "channel", "subtype": "noteOff", "noteNumber": 52, "velocity": 0  },
      { "deltaTime": 1, "channel": 1, "type": "channel", "noteNumber": 52, "velocity": 64, "subtype": "noteOn"  },
      { "deltaTime": 239, "channel": 1, "type": "channel", "subtype": "noteOff", "noteNumber": 52, "velocity": 0  },
      { "deltaTime": 1, "channel": 1, "type": "channel", "noteNumber": 52, "velocity": 64, "subtype": "noteOn"  },
      { "deltaTime": 239, "channel": 1, "type": "channel", "subtype": "noteOff", "noteNumber": 52, "velocity": 0  },
      { "deltaTime": 481, "channel": 1, "type": "channel", "noteNumber": 64, "velocity": 64, "subtype": "noteOn"  },
      { "deltaTime": 239, "channel": 1, "type": "channel", "subtype": "noteOff", "noteNumber": 64, "velocity": 0  },
      { "deltaTime": 1, "channel": 1, "type": "channel", "noteNumber": 64, "velocity": 64, "subtype": "noteOn"  },
      { "deltaTime": 239, "channel": 1, "type": "channel", "subtype": "noteOff", "noteNumber": 64, "velocity": 0  },
      { "deltaTime": 1, "channel": 1, "type": "channel", "noteNumber": 64, "velocity": 64, "subtype": "noteOn"  },
      { "deltaTime": 239, "channel": 1, "type": "channel", "subtype": "noteOff", "noteNumber": 64, "velocity": 0  },
      { "deltaTime": 1, "channel": 1, "type": "channel", "noteNumber": 64, "velocity": 64, "subtype": "noteOn"  },
      { "deltaTime": 239, "channel": 1, "type": "channel", "subtype": "noteOff", "noteNumber": 64, "velocity": 0  },
      { "deltaTime": 481, "channel": 1, "type": "channel", "noteNumber": 52, "velocity": 64, "subtype": "noteOn"  },
      { "deltaTime": 239, "channel": 1, "type": "channel", "subtype": "noteOff", "noteNumber": 52, "velocity": 0  },
      { "deltaTime": 1, "channel": 1, "type": "channel", "noteNumber": 52, "velocity": 64, "subtype": "noteOn"  },
      { "deltaTime": 239, "channel": 1, "type": "channel", "subtype": "noteOff", "noteNumber": 52, "velocity": 0  },
      { "deltaTime": 1, "channel": 1, "type": "channel", "noteNumber": 52, "velocity": 64, "subtype": "noteOn"  },
      { "deltaTime": 239, "channel": 1, "type": "channel", "subtype": "noteOff", "noteNumber": 52, "velocity": 0  },
      { "deltaTime": 1, "channel": 1, "type": "channel", "noteNumber": 52, "velocity": 64, "subtype": "noteOn"  },
      { "deltaTime": 239, "channel": 1, "type": "channel", "subtype": "noteOff", "noteNumber": 52, "velocity": 0  },
      { "deltaTime": 1441, "channel": 1, "type": "channel", "noteNumber": 64, "velocity": 64, "subtype": "noteOn"  },
      { "deltaTime": 239, "channel": 1, "type": "channel", "subtype": "noteOff", "noteNumber": 64, "velocity": 0  },
      { "deltaTime": 1, "channel": 1, "type": "channel", "noteNumber": 64, "velocity": 64, "subtype": "noteOn"  },
      { "deltaTime": 239, "channel": 1, "type": "channel", "subtype": "noteOff", "noteNumber": 64, "velocity": 0  },
      { "deltaTime": 1, "channel": 1, "type": "channel", "noteNumber": 64, "velocity": 64, "subtype": "noteOn"  },
      { "deltaTime": 239, "channel": 1, "type": "channel", "subtype": "noteOff", "noteNumber": 64, "velocity": 0  },
      { "deltaTime": 1, "channel": 1, "type": "channel", "noteNumber": 64, "velocity": 64, "subtype": "noteOn"  },
      { "deltaTime": 239, "channel": 1, "type": "channel", "subtype": "noteOff", "noteNumber": 64, "velocity": 0  },
      { "deltaTime": 481, "channel": 1, "type": "channel", "noteNumber": 52, "velocity": 64, "subtype": "noteOn"  },
      { "deltaTime": 239, "channel": 1, "type": "channel", "subtype": "noteOff", "noteNumber": 52, "velocity": 0  },
      { "deltaTime": 1, "channel": 1, "type": "channel", "noteNumber": 52, "velocity": 64, "subtype": "noteOn"  },
      { "deltaTime": 239, "channel": 1, "type": "channel", "subtype": "noteOff", "noteNumber": 52, "velocity": 0  },
      { "deltaTime": 1, "channel": 1, "type": "channel", "noteNumber": 52, "velocity": 64, "subtype": "noteOn"  },
      { "deltaTime": 239, "channel": 1, "type": "channel", "subtype": "noteOff", "noteNumber": 52, "velocity": 0  },
      { "deltaTime": 1, "channel": 1, "type": "channel", "noteNumber": 52, "velocity": 64, "subtype": "noteOn"  },
      { "deltaTime": 239, "channel": 1, "type": "channel", "subtype": "noteOff", "noteNumber": 52, "velocity": 0  },
      { "deltaTime": 481, "channel": 1, "type": "channel", "noteNumber": 64, "velocity": 64, "subtype": "noteOn"  },
      { "deltaTime": 239, "channel": 1, "type": "channel", "subtype": "noteOff", "noteNumber": 64, "velocity": 0  },
      { "deltaTime": 1, "channel": 1, "type": "channel", "noteNumber": 64, "velocity": 64, "subtype": "noteOn"  },
      { "deltaTime": 239, "channel": 1, "type": "channel", "subtype": "noteOff", "noteNumber": 64, "velocity": 0  },
      { "deltaTime": 1, "channel": 1, "type": "channel", "noteNumber": 64, "velocity": 64, "subtype": "noteOn"  },
      { "deltaTime": 239, "channel": 1, "type": "channel", "subtype": "noteOff", "noteNumber": 64, "velocity": 0  },
      { "deltaTime": 1, "channel": 1, "type": "channel", "noteNumber": 64, "velocity": 64, "subtype": "noteOn"  },
      { "deltaTime": 239, "channel": 1, "type": "channel", "subtype": "noteOff", "noteNumber": 64, "velocity": 0  },
      { "deltaTime": 481, "channel": 1, "type": "channel", "noteNumber": 52, "velocity": 64, "subtype": "noteOn"  },
      { "deltaTime": 239, "channel": 1, "type": "channel", "subtype": "noteOff", "noteNumber": 52, "velocity": 0  },
      { "deltaTime": 1, "channel": 1, "type": "channel", "noteNumber": 52, "velocity": 64, "subtype": "noteOn"  },
      { "deltaTime": 239, "channel": 1, "type": "channel", "subtype": "noteOff", "noteNumber": 52, "velocity": 0  },
      { "deltaTime": 1, "channel": 1, "type": "channel", "noteNumber": 52, "velocity": 64, "subtype": "noteOn"  },
      { "deltaTime": 239, "channel": 1, "type": "channel", "subtype": "noteOff", "noteNumber": 52, "velocity": 0  },
      { "deltaTime": 1, "channel": 1, "type": "channel", "noteNumber": 52, "velocity": 64, "subtype": "noteOn"  },
      { "deltaTime": 239, "channel": 1, "type": "channel", "subtype": "noteOff", "noteNumber": 52, "velocity": 0  },
      { "deltaTime": 1441, "channel": 1, "type": "channel", "noteNumber": 64, "velocity": 64, "subtype": "noteOn"  },
      { "deltaTime": 239, "channel": 1, "type": "channel", "subtype": "noteOff", "noteNumber": 64, "velocity": 0  },
      { "deltaTime": 1, "channel": 1, "type": "channel", "noteNumber": 68, "velocity": 64, "subtype": "noteOn"  },
      { "deltaTime": 239, "channel": 1, "type": "channel", "subtype": "noteOff", "noteNumber": 68, "velocity": 0  },
      { "deltaTime": 1, "channel": 1, "type": "channel", "noteNumber": 64, "velocity": 64, "subtype": "noteOn"  },
      { "deltaTime": 239, "channel": 1, "type": "channel", "subtype": "noteOff", "noteNumber": 64, "velocity": 0  },
      { "deltaTime": 1, "channel": 1, "type": "channel", "noteNumber": 59, "velocity": 64, "subtype": "noteOn"  },
      { "deltaTime": 239, "channel": 1, "type": "channel", "subtype": "noteOff", "noteNumber": 59, "velocity": 0  },
      { "deltaTime": 1, "channel": 1, "type": "channel", "noteNumber": 66, "velocity": 64, "subtype": "noteOn"  },
      { "deltaTime": 239, "channel": 1, "type": "channel", "subtype": "noteOff", "noteNumber": 66, "velocity": 0  },
      { "deltaTime": 1, "channel": 1, "type": "channel", "noteNumber": 62, "velocity": 64, "subtype": "noteOn"  },
      { "deltaTime": 239, "channel": 1, "type": "channel", "subtype": "noteOff", "noteNumber": 62, "velocity": 0  },
      { "deltaTime": 1, "channel": 1, "type": "channel", "noteNumber": 59, "velocity": 64, "subtype": "noteOn"  },
      { "deltaTime": 239, "channel": 1, "type": "channel", "subtype": "noteOff", "noteNumber": 59, "velocity": 0  },
      { "deltaTime": 1, "channel": 1, "type": "channel", "noteNumber": 64, "velocity": 64, "subtype": "noteOn"  },
      { "deltaTime": 239, "channel": 1, "type": "channel", "subtype": "noteOff", "noteNumber": 64, "velocity": 0  },
      { "deltaTime": 1, "channel": 1, "type": "channel", "noteNumber": 61, "velocity": 64, "subtype": "noteOn"  },
      { "deltaTime": 239, "channel": 1, "type": "channel", "subtype": "noteOff", "noteNumber": 61, "velocity": 0  },
      { "deltaTime": 1, "channel": 1, "type": "channel", "noteNumber": 57, "velocity": 64, "subtype": "noteOn"  },
      { "deltaTime": 239, "channel": 1, "type": "channel", "subtype": "noteOff", "noteNumber": 57, "velocity": 0  },
      { "deltaTime": 1, "channel": 1, "type": "channel", "noteNumber": 59, "velocity": 64, "subtype": "noteOn"  },
      { "deltaTime": 239, "channel": 1, "type": "channel", "subtype": "noteOff", "noteNumber": 59, "velocity": 0  },
      { "deltaTime": 1, "channel": 1, "type": "channel", "noteNumber": 56, "velocity": 64, "subtype": "noteOn"  },
      { "deltaTime": 239, "channel": 1, "type": "channel", "subtype": "noteOff", "noteNumber": 56, "velocity": 0  },
      { "deltaTime": 1, "channel": 1, "type": "channel", "noteNumber": 57, "velocity": 64, "subtype": "noteOn"  },
      { "deltaTime": 239, "channel": 1, "type": "channel", "subtype": "noteOff", "noteNumber": 57, "velocity": 0  },
      { "deltaTime": 1, "channel": 1, "type": "channel", "noteNumber": 59, "velocity": 64, "subtype": "noteOn"  },
      { "deltaTime": 239, "channel": 1, "type": "channel", "subtype": "noteOff", "noteNumber": 59, "velocity": 0  },
      { "deltaTime": 1, "channel": 1, "type": "channel", "noteNumber": 64, "velocity": 64, "subtype": "noteOn"  },
      { "deltaTime": 239, "channel": 1, "type": "channel", "subtype": "noteOff", "noteNumber": 64, "velocity": 0  },
      { "deltaTime": 1, "channel": 1, "type": "channel", "noteNumber": 62, "velocity": 64, "subtype": "noteOn"  },
      { "deltaTime": 239, "channel": 1, "type": "channel", "subtype": "noteOff", "noteNumber": 62, "velocity": 0  },
      { "deltaTime": 1, "channel": 1, "type": "channel", "noteNumber": 68, "velocity": 64, "subtype": "noteOn"  },
      { "deltaTime": 239, "channel": 1, "type": "channel", "subtype": "noteOff", "noteNumber": 68, "velocity": 0  },
      { "deltaTime": 1, "channel": 1, "type": "channel", "noteNumber": 64, "velocity": 64, "subtype": "noteOn"  },
      { "deltaTime": 239, "channel": 1, "type": "channel", "subtype": "noteOff", "noteNumber": 64, "velocity": 0  },
      { "deltaTime": 1, "channel": 1, "type": "channel", "noteNumber": 59, "velocity": 64, "subtype": "noteOn"  },
      { "deltaTime": 239, "channel": 1, "type": "channel", "subtype": "noteOff", "noteNumber": 59, "velocity": 0  },
      { "deltaTime": 1, "channel": 1, "type": "channel", "noteNumber": 66, "velocity": 64, "subtype": "noteOn"  },
      { "deltaTime": 239, "channel": 1, "type": "channel", "subtype": "noteOff", "noteNumber": 66, "velocity": 0  },
      { "deltaTime": 1, "channel": 1, "type": "channel", "noteNumber": 62, "velocity": 64, "subtype": "noteOn"  },
      { "deltaTime": 239, "channel": 1, "type": "channel", "subtype": "noteOff", "noteNumber": 62, "velocity": 0  },
      { "deltaTime": 1, "channel": 1, "type": "channel", "noteNumber": 59, "velocity": 64, "subtype": "noteOn"  },
      { "deltaTime": 239, "channel": 1, "type": "channel", "subtype": "noteOff", "noteNumber": 59, "velocity": 0  },
      { "deltaTime": 1, "channel": 1, "type": "channel", "noteNumber": 64, "velocity": 64, "subtype": "noteOn"  },
      { "deltaTime": 239, "channel": 1, "type": "channel", "subtype": "noteOff", "noteNumber": 64, "velocity": 0  },
      { "deltaTime": 1, "channel": 1, "type": "channel", "noteNumber": 61, "velocity": 64, "subtype": "noteOn"  },
      { "deltaTime": 239, "channel": 1, "type": "channel", "subtype": "noteOff", "noteNumber": 61, "velocity": 0  },
      { "deltaTime": 1, "channel": 1, "type": "channel", "noteNumber": 57, "velocity": 64, "subtype": "noteOn"  },
      { "deltaTime": 239, "channel": 1, "type": "channel", "subtype": "noteOff", "noteNumber": 57, "velocity": 0  },
      { "deltaTime": 1, "channel": 1, "type": "channel", "noteNumber": 61, "velocity": 64, "subtype": "noteOn"  },
      { "deltaTime": 239, "channel": 1, "type": "channel", "subtype": "noteOff", "noteNumber": 61, "velocity": 0  },
      { "deltaTime": 1, "channel": 1, "type": "channel", "noteNumber": 59, "velocity": 64, "subtype": "noteOn"  },
      { "deltaTime": 239, "channel": 1, "type": "channel", "subtype": "noteOff", "noteNumber": 59, "velocity": 0  },
      { "deltaTime": 1, "channel": 1, "type": "channel", "noteNumber": 56, "velocity": 64, "subtype": "noteOn"  },
      { "deltaTime": 239, "channel": 1, "type": "channel", "subtype": "noteOff", "noteNumber": 56, "velocity": 0  },
      { "deltaTime": 1, "channel": 1, "type": "channel", "noteNumber": 64, "velocity": 64, "subtype": "noteOn"  },
      { "deltaTime": 239, "channel": 1, "type": "channel", "subtype": "noteOff", "noteNumber": 64, "velocity": 0  },
      { "deltaTime": 1, "channel": 1, "type": "channel", "noteNumber": 68, "velocity": 64, "subtype": "noteOn"  },
      { "deltaTime": 239, "channel": 1, "type": "channel", "subtype": "noteOff", "noteNumber": 68, "velocity": 0  },
      { "deltaTime": 1, "channel": 1, "type": "channel", "noteNumber": 64, "velocity": 64, "subtype": "noteOn"  },
      { "deltaTime": 239, "channel": 1, "type": "channel", "subtype": "noteOff", "noteNumber": 64, "velocity": 0  },
      { "deltaTime": 1, "channel": 1, "type": "channel", "noteNumber": 59, "velocity": 64, "subtype": "noteOn"  },
      { "deltaTime": 239, "channel": 1, "type": "channel", "subtype": "noteOff", "noteNumber": 59, "velocity": 0  },
      { "deltaTime": 1, "channel": 1, "type": "channel", "noteNumber": 66, "velocity": 64, "subtype": "noteOn"  },
      { "deltaTime": 239, "channel": 1, "type": "channel", "subtype": "noteOff", "noteNumber": 66, "velocity": 0  },
      { "deltaTime": 1, "channel": 1, "type": "channel", "noteNumber": 62, "velocity": 64, "subtype": "noteOn"  },
      { "deltaTime": 239, "channel": 1, "type": "channel", "subtype": "noteOff", "noteNumber": 62, "velocity": 0  },
      { "deltaTime": 1, "channel": 1, "type": "channel", "noteNumber": 59, "velocity": 64, "subtype": "noteOn"  },
      { "deltaTime": 239, "channel": 1, "type": "channel", "subtype": "noteOff", "noteNumber": 59, "velocity": 0  },
      { "deltaTime": 1, "channel": 1, "type": "channel", "noteNumber": 64, "velocity": 64, "subtype": "noteOn"  },
      { "deltaTime": 239, "channel": 1, "type": "channel", "subtype": "noteOff", "noteNumber": 64, "velocity": 0  },
      { "deltaTime": 1, "channel": 1, "type": "channel", "noteNumber": 61, "velocity": 64, "subtype": "noteOn"  },
      { "deltaTime": 239, "channel": 1, "type": "channel", "subtype": "noteOff", "noteNumber": 61, "velocity": 0  },
      { "deltaTime": 1, "channel": 1, "type": "channel", "noteNumber": 57, "velocity": 64, "subtype": "noteOn"  },
      { "deltaTime": 239, "channel": 1, "type": "channel", "subtype": "noteOff", "noteNumber": 57, "velocity": 0  },
      { "deltaTime": 1, "channel": 1, "type": "channel", "noteNumber": 59, "velocity": 64, "subtype": "noteOn"  },
      { "deltaTime": 239, "channel": 1, "type": "channel", "subtype": "noteOff", "noteNumber": 59, "velocity": 0  },
      { "deltaTime": 1, "channel": 1, "type": "channel", "noteNumber": 56, "velocity": 64, "subtype": "noteOn"  },
      { "deltaTime": 239, "channel": 1, "type": "channel", "subtype": "noteOff", "noteNumber": 56, "velocity": 0  },
      { "deltaTime": 1, "channel": 1, "type": "channel", "noteNumber": 57, "velocity": 64, "subtype": "noteOn"  },
      { "deltaTime": 239, "channel": 1, "type": "channel", "subtype": "noteOff", "noteNumber": 57, "velocity": 0  },
      { "deltaTime": 1, "channel": 1, "type": "channel", "noteNumber": 59, "velocity": 64, "subtype": "noteOn"  },
      { "deltaTime": 239, "channel": 1, "type": "channel", "subtype": "noteOff", "noteNumber": 59, "velocity": 0  },
      { "deltaTime": 1, "channel": 1, "type": "channel", "noteNumber": 64, "velocity": 64, "subtype": "noteOn"  },
      { "deltaTime": 239, "channel": 1, "type": "channel", "subtype": "noteOff", "noteNumber": 64, "velocity": 0  },
      { "deltaTime": 1, "channel": 1, "type": "channel", "noteNumber": 62, "velocity": 64, "subtype": "noteOn"  },
      { "deltaTime": 239, "channel": 1, "type": "channel", "subtype": "noteOff", "noteNumber": 62, "velocity": 0  },
      { "deltaTime": 1, "channel": 1, "type": "channel", "noteNumber": 68, "velocity": 64, "subtype": "noteOn"  },
      { "deltaTime": 239, "channel": 1, "type": "channel", "subtype": "noteOff", "noteNumber": 68, "velocity": 0  },
      { "deltaTime": 1, "channel": 1, "type": "channel", "noteNumber": 64, "velocity": 64, "subtype": "noteOn"  },
      { "deltaTime": 239, "channel": 1, "type": "channel", "subtype": "noteOff", "noteNumber": 64, "velocity": 0  },
      { "deltaTime": 1, "channel": 1, "type": "channel", "noteNumber": 59, "velocity": 64, "subtype": "noteOn"  },
      { "deltaTime": 239, "channel": 1, "type": "channel", "subtype": "noteOff", "noteNumber": 59, "velocity": 0  },
      { "deltaTime": 1, "channel": 1, "type": "channel", "noteNumber": 66, "velocity": 64, "subtype": "noteOn"  },
      { "deltaTime": 239, "channel": 1, "type": "channel", "subtype": "noteOff", "noteNumber": 66, "velocity": 0  },
      { "deltaTime": 1, "channel": 1, "type": "channel", "noteNumber": 62, "velocity": 64, "subtype": "noteOn"  },
      { "deltaTime": 239, "channel": 1, "type": "channel", "subtype": "noteOff", "noteNumber": 62, "velocity": 0  },
      { "deltaTime": 1, "channel": 1, "type": "channel", "noteNumber": 59, "velocity": 64, "subtype": "noteOn"  },
      { "deltaTime": 239, "channel": 1, "type": "channel", "subtype": "noteOff", "noteNumber": 59, "velocity": 0  },
      { "deltaTime": 1, "channel": 1, "type": "channel", "noteNumber": 64, "velocity": 64, "subtype": "noteOn"  },
      { "deltaTime": 239, "channel": 1, "type": "channel", "subtype": "noteOff", "noteNumber": 64, "velocity": 0  },
      { "deltaTime": 1, "channel": 1, "type": "channel", "noteNumber": 61, "velocity": 64, "subtype": "noteOn"  },
      { "deltaTime": 239, "channel": 1, "type": "channel", "subtype": "noteOff", "noteNumber": 61, "velocity": 0  },
      { "deltaTime": 1, "channel": 1, "type": "channel", "noteNumber": 57, "velocity": 64, "subtype": "noteOn"  },
      { "deltaTime": 239, "channel": 1, "type": "channel", "subtype": "noteOff", "noteNumber": 57, "velocity": 0  },
      { "deltaTime": 1, "channel": 1, "type": "channel", "noteNumber": 61, "velocity": 64, "subtype": "noteOn"  },
      { "deltaTime": 239, "channel": 1, "type": "channel", "subtype": "noteOff", "noteNumber": 61, "velocity": 0  },
      { "deltaTime": 1, "channel": 1, "type": "channel", "noteNumber": 59, "velocity": 64, "subtype": "noteOn"  },
      { "deltaTime": 239, "channel": 1, "type": "channel", "subtype": "noteOff", "noteNumber": 59, "velocity": 0  },
      { "deltaTime": 1, "channel": 1, "type": "channel", "noteNumber": 56, "velocity": 64, "subtype": "noteOn"  },
      { "deltaTime": 239, "channel": 1, "type": "channel", "subtype": "noteOff", "noteNumber": 56, "velocity": 0  },
      { "deltaTime": 1, "channel": 1, "type": "channel", "noteNumber": 52, "velocity": 64, "subtype": "noteOn"  },
      { "deltaTime": 26880, "channel": 1, "type": "channel", "noteNumber": 64, "velocity": 64, "subtype": "noteOn"  },
      { "deltaTime": 239, "channel": 1, "type": "channel", "subtype": "noteOff", "noteNumber": 64, "velocity": 0  },
      { "deltaTime": 1, "channel": 1, "type": "channel", "noteNumber": 64, "velocity": 64, "subtype": "noteOn"  },
      { "deltaTime": 239, "channel": 1, "type": "channel", "subtype": "noteOff", "noteNumber": 64, "velocity": 0  },
      { "deltaTime": 1, "channel": 1, "type": "channel", "noteNumber": 64, "velocity": 64, "subtype": "noteOn"  },
      { "deltaTime": 239, "channel": 1, "type": "channel", "subtype": "noteOff", "noteNumber": 64, "velocity": 0  },
      { "deltaTime": 1, "channel": 1, "type": "channel", "noteNumber": 64, "velocity": 64, "subtype": "noteOn"  },
      { "deltaTime": 239, "channel": 1, "type": "channel", "subtype": "noteOff", "noteNumber": 64, "velocity": 0  },
      { "deltaTime": 481, "channel": 1, "type": "channel", "noteNumber": 52, "velocity": 64, "subtype": "noteOn"  },
      { "deltaTime": 239, "channel": 1, "type": "channel", "subtype": "noteOff", "noteNumber": 52, "velocity": 0  },
      { "deltaTime": 0, "channel": 1, "type": "channel", "subtype": "noteOff", "noteNumber": 52, "velocity": 0  },
      { "deltaTime": 1, "channel": 1, "type": "channel", "noteNumber": 52, "velocity": 64, "subtype": "noteOn"  },
      { "deltaTime": 239, "channel": 1, "type": "channel", "subtype": "noteOff", "noteNumber": 52, "velocity": 0  },
      { "deltaTime": 1, "channel": 1, "type": "channel", "noteNumber": 52, "velocity": 64, "subtype": "noteOn"  },
      { "deltaTime": 239, "channel": 1, "type": "channel", "subtype": "noteOff", "noteNumber": 52, "velocity": 0  },
      { "deltaTime": 1, "channel": 1, "type": "channel", "noteNumber": 52, "velocity": 64, "subtype": "noteOn"  },
      { "deltaTime": 239, "channel": 1, "type": "channel", "subtype": "noteOff", "noteNumber": 52, "velocity": 0  },
      { "deltaTime": 481, "channel": 1, "type": "channel", "noteNumber": 64, "velocity": 64, "subtype": "noteOn"  },
      { "deltaTime": 239, "channel": 1, "type": "channel", "subtype": "noteOff", "noteNumber": 64, "velocity": 0  },
      { "deltaTime": 1, "channel": 1, "type": "channel", "noteNumber": 64, "velocity": 64, "subtype": "noteOn"  },
      { "deltaTime": 239, "channel": 1, "type": "channel", "subtype": "noteOff", "noteNumber": 64, "velocity": 0  },
      { "deltaTime": 1, "channel": 1, "type": "channel", "noteNumber": 64, "velocity": 64, "subtype": "noteOn"  },
      { "deltaTime": 239, "channel": 1, "type": "channel", "subtype": "noteOff", "noteNumber": 64, "velocity": 0  },
      { "deltaTime": 1, "channel": 1, "type": "channel", "noteNumber": 64, "velocity": 64, "subtype": "noteOn"  },
      { "deltaTime": 239, "channel": 1, "type": "channel", "subtype": "noteOff", "noteNumber": 64, "velocity": 0  },
      { "deltaTime": 481, "channel": 1, "type": "channel", "noteNumber": 52, "velocity": 64, "subtype": "noteOn"  },
      { "deltaTime": 239, "channel": 1, "type": "channel", "subtype": "noteOff", "noteNumber": 52, "velocity": 0  },
      { "deltaTime": 1, "channel": 1, "type": "channel", "noteNumber": 52, "velocity": 64, "subtype": "noteOn"  },
      { "deltaTime": 239, "channel": 1, "type": "channel", "subtype": "noteOff", "noteNumber": 52, "velocity": 0  },
      { "deltaTime": 1, "channel": 1, "type": "channel", "noteNumber": 52, "velocity": 64, "subtype": "noteOn"  },
      { "deltaTime": 239, "channel": 1, "type": "channel", "subtype": "noteOff", "noteNumber": 52, "velocity": 0  },
      { "deltaTime": 1, "channel": 1, "type": "channel", "noteNumber": 52, "velocity": 64, "subtype": "noteOn"  },
      { "deltaTime": 239, "channel": 1, "type": "channel", "subtype": "noteOff", "noteNumber": 52, "velocity": 0  },
      { "deltaTime": 1441, "channel": 1, "type": "channel", "noteNumber": 64, "velocity": 64, "subtype": "noteOn"  },
      { "deltaTime": 239, "channel": 1, "type": "channel", "subtype": "noteOff", "noteNumber": 64, "velocity": 0  },
      { "deltaTime": 1, "channel": 1, "type": "channel", "noteNumber": 64, "velocity": 64, "subtype": "noteOn"  },
      { "deltaTime": 239, "channel": 1, "type": "channel", "subtype": "noteOff", "noteNumber": 64, "velocity": 0  },
      { "deltaTime": 1, "channel": 1, "type": "channel", "noteNumber": 64, "velocity": 64, "subtype": "noteOn"  },
      { "deltaTime": 239, "channel": 1, "type": "channel", "subtype": "noteOff", "noteNumber": 64, "velocity": 0  },
      { "deltaTime": 1, "channel": 1, "type": "channel", "noteNumber": 64, "velocity": 64, "subtype": "noteOn"  },
      { "deltaTime": 239, "channel": 1, "type": "channel", "subtype": "noteOff", "noteNumber": 64, "velocity": 0  },
      { "deltaTime": 481, "channel": 1, "type": "channel", "noteNumber": 52, "velocity": 64, "subtype": "noteOn"  },
      { "deltaTime": 239, "channel": 1, "type": "channel", "subtype": "noteOff", "noteNumber": 52, "velocity": 0  },
      { "deltaTime": 1, "channel": 1, "type": "channel", "noteNumber": 52, "velocity": 64, "subtype": "noteOn"  },
      { "deltaTime": 239, "channel": 1, "type": "channel", "subtype": "noteOff", "noteNumber": 52, "velocity": 0  },
      { "deltaTime": 1, "channel": 1, "type": "channel", "noteNumber": 52, "velocity": 64, "subtype": "noteOn"  },
      { "deltaTime": 239, "channel": 1, "type": "channel", "subtype": "noteOff", "noteNumber": 52, "velocity": 0  },
      { "deltaTime": 1, "channel": 1, "type": "channel", "noteNumber": 52, "velocity": 64, "subtype": "noteOn"  },
      { "deltaTime": 239, "channel": 1, "type": "channel", "subtype": "noteOff", "noteNumber": 52, "velocity": 0  },
      { "deltaTime": 481, "channel": 1, "type": "channel", "noteNumber": 64, "velocity": 64, "subtype": "noteOn"  },
      { "deltaTime": 239, "channel": 1, "type": "channel", "subtype": "noteOff", "noteNumber": 64, "velocity": 0  },
      { "deltaTime": 1, "channel": 1, "type": "channel", "noteNumber": 64, "velocity": 64, "subtype": "noteOn"  },
      { "deltaTime": 239, "channel": 1, "type": "channel", "subtype": "noteOff", "noteNumber": 64, "velocity": 0  },
      { "deltaTime": 1, "channel": 1, "type": "channel", "noteNumber": 64, "velocity": 64, "subtype": "noteOn"  },
      { "deltaTime": 239, "channel": 1, "type": "channel", "subtype": "noteOff", "noteNumber": 64, "velocity": 0  },
      { "deltaTime": 1, "channel": 1, "type": "channel", "noteNumber": 64, "velocity": 64, "subtype": "noteOn"  },
      { "deltaTime": 239, "channel": 1, "type": "channel", "subtype": "noteOff", "noteNumber": 64, "velocity": 0  },
      { "deltaTime": 481, "channel": 1, "type": "channel", "noteNumber": 52, "velocity": 64, "subtype": "noteOn"  },
      { "deltaTime": 239, "channel": 1, "type": "channel", "subtype": "noteOff", "noteNumber": 52, "velocity": 0  },
      { "deltaTime": 1, "channel": 1, "type": "channel", "noteNumber": 52, "velocity": 64, "subtype": "noteOn"  },
      { "deltaTime": 239, "channel": 1, "type": "channel", "subtype": "noteOff", "noteNumber": 52, "velocity": 0  },
      { "deltaTime": 1, "channel": 1, "type": "channel", "noteNumber": 52, "velocity": 64, "subtype": "noteOn"  },
      { "deltaTime": 239, "channel": 1, "type": "channel", "subtype": "noteOff", "noteNumber": 52, "velocity": 0  },
      { "deltaTime": 1, "channel": 1, "type": "channel", "noteNumber": 52, "velocity": 64, "subtype": "noteOn"  },
      { "deltaTime": 239, "channel": 1, "type": "channel", "subtype": "noteOff", "noteNumber": 52, "velocity": 0  },
      { "deltaTime": 1441, "channel": 1, "type": "channel", "noteNumber": 64, "velocity": 64, "subtype": "noteOn"  },
      { "deltaTime": 239, "channel": 1, "type": "channel", "subtype": "noteOff", "noteNumber": 64, "velocity": 0  },
      { "deltaTime": 1, "channel": 1, "type": "channel", "noteNumber": 68, "velocity": 64, "subtype": "noteOn"  },
      { "deltaTime": 239, "channel": 1, "type": "channel", "subtype": "noteOff", "noteNumber": 68, "velocity": 0  },
      { "deltaTime": 1, "channel": 1, "type": "channel", "noteNumber": 64, "velocity": 64, "subtype": "noteOn"  },
      { "deltaTime": 239, "channel": 1, "type": "channel", "subtype": "noteOff", "noteNumber": 64, "velocity": 0  },
      { "deltaTime": 1, "channel": 1, "type": "channel", "noteNumber": 59, "velocity": 64, "subtype": "noteOn"  },
      { "deltaTime": 239, "channel": 1, "type": "channel", "subtype": "noteOff", "noteNumber": 59, "velocity": 0  },
      { "deltaTime": 1, "channel": 1, "type": "channel", "noteNumber": 66, "velocity": 64, "subtype": "noteOn"  },
      { "deltaTime": 239, "channel": 1, "type": "channel", "subtype": "noteOff", "noteNumber": 66, "velocity": 0  },
      { "deltaTime": 1, "channel": 1, "type": "channel", "noteNumber": 62, "velocity": 64, "subtype": "noteOn"  },
      { "deltaTime": 239, "channel": 1, "type": "channel", "subtype": "noteOff", "noteNumber": 62, "velocity": 0  },
      { "deltaTime": 1, "channel": 1, "type": "channel", "noteNumber": 59, "velocity": 64, "subtype": "noteOn"  },
      { "deltaTime": 239, "channel": 1, "type": "channel", "subtype": "noteOff", "noteNumber": 59, "velocity": 0  },
      { "deltaTime": 1, "channel": 1, "type": "channel", "noteNumber": 64, "velocity": 64, "subtype": "noteOn"  },
      { "deltaTime": 239, "channel": 1, "type": "channel", "subtype": "noteOff", "noteNumber": 64, "velocity": 0  },
      { "deltaTime": 1, "channel": 1, "type": "channel", "noteNumber": 61, "velocity": 64, "subtype": "noteOn"  },
      { "deltaTime": 239, "channel": 1, "type": "channel", "subtype": "noteOff", "noteNumber": 61, "velocity": 0  },
      { "deltaTime": 1, "channel": 1, "type": "channel", "noteNumber": 57, "velocity": 64, "subtype": "noteOn"  },
      { "deltaTime": 239, "channel": 1, "type": "channel", "subtype": "noteOff", "noteNumber": 57, "velocity": 0  },
      { "deltaTime": 1, "channel": 1, "type": "channel", "noteNumber": 59, "velocity": 64, "subtype": "noteOn"  },
      { "deltaTime": 239, "channel": 1, "type": "channel", "subtype": "noteOff", "noteNumber": 59, "velocity": 0  },
      { "deltaTime": 1, "channel": 1, "type": "channel", "noteNumber": 56, "velocity": 64, "subtype": "noteOn"  },
      { "deltaTime": 239, "channel": 1, "type": "channel", "subtype": "noteOff", "noteNumber": 56, "velocity": 0  },
      { "deltaTime": 1, "channel": 1, "type": "channel", "noteNumber": 57, "velocity": 64, "subtype": "noteOn"  },
      { "deltaTime": 239, "channel": 1, "type": "channel", "subtype": "noteOff", "noteNumber": 57, "velocity": 0  },
      { "deltaTime": 1, "channel": 1, "type": "channel", "noteNumber": 59, "velocity": 64, "subtype": "noteOn"  },
      { "deltaTime": 239, "channel": 1, "type": "channel", "subtype": "noteOff", "noteNumber": 59, "velocity": 0  },
      { "deltaTime": 1, "channel": 1, "type": "channel", "noteNumber": 64, "velocity": 64, "subtype": "noteOn"  },
      { "deltaTime": 239, "channel": 1, "type": "channel", "subtype": "noteOff", "noteNumber": 64, "velocity": 0  },
      { "deltaTime": 1, "channel": 1, "type": "channel", "noteNumber": 62, "velocity": 64, "subtype": "noteOn"  },
      { "deltaTime": 239, "channel": 1, "type": "channel", "subtype": "noteOff", "noteNumber": 62, "velocity": 0  },
      { "deltaTime": 1, "channel": 1, "type": "channel", "noteNumber": 68, "velocity": 64, "subtype": "noteOn"  },
      { "deltaTime": 239, "channel": 1, "type": "channel", "subtype": "noteOff", "noteNumber": 68, "velocity": 0  },
      { "deltaTime": 1, "channel": 1, "type": "channel", "noteNumber": 64, "velocity": 64, "subtype": "noteOn"  },
      { "deltaTime": 239, "channel": 1, "type": "channel", "subtype": "noteOff", "noteNumber": 64, "velocity": 0  },
      { "deltaTime": 1, "channel": 1, "type": "channel", "noteNumber": 59, "velocity": 64, "subtype": "noteOn"  },
      { "deltaTime": 239, "channel": 1, "type": "channel", "subtype": "noteOff", "noteNumber": 59, "velocity": 0  },
      { "deltaTime": 1, "channel": 1, "type": "channel", "noteNumber": 66, "velocity": 64, "subtype": "noteOn"  },
      { "deltaTime": 239, "channel": 1, "type": "channel", "subtype": "noteOff", "noteNumber": 66, "velocity": 0  },
      { "deltaTime": 1, "channel": 1, "type": "channel", "noteNumber": 62, "velocity": 64, "subtype": "noteOn"  },
      { "deltaTime": 239, "channel": 1, "type": "channel", "subtype": "noteOff", "noteNumber": 62, "velocity": 0  },
      { "deltaTime": 1, "channel": 1, "type": "channel", "noteNumber": 59, "velocity": 64, "subtype": "noteOn"  },
      { "deltaTime": 239, "channel": 1, "type": "channel", "subtype": "noteOff", "noteNumber": 59, "velocity": 0  },
      { "deltaTime": 1, "channel": 1, "type": "channel", "noteNumber": 64, "velocity": 64, "subtype": "noteOn"  },
      { "deltaTime": 239, "channel": 1, "type": "channel", "subtype": "noteOff", "noteNumber": 64, "velocity": 0  },
      { "deltaTime": 1, "channel": 1, "type": "channel", "noteNumber": 61, "velocity": 64, "subtype": "noteOn"  },
      { "deltaTime": 239, "channel": 1, "type": "channel", "subtype": "noteOff", "noteNumber": 61, "velocity": 0  },
      { "deltaTime": 1, "channel": 1, "type": "channel", "noteNumber": 57, "velocity": 64, "subtype": "noteOn"  },
      { "deltaTime": 239, "channel": 1, "type": "channel", "subtype": "noteOff", "noteNumber": 57, "velocity": 0  },
      { "deltaTime": 1, "channel": 1, "type": "channel", "noteNumber": 61, "velocity": 64, "subtype": "noteOn"  },
      { "deltaTime": 239, "channel": 1, "type": "channel", "subtype": "noteOff", "noteNumber": 61, "velocity": 0  },
      { "deltaTime": 1, "channel": 1, "type": "channel", "noteNumber": 59, "velocity": 64, "subtype": "noteOn"  },
      { "deltaTime": 239, "channel": 1, "type": "channel", "subtype": "noteOff", "noteNumber": 59, "velocity": 0  },
      { "deltaTime": 1, "channel": 1, "type": "channel", "noteNumber": 56, "velocity": 64, "subtype": "noteOn"  },
      { "deltaTime": 239, "channel": 1, "type": "channel", "subtype": "noteOff", "noteNumber": 56, "velocity": 0  },
      { "deltaTime": 1, "channel": 1, "type": "channel", "noteNumber": 64, "velocity": 64, "subtype": "noteOn"  },
      { "deltaTime": 239, "channel": 1, "type": "channel", "subtype": "noteOff", "noteNumber": 64, "velocity": 0  },
      { "deltaTime": 1, "channel": 1, "type": "channel", "noteNumber": 68, "velocity": 64, "subtype": "noteOn"  },
      { "deltaTime": 239, "channel": 1, "type": "channel", "subtype": "noteOff", "noteNumber": 68, "velocity": 0  },
      { "deltaTime": 1, "channel": 1, "type": "channel", "noteNumber": 64, "velocity": 64, "subtype": "noteOn"  },
      { "deltaTime": 239, "channel": 1, "type": "channel", "subtype": "noteOff", "noteNumber": 64, "velocity": 0  },
      { "deltaTime": 1, "channel": 1, "type": "channel", "noteNumber": 59, "velocity": 64, "subtype": "noteOn"  },
      { "deltaTime": 239, "channel": 1, "type": "channel", "subtype": "noteOff", "noteNumber": 59, "velocity": 0  },
      { "deltaTime": 1, "channel": 1, "type": "channel", "noteNumber": 66, "velocity": 64, "subtype": "noteOn"  },
      { "deltaTime": 239, "channel": 1, "type": "channel", "subtype": "noteOff", "noteNumber": 66, "velocity": 0  },
      { "deltaTime": 1, "channel": 1, "type": "channel", "noteNumber": 62, "velocity": 64, "subtype": "noteOn"  },
      { "deltaTime": 239, "channel": 1, "type": "channel", "subtype": "noteOff", "noteNumber": 62, "velocity": 0  },
      { "deltaTime": 1, "channel": 1, "type": "channel", "noteNumber": 59, "velocity": 64, "subtype": "noteOn"  },
      { "deltaTime": 239, "channel": 1, "type": "channel", "subtype": "noteOff", "noteNumber": 59, "velocity": 0  },
      { "deltaTime": 1, "channel": 1, "type": "channel", "noteNumber": 64, "velocity": 64, "subtype": "noteOn"  },
      { "deltaTime": 239, "channel": 1, "type": "channel", "subtype": "noteOff", "noteNumber": 64, "velocity": 0  },
      { "deltaTime": 1, "channel": 1, "type": "channel", "noteNumber": 61, "velocity": 64, "subtype": "noteOn"  },
      { "deltaTime": 239, "channel": 1, "type": "channel", "subtype": "noteOff", "noteNumber": 61, "velocity": 0  },
      { "deltaTime": 1, "channel": 1, "type": "channel", "noteNumber": 57, "velocity": 64, "subtype": "noteOn"  },
      { "deltaTime": 239, "channel": 1, "type": "channel", "subtype": "noteOff", "noteNumber": 57, "velocity": 0  },
      { "deltaTime": 1, "channel": 1, "type": "channel", "noteNumber": 59, "velocity": 64, "subtype": "noteOn"  },
      { "deltaTime": 239, "channel": 1, "type": "channel", "subtype": "noteOff", "noteNumber": 59, "velocity": 0  },
      { "deltaTime": 1, "channel": 1, "type": "channel", "noteNumber": 56, "velocity": 64, "subtype": "noteOn"  },
      { "deltaTime": 239, "channel": 1, "type": "channel", "subtype": "noteOff", "noteNumber": 56, "velocity": 0  },
      { "deltaTime": 1, "channel": 1, "type": "channel", "noteNumber": 57, "velocity": 64, "subtype": "noteOn"  },
      { "deltaTime": 239, "channel": 1, "type": "channel", "subtype": "noteOff", "noteNumber": 57, "velocity": 0  },
      { "deltaTime": 1, "channel": 1, "type": "channel", "noteNumber": 59, "velocity": 64, "subtype": "noteOn"  },
      { "deltaTime": 239, "channel": 1, "type": "channel", "subtype": "noteOff", "noteNumber": 59, "velocity": 0  },
      { "deltaTime": 1, "channel": 1, "type": "channel", "noteNumber": 64, "velocity": 64, "subtype": "noteOn"  },
      { "deltaTime": 239, "channel": 1, "type": "channel", "subtype": "noteOff", "noteNumber": 64, "velocity": 0  },
      { "deltaTime": 1, "channel": 1, "type": "channel", "noteNumber": 62, "velocity": 64, "subtype": "noteOn"  },
      { "deltaTime": 239, "channel": 1, "type": "channel", "subtype": "noteOff", "noteNumber": 62, "velocity": 0  },
      { "deltaTime": 1, "channel": 1, "type": "channel", "noteNumber": 68, "velocity": 64, "subtype": "noteOn"  },
      { "deltaTime": 239, "channel": 1, "type": "channel", "subtype": "noteOff", "noteNumber": 68, "velocity": 0  },
      { "deltaTime": 1, "channel": 1, "type": "channel", "noteNumber": 64, "velocity": 64, "subtype": "noteOn"  },
      { "deltaTime": 239, "channel": 1, "type": "channel", "subtype": "noteOff", "noteNumber": 64, "velocity": 0  },
      { "deltaTime": 1, "channel": 1, "type": "channel", "noteNumber": 59, "velocity": 64, "subtype": "noteOn"  },
      { "deltaTime": 239, "channel": 1, "type": "channel", "subtype": "noteOff", "noteNumber": 59, "velocity": 0  },
      { "deltaTime": 1, "channel": 1, "type": "channel", "noteNumber": 66, "velocity": 64, "subtype": "noteOn"  },
      { "deltaTime": 239, "channel": 1, "type": "channel", "subtype": "noteOff", "noteNumber": 66, "velocity": 0  },
      { "deltaTime": 1, "channel": 1, "type": "channel", "noteNumber": 62, "velocity": 64, "subtype": "noteOn"  },
      { "deltaTime": 239, "channel": 1, "type": "channel", "subtype": "noteOff", "noteNumber": 62, "velocity": 0  },
      { "deltaTime": 1, "channel": 1, "type": "channel", "noteNumber": 59, "velocity": 64, "subtype": "noteOn"  },
      { "deltaTime": 239, "channel": 1, "type": "channel", "subtype": "noteOff", "noteNumber": 59, "velocity": 0  },
      { "deltaTime": 1, "channel": 1, "type": "channel", "noteNumber": 64, "velocity": 64, "subtype": "noteOn"  },
      { "deltaTime": 239, "channel": 1, "type": "channel", "subtype": "noteOff", "noteNumber": 64, "velocity": 0  },
      { "deltaTime": 1, "channel": 1, "type": "channel", "noteNumber": 61, "velocity": 64, "subtype": "noteOn"  },
      { "deltaTime": 239, "channel": 1, "type": "channel", "subtype": "noteOff", "noteNumber": 61, "velocity": 0  },
      { "deltaTime": 1, "channel": 1, "type": "channel", "noteNumber": 57, "velocity": 64, "subtype": "noteOn"  },
      { "deltaTime": 239, "channel": 1, "type": "channel", "subtype": "noteOff", "noteNumber": 57, "velocity": 0  },
      { "deltaTime": 1, "channel": 1, "type": "channel", "noteNumber": 61, "velocity": 64, "subtype": "noteOn"  },
      { "deltaTime": 239, "channel": 1, "type": "channel", "subtype": "noteOff", "noteNumber": 61, "velocity": 0  },
      { "deltaTime": 1, "channel": 1, "type": "channel", "noteNumber": 59, "velocity": 64, "subtype": "noteOn"  },
      { "deltaTime": 239, "channel": 1, "type": "channel", "subtype": "noteOff", "noteNumber": 59, "velocity": 0  },
      { "deltaTime": 1, "channel": 1, "type": "channel", "noteNumber": 56, "velocity": 64, "subtype": "noteOn"  },
      { "deltaTime": 239, "channel": 1, "type": "channel", "subtype": "noteOff", "noteNumber": 56, "velocity": 0  },
      { "deltaTime": 1, "channel": 1, "type": "channel", "noteNumber": 52, "velocity": 64, "subtype": "noteOn"  },
      { "deltaTime": 20160, "channel": 1, "type": "channel", "noteNumber": 52, "velocity": 64, "subtype": "noteOn"  },
      { "deltaTime": 239, "channel": 1, "type": "channel", "subtype": "noteOff", "noteNumber": 52, "velocity": 0  },
      { "deltaTime": 0, "channel": 1, "type": "channel", "subtype": "noteOff", "noteNumber": 52, "velocity": 0  },
      { "deltaTime": 481, "channel": 1, "type": "channel", "noteNumber": 52, "velocity": 64, "subtype": "noteOn"  },
      { "deltaTime": 239, "channel": 1, "type": "channel", "subtype": "noteOff", "noteNumber": 52, "velocity": 0  },
      { "deltaTime": 481, "channel": 1, "type": "channel", "noteNumber": 52, "velocity": 64, "subtype": "noteOn"  },
      { "deltaTime": 239, "channel": 1, "type": "channel", "subtype": "noteOff", "noteNumber": 52, "velocity": 0  },
      { "deltaTime": 481, "channel": 1, "type": "channel", "noteNumber": 52, "velocity": 64, "subtype": "noteOn"  },
      { "deltaTime": 239, "channel": 1, "type": "channel", "subtype": "noteOff", "noteNumber": 52, "velocity": 0  },
      { "deltaTime": 481, "channel": 1, "type": "channel", "noteNumber": 52, "velocity": 64, "subtype": "noteOn"  },
      { "deltaTime": 239, "channel": 1, "type": "channel", "subtype": "noteOff", "noteNumber": 52, "velocity": 0  },
      { "deltaTime": 481, "channel": 1, "type": "channel", "noteNumber": 52, "velocity": 64, "subtype": "noteOn"  },
      { "deltaTime": 239, "channel": 1, "type": "channel", "subtype": "noteOff", "noteNumber": 52, "velocity": 0  },
      { "deltaTime": 481, "channel": 1, "type": "channel", "noteNumber": 52, "velocity": 64, "subtype": "noteOn"  },
      { "deltaTime": 239, "channel": 1, "type": "channel", "subtype": "noteOff", "noteNumber": 52, "velocity": 0  },
      { "deltaTime": 1, "channel": 1, "type": "channel", "noteNumber": 52, "velocity": 64, "subtype": "noteOn"  },
      { "deltaTime": 239, "channel": 1, "type": "channel", "subtype": "noteOff", "noteNumber": 52, "velocity": 0  },
      { "deltaTime": 1, "channel": 1, "type": "channel", "noteNumber": 52, "velocity": 64, "subtype": "noteOn"  },
      { "deltaTime": 239, "channel": 1, "type": "channel", "subtype": "noteOff", "noteNumber": 52, "velocity": 0  },
      { "deltaTime": 1, "channel": 1, "type": "channel", "noteNumber": 52, "velocity": 64, "subtype": "noteOn"  },
      { "deltaTime": 239, "channel": 1, "type": "channel", "subtype": "noteOff", "noteNumber": 52, "velocity": 0  },
      { "deltaTime": 481, "channel": 1, "type": "channel", "noteNumber": 52, "velocity": 64, "subtype": "noteOn"  },
      { "deltaTime": 239, "channel": 1, "type": "channel", "subtype": "noteOff", "noteNumber": 52, "velocity": 0  },
      { "deltaTime": 241, "channel": 1, "type": "channel", "noteNumber": 52, "velocity": 64, "subtype": "noteOn"  },
      { "deltaTime": 239, "channel": 1, "type": "channel", "subtype": "noteOff", "noteNumber": 52, "velocity": 0  },
      { "deltaTime": 27121, "channel": 1, "type": "channel", "noteNumber": 52, "velocity": 64, "subtype": "noteOn"  },
      { "deltaTime": 0, "channel": 1, "type": "channel", "noteNumber": 52, "velocity": 64, "subtype": "noteOn"  },
      { "deltaTime": 239, "channel": 1, "type": "channel", "subtype": "noteOff", "noteNumber": 52, "velocity": 0  },
      { "deltaTime": 0, "channel": 1, "type": "channel", "subtype": "noteOff", "noteNumber": 52, "velocity": 0  },
      { "deltaTime": 1, "channel": 1, "type": "channel", "noteNumber": 59, "velocity": 64, "subtype": "noteOn"  },
      { "deltaTime": 239, "channel": 1, "type": "channel", "subtype": "noteOff", "noteNumber": 59, "velocity": 0  },
      { "deltaTime": 1, "channel": 1, "type": "channel", "noteNumber": 59, "velocity": 64, "subtype": "noteOn"  },
      { "deltaTime": 239, "channel": 1, "type": "channel", "subtype": "noteOff", "noteNumber": 59, "velocity": 0  },
      { "deltaTime": 1, "channel": 1, "type": "channel", "noteNumber": 52, "velocity": 64, "subtype": "noteOn"  },
      { "deltaTime": 239, "channel": 1, "type": "channel", "subtype": "noteOff", "noteNumber": 52, "velocity": 0  },
      { "deltaTime": 1, "channel": 1, "type": "channel", "noteNumber": 58, "velocity": 64, "subtype": "noteOn"  },
      { "deltaTime": 0, "channel": 1, "type": "channel", "noteNumber": 58, "velocity": 64, "subtype": "noteOn"  },
      { "deltaTime": 239, "channel": 1, "type": "channel", "subtype": "noteOff", "noteNumber": 58, "velocity": 0  },
      { "deltaTime": 0, "channel": 1, "type": "channel", "subtype": "noteOff", "noteNumber": 58, "velocity": 0  },
      { "deltaTime": 1, "channel": 1, "type": "channel", "noteNumber": 58, "velocity": 64, "subtype": "noteOn"  },
      { "deltaTime": 0, "channel": 1, "type": "channel", "noteNumber": 58, "velocity": 64, "subtype": "noteOn"  },
      { "deltaTime": 239, "channel": 1, "type": "channel", "subtype": "noteOff", "noteNumber": 58, "velocity": 0  },
      { "deltaTime": 0, "channel": 1, "type": "channel", "subtype": "noteOff", "noteNumber": 58, "velocity": 0  },
      { "deltaTime": 1, "channel": 1, "type": "channel", "noteNumber": 52, "velocity": 64, "subtype": "noteOn"  },
      { "deltaTime": 0, "channel": 1, "type": "channel", "noteNumber": 52, "velocity": 64, "subtype": "noteOn"  },
      { "deltaTime": 239, "channel": 1, "type": "channel", "subtype": "noteOff", "noteNumber": 52, "velocity": 0  },
      { "deltaTime": 0, "channel": 1, "type": "channel", "subtype": "noteOff", "noteNumber": 52, "velocity": 0  },
      { "deltaTime": 1, "channel": 1, "type": "channel", "noteNumber": 59, "velocity": 64, "subtype": "noteOn"  },
      { "deltaTime": 0, "channel": 1, "type": "channel", "noteNumber": 59, "velocity": 64, "subtype": "noteOn"  },
      { "deltaTime": 239, "channel": 1, "type": "channel", "subtype": "noteOff", "noteNumber": 59, "velocity": 0  },
      { "deltaTime": 0, "channel": 1, "type": "channel", "subtype": "noteOff", "noteNumber": 59, "velocity": 0  },
      { "deltaTime": 1, "channel": 1, "type": "channel", "noteNumber": 59, "velocity": 64, "subtype": "noteOn"  },
      { "deltaTime": 0, "channel": 1, "type": "channel", "noteNumber": 59, "velocity": 64, "subtype": "noteOn"  },
      { "deltaTime": 239, "channel": 1, "type": "channel", "subtype": "noteOff", "noteNumber": 59, "velocity": 0  },
      { "deltaTime": 0, "channel": 1, "type": "channel", "subtype": "noteOff", "noteNumber": 59, "velocity": 0  },
      { "deltaTime": 1, "channel": 1, "type": "channel", "noteNumber": 52, "velocity": 64, "subtype": "noteOn"  },
      { "deltaTime": 0, "channel": 1, "type": "channel", "noteNumber": 52, "velocity": 64, "subtype": "noteOn"  },
      { "deltaTime": 239, "channel": 1, "type": "channel", "subtype": "noteOff", "noteNumber": 52, "velocity": 0  },
      { "deltaTime": 0, "channel": 1, "type": "channel", "subtype": "noteOff", "noteNumber": 52, "velocity": 0  },
      { "deltaTime": 1, "channel": 1, "type": "channel", "noteNumber": 58, "velocity": 64, "subtype": "noteOn"  },
      { "deltaTime": 0, "channel": 1, "type": "channel", "noteNumber": 58, "velocity": 64, "subtype": "noteOn"  },
      { "deltaTime": 239, "channel": 1, "type": "channel", "subtype": "noteOff", "noteNumber": 58, "velocity": 0  },
      { "deltaTime": 0, "channel": 1, "type": "channel", "subtype": "noteOff", "noteNumber": 58, "velocity": 0  },
      { "deltaTime": 1, "channel": 1, "type": "channel", "noteNumber": 58, "velocity": 64, "subtype": "noteOn"  },
      { "deltaTime": 0, "channel": 1, "type": "channel", "noteNumber": 58, "velocity": 64, "subtype": "noteOn"  },
      { "deltaTime": 239, "channel": 1, "type": "channel", "subtype": "noteOff", "noteNumber": 58, "velocity": 0  },
      { "deltaTime": 0, "channel": 1, "type": "channel", "subtype": "noteOff", "noteNumber": 58, "velocity": 0  },
      { "deltaTime": 1, "channel": 1, "type": "channel", "noteNumber": 52, "velocity": 64, "subtype": "noteOn"  },
      { "deltaTime": 0, "channel": 1, "type": "channel", "noteNumber": 52, "velocity": 64, "subtype": "noteOn"  },
      { "deltaTime": 239, "channel": 1, "type": "channel", "subtype": "noteOff", "noteNumber": 52, "velocity": 0  },
      { "deltaTime": 0, "channel": 1, "type": "channel", "subtype": "noteOff", "noteNumber": 52, "velocity": 0  },
      { "deltaTime": 1, "channel": 1, "type": "channel", "noteNumber": 59, "velocity": 64, "subtype": "noteOn"  },
      { "deltaTime": 0, "channel": 1, "type": "channel", "noteNumber": 59, "velocity": 64, "subtype": "noteOn"  },
      { "deltaTime": 239, "channel": 1, "type": "channel", "subtype": "noteOff", "noteNumber": 59, "velocity": 0  },
      { "deltaTime": 0, "channel": 1, "type": "channel", "subtype": "noteOff", "noteNumber": 59, "velocity": 0  },
      { "deltaTime": 1, "channel": 1, "type": "channel", "noteNumber": 52, "velocity": 64, "subtype": "noteOn"  },
      { "deltaTime": 0, "channel": 1, "type": "channel", "noteNumber": 52, "velocity": 64, "subtype": "noteOn"  },
      { "deltaTime": 239, "channel": 1, "type": "channel", "subtype": "noteOff", "noteNumber": 52, "velocity": 0  },
      { "deltaTime": 0, "channel": 1, "type": "channel", "subtype": "noteOff", "noteNumber": 52, "velocity": 0  },
      { "deltaTime": 1, "channel": 1, "type": "channel", "noteNumber": 60, "velocity": 64, "subtype": "noteOn"  },
      { "deltaTime": 0, "channel": 1, "type": "channel", "noteNumber": 60, "velocity": 64, "subtype": "noteOn"  },
      { "deltaTime": 239, "channel": 1, "type": "channel", "subtype": "noteOff", "noteNumber": 60, "velocity": 0  },
      { "deltaTime": 0, "channel": 1, "type": "channel", "subtype": "noteOff", "noteNumber": 60, "velocity": 0  },
      { "deltaTime": 1, "channel": 1, "type": "channel", "noteNumber": 52, "velocity": 64, "subtype": "noteOn"  },
      { "deltaTime": 0, "channel": 1, "type": "channel", "noteNumber": 52, "velocity": 64, "subtype": "noteOn"  },
      { "deltaTime": 239, "channel": 1, "type": "channel", "subtype": "noteOff", "noteNumber": 52, "velocity": 0  },
      { "deltaTime": 0, "channel": 1, "type": "channel", "subtype": "noteOff", "noteNumber": 52, "velocity": 0  },
      { "deltaTime": 1, "channel": 1, "type": "channel", "noteNumber": 59, "velocity": 64, "subtype": "noteOn"  },
      { "deltaTime": 0, "channel": 1, "type": "channel", "noteNumber": 59, "velocity": 64, "subtype": "noteOn"  },
      { "deltaTime": 0, "channel": 1, "type": "channel", "noteNumber": 59, "velocity": 64, "subtype": "noteOn"  },
      { "deltaTime": 0, "channel": 1, "type": "channel", "noteNumber": 59, "velocity": 64, "subtype": "noteOn"  },
      { "deltaTime": 0, "channel": 1, "type": "channel", "noteNumber": 59, "velocity": 64, "subtype": "noteOn"  },
      { "deltaTime": 0, "channel": 1, "type": "channel", "noteNumber": 59, "velocity": 64, "subtype": "noteOn"  },
      { "deltaTime": 0, "channel": 1, "type": "channel", "noteNumber": 59, "velocity": 64, "subtype": "noteOn"  },
      { "deltaTime": 0, "channel": 1, "type": "channel", "noteNumber": 59, "velocity": 64, "subtype": "noteOn"  },
      { "deltaTime": 239, "channel": 1, "type": "channel", "subtype": "noteOff", "noteNumber": 59, "velocity": 0  },
      { "deltaTime": 0, "channel": 1, "type": "channel", "subtype": "noteOff", "noteNumber": 59, "velocity": 0  },
      { "deltaTime": 0, "channel": 1, "type": "channel", "subtype": "noteOff", "noteNumber": 59, "velocity": 0  },
      { "deltaTime": 0, "channel": 1, "type": "channel", "subtype": "noteOff", "noteNumber": 59, "velocity": 0  },
      { "deltaTime": 0, "channel": 1, "type": "channel", "subtype": "noteOff", "noteNumber": 59, "velocity": 0  },
      { "deltaTime": 0, "channel": 1, "type": "channel", "subtype": "noteOff", "noteNumber": 59, "velocity": 0  },
      { "deltaTime": 0, "channel": 1, "type": "channel", "subtype": "noteOff", "noteNumber": 59, "velocity": 0  },
      { "deltaTime": 0, "channel": 1, "type": "channel", "subtype": "noteOff", "noteNumber": 59, "velocity": 0  },
      { "deltaTime": 1, "channel": 1, "type": "channel", "noteNumber": 59, "velocity": 64, "subtype": "noteOn"  },
      { "deltaTime": 0, "channel": 1, "type": "channel", "noteNumber": 59, "velocity": 64, "subtype": "noteOn"  },
      { "deltaTime": 0, "channel": 1, "type": "channel", "noteNumber": 59, "velocity": 64, "subtype": "noteOn"  },
      { "deltaTime": 0, "channel": 1, "type": "channel", "noteNumber": 59, "velocity": 64, "subtype": "noteOn"  },
      { "deltaTime": 0, "channel": 1, "type": "channel", "noteNumber": 59, "velocity": 64, "subtype": "noteOn"  },
      { "deltaTime": 0, "channel": 1, "type": "channel", "noteNumber": 59, "velocity": 64, "subtype": "noteOn"  },
      { "deltaTime": 0, "channel": 1, "type": "channel", "noteNumber": 59, "velocity": 64, "subtype": "noteOn"  },
      { "deltaTime": 0, "channel": 1, "type": "channel", "noteNumber": 59, "velocity": 64, "subtype": "noteOn"  },
      { "deltaTime": 239, "channel": 1, "type": "channel", "subtype": "noteOff", "noteNumber": 59, "velocity": 0  },
      { "deltaTime": 0, "channel": 1, "type": "channel", "subtype": "noteOff", "noteNumber": 59, "velocity": 0  },
      { "deltaTime": 0, "channel": 1, "type": "channel", "subtype": "noteOff", "noteNumber": 59, "velocity": 0  },
      { "deltaTime": 0, "channel": 1, "type": "channel", "subtype": "noteOff", "noteNumber": 59, "velocity": 0  },
      { "deltaTime": 0, "channel": 1, "type": "channel", "subtype": "noteOff", "noteNumber": 59, "velocity": 0  },
      { "deltaTime": 0, "channel": 1, "type": "channel", "subtype": "noteOff", "noteNumber": 59, "velocity": 0  },
      { "deltaTime": 0, "channel": 1, "type": "channel", "subtype": "noteOff", "noteNumber": 59, "velocity": 0  },
      { "deltaTime": 0, "channel": 1, "type": "channel", "subtype": "noteOff", "noteNumber": 59, "velocity": 0  },
      { "deltaTime": 1, "channel": 1, "type": "channel", "noteNumber": 52, "velocity": 64, "subtype": "noteOn"  },
      { "deltaTime": 0, "channel": 1, "type": "channel", "noteNumber": 52, "velocity": 64, "subtype": "noteOn"  },
      { "deltaTime": 0, "channel": 1, "type": "channel", "noteNumber": 52, "velocity": 64, "subtype": "noteOn"  },
      { "deltaTime": 0, "channel": 1, "type": "channel", "noteNumber": 52, "velocity": 64, "subtype": "noteOn"  },
      { "deltaTime": 0, "channel": 1, "type": "channel", "noteNumber": 52, "velocity": 64, "subtype": "noteOn"  },
      { "deltaTime": 0, "channel": 1, "type": "channel", "noteNumber": 52, "velocity": 64, "subtype": "noteOn"  },
      { "deltaTime": 0, "channel": 1, "type": "channel", "noteNumber": 52, "velocity": 64, "subtype": "noteOn"  },
      { "deltaTime": 0, "channel": 1, "type": "channel", "noteNumber": 52, "velocity": 64, "subtype": "noteOn"  },
      { "deltaTime": 239, "channel": 1, "type": "channel", "subtype": "noteOff", "noteNumber": 52, "velocity": 0  },
      { "deltaTime": 0, "channel": 1, "type": "channel", "subtype": "noteOff", "noteNumber": 52, "velocity": 0  },
      { "deltaTime": 0, "channel": 1, "type": "channel", "subtype": "noteOff", "noteNumber": 52, "velocity": 0  },
      { "deltaTime": 0, "channel": 1, "type": "channel", "subtype": "noteOff", "noteNumber": 52, "velocity": 0  },
      { "deltaTime": 0, "channel": 1, "type": "channel", "subtype": "noteOff", "noteNumber": 52, "velocity": 0  },
      { "deltaTime": 0, "channel": 1, "type": "channel", "subtype": "noteOff", "noteNumber": 52, "velocity": 0  },
      { "deltaTime": 0, "channel": 1, "type": "channel", "subtype": "noteOff", "noteNumber": 52, "velocity": 0  },
      { "deltaTime": 0, "channel": 1, "type": "channel", "subtype": "noteOff", "noteNumber": 52, "velocity": 0  },
      { "deltaTime": 1, "channel": 1, "type": "channel", "noteNumber": 58, "velocity": 64, "subtype": "noteOn"  },
      { "deltaTime": 0, "channel": 1, "type": "channel", "noteNumber": 58, "velocity": 64, "subtype": "noteOn"  },
      { "deltaTime": 0, "channel": 1, "type": "channel", "noteNumber": 58, "velocity": 64, "subtype": "noteOn"  },
      { "deltaTime": 0, "channel": 1, "type": "channel", "noteNumber": 58, "velocity": 64, "subtype": "noteOn"  },
      { "deltaTime": 0, "channel": 1, "type": "channel", "noteNumber": 58, "velocity": 64, "subtype": "noteOn"  },
      { "deltaTime": 0, "channel": 1, "type": "channel", "noteNumber": 58, "velocity": 64, "subtype": "noteOn"  },
      { "deltaTime": 0, "channel": 1, "type": "channel", "noteNumber": 58, "velocity": 64, "subtype": "noteOn"  },
      { "deltaTime": 0, "channel": 1, "type": "channel", "noteNumber": 58, "velocity": 64, "subtype": "noteOn"  },
      { "deltaTime": 239, "channel": 1, "type": "channel", "subtype": "noteOff", "noteNumber": 58, "velocity": 0  },
      { "deltaTime": 0, "channel": 1, "type": "channel", "subtype": "noteOff", "noteNumber": 58, "velocity": 0  },
      { "deltaTime": 0, "channel": 1, "type": "channel", "subtype": "noteOff", "noteNumber": 58, "velocity": 0  },
      { "deltaTime": 0, "channel": 1, "type": "channel", "subtype": "noteOff", "noteNumber": 58, "velocity": 0  },
      { "deltaTime": 0, "channel": 1, "type": "channel", "subtype": "noteOff", "noteNumber": 58, "velocity": 0  },
      { "deltaTime": 0, "channel": 1, "type": "channel", "subtype": "noteOff", "noteNumber": 58, "velocity": 0  },
      { "deltaTime": 0, "channel": 1, "type": "channel", "subtype": "noteOff", "noteNumber": 58, "velocity": 0  },
      { "deltaTime": 0, "channel": 1, "type": "channel", "subtype": "noteOff", "noteNumber": 58, "velocity": 0  },
      { "deltaTime": 1, "channel": 1, "type": "channel", "noteNumber": 58, "velocity": 64, "subtype": "noteOn"  },
      { "deltaTime": 0, "channel": 1, "type": "channel", "noteNumber": 58, "velocity": 64, "subtype": "noteOn"  },
      { "deltaTime": 0, "channel": 1, "type": "channel", "noteNumber": 58, "velocity": 64, "subtype": "noteOn"  },
      { "deltaTime": 0, "channel": 1, "type": "channel", "noteNumber": 58, "velocity": 64, "subtype": "noteOn"  },
      { "deltaTime": 0, "channel": 1, "type": "channel", "noteNumber": 58, "velocity": 64, "subtype": "noteOn"  },
      { "deltaTime": 0, "channel": 1, "type": "channel", "noteNumber": 58, "velocity": 64, "subtype": "noteOn"  },
      { "deltaTime": 0, "channel": 1, "type": "channel", "noteNumber": 58, "velocity": 64, "subtype": "noteOn"  },
      { "deltaTime": 0, "channel": 1, "type": "channel", "noteNumber": 58, "velocity": 64, "subtype": "noteOn"  },
      { "deltaTime": 239, "channel": 1, "type": "channel", "subtype": "noteOff", "noteNumber": 58, "velocity": 0  },
      { "deltaTime": 0, "channel": 1, "type": "channel", "subtype": "noteOff", "noteNumber": 58, "velocity": 0  },
      { "deltaTime": 0, "channel": 1, "type": "channel", "subtype": "noteOff", "noteNumber": 58, "velocity": 0  },
      { "deltaTime": 0, "channel": 1, "type": "channel", "subtype": "noteOff", "noteNumber": 58, "velocity": 0  },
      { "deltaTime": 0, "channel": 1, "type": "channel", "subtype": "noteOff", "noteNumber": 58, "velocity": 0  },
      { "deltaTime": 0, "channel": 1, "type": "channel", "subtype": "noteOff", "noteNumber": 58, "velocity": 0  },
      { "deltaTime": 0, "channel": 1, "type": "channel", "subtype": "noteOff", "noteNumber": 58, "velocity": 0  },
      { "deltaTime": 0, "channel": 1, "type": "channel", "subtype": "noteOff", "noteNumber": 58, "velocity": 0  },
      { "deltaTime": 1, "channel": 1, "type": "channel", "noteNumber": 52, "velocity": 64, "subtype": "noteOn"  },
      { "deltaTime": 0, "channel": 1, "type": "channel", "noteNumber": 52, "velocity": 64, "subtype": "noteOn"  },
      { "deltaTime": 0, "channel": 1, "type": "channel", "noteNumber": 52, "velocity": 64, "subtype": "noteOn"  },
      { "deltaTime": 0, "channel": 1, "type": "channel", "noteNumber": 52, "velocity": 64, "subtype": "noteOn"  },
      { "deltaTime": 0, "channel": 1, "type": "channel", "noteNumber": 52, "velocity": 64, "subtype": "noteOn"  },
      { "deltaTime": 0, "channel": 1, "type": "channel", "noteNumber": 52, "velocity": 64, "subtype": "noteOn"  },
      { "deltaTime": 0, "channel": 1, "type": "channel", "noteNumber": 52, "velocity": 64, "subtype": "noteOn"  },
      { "deltaTime": 0, "channel": 1, "type": "channel", "noteNumber": 52, "velocity": 64, "subtype": "noteOn"  },
      { "deltaTime": 239, "channel": 1, "type": "channel", "subtype": "noteOff", "noteNumber": 52, "velocity": 0  },
      { "deltaTime": 0, "channel": 1, "type": "channel", "subtype": "noteOff", "noteNumber": 52, "velocity": 0  },
      { "deltaTime": 0, "channel": 1, "type": "channel", "subtype": "noteOff", "noteNumber": 52, "velocity": 0  },
      { "deltaTime": 0, "channel": 1, "type": "channel", "subtype": "noteOff", "noteNumber": 52, "velocity": 0  },
      { "deltaTime": 0, "channel": 1, "type": "channel", "subtype": "noteOff", "noteNumber": 52, "velocity": 0  },
      { "deltaTime": 0, "channel": 1, "type": "channel", "subtype": "noteOff", "noteNumber": 52, "velocity": 0  },
      { "deltaTime": 0, "channel": 1, "type": "channel", "subtype": "noteOff", "noteNumber": 52, "velocity": 0  },
      { "deltaTime": 0, "channel": 1, "type": "channel", "subtype": "noteOff", "noteNumber": 52, "velocity": 0  },
      { "deltaTime": 1, "channel": 1, "type": "channel", "noteNumber": 59, "velocity": 64, "subtype": "noteOn"  },
      { "deltaTime": 0, "channel": 1, "type": "channel", "noteNumber": 59, "velocity": 64, "subtype": "noteOn"  },
      { "deltaTime": 0, "channel": 1, "type": "channel", "noteNumber": 59, "velocity": 64, "subtype": "noteOn"  },
      { "deltaTime": 0, "channel": 1, "type": "channel", "noteNumber": 59, "velocity": 64, "subtype": "noteOn"  },
      { "deltaTime": 0, "channel": 1, "type": "channel", "noteNumber": 59, "velocity": 64, "subtype": "noteOn"  },
      { "deltaTime": 0, "channel": 1, "type": "channel", "noteNumber": 59, "velocity": 64, "subtype": "noteOn"  },
      { "deltaTime": 0, "channel": 1, "type": "channel", "noteNumber": 59, "velocity": 64, "subtype": "noteOn"  },
      { "deltaTime": 0, "channel": 1, "type": "channel", "noteNumber": 59, "velocity": 64, "subtype": "noteOn"  },
      { "deltaTime": 239, "channel": 1, "type": "channel", "subtype": "noteOff", "noteNumber": 59, "velocity": 0  },
      { "deltaTime": 0, "channel": 1, "type": "channel", "subtype": "noteOff", "noteNumber": 59, "velocity": 0  },
      { "deltaTime": 0, "channel": 1, "type": "channel", "subtype": "noteOff", "noteNumber": 59, "velocity": 0  },
      { "deltaTime": 0, "channel": 1, "type": "channel", "subtype": "noteOff", "noteNumber": 59, "velocity": 0  },
      { "deltaTime": 0, "channel": 1, "type": "channel", "subtype": "noteOff", "noteNumber": 59, "velocity": 0  },
      { "deltaTime": 0, "channel": 1, "type": "channel", "subtype": "noteOff", "noteNumber": 59, "velocity": 0  },
      { "deltaTime": 0, "channel": 1, "type": "channel", "subtype": "noteOff", "noteNumber": 59, "velocity": 0  },
      { "deltaTime": 0, "channel": 1, "type": "channel", "subtype": "noteOff", "noteNumber": 59, "velocity": 0  },
      { "deltaTime": 1, "channel": 1, "type": "channel", "noteNumber": 59, "velocity": 64, "subtype": "noteOn"  },
      { "deltaTime": 0, "channel": 1, "type": "channel", "noteNumber": 59, "velocity": 64, "subtype": "noteOn"  },
      { "deltaTime": 0, "channel": 1, "type": "channel", "noteNumber": 59, "velocity": 64, "subtype": "noteOn"  },
      { "deltaTime": 0, "channel": 1, "type": "channel", "noteNumber": 59, "velocity": 64, "subtype": "noteOn"  },
      { "deltaTime": 0, "channel": 1, "type": "channel", "noteNumber": 59, "velocity": 64, "subtype": "noteOn"  },
      { "deltaTime": 0, "channel": 1, "type": "channel", "noteNumber": 59, "velocity": 64, "subtype": "noteOn"  },
      { "deltaTime": 0, "channel": 1, "type": "channel", "noteNumber": 59, "velocity": 64, "subtype": "noteOn"  },
      { "deltaTime": 0, "channel": 1, "type": "channel", "noteNumber": 59, "velocity": 64, "subtype": "noteOn"  },
      { "deltaTime": 239, "channel": 1, "type": "channel", "subtype": "noteOff", "noteNumber": 59, "velocity": 0  },
      { "deltaTime": 0, "channel": 1, "type": "channel", "subtype": "noteOff", "noteNumber": 59, "velocity": 0  },
      { "deltaTime": 0, "channel": 1, "type": "channel", "subtype": "noteOff", "noteNumber": 59, "velocity": 0  },
      { "deltaTime": 0, "channel": 1, "type": "channel", "subtype": "noteOff", "noteNumber": 59, "velocity": 0  },
      { "deltaTime": 0, "channel": 1, "type": "channel", "subtype": "noteOff", "noteNumber": 59, "velocity": 0  },
      { "deltaTime": 0, "channel": 1, "type": "channel", "subtype": "noteOff", "noteNumber": 59, "velocity": 0  },
      { "deltaTime": 0, "channel": 1, "type": "channel", "subtype": "noteOff", "noteNumber": 59, "velocity": 0  },
      { "deltaTime": 0, "channel": 1, "type": "channel", "subtype": "noteOff", "noteNumber": 59, "velocity": 0  },
      { "deltaTime": 1, "channel": 1, "type": "channel", "noteNumber": 52, "velocity": 64, "subtype": "noteOn"  },
      { "deltaTime": 0, "channel": 1, "type": "channel", "noteNumber": 52, "velocity": 64, "subtype": "noteOn"  },
      { "deltaTime": 0, "channel": 1, "type": "channel", "noteNumber": 52, "velocity": 64, "subtype": "noteOn"  },
      { "deltaTime": 0, "channel": 1, "type": "channel", "noteNumber": 52, "velocity": 64, "subtype": "noteOn"  },
      { "deltaTime": 0, "channel": 1, "type": "channel", "noteNumber": 52, "velocity": 64, "subtype": "noteOn"  },
      { "deltaTime": 0, "channel": 1, "type": "channel", "noteNumber": 52, "velocity": 64, "subtype": "noteOn"  },
      { "deltaTime": 0, "channel": 1, "type": "channel", "noteNumber": 52, "velocity": 64, "subtype": "noteOn"  },
      { "deltaTime": 0, "channel": 1, "type": "channel", "noteNumber": 52, "velocity": 64, "subtype": "noteOn"  },
      { "deltaTime": 239, "channel": 1, "type": "channel", "subtype": "noteOff", "noteNumber": 52, "velocity": 0  },
      { "deltaTime": 0, "channel": 1, "type": "channel", "subtype": "noteOff", "noteNumber": 52, "velocity": 0  },
      { "deltaTime": 0, "channel": 1, "type": "channel", "subtype": "noteOff", "noteNumber": 52, "velocity": 0  },
      { "deltaTime": 0, "channel": 1, "type": "channel", "subtype": "noteOff", "noteNumber": 52, "velocity": 0  },
      { "deltaTime": 0, "channel": 1, "type": "channel", "subtype": "noteOff", "noteNumber": 52, "velocity": 0  },
      { "deltaTime": 0, "channel": 1, "type": "channel", "subtype": "noteOff", "noteNumber": 52, "velocity": 0  },
      { "deltaTime": 0, "channel": 1, "type": "channel", "subtype": "noteOff", "noteNumber": 52, "velocity": 0  },
      { "deltaTime": 0, "channel": 1, "type": "channel", "subtype": "noteOff", "noteNumber": 52, "velocity": 0  },
      { "deltaTime": 1, "channel": 1, "type": "channel", "noteNumber": 58, "velocity": 64, "subtype": "noteOn"  },
      { "deltaTime": 0, "channel": 1, "type": "channel", "noteNumber": 58, "velocity": 64, "subtype": "noteOn"  },
      { "deltaTime": 0, "channel": 1, "type": "channel", "noteNumber": 58, "velocity": 64, "subtype": "noteOn"  },
      { "deltaTime": 0, "channel": 1, "type": "channel", "noteNumber": 58, "velocity": 64, "subtype": "noteOn"  },
      { "deltaTime": 0, "channel": 1, "type": "channel", "noteNumber": 58, "velocity": 64, "subtype": "noteOn"  },
      { "deltaTime": 0, "channel": 1, "type": "channel", "noteNumber": 58, "velocity": 64, "subtype": "noteOn"  },
      { "deltaTime": 0, "channel": 1, "type": "channel", "noteNumber": 58, "velocity": 64, "subtype": "noteOn"  },
      { "deltaTime": 0, "channel": 1, "type": "channel", "noteNumber": 58, "velocity": 64, "subtype": "noteOn"  },
      { "deltaTime": 239, "channel": 1, "type": "channel", "subtype": "noteOff", "noteNumber": 58, "velocity": 0  },
      { "deltaTime": 0, "channel": 1, "type": "channel", "subtype": "noteOff", "noteNumber": 58, "velocity": 0  },
      { "deltaTime": 0, "channel": 1, "type": "channel", "subtype": "noteOff", "noteNumber": 58, "velocity": 0  },
      { "deltaTime": 0, "channel": 1, "type": "channel", "subtype": "noteOff", "noteNumber": 58, "velocity": 0  },
      { "deltaTime": 0, "channel": 1, "type": "channel", "subtype": "noteOff", "noteNumber": 58, "velocity": 0  },
      { "deltaTime": 0, "channel": 1, "type": "channel", "subtype": "noteOff", "noteNumber": 58, "velocity": 0  },
      { "deltaTime": 0, "channel": 1, "type": "channel", "subtype": "noteOff", "noteNumber": 58, "velocity": 0  },
      { "deltaTime": 0, "channel": 1, "type": "channel", "subtype": "noteOff", "noteNumber": 58, "velocity": 0  },
      { "deltaTime": 1, "channel": 1, "type": "channel", "noteNumber": 52, "velocity": 64, "subtype": "noteOn"  },
      { "deltaTime": 0, "channel": 1, "type": "channel", "noteNumber": 52, "velocity": 64, "subtype": "noteOn"  },
      { "deltaTime": 239, "channel": 1, "type": "channel", "subtype": "noteOff", "noteNumber": 52, "velocity": 0  },
      { "deltaTime": 0, "channel": 1, "type": "channel", "subtype": "noteOff", "noteNumber": 52, "velocity": 0  },
      { "deltaTime": 1, "channel": 1, "type": "channel", "noteNumber": 52, "velocity": 64, "subtype": "noteOn"  },
      { "deltaTime": 0, "channel": 1, "type": "channel", "noteNumber": 52, "velocity": 64, "subtype": "noteOn"  },
      { "deltaTime": 239, "channel": 1, "type": "channel", "subtype": "noteOff", "noteNumber": 52, "velocity": 0  },
      { "deltaTime": 0, "channel": 1, "type": "channel", "subtype": "noteOff", "noteNumber": 52, "velocity": 0  },
      { "deltaTime": 1, "channel": 1, "type": "channel", "noteNumber": 59, "velocity": 64, "subtype": "noteOn"  },
      { "deltaTime": 0, "channel": 1, "type": "channel", "noteNumber": 59, "velocity": 64, "subtype": "noteOn"  },
      { "deltaTime": 239, "channel": 1, "type": "channel", "subtype": "noteOff", "noteNumber": 59, "velocity": 0  },
      { "deltaTime": 0, "channel": 1, "type": "channel", "subtype": "noteOff", "noteNumber": 59, "velocity": 0  },
      { "deltaTime": 1, "channel": 1, "type": "channel", "noteNumber": 59, "velocity": 64, "subtype": "noteOn"  },
      { "deltaTime": 0, "channel": 1, "type": "channel", "noteNumber": 59, "velocity": 64, "subtype": "noteOn"  },
      { "deltaTime": 239, "channel": 1, "type": "channel", "subtype": "noteOff", "noteNumber": 59, "velocity": 0  },
      { "deltaTime": 0, "channel": 1, "type": "channel", "subtype": "noteOff", "noteNumber": 59, "velocity": 0  },
      { "deltaTime": 1, "channel": 1, "type": "channel", "noteNumber": 52, "velocity": 64, "subtype": "noteOn"  },
      { "deltaTime": 0, "channel": 1, "type": "channel", "noteNumber": 52, "velocity": 64, "subtype": "noteOn"  },
      { "deltaTime": 239, "channel": 1, "type": "channel", "subtype": "noteOff", "noteNumber": 52, "velocity": 0  },
      { "deltaTime": 0, "channel": 1, "type": "channel", "subtype": "noteOff", "noteNumber": 52, "velocity": 0  },
      { "deltaTime": 1, "channel": 1, "type": "channel", "noteNumber": 58, "velocity": 64, "subtype": "noteOn"  },
      { "deltaTime": 0, "channel": 1, "type": "channel", "noteNumber": 58, "velocity": 64, "subtype": "noteOn"  },
      { "deltaTime": 239, "channel": 1, "type": "channel", "subtype": "noteOff", "noteNumber": 58, "velocity": 0  },
      { "deltaTime": 0, "channel": 1, "type": "channel", "subtype": "noteOff", "noteNumber": 58, "velocity": 0  },
      { "deltaTime": 1, "channel": 1, "type": "channel", "noteNumber": 58, "velocity": 64, "subtype": "noteOn"  },
      { "deltaTime": 0, "channel": 1, "type": "channel", "noteNumber": 58, "velocity": 64, "subtype": "noteOn"  },
      { "deltaTime": 239, "channel": 1, "type": "channel", "subtype": "noteOff", "noteNumber": 58, "velocity": 0  },
      { "deltaTime": 0, "channel": 1, "type": "channel", "subtype": "noteOff", "noteNumber": 58, "velocity": 0  },
      { "deltaTime": 1, "channel": 1, "type": "channel", "noteNumber": 52, "velocity": 64, "subtype": "noteOn"  },
      { "deltaTime": 0, "channel": 1, "type": "channel", "noteNumber": 52, "velocity": 64, "subtype": "noteOn"  },
      { "deltaTime": 239, "channel": 1, "type": "channel", "subtype": "noteOff", "noteNumber": 52, "velocity": 0  },
      { "deltaTime": 0, "channel": 1, "type": "channel", "subtype": "noteOff", "noteNumber": 52, "velocity": 0  },
      { "deltaTime": 1, "channel": 1, "type": "channel", "noteNumber": 59, "velocity": 64, "subtype": "noteOn"  },
      { "deltaTime": 0, "channel": 1, "type": "channel", "noteNumber": 59, "velocity": 64, "subtype": "noteOn"  },
      { "deltaTime": 239, "channel": 1, "type": "channel", "subtype": "noteOff", "noteNumber": 59, "velocity": 0  },
      { "deltaTime": 0, "channel": 1, "type": "channel", "subtype": "noteOff", "noteNumber": 59, "velocity": 0  },
      { "deltaTime": 1, "channel": 1, "type": "channel", "noteNumber": 59, "velocity": 64, "subtype": "noteOn"  },
      { "deltaTime": 0, "channel": 1, "type": "channel", "noteNumber": 59, "velocity": 64, "subtype": "noteOn"  },
      { "deltaTime": 239, "channel": 1, "type": "channel", "subtype": "noteOff", "noteNumber": 59, "velocity": 0  },
      { "deltaTime": 0, "channel": 1, "type": "channel", "subtype": "noteOff", "noteNumber": 59, "velocity": 0  },
      { "deltaTime": 1, "channel": 1, "type": "channel", "noteNumber": 52, "velocity": 64, "subtype": "noteOn"  },
      { "deltaTime": 0, "channel": 1, "type": "channel", "noteNumber": 52, "velocity": 64, "subtype": "noteOn"  },
      { "deltaTime": 239, "channel": 1, "type": "channel", "subtype": "noteOff", "noteNumber": 52, "velocity": 0  },
      { "deltaTime": 0, "channel": 1, "type": "channel", "subtype": "noteOff", "noteNumber": 52, "velocity": 0  },
      { "deltaTime": 1, "channel": 1, "type": "channel", "noteNumber": 58, "velocity": 64, "subtype": "noteOn"  },
      { "deltaTime": 0, "channel": 1, "type": "channel", "noteNumber": 58, "velocity": 64, "subtype": "noteOn"  },
      { "deltaTime": 239, "channel": 1, "type": "channel", "subtype": "noteOff", "noteNumber": 58, "velocity": 0  },
      { "deltaTime": 0, "channel": 1, "type": "channel", "subtype": "noteOff", "noteNumber": 58, "velocity": 0  },
      { "deltaTime": 1, "channel": 1, "type": "channel", "noteNumber": 58, "velocity": 64, "subtype": "noteOn"  },
      { "deltaTime": 0, "channel": 1, "type": "channel", "noteNumber": 58, "velocity": 64, "subtype": "noteOn"  },
      { "deltaTime": 239, "channel": 1, "type": "channel", "subtype": "noteOff", "noteNumber": 58, "velocity": 0  },
      { "deltaTime": 0, "channel": 1, "type": "channel", "subtype": "noteOff", "noteNumber": 58, "velocity": 0  },
      { "deltaTime": 1, "channel": 1, "type": "channel", "noteNumber": 52, "velocity": 64, "subtype": "noteOn"  },
      { "deltaTime": 0, "channel": 1, "type": "channel", "noteNumber": 52, "velocity": 64, "subtype": "noteOn"  },
      { "deltaTime": 239, "channel": 1, "type": "channel", "subtype": "noteOff", "noteNumber": 52, "velocity": 0  },
      { "deltaTime": 0, "channel": 1, "type": "channel", "subtype": "noteOff", "noteNumber": 52, "velocity": 0  },
      { "deltaTime": 1, "channel": 1, "type": "channel", "noteNumber": 59, "velocity": 64, "subtype": "noteOn"  },
      { "deltaTime": 0, "channel": 1, "type": "channel", "noteNumber": 59, "velocity": 64, "subtype": "noteOn"  },
      { "deltaTime": 239, "channel": 1, "type": "channel", "subtype": "noteOff", "noteNumber": 59, "velocity": 0  },
      { "deltaTime": 0, "channel": 1, "type": "channel", "subtype": "noteOff", "noteNumber": 59, "velocity": 0  },
      { "deltaTime": 1, "channel": 1, "type": "channel", "noteNumber": 52, "velocity": 64, "subtype": "noteOn"  },
      { "deltaTime": 0, "channel": 1, "type": "channel", "noteNumber": 52, "velocity": 64, "subtype": "noteOn"  },
      { "deltaTime": 239, "channel": 1, "type": "channel", "subtype": "noteOff", "noteNumber": 52, "velocity": 0  },
      { "deltaTime": 0, "channel": 1, "type": "channel", "subtype": "noteOff", "noteNumber": 52, "velocity": 0  },
      { "deltaTime": 1, "channel": 1, "type": "channel", "noteNumber": 60, "velocity": 64, "subtype": "noteOn"  },
      { "deltaTime": 0, "channel": 1, "type": "channel", "noteNumber": 60, "velocity": 64, "subtype": "noteOn"  },
      { "deltaTime": 239, "channel": 1, "type": "channel", "subtype": "noteOff", "noteNumber": 60, "velocity": 0  },
      { "deltaTime": 0, "channel": 1, "type": "channel", "subtype": "noteOff", "noteNumber": 60, "velocity": 0  },
      { "deltaTime": 1, "channel": 1, "type": "channel", "noteNumber": 52, "velocity": 64, "subtype": "noteOn"  },
      { "deltaTime": 0, "channel": 1, "type": "channel", "noteNumber": 52, "velocity": 64, "subtype": "noteOn"  },
      { "deltaTime": 239, "channel": 1, "type": "channel", "subtype": "noteOff", "noteNumber": 52, "velocity": 0  },
      { "deltaTime": 0, "channel": 1, "type": "channel", "subtype": "noteOff", "noteNumber": 52, "velocity": 0  },
      { "deltaTime": 1, "channel": 1, "type": "channel", "noteNumber": 59, "velocity": 64, "subtype": "noteOn"  },
      { "deltaTime": 0, "channel": 1, "type": "channel", "noteNumber": 59, "velocity": 64, "subtype": "noteOn"  },
      { "deltaTime": 239, "channel": 1, "type": "channel", "subtype": "noteOff", "noteNumber": 59, "velocity": 0  },
      { "deltaTime": 0, "channel": 1, "type": "channel", "subtype": "noteOff", "noteNumber": 59, "velocity": 0  },
      { "deltaTime": 1, "channel": 1, "type": "channel", "noteNumber": 59, "velocity": 64, "subtype": "noteOn"  },
      { "deltaTime": 0, "channel": 1, "type": "channel", "noteNumber": 59, "velocity": 64, "subtype": "noteOn"  },
      { "deltaTime": 239, "channel": 1, "type": "channel", "subtype": "noteOff", "noteNumber": 59, "velocity": 0  },
      { "deltaTime": 0, "channel": 1, "type": "channel", "subtype": "noteOff", "noteNumber": 59, "velocity": 0  },
      { "deltaTime": 1, "channel": 1, "type": "channel", "noteNumber": 52, "velocity": 64, "subtype": "noteOn"  },
      { "deltaTime": 0, "channel": 1, "type": "channel", "noteNumber": 52, "velocity": 64, "subtype": "noteOn"  },
      { "deltaTime": 239, "channel": 1, "type": "channel", "subtype": "noteOff", "noteNumber": 52, "velocity": 0  },
      { "deltaTime": 0, "channel": 1, "type": "channel", "subtype": "noteOff", "noteNumber": 52, "velocity": 0  },
      { "deltaTime": 1, "channel": 1, "type": "channel", "noteNumber": 58, "velocity": 64, "subtype": "noteOn"  },
      { "deltaTime": 0, "channel": 1, "type": "channel", "noteNumber": 58, "velocity": 64, "subtype": "noteOn"  },
      { "deltaTime": 239, "channel": 1, "type": "channel", "subtype": "noteOff", "noteNumber": 58, "velocity": 0  },
      { "deltaTime": 0, "channel": 1, "type": "channel", "subtype": "noteOff", "noteNumber": 58, "velocity": 0  },
      { "deltaTime": 1, "channel": 1, "type": "channel", "noteNumber": 58, "velocity": 64, "subtype": "noteOn"  },
      { "deltaTime": 0, "channel": 1, "type": "channel", "noteNumber": 58, "velocity": 64, "subtype": "noteOn"  },
      { "deltaTime": 239, "channel": 1, "type": "channel", "subtype": "noteOff", "noteNumber": 58, "velocity": 0  },
      { "deltaTime": 0, "channel": 1, "type": "channel", "subtype": "noteOff", "noteNumber": 58, "velocity": 0  },
      { "deltaTime": 1, "channel": 1, "type": "channel", "noteNumber": 52, "velocity": 64, "subtype": "noteOn"  },
      { "deltaTime": 0, "channel": 1, "type": "channel", "noteNumber": 52, "velocity": 64, "subtype": "noteOn"  },
      { "deltaTime": 239, "channel": 1, "type": "channel", "subtype": "noteOff", "noteNumber": 52, "velocity": 0  },
      { "deltaTime": 0, "channel": 1, "type": "channel", "subtype": "noteOff", "noteNumber": 52, "velocity": 0  },
      { "deltaTime": 1, "channel": 1, "type": "channel", "noteNumber": 59, "velocity": 64, "subtype": "noteOn"  },
      { "deltaTime": 0, "channel": 1, "type": "channel", "noteNumber": 59, "velocity": 64, "subtype": "noteOn"  },
      { "deltaTime": 239, "channel": 1, "type": "channel", "subtype": "noteOff", "noteNumber": 59, "velocity": 0  },
      { "deltaTime": 0, "channel": 1, "type": "channel", "subtype": "noteOff", "noteNumber": 59, "velocity": 0  },
      { "deltaTime": 1, "channel": 1, "type": "channel", "noteNumber": 59, "velocity": 64, "subtype": "noteOn"  },
      { "deltaTime": 0, "channel": 1, "type": "channel", "noteNumber": 59, "velocity": 64, "subtype": "noteOn"  },
      { "deltaTime": 239, "channel": 1, "type": "channel", "subtype": "noteOff", "noteNumber": 59, "velocity": 0  },
      { "deltaTime": 0, "channel": 1, "type": "channel", "subtype": "noteOff", "noteNumber": 59, "velocity": 0  },
      { "deltaTime": 1, "channel": 1, "type": "channel", "noteNumber": 52, "velocity": 64, "subtype": "noteOn"  },
      { "deltaTime": 0, "channel": 1, "type": "channel", "noteNumber": 52, "velocity": 64, "subtype": "noteOn"  },
      { "deltaTime": 239, "channel": 1, "type": "channel", "subtype": "noteOff", "noteNumber": 52, "velocity": 0  },
      { "deltaTime": 0, "channel": 1, "type": "channel", "subtype": "noteOff", "noteNumber": 52, "velocity": 0  },
      { "deltaTime": 1, "channel": 1, "type": "channel", "noteNumber": 58, "velocity": 64, "subtype": "noteOn"  },
      { "deltaTime": 0, "channel": 1, "type": "channel", "noteNumber": 58, "velocity": 64, "subtype": "noteOn"  },
      { "deltaTime": 239, "channel": 1, "type": "channel", "subtype": "noteOff", "noteNumber": 58, "velocity": 0  },
      { "deltaTime": 0, "channel": 1, "type": "channel", "subtype": "noteOff", "noteNumber": 58, "velocity": 0  },
      { "deltaTime": 1, "channel": 1, "type": "channel", "noteNumber": 52, "velocity": 64, "subtype": "noteOn"  },
      { "deltaTime": 0, "channel": 1, "type": "channel", "noteNumber": 52, "velocity": 64, "subtype": "noteOn"  },
      { "deltaTime": 239, "channel": 1, "type": "channel", "subtype": "noteOff", "noteNumber": 52, "velocity": 0  },
      { "deltaTime": 0, "channel": 1, "type": "channel", "subtype": "noteOff", "noteNumber": 52, "velocity": 0  },
      { "deltaTime": 1, "channel": 1, "type": "channel", "noteNumber": 52, "velocity": 64, "subtype": "noteOn"  },
      { "deltaTime": 239, "channel": 1, "type": "channel", "subtype": "noteOff", "noteNumber": 52, "velocity": 0  },
      { "deltaTime": 1, "channel": 1, "type": "channel", "noteNumber": 59, "velocity": 64, "subtype": "noteOn"  },
      { "deltaTime": 0, "channel": 1, "type": "channel", "noteNumber": 59, "velocity": 64, "subtype": "noteOn"  },
      { "deltaTime": 239, "channel": 1, "type": "channel", "subtype": "noteOff", "noteNumber": 59, "velocity": 0  },
      { "deltaTime": 0, "channel": 1, "type": "channel", "subtype": "noteOff", "noteNumber": 59, "velocity": 0  },
      { "deltaTime": 1, "channel": 1, "type": "channel", "noteNumber": 59, "velocity": 64, "subtype": "noteOn"  },
      { "deltaTime": 0, "channel": 1, "type": "channel", "noteNumber": 59, "velocity": 64, "subtype": "noteOn"  },
      { "deltaTime": 239, "channel": 1, "type": "channel", "subtype": "noteOff", "noteNumber": 59, "velocity": 0  },
      { "deltaTime": 0, "channel": 1, "type": "channel", "subtype": "noteOff", "noteNumber": 59, "velocity": 0  },
      { "deltaTime": 1, "channel": 1, "type": "channel", "noteNumber": 52, "velocity": 64, "subtype": "noteOn"  },
      { "deltaTime": 0, "channel": 1, "type": "channel", "noteNumber": 52, "velocity": 64, "subtype": "noteOn"  },
      { "deltaTime": 239, "channel": 1, "type": "channel", "subtype": "noteOff", "noteNumber": 52, "velocity": 0  },
      { "deltaTime": 0, "channel": 1, "type": "channel", "subtype": "noteOff", "noteNumber": 52, "velocity": 0  },
      { "deltaTime": 1, "channel": 1, "type": "channel", "noteNumber": 58, "velocity": 64, "subtype": "noteOn"  },
      { "deltaTime": 0, "channel": 1, "type": "channel", "noteNumber": 58, "velocity": 64, "subtype": "noteOn"  },
      { "deltaTime": 239, "channel": 1, "type": "channel", "subtype": "noteOff", "noteNumber": 58, "velocity": 0  },
      { "deltaTime": 0, "channel": 1, "type": "channel", "subtype": "noteOff", "noteNumber": 58, "velocity": 0  },
      { "deltaTime": 1, "channel": 1, "type": "channel", "noteNumber": 58, "velocity": 64, "subtype": "noteOn"  },
      { "deltaTime": 0, "channel": 1, "type": "channel", "noteNumber": 58, "velocity": 64, "subtype": "noteOn"  },
      { "deltaTime": 239, "channel": 1, "type": "channel", "subtype": "noteOff", "noteNumber": 58, "velocity": 0  },
      { "deltaTime": 0, "channel": 1, "type": "channel", "subtype": "noteOff", "noteNumber": 58, "velocity": 0  },
      { "deltaTime": 1, "channel": 1, "type": "channel", "noteNumber": 52, "velocity": 64, "subtype": "noteOn"  },
      { "deltaTime": 0, "channel": 1, "type": "channel", "noteNumber": 52, "velocity": 64, "subtype": "noteOn"  },
      { "deltaTime": 239, "channel": 1, "type": "channel", "subtype": "noteOff", "noteNumber": 52, "velocity": 0  },
      { "deltaTime": 0, "channel": 1, "type": "channel", "subtype": "noteOff", "noteNumber": 52, "velocity": 0  },
      { "deltaTime": 1, "channel": 1, "type": "channel", "noteNumber": 59, "velocity": 64, "subtype": "noteOn"  },
      { "deltaTime": 0, "channel": 1, "type": "channel", "noteNumber": 59, "velocity": 64, "subtype": "noteOn"  },
      { "deltaTime": 239, "channel": 1, "type": "channel", "subtype": "noteOff", "noteNumber": 59, "velocity": 0  },
      { "deltaTime": 0, "channel": 1, "type": "channel", "subtype": "noteOff", "noteNumber": 59, "velocity": 0  },
      { "deltaTime": 1, "channel": 1, "type": "channel", "noteNumber": 59, "velocity": 64, "subtype": "noteOn"  },
      { "deltaTime": 0, "channel": 1, "type": "channel", "noteNumber": 59, "velocity": 64, "subtype": "noteOn"  },
      { "deltaTime": 239, "channel": 1, "type": "channel", "subtype": "noteOff", "noteNumber": 59, "velocity": 0  },
      { "deltaTime": 0, "channel": 1, "type": "channel", "subtype": "noteOff", "noteNumber": 59, "velocity": 0  },
      { "deltaTime": 1, "channel": 1, "type": "channel", "noteNumber": 52, "velocity": 64, "subtype": "noteOn"  },
      { "deltaTime": 0, "channel": 1, "type": "channel", "noteNumber": 52, "velocity": 64, "subtype": "noteOn"  },
      { "deltaTime": 239, "channel": 1, "type": "channel", "subtype": "noteOff", "noteNumber": 52, "velocity": 0  },
      { "deltaTime": 0, "channel": 1, "type": "channel", "subtype": "noteOff", "noteNumber": 52, "velocity": 0  },
      { "deltaTime": 1, "channel": 1, "type": "channel", "noteNumber": 58, "velocity": 64, "subtype": "noteOn"  },
      { "deltaTime": 0, "channel": 1, "type": "channel", "noteNumber": 58, "velocity": 64, "subtype": "noteOn"  },
      { "deltaTime": 239, "channel": 1, "type": "channel", "subtype": "noteOff", "noteNumber": 58, "velocity": 0  },
      { "deltaTime": 0, "channel": 1, "type": "channel", "subtype": "noteOff", "noteNumber": 58, "velocity": 0  },
      { "deltaTime": 1, "channel": 1, "type": "channel", "noteNumber": 58, "velocity": 64, "subtype": "noteOn"  },
      { "deltaTime": 0, "channel": 1, "type": "channel", "noteNumber": 58, "velocity": 64, "subtype": "noteOn"  },
      { "deltaTime": 239, "channel": 1, "type": "channel", "subtype": "noteOff", "noteNumber": 58, "velocity": 0  },
      { "deltaTime": 0, "channel": 1, "type": "channel", "subtype": "noteOff", "noteNumber": 58, "velocity": 0  },
      { "deltaTime": 1, "channel": 1, "type": "channel", "noteNumber": 52, "velocity": 64, "subtype": "noteOn"  },
      { "deltaTime": 0, "channel": 1, "type": "channel", "noteNumber": 52, "velocity": 64, "subtype": "noteOn"  },
      { "deltaTime": 239, "channel": 1, "type": "channel", "subtype": "noteOff", "noteNumber": 52, "velocity": 0  },
      { "deltaTime": 0, "channel": 1, "type": "channel", "subtype": "noteOff", "noteNumber": 52, "velocity": 0  },
      { "deltaTime": 1, "channel": 1, "type": "channel", "noteNumber": 59, "velocity": 64, "subtype": "noteOn"  },
      { "deltaTime": 0, "channel": 1, "type": "channel", "noteNumber": 59, "velocity": 64, "subtype": "noteOn"  },
      { "deltaTime": 239, "channel": 1, "type": "channel", "subtype": "noteOff", "noteNumber": 59, "velocity": 0  },
      { "deltaTime": 0, "channel": 1, "type": "channel", "subtype": "noteOff", "noteNumber": 59, "velocity": 0  },
      { "deltaTime": 1, "channel": 1, "type": "channel", "noteNumber": 52, "velocity": 64, "subtype": "noteOn"  },
      { "deltaTime": 0, "channel": 1, "type": "channel", "noteNumber": 52, "velocity": 64, "subtype": "noteOn"  },
      { "deltaTime": 239, "channel": 1, "type": "channel", "subtype": "noteOff", "noteNumber": 52, "velocity": 0  },
      { "deltaTime": 0, "channel": 1, "type": "channel", "subtype": "noteOff", "noteNumber": 52, "velocity": 0  },
      { "deltaTime": 1, "channel": 1, "type": "channel", "noteNumber": 60, "velocity": 64, "subtype": "noteOn"  },
      { "deltaTime": 0, "channel": 1, "type": "channel", "noteNumber": 60, "velocity": 64, "subtype": "noteOn"  },
      { "deltaTime": 239, "channel": 1, "type": "channel", "subtype": "noteOff", "noteNumber": 60, "velocity": 0  },
      { "deltaTime": 0, "channel": 1, "type": "channel", "subtype": "noteOff", "noteNumber": 60, "velocity": 0  },
      { "deltaTime": 1, "channel": 1, "type": "channel", "noteNumber": 52, "velocity": 64, "subtype": "noteOn"  },
      { "deltaTime": 0, "channel": 1, "type": "channel", "noteNumber": 52, "velocity": 64, "subtype": "noteOn"  },
      { "deltaTime": 239, "channel": 1, "type": "channel", "subtype": "noteOff", "noteNumber": 52, "velocity": 0  },
      { "deltaTime": 0, "channel": 1, "type": "channel", "subtype": "noteOff", "noteNumber": 52, "velocity": 0  },
      { "deltaTime": 1, "channel": 1, "type": "channel", "noteNumber": 59, "velocity": 64, "subtype": "noteOn"  },
      { "deltaTime": 0, "channel": 1, "type": "channel", "noteNumber": 59, "velocity": 64, "subtype": "noteOn"  },
      { "deltaTime": 0, "channel": 1, "type": "channel", "noteNumber": 59, "velocity": 64, "subtype": "noteOn"  },
      { "deltaTime": 0, "channel": 1, "type": "channel", "noteNumber": 59, "velocity": 64, "subtype": "noteOn"  },
      { "deltaTime": 0, "channel": 1, "type": "channel", "noteNumber": 59, "velocity": 64, "subtype": "noteOn"  },
      { "deltaTime": 0, "channel": 1, "type": "channel", "noteNumber": 59, "velocity": 64, "subtype": "noteOn"  },
      { "deltaTime": 0, "channel": 1, "type": "channel", "noteNumber": 59, "velocity": 64, "subtype": "noteOn"  },
      { "deltaTime": 0, "channel": 1, "type": "channel", "noteNumber": 59, "velocity": 64, "subtype": "noteOn"  },
      { "deltaTime": 239, "channel": 1, "type": "channel", "subtype": "noteOff", "noteNumber": 59, "velocity": 0  },
      { "deltaTime": 0, "channel": 1, "type": "channel", "subtype": "noteOff", "noteNumber": 59, "velocity": 0  },
      { "deltaTime": 0, "channel": 1, "type": "channel", "subtype": "noteOff", "noteNumber": 59, "velocity": 0  },
      { "deltaTime": 0, "channel": 1, "type": "channel", "subtype": "noteOff", "noteNumber": 59, "velocity": 0  },
      { "deltaTime": 0, "channel": 1, "type": "channel", "subtype": "noteOff", "noteNumber": 59, "velocity": 0  },
      { "deltaTime": 0, "channel": 1, "type": "channel", "subtype": "noteOff", "noteNumber": 59, "velocity": 0  },
      { "deltaTime": 0, "channel": 1, "type": "channel", "subtype": "noteOff", "noteNumber": 59, "velocity": 0  },
      { "deltaTime": 0, "channel": 1, "type": "channel", "subtype": "noteOff", "noteNumber": 59, "velocity": 0  },
      { "deltaTime": 1, "channel": 1, "type": "channel", "noteNumber": 59, "velocity": 64, "subtype": "noteOn"  },
      { "deltaTime": 0, "channel": 1, "type": "channel", "noteNumber": 59, "velocity": 64, "subtype": "noteOn"  },
      { "deltaTime": 0, "channel": 1, "type": "channel", "noteNumber": 59, "velocity": 64, "subtype": "noteOn"  },
      { "deltaTime": 0, "channel": 1, "type": "channel", "noteNumber": 59, "velocity": 64, "subtype": "noteOn"  },
      { "deltaTime": 0, "channel": 1, "type": "channel", "noteNumber": 59, "velocity": 64, "subtype": "noteOn"  },
      { "deltaTime": 0, "channel": 1, "type": "channel", "noteNumber": 59, "velocity": 64, "subtype": "noteOn"  },
      { "deltaTime": 0, "channel": 1, "type": "channel", "noteNumber": 59, "velocity": 64, "subtype": "noteOn"  },
      { "deltaTime": 0, "channel": 1, "type": "channel", "noteNumber": 59, "velocity": 64, "subtype": "noteOn"  },
      { "deltaTime": 239, "channel": 1, "type": "channel", "subtype": "noteOff", "noteNumber": 59, "velocity": 0  },
      { "deltaTime": 0, "channel": 1, "type": "channel", "subtype": "noteOff", "noteNumber": 59, "velocity": 0  },
      { "deltaTime": 0, "channel": 1, "type": "channel", "subtype": "noteOff", "noteNumber": 59, "velocity": 0  },
      { "deltaTime": 0, "channel": 1, "type": "channel", "subtype": "noteOff", "noteNumber": 59, "velocity": 0  },
      { "deltaTime": 0, "channel": 1, "type": "channel", "subtype": "noteOff", "noteNumber": 59, "velocity": 0  },
      { "deltaTime": 0, "channel": 1, "type": "channel", "subtype": "noteOff", "noteNumber": 59, "velocity": 0  },
      { "deltaTime": 0, "channel": 1, "type": "channel", "subtype": "noteOff", "noteNumber": 59, "velocity": 0  },
      { "deltaTime": 0, "channel": 1, "type": "channel", "subtype": "noteOff", "noteNumber": 59, "velocity": 0  },
      { "deltaTime": 1, "channel": 1, "type": "channel", "noteNumber": 52, "velocity": 64, "subtype": "noteOn"  },
      { "deltaTime": 0, "channel": 1, "type": "channel", "noteNumber": 52, "velocity": 64, "subtype": "noteOn"  },
      { "deltaTime": 0, "channel": 1, "type": "channel", "noteNumber": 52, "velocity": 64, "subtype": "noteOn"  },
      { "deltaTime": 0, "channel": 1, "type": "channel", "noteNumber": 52, "velocity": 64, "subtype": "noteOn"  },
      { "deltaTime": 0, "channel": 1, "type": "channel", "noteNumber": 52, "velocity": 64, "subtype": "noteOn"  },
      { "deltaTime": 0, "channel": 1, "type": "channel", "noteNumber": 52, "velocity": 64, "subtype": "noteOn"  },
      { "deltaTime": 0, "channel": 1, "type": "channel", "noteNumber": 52, "velocity": 64, "subtype": "noteOn"  },
      { "deltaTime": 0, "channel": 1, "type": "channel", "noteNumber": 52, "velocity": 64, "subtype": "noteOn"  },
      { "deltaTime": 239, "channel": 1, "type": "channel", "subtype": "noteOff", "noteNumber": 52, "velocity": 0  },
      { "deltaTime": 0, "channel": 1, "type": "channel", "subtype": "noteOff", "noteNumber": 52, "velocity": 0  },
      { "deltaTime": 0, "channel": 1, "type": "channel", "subtype": "noteOff", "noteNumber": 52, "velocity": 0  },
      { "deltaTime": 0, "channel": 1, "type": "channel", "subtype": "noteOff", "noteNumber": 52, "velocity": 0  },
      { "deltaTime": 0, "channel": 1, "type": "channel", "subtype": "noteOff", "noteNumber": 52, "velocity": 0  },
      { "deltaTime": 0, "channel": 1, "type": "channel", "subtype": "noteOff", "noteNumber": 52, "velocity": 0  },
      { "deltaTime": 0, "channel": 1, "type": "channel", "subtype": "noteOff", "noteNumber": 52, "velocity": 0  },
      { "deltaTime": 0, "channel": 1, "type": "channel", "subtype": "noteOff", "noteNumber": 52, "velocity": 0  },
      { "deltaTime": 1, "channel": 1, "type": "channel", "noteNumber": 58, "velocity": 64, "subtype": "noteOn"  },
      { "deltaTime": 0, "channel": 1, "type": "channel", "noteNumber": 58, "velocity": 64, "subtype": "noteOn"  },
      { "deltaTime": 0, "channel": 1, "type": "channel", "noteNumber": 58, "velocity": 64, "subtype": "noteOn"  },
      { "deltaTime": 0, "channel": 1, "type": "channel", "noteNumber": 58, "velocity": 64, "subtype": "noteOn"  },
      { "deltaTime": 0, "channel": 1, "type": "channel", "noteNumber": 58, "velocity": 64, "subtype": "noteOn"  },
      { "deltaTime": 0, "channel": 1, "type": "channel", "noteNumber": 58, "velocity": 64, "subtype": "noteOn"  },
      { "deltaTime": 0, "channel": 1, "type": "channel", "noteNumber": 58, "velocity": 64, "subtype": "noteOn"  },
      { "deltaTime": 0, "channel": 1, "type": "channel", "noteNumber": 58, "velocity": 64, "subtype": "noteOn"  },
      { "deltaTime": 239, "channel": 1, "type": "channel", "subtype": "noteOff", "noteNumber": 58, "velocity": 0  },
      { "deltaTime": 0, "channel": 1, "type": "channel", "subtype": "noteOff", "noteNumber": 58, "velocity": 0  },
      { "deltaTime": 0, "channel": 1, "type": "channel", "subtype": "noteOff", "noteNumber": 58, "velocity": 0  },
      { "deltaTime": 0, "channel": 1, "type": "channel", "subtype": "noteOff", "noteNumber": 58, "velocity": 0  },
      { "deltaTime": 0, "channel": 1, "type": "channel", "subtype": "noteOff", "noteNumber": 58, "velocity": 0  },
      { "deltaTime": 0, "channel": 1, "type": "channel", "subtype": "noteOff", "noteNumber": 58, "velocity": 0  },
      { "deltaTime": 0, "channel": 1, "type": "channel", "subtype": "noteOff", "noteNumber": 58, "velocity": 0  },
      { "deltaTime": 0, "channel": 1, "type": "channel", "subtype": "noteOff", "noteNumber": 58, "velocity": 0  },
      { "deltaTime": 1, "channel": 1, "type": "channel", "noteNumber": 58, "velocity": 64, "subtype": "noteOn"  },
      { "deltaTime": 0, "channel": 1, "type": "channel", "noteNumber": 58, "velocity": 64, "subtype": "noteOn"  },
      { "deltaTime": 0, "channel": 1, "type": "channel", "noteNumber": 58, "velocity": 64, "subtype": "noteOn"  },
      { "deltaTime": 0, "channel": 1, "type": "channel", "noteNumber": 58, "velocity": 64, "subtype": "noteOn"  },
      { "deltaTime": 0, "channel": 1, "type": "channel", "noteNumber": 58, "velocity": 64, "subtype": "noteOn"  },
      { "deltaTime": 0, "channel": 1, "type": "channel", "noteNumber": 58, "velocity": 64, "subtype": "noteOn"  },
      { "deltaTime": 0, "channel": 1, "type": "channel", "noteNumber": 58, "velocity": 64, "subtype": "noteOn"  },
      { "deltaTime": 0, "channel": 1, "type": "channel", "noteNumber": 58, "velocity": 64, "subtype": "noteOn"  },
      { "deltaTime": 239, "channel": 1, "type": "channel", "subtype": "noteOff", "noteNumber": 58, "velocity": 0  },
      { "deltaTime": 0, "channel": 1, "type": "channel", "subtype": "noteOff", "noteNumber": 58, "velocity": 0  },
      { "deltaTime": 0, "channel": 1, "type": "channel", "subtype": "noteOff", "noteNumber": 58, "velocity": 0  },
      { "deltaTime": 0, "channel": 1, "type": "channel", "subtype": "noteOff", "noteNumber": 58, "velocity": 0  },
      { "deltaTime": 0, "channel": 1, "type": "channel", "subtype": "noteOff", "noteNumber": 58, "velocity": 0  },
      { "deltaTime": 0, "channel": 1, "type": "channel", "subtype": "noteOff", "noteNumber": 58, "velocity": 0  },
      { "deltaTime": 0, "channel": 1, "type": "channel", "subtype": "noteOff", "noteNumber": 58, "velocity": 0  },
      { "deltaTime": 0, "channel": 1, "type": "channel", "subtype": "noteOff", "noteNumber": 58, "velocity": 0  },
      { "deltaTime": 1, "channel": 1, "type": "channel", "noteNumber": 52, "velocity": 64, "subtype": "noteOn"  },
      { "deltaTime": 0, "channel": 1, "type": "channel", "noteNumber": 52, "velocity": 64, "subtype": "noteOn"  },
      { "deltaTime": 0, "channel": 1, "type": "channel", "noteNumber": 52, "velocity": 64, "subtype": "noteOn"  },
      { "deltaTime": 0, "channel": 1, "type": "channel", "noteNumber": 52, "velocity": 64, "subtype": "noteOn"  },
      { "deltaTime": 0, "channel": 1, "type": "channel", "noteNumber": 52, "velocity": 64, "subtype": "noteOn"  },
      { "deltaTime": 0, "channel": 1, "type": "channel", "noteNumber": 52, "velocity": 64, "subtype": "noteOn"  },
      { "deltaTime": 0, "channel": 1, "type": "channel", "noteNumber": 52, "velocity": 64, "subtype": "noteOn"  },
      { "deltaTime": 0, "channel": 1, "type": "channel", "noteNumber": 52, "velocity": 64, "subtype": "noteOn"  },
      { "deltaTime": 239, "channel": 1, "type": "channel", "subtype": "noteOff", "noteNumber": 52, "velocity": 0  },
      { "deltaTime": 0, "channel": 1, "type": "channel", "subtype": "noteOff", "noteNumber": 52, "velocity": 0  },
      { "deltaTime": 0, "channel": 1, "type": "channel", "subtype": "noteOff", "noteNumber": 52, "velocity": 0  },
      { "deltaTime": 0, "channel": 1, "type": "channel", "subtype": "noteOff", "noteNumber": 52, "velocity": 0  },
      { "deltaTime": 0, "channel": 1, "type": "channel", "subtype": "noteOff", "noteNumber": 52, "velocity": 0  },
      { "deltaTime": 0, "channel": 1, "type": "channel", "subtype": "noteOff", "noteNumber": 52, "velocity": 0  },
      { "deltaTime": 0, "channel": 1, "type": "channel", "subtype": "noteOff", "noteNumber": 52, "velocity": 0  },
      { "deltaTime": 0, "channel": 1, "type": "channel", "subtype": "noteOff", "noteNumber": 52, "velocity": 0  },
      { "deltaTime": 1, "channel": 1, "type": "channel", "noteNumber": 59, "velocity": 64, "subtype": "noteOn"  },
      { "deltaTime": 0, "channel": 1, "type": "channel", "noteNumber": 59, "velocity": 64, "subtype": "noteOn"  },
      { "deltaTime": 0, "channel": 1, "type": "channel", "noteNumber": 59, "velocity": 64, "subtype": "noteOn"  },
      { "deltaTime": 0, "channel": 1, "type": "channel", "noteNumber": 59, "velocity": 64, "subtype": "noteOn"  },
      { "deltaTime": 0, "channel": 1, "type": "channel", "noteNumber": 59, "velocity": 64, "subtype": "noteOn"  },
      { "deltaTime": 0, "channel": 1, "type": "channel", "noteNumber": 59, "velocity": 64, "subtype": "noteOn"  },
      { "deltaTime": 0, "channel": 1, "type": "channel", "noteNumber": 59, "velocity": 64, "subtype": "noteOn"  },
      { "deltaTime": 0, "channel": 1, "type": "channel", "noteNumber": 59, "velocity": 64, "subtype": "noteOn"  },
      { "deltaTime": 239, "channel": 1, "type": "channel", "subtype": "noteOff", "noteNumber": 59, "velocity": 0  },
      { "deltaTime": 0, "channel": 1, "type": "channel", "subtype": "noteOff", "noteNumber": 59, "velocity": 0  },
      { "deltaTime": 0, "channel": 1, "type": "channel", "subtype": "noteOff", "noteNumber": 59, "velocity": 0  },
      { "deltaTime": 0, "channel": 1, "type": "channel", "subtype": "noteOff", "noteNumber": 59, "velocity": 0  },
      { "deltaTime": 0, "channel": 1, "type": "channel", "subtype": "noteOff", "noteNumber": 59, "velocity": 0  },
      { "deltaTime": 0, "channel": 1, "type": "channel", "subtype": "noteOff", "noteNumber": 59, "velocity": 0  },
      { "deltaTime": 0, "channel": 1, "type": "channel", "subtype": "noteOff", "noteNumber": 59, "velocity": 0  },
      { "deltaTime": 0, "channel": 1, "type": "channel", "subtype": "noteOff", "noteNumber": 59, "velocity": 0  },
      { "deltaTime": 1, "channel": 1, "type": "channel", "noteNumber": 59, "velocity": 64, "subtype": "noteOn"  },
      { "deltaTime": 0, "channel": 1, "type": "channel", "noteNumber": 59, "velocity": 64, "subtype": "noteOn"  },
      { "deltaTime": 0, "channel": 1, "type": "channel", "noteNumber": 59, "velocity": 64, "subtype": "noteOn"  },
      { "deltaTime": 0, "channel": 1, "type": "channel", "noteNumber": 59, "velocity": 64, "subtype": "noteOn"  },
      { "deltaTime": 0, "channel": 1, "type": "channel", "noteNumber": 59, "velocity": 64, "subtype": "noteOn"  },
      { "deltaTime": 0, "channel": 1, "type": "channel", "noteNumber": 59, "velocity": 64, "subtype": "noteOn"  },
      { "deltaTime": 0, "channel": 1, "type": "channel", "noteNumber": 59, "velocity": 64, "subtype": "noteOn"  },
      { "deltaTime": 0, "channel": 1, "type": "channel", "noteNumber": 59, "velocity": 64, "subtype": "noteOn"  },
      { "deltaTime": 239, "channel": 1, "type": "channel", "subtype": "noteOff", "noteNumber": 59, "velocity": 0  },
      { "deltaTime": 0, "channel": 1, "type": "channel", "subtype": "noteOff", "noteNumber": 59, "velocity": 0  },
      { "deltaTime": 0, "channel": 1, "type": "channel", "subtype": "noteOff", "noteNumber": 59, "velocity": 0  },
      { "deltaTime": 0, "channel": 1, "type": "channel", "subtype": "noteOff", "noteNumber": 59, "velocity": 0  },
      { "deltaTime": 0, "channel": 1, "type": "channel", "subtype": "noteOff", "noteNumber": 59, "velocity": 0  },
      { "deltaTime": 0, "channel": 1, "type": "channel", "subtype": "noteOff", "noteNumber": 59, "velocity": 0  },
      { "deltaTime": 0, "channel": 1, "type": "channel", "subtype": "noteOff", "noteNumber": 59, "velocity": 0  },
      { "deltaTime": 0, "channel": 1, "type": "channel", "subtype": "noteOff", "noteNumber": 59, "velocity": 0  },
      { "deltaTime": 1, "channel": 1, "type": "channel", "noteNumber": 52, "velocity": 64, "subtype": "noteOn"  },
      { "deltaTime": 0, "channel": 1, "type": "channel", "noteNumber": 52, "velocity": 64, "subtype": "noteOn"  },
      { "deltaTime": 0, "channel": 1, "type": "channel", "noteNumber": 52, "velocity": 64, "subtype": "noteOn"  },
      { "deltaTime": 0, "channel": 1, "type": "channel", "noteNumber": 52, "velocity": 64, "subtype": "noteOn"  },
      { "deltaTime": 0, "channel": 1, "type": "channel", "noteNumber": 52, "velocity": 64, "subtype": "noteOn"  },
      { "deltaTime": 0, "channel": 1, "type": "channel", "noteNumber": 52, "velocity": 64, "subtype": "noteOn"  },
      { "deltaTime": 0, "channel": 1, "type": "channel", "noteNumber": 52, "velocity": 64, "subtype": "noteOn"  },
      { "deltaTime": 0, "channel": 1, "type": "channel", "noteNumber": 52, "velocity": 64, "subtype": "noteOn"  },
      { "deltaTime": 239, "channel": 1, "type": "channel", "subtype": "noteOff", "noteNumber": 52, "velocity": 0  },
      { "deltaTime": 0, "channel": 1, "type": "channel", "subtype": "noteOff", "noteNumber": 52, "velocity": 0  },
      { "deltaTime": 0, "channel": 1, "type": "channel", "subtype": "noteOff", "noteNumber": 52, "velocity": 0  },
      { "deltaTime": 0, "channel": 1, "type": "channel", "subtype": "noteOff", "noteNumber": 52, "velocity": 0  },
      { "deltaTime": 0, "channel": 1, "type": "channel", "subtype": "noteOff", "noteNumber": 52, "velocity": 0  },
      { "deltaTime": 0, "channel": 1, "type": "channel", "subtype": "noteOff", "noteNumber": 52, "velocity": 0  },
      { "deltaTime": 0, "channel": 1, "type": "channel", "subtype": "noteOff", "noteNumber": 52, "velocity": 0  },
      { "deltaTime": 0, "channel": 1, "type": "channel", "subtype": "noteOff", "noteNumber": 52, "velocity": 0  },
      { "deltaTime": 1, "channel": 1, "type": "channel", "noteNumber": 58, "velocity": 64, "subtype": "noteOn"  },
      { "deltaTime": 0, "channel": 1, "type": "channel", "noteNumber": 58, "velocity": 64, "subtype": "noteOn"  },
      { "deltaTime": 0, "channel": 1, "type": "channel", "noteNumber": 58, "velocity": 64, "subtype": "noteOn"  },
      { "deltaTime": 0, "channel": 1, "type": "channel", "noteNumber": 58, "velocity": 64, "subtype": "noteOn"  },
      { "deltaTime": 0, "channel": 1, "type": "channel", "noteNumber": 58, "velocity": 64, "subtype": "noteOn"  },
      { "deltaTime": 0, "channel": 1, "type": "channel", "noteNumber": 58, "velocity": 64, "subtype": "noteOn"  },
      { "deltaTime": 0, "channel": 1, "type": "channel", "noteNumber": 58, "velocity": 64, "subtype": "noteOn"  },
      { "deltaTime": 0, "channel": 1, "type": "channel", "noteNumber": 58, "velocity": 64, "subtype": "noteOn"  },
      { "deltaTime": 239, "channel": 1, "type": "channel", "subtype": "noteOff", "noteNumber": 58, "velocity": 0  },
      { "deltaTime": 0, "channel": 1, "type": "channel", "subtype": "noteOff", "noteNumber": 58, "velocity": 0  },
      { "deltaTime": 0, "channel": 1, "type": "channel", "subtype": "noteOff", "noteNumber": 58, "velocity": 0  },
      { "deltaTime": 0, "channel": 1, "type": "channel", "subtype": "noteOff", "noteNumber": 58, "velocity": 0  },
      { "deltaTime": 0, "channel": 1, "type": "channel", "subtype": "noteOff", "noteNumber": 58, "velocity": 0  },
      { "deltaTime": 0, "channel": 1, "type": "channel", "subtype": "noteOff", "noteNumber": 58, "velocity": 0  },
      { "deltaTime": 0, "channel": 1, "type": "channel", "subtype": "noteOff", "noteNumber": 58, "velocity": 0  },
      { "deltaTime": 0, "channel": 1, "type": "channel", "subtype": "noteOff", "noteNumber": 58, "velocity": 0  },
      { "deltaTime": 1, "channel": 1, "type": "channel", "noteNumber": 52, "velocity": 64, "subtype": "noteOn"  },
      { "deltaTime": 0, "channel": 1, "type": "channel", "noteNumber": 52, "velocity": 64, "subtype": "noteOn"  },
      { "deltaTime": 239, "channel": 1, "type": "channel", "subtype": "noteOff", "noteNumber": 52, "velocity": 0  },
      { "deltaTime": 0, "channel": 1, "type": "channel", "subtype": "noteOff", "noteNumber": 52, "velocity": 0  },
      { "deltaTime": 1, "channel": 1, "type": "channel", "noteNumber": 52, "velocity": 64, "subtype": "noteOn"  },
      { "deltaTime": 0, "channel": 1, "type": "channel", "noteNumber": 52, "velocity": 64, "subtype": "noteOn"  },
      { "deltaTime": 239, "channel": 1, "type": "channel", "subtype": "noteOff", "noteNumber": 52, "velocity": 0  },
      { "deltaTime": 0, "channel": 1, "type": "channel", "subtype": "noteOff", "noteNumber": 52, "velocity": 0  },
      { "deltaTime": 1, "channel": 1, "type": "channel", "noteNumber": 59, "velocity": 64, "subtype": "noteOn"  },
      { "deltaTime": 0, "channel": 1, "type": "channel", "noteNumber": 59, "velocity": 64, "subtype": "noteOn"  },
      { "deltaTime": 239, "channel": 1, "type": "channel", "subtype": "noteOff", "noteNumber": 59, "velocity": 0  },
      { "deltaTime": 0, "channel": 1, "type": "channel", "subtype": "noteOff", "noteNumber": 59, "velocity": 0  },
      { "deltaTime": 1, "channel": 1, "type": "channel", "noteNumber": 59, "velocity": 64, "subtype": "noteOn"  },
      { "deltaTime": 0, "channel": 1, "type": "channel", "noteNumber": 59, "velocity": 64, "subtype": "noteOn"  },
      { "deltaTime": 239, "channel": 1, "type": "channel", "subtype": "noteOff", "noteNumber": 59, "velocity": 0  },
      { "deltaTime": 0, "channel": 1, "type": "channel", "subtype": "noteOff", "noteNumber": 59, "velocity": 0  },
      { "deltaTime": 1, "channel": 1, "type": "channel", "noteNumber": 52, "velocity": 64, "subtype": "noteOn"  },
      { "deltaTime": 0, "channel": 1, "type": "channel", "noteNumber": 52, "velocity": 64, "subtype": "noteOn"  },
      { "deltaTime": 239, "channel": 1, "type": "channel", "subtype": "noteOff", "noteNumber": 52, "velocity": 0  },
      { "deltaTime": 0, "channel": 1, "type": "channel", "subtype": "noteOff", "noteNumber": 52, "velocity": 0  },
      { "deltaTime": 1, "channel": 1, "type": "channel", "noteNumber": 58, "velocity": 64, "subtype": "noteOn"  },
      { "deltaTime": 0, "channel": 1, "type": "channel", "noteNumber": 58, "velocity": 64, "subtype": "noteOn"  },
      { "deltaTime": 239, "channel": 1, "type": "channel", "subtype": "noteOff", "noteNumber": 58, "velocity": 0  },
      { "deltaTime": 0, "channel": 1, "type": "channel", "subtype": "noteOff", "noteNumber": 58, "velocity": 0  },
      { "deltaTime": 1, "channel": 1, "type": "channel", "noteNumber": 58, "velocity": 64, "subtype": "noteOn"  },
      { "deltaTime": 0, "channel": 1, "type": "channel", "noteNumber": 58, "velocity": 64, "subtype": "noteOn"  },
      { "deltaTime": 239, "channel": 1, "type": "channel", "subtype": "noteOff", "noteNumber": 58, "velocity": 0  },
      { "deltaTime": 0, "channel": 1, "type": "channel", "subtype": "noteOff", "noteNumber": 58, "velocity": 0  },
      { "deltaTime": 1, "channel": 1, "type": "channel", "noteNumber": 52, "velocity": 64, "subtype": "noteOn"  },
      { "deltaTime": 0, "channel": 1, "type": "channel", "noteNumber": 52, "velocity": 64, "subtype": "noteOn"  },
      { "deltaTime": 239, "channel": 1, "type": "channel", "subtype": "noteOff", "noteNumber": 52, "velocity": 0  },
      { "deltaTime": 0, "channel": 1, "type": "channel", "subtype": "noteOff", "noteNumber": 52, "velocity": 0  },
      { "deltaTime": 1, "channel": 1, "type": "channel", "noteNumber": 59, "velocity": 64, "subtype": "noteOn"  },
      { "deltaTime": 0, "channel": 1, "type": "channel", "noteNumber": 59, "velocity": 64, "subtype": "noteOn"  },
      { "deltaTime": 239, "channel": 1, "type": "channel", "subtype": "noteOff", "noteNumber": 59, "velocity": 0  },
      { "deltaTime": 0, "channel": 1, "type": "channel", "subtype": "noteOff", "noteNumber": 59, "velocity": 0  },
      { "deltaTime": 1, "channel": 1, "type": "channel", "noteNumber": 59, "velocity": 64, "subtype": "noteOn"  },
      { "deltaTime": 0, "channel": 1, "type": "channel", "noteNumber": 59, "velocity": 64, "subtype": "noteOn"  },
      { "deltaTime": 239, "channel": 1, "type": "channel", "subtype": "noteOff", "noteNumber": 59, "velocity": 0  },
      { "deltaTime": 0, "channel": 1, "type": "channel", "subtype": "noteOff", "noteNumber": 59, "velocity": 0  },
      { "deltaTime": 1, "channel": 1, "type": "channel", "noteNumber": 52, "velocity": 64, "subtype": "noteOn"  },
      { "deltaTime": 0, "channel": 1, "type": "channel", "noteNumber": 52, "velocity": 64, "subtype": "noteOn"  },
      { "deltaTime": 239, "channel": 1, "type": "channel", "subtype": "noteOff", "noteNumber": 52, "velocity": 0  },
      { "deltaTime": 0, "channel": 1, "type": "channel", "subtype": "noteOff", "noteNumber": 52, "velocity": 0  },
      { "deltaTime": 1, "channel": 1, "type": "channel", "noteNumber": 58, "velocity": 64, "subtype": "noteOn"  },
      { "deltaTime": 0, "channel": 1, "type": "channel", "noteNumber": 58, "velocity": 64, "subtype": "noteOn"  },
      { "deltaTime": 239, "channel": 1, "type": "channel", "subtype": "noteOff", "noteNumber": 58, "velocity": 0  },
      { "deltaTime": 0, "channel": 1, "type": "channel", "subtype": "noteOff", "noteNumber": 58, "velocity": 0  },
      { "deltaTime": 1, "channel": 1, "type": "channel", "noteNumber": 58, "velocity": 64, "subtype": "noteOn"  },
      { "deltaTime": 0, "channel": 1, "type": "channel", "noteNumber": 58, "velocity": 64, "subtype": "noteOn"  },
      { "deltaTime": 239, "channel": 1, "type": "channel", "subtype": "noteOff", "noteNumber": 58, "velocity": 0  },
      { "deltaTime": 0, "channel": 1, "type": "channel", "subtype": "noteOff", "noteNumber": 58, "velocity": 0  },
      { "deltaTime": 1, "channel": 1, "type": "channel", "noteNumber": 52, "velocity": 64, "subtype": "noteOn"  },
      { "deltaTime": 0, "channel": 1, "type": "channel", "noteNumber": 52, "velocity": 64, "subtype": "noteOn"  },
      { "deltaTime": 239, "channel": 1, "type": "channel", "subtype": "noteOff", "noteNumber": 52, "velocity": 0  },
      { "deltaTime": 0, "channel": 1, "type": "channel", "subtype": "noteOff", "noteNumber": 52, "velocity": 0  },
      { "deltaTime": 1, "channel": 1, "type": "channel", "noteNumber": 59, "velocity": 64, "subtype": "noteOn"  },
      { "deltaTime": 0, "channel": 1, "type": "channel", "noteNumber": 59, "velocity": 64, "subtype": "noteOn"  },
      { "deltaTime": 239, "channel": 1, "type": "channel", "subtype": "noteOff", "noteNumber": 59, "velocity": 0  },
      { "deltaTime": 0, "channel": 1, "type": "channel", "subtype": "noteOff", "noteNumber": 59, "velocity": 0  },
      { "deltaTime": 1, "channel": 1, "type": "channel", "noteNumber": 52, "velocity": 64, "subtype": "noteOn"  },
      { "deltaTime": 0, "channel": 1, "type": "channel", "noteNumber": 52, "velocity": 64, "subtype": "noteOn"  },
      { "deltaTime": 239, "channel": 1, "type": "channel", "subtype": "noteOff", "noteNumber": 52, "velocity": 0  },
      { "deltaTime": 0, "channel": 1, "type": "channel", "subtype": "noteOff", "noteNumber": 52, "velocity": 0  },
      { "deltaTime": 1, "channel": 1, "type": "channel", "noteNumber": 60, "velocity": 64, "subtype": "noteOn"  },
      { "deltaTime": 0, "channel": 1, "type": "channel", "noteNumber": 60, "velocity": 64, "subtype": "noteOn"  },
      { "deltaTime": 239, "channel": 1, "type": "channel", "subtype": "noteOff", "noteNumber": 60, "velocity": 0  },
      { "deltaTime": 0, "channel": 1, "type": "channel", "subtype": "noteOff", "noteNumber": 60, "velocity": 0  },
      { "deltaTime": 1, "channel": 1, "type": "channel", "noteNumber": 52, "velocity": 64, "subtype": "noteOn"  },
      { "deltaTime": 0, "channel": 1, "type": "channel", "noteNumber": 52, "velocity": 64, "subtype": "noteOn"  },
      { "deltaTime": 239, "channel": 1, "type": "channel", "subtype": "noteOff", "noteNumber": 52, "velocity": 0  },
      { "deltaTime": 0, "channel": 1, "type": "channel", "subtype": "noteOff", "noteNumber": 52, "velocity": 0  },
      { "deltaTime": 1, "channel": 1, "type": "channel", "noteNumber": 59, "velocity": 64, "subtype": "noteOn"  },
      { "deltaTime": 0, "channel": 1, "type": "channel", "noteNumber": 59, "velocity": 64, "subtype": "noteOn"  },
      { "deltaTime": 239, "channel": 1, "type": "channel", "subtype": "noteOff", "noteNumber": 59, "velocity": 0  },
      { "deltaTime": 0, "channel": 1, "type": "channel", "subtype": "noteOff", "noteNumber": 59, "velocity": 0  },
      { "deltaTime": 1, "channel": 1, "type": "channel", "noteNumber": 59, "velocity": 64, "subtype": "noteOn"  },
      { "deltaTime": 0, "channel": 1, "type": "channel", "noteNumber": 59, "velocity": 64, "subtype": "noteOn"  },
      { "deltaTime": 239, "channel": 1, "type": "channel", "subtype": "noteOff", "noteNumber": 59, "velocity": 0  },
      { "deltaTime": 0, "channel": 1, "type": "channel", "subtype": "noteOff", "noteNumber": 59, "velocity": 0  },
      { "deltaTime": 1, "channel": 1, "type": "channel", "noteNumber": 52, "velocity": 64, "subtype": "noteOn"  },
      { "deltaTime": 0, "channel": 1, "type": "channel", "noteNumber": 52, "velocity": 64, "subtype": "noteOn"  },
      { "deltaTime": 239, "channel": 1, "type": "channel", "subtype": "noteOff", "noteNumber": 52, "velocity": 0  },
      { "deltaTime": 0, "channel": 1, "type": "channel", "subtype": "noteOff", "noteNumber": 52, "velocity": 0  },
      { "deltaTime": 1, "channel": 1, "type": "channel", "noteNumber": 58, "velocity": 64, "subtype": "noteOn"  },
      { "deltaTime": 0, "channel": 1, "type": "channel", "noteNumber": 58, "velocity": 64, "subtype": "noteOn"  },
      { "deltaTime": 239, "channel": 1, "type": "channel", "subtype": "noteOff", "noteNumber": 58, "velocity": 0  },
      { "deltaTime": 0, "channel": 1, "type": "channel", "subtype": "noteOff", "noteNumber": 58, "velocity": 0  },
      { "deltaTime": 1, "channel": 1, "type": "channel", "noteNumber": 58, "velocity": 64, "subtype": "noteOn"  },
      { "deltaTime": 0, "channel": 1, "type": "channel", "noteNumber": 58, "velocity": 64, "subtype": "noteOn"  },
      { "deltaTime": 239, "channel": 1, "type": "channel", "subtype": "noteOff", "noteNumber": 58, "velocity": 0  },
      { "deltaTime": 0, "channel": 1, "type": "channel", "subtype": "noteOff", "noteNumber": 58, "velocity": 0  },
      { "deltaTime": 1, "channel": 1, "type": "channel", "noteNumber": 52, "velocity": 64, "subtype": "noteOn"  },
      { "deltaTime": 0, "channel": 1, "type": "channel", "noteNumber": 52, "velocity": 64, "subtype": "noteOn"  },
      { "deltaTime": 239, "channel": 1, "type": "channel", "subtype": "noteOff", "noteNumber": 52, "velocity": 0  },
      { "deltaTime": 0, "channel": 1, "type": "channel", "subtype": "noteOff", "noteNumber": 52, "velocity": 0  },
      { "deltaTime": 1, "channel": 1, "type": "channel", "noteNumber": 59, "velocity": 64, "subtype": "noteOn"  },
      { "deltaTime": 0, "channel": 1, "type": "channel", "noteNumber": 59, "velocity": 64, "subtype": "noteOn"  },
      { "deltaTime": 239, "channel": 1, "type": "channel", "subtype": "noteOff", "noteNumber": 59, "velocity": 0  },
      { "deltaTime": 0, "channel": 1, "type": "channel", "subtype": "noteOff", "noteNumber": 59, "velocity": 0  },
      { "deltaTime": 1, "channel": 1, "type": "channel", "noteNumber": 59, "velocity": 64, "subtype": "noteOn"  },
      { "deltaTime": 0, "channel": 1, "type": "channel", "noteNumber": 59, "velocity": 64, "subtype": "noteOn"  },
      { "deltaTime": 239, "channel": 1, "type": "channel", "subtype": "noteOff", "noteNumber": 59, "velocity": 0  },
      { "deltaTime": 0, "channel": 1, "type": "channel", "subtype": "noteOff", "noteNumber": 59, "velocity": 0  },
      { "deltaTime": 1, "channel": 1, "type": "channel", "noteNumber": 52, "velocity": 64, "subtype": "noteOn"  },
      { "deltaTime": 0, "channel": 1, "type": "channel", "noteNumber": 52, "velocity": 64, "subtype": "noteOn"  },
      { "deltaTime": 239, "channel": 1, "type": "channel", "subtype": "noteOff", "noteNumber": 52, "velocity": 0  },
      { "deltaTime": 0, "channel": 1, "type": "channel", "subtype": "noteOff", "noteNumber": 52, "velocity": 0  },
      { "deltaTime": 1, "channel": 1, "type": "channel", "noteNumber": 58, "velocity": 64, "subtype": "noteOn"  },
      { "deltaTime": 0, "channel": 1, "type": "channel", "noteNumber": 58, "velocity": 64, "subtype": "noteOn"  },
      { "deltaTime": 239, "channel": 1, "type": "channel", "subtype": "noteOff", "noteNumber": 58, "velocity": 0  },
      { "deltaTime": 0, "channel": 1, "type": "channel", "subtype": "noteOff", "noteNumber": 58, "velocity": 0  },
      { "deltaTime": 1, "channel": 1, "type": "channel", "noteNumber": 52, "velocity": 64, "subtype": "noteOn"  },
      { "deltaTime": 0, "channel": 1, "type": "channel", "noteNumber": 52, "velocity": 64, "subtype": "noteOn"  },
      { "deltaTime": 239, "channel": 1, "type": "channel", "subtype": "noteOff", "noteNumber": 52, "velocity": 0  },
      { "deltaTime": 0, "channel": 1, "type": "channel", "subtype": "noteOff", "noteNumber": 52, "velocity": 0  },
      { "deltaTime": 53761, "channel": 1, "type": "channel", "noteNumber": 64, "velocity": 64, "subtype": "noteOn"  },
      { "deltaTime": 239, "channel": 1, "type": "channel", "subtype": "noteOff", "noteNumber": 64, "velocity": 0  },
      { "deltaTime": 1, "channel": 1, "type": "channel", "noteNumber": 64, "velocity": 64, "subtype": "noteOn"  },
      { "deltaTime": 239, "channel": 1, "type": "channel", "subtype": "noteOff", "noteNumber": 64, "velocity": 0  },
      { "deltaTime": 1, "channel": 1, "type": "channel", "noteNumber": 64, "velocity": 64, "subtype": "noteOn"  },
      { "deltaTime": 239, "channel": 1, "type": "channel", "subtype": "noteOff", "noteNumber": 64, "velocity": 0  },
      { "deltaTime": 1, "channel": 1, "type": "channel", "noteNumber": 64, "velocity": 64, "subtype": "noteOn"  },
      { "deltaTime": 239, "channel": 1, "type": "channel", "subtype": "noteOff", "noteNumber": 64, "velocity": 0  },
      { "deltaTime": 481, "channel": 1, "type": "channel", "noteNumber": 52, "velocity": 64, "subtype": "noteOn"  },
      { "deltaTime": 239, "channel": 1, "type": "channel", "subtype": "noteOff", "noteNumber": 52, "velocity": 0  },
      { "deltaTime": 1, "channel": 1, "type": "channel", "noteNumber": 52, "velocity": 64, "subtype": "noteOn"  },
      { "deltaTime": 239, "channel": 1, "type": "channel", "subtype": "noteOff", "noteNumber": 52, "velocity": 0  },
      { "deltaTime": 1, "channel": 1, "type": "channel", "noteNumber": 52, "velocity": 64, "subtype": "noteOn"  },
      { "deltaTime": 239, "channel": 1, "type": "channel", "subtype": "noteOff", "noteNumber": 52, "velocity": 0  },
      { "deltaTime": 1, "channel": 1, "type": "channel", "noteNumber": 52, "velocity": 64, "subtype": "noteOn"  },
      { "deltaTime": 239, "channel": 1, "type": "channel", "subtype": "noteOff", "noteNumber": 52, "velocity": 0  },
      { "deltaTime": 481, "channel": 1, "type": "channel", "noteNumber": 64, "velocity": 64, "subtype": "noteOn"  },
      { "deltaTime": 239, "channel": 1, "type": "channel", "subtype": "noteOff", "noteNumber": 64, "velocity": 0  },
      { "deltaTime": 1, "channel": 1, "type": "channel", "noteNumber": 64, "velocity": 64, "subtype": "noteOn"  },
      { "deltaTime": 239, "channel": 1, "type": "channel", "subtype": "noteOff", "noteNumber": 64, "velocity": 0  },
      { "deltaTime": 1, "channel": 1, "type": "channel", "noteNumber": 64, "velocity": 64, "subtype": "noteOn"  },
      { "deltaTime": 239, "channel": 1, "type": "channel", "subtype": "noteOff", "noteNumber": 64, "velocity": 0  },
      { "deltaTime": 1, "channel": 1, "type": "channel", "noteNumber": 64, "velocity": 64, "subtype": "noteOn"  },
      { "deltaTime": 239, "channel": 1, "type": "channel", "subtype": "noteOff", "noteNumber": 64, "velocity": 0  },
      { "deltaTime": 481, "channel": 1, "type": "channel", "noteNumber": 52, "velocity": 64, "subtype": "noteOn"  },
      { "deltaTime": 239, "channel": 1, "type": "channel", "subtype": "noteOff", "noteNumber": 52, "velocity": 0  },
      { "deltaTime": 1, "channel": 1, "type": "channel", "noteNumber": 52, "velocity": 64, "subtype": "noteOn"  },
      { "deltaTime": 239, "channel": 1, "type": "channel", "subtype": "noteOff", "noteNumber": 52, "velocity": 0  },
      { "deltaTime": 1, "channel": 1, "type": "channel", "noteNumber": 52, "velocity": 64, "subtype": "noteOn"  },
      { "deltaTime": 239, "channel": 1, "type": "channel", "subtype": "noteOff", "noteNumber": 52, "velocity": 0  },
      { "deltaTime": 1, "channel": 1, "type": "channel", "noteNumber": 52, "velocity": 64, "subtype": "noteOn"  },
      { "deltaTime": 239, "channel": 1, "type": "channel", "subtype": "noteOff", "noteNumber": 52, "velocity": 0  },
      { "deltaTime": 1441, "channel": 1, "type": "channel", "noteNumber": 64, "velocity": 64, "subtype": "noteOn"  },
      { "deltaTime": 239, "channel": 1, "type": "channel", "subtype": "noteOff", "noteNumber": 64, "velocity": 0  },
      { "deltaTime": 1, "channel": 1, "type": "channel", "noteNumber": 64, "velocity": 64, "subtype": "noteOn"  },
      { "deltaTime": 239, "channel": 1, "type": "channel", "subtype": "noteOff", "noteNumber": 64, "velocity": 0  },
      { "deltaTime": 1, "channel": 1, "type": "channel", "noteNumber": 64, "velocity": 64, "subtype": "noteOn"  },
      { "deltaTime": 239, "channel": 1, "type": "channel", "subtype": "noteOff", "noteNumber": 64, "velocity": 0  },
      { "deltaTime": 1, "channel": 1, "type": "channel", "noteNumber": 64, "velocity": 64, "subtype": "noteOn"  },
      { "deltaTime": 239, "channel": 1, "type": "channel", "subtype": "noteOff", "noteNumber": 64, "velocity": 0  },
      { "deltaTime": 481, "channel": 1, "type": "channel", "noteNumber": 52, "velocity": 64, "subtype": "noteOn"  },
      { "deltaTime": 239, "channel": 1, "type": "channel", "subtype": "noteOff", "noteNumber": 52, "velocity": 0  },
      { "deltaTime": 1, "channel": 1, "type": "channel", "noteNumber": 52, "velocity": 64, "subtype": "noteOn"  },
      { "deltaTime": 239, "channel": 1, "type": "channel", "subtype": "noteOff", "noteNumber": 52, "velocity": 0  },
      { "deltaTime": 1, "channel": 1, "type": "channel", "noteNumber": 52, "velocity": 64, "subtype": "noteOn"  },
      { "deltaTime": 239, "channel": 1, "type": "channel", "subtype": "noteOff", "noteNumber": 52, "velocity": 0  },
      { "deltaTime": 1, "channel": 1, "type": "channel", "noteNumber": 52, "velocity": 64, "subtype": "noteOn"  },
      { "deltaTime": 239, "channel": 1, "type": "channel", "subtype": "noteOff", "noteNumber": 52, "velocity": 0  },
      { "deltaTime": 481, "channel": 1, "type": "channel", "noteNumber": 64, "velocity": 64, "subtype": "noteOn"  },
      { "deltaTime": 239, "channel": 1, "type": "channel", "subtype": "noteOff", "noteNumber": 64, "velocity": 0  },
      { "deltaTime": 1, "channel": 1, "type": "channel", "noteNumber": 64, "velocity": 64, "subtype": "noteOn"  },
      { "deltaTime": 239, "channel": 1, "type": "channel", "subtype": "noteOff", "noteNumber": 64, "velocity": 0  },
      { "deltaTime": 1, "channel": 1, "type": "channel", "noteNumber": 64, "velocity": 64, "subtype": "noteOn"  },
      { "deltaTime": 239, "channel": 1, "type": "channel", "subtype": "noteOff", "noteNumber": 64, "velocity": 0  },
      { "deltaTime": 1, "channel": 1, "type": "channel", "noteNumber": 64, "velocity": 64, "subtype": "noteOn"  },
      { "deltaTime": 239, "channel": 1, "type": "channel", "subtype": "noteOff", "noteNumber": 64, "velocity": 0  },
      { "deltaTime": 481, "channel": 1, "type": "channel", "noteNumber": 52, "velocity": 64, "subtype": "noteOn"  },
      { "deltaTime": 239, "channel": 1, "type": "channel", "subtype": "noteOff", "noteNumber": 52, "velocity": 0  },
      { "deltaTime": 1, "channel": 1, "type": "channel", "noteNumber": 52, "velocity": 64, "subtype": "noteOn"  },
      { "deltaTime": 239, "channel": 1, "type": "channel", "subtype": "noteOff", "noteNumber": 52, "velocity": 0  },
      { "deltaTime": 1, "channel": 1, "type": "channel", "noteNumber": 52, "velocity": 64, "subtype": "noteOn"  },
      { "deltaTime": 239, "channel": 1, "type": "channel", "subtype": "noteOff", "noteNumber": 52, "velocity": 0  },
      { "deltaTime": 1, "channel": 1, "type": "channel", "noteNumber": 52, "velocity": 64, "subtype": "noteOn"  },
      { "deltaTime": 239, "channel": 1, "type": "channel", "subtype": "noteOff", "noteNumber": 52, "velocity": 0  },
      { "deltaTime": 1441, "channel": 1, "type": "channel", "noteNumber": 64, "velocity": 64, "subtype": "noteOn"  },
      { "deltaTime": 239, "channel": 1, "type": "channel", "subtype": "noteOff", "noteNumber": 64, "velocity": 0  },
      { "deltaTime": 1, "channel": 1, "type": "channel", "noteNumber": 68, "velocity": 64, "subtype": "noteOn"  },
      { "deltaTime": 239, "channel": 1, "type": "channel", "subtype": "noteOff", "noteNumber": 68, "velocity": 0  },
      { "deltaTime": 1, "channel": 1, "type": "channel", "noteNumber": 64, "velocity": 64, "subtype": "noteOn"  },
      { "deltaTime": 239, "channel": 1, "type": "channel", "subtype": "noteOff", "noteNumber": 64, "velocity": 0  },
      { "deltaTime": 1, "channel": 1, "type": "channel", "noteNumber": 59, "velocity": 64, "subtype": "noteOn"  },
      { "deltaTime": 239, "channel": 1, "type": "channel", "subtype": "noteOff", "noteNumber": 59, "velocity": 0  },
      { "deltaTime": 1, "channel": 1, "type": "channel", "noteNumber": 66, "velocity": 64, "subtype": "noteOn"  },
      { "deltaTime": 239, "channel": 1, "type": "channel", "subtype": "noteOff", "noteNumber": 66, "velocity": 0  },
      { "deltaTime": 1, "channel": 1, "type": "channel", "noteNumber": 62, "velocity": 64, "subtype": "noteOn"  },
      { "deltaTime": 239, "channel": 1, "type": "channel", "subtype": "noteOff", "noteNumber": 62, "velocity": 0  },
      { "deltaTime": 1, "channel": 1, "type": "channel", "noteNumber": 59, "velocity": 64, "subtype": "noteOn"  },
      { "deltaTime": 239, "channel": 1, "type": "channel", "subtype": "noteOff", "noteNumber": 59, "velocity": 0  },
      { "deltaTime": 1, "channel": 1, "type": "channel", "noteNumber": 64, "velocity": 64, "subtype": "noteOn"  },
      { "deltaTime": 239, "channel": 1, "type": "channel", "subtype": "noteOff", "noteNumber": 64, "velocity": 0  },
      { "deltaTime": 1, "channel": 1, "type": "channel", "noteNumber": 61, "velocity": 64, "subtype": "noteOn"  },
      { "deltaTime": 239, "channel": 1, "type": "channel", "subtype": "noteOff", "noteNumber": 61, "velocity": 0  },
      { "deltaTime": 1, "channel": 1, "type": "channel", "noteNumber": 57, "velocity": 64, "subtype": "noteOn"  },
      { "deltaTime": 239, "channel": 1, "type": "channel", "subtype": "noteOff", "noteNumber": 57, "velocity": 0  },
      { "deltaTime": 1, "channel": 1, "type": "channel", "noteNumber": 59, "velocity": 64, "subtype": "noteOn"  },
      { "deltaTime": 239, "channel": 1, "type": "channel", "subtype": "noteOff", "noteNumber": 59, "velocity": 0  },
      { "deltaTime": 1, "channel": 1, "type": "channel", "noteNumber": 56, "velocity": 64, "subtype": "noteOn"  },
      { "deltaTime": 239, "channel": 1, "type": "channel", "subtype": "noteOff", "noteNumber": 56, "velocity": 0  },
      { "deltaTime": 1, "channel": 1, "type": "channel", "noteNumber": 57, "velocity": 64, "subtype": "noteOn"  },
      { "deltaTime": 239, "channel": 1, "type": "channel", "subtype": "noteOff", "noteNumber": 57, "velocity": 0  },
      { "deltaTime": 1, "channel": 1, "type": "channel", "noteNumber": 59, "velocity": 64, "subtype": "noteOn"  },
      { "deltaTime": 239, "channel": 1, "type": "channel", "subtype": "noteOff", "noteNumber": 59, "velocity": 0  },
      { "deltaTime": 1, "channel": 1, "type": "channel", "noteNumber": 64, "velocity": 64, "subtype": "noteOn"  },
      { "deltaTime": 239, "channel": 1, "type": "channel", "subtype": "noteOff", "noteNumber": 64, "velocity": 0  },
      { "deltaTime": 1, "channel": 1, "type": "channel", "noteNumber": 62, "velocity": 64, "subtype": "noteOn"  },
      { "deltaTime": 239, "channel": 1, "type": "channel", "subtype": "noteOff", "noteNumber": 62, "velocity": 0  },
      { "deltaTime": 1, "channel": 1, "type": "channel", "noteNumber": 68, "velocity": 64, "subtype": "noteOn"  },
      { "deltaTime": 239, "channel": 1, "type": "channel", "subtype": "noteOff", "noteNumber": 68, "velocity": 0  },
      { "deltaTime": 1, "channel": 1, "type": "channel", "noteNumber": 64, "velocity": 64, "subtype": "noteOn"  },
      { "deltaTime": 239, "channel": 1, "type": "channel", "subtype": "noteOff", "noteNumber": 64, "velocity": 0  },
      { "deltaTime": 1, "channel": 1, "type": "channel", "noteNumber": 59, "velocity": 64, "subtype": "noteOn"  },
      { "deltaTime": 239, "channel": 1, "type": "channel", "subtype": "noteOff", "noteNumber": 59, "velocity": 0  },
      { "deltaTime": 1, "channel": 1, "type": "channel", "noteNumber": 66, "velocity": 64, "subtype": "noteOn"  },
      { "deltaTime": 239, "channel": 1, "type": "channel", "subtype": "noteOff", "noteNumber": 66, "velocity": 0  },
      { "deltaTime": 1, "channel": 1, "type": "channel", "noteNumber": 62, "velocity": 64, "subtype": "noteOn"  },
      { "deltaTime": 239, "channel": 1, "type": "channel", "subtype": "noteOff", "noteNumber": 62, "velocity": 0  },
      { "deltaTime": 1, "channel": 1, "type": "channel", "noteNumber": 59, "velocity": 64, "subtype": "noteOn"  },
      { "deltaTime": 239, "channel": 1, "type": "channel", "subtype": "noteOff", "noteNumber": 59, "velocity": 0  },
      { "deltaTime": 1, "channel": 1, "type": "channel", "noteNumber": 64, "velocity": 64, "subtype": "noteOn"  },
      { "deltaTime": 239, "channel": 1, "type": "channel", "subtype": "noteOff", "noteNumber": 64, "velocity": 0  },
      { "deltaTime": 1, "channel": 1, "type": "channel", "noteNumber": 61, "velocity": 64, "subtype": "noteOn"  },
      { "deltaTime": 239, "channel": 1, "type": "channel", "subtype": "noteOff", "noteNumber": 61, "velocity": 0  },
      { "deltaTime": 1, "channel": 1, "type": "channel", "noteNumber": 57, "velocity": 64, "subtype": "noteOn"  },
      { "deltaTime": 239, "channel": 1, "type": "channel", "subtype": "noteOff", "noteNumber": 57, "velocity": 0  },
      { "deltaTime": 1, "channel": 1, "type": "channel", "noteNumber": 61, "velocity": 64, "subtype": "noteOn"  },
      { "deltaTime": 239, "channel": 1, "type": "channel", "subtype": "noteOff", "noteNumber": 61, "velocity": 0  },
      { "deltaTime": 1, "channel": 1, "type": "channel", "noteNumber": 59, "velocity": 64, "subtype": "noteOn"  },
      { "deltaTime": 239, "channel": 1, "type": "channel", "subtype": "noteOff", "noteNumber": 59, "velocity": 0  },
      { "deltaTime": 1, "channel": 1, "type": "channel", "noteNumber": 56, "velocity": 64, "subtype": "noteOn"  },
      { "deltaTime": 239, "channel": 1, "type": "channel", "subtype": "noteOff", "noteNumber": 56, "velocity": 0  },
      { "deltaTime": 1, "channel": 1, "type": "channel", "noteNumber": 64, "velocity": 64, "subtype": "noteOn"  },
      { "deltaTime": 239, "channel": 1, "type": "channel", "subtype": "noteOff", "noteNumber": 64, "velocity": 0  },
      { "deltaTime": 1, "channel": 1, "type": "channel", "noteNumber": 68, "velocity": 64, "subtype": "noteOn"  },
      { "deltaTime": 239, "channel": 1, "type": "channel", "subtype": "noteOff", "noteNumber": 68, "velocity": 0  },
      { "deltaTime": 1, "channel": 1, "type": "channel", "noteNumber": 64, "velocity": 64, "subtype": "noteOn"  },
      { "deltaTime": 239, "channel": 1, "type": "channel", "subtype": "noteOff", "noteNumber": 64, "velocity": 0  },
      { "deltaTime": 1, "channel": 1, "type": "channel", "noteNumber": 59, "velocity": 64, "subtype": "noteOn"  },
      { "deltaTime": 239, "channel": 1, "type": "channel", "subtype": "noteOff", "noteNumber": 59, "velocity": 0  },
      { "deltaTime": 1, "channel": 1, "type": "channel", "noteNumber": 66, "velocity": 64, "subtype": "noteOn"  },
      { "deltaTime": 239, "channel": 1, "type": "channel", "subtype": "noteOff", "noteNumber": 66, "velocity": 0  },
      { "deltaTime": 1, "channel": 1, "type": "channel", "noteNumber": 62, "velocity": 64, "subtype": "noteOn"  },
      { "deltaTime": 239, "channel": 1, "type": "channel", "subtype": "noteOff", "noteNumber": 62, "velocity": 0  },
      { "deltaTime": 1, "channel": 1, "type": "channel", "noteNumber": 59, "velocity": 64, "subtype": "noteOn"  },
      { "deltaTime": 239, "channel": 1, "type": "channel", "subtype": "noteOff", "noteNumber": 59, "velocity": 0  },
      { "deltaTime": 1, "channel": 1, "type": "channel", "noteNumber": 64, "velocity": 64, "subtype": "noteOn"  },
      { "deltaTime": 239, "channel": 1, "type": "channel", "subtype": "noteOff", "noteNumber": 64, "velocity": 0  },
      { "deltaTime": 1, "channel": 1, "type": "channel", "noteNumber": 61, "velocity": 64, "subtype": "noteOn"  },
      { "deltaTime": 239, "channel": 1, "type": "channel", "subtype": "noteOff", "noteNumber": 61, "velocity": 0  },
      { "deltaTime": 1, "channel": 1, "type": "channel", "noteNumber": 57, "velocity": 64, "subtype": "noteOn"  },
      { "deltaTime": 239, "channel": 1, "type": "channel", "subtype": "noteOff", "noteNumber": 57, "velocity": 0  },
      { "deltaTime": 1, "channel": 1, "type": "channel", "noteNumber": 59, "velocity": 64, "subtype": "noteOn"  },
      { "deltaTime": 239, "channel": 1, "type": "channel", "subtype": "noteOff", "noteNumber": 59, "velocity": 0  },
      { "deltaTime": 1, "channel": 1, "type": "channel", "noteNumber": 56, "velocity": 64, "subtype": "noteOn"  },
      { "deltaTime": 239, "channel": 1, "type": "channel", "subtype": "noteOff", "noteNumber": 56, "velocity": 0  },
      { "deltaTime": 1, "channel": 1, "type": "channel", "noteNumber": 57, "velocity": 64, "subtype": "noteOn"  },
      { "deltaTime": 239, "channel": 1, "type": "channel", "subtype": "noteOff", "noteNumber": 57, "velocity": 0  },
      { "deltaTime": 1, "channel": 1, "type": "channel", "noteNumber": 59, "velocity": 64, "subtype": "noteOn"  },
      { "deltaTime": 239, "channel": 1, "type": "channel", "subtype": "noteOff", "noteNumber": 59, "velocity": 0  },
      { "deltaTime": 1, "channel": 1, "type": "channel", "noteNumber": 64, "velocity": 64, "subtype": "noteOn"  },
      { "deltaTime": 239, "channel": 1, "type": "channel", "subtype": "noteOff", "noteNumber": 64, "velocity": 0  },
      { "deltaTime": 1, "channel": 1, "type": "channel", "noteNumber": 62, "velocity": 64, "subtype": "noteOn"  },
      { "deltaTime": 239, "channel": 1, "type": "channel", "subtype": "noteOff", "noteNumber": 62, "velocity": 0  },
      { "deltaTime": 1, "channel": 1, "type": "channel", "noteNumber": 68, "velocity": 64, "subtype": "noteOn"  },
      { "deltaTime": 239, "channel": 1, "type": "channel", "subtype": "noteOff", "noteNumber": 68, "velocity": 0  },
      { "deltaTime": 1, "channel": 1, "type": "channel", "noteNumber": 64, "velocity": 64, "subtype": "noteOn"  },
      { "deltaTime": 239, "channel": 1, "type": "channel", "subtype": "noteOff", "noteNumber": 64, "velocity": 0  },
      { "deltaTime": 1, "channel": 1, "type": "channel", "noteNumber": 59, "velocity": 64, "subtype": "noteOn"  },
      { "deltaTime": 239, "channel": 1, "type": "channel", "subtype": "noteOff", "noteNumber": 59, "velocity": 0  },
      { "deltaTime": 1, "channel": 1, "type": "channel", "noteNumber": 66, "velocity": 64, "subtype": "noteOn"  },
      { "deltaTime": 239, "channel": 1, "type": "channel", "subtype": "noteOff", "noteNumber": 66, "velocity": 0  },
      { "deltaTime": 1, "channel": 1, "type": "channel", "noteNumber": 62, "velocity": 64, "subtype": "noteOn"  },
      { "deltaTime": 239, "channel": 1, "type": "channel", "subtype": "noteOff", "noteNumber": 62, "velocity": 0  },
      { "deltaTime": 1, "channel": 1, "type": "channel", "noteNumber": 59, "velocity": 64, "subtype": "noteOn"  },
      { "deltaTime": 239, "channel": 1, "type": "channel", "subtype": "noteOff", "noteNumber": 59, "velocity": 0  },
      { "deltaTime": 1, "channel": 1, "type": "channel", "noteNumber": 64, "velocity": 64, "subtype": "noteOn"  },
      { "deltaTime": 239, "channel": 1, "type": "channel", "subtype": "noteOff", "noteNumber": 64, "velocity": 0  },
      { "deltaTime": 1, "channel": 1, "type": "channel", "noteNumber": 61, "velocity": 64, "subtype": "noteOn"  },
      { "deltaTime": 239, "channel": 1, "type": "channel", "subtype": "noteOff", "noteNumber": 61, "velocity": 0  },
      { "deltaTime": 1, "channel": 1, "type": "channel", "noteNumber": 57, "velocity": 64, "subtype": "noteOn"  },
      { "deltaTime": 239, "channel": 1, "type": "channel", "subtype": "noteOff", "noteNumber": 57, "velocity": 0  },
      { "deltaTime": 1, "channel": 1, "type": "channel", "noteNumber": 61, "velocity": 64, "subtype": "noteOn"  },
      { "deltaTime": 239, "channel": 1, "type": "channel", "subtype": "noteOff", "noteNumber": 61, "velocity": 0  },
      { "deltaTime": 1, "channel": 1, "type": "channel", "noteNumber": 59, "velocity": 64, "subtype": "noteOn"  },
      { "deltaTime": 239, "channel": 1, "type": "channel", "subtype": "noteOff", "noteNumber": 59, "velocity": 0  },
      { "deltaTime": 1, "channel": 1, "type": "channel", "noteNumber": 56, "velocity": 64, "subtype": "noteOn"  },
      { "deltaTime": 239, "channel": 1, "type": "channel", "subtype": "noteOff", "noteNumber": 56, "velocity": 0  },
      { "deltaTime": 1, "channel": 1, "type": "channel", "noteNumber": 52, "velocity": 64, "subtype": "noteOn"  },
      { "deltaTime": 13440, "channel": 1, "type": "channel", "noteNumber": 64, "velocity": 64, "subtype": "noteOn"  },
      { "deltaTime": 239, "channel": 1, "type": "channel", "subtype": "noteOff", "noteNumber": 64, "velocity": 0  },
      { "deltaTime": 1, "channel": 1, "type": "channel", "noteNumber": 64, "velocity": 64, "subtype": "noteOn"  },
      { "deltaTime": 239, "channel": 1, "type": "channel", "subtype": "noteOff", "noteNumber": 64, "velocity": 0  },
      { "deltaTime": 1, "channel": 1, "type": "channel", "noteNumber": 64, "velocity": 64, "subtype": "noteOn"  },
      { "deltaTime": 239, "channel": 1, "type": "channel", "subtype": "noteOff", "noteNumber": 64, "velocity": 0  },
      { "deltaTime": 1, "channel": 1, "type": "channel", "noteNumber": 64, "velocity": 64, "subtype": "noteOn"  },
      { "deltaTime": 239, "channel": 1, "type": "channel", "subtype": "noteOff", "noteNumber": 64, "velocity": 0  },
      { "deltaTime": 481, "channel": 1, "type": "channel", "noteNumber": 52, "velocity": 64, "subtype": "noteOn"  },
      { "deltaTime": 239, "channel": 1, "type": "channel", "subtype": "noteOff", "noteNumber": 52, "velocity": 0  },
      { "deltaTime": 0, "channel": 1, "type": "channel", "subtype": "noteOff", "noteNumber": 52, "velocity": 0  },
      { "deltaTime": 1, "channel": 1, "type": "channel", "noteNumber": 52, "velocity": 64, "subtype": "noteOn"  },
      { "deltaTime": 239, "channel": 1, "type": "channel", "subtype": "noteOff", "noteNumber": 52, "velocity": 0  },
      { "deltaTime": 1, "channel": 1, "type": "channel", "noteNumber": 52, "velocity": 64, "subtype": "noteOn"  },
      { "deltaTime": 239, "channel": 1, "type": "channel", "subtype": "noteOff", "noteNumber": 52, "velocity": 0  },
      { "deltaTime": 1, "channel": 1, "type": "channel", "noteNumber": 52, "velocity": 64, "subtype": "noteOn"  },
      { "deltaTime": 239, "channel": 1, "type": "channel", "subtype": "noteOff", "noteNumber": 52, "velocity": 0  },
      { "deltaTime": 481, "channel": 1, "type": "channel", "noteNumber": 64, "velocity": 64, "subtype": "noteOn"  },
      { "deltaTime": 239, "channel": 1, "type": "channel", "subtype": "noteOff", "noteNumber": 64, "velocity": 0  },
      { "deltaTime": 1, "channel": 1, "type": "channel", "noteNumber": 64, "velocity": 64, "subtype": "noteOn"  },
      { "deltaTime": 239, "channel": 1, "type": "channel", "subtype": "noteOff", "noteNumber": 64, "velocity": 0  },
      { "deltaTime": 1, "channel": 1, "type": "channel", "noteNumber": 64, "velocity": 64, "subtype": "noteOn"  },
      { "deltaTime": 239, "channel": 1, "type": "channel", "subtype": "noteOff", "noteNumber": 64, "velocity": 0  },
      { "deltaTime": 1, "channel": 1, "type": "channel", "noteNumber": 64, "velocity": 64, "subtype": "noteOn"  },
      { "deltaTime": 239, "channel": 1, "type": "channel", "subtype": "noteOff", "noteNumber": 64, "velocity": 0  },
      { "deltaTime": 481, "channel": 1, "type": "channel", "noteNumber": 52, "velocity": 64, "subtype": "noteOn"  },
      { "deltaTime": 239, "channel": 1, "type": "channel", "subtype": "noteOff", "noteNumber": 52, "velocity": 0  },
      { "deltaTime": 1, "channel": 1, "type": "channel", "noteNumber": 52, "velocity": 64, "subtype": "noteOn"  },
      { "deltaTime": 239, "channel": 1, "type": "channel", "subtype": "noteOff", "noteNumber": 52, "velocity": 0  },
      { "deltaTime": 1, "channel": 1, "type": "channel", "noteNumber": 52, "velocity": 64, "subtype": "noteOn"  },
      { "deltaTime": 239, "channel": 1, "type": "channel", "subtype": "noteOff", "noteNumber": 52, "velocity": 0  },
      { "deltaTime": 1, "channel": 1, "type": "channel", "noteNumber": 52, "velocity": 64, "subtype": "noteOn"  },
      { "deltaTime": 239, "channel": 1, "type": "channel", "subtype": "noteOff", "noteNumber": 52, "velocity": 0  },
      { "deltaTime": 1441, "channel": 1, "type": "channel", "noteNumber": 64, "velocity": 64, "subtype": "noteOn"  },
      { "deltaTime": 239, "channel": 1, "type": "channel", "subtype": "noteOff", "noteNumber": 64, "velocity": 0  },
      { "deltaTime": 1, "channel": 1, "type": "channel", "noteNumber": 68, "velocity": 64, "subtype": "noteOn"  },
      { "deltaTime": 239, "channel": 1, "type": "channel", "subtype": "noteOff", "noteNumber": 68, "velocity": 0  },
      { "deltaTime": 1, "channel": 1, "type": "channel", "noteNumber": 64, "velocity": 64, "subtype": "noteOn"  },
      { "deltaTime": 239, "channel": 1, "type": "channel", "subtype": "noteOff", "noteNumber": 64, "velocity": 0  },
      { "deltaTime": 1, "channel": 1, "type": "channel", "noteNumber": 59, "velocity": 64, "subtype": "noteOn"  },
      { "deltaTime": 239, "channel": 1, "type": "channel", "subtype": "noteOff", "noteNumber": 59, "velocity": 0  },
      { "deltaTime": 1, "channel": 1, "type": "channel", "noteNumber": 66, "velocity": 64, "subtype": "noteOn"  },
      { "deltaTime": 239, "channel": 1, "type": "channel", "subtype": "noteOff", "noteNumber": 66, "velocity": 0  },
      { "deltaTime": 1, "channel": 1, "type": "channel", "noteNumber": 62, "velocity": 64, "subtype": "noteOn"  },
      { "deltaTime": 239, "channel": 1, "type": "channel", "subtype": "noteOff", "noteNumber": 62, "velocity": 0  },
      { "deltaTime": 1, "channel": 1, "type": "channel", "noteNumber": 59, "velocity": 64, "subtype": "noteOn"  },
      { "deltaTime": 239, "channel": 1, "type": "channel", "subtype": "noteOff", "noteNumber": 59, "velocity": 0  },
      { "deltaTime": 1, "channel": 1, "type": "channel", "noteNumber": 64, "velocity": 64, "subtype": "noteOn"  },
      { "deltaTime": 239, "channel": 1, "type": "channel", "subtype": "noteOff", "noteNumber": 64, "velocity": 0  },
      { "deltaTime": 1, "channel": 1, "type": "channel", "noteNumber": 61, "velocity": 64, "subtype": "noteOn"  },
      { "deltaTime": 239, "channel": 1, "type": "channel", "subtype": "noteOff", "noteNumber": 61, "velocity": 0  },
      { "deltaTime": 1, "channel": 1, "type": "channel", "noteNumber": 57, "velocity": 64, "subtype": "noteOn"  },
      { "deltaTime": 239, "channel": 1, "type": "channel", "subtype": "noteOff", "noteNumber": 57, "velocity": 0  },
      { "deltaTime": 1, "channel": 1, "type": "channel", "noteNumber": 59, "velocity": 64, "subtype": "noteOn"  },
      { "deltaTime": 239, "channel": 1, "type": "channel", "subtype": "noteOff", "noteNumber": 59, "velocity": 0  },
      { "deltaTime": 1, "channel": 1, "type": "channel", "noteNumber": 56, "velocity": 64, "subtype": "noteOn"  },
      { "deltaTime": 239, "channel": 1, "type": "channel", "subtype": "noteOff", "noteNumber": 56, "velocity": 0  },
      { "deltaTime": 1, "channel": 1, "type": "channel", "noteNumber": 57, "velocity": 64, "subtype": "noteOn"  },
      { "deltaTime": 239, "channel": 1, "type": "channel", "subtype": "noteOff", "noteNumber": 57, "velocity": 0  },
      { "deltaTime": 1, "channel": 1, "type": "channel", "noteNumber": 59, "velocity": 64, "subtype": "noteOn"  },
      { "deltaTime": 239, "channel": 1, "type": "channel", "subtype": "noteOff", "noteNumber": 59, "velocity": 0  },
      { "deltaTime": 1, "channel": 1, "type": "channel", "noteNumber": 64, "velocity": 64, "subtype": "noteOn"  },
      { "deltaTime": 239, "channel": 1, "type": "channel", "subtype": "noteOff", "noteNumber": 64, "velocity": 0  },
      { "deltaTime": 1, "channel": 1, "type": "channel", "noteNumber": 62, "velocity": 64, "subtype": "noteOn"  },
      { "deltaTime": 239, "channel": 1, "type": "channel", "subtype": "noteOff", "noteNumber": 62, "velocity": 0  },
      { "deltaTime": 1, "channel": 1, "type": "channel", "noteNumber": 68, "velocity": 64, "subtype": "noteOn"  },
      { "deltaTime": 239, "channel": 1, "type": "channel", "subtype": "noteOff", "noteNumber": 68, "velocity": 0  },
      { "deltaTime": 1, "channel": 1, "type": "channel", "noteNumber": 64, "velocity": 64, "subtype": "noteOn"  },
      { "deltaTime": 239, "channel": 1, "type": "channel", "subtype": "noteOff", "noteNumber": 64, "velocity": 0  },
      { "deltaTime": 1, "channel": 1, "type": "channel", "noteNumber": 59, "velocity": 64, "subtype": "noteOn"  },
      { "deltaTime": 239, "channel": 1, "type": "channel", "subtype": "noteOff", "noteNumber": 59, "velocity": 0  },
      { "deltaTime": 1, "channel": 1, "type": "channel", "noteNumber": 66, "velocity": 64, "subtype": "noteOn"  },
      { "deltaTime": 239, "channel": 1, "type": "channel", "subtype": "noteOff", "noteNumber": 66, "velocity": 0  },
      { "deltaTime": 1, "channel": 1, "type": "channel", "noteNumber": 62, "velocity": 64, "subtype": "noteOn"  },
      { "deltaTime": 239, "channel": 1, "type": "channel", "subtype": "noteOff", "noteNumber": 62, "velocity": 0  },
      { "deltaTime": 1, "channel": 1, "type": "channel", "noteNumber": 59, "velocity": 64, "subtype": "noteOn"  },
      { "deltaTime": 239, "channel": 1, "type": "channel", "subtype": "noteOff", "noteNumber": 59, "velocity": 0  },
      { "deltaTime": 1, "channel": 1, "type": "channel", "noteNumber": 64, "velocity": 64, "subtype": "noteOn"  },
      { "deltaTime": 239, "channel": 1, "type": "channel", "subtype": "noteOff", "noteNumber": 64, "velocity": 0  },
      { "deltaTime": 1, "channel": 1, "type": "channel", "noteNumber": 61, "velocity": 64, "subtype": "noteOn"  },
      { "deltaTime": 239, "channel": 1, "type": "channel", "subtype": "noteOff", "noteNumber": 61, "velocity": 0  },
      { "deltaTime": 1, "channel": 1, "type": "channel", "noteNumber": 57, "velocity": 64, "subtype": "noteOn"  },
      { "deltaTime": 239, "channel": 1, "type": "channel", "subtype": "noteOff", "noteNumber": 57, "velocity": 0  },
      { "deltaTime": 1, "channel": 1, "type": "channel", "noteNumber": 61, "velocity": 64, "subtype": "noteOn"  },
      { "deltaTime": 239, "channel": 1, "type": "channel", "subtype": "noteOff", "noteNumber": 61, "velocity": 0  },
      { "deltaTime": 1, "channel": 1, "type": "channel", "noteNumber": 59, "velocity": 64, "subtype": "noteOn"  },
      { "deltaTime": 239, "channel": 1, "type": "channel", "subtype": "noteOff", "noteNumber": 59, "velocity": 0  },
      { "deltaTime": 1, "channel": 1, "type": "channel", "noteNumber": 56, "velocity": 64, "subtype": "noteOn"  },
      { "deltaTime": 239, "channel": 1, "type": "channel", "subtype": "noteOff", "noteNumber": 56, "velocity": 0  },
      { "deltaTime": 1, "channel": 1, "type": "channel", "noteNumber": 52, "velocity": 64, "subtype": "noteOn"  },
      { "deltaTime": 239, "channel": 1, "type": "channel", "subtype": "noteOff", "noteNumber": 52, "velocity": 0  },
      { "deltaTime": 1, "channel": 1, "type": "channel", "noteNumber": 59, "velocity": 64, "subtype": "noteOn"  },
      { "deltaTime": 239, "channel": 1, "type": "channel", "subtype": "noteOff", "noteNumber": 59, "velocity": 0  },
      { "deltaTime": 1, "channel": 1, "type": "channel", "noteNumber": 59, "velocity": 64, "subtype": "noteOn"  },
      { "deltaTime": 239, "channel": 1, "type": "channel", "subtype": "noteOff", "noteNumber": 59, "velocity": 0  },
      { "deltaTime": 1, "channel": 1, "type": "channel", "noteNumber": 52, "velocity": 64, "subtype": "noteOn"  },
      { "deltaTime": 239, "channel": 1, "type": "channel", "subtype": "noteOff", "noteNumber": 52, "velocity": 0  },
      { "deltaTime": 1, "channel": 1, "type": "channel", "noteNumber": 58, "velocity": 64, "subtype": "noteOn"  },
      { "deltaTime": 0, "channel": 1, "type": "channel", "noteNumber": 58, "velocity": 64, "subtype": "noteOn"  },
      { "deltaTime": 239, "channel": 1, "type": "channel", "subtype": "noteOff", "noteNumber": 58, "velocity": 0  },
      { "deltaTime": 0, "channel": 1, "type": "channel", "subtype": "noteOff", "noteNumber": 58, "velocity": 0  },
      { "deltaTime": 1, "channel": 1, "type": "channel", "noteNumber": 58, "velocity": 64, "subtype": "noteOn"  },
      { "deltaTime": 0, "channel": 1, "type": "channel", "noteNumber": 58, "velocity": 64, "subtype": "noteOn"  },
      { "deltaTime": 239, "channel": 1, "type": "channel", "subtype": "noteOff", "noteNumber": 58, "velocity": 0  },
      { "deltaTime": 0, "channel": 1, "type": "channel", "subtype": "noteOff", "noteNumber": 58, "velocity": 0  },
      { "deltaTime": 1, "channel": 1, "type": "channel", "noteNumber": 52, "velocity": 64, "subtype": "noteOn"  },
      { "deltaTime": 0, "channel": 1, "type": "channel", "noteNumber": 52, "velocity": 64, "subtype": "noteOn"  },
      { "deltaTime": 239, "channel": 1, "type": "channel", "subtype": "noteOff", "noteNumber": 52, "velocity": 0  },
      { "deltaTime": 0, "channel": 1, "type": "channel", "subtype": "noteOff", "noteNumber": 52, "velocity": 0  },
      { "deltaTime": 1, "channel": 1, "type": "channel", "noteNumber": 59, "velocity": 64, "subtype": "noteOn"  },
      { "deltaTime": 0, "channel": 1, "type": "channel", "noteNumber": 59, "velocity": 64, "subtype": "noteOn"  },
      { "deltaTime": 239, "channel": 1, "type": "channel", "subtype": "noteOff", "noteNumber": 59, "velocity": 0  },
      { "deltaTime": 0, "channel": 1, "type": "channel", "subtype": "noteOff", "noteNumber": 59, "velocity": 0  },
      { "deltaTime": 1, "channel": 1, "type": "channel", "noteNumber": 59, "velocity": 64, "subtype": "noteOn"  },
      { "deltaTime": 0, "channel": 1, "type": "channel", "noteNumber": 59, "velocity": 64, "subtype": "noteOn"  },
      { "deltaTime": 239, "channel": 1, "type": "channel", "subtype": "noteOff", "noteNumber": 59, "velocity": 0  },
      { "deltaTime": 0, "channel": 1, "type": "channel", "subtype": "noteOff", "noteNumber": 59, "velocity": 0  },
      { "deltaTime": 1, "channel": 1, "type": "channel", "noteNumber": 52, "velocity": 64, "subtype": "noteOn"  },
      { "deltaTime": 0, "channel": 1, "type": "channel", "noteNumber": 52, "velocity": 64, "subtype": "noteOn"  },
      { "deltaTime": 239, "channel": 1, "type": "channel", "subtype": "noteOff", "noteNumber": 52, "velocity": 0  },
      { "deltaTime": 0, "channel": 1, "type": "channel", "subtype": "noteOff", "noteNumber": 52, "velocity": 0  },
      { "deltaTime": 1, "channel": 1, "type": "channel", "noteNumber": 58, "velocity": 64, "subtype": "noteOn"  },
      { "deltaTime": 0, "channel": 1, "type": "channel", "noteNumber": 58, "velocity": 64, "subtype": "noteOn"  },
      { "deltaTime": 239, "channel": 1, "type": "channel", "subtype": "noteOff", "noteNumber": 58, "velocity": 0  },
      { "deltaTime": 0, "channel": 1, "type": "channel", "subtype": "noteOff", "noteNumber": 58, "velocity": 0  },
      { "deltaTime": 1, "channel": 1, "type": "channel", "noteNumber": 58, "velocity": 64, "subtype": "noteOn"  },
      { "deltaTime": 0, "channel": 1, "type": "channel", "noteNumber": 58, "velocity": 64, "subtype": "noteOn"  },
      { "deltaTime": 239, "channel": 1, "type": "channel", "subtype": "noteOff", "noteNumber": 58, "velocity": 0  },
      { "deltaTime": 0, "channel": 1, "type": "channel", "subtype": "noteOff", "noteNumber": 58, "velocity": 0  },
      { "deltaTime": 1, "channel": 1, "type": "channel", "noteNumber": 52, "velocity": 64, "subtype": "noteOn"  },
      { "deltaTime": 0, "channel": 1, "type": "channel", "noteNumber": 52, "velocity": 64, "subtype": "noteOn"  },
      { "deltaTime": 239, "channel": 1, "type": "channel", "subtype": "noteOff", "noteNumber": 52, "velocity": 0  },
      { "deltaTime": 0, "channel": 1, "type": "channel", "subtype": "noteOff", "noteNumber": 52, "velocity": 0  },
      { "deltaTime": 1, "channel": 1, "type": "channel", "noteNumber": 59, "velocity": 64, "subtype": "noteOn"  },
      { "deltaTime": 0, "channel": 1, "type": "channel", "noteNumber": 59, "velocity": 64, "subtype": "noteOn"  },
      { "deltaTime": 239, "channel": 1, "type": "channel", "subtype": "noteOff", "noteNumber": 59, "velocity": 0  },
      { "deltaTime": 0, "channel": 1, "type": "channel", "subtype": "noteOff", "noteNumber": 59, "velocity": 0  },
      { "deltaTime": 1, "channel": 1, "type": "channel", "noteNumber": 52, "velocity": 64, "subtype": "noteOn"  },
      { "deltaTime": 0, "channel": 1, "type": "channel", "noteNumber": 52, "velocity": 64, "subtype": "noteOn"  },
      { "deltaTime": 239, "channel": 1, "type": "channel", "subtype": "noteOff", "noteNumber": 52, "velocity": 0  },
      { "deltaTime": 0, "channel": 1, "type": "channel", "subtype": "noteOff", "noteNumber": 52, "velocity": 0  },
      { "deltaTime": 1, "channel": 1, "type": "channel", "noteNumber": 60, "velocity": 64, "subtype": "noteOn"  },
      { "deltaTime": 0, "channel": 1, "type": "channel", "noteNumber": 60, "velocity": 64, "subtype": "noteOn"  },
      { "deltaTime": 239, "channel": 1, "type": "channel", "subtype": "noteOff", "noteNumber": 60, "velocity": 0  },
      { "deltaTime": 0, "channel": 1, "type": "channel", "subtype": "noteOff", "noteNumber": 60, "velocity": 0  },
      { "deltaTime": 1, "channel": 1, "type": "channel", "noteNumber": 52, "velocity": 64, "subtype": "noteOn"  },
      { "deltaTime": 0, "channel": 1, "type": "channel", "noteNumber": 52, "velocity": 64, "subtype": "noteOn"  },
      { "deltaTime": 239, "channel": 1, "type": "channel", "subtype": "noteOff", "noteNumber": 52, "velocity": 0  },
      { "deltaTime": 0, "channel": 1, "type": "channel", "subtype": "noteOff", "noteNumber": 52, "velocity": 0  },
      { "deltaTime": 1, "channel": 1, "type": "channel", "noteNumber": 59, "velocity": 64, "subtype": "noteOn"  },
      { "deltaTime": 0, "channel": 1, "type": "channel", "noteNumber": 59, "velocity": 64, "subtype": "noteOn"  },
      { "deltaTime": 0, "channel": 1, "type": "channel", "noteNumber": 59, "velocity": 64, "subtype": "noteOn"  },
      { "deltaTime": 0, "channel": 1, "type": "channel", "noteNumber": 59, "velocity": 64, "subtype": "noteOn"  },
      { "deltaTime": 0, "channel": 1, "type": "channel", "noteNumber": 59, "velocity": 64, "subtype": "noteOn"  },
      { "deltaTime": 0, "channel": 1, "type": "channel", "noteNumber": 59, "velocity": 64, "subtype": "noteOn"  },
      { "deltaTime": 0, "channel": 1, "type": "channel", "noteNumber": 59, "velocity": 64, "subtype": "noteOn"  },
      { "deltaTime": 0, "channel": 1, "type": "channel", "noteNumber": 59, "velocity": 64, "subtype": "noteOn"  },
      { "deltaTime": 239, "channel": 1, "type": "channel", "subtype": "noteOff", "noteNumber": 59, "velocity": 0  },
      { "deltaTime": 0, "channel": 1, "type": "channel", "subtype": "noteOff", "noteNumber": 59, "velocity": 0  },
      { "deltaTime": 0, "channel": 1, "type": "channel", "subtype": "noteOff", "noteNumber": 59, "velocity": 0  },
      { "deltaTime": 0, "channel": 1, "type": "channel", "subtype": "noteOff", "noteNumber": 59, "velocity": 0  },
      { "deltaTime": 0, "channel": 1, "type": "channel", "subtype": "noteOff", "noteNumber": 59, "velocity": 0  },
      { "deltaTime": 0, "channel": 1, "type": "channel", "subtype": "noteOff", "noteNumber": 59, "velocity": 0  },
      { "deltaTime": 0, "channel": 1, "type": "channel", "subtype": "noteOff", "noteNumber": 59, "velocity": 0  },
      { "deltaTime": 0, "channel": 1, "type": "channel", "subtype": "noteOff", "noteNumber": 59, "velocity": 0  },
      { "deltaTime": 1, "channel": 1, "type": "channel", "noteNumber": 59, "velocity": 64, "subtype": "noteOn"  },
      { "deltaTime": 0, "channel": 1, "type": "channel", "noteNumber": 59, "velocity": 64, "subtype": "noteOn"  },
      { "deltaTime": 0, "channel": 1, "type": "channel", "noteNumber": 59, "velocity": 64, "subtype": "noteOn"  },
      { "deltaTime": 0, "channel": 1, "type": "channel", "noteNumber": 59, "velocity": 64, "subtype": "noteOn"  },
      { "deltaTime": 0, "channel": 1, "type": "channel", "noteNumber": 59, "velocity": 64, "subtype": "noteOn"  },
      { "deltaTime": 0, "channel": 1, "type": "channel", "noteNumber": 59, "velocity": 64, "subtype": "noteOn"  },
      { "deltaTime": 0, "channel": 1, "type": "channel", "noteNumber": 59, "velocity": 64, "subtype": "noteOn"  },
      { "deltaTime": 0, "channel": 1, "type": "channel", "noteNumber": 59, "velocity": 64, "subtype": "noteOn"  },
      { "deltaTime": 239, "channel": 1, "type": "channel", "subtype": "noteOff", "noteNumber": 59, "velocity": 0  },
      { "deltaTime": 0, "channel": 1, "type": "channel", "subtype": "noteOff", "noteNumber": 59, "velocity": 0  },
      { "deltaTime": 0, "channel": 1, "type": "channel", "subtype": "noteOff", "noteNumber": 59, "velocity": 0  },
      { "deltaTime": 0, "channel": 1, "type": "channel", "subtype": "noteOff", "noteNumber": 59, "velocity": 0  },
      { "deltaTime": 0, "channel": 1, "type": "channel", "subtype": "noteOff", "noteNumber": 59, "velocity": 0  },
      { "deltaTime": 0, "channel": 1, "type": "channel", "subtype": "noteOff", "noteNumber": 59, "velocity": 0  },
      { "deltaTime": 0, "channel": 1, "type": "channel", "subtype": "noteOff", "noteNumber": 59, "velocity": 0  },
      { "deltaTime": 0, "channel": 1, "type": "channel", "subtype": "noteOff", "noteNumber": 59, "velocity": 0  },
      { "deltaTime": 1, "channel": 1, "type": "channel", "noteNumber": 52, "velocity": 64, "subtype": "noteOn"  },
      { "deltaTime": 0, "channel": 1, "type": "channel", "noteNumber": 52, "velocity": 64, "subtype": "noteOn"  },
      { "deltaTime": 0, "channel": 1, "type": "channel", "noteNumber": 52, "velocity": 64, "subtype": "noteOn"  },
      { "deltaTime": 0, "channel": 1, "type": "channel", "noteNumber": 52, "velocity": 64, "subtype": "noteOn"  },
      { "deltaTime": 0, "channel": 1, "type": "channel", "noteNumber": 52, "velocity": 64, "subtype": "noteOn"  },
      { "deltaTime": 0, "channel": 1, "type": "channel", "noteNumber": 52, "velocity": 64, "subtype": "noteOn"  },
      { "deltaTime": 0, "channel": 1, "type": "channel", "noteNumber": 52, "velocity": 64, "subtype": "noteOn"  },
      { "deltaTime": 0, "channel": 1, "type": "channel", "noteNumber": 52, "velocity": 64, "subtype": "noteOn"  },
      { "deltaTime": 239, "channel": 1, "type": "channel", "subtype": "noteOff", "noteNumber": 52, "velocity": 0  },
      { "deltaTime": 0, "channel": 1, "type": "channel", "subtype": "noteOff", "noteNumber": 52, "velocity": 0  },
      { "deltaTime": 0, "channel": 1, "type": "channel", "subtype": "noteOff", "noteNumber": 52, "velocity": 0  },
      { "deltaTime": 0, "channel": 1, "type": "channel", "subtype": "noteOff", "noteNumber": 52, "velocity": 0  },
      { "deltaTime": 0, "channel": 1, "type": "channel", "subtype": "noteOff", "noteNumber": 52, "velocity": 0  },
      { "deltaTime": 0, "channel": 1, "type": "channel", "subtype": "noteOff", "noteNumber": 52, "velocity": 0  },
      { "deltaTime": 0, "channel": 1, "type": "channel", "subtype": "noteOff", "noteNumber": 52, "velocity": 0  },
      { "deltaTime": 0, "channel": 1, "type": "channel", "subtype": "noteOff", "noteNumber": 52, "velocity": 0  },
      { "deltaTime": 1, "channel": 1, "type": "channel", "noteNumber": 58, "velocity": 64, "subtype": "noteOn"  },
      { "deltaTime": 0, "channel": 1, "type": "channel", "noteNumber": 58, "velocity": 64, "subtype": "noteOn"  },
      { "deltaTime": 0, "channel": 1, "type": "channel", "noteNumber": 58, "velocity": 64, "subtype": "noteOn"  },
      { "deltaTime": 0, "channel": 1, "type": "channel", "noteNumber": 58, "velocity": 64, "subtype": "noteOn"  },
      { "deltaTime": 0, "channel": 1, "type": "channel", "noteNumber": 58, "velocity": 64, "subtype": "noteOn"  },
      { "deltaTime": 0, "channel": 1, "type": "channel", "noteNumber": 58, "velocity": 64, "subtype": "noteOn"  },
      { "deltaTime": 0, "channel": 1, "type": "channel", "noteNumber": 58, "velocity": 64, "subtype": "noteOn"  },
      { "deltaTime": 0, "channel": 1, "type": "channel", "noteNumber": 58, "velocity": 64, "subtype": "noteOn"  },
      { "deltaTime": 239, "channel": 1, "type": "channel", "subtype": "noteOff", "noteNumber": 58, "velocity": 0  },
      { "deltaTime": 0, "channel": 1, "type": "channel", "subtype": "noteOff", "noteNumber": 58, "velocity": 0  },
      { "deltaTime": 0, "channel": 1, "type": "channel", "subtype": "noteOff", "noteNumber": 58, "velocity": 0  },
      { "deltaTime": 0, "channel": 1, "type": "channel", "subtype": "noteOff", "noteNumber": 58, "velocity": 0  },
      { "deltaTime": 0, "channel": 1, "type": "channel", "subtype": "noteOff", "noteNumber": 58, "velocity": 0  },
      { "deltaTime": 0, "channel": 1, "type": "channel", "subtype": "noteOff", "noteNumber": 58, "velocity": 0  },
      { "deltaTime": 0, "channel": 1, "type": "channel", "subtype": "noteOff", "noteNumber": 58, "velocity": 0  },
      { "deltaTime": 0, "channel": 1, "type": "channel", "subtype": "noteOff", "noteNumber": 58, "velocity": 0  },
      { "deltaTime": 1, "channel": 1, "type": "channel", "noteNumber": 58, "velocity": 64, "subtype": "noteOn"  },
      { "deltaTime": 0, "channel": 1, "type": "channel", "noteNumber": 58, "velocity": 64, "subtype": "noteOn"  },
      { "deltaTime": 0, "channel": 1, "type": "channel", "noteNumber": 58, "velocity": 64, "subtype": "noteOn"  },
      { "deltaTime": 0, "channel": 1, "type": "channel", "noteNumber": 58, "velocity": 64, "subtype": "noteOn"  },
      { "deltaTime": 0, "channel": 1, "type": "channel", "noteNumber": 58, "velocity": 64, "subtype": "noteOn"  },
      { "deltaTime": 0, "channel": 1, "type": "channel", "noteNumber": 58, "velocity": 64, "subtype": "noteOn"  },
      { "deltaTime": 0, "channel": 1, "type": "channel", "noteNumber": 58, "velocity": 64, "subtype": "noteOn"  },
      { "deltaTime": 0, "channel": 1, "type": "channel", "noteNumber": 58, "velocity": 64, "subtype": "noteOn"  },
      { "deltaTime": 239, "channel": 1, "type": "channel", "subtype": "noteOff", "noteNumber": 58, "velocity": 0  },
      { "deltaTime": 0, "channel": 1, "type": "channel", "subtype": "noteOff", "noteNumber": 58, "velocity": 0  },
      { "deltaTime": 0, "channel": 1, "type": "channel", "subtype": "noteOff", "noteNumber": 58, "velocity": 0  },
      { "deltaTime": 0, "channel": 1, "type": "channel", "subtype": "noteOff", "noteNumber": 58, "velocity": 0  },
      { "deltaTime": 0, "channel": 1, "type": "channel", "subtype": "noteOff", "noteNumber": 58, "velocity": 0  },
      { "deltaTime": 0, "channel": 1, "type": "channel", "subtype": "noteOff", "noteNumber": 58, "velocity": 0  },
      { "deltaTime": 0, "channel": 1, "type": "channel", "subtype": "noteOff", "noteNumber": 58, "velocity": 0  },
      { "deltaTime": 0, "channel": 1, "type": "channel", "subtype": "noteOff", "noteNumber": 58, "velocity": 0  },
      { "deltaTime": 1, "channel": 1, "type": "channel", "noteNumber": 52, "velocity": 64, "subtype": "noteOn"  },
      { "deltaTime": 0, "channel": 1, "type": "channel", "noteNumber": 52, "velocity": 64, "subtype": "noteOn"  },
      { "deltaTime": 0, "channel": 1, "type": "channel", "noteNumber": 52, "velocity": 64, "subtype": "noteOn"  },
      { "deltaTime": 0, "channel": 1, "type": "channel", "noteNumber": 52, "velocity": 64, "subtype": "noteOn"  },
      { "deltaTime": 0, "channel": 1, "type": "channel", "noteNumber": 52, "velocity": 64, "subtype": "noteOn"  },
      { "deltaTime": 0, "channel": 1, "type": "channel", "noteNumber": 52, "velocity": 64, "subtype": "noteOn"  },
      { "deltaTime": 0, "channel": 1, "type": "channel", "noteNumber": 52, "velocity": 64, "subtype": "noteOn"  },
      { "deltaTime": 0, "channel": 1, "type": "channel", "noteNumber": 52, "velocity": 64, "subtype": "noteOn"  },
      { "deltaTime": 239, "channel": 1, "type": "channel", "subtype": "noteOff", "noteNumber": 52, "velocity": 0  },
      { "deltaTime": 0, "channel": 1, "type": "channel", "subtype": "noteOff", "noteNumber": 52, "velocity": 0  },
      { "deltaTime": 0, "channel": 1, "type": "channel", "subtype": "noteOff", "noteNumber": 52, "velocity": 0  },
      { "deltaTime": 0, "channel": 1, "type": "channel", "subtype": "noteOff", "noteNumber": 52, "velocity": 0  },
      { "deltaTime": 0, "channel": 1, "type": "channel", "subtype": "noteOff", "noteNumber": 52, "velocity": 0  },
      { "deltaTime": 0, "channel": 1, "type": "channel", "subtype": "noteOff", "noteNumber": 52, "velocity": 0  },
      { "deltaTime": 0, "channel": 1, "type": "channel", "subtype": "noteOff", "noteNumber": 52, "velocity": 0  },
      { "deltaTime": 0, "channel": 1, "type": "channel", "subtype": "noteOff", "noteNumber": 52, "velocity": 0  },
      { "deltaTime": 1, "channel": 1, "type": "channel", "noteNumber": 59, "velocity": 64, "subtype": "noteOn"  },
      { "deltaTime": 0, "channel": 1, "type": "channel", "noteNumber": 59, "velocity": 64, "subtype": "noteOn"  },
      { "deltaTime": 0, "channel": 1, "type": "channel", "noteNumber": 59, "velocity": 64, "subtype": "noteOn"  },
      { "deltaTime": 0, "channel": 1, "type": "channel", "noteNumber": 59, "velocity": 64, "subtype": "noteOn"  },
      { "deltaTime": 0, "channel": 1, "type": "channel", "noteNumber": 59, "velocity": 64, "subtype": "noteOn"  },
      { "deltaTime": 0, "channel": 1, "type": "channel", "noteNumber": 59, "velocity": 64, "subtype": "noteOn"  },
      { "deltaTime": 0, "channel": 1, "type": "channel", "noteNumber": 59, "velocity": 64, "subtype": "noteOn"  },
      { "deltaTime": 0, "channel": 1, "type": "channel", "noteNumber": 59, "velocity": 64, "subtype": "noteOn"  },
      { "deltaTime": 239, "channel": 1, "type": "channel", "subtype": "noteOff", "noteNumber": 59, "velocity": 0  },
      { "deltaTime": 0, "channel": 1, "type": "channel", "subtype": "noteOff", "noteNumber": 59, "velocity": 0  },
      { "deltaTime": 0, "channel": 1, "type": "channel", "subtype": "noteOff", "noteNumber": 59, "velocity": 0  },
      { "deltaTime": 0, "channel": 1, "type": "channel", "subtype": "noteOff", "noteNumber": 59, "velocity": 0  },
      { "deltaTime": 0, "channel": 1, "type": "channel", "subtype": "noteOff", "noteNumber": 59, "velocity": 0  },
      { "deltaTime": 0, "channel": 1, "type": "channel", "subtype": "noteOff", "noteNumber": 59, "velocity": 0  },
      { "deltaTime": 0, "channel": 1, "type": "channel", "subtype": "noteOff", "noteNumber": 59, "velocity": 0  },
      { "deltaTime": 0, "channel": 1, "type": "channel", "subtype": "noteOff", "noteNumber": 59, "velocity": 0  },
      { "deltaTime": 1, "channel": 1, "type": "channel", "noteNumber": 59, "velocity": 64, "subtype": "noteOn"  },
      { "deltaTime": 0, "channel": 1, "type": "channel", "noteNumber": 59, "velocity": 64, "subtype": "noteOn"  },
      { "deltaTime": 0, "channel": 1, "type": "channel", "noteNumber": 59, "velocity": 64, "subtype": "noteOn"  },
      { "deltaTime": 0, "channel": 1, "type": "channel", "noteNumber": 59, "velocity": 64, "subtype": "noteOn"  },
      { "deltaTime": 0, "channel": 1, "type": "channel", "noteNumber": 59, "velocity": 64, "subtype": "noteOn"  },
      { "deltaTime": 0, "channel": 1, "type": "channel", "noteNumber": 59, "velocity": 64, "subtype": "noteOn"  },
      { "deltaTime": 0, "channel": 1, "type": "channel", "noteNumber": 59, "velocity": 64, "subtype": "noteOn"  },
      { "deltaTime": 0, "channel": 1, "type": "channel", "noteNumber": 59, "velocity": 64, "subtype": "noteOn"  },
      { "deltaTime": 239, "channel": 1, "type": "channel", "subtype": "noteOff", "noteNumber": 59, "velocity": 0  },
      { "deltaTime": 0, "channel": 1, "type": "channel", "subtype": "noteOff", "noteNumber": 59, "velocity": 0  },
      { "deltaTime": 0, "channel": 1, "type": "channel", "subtype": "noteOff", "noteNumber": 59, "velocity": 0  },
      { "deltaTime": 0, "channel": 1, "type": "channel", "subtype": "noteOff", "noteNumber": 59, "velocity": 0  },
      { "deltaTime": 0, "channel": 1, "type": "channel", "subtype": "noteOff", "noteNumber": 59, "velocity": 0  },
      { "deltaTime": 0, "channel": 1, "type": "channel", "subtype": "noteOff", "noteNumber": 59, "velocity": 0  },
      { "deltaTime": 0, "channel": 1, "type": "channel", "subtype": "noteOff", "noteNumber": 59, "velocity": 0  },
      { "deltaTime": 0, "channel": 1, "type": "channel", "subtype": "noteOff", "noteNumber": 59, "velocity": 0  },
      { "deltaTime": 1, "channel": 1, "type": "channel", "noteNumber": 52, "velocity": 64, "subtype": "noteOn"  },
      { "deltaTime": 0, "channel": 1, "type": "channel", "noteNumber": 52, "velocity": 64, "subtype": "noteOn"  },
      { "deltaTime": 0, "channel": 1, "type": "channel", "noteNumber": 52, "velocity": 64, "subtype": "noteOn"  },
      { "deltaTime": 0, "channel": 1, "type": "channel", "noteNumber": 52, "velocity": 64, "subtype": "noteOn"  },
      { "deltaTime": 0, "channel": 1, "type": "channel", "noteNumber": 52, "velocity": 64, "subtype": "noteOn"  },
      { "deltaTime": 0, "channel": 1, "type": "channel", "noteNumber": 52, "velocity": 64, "subtype": "noteOn"  },
      { "deltaTime": 0, "channel": 1, "type": "channel", "noteNumber": 52, "velocity": 64, "subtype": "noteOn"  },
      { "deltaTime": 0, "channel": 1, "type": "channel", "noteNumber": 52, "velocity": 64, "subtype": "noteOn"  },
      { "deltaTime": 239, "channel": 1, "type": "channel", "subtype": "noteOff", "noteNumber": 52, "velocity": 0  },
      { "deltaTime": 0, "channel": 1, "type": "channel", "subtype": "noteOff", "noteNumber": 52, "velocity": 0  },
      { "deltaTime": 0, "channel": 1, "type": "channel", "subtype": "noteOff", "noteNumber": 52, "velocity": 0  },
      { "deltaTime": 0, "channel": 1, "type": "channel", "subtype": "noteOff", "noteNumber": 52, "velocity": 0  },
      { "deltaTime": 0, "channel": 1, "type": "channel", "subtype": "noteOff", "noteNumber": 52, "velocity": 0  },
      { "deltaTime": 0, "channel": 1, "type": "channel", "subtype": "noteOff", "noteNumber": 52, "velocity": 0  },
      { "deltaTime": 0, "channel": 1, "type": "channel", "subtype": "noteOff", "noteNumber": 52, "velocity": 0  },
      { "deltaTime": 0, "channel": 1, "type": "channel", "subtype": "noteOff", "noteNumber": 52, "velocity": 0  },
      { "deltaTime": 1, "channel": 1, "type": "channel", "noteNumber": 58, "velocity": 64, "subtype": "noteOn"  },
      { "deltaTime": 0, "channel": 1, "type": "channel", "noteNumber": 58, "velocity": 64, "subtype": "noteOn"  },
      { "deltaTime": 0, "channel": 1, "type": "channel", "noteNumber": 58, "velocity": 64, "subtype": "noteOn"  },
      { "deltaTime": 0, "channel": 1, "type": "channel", "noteNumber": 58, "velocity": 64, "subtype": "noteOn"  },
      { "deltaTime": 0, "channel": 1, "type": "channel", "noteNumber": 58, "velocity": 64, "subtype": "noteOn"  },
      { "deltaTime": 0, "channel": 1, "type": "channel", "noteNumber": 58, "velocity": 64, "subtype": "noteOn"  },
      { "deltaTime": 0, "channel": 1, "type": "channel", "noteNumber": 58, "velocity": 64, "subtype": "noteOn"  },
      { "deltaTime": 0, "channel": 1, "type": "channel", "noteNumber": 58, "velocity": 64, "subtype": "noteOn"  },
      { "deltaTime": 239, "channel": 1, "type": "channel", "subtype": "noteOff", "noteNumber": 58, "velocity": 0  },
      { "deltaTime": 0, "channel": 1, "type": "channel", "subtype": "noteOff", "noteNumber": 58, "velocity": 0  },
      { "deltaTime": 0, "channel": 1, "type": "channel", "subtype": "noteOff", "noteNumber": 58, "velocity": 0  },
      { "deltaTime": 0, "channel": 1, "type": "channel", "subtype": "noteOff", "noteNumber": 58, "velocity": 0  },
      { "deltaTime": 0, "channel": 1, "type": "channel", "subtype": "noteOff", "noteNumber": 58, "velocity": 0  },
      { "deltaTime": 0, "channel": 1, "type": "channel", "subtype": "noteOff", "noteNumber": 58, "velocity": 0  },
      { "deltaTime": 0, "channel": 1, "type": "channel", "subtype": "noteOff", "noteNumber": 58, "velocity": 0  },
      { "deltaTime": 0, "channel": 1, "type": "channel", "subtype": "noteOff", "noteNumber": 58, "velocity": 0  },
      { "deltaTime": 1, "channel": 1, "type": "channel", "noteNumber": 52, "velocity": 64, "subtype": "noteOn"  },
      { "deltaTime": 0, "channel": 1, "type": "channel", "noteNumber": 52, "velocity": 64, "subtype": "noteOn"  },
      { "deltaTime": 239, "channel": 1, "type": "channel", "subtype": "noteOff", "noteNumber": 52, "velocity": 0  },
      { "deltaTime": 0, "channel": 1, "type": "channel", "subtype": "noteOff", "noteNumber": 52, "velocity": 0  },
      { "deltaTime": 1, "channel": 1, "type": "channel", "noteNumber": 52, "velocity": 64, "subtype": "noteOn"  },
      { "deltaTime": 0, "channel": 1, "type": "channel", "noteNumber": 52, "velocity": 64, "subtype": "noteOn"  },
      { "deltaTime": 239, "channel": 1, "type": "channel", "subtype": "noteOff", "noteNumber": 52, "velocity": 0  },
      { "deltaTime": 0, "channel": 1, "type": "channel", "subtype": "noteOff", "noteNumber": 52, "velocity": 0  },
      { "deltaTime": 1, "channel": 1, "type": "channel", "noteNumber": 59, "velocity": 64, "subtype": "noteOn"  },
      { "deltaTime": 0, "channel": 1, "type": "channel", "noteNumber": 59, "velocity": 64, "subtype": "noteOn"  },
      { "deltaTime": 239, "channel": 1, "type": "channel", "subtype": "noteOff", "noteNumber": 59, "velocity": 0  },
      { "deltaTime": 0, "channel": 1, "type": "channel", "subtype": "noteOff", "noteNumber": 59, "velocity": 0  },
      { "deltaTime": 1, "channel": 1, "type": "channel", "noteNumber": 59, "velocity": 64, "subtype": "noteOn"  },
      { "deltaTime": 0, "channel": 1, "type": "channel", "noteNumber": 59, "velocity": 64, "subtype": "noteOn"  },
      { "deltaTime": 239, "channel": 1, "type": "channel", "subtype": "noteOff", "noteNumber": 59, "velocity": 0  },
      { "deltaTime": 0, "channel": 1, "type": "channel", "subtype": "noteOff", "noteNumber": 59, "velocity": 0  },
      { "deltaTime": 1, "channel": 1, "type": "channel", "noteNumber": 52, "velocity": 64, "subtype": "noteOn"  },
      { "deltaTime": 0, "channel": 1, "type": "channel", "noteNumber": 52, "velocity": 64, "subtype": "noteOn"  },
      { "deltaTime": 239, "channel": 1, "type": "channel", "subtype": "noteOff", "noteNumber": 52, "velocity": 0  },
      { "deltaTime": 0, "channel": 1, "type": "channel", "subtype": "noteOff", "noteNumber": 52, "velocity": 0  },
      { "deltaTime": 1, "channel": 1, "type": "channel", "noteNumber": 58, "velocity": 64, "subtype": "noteOn"  },
      { "deltaTime": 0, "channel": 1, "type": "channel", "noteNumber": 58, "velocity": 64, "subtype": "noteOn"  },
      { "deltaTime": 239, "channel": 1, "type": "channel", "subtype": "noteOff", "noteNumber": 58, "velocity": 0  },
      { "deltaTime": 0, "channel": 1, "type": "channel", "subtype": "noteOff", "noteNumber": 58, "velocity": 0  },
      { "deltaTime": 1, "channel": 1, "type": "channel", "noteNumber": 58, "velocity": 64, "subtype": "noteOn"  },
      { "deltaTime": 0, "channel": 1, "type": "channel", "noteNumber": 58, "velocity": 64, "subtype": "noteOn"  },
      { "deltaTime": 239, "channel": 1, "type": "channel", "subtype": "noteOff", "noteNumber": 58, "velocity": 0  },
      { "deltaTime": 0, "channel": 1, "type": "channel", "subtype": "noteOff", "noteNumber": 58, "velocity": 0  },
      { "deltaTime": 1, "channel": 1, "type": "channel", "noteNumber": 52, "velocity": 64, "subtype": "noteOn"  },
      { "deltaTime": 0, "channel": 1, "type": "channel", "noteNumber": 52, "velocity": 64, "subtype": "noteOn"  },
      { "deltaTime": 239, "channel": 1, "type": "channel", "subtype": "noteOff", "noteNumber": 52, "velocity": 0  },
      { "deltaTime": 0, "channel": 1, "type": "channel", "subtype": "noteOff", "noteNumber": 52, "velocity": 0  },
      { "deltaTime": 1, "channel": 1, "type": "channel", "noteNumber": 59, "velocity": 64, "subtype": "noteOn"  },
      { "deltaTime": 0, "channel": 1, "type": "channel", "noteNumber": 59, "velocity": 64, "subtype": "noteOn"  },
      { "deltaTime": 239, "channel": 1, "type": "channel", "subtype": "noteOff", "noteNumber": 59, "velocity": 0  },
      { "deltaTime": 0, "channel": 1, "type": "channel", "subtype": "noteOff", "noteNumber": 59, "velocity": 0  },
      { "deltaTime": 1, "channel": 1, "type": "channel", "noteNumber": 59, "velocity": 64, "subtype": "noteOn"  },
      { "deltaTime": 0, "channel": 1, "type": "channel", "noteNumber": 59, "velocity": 64, "subtype": "noteOn"  },
      { "deltaTime": 239, "channel": 1, "type": "channel", "subtype": "noteOff", "noteNumber": 59, "velocity": 0  },
      { "deltaTime": 0, "channel": 1, "type": "channel", "subtype": "noteOff", "noteNumber": 59, "velocity": 0  },
      { "deltaTime": 1, "channel": 1, "type": "channel", "noteNumber": 52, "velocity": 64, "subtype": "noteOn"  },
      { "deltaTime": 0, "channel": 1, "type": "channel", "noteNumber": 52, "velocity": 64, "subtype": "noteOn"  },
      { "deltaTime": 239, "channel": 1, "type": "channel", "subtype": "noteOff", "noteNumber": 52, "velocity": 0  },
      { "deltaTime": 0, "channel": 1, "type": "channel", "subtype": "noteOff", "noteNumber": 52, "velocity": 0  },
      { "deltaTime": 1, "channel": 1, "type": "channel", "noteNumber": 58, "velocity": 64, "subtype": "noteOn"  },
      { "deltaTime": 0, "channel": 1, "type": "channel", "noteNumber": 58, "velocity": 64, "subtype": "noteOn"  },
      { "deltaTime": 239, "channel": 1, "type": "channel", "subtype": "noteOff", "noteNumber": 58, "velocity": 0  },
      { "deltaTime": 0, "channel": 1, "type": "channel", "subtype": "noteOff", "noteNumber": 58, "velocity": 0  },
      { "deltaTime": 1, "channel": 1, "type": "channel", "noteNumber": 58, "velocity": 64, "subtype": "noteOn"  },
      { "deltaTime": 0, "channel": 1, "type": "channel", "noteNumber": 58, "velocity": 64, "subtype": "noteOn"  },
      { "deltaTime": 239, "channel": 1, "type": "channel", "subtype": "noteOff", "noteNumber": 58, "velocity": 0  },
      { "deltaTime": 0, "channel": 1, "type": "channel", "subtype": "noteOff", "noteNumber": 58, "velocity": 0  },
      { "deltaTime": 1, "channel": 1, "type": "channel", "noteNumber": 52, "velocity": 64, "subtype": "noteOn"  },
      { "deltaTime": 0, "channel": 1, "type": "channel", "noteNumber": 52, "velocity": 64, "subtype": "noteOn"  },
      { "deltaTime": 239, "channel": 1, "type": "channel", "subtype": "noteOff", "noteNumber": 52, "velocity": 0  },
      { "deltaTime": 0, "channel": 1, "type": "channel", "subtype": "noteOff", "noteNumber": 52, "velocity": 0  },
      { "deltaTime": 1, "channel": 1, "type": "channel", "noteNumber": 59, "velocity": 64, "subtype": "noteOn"  },
      { "deltaTime": 0, "channel": 1, "type": "channel", "noteNumber": 59, "velocity": 64, "subtype": "noteOn"  },
      { "deltaTime": 239, "channel": 1, "type": "channel", "subtype": "noteOff", "noteNumber": 59, "velocity": 0  },
      { "deltaTime": 0, "channel": 1, "type": "channel", "subtype": "noteOff", "noteNumber": 59, "velocity": 0  },
      { "deltaTime": 1, "channel": 1, "type": "channel", "noteNumber": 52, "velocity": 64, "subtype": "noteOn"  },
      { "deltaTime": 0, "channel": 1, "type": "channel", "noteNumber": 52, "velocity": 64, "subtype": "noteOn"  },
      { "deltaTime": 239, "channel": 1, "type": "channel", "subtype": "noteOff", "noteNumber": 52, "velocity": 0  },
      { "deltaTime": 0, "channel": 1, "type": "channel", "subtype": "noteOff", "noteNumber": 52, "velocity": 0  },
      { "deltaTime": 1, "channel": 1, "type": "channel", "noteNumber": 60, "velocity": 64, "subtype": "noteOn"  },
      { "deltaTime": 0, "channel": 1, "type": "channel", "noteNumber": 60, "velocity": 64, "subtype": "noteOn"  },
      { "deltaTime": 239, "channel": 1, "type": "channel", "subtype": "noteOff", "noteNumber": 60, "velocity": 0  },
      { "deltaTime": 0, "channel": 1, "type": "channel", "subtype": "noteOff", "noteNumber": 60, "velocity": 0  },
      { "deltaTime": 1, "channel": 1, "type": "channel", "noteNumber": 52, "velocity": 64, "subtype": "noteOn"  },
      { "deltaTime": 0, "channel": 1, "type": "channel", "noteNumber": 52, "velocity": 64, "subtype": "noteOn"  },
      { "deltaTime": 239, "channel": 1, "type": "channel", "subtype": "noteOff", "noteNumber": 52, "velocity": 0  },
      { "deltaTime": 0, "channel": 1, "type": "channel", "subtype": "noteOff", "noteNumber": 52, "velocity": 0  },
      { "deltaTime": 1, "channel": 1, "type": "channel", "noteNumber": 59, "velocity": 64, "subtype": "noteOn"  },
      { "deltaTime": 0, "channel": 1, "type": "channel", "noteNumber": 59, "velocity": 64, "subtype": "noteOn"  },
      { "deltaTime": 239, "channel": 1, "type": "channel", "subtype": "noteOff", "noteNumber": 59, "velocity": 0  },
      { "deltaTime": 0, "channel": 1, "type": "channel", "subtype": "noteOff", "noteNumber": 59, "velocity": 0  },
      { "deltaTime": 1, "channel": 1, "type": "channel", "noteNumber": 59, "velocity": 64, "subtype": "noteOn"  },
      { "deltaTime": 0, "channel": 1, "type": "channel", "noteNumber": 59, "velocity": 64, "subtype": "noteOn"  },
      { "deltaTime": 239, "channel": 1, "type": "channel", "subtype": "noteOff", "noteNumber": 59, "velocity": 0  },
      { "deltaTime": 0, "channel": 1, "type": "channel", "subtype": "noteOff", "noteNumber": 59, "velocity": 0  },
      { "deltaTime": 1, "channel": 1, "type": "channel", "noteNumber": 52, "velocity": 64, "subtype": "noteOn"  },
      { "deltaTime": 0, "channel": 1, "type": "channel", "noteNumber": 52, "velocity": 64, "subtype": "noteOn"  },
      { "deltaTime": 239, "channel": 1, "type": "channel", "subtype": "noteOff", "noteNumber": 52, "velocity": 0  },
      { "deltaTime": 0, "channel": 1, "type": "channel", "subtype": "noteOff", "noteNumber": 52, "velocity": 0  },
      { "deltaTime": 1, "channel": 1, "type": "channel", "noteNumber": 58, "velocity": 64, "subtype": "noteOn"  },
      { "deltaTime": 0, "channel": 1, "type": "channel", "noteNumber": 58, "velocity": 64, "subtype": "noteOn"  },
      { "deltaTime": 239, "channel": 1, "type": "channel", "subtype": "noteOff", "noteNumber": 58, "velocity": 0  },
      { "deltaTime": 0, "channel": 1, "type": "channel", "subtype": "noteOff", "noteNumber": 58, "velocity": 0  },
      { "deltaTime": 1, "channel": 1, "type": "channel", "noteNumber": 58, "velocity": 64, "subtype": "noteOn"  },
      { "deltaTime": 0, "channel": 1, "type": "channel", "noteNumber": 58, "velocity": 64, "subtype": "noteOn"  },
      { "deltaTime": 239, "channel": 1, "type": "channel", "subtype": "noteOff", "noteNumber": 58, "velocity": 0  },
      { "deltaTime": 0, "channel": 1, "type": "channel", "subtype": "noteOff", "noteNumber": 58, "velocity": 0  },
      { "deltaTime": 1, "channel": 1, "type": "channel", "noteNumber": 52, "velocity": 64, "subtype": "noteOn"  },
      { "deltaTime": 0, "channel": 1, "type": "channel", "noteNumber": 52, "velocity": 64, "subtype": "noteOn"  },
      { "deltaTime": 239, "channel": 1, "type": "channel", "subtype": "noteOff", "noteNumber": 52, "velocity": 0  },
      { "deltaTime": 0, "channel": 1, "type": "channel", "subtype": "noteOff", "noteNumber": 52, "velocity": 0  },
      { "deltaTime": 1, "channel": 1, "type": "channel", "noteNumber": 59, "velocity": 64, "subtype": "noteOn"  },
      { "deltaTime": 0, "channel": 1, "type": "channel", "noteNumber": 59, "velocity": 64, "subtype": "noteOn"  },
      { "deltaTime": 239, "channel": 1, "type": "channel", "subtype": "noteOff", "noteNumber": 59, "velocity": 0  },
      { "deltaTime": 0, "channel": 1, "type": "channel", "subtype": "noteOff", "noteNumber": 59, "velocity": 0  },
      { "deltaTime": 1, "channel": 1, "type": "channel", "noteNumber": 59, "velocity": 64, "subtype": "noteOn"  },
      { "deltaTime": 0, "channel": 1, "type": "channel", "noteNumber": 59, "velocity": 64, "subtype": "noteOn"  },
      { "deltaTime": 239, "channel": 1, "type": "channel", "subtype": "noteOff", "noteNumber": 59, "velocity": 0  },
      { "deltaTime": 0, "channel": 1, "type": "channel", "subtype": "noteOff", "noteNumber": 59, "velocity": 0  },
      { "deltaTime": 1, "channel": 1, "type": "channel", "noteNumber": 52, "velocity": 64, "subtype": "noteOn"  },
      { "deltaTime": 0, "channel": 1, "type": "channel", "noteNumber": 52, "velocity": 64, "subtype": "noteOn"  },
      { "deltaTime": 239, "channel": 1, "type": "channel", "subtype": "noteOff", "noteNumber": 52, "velocity": 0  },
      { "deltaTime": 0, "channel": 1, "type": "channel", "subtype": "noteOff", "noteNumber": 52, "velocity": 0  },
      { "deltaTime": 1, "channel": 1, "type": "channel", "noteNumber": 58, "velocity": 64, "subtype": "noteOn"  },
      { "deltaTime": 0, "channel": 1, "type": "channel", "noteNumber": 58, "velocity": 64, "subtype": "noteOn"  },
      { "deltaTime": 239, "channel": 1, "type": "channel", "subtype": "noteOff", "noteNumber": 58, "velocity": 0  },
      { "deltaTime": 0, "channel": 1, "type": "channel", "subtype": "noteOff", "noteNumber": 58, "velocity": 0  },
      { "deltaTime": 1, "channel": 1, "type": "channel", "noteNumber": 52, "velocity": 64, "subtype": "noteOn"  },
      { "deltaTime": 0, "channel": 1, "type": "channel", "noteNumber": 52, "velocity": 64, "subtype": "noteOn"  },
      { "deltaTime": 239, "channel": 1, "type": "channel", "subtype": "noteOff", "noteNumber": 52, "velocity": 0  },
      { "deltaTime": 0, "channel": 1, "type": "channel", "subtype": "noteOff", "noteNumber": 52, "velocity": 0  },
      { "deltaTime": 1, "channel": 1, "type": "channel", "noteNumber": 52, "velocity": 64, "subtype": "noteOn"  },
      { "deltaTime": 239, "channel": 1, "type": "channel", "subtype": "noteOff", "noteNumber": 52, "velocity": 0  },
      { "deltaTime": 1, "channel": 1, "type": "channel", "noteNumber": 59, "velocity": 64, "subtype": "noteOn"  },
      { "deltaTime": 0, "channel": 1, "type": "channel", "noteNumber": 59, "velocity": 64, "subtype": "noteOn"  },
      { "deltaTime": 239, "channel": 1, "type": "channel", "subtype": "noteOff", "noteNumber": 59, "velocity": 0  },
      { "deltaTime": 0, "channel": 1, "type": "channel", "subtype": "noteOff", "noteNumber": 59, "velocity": 0  },
      { "deltaTime": 1, "channel": 1, "type": "channel", "noteNumber": 59, "velocity": 64, "subtype": "noteOn"  },
      { "deltaTime": 0, "channel": 1, "type": "channel", "noteNumber": 59, "velocity": 64, "subtype": "noteOn"  },
      { "deltaTime": 239, "channel": 1, "type": "channel", "subtype": "noteOff", "noteNumber": 59, "velocity": 0  },
      { "deltaTime": 0, "channel": 1, "type": "channel", "subtype": "noteOff", "noteNumber": 59, "velocity": 0  },
      { "deltaTime": 1, "channel": 1, "type": "channel", "noteNumber": 52, "velocity": 64, "subtype": "noteOn"  },
      { "deltaTime": 0, "channel": 1, "type": "channel", "noteNumber": 52, "velocity": 64, "subtype": "noteOn"  },
      { "deltaTime": 239, "channel": 1, "type": "channel", "subtype": "noteOff", "noteNumber": 52, "velocity": 0  },
      { "deltaTime": 0, "channel": 1, "type": "channel", "subtype": "noteOff", "noteNumber": 52, "velocity": 0  },
      { "deltaTime": 1, "channel": 1, "type": "channel", "noteNumber": 58, "velocity": 64, "subtype": "noteOn"  },
      { "deltaTime": 0, "channel": 1, "type": "channel", "noteNumber": 58, "velocity": 64, "subtype": "noteOn"  },
      { "deltaTime": 239, "channel": 1, "type": "channel", "subtype": "noteOff", "noteNumber": 58, "velocity": 0  },
      { "deltaTime": 0, "channel": 1, "type": "channel", "subtype": "noteOff", "noteNumber": 58, "velocity": 0  },
      { "deltaTime": 1, "channel": 1, "type": "channel", "noteNumber": 58, "velocity": 64, "subtype": "noteOn"  },
      { "deltaTime": 0, "channel": 1, "type": "channel", "noteNumber": 58, "velocity": 64, "subtype": "noteOn"  },
      { "deltaTime": 239, "channel": 1, "type": "channel", "subtype": "noteOff", "noteNumber": 58, "velocity": 0  },
      { "deltaTime": 0, "channel": 1, "type": "channel", "subtype": "noteOff", "noteNumber": 58, "velocity": 0  },
      { "deltaTime": 1, "channel": 1, "type": "channel", "noteNumber": 52, "velocity": 64, "subtype": "noteOn"  },
      { "deltaTime": 0, "channel": 1, "type": "channel", "noteNumber": 52, "velocity": 64, "subtype": "noteOn"  },
      { "deltaTime": 239, "channel": 1, "type": "channel", "subtype": "noteOff", "noteNumber": 52, "velocity": 0  },
      { "deltaTime": 0, "channel": 1, "type": "channel", "subtype": "noteOff", "noteNumber": 52, "velocity": 0  },
      { "deltaTime": 1, "channel": 1, "type": "channel", "noteNumber": 59, "velocity": 64, "subtype": "noteOn"  },
      { "deltaTime": 0, "channel": 1, "type": "channel", "noteNumber": 59, "velocity": 64, "subtype": "noteOn"  },
      { "deltaTime": 239, "channel": 1, "type": "channel", "subtype": "noteOff", "noteNumber": 59, "velocity": 0  },
      { "deltaTime": 0, "channel": 1, "type": "channel", "subtype": "noteOff", "noteNumber": 59, "velocity": 0  },
      { "deltaTime": 1, "channel": 1, "type": "channel", "noteNumber": 59, "velocity": 64, "subtype": "noteOn"  },
      { "deltaTime": 0, "channel": 1, "type": "channel", "noteNumber": 59, "velocity": 64, "subtype": "noteOn"  },
      { "deltaTime": 239, "channel": 1, "type": "channel", "subtype": "noteOff", "noteNumber": 59, "velocity": 0  },
      { "deltaTime": 0, "channel": 1, "type": "channel", "subtype": "noteOff", "noteNumber": 59, "velocity": 0  },
      { "deltaTime": 1, "channel": 1, "type": "channel", "noteNumber": 52, "velocity": 64, "subtype": "noteOn"  },
      { "deltaTime": 0, "channel": 1, "type": "channel", "noteNumber": 52, "velocity": 64, "subtype": "noteOn"  },
      { "deltaTime": 239, "channel": 1, "type": "channel", "subtype": "noteOff", "noteNumber": 52, "velocity": 0  },
      { "deltaTime": 0, "channel": 1, "type": "channel", "subtype": "noteOff", "noteNumber": 52, "velocity": 0  },
      { "deltaTime": 1, "channel": 1, "type": "channel", "noteNumber": 58, "velocity": 64, "subtype": "noteOn"  },
      { "deltaTime": 0, "channel": 1, "type": "channel", "noteNumber": 58, "velocity": 64, "subtype": "noteOn"  },
      { "deltaTime": 239, "channel": 1, "type": "channel", "subtype": "noteOff", "noteNumber": 58, "velocity": 0  },
      { "deltaTime": 0, "channel": 1, "type": "channel", "subtype": "noteOff", "noteNumber": 58, "velocity": 0  },
      { "deltaTime": 1, "channel": 1, "type": "channel", "noteNumber": 58, "velocity": 64, "subtype": "noteOn"  },
      { "deltaTime": 0, "channel": 1, "type": "channel", "noteNumber": 58, "velocity": 64, "subtype": "noteOn"  },
      { "deltaTime": 239, "channel": 1, "type": "channel", "subtype": "noteOff", "noteNumber": 58, "velocity": 0  },
      { "deltaTime": 0, "channel": 1, "type": "channel", "subtype": "noteOff", "noteNumber": 58, "velocity": 0  },
      { "deltaTime": 1, "channel": 1, "type": "channel", "noteNumber": 52, "velocity": 64, "subtype": "noteOn"  },
      { "deltaTime": 0, "channel": 1, "type": "channel", "noteNumber": 52, "velocity": 64, "subtype": "noteOn"  },
      { "deltaTime": 239, "channel": 1, "type": "channel", "subtype": "noteOff", "noteNumber": 52, "velocity": 0  },
      { "deltaTime": 0, "channel": 1, "type": "channel", "subtype": "noteOff", "noteNumber": 52, "velocity": 0  },
      { "deltaTime": 1, "channel": 1, "type": "channel", "noteNumber": 59, "velocity": 64, "subtype": "noteOn"  },
      { "deltaTime": 0, "channel": 1, "type": "channel", "noteNumber": 59, "velocity": 64, "subtype": "noteOn"  },
      { "deltaTime": 239, "channel": 1, "type": "channel", "subtype": "noteOff", "noteNumber": 59, "velocity": 0  },
      { "deltaTime": 0, "channel": 1, "type": "channel", "subtype": "noteOff", "noteNumber": 59, "velocity": 0  },
      { "deltaTime": 1, "channel": 1, "type": "channel", "noteNumber": 52, "velocity": 64, "subtype": "noteOn"  },
      { "deltaTime": 0, "channel": 1, "type": "channel", "noteNumber": 52, "velocity": 64, "subtype": "noteOn"  },
      { "deltaTime": 239, "channel": 1, "type": "channel", "subtype": "noteOff", "noteNumber": 52, "velocity": 0  },
      { "deltaTime": 0, "channel": 1, "type": "channel", "subtype": "noteOff", "noteNumber": 52, "velocity": 0  },
      { "deltaTime": 1, "channel": 1, "type": "channel", "noteNumber": 60, "velocity": 64, "subtype": "noteOn"  },
      { "deltaTime": 0, "channel": 1, "type": "channel", "noteNumber": 60, "velocity": 64, "subtype": "noteOn"  },
      { "deltaTime": 239, "channel": 1, "type": "channel", "subtype": "noteOff", "noteNumber": 60, "velocity": 0  },
      { "deltaTime": 0, "channel": 1, "type": "channel", "subtype": "noteOff", "noteNumber": 60, "velocity": 0  },
      { "deltaTime": 1, "channel": 1, "type": "channel", "noteNumber": 52, "velocity": 64, "subtype": "noteOn"  },
      { "deltaTime": 0, "channel": 1, "type": "channel", "noteNumber": 52, "velocity": 64, "subtype": "noteOn"  },
      { "deltaTime": 239, "channel": 1, "type": "channel", "subtype": "noteOff", "noteNumber": 52, "velocity": 0  },
      { "deltaTime": 0, "channel": 1, "type": "channel", "subtype": "noteOff", "noteNumber": 52, "velocity": 0  },
      { "deltaTime": 1, "channel": 1, "type": "channel", "noteNumber": 59, "velocity": 64, "subtype": "noteOn"  },
      { "deltaTime": 0, "channel": 1, "type": "channel", "noteNumber": 59, "velocity": 64, "subtype": "noteOn"  },
      { "deltaTime": 0, "channel": 1, "type": "channel", "noteNumber": 59, "velocity": 64, "subtype": "noteOn"  },
      { "deltaTime": 0, "channel": 1, "type": "channel", "noteNumber": 59, "velocity": 64, "subtype": "noteOn"  },
      { "deltaTime": 0, "channel": 1, "type": "channel", "noteNumber": 59, "velocity": 64, "subtype": "noteOn"  },
      { "deltaTime": 0, "channel": 1, "type": "channel", "noteNumber": 59, "velocity": 64, "subtype": "noteOn"  },
      { "deltaTime": 0, "channel": 1, "type": "channel", "noteNumber": 59, "velocity": 64, "subtype": "noteOn"  },
      { "deltaTime": 0, "channel": 1, "type": "channel", "noteNumber": 59, "velocity": 64, "subtype": "noteOn"  },
      { "deltaTime": 239, "channel": 1, "type": "channel", "subtype": "noteOff", "noteNumber": 59, "velocity": 0  },
      { "deltaTime": 0, "channel": 1, "type": "channel", "subtype": "noteOff", "noteNumber": 59, "velocity": 0  },
      { "deltaTime": 0, "channel": 1, "type": "channel", "subtype": "noteOff", "noteNumber": 59, "velocity": 0  },
      { "deltaTime": 0, "channel": 1, "type": "channel", "subtype": "noteOff", "noteNumber": 59, "velocity": 0  },
      { "deltaTime": 0, "channel": 1, "type": "channel", "subtype": "noteOff", "noteNumber": 59, "velocity": 0  },
      { "deltaTime": 0, "channel": 1, "type": "channel", "subtype": "noteOff", "noteNumber": 59, "velocity": 0  },
      { "deltaTime": 0, "channel": 1, "type": "channel", "subtype": "noteOff", "noteNumber": 59, "velocity": 0  },
      { "deltaTime": 0, "channel": 1, "type": "channel", "subtype": "noteOff", "noteNumber": 59, "velocity": 0  },
      { "deltaTime": 1, "channel": 1, "type": "channel", "noteNumber": 59, "velocity": 64, "subtype": "noteOn"  },
      { "deltaTime": 0, "channel": 1, "type": "channel", "noteNumber": 59, "velocity": 64, "subtype": "noteOn"  },
      { "deltaTime": 0, "channel": 1, "type": "channel", "noteNumber": 59, "velocity": 64, "subtype": "noteOn"  },
      { "deltaTime": 0, "channel": 1, "type": "channel", "noteNumber": 59, "velocity": 64, "subtype": "noteOn"  },
      { "deltaTime": 0, "channel": 1, "type": "channel", "noteNumber": 59, "velocity": 64, "subtype": "noteOn"  },
      { "deltaTime": 0, "channel": 1, "type": "channel", "noteNumber": 59, "velocity": 64, "subtype": "noteOn"  },
      { "deltaTime": 0, "channel": 1, "type": "channel", "noteNumber": 59, "velocity": 64, "subtype": "noteOn"  },
      { "deltaTime": 0, "channel": 1, "type": "channel", "noteNumber": 59, "velocity": 64, "subtype": "noteOn"  },
      { "deltaTime": 239, "channel": 1, "type": "channel", "subtype": "noteOff", "noteNumber": 59, "velocity": 0  },
      { "deltaTime": 0, "channel": 1, "type": "channel", "subtype": "noteOff", "noteNumber": 59, "velocity": 0  },
      { "deltaTime": 0, "channel": 1, "type": "channel", "subtype": "noteOff", "noteNumber": 59, "velocity": 0  },
      { "deltaTime": 0, "channel": 1, "type": "channel", "subtype": "noteOff", "noteNumber": 59, "velocity": 0  },
      { "deltaTime": 0, "channel": 1, "type": "channel", "subtype": "noteOff", "noteNumber": 59, "velocity": 0  },
      { "deltaTime": 0, "channel": 1, "type": "channel", "subtype": "noteOff", "noteNumber": 59, "velocity": 0  },
      { "deltaTime": 0, "channel": 1, "type": "channel", "subtype": "noteOff", "noteNumber": 59, "velocity": 0  },
      { "deltaTime": 0, "channel": 1, "type": "channel", "subtype": "noteOff", "noteNumber": 59, "velocity": 0  },
      { "deltaTime": 1, "channel": 1, "type": "channel", "noteNumber": 52, "velocity": 64, "subtype": "noteOn"  },
      { "deltaTime": 0, "channel": 1, "type": "channel", "noteNumber": 52, "velocity": 64, "subtype": "noteOn"  },
      { "deltaTime": 0, "channel": 1, "type": "channel", "noteNumber": 52, "velocity": 64, "subtype": "noteOn"  },
      { "deltaTime": 0, "channel": 1, "type": "channel", "noteNumber": 52, "velocity": 64, "subtype": "noteOn"  },
      { "deltaTime": 0, "channel": 1, "type": "channel", "noteNumber": 52, "velocity": 64, "subtype": "noteOn"  },
      { "deltaTime": 0, "channel": 1, "type": "channel", "noteNumber": 52, "velocity": 64, "subtype": "noteOn"  },
      { "deltaTime": 0, "channel": 1, "type": "channel", "noteNumber": 52, "velocity": 64, "subtype": "noteOn"  },
      { "deltaTime": 0, "channel": 1, "type": "channel", "noteNumber": 52, "velocity": 64, "subtype": "noteOn"  },
      { "deltaTime": 239, "channel": 1, "type": "channel", "subtype": "noteOff", "noteNumber": 52, "velocity": 0  },
      { "deltaTime": 0, "channel": 1, "type": "channel", "subtype": "noteOff", "noteNumber": 52, "velocity": 0  },
      { "deltaTime": 0, "channel": 1, "type": "channel", "subtype": "noteOff", "noteNumber": 52, "velocity": 0  },
      { "deltaTime": 0, "channel": 1, "type": "channel", "subtype": "noteOff", "noteNumber": 52, "velocity": 0  },
      { "deltaTime": 0, "channel": 1, "type": "channel", "subtype": "noteOff", "noteNumber": 52, "velocity": 0  },
      { "deltaTime": 0, "channel": 1, "type": "channel", "subtype": "noteOff", "noteNumber": 52, "velocity": 0  },
      { "deltaTime": 0, "channel": 1, "type": "channel", "subtype": "noteOff", "noteNumber": 52, "velocity": 0  },
      { "deltaTime": 0, "channel": 1, "type": "channel", "subtype": "noteOff", "noteNumber": 52, "velocity": 0  },
      { "deltaTime": 1, "channel": 1, "type": "channel", "noteNumber": 58, "velocity": 64, "subtype": "noteOn"  },
      { "deltaTime": 0, "channel": 1, "type": "channel", "noteNumber": 58, "velocity": 64, "subtype": "noteOn"  },
      { "deltaTime": 0, "channel": 1, "type": "channel", "noteNumber": 58, "velocity": 64, "subtype": "noteOn"  },
      { "deltaTime": 0, "channel": 1, "type": "channel", "noteNumber": 58, "velocity": 64, "subtype": "noteOn"  },
      { "deltaTime": 0, "channel": 1, "type": "channel", "noteNumber": 58, "velocity": 64, "subtype": "noteOn"  },
      { "deltaTime": 0, "channel": 1, "type": "channel", "noteNumber": 58, "velocity": 64, "subtype": "noteOn"  },
      { "deltaTime": 0, "channel": 1, "type": "channel", "noteNumber": 58, "velocity": 64, "subtype": "noteOn"  },
      { "deltaTime": 0, "channel": 1, "type": "channel", "noteNumber": 58, "velocity": 64, "subtype": "noteOn"  },
      { "deltaTime": 239, "channel": 1, "type": "channel", "subtype": "noteOff", "noteNumber": 58, "velocity": 0  },
      { "deltaTime": 0, "channel": 1, "type": "channel", "subtype": "noteOff", "noteNumber": 58, "velocity": 0  },
      { "deltaTime": 0, "channel": 1, "type": "channel", "subtype": "noteOff", "noteNumber": 58, "velocity": 0  },
      { "deltaTime": 0, "channel": 1, "type": "channel", "subtype": "noteOff", "noteNumber": 58, "velocity": 0  },
      { "deltaTime": 0, "channel": 1, "type": "channel", "subtype": "noteOff", "noteNumber": 58, "velocity": 0  },
      { "deltaTime": 0, "channel": 1, "type": "channel", "subtype": "noteOff", "noteNumber": 58, "velocity": 0  },
      { "deltaTime": 0, "channel": 1, "type": "channel", "subtype": "noteOff", "noteNumber": 58, "velocity": 0  },
      { "deltaTime": 0, "channel": 1, "type": "channel", "subtype": "noteOff", "noteNumber": 58, "velocity": 0  },
      { "deltaTime": 1, "channel": 1, "type": "channel", "noteNumber": 58, "velocity": 64, "subtype": "noteOn"  },
      { "deltaTime": 0, "channel": 1, "type": "channel", "noteNumber": 58, "velocity": 64, "subtype": "noteOn"  },
      { "deltaTime": 0, "channel": 1, "type": "channel", "noteNumber": 58, "velocity": 64, "subtype": "noteOn"  },
      { "deltaTime": 0, "channel": 1, "type": "channel", "noteNumber": 58, "velocity": 64, "subtype": "noteOn"  },
      { "deltaTime": 0, "channel": 1, "type": "channel", "noteNumber": 58, "velocity": 64, "subtype": "noteOn"  },
      { "deltaTime": 0, "channel": 1, "type": "channel", "noteNumber": 58, "velocity": 64, "subtype": "noteOn"  },
      { "deltaTime": 0, "channel": 1, "type": "channel", "noteNumber": 58, "velocity": 64, "subtype": "noteOn"  },
      { "deltaTime": 0, "channel": 1, "type": "channel", "noteNumber": 58, "velocity": 64, "subtype": "noteOn"  },
      { "deltaTime": 239, "channel": 1, "type": "channel", "subtype": "noteOff", "noteNumber": 58, "velocity": 0  },
      { "deltaTime": 0, "channel": 1, "type": "channel", "subtype": "noteOff", "noteNumber": 58, "velocity": 0  },
      { "deltaTime": 0, "channel": 1, "type": "channel", "subtype": "noteOff", "noteNumber": 58, "velocity": 0  },
      { "deltaTime": 0, "channel": 1, "type": "channel", "subtype": "noteOff", "noteNumber": 58, "velocity": 0  },
      { "deltaTime": 0, "channel": 1, "type": "channel", "subtype": "noteOff", "noteNumber": 58, "velocity": 0  },
      { "deltaTime": 0, "channel": 1, "type": "channel", "subtype": "noteOff", "noteNumber": 58, "velocity": 0  },
      { "deltaTime": 0, "channel": 1, "type": "channel", "subtype": "noteOff", "noteNumber": 58, "velocity": 0  },
      { "deltaTime": 0, "channel": 1, "type": "channel", "subtype": "noteOff", "noteNumber": 58, "velocity": 0  },
      { "deltaTime": 1, "channel": 1, "type": "channel", "noteNumber": 52, "velocity": 64, "subtype": "noteOn"  },
      { "deltaTime": 0, "channel": 1, "type": "channel", "noteNumber": 52, "velocity": 64, "subtype": "noteOn"  },
      { "deltaTime": 0, "channel": 1, "type": "channel", "noteNumber": 52, "velocity": 64, "subtype": "noteOn"  },
      { "deltaTime": 0, "channel": 1, "type": "channel", "noteNumber": 52, "velocity": 64, "subtype": "noteOn"  },
      { "deltaTime": 0, "channel": 1, "type": "channel", "noteNumber": 52, "velocity": 64, "subtype": "noteOn"  },
      { "deltaTime": 0, "channel": 1, "type": "channel", "noteNumber": 52, "velocity": 64, "subtype": "noteOn"  },
      { "deltaTime": 0, "channel": 1, "type": "channel", "noteNumber": 52, "velocity": 64, "subtype": "noteOn"  },
      { "deltaTime": 0, "channel": 1, "type": "channel", "noteNumber": 52, "velocity": 64, "subtype": "noteOn"  },
      { "deltaTime": 239, "channel": 1, "type": "channel", "subtype": "noteOff", "noteNumber": 52, "velocity": 0  },
      { "deltaTime": 0, "channel": 1, "type": "channel", "subtype": "noteOff", "noteNumber": 52, "velocity": 0  },
      { "deltaTime": 0, "channel": 1, "type": "channel", "subtype": "noteOff", "noteNumber": 52, "velocity": 0  },
      { "deltaTime": 0, "channel": 1, "type": "channel", "subtype": "noteOff", "noteNumber": 52, "velocity": 0  },
      { "deltaTime": 0, "channel": 1, "type": "channel", "subtype": "noteOff", "noteNumber": 52, "velocity": 0  },
      { "deltaTime": 0, "channel": 1, "type": "channel", "subtype": "noteOff", "noteNumber": 52, "velocity": 0  },
      { "deltaTime": 0, "channel": 1, "type": "channel", "subtype": "noteOff", "noteNumber": 52, "velocity": 0  },
      { "deltaTime": 0, "channel": 1, "type": "channel", "subtype": "noteOff", "noteNumber": 52, "velocity": 0  },
      { "deltaTime": 1, "channel": 1, "type": "channel", "noteNumber": 59, "velocity": 64, "subtype": "noteOn"  },
      { "deltaTime": 0, "channel": 1, "type": "channel", "noteNumber": 59, "velocity": 64, "subtype": "noteOn"  },
      { "deltaTime": 0, "channel": 1, "type": "channel", "noteNumber": 59, "velocity": 64, "subtype": "noteOn"  },
      { "deltaTime": 0, "channel": 1, "type": "channel", "noteNumber": 59, "velocity": 64, "subtype": "noteOn"  },
      { "deltaTime": 0, "channel": 1, "type": "channel", "noteNumber": 59, "velocity": 64, "subtype": "noteOn"  },
      { "deltaTime": 0, "channel": 1, "type": "channel", "noteNumber": 59, "velocity": 64, "subtype": "noteOn"  },
      { "deltaTime": 0, "channel": 1, "type": "channel", "noteNumber": 59, "velocity": 64, "subtype": "noteOn"  },
      { "deltaTime": 0, "channel": 1, "type": "channel", "noteNumber": 59, "velocity": 64, "subtype": "noteOn"  },
      { "deltaTime": 239, "channel": 1, "type": "channel", "subtype": "noteOff", "noteNumber": 59, "velocity": 0  },
      { "deltaTime": 0, "channel": 1, "type": "channel", "subtype": "noteOff", "noteNumber": 59, "velocity": 0  },
      { "deltaTime": 0, "channel": 1, "type": "channel", "subtype": "noteOff", "noteNumber": 59, "velocity": 0  },
      { "deltaTime": 0, "channel": 1, "type": "channel", "subtype": "noteOff", "noteNumber": 59, "velocity": 0  },
      { "deltaTime": 0, "channel": 1, "type": "channel", "subtype": "noteOff", "noteNumber": 59, "velocity": 0  },
      { "deltaTime": 0, "channel": 1, "type": "channel", "subtype": "noteOff", "noteNumber": 59, "velocity": 0  },
      { "deltaTime": 0, "channel": 1, "type": "channel", "subtype": "noteOff", "noteNumber": 59, "velocity": 0  },
      { "deltaTime": 0, "channel": 1, "type": "channel", "subtype": "noteOff", "noteNumber": 59, "velocity": 0  },
      { "deltaTime": 1, "channel": 1, "type": "channel", "noteNumber": 59, "velocity": 64, "subtype": "noteOn"  },
      { "deltaTime": 0, "channel": 1, "type": "channel", "noteNumber": 59, "velocity": 64, "subtype": "noteOn"  },
      { "deltaTime": 0, "channel": 1, "type": "channel", "noteNumber": 59, "velocity": 64, "subtype": "noteOn"  },
      { "deltaTime": 0, "channel": 1, "type": "channel", "noteNumber": 59, "velocity": 64, "subtype": "noteOn"  },
      { "deltaTime": 0, "channel": 1, "type": "channel", "noteNumber": 59, "velocity": 64, "subtype": "noteOn"  },
      { "deltaTime": 0, "channel": 1, "type": "channel", "noteNumber": 59, "velocity": 64, "subtype": "noteOn"  },
      { "deltaTime": 0, "channel": 1, "type": "channel", "noteNumber": 59, "velocity": 64, "subtype": "noteOn"  },
      { "deltaTime": 0, "channel": 1, "type": "channel", "noteNumber": 59, "velocity": 64, "subtype": "noteOn"  },
      { "deltaTime": 239, "channel": 1, "type": "channel", "subtype": "noteOff", "noteNumber": 59, "velocity": 0  },
      { "deltaTime": 0, "channel": 1, "type": "channel", "subtype": "noteOff", "noteNumber": 59, "velocity": 0  },
      { "deltaTime": 0, "channel": 1, "type": "channel", "subtype": "noteOff", "noteNumber": 59, "velocity": 0  },
      { "deltaTime": 0, "channel": 1, "type": "channel", "subtype": "noteOff", "noteNumber": 59, "velocity": 0  },
      { "deltaTime": 0, "channel": 1, "type": "channel", "subtype": "noteOff", "noteNumber": 59, "velocity": 0  },
      { "deltaTime": 0, "channel": 1, "type": "channel", "subtype": "noteOff", "noteNumber": 59, "velocity": 0  },
      { "deltaTime": 0, "channel": 1, "type": "channel", "subtype": "noteOff", "noteNumber": 59, "velocity": 0  },
      { "deltaTime": 0, "channel": 1, "type": "channel", "subtype": "noteOff", "noteNumber": 59, "velocity": 0  },
      { "deltaTime": 1, "channel": 1, "type": "channel", "noteNumber": 52, "velocity": 64, "subtype": "noteOn"  },
      { "deltaTime": 0, "channel": 1, "type": "channel", "noteNumber": 52, "velocity": 64, "subtype": "noteOn"  },
      { "deltaTime": 0, "channel": 1, "type": "channel", "noteNumber": 52, "velocity": 64, "subtype": "noteOn"  },
      { "deltaTime": 0, "channel": 1, "type": "channel", "noteNumber": 52, "velocity": 64, "subtype": "noteOn"  },
      { "deltaTime": 0, "channel": 1, "type": "channel", "noteNumber": 52, "velocity": 64, "subtype": "noteOn"  },
      { "deltaTime": 0, "channel": 1, "type": "channel", "noteNumber": 52, "velocity": 64, "subtype": "noteOn"  },
      { "deltaTime": 0, "channel": 1, "type": "channel", "noteNumber": 52, "velocity": 64, "subtype": "noteOn"  },
      { "deltaTime": 0, "channel": 1, "type": "channel", "noteNumber": 52, "velocity": 64, "subtype": "noteOn"  },
      { "deltaTime": 239, "channel": 1, "type": "channel", "subtype": "noteOff", "noteNumber": 52, "velocity": 0  },
      { "deltaTime": 0, "channel": 1, "type": "channel", "subtype": "noteOff", "noteNumber": 52, "velocity": 0  },
      { "deltaTime": 0, "channel": 1, "type": "channel", "subtype": "noteOff", "noteNumber": 52, "velocity": 0  },
      { "deltaTime": 0, "channel": 1, "type": "channel", "subtype": "noteOff", "noteNumber": 52, "velocity": 0  },
      { "deltaTime": 0, "channel": 1, "type": "channel", "subtype": "noteOff", "noteNumber": 52, "velocity": 0  },
      { "deltaTime": 0, "channel": 1, "type": "channel", "subtype": "noteOff", "noteNumber": 52, "velocity": 0  },
      { "deltaTime": 0, "channel": 1, "type": "channel", "subtype": "noteOff", "noteNumber": 52, "velocity": 0  },
      { "deltaTime": 0, "channel": 1, "type": "channel", "subtype": "noteOff", "noteNumber": 52, "velocity": 0  },
      { "deltaTime": 1, "channel": 1, "type": "channel", "noteNumber": 58, "velocity": 64, "subtype": "noteOn"  },
      { "deltaTime": 0, "channel": 1, "type": "channel", "noteNumber": 58, "velocity": 64, "subtype": "noteOn"  },
      { "deltaTime": 0, "channel": 1, "type": "channel", "noteNumber": 58, "velocity": 64, "subtype": "noteOn"  },
      { "deltaTime": 0, "channel": 1, "type": "channel", "noteNumber": 58, "velocity": 64, "subtype": "noteOn"  },
      { "deltaTime": 0, "channel": 1, "type": "channel", "noteNumber": 58, "velocity": 64, "subtype": "noteOn"  },
      { "deltaTime": 0, "channel": 1, "type": "channel", "noteNumber": 58, "velocity": 64, "subtype": "noteOn"  },
      { "deltaTime": 0, "channel": 1, "type": "channel", "noteNumber": 58, "velocity": 64, "subtype": "noteOn"  },
      { "deltaTime": 0, "channel": 1, "type": "channel", "noteNumber": 58, "velocity": 64, "subtype": "noteOn"  },
      { "deltaTime": 239, "channel": 1, "type": "channel", "subtype": "noteOff", "noteNumber": 58, "velocity": 0  },
      { "deltaTime": 0, "channel": 1, "type": "channel", "subtype": "noteOff", "noteNumber": 58, "velocity": 0  },
      { "deltaTime": 0, "channel": 1, "type": "channel", "subtype": "noteOff", "noteNumber": 58, "velocity": 0  },
      { "deltaTime": 0, "channel": 1, "type": "channel", "subtype": "noteOff", "noteNumber": 58, "velocity": 0  },
      { "deltaTime": 0, "channel": 1, "type": "channel", "subtype": "noteOff", "noteNumber": 58, "velocity": 0  },
      { "deltaTime": 0, "channel": 1, "type": "channel", "subtype": "noteOff", "noteNumber": 58, "velocity": 0  },
      { "deltaTime": 0, "channel": 1, "type": "channel", "subtype": "noteOff", "noteNumber": 58, "velocity": 0  },
      { "deltaTime": 0, "channel": 1, "type": "channel", "subtype": "noteOff", "noteNumber": 58, "velocity": 0  },
      { "deltaTime": 1, "channel": 1, "type": "channel", "noteNumber": 52, "velocity": 64, "subtype": "noteOn"  },
      { "deltaTime": 0, "channel": 1, "type": "channel", "noteNumber": 52, "velocity": 64, "subtype": "noteOn"  },
      { "deltaTime": 239, "channel": 1, "type": "channel", "subtype": "noteOff", "noteNumber": 52, "velocity": 0  },
      { "deltaTime": 0, "channel": 1, "type": "channel", "subtype": "noteOff", "noteNumber": 52, "velocity": 0  },
      { "deltaTime": 1, "channel": 1, "type": "channel", "noteNumber": 52, "velocity": 64, "subtype": "noteOn"  },
      { "deltaTime": 0, "channel": 1, "type": "channel", "noteNumber": 52, "velocity": 64, "subtype": "noteOn"  },
      { "deltaTime": 239, "channel": 1, "type": "channel", "subtype": "noteOff", "noteNumber": 52, "velocity": 0  },
      { "deltaTime": 0, "channel": 1, "type": "channel", "subtype": "noteOff", "noteNumber": 52, "velocity": 0  },
      { "deltaTime": 1, "channel": 1, "type": "channel", "noteNumber": 59, "velocity": 64, "subtype": "noteOn"  },
      { "deltaTime": 0, "channel": 1, "type": "channel", "noteNumber": 59, "velocity": 64, "subtype": "noteOn"  },
      { "deltaTime": 239, "channel": 1, "type": "channel", "subtype": "noteOff", "noteNumber": 59, "velocity": 0  },
      { "deltaTime": 0, "channel": 1, "type": "channel", "subtype": "noteOff", "noteNumber": 59, "velocity": 0  },
      { "deltaTime": 1, "channel": 1, "type": "channel", "noteNumber": 59, "velocity": 64, "subtype": "noteOn"  },
      { "deltaTime": 0, "channel": 1, "type": "channel", "noteNumber": 59, "velocity": 64, "subtype": "noteOn"  },
      { "deltaTime": 239, "channel": 1, "type": "channel", "subtype": "noteOff", "noteNumber": 59, "velocity": 0  },
      { "deltaTime": 0, "channel": 1, "type": "channel", "subtype": "noteOff", "noteNumber": 59, "velocity": 0  },
      { "deltaTime": 1, "channel": 1, "type": "channel", "noteNumber": 52, "velocity": 64, "subtype": "noteOn"  },
      { "deltaTime": 0, "channel": 1, "type": "channel", "noteNumber": 52, "velocity": 64, "subtype": "noteOn"  },
      { "deltaTime": 239, "channel": 1, "type": "channel", "subtype": "noteOff", "noteNumber": 52, "velocity": 0  },
      { "deltaTime": 0, "channel": 1, "type": "channel", "subtype": "noteOff", "noteNumber": 52, "velocity": 0  },
      { "deltaTime": 1, "channel": 1, "type": "channel", "noteNumber": 58, "velocity": 64, "subtype": "noteOn"  },
      { "deltaTime": 0, "channel": 1, "type": "channel", "noteNumber": 58, "velocity": 64, "subtype": "noteOn"  },
      { "deltaTime": 239, "channel": 1, "type": "channel", "subtype": "noteOff", "noteNumber": 58, "velocity": 0  },
      { "deltaTime": 0, "channel": 1, "type": "channel", "subtype": "noteOff", "noteNumber": 58, "velocity": 0  },
      { "deltaTime": 1, "channel": 1, "type": "channel", "noteNumber": 58, "velocity": 64, "subtype": "noteOn"  },
      { "deltaTime": 0, "channel": 1, "type": "channel", "noteNumber": 58, "velocity": 64, "subtype": "noteOn"  },
      { "deltaTime": 239, "channel": 1, "type": "channel", "subtype": "noteOff", "noteNumber": 58, "velocity": 0  },
      { "deltaTime": 0, "channel": 1, "type": "channel", "subtype": "noteOff", "noteNumber": 58, "velocity": 0  },
      { "deltaTime": 1, "channel": 1, "type": "channel", "noteNumber": 52, "velocity": 64, "subtype": "noteOn"  },
      { "deltaTime": 0, "channel": 1, "type": "channel", "noteNumber": 52, "velocity": 64, "subtype": "noteOn"  },
      { "deltaTime": 239, "channel": 1, "type": "channel", "subtype": "noteOff", "noteNumber": 52, "velocity": 0  },
      { "deltaTime": 0, "channel": 1, "type": "channel", "subtype": "noteOff", "noteNumber": 52, "velocity": 0  },
      { "deltaTime": 1, "channel": 1, "type": "channel", "noteNumber": 59, "velocity": 64, "subtype": "noteOn"  },
      { "deltaTime": 0, "channel": 1, "type": "channel", "noteNumber": 59, "velocity": 64, "subtype": "noteOn"  },
      { "deltaTime": 239, "channel": 1, "type": "channel", "subtype": "noteOff", "noteNumber": 59, "velocity": 0  },
      { "deltaTime": 0, "channel": 1, "type": "channel", "subtype": "noteOff", "noteNumber": 59, "velocity": 0  },
      { "deltaTime": 1, "channel": 1, "type": "channel", "noteNumber": 59, "velocity": 64, "subtype": "noteOn"  },
      { "deltaTime": 0, "channel": 1, "type": "channel", "noteNumber": 59, "velocity": 64, "subtype": "noteOn"  },
      { "deltaTime": 239, "channel": 1, "type": "channel", "subtype": "noteOff", "noteNumber": 59, "velocity": 0  },
      { "deltaTime": 0, "channel": 1, "type": "channel", "subtype": "noteOff", "noteNumber": 59, "velocity": 0  },
      { "deltaTime": 1, "channel": 1, "type": "channel", "noteNumber": 52, "velocity": 64, "subtype": "noteOn"  },
      { "deltaTime": 0, "channel": 1, "type": "channel", "noteNumber": 52, "velocity": 64, "subtype": "noteOn"  },
      { "deltaTime": 239, "channel": 1, "type": "channel", "subtype": "noteOff", "noteNumber": 52, "velocity": 0  },
      { "deltaTime": 0, "channel": 1, "type": "channel", "subtype": "noteOff", "noteNumber": 52, "velocity": 0  },
      { "deltaTime": 1, "channel": 1, "type": "channel", "noteNumber": 58, "velocity": 64, "subtype": "noteOn"  },
      { "deltaTime": 0, "channel": 1, "type": "channel", "noteNumber": 58, "velocity": 64, "subtype": "noteOn"  },
      { "deltaTime": 239, "channel": 1, "type": "channel", "subtype": "noteOff", "noteNumber": 58, "velocity": 0  },
      { "deltaTime": 0, "channel": 1, "type": "channel", "subtype": "noteOff", "noteNumber": 58, "velocity": 0  },
      { "deltaTime": 1, "channel": 1, "type": "channel", "noteNumber": 58, "velocity": 64, "subtype": "noteOn"  },
      { "deltaTime": 0, "channel": 1, "type": "channel", "noteNumber": 58, "velocity": 64, "subtype": "noteOn"  },
      { "deltaTime": 239, "channel": 1, "type": "channel", "subtype": "noteOff", "noteNumber": 58, "velocity": 0  },
      { "deltaTime": 0, "channel": 1, "type": "channel", "subtype": "noteOff", "noteNumber": 58, "velocity": 0  },
      { "deltaTime": 1, "channel": 1, "type": "channel", "noteNumber": 52, "velocity": 64, "subtype": "noteOn"  },
      { "deltaTime": 0, "channel": 1, "type": "channel", "noteNumber": 52, "velocity": 64, "subtype": "noteOn"  },
      { "deltaTime": 239, "channel": 1, "type": "channel", "subtype": "noteOff", "noteNumber": 52, "velocity": 0  },
      { "deltaTime": 0, "channel": 1, "type": "channel", "subtype": "noteOff", "noteNumber": 52, "velocity": 0  },
      { "deltaTime": 1, "channel": 1, "type": "channel", "noteNumber": 59, "velocity": 64, "subtype": "noteOn"  },
      { "deltaTime": 0, "channel": 1, "type": "channel", "noteNumber": 59, "velocity": 64, "subtype": "noteOn"  },
      { "deltaTime": 239, "channel": 1, "type": "channel", "subtype": "noteOff", "noteNumber": 59, "velocity": 0  },
      { "deltaTime": 0, "channel": 1, "type": "channel", "subtype": "noteOff", "noteNumber": 59, "velocity": 0  },
      { "deltaTime": 1, "channel": 1, "type": "channel", "noteNumber": 52, "velocity": 64, "subtype": "noteOn"  },
      { "deltaTime": 0, "channel": 1, "type": "channel", "noteNumber": 52, "velocity": 64, "subtype": "noteOn"  },
      { "deltaTime": 239, "channel": 1, "type": "channel", "subtype": "noteOff", "noteNumber": 52, "velocity": 0  },
      { "deltaTime": 0, "channel": 1, "type": "channel", "subtype": "noteOff", "noteNumber": 52, "velocity": 0  },
      { "deltaTime": 1, "channel": 1, "type": "channel", "noteNumber": 60, "velocity": 64, "subtype": "noteOn"  },
      { "deltaTime": 0, "channel": 1, "type": "channel", "noteNumber": 60, "velocity": 64, "subtype": "noteOn"  },
      { "deltaTime": 239, "channel": 1, "type": "channel", "subtype": "noteOff", "noteNumber": 60, "velocity": 0  },
      { "deltaTime": 0, "channel": 1, "type": "channel", "subtype": "noteOff", "noteNumber": 60, "velocity": 0  },
      { "deltaTime": 1, "channel": 1, "type": "channel", "noteNumber": 52, "velocity": 64, "subtype": "noteOn"  },
      { "deltaTime": 0, "channel": 1, "type": "channel", "noteNumber": 52, "velocity": 64, "subtype": "noteOn"  },
      { "deltaTime": 239, "channel": 1, "type": "channel", "subtype": "noteOff", "noteNumber": 52, "velocity": 0  },
      { "deltaTime": 0, "channel": 1, "type": "channel", "subtype": "noteOff", "noteNumber": 52, "velocity": 0  },
      { "deltaTime": 1, "channel": 1, "type": "channel", "noteNumber": 59, "velocity": 64, "subtype": "noteOn"  },
      { "deltaTime": 0, "channel": 1, "type": "channel", "noteNumber": 59, "velocity": 64, "subtype": "noteOn"  },
      { "deltaTime": 239, "channel": 1, "type": "channel", "subtype": "noteOff", "noteNumber": 59, "velocity": 0  },
      { "deltaTime": 0, "channel": 1, "type": "channel", "subtype": "noteOff", "noteNumber": 59, "velocity": 0  },
      { "deltaTime": 1, "channel": 1, "type": "channel", "noteNumber": 59, "velocity": 64, "subtype": "noteOn"  },
      { "deltaTime": 0, "channel": 1, "type": "channel", "noteNumber": 59, "velocity": 64, "subtype": "noteOn"  },
      { "deltaTime": 239, "channel": 1, "type": "channel", "subtype": "noteOff", "noteNumber": 59, "velocity": 0  },
      { "deltaTime": 0, "channel": 1, "type": "channel", "subtype": "noteOff", "noteNumber": 59, "velocity": 0  },
      { "deltaTime": 1, "channel": 1, "type": "channel", "noteNumber": 52, "velocity": 64, "subtype": "noteOn"  },
      { "deltaTime": 0, "channel": 1, "type": "channel", "noteNumber": 52, "velocity": 64, "subtype": "noteOn"  },
      { "deltaTime": 239, "channel": 1, "type": "channel", "subtype": "noteOff", "noteNumber": 52, "velocity": 0  },
      { "deltaTime": 0, "channel": 1, "type": "channel", "subtype": "noteOff", "noteNumber": 52, "velocity": 0  },
      { "deltaTime": 1, "channel": 1, "type": "channel", "noteNumber": 58, "velocity": 64, "subtype": "noteOn"  },
      { "deltaTime": 0, "channel": 1, "type": "channel", "noteNumber": 58, "velocity": 64, "subtype": "noteOn"  },
      { "deltaTime": 239, "channel": 1, "type": "channel", "subtype": "noteOff", "noteNumber": 58, "velocity": 0  },
      { "deltaTime": 0, "channel": 1, "type": "channel", "subtype": "noteOff", "noteNumber": 58, "velocity": 0  },
      { "deltaTime": 1, "channel": 1, "type": "channel", "noteNumber": 58, "velocity": 64, "subtype": "noteOn"  },
      { "deltaTime": 0, "channel": 1, "type": "channel", "noteNumber": 58, "velocity": 64, "subtype": "noteOn"  },
      { "deltaTime": 239, "channel": 1, "type": "channel", "subtype": "noteOff", "noteNumber": 58, "velocity": 0  },
      { "deltaTime": 0, "channel": 1, "type": "channel", "subtype": "noteOff", "noteNumber": 58, "velocity": 0  },
      { "deltaTime": 1, "channel": 1, "type": "channel", "noteNumber": 52, "velocity": 64, "subtype": "noteOn"  },
      { "deltaTime": 0, "channel": 1, "type": "channel", "noteNumber": 52, "velocity": 64, "subtype": "noteOn"  },
      { "deltaTime": 239, "channel": 1, "type": "channel", "subtype": "noteOff", "noteNumber": 52, "velocity": 0  },
      { "deltaTime": 0, "channel": 1, "type": "channel", "subtype": "noteOff", "noteNumber": 52, "velocity": 0  },
      { "deltaTime": 1, "channel": 1, "type": "channel", "noteNumber": 59, "velocity": 64, "subtype": "noteOn"  },
      { "deltaTime": 0, "channel": 1, "type": "channel", "noteNumber": 59, "velocity": 64, "subtype": "noteOn"  },
      { "deltaTime": 239, "channel": 1, "type": "channel", "subtype": "noteOff", "noteNumber": 59, "velocity": 0  },
      { "deltaTime": 0, "channel": 1, "type": "channel", "subtype": "noteOff", "noteNumber": 59, "velocity": 0  },
      { "deltaTime": 1, "channel": 1, "type": "channel", "noteNumber": 59, "velocity": 64, "subtype": "noteOn"  },
      { "deltaTime": 0, "channel": 1, "type": "channel", "noteNumber": 59, "velocity": 64, "subtype": "noteOn"  },
      { "deltaTime": 239, "channel": 1, "type": "channel", "subtype": "noteOff", "noteNumber": 59, "velocity": 0  },
      { "deltaTime": 0, "channel": 1, "type": "channel", "subtype": "noteOff", "noteNumber": 59, "velocity": 0  },
      { "deltaTime": 1, "channel": 1, "type": "channel", "noteNumber": 52, "velocity": 64, "subtype": "noteOn"  },
      { "deltaTime": 0, "channel": 1, "type": "channel", "noteNumber": 52, "velocity": 64, "subtype": "noteOn"  },
      { "deltaTime": 239, "channel": 1, "type": "channel", "subtype": "noteOff", "noteNumber": 52, "velocity": 0  },
      { "deltaTime": 0, "channel": 1, "type": "channel", "subtype": "noteOff", "noteNumber": 52, "velocity": 0  },
      { "deltaTime": 1, "channel": 1, "type": "channel", "noteNumber": 58, "velocity": 64, "subtype": "noteOn"  },
      { "deltaTime": 0, "channel": 1, "type": "channel", "noteNumber": 58, "velocity": 64, "subtype": "noteOn"  },
      { "deltaTime": 239, "channel": 1, "type": "channel", "subtype": "noteOff", "noteNumber": 58, "velocity": 0  },
      { "deltaTime": 0, "channel": 1, "type": "channel", "subtype": "noteOff", "noteNumber": 58, "velocity": 0  },
      { "deltaTime": 1, "channel": 1, "type": "channel", "noteNumber": 52, "velocity": 64, "subtype": "noteOn"  },
      { "deltaTime": 0, "channel": 1, "type": "channel", "noteNumber": 52, "velocity": 64, "subtype": "noteOn"  },
      { "deltaTime": 239, "channel": 1, "type": "channel", "subtype": "noteOff", "noteNumber": 52, "velocity": 0  },
      { "deltaTime": 0, "channel": 1, "type": "channel", "subtype": "noteOff", "noteNumber": 52, "velocity": 0  },
      { "deltaTime": 1, "channel": 1, "type": "channel", "noteNumber": 64, "velocity": 64, "subtype": "noteOn"  },
      { "deltaTime": 239, "channel": 1, "type": "channel", "subtype": "noteOff", "noteNumber": 64, "velocity": 0  },
      { "deltaTime": 1, "channel": 1, "type": "channel", "noteNumber": 64, "velocity": 64, "subtype": "noteOn"  },
      { "deltaTime": 239, "channel": 1, "type": "channel", "subtype": "noteOff", "noteNumber": 64, "velocity": 0  },
      { "deltaTime": 1, "channel": 1, "type": "channel", "noteNumber": 64, "velocity": 64, "subtype": "noteOn"  },
      { "deltaTime": 239, "channel": 1, "type": "channel", "subtype": "noteOff", "noteNumber": 64, "velocity": 0  },
      { "deltaTime": 1, "channel": 1, "type": "channel", "noteNumber": 64, "velocity": 64, "subtype": "noteOn"  },
      { "deltaTime": 239, "channel": 1, "type": "channel", "subtype": "noteOff", "noteNumber": 64, "velocity": 0  },
      { "deltaTime": 481, "channel": 1, "type": "channel", "noteNumber": 52, "velocity": 64, "subtype": "noteOn"  },
      { "deltaTime": 239, "channel": 1, "type": "channel", "subtype": "noteOff", "noteNumber": 52, "velocity": 0  },
      { "deltaTime": 1, "channel": 1, "type": "channel", "noteNumber": 52, "velocity": 64, "subtype": "noteOn"  },
      { "deltaTime": 239, "channel": 1, "type": "channel", "subtype": "noteOff", "noteNumber": 52, "velocity": 0  },
      { "deltaTime": 1, "channel": 1, "type": "channel", "noteNumber": 52, "velocity": 64, "subtype": "noteOn"  },
      { "deltaTime": 239, "channel": 1, "type": "channel", "subtype": "noteOff", "noteNumber": 52, "velocity": 0  },
      { "deltaTime": 1, "channel": 1, "type": "channel", "noteNumber": 52, "velocity": 64, "subtype": "noteOn"  },
      { "deltaTime": 239, "channel": 1, "type": "channel", "subtype": "noteOff", "noteNumber": 52, "velocity": 0  },
      { "deltaTime": 481, "channel": 1, "type": "channel", "noteNumber": 64, "velocity": 64, "subtype": "noteOn"  },
      { "deltaTime": 239, "channel": 1, "type": "channel", "subtype": "noteOff", "noteNumber": 64, "velocity": 0  },
      { "deltaTime": 1, "channel": 1, "type": "channel", "noteNumber": 64, "velocity": 64, "subtype": "noteOn"  },
      { "deltaTime": 239, "channel": 1, "type": "channel", "subtype": "noteOff", "noteNumber": 64, "velocity": 0  },
      { "deltaTime": 1, "channel": 1, "type": "channel", "noteNumber": 64, "velocity": 64, "subtype": "noteOn"  },
      { "deltaTime": 239, "channel": 1, "type": "channel", "subtype": "noteOff", "noteNumber": 64, "velocity": 0  },
      { "deltaTime": 1, "channel": 1, "type": "channel", "noteNumber": 64, "velocity": 64, "subtype": "noteOn"  },
      { "deltaTime": 239, "channel": 1, "type": "channel", "subtype": "noteOff", "noteNumber": 64, "velocity": 0  },
      { "deltaTime": 481, "channel": 1, "type": "channel", "noteNumber": 52, "velocity": 64, "subtype": "noteOn"  },
      { "deltaTime": 239, "channel": 1, "type": "channel", "subtype": "noteOff", "noteNumber": 52, "velocity": 0  },
      { "deltaTime": 1, "channel": 1, "type": "channel", "noteNumber": 52, "velocity": 64, "subtype": "noteOn"  },
      { "deltaTime": 239, "channel": 1, "type": "channel", "subtype": "noteOff", "noteNumber": 52, "velocity": 0  },
      { "deltaTime": 1, "channel": 1, "type": "channel", "noteNumber": 52, "velocity": 64, "subtype": "noteOn"  },
      { "deltaTime": 239, "channel": 1, "type": "channel", "subtype": "noteOff", "noteNumber": 52, "velocity": 0  },
      { "deltaTime": 1, "channel": 1, "type": "channel", "noteNumber": 52, "velocity": 64, "subtype": "noteOn"  },
      { "deltaTime": 239, "channel": 1, "type": "channel", "subtype": "noteOff", "noteNumber": 52, "velocity": 0  },
      { "deltaTime": 1441, "channel": 1, "type": "channel", "noteNumber": 64, "velocity": 64, "subtype": "noteOn"  },
      { "deltaTime": 239, "channel": 1, "type": "channel", "subtype": "noteOff", "noteNumber": 64, "velocity": 0  },
      { "deltaTime": 1, "channel": 1, "type": "channel", "noteNumber": 64, "velocity": 64, "subtype": "noteOn"  },
      { "deltaTime": 239, "channel": 1, "type": "channel", "subtype": "noteOff", "noteNumber": 64, "velocity": 0  },
      { "deltaTime": 1, "channel": 1, "type": "channel", "noteNumber": 64, "velocity": 64, "subtype": "noteOn"  },
      { "deltaTime": 239, "channel": 1, "type": "channel", "subtype": "noteOff", "noteNumber": 64, "velocity": 0  },
      { "deltaTime": 1, "channel": 1, "type": "channel", "noteNumber": 64, "velocity": 64, "subtype": "noteOn"  },
      { "deltaTime": 239, "channel": 1, "type": "channel", "subtype": "noteOff", "noteNumber": 64, "velocity": 0  },
      { "deltaTime": 481, "channel": 1, "type": "channel", "noteNumber": 52, "velocity": 64, "subtype": "noteOn"  },
      { "deltaTime": 239, "channel": 1, "type": "channel", "subtype": "noteOff", "noteNumber": 52, "velocity": 0  },
      { "deltaTime": 1, "channel": 1, "type": "channel", "noteNumber": 52, "velocity": 64, "subtype": "noteOn"  },
      { "deltaTime": 239, "channel": 1, "type": "channel", "subtype": "noteOff", "noteNumber": 52, "velocity": 0  },
      { "deltaTime": 1, "channel": 1, "type": "channel", "noteNumber": 52, "velocity": 64, "subtype": "noteOn"  },
      { "deltaTime": 239, "channel": 1, "type": "channel", "subtype": "noteOff", "noteNumber": 52, "velocity": 0  },
      { "deltaTime": 1, "channel": 1, "type": "channel", "noteNumber": 52, "velocity": 64, "subtype": "noteOn"  },
      { "deltaTime": 239, "channel": 1, "type": "channel", "subtype": "noteOff", "noteNumber": 52, "velocity": 0  },
      { "deltaTime": 481, "channel": 1, "type": "channel", "noteNumber": 64, "velocity": 64, "subtype": "noteOn"  },
      { "deltaTime": 239, "channel": 1, "type": "channel", "subtype": "noteOff", "noteNumber": 64, "velocity": 0  },
      { "deltaTime": 1, "channel": 1, "type": "channel", "noteNumber": 64, "velocity": 64, "subtype": "noteOn"  },
      { "deltaTime": 239, "channel": 1, "type": "channel", "subtype": "noteOff", "noteNumber": 64, "velocity": 0  },
      { "deltaTime": 1, "channel": 1, "type": "channel", "noteNumber": 64, "velocity": 64, "subtype": "noteOn"  },
      { "deltaTime": 239, "channel": 1, "type": "channel", "subtype": "noteOff", "noteNumber": 64, "velocity": 0  },
      { "deltaTime": 1, "channel": 1, "type": "channel", "noteNumber": 64, "velocity": 64, "subtype": "noteOn"  },
      { "deltaTime": 239, "channel": 1, "type": "channel", "subtype": "noteOff", "noteNumber": 64, "velocity": 0  },
      { "deltaTime": 481, "channel": 1, "type": "channel", "noteNumber": 52, "velocity": 64, "subtype": "noteOn"  },
      { "deltaTime": 239, "channel": 1, "type": "channel", "subtype": "noteOff", "noteNumber": 52, "velocity": 0  },
      { "deltaTime": 1, "channel": 1, "type": "channel", "noteNumber": 52, "velocity": 64, "subtype": "noteOn"  },
      { "deltaTime": 239, "channel": 1, "type": "channel", "subtype": "noteOff", "noteNumber": 52, "velocity": 0  },
      { "deltaTime": 1, "channel": 1, "type": "channel", "noteNumber": 52, "velocity": 64, "subtype": "noteOn"  },
      { "deltaTime": 239, "channel": 1, "type": "channel", "subtype": "noteOff", "noteNumber": 52, "velocity": 0  },
      { "deltaTime": 1, "channel": 1, "type": "channel", "noteNumber": 52, "velocity": 64, "subtype": "noteOn"  },
      { "deltaTime": 239, "channel": 1, "type": "channel", "subtype": "noteOff", "noteNumber": 52, "velocity": 0  },
      { "deltaTime": 1441, "channel": 1, "type": "channel", "noteNumber": 52, "velocity": 64, "subtype": "noteOn"  },
      { "deltaTime": 239, "channel": 1, "type": "channel", "subtype": "noteOff", "noteNumber": 52, "velocity": 0  },
      { "deltaTime": 1, "channel": 1, "type": "channel", "noteNumber": 59, "velocity": 64, "subtype": "noteOn"  },
      { "deltaTime": 239, "channel": 1, "type": "channel", "subtype": "noteOff", "noteNumber": 59, "velocity": 0  },
      { "deltaTime": 1, "channel": 1, "type": "channel", "noteNumber": 59, "velocity": 64, "subtype": "noteOn"  },
      { "deltaTime": 239, "channel": 1, "type": "channel", "subtype": "noteOff", "noteNumber": 59, "velocity": 0  },
      { "deltaTime": 1, "channel": 1, "type": "channel", "noteNumber": 52, "velocity": 64, "subtype": "noteOn"  },
      { "deltaTime": 239, "channel": 1, "type": "channel", "subtype": "noteOff", "noteNumber": 52, "velocity": 0  },
      { "deltaTime": 1, "channel": 1, "type": "channel", "noteNumber": 58, "velocity": 64, "subtype": "noteOn"  },
      { "deltaTime": 0, "channel": 1, "type": "channel", "noteNumber": 58, "velocity": 64, "subtype": "noteOn"  },
      { "deltaTime": 239, "channel": 1, "type": "channel", "subtype": "noteOff", "noteNumber": 58, "velocity": 0  },
      { "deltaTime": 0, "channel": 1, "type": "channel", "subtype": "noteOff", "noteNumber": 58, "velocity": 0  },
      { "deltaTime": 1, "channel": 1, "type": "channel", "noteNumber": 58, "velocity": 64, "subtype": "noteOn"  },
      { "deltaTime": 0, "channel": 1, "type": "channel", "noteNumber": 58, "velocity": 64, "subtype": "noteOn"  },
      { "deltaTime": 239, "channel": 1, "type": "channel", "subtype": "noteOff", "noteNumber": 58, "velocity": 0  },
      { "deltaTime": 0, "channel": 1, "type": "channel", "subtype": "noteOff", "noteNumber": 58, "velocity": 0  },
      { "deltaTime": 1, "channel": 1, "type": "channel", "noteNumber": 52, "velocity": 64, "subtype": "noteOn"  },
      { "deltaTime": 0, "channel": 1, "type": "channel", "noteNumber": 52, "velocity": 64, "subtype": "noteOn"  },
      { "deltaTime": 239, "channel": 1, "type": "channel", "subtype": "noteOff", "noteNumber": 52, "velocity": 0  },
      { "deltaTime": 0, "channel": 1, "type": "channel", "subtype": "noteOff", "noteNumber": 52, "velocity": 0  },
      { "deltaTime": 1, "channel": 1, "type": "channel", "noteNumber": 59, "velocity": 64, "subtype": "noteOn"  },
      { "deltaTime": 0, "channel": 1, "type": "channel", "noteNumber": 59, "velocity": 64, "subtype": "noteOn"  },
      { "deltaTime": 239, "channel": 1, "type": "channel", "subtype": "noteOff", "noteNumber": 59, "velocity": 0  },
      { "deltaTime": 0, "channel": 1, "type": "channel", "subtype": "noteOff", "noteNumber": 59, "velocity": 0  },
      { "deltaTime": 1, "channel": 1, "type": "channel", "noteNumber": 59, "velocity": 64, "subtype": "noteOn"  },
      { "deltaTime": 0, "channel": 1, "type": "channel", "noteNumber": 59, "velocity": 64, "subtype": "noteOn"  },
      { "deltaTime": 239, "channel": 1, "type": "channel", "subtype": "noteOff", "noteNumber": 59, "velocity": 0  },
      { "deltaTime": 0, "channel": 1, "type": "channel", "subtype": "noteOff", "noteNumber": 59, "velocity": 0  },
      { "deltaTime": 1, "channel": 1, "type": "channel", "noteNumber": 52, "velocity": 64, "subtype": "noteOn"  },
      { "deltaTime": 0, "channel": 1, "type": "channel", "noteNumber": 52, "velocity": 64, "subtype": "noteOn"  },
      { "deltaTime": 239, "channel": 1, "type": "channel", "subtype": "noteOff", "noteNumber": 52, "velocity": 0  },
      { "deltaTime": 0, "channel": 1, "type": "channel", "subtype": "noteOff", "noteNumber": 52, "velocity": 0  },
      { "deltaTime": 1, "channel": 1, "type": "channel", "noteNumber": 58, "velocity": 64, "subtype": "noteOn"  },
      { "deltaTime": 0, "channel": 1, "type": "channel", "noteNumber": 58, "velocity": 64, "subtype": "noteOn"  },
      { "deltaTime": 239, "channel": 1, "type": "channel", "subtype": "noteOff", "noteNumber": 58, "velocity": 0  },
      { "deltaTime": 0, "channel": 1, "type": "channel", "subtype": "noteOff", "noteNumber": 58, "velocity": 0  },
      { "deltaTime": 1, "channel": 1, "type": "channel", "noteNumber": 58, "velocity": 64, "subtype": "noteOn"  },
      { "deltaTime": 0, "channel": 1, "type": "channel", "noteNumber": 58, "velocity": 64, "subtype": "noteOn"  },
      { "deltaTime": 239, "channel": 1, "type": "channel", "subtype": "noteOff", "noteNumber": 58, "velocity": 0  },
      { "deltaTime": 0, "channel": 1, "type": "channel", "subtype": "noteOff", "noteNumber": 58, "velocity": 0  },
      { "deltaTime": 1, "channel": 1, "type": "channel", "noteNumber": 52, "velocity": 64, "subtype": "noteOn"  },
      { "deltaTime": 0, "channel": 1, "type": "channel", "noteNumber": 52, "velocity": 64, "subtype": "noteOn"  },
      { "deltaTime": 239, "channel": 1, "type": "channel", "subtype": "noteOff", "noteNumber": 52, "velocity": 0  },
      { "deltaTime": 0, "channel": 1, "type": "channel", "subtype": "noteOff", "noteNumber": 52, "velocity": 0  },
      { "deltaTime": 1, "channel": 1, "type": "channel", "noteNumber": 59, "velocity": 64, "subtype": "noteOn"  },
      { "deltaTime": 0, "channel": 1, "type": "channel", "noteNumber": 59, "velocity": 64, "subtype": "noteOn"  },
      { "deltaTime": 239, "channel": 1, "type": "channel", "subtype": "noteOff", "noteNumber": 59, "velocity": 0  },
      { "deltaTime": 0, "channel": 1, "type": "channel", "subtype": "noteOff", "noteNumber": 59, "velocity": 0  },
      { "deltaTime": 1, "channel": 1, "type": "channel", "noteNumber": 52, "velocity": 64, "subtype": "noteOn"  },
      { "deltaTime": 0, "channel": 1, "type": "channel", "noteNumber": 52, "velocity": 64, "subtype": "noteOn"  },
      { "deltaTime": 239, "channel": 1, "type": "channel", "subtype": "noteOff", "noteNumber": 52, "velocity": 0  },
      { "deltaTime": 0, "channel": 1, "type": "channel", "subtype": "noteOff", "noteNumber": 52, "velocity": 0  },
      { "deltaTime": 1, "channel": 1, "type": "channel", "noteNumber": 60, "velocity": 64, "subtype": "noteOn"  },
      { "deltaTime": 0, "channel": 1, "type": "channel", "noteNumber": 60, "velocity": 64, "subtype": "noteOn"  },
      { "deltaTime": 239, "channel": 1, "type": "channel", "subtype": "noteOff", "noteNumber": 60, "velocity": 0  },
      { "deltaTime": 0, "channel": 1, "type": "channel", "subtype": "noteOff", "noteNumber": 60, "velocity": 0  },
      { "deltaTime": 1, "channel": 1, "type": "channel", "noteNumber": 52, "velocity": 64, "subtype": "noteOn"  },
      { "deltaTime": 0, "channel": 1, "type": "channel", "noteNumber": 52, "velocity": 64, "subtype": "noteOn"  },
      { "deltaTime": 239, "channel": 1, "type": "channel", "subtype": "noteOff", "noteNumber": 52, "velocity": 0  },
      { "deltaTime": 0, "channel": 1, "type": "channel", "subtype": "noteOff", "noteNumber": 52, "velocity": 0  },
      { "deltaTime": 1, "channel": 1, "type": "channel", "noteNumber": 59, "velocity": 64, "subtype": "noteOn"  },
      { "deltaTime": 0, "channel": 1, "type": "channel", "noteNumber": 59, "velocity": 64, "subtype": "noteOn"  },
      { "deltaTime": 0, "channel": 1, "type": "channel", "noteNumber": 59, "velocity": 64, "subtype": "noteOn"  },
      { "deltaTime": 0, "channel": 1, "type": "channel", "noteNumber": 59, "velocity": 64, "subtype": "noteOn"  },
      { "deltaTime": 0, "channel": 1, "type": "channel", "noteNumber": 59, "velocity": 64, "subtype": "noteOn"  },
      { "deltaTime": 0, "channel": 1, "type": "channel", "noteNumber": 59, "velocity": 64, "subtype": "noteOn"  },
      { "deltaTime": 0, "channel": 1, "type": "channel", "noteNumber": 59, "velocity": 64, "subtype": "noteOn"  },
      { "deltaTime": 0, "channel": 1, "type": "channel", "noteNumber": 59, "velocity": 64, "subtype": "noteOn"  },
      { "deltaTime": 239, "channel": 1, "type": "channel", "subtype": "noteOff", "noteNumber": 59, "velocity": 0  },
      { "deltaTime": 0, "channel": 1, "type": "channel", "subtype": "noteOff", "noteNumber": 59, "velocity": 0  },
      { "deltaTime": 0, "channel": 1, "type": "channel", "subtype": "noteOff", "noteNumber": 59, "velocity": 0  },
      { "deltaTime": 0, "channel": 1, "type": "channel", "subtype": "noteOff", "noteNumber": 59, "velocity": 0  },
      { "deltaTime": 0, "channel": 1, "type": "channel", "subtype": "noteOff", "noteNumber": 59, "velocity": 0  },
      { "deltaTime": 0, "channel": 1, "type": "channel", "subtype": "noteOff", "noteNumber": 59, "velocity": 0  },
      { "deltaTime": 0, "channel": 1, "type": "channel", "subtype": "noteOff", "noteNumber": 59, "velocity": 0  },
      { "deltaTime": 0, "channel": 1, "type": "channel", "subtype": "noteOff", "noteNumber": 59, "velocity": 0  },
      { "deltaTime": 1, "channel": 1, "type": "channel", "noteNumber": 59, "velocity": 64, "subtype": "noteOn"  },
      { "deltaTime": 0, "channel": 1, "type": "channel", "noteNumber": 59, "velocity": 64, "subtype": "noteOn"  },
      { "deltaTime": 0, "channel": 1, "type": "channel", "noteNumber": 59, "velocity": 64, "subtype": "noteOn"  },
      { "deltaTime": 0, "channel": 1, "type": "channel", "noteNumber": 59, "velocity": 64, "subtype": "noteOn"  },
      { "deltaTime": 0, "channel": 1, "type": "channel", "noteNumber": 59, "velocity": 64, "subtype": "noteOn"  },
      { "deltaTime": 0, "channel": 1, "type": "channel", "noteNumber": 59, "velocity": 64, "subtype": "noteOn"  },
      { "deltaTime": 0, "channel": 1, "type": "channel", "noteNumber": 59, "velocity": 64, "subtype": "noteOn"  },
      { "deltaTime": 0, "channel": 1, "type": "channel", "noteNumber": 59, "velocity": 64, "subtype": "noteOn"  },
      { "deltaTime": 239, "channel": 1, "type": "channel", "subtype": "noteOff", "noteNumber": 59, "velocity": 0  },
      { "deltaTime": 0, "channel": 1, "type": "channel", "subtype": "noteOff", "noteNumber": 59, "velocity": 0  },
      { "deltaTime": 0, "channel": 1, "type": "channel", "subtype": "noteOff", "noteNumber": 59, "velocity": 0  },
      { "deltaTime": 0, "channel": 1, "type": "channel", "subtype": "noteOff", "noteNumber": 59, "velocity": 0  },
      { "deltaTime": 0, "channel": 1, "type": "channel", "subtype": "noteOff", "noteNumber": 59, "velocity": 0  },
      { "deltaTime": 0, "channel": 1, "type": "channel", "subtype": "noteOff", "noteNumber": 59, "velocity": 0  },
      { "deltaTime": 0, "channel": 1, "type": "channel", "subtype": "noteOff", "noteNumber": 59, "velocity": 0  },
      { "deltaTime": 0, "channel": 1, "type": "channel", "subtype": "noteOff", "noteNumber": 59, "velocity": 0  },
      { "deltaTime": 1, "channel": 1, "type": "channel", "noteNumber": 52, "velocity": 64, "subtype": "noteOn"  },
      { "deltaTime": 0, "channel": 1, "type": "channel", "noteNumber": 52, "velocity": 64, "subtype": "noteOn"  },
      { "deltaTime": 0, "channel": 1, "type": "channel", "noteNumber": 52, "velocity": 64, "subtype": "noteOn"  },
      { "deltaTime": 0, "channel": 1, "type": "channel", "noteNumber": 52, "velocity": 64, "subtype": "noteOn"  },
      { "deltaTime": 0, "channel": 1, "type": "channel", "noteNumber": 52, "velocity": 64, "subtype": "noteOn"  },
      { "deltaTime": 0, "channel": 1, "type": "channel", "noteNumber": 52, "velocity": 64, "subtype": "noteOn"  },
      { "deltaTime": 0, "channel": 1, "type": "channel", "noteNumber": 52, "velocity": 64, "subtype": "noteOn"  },
      { "deltaTime": 0, "channel": 1, "type": "channel", "noteNumber": 52, "velocity": 64, "subtype": "noteOn"  },
      { "deltaTime": 239, "channel": 1, "type": "channel", "subtype": "noteOff", "noteNumber": 52, "velocity": 0  },
      { "deltaTime": 0, "channel": 1, "type": "channel", "subtype": "noteOff", "noteNumber": 52, "velocity": 0  },
      { "deltaTime": 0, "channel": 1, "type": "channel", "subtype": "noteOff", "noteNumber": 52, "velocity": 0  },
      { "deltaTime": 0, "channel": 1, "type": "channel", "subtype": "noteOff", "noteNumber": 52, "velocity": 0  },
      { "deltaTime": 0, "channel": 1, "type": "channel", "subtype": "noteOff", "noteNumber": 52, "velocity": 0  },
      { "deltaTime": 0, "channel": 1, "type": "channel", "subtype": "noteOff", "noteNumber": 52, "velocity": 0  },
      { "deltaTime": 0, "channel": 1, "type": "channel", "subtype": "noteOff", "noteNumber": 52, "velocity": 0  },
      { "deltaTime": 0, "channel": 1, "type": "channel", "subtype": "noteOff", "noteNumber": 52, "velocity": 0  },
      { "deltaTime": 1, "channel": 1, "type": "channel", "noteNumber": 58, "velocity": 64, "subtype": "noteOn"  },
      { "deltaTime": 0, "channel": 1, "type": "channel", "noteNumber": 58, "velocity": 64, "subtype": "noteOn"  },
      { "deltaTime": 0, "channel": 1, "type": "channel", "noteNumber": 58, "velocity": 64, "subtype": "noteOn"  },
      { "deltaTime": 0, "channel": 1, "type": "channel", "noteNumber": 58, "velocity": 64, "subtype": "noteOn"  },
      { "deltaTime": 0, "channel": 1, "type": "channel", "noteNumber": 58, "velocity": 64, "subtype": "noteOn"  },
      { "deltaTime": 0, "channel": 1, "type": "channel", "noteNumber": 58, "velocity": 64, "subtype": "noteOn"  },
      { "deltaTime": 0, "channel": 1, "type": "channel", "noteNumber": 58, "velocity": 64, "subtype": "noteOn"  },
      { "deltaTime": 0, "channel": 1, "type": "channel", "noteNumber": 58, "velocity": 64, "subtype": "noteOn"  },
      { "deltaTime": 239, "channel": 1, "type": "channel", "subtype": "noteOff", "noteNumber": 58, "velocity": 0  },
      { "deltaTime": 0, "channel": 1, "type": "channel", "subtype": "noteOff", "noteNumber": 58, "velocity": 0  },
      { "deltaTime": 0, "channel": 1, "type": "channel", "subtype": "noteOff", "noteNumber": 58, "velocity": 0  },
      { "deltaTime": 0, "channel": 1, "type": "channel", "subtype": "noteOff", "noteNumber": 58, "velocity": 0  },
      { "deltaTime": 0, "channel": 1, "type": "channel", "subtype": "noteOff", "noteNumber": 58, "velocity": 0  },
      { "deltaTime": 0, "channel": 1, "type": "channel", "subtype": "noteOff", "noteNumber": 58, "velocity": 0  },
      { "deltaTime": 0, "channel": 1, "type": "channel", "subtype": "noteOff", "noteNumber": 58, "velocity": 0  },
      { "deltaTime": 0, "channel": 1, "type": "channel", "subtype": "noteOff", "noteNumber": 58, "velocity": 0  },
      { "deltaTime": 1, "channel": 1, "type": "channel", "noteNumber": 58, "velocity": 64, "subtype": "noteOn"  },
      { "deltaTime": 0, "channel": 1, "type": "channel", "noteNumber": 58, "velocity": 64, "subtype": "noteOn"  },
      { "deltaTime": 0, "channel": 1, "type": "channel", "noteNumber": 58, "velocity": 64, "subtype": "noteOn"  },
      { "deltaTime": 0, "channel": 1, "type": "channel", "noteNumber": 58, "velocity": 64, "subtype": "noteOn"  },
      { "deltaTime": 0, "channel": 1, "type": "channel", "noteNumber": 58, "velocity": 64, "subtype": "noteOn"  },
      { "deltaTime": 0, "channel": 1, "type": "channel", "noteNumber": 58, "velocity": 64, "subtype": "noteOn"  },
      { "deltaTime": 0, "channel": 1, "type": "channel", "noteNumber": 58, "velocity": 64, "subtype": "noteOn"  },
      { "deltaTime": 0, "channel": 1, "type": "channel", "noteNumber": 58, "velocity": 64, "subtype": "noteOn"  },
      { "deltaTime": 239, "channel": 1, "type": "channel", "subtype": "noteOff", "noteNumber": 58, "velocity": 0  },
      { "deltaTime": 0, "channel": 1, "type": "channel", "subtype": "noteOff", "noteNumber": 58, "velocity": 0  },
      { "deltaTime": 0, "channel": 1, "type": "channel", "subtype": "noteOff", "noteNumber": 58, "velocity": 0  },
      { "deltaTime": 0, "channel": 1, "type": "channel", "subtype": "noteOff", "noteNumber": 58, "velocity": 0  },
      { "deltaTime": 0, "channel": 1, "type": "channel", "subtype": "noteOff", "noteNumber": 58, "velocity": 0  },
      { "deltaTime": 0, "channel": 1, "type": "channel", "subtype": "noteOff", "noteNumber": 58, "velocity": 0  },
      { "deltaTime": 0, "channel": 1, "type": "channel", "subtype": "noteOff", "noteNumber": 58, "velocity": 0  },
      { "deltaTime": 0, "channel": 1, "type": "channel", "subtype": "noteOff", "noteNumber": 58, "velocity": 0  },
      { "deltaTime": 1, "channel": 1, "type": "channel", "noteNumber": 52, "velocity": 64, "subtype": "noteOn"  },
      { "deltaTime": 0, "channel": 1, "type": "channel", "noteNumber": 52, "velocity": 64, "subtype": "noteOn"  },
      { "deltaTime": 0, "channel": 1, "type": "channel", "noteNumber": 52, "velocity": 64, "subtype": "noteOn"  },
      { "deltaTime": 0, "channel": 1, "type": "channel", "noteNumber": 52, "velocity": 64, "subtype": "noteOn"  },
      { "deltaTime": 0, "channel": 1, "type": "channel", "noteNumber": 52, "velocity": 64, "subtype": "noteOn"  },
      { "deltaTime": 0, "channel": 1, "type": "channel", "noteNumber": 52, "velocity": 64, "subtype": "noteOn"  },
      { "deltaTime": 0, "channel": 1, "type": "channel", "noteNumber": 52, "velocity": 64, "subtype": "noteOn"  },
      { "deltaTime": 0, "channel": 1, "type": "channel", "noteNumber": 52, "velocity": 64, "subtype": "noteOn"  },
      { "deltaTime": 239, "channel": 1, "type": "channel", "subtype": "noteOff", "noteNumber": 52, "velocity": 0  },
      { "deltaTime": 0, "channel": 1, "type": "channel", "subtype": "noteOff", "noteNumber": 52, "velocity": 0  },
      { "deltaTime": 0, "channel": 1, "type": "channel", "subtype": "noteOff", "noteNumber": 52, "velocity": 0  },
      { "deltaTime": 0, "channel": 1, "type": "channel", "subtype": "noteOff", "noteNumber": 52, "velocity": 0  },
      { "deltaTime": 0, "channel": 1, "type": "channel", "subtype": "noteOff", "noteNumber": 52, "velocity": 0  },
      { "deltaTime": 0, "channel": 1, "type": "channel", "subtype": "noteOff", "noteNumber": 52, "velocity": 0  },
      { "deltaTime": 0, "channel": 1, "type": "channel", "subtype": "noteOff", "noteNumber": 52, "velocity": 0  },
      { "deltaTime": 0, "channel": 1, "type": "channel", "subtype": "noteOff", "noteNumber": 52, "velocity": 0  },
      { "deltaTime": 1, "channel": 1, "type": "channel", "noteNumber": 59, "velocity": 64, "subtype": "noteOn"  },
      { "deltaTime": 0, "channel": 1, "type": "channel", "noteNumber": 59, "velocity": 64, "subtype": "noteOn"  },
      { "deltaTime": 0, "channel": 1, "type": "channel", "noteNumber": 59, "velocity": 64, "subtype": "noteOn"  },
      { "deltaTime": 0, "channel": 1, "type": "channel", "noteNumber": 59, "velocity": 64, "subtype": "noteOn"  },
      { "deltaTime": 0, "channel": 1, "type": "channel", "noteNumber": 59, "velocity": 64, "subtype": "noteOn"  },
      { "deltaTime": 0, "channel": 1, "type": "channel", "noteNumber": 59, "velocity": 64, "subtype": "noteOn"  },
      { "deltaTime": 0, "channel": 1, "type": "channel", "noteNumber": 59, "velocity": 64, "subtype": "noteOn"  },
      { "deltaTime": 0, "channel": 1, "type": "channel", "noteNumber": 59, "velocity": 64, "subtype": "noteOn"  },
      { "deltaTime": 239, "channel": 1, "type": "channel", "subtype": "noteOff", "noteNumber": 59, "velocity": 0  },
      { "deltaTime": 0, "channel": 1, "type": "channel", "subtype": "noteOff", "noteNumber": 59, "velocity": 0  },
      { "deltaTime": 0, "channel": 1, "type": "channel", "subtype": "noteOff", "noteNumber": 59, "velocity": 0  },
      { "deltaTime": 0, "channel": 1, "type": "channel", "subtype": "noteOff", "noteNumber": 59, "velocity": 0  },
      { "deltaTime": 0, "channel": 1, "type": "channel", "subtype": "noteOff", "noteNumber": 59, "velocity": 0  },
      { "deltaTime": 0, "channel": 1, "type": "channel", "subtype": "noteOff", "noteNumber": 59, "velocity": 0  },
      { "deltaTime": 0, "channel": 1, "type": "channel", "subtype": "noteOff", "noteNumber": 59, "velocity": 0  },
      { "deltaTime": 0, "channel": 1, "type": "channel", "subtype": "noteOff", "noteNumber": 59, "velocity": 0  },
      { "deltaTime": 1, "channel": 1, "type": "channel", "noteNumber": 59, "velocity": 64, "subtype": "noteOn"  },
      { "deltaTime": 0, "channel": 1, "type": "channel", "noteNumber": 59, "velocity": 64, "subtype": "noteOn"  },
      { "deltaTime": 0, "channel": 1, "type": "channel", "noteNumber": 59, "velocity": 64, "subtype": "noteOn"  },
      { "deltaTime": 0, "channel": 1, "type": "channel", "noteNumber": 59, "velocity": 64, "subtype": "noteOn"  },
      { "deltaTime": 0, "channel": 1, "type": "channel", "noteNumber": 59, "velocity": 64, "subtype": "noteOn"  },
      { "deltaTime": 0, "channel": 1, "type": "channel", "noteNumber": 59, "velocity": 64, "subtype": "noteOn"  },
      { "deltaTime": 0, "channel": 1, "type": "channel", "noteNumber": 59, "velocity": 64, "subtype": "noteOn"  },
      { "deltaTime": 0, "channel": 1, "type": "channel", "noteNumber": 59, "velocity": 64, "subtype": "noteOn"  },
      { "deltaTime": 239, "channel": 1, "type": "channel", "subtype": "noteOff", "noteNumber": 59, "velocity": 0  },
      { "deltaTime": 0, "channel": 1, "type": "channel", "subtype": "noteOff", "noteNumber": 59, "velocity": 0  },
      { "deltaTime": 0, "channel": 1, "type": "channel", "subtype": "noteOff", "noteNumber": 59, "velocity": 0  },
      { "deltaTime": 0, "channel": 1, "type": "channel", "subtype": "noteOff", "noteNumber": 59, "velocity": 0  },
      { "deltaTime": 0, "channel": 1, "type": "channel", "subtype": "noteOff", "noteNumber": 59, "velocity": 0  },
      { "deltaTime": 0, "channel": 1, "type": "channel", "subtype": "noteOff", "noteNumber": 59, "velocity": 0  },
      { "deltaTime": 0, "channel": 1, "type": "channel", "subtype": "noteOff", "noteNumber": 59, "velocity": 0  },
      { "deltaTime": 0, "channel": 1, "type": "channel", "subtype": "noteOff", "noteNumber": 59, "velocity": 0  },
      { "deltaTime": 1, "channel": 1, "type": "channel", "noteNumber": 52, "velocity": 64, "subtype": "noteOn"  },
      { "deltaTime": 0, "channel": 1, "type": "channel", "noteNumber": 52, "velocity": 64, "subtype": "noteOn"  },
      { "deltaTime": 0, "channel": 1, "type": "channel", "noteNumber": 52, "velocity": 64, "subtype": "noteOn"  },
      { "deltaTime": 0, "channel": 1, "type": "channel", "noteNumber": 52, "velocity": 64, "subtype": "noteOn"  },
      { "deltaTime": 0, "channel": 1, "type": "channel", "noteNumber": 52, "velocity": 64, "subtype": "noteOn"  },
      { "deltaTime": 0, "channel": 1, "type": "channel", "noteNumber": 52, "velocity": 64, "subtype": "noteOn"  },
      { "deltaTime": 0, "channel": 1, "type": "channel", "noteNumber": 52, "velocity": 64, "subtype": "noteOn"  },
      { "deltaTime": 0, "channel": 1, "type": "channel", "noteNumber": 52, "velocity": 64, "subtype": "noteOn"  },
      { "deltaTime": 239, "channel": 1, "type": "channel", "subtype": "noteOff", "noteNumber": 52, "velocity": 0  },
      { "deltaTime": 0, "channel": 1, "type": "channel", "subtype": "noteOff", "noteNumber": 52, "velocity": 0  },
      { "deltaTime": 0, "channel": 1, "type": "channel", "subtype": "noteOff", "noteNumber": 52, "velocity": 0  },
      { "deltaTime": 0, "channel": 1, "type": "channel", "subtype": "noteOff", "noteNumber": 52, "velocity": 0  },
      { "deltaTime": 0, "channel": 1, "type": "channel", "subtype": "noteOff", "noteNumber": 52, "velocity": 0  },
      { "deltaTime": 0, "channel": 1, "type": "channel", "subtype": "noteOff", "noteNumber": 52, "velocity": 0  },
      { "deltaTime": 0, "channel": 1, "type": "channel", "subtype": "noteOff", "noteNumber": 52, "velocity": 0  },
      { "deltaTime": 0, "channel": 1, "type": "channel", "subtype": "noteOff", "noteNumber": 52, "velocity": 0  },
      { "deltaTime": 1, "channel": 1, "type": "channel", "noteNumber": 58, "velocity": 64, "subtype": "noteOn"  },
      { "deltaTime": 0, "channel": 1, "type": "channel", "noteNumber": 58, "velocity": 64, "subtype": "noteOn"  },
      { "deltaTime": 0, "channel": 1, "type": "channel", "noteNumber": 58, "velocity": 64, "subtype": "noteOn"  },
      { "deltaTime": 0, "channel": 1, "type": "channel", "noteNumber": 58, "velocity": 64, "subtype": "noteOn"  },
      { "deltaTime": 0, "channel": 1, "type": "channel", "noteNumber": 58, "velocity": 64, "subtype": "noteOn"  },
      { "deltaTime": 0, "channel": 1, "type": "channel", "noteNumber": 58, "velocity": 64, "subtype": "noteOn"  },
      { "deltaTime": 0, "channel": 1, "type": "channel", "noteNumber": 58, "velocity": 64, "subtype": "noteOn"  },
      { "deltaTime": 0, "channel": 1, "type": "channel", "noteNumber": 58, "velocity": 64, "subtype": "noteOn"  },
      { "deltaTime": 239, "channel": 1, "type": "channel", "subtype": "noteOff", "noteNumber": 58, "velocity": 0  },
      { "deltaTime": 0, "channel": 1, "type": "channel", "subtype": "noteOff", "noteNumber": 58, "velocity": 0  },
      { "deltaTime": 0, "channel": 1, "type": "channel", "subtype": "noteOff", "noteNumber": 58, "velocity": 0  },
      { "deltaTime": 0, "channel": 1, "type": "channel", "subtype": "noteOff", "noteNumber": 58, "velocity": 0  },
      { "deltaTime": 0, "channel": 1, "type": "channel", "subtype": "noteOff", "noteNumber": 58, "velocity": 0  },
      { "deltaTime": 0, "channel": 1, "type": "channel", "subtype": "noteOff", "noteNumber": 58, "velocity": 0  },
      { "deltaTime": 0, "channel": 1, "type": "channel", "subtype": "noteOff", "noteNumber": 58, "velocity": 0  },
      { "deltaTime": 0, "channel": 1, "type": "channel", "subtype": "noteOff", "noteNumber": 58, "velocity": 0  },
      { "deltaTime": 1, "channel": 1, "type": "channel", "noteNumber": 52, "velocity": 64, "subtype": "noteOn"  },
      { "deltaTime": 0, "channel": 1, "type": "channel", "noteNumber": 52, "velocity": 64, "subtype": "noteOn"  },
      { "deltaTime": 239, "channel": 1, "type": "channel", "subtype": "noteOff", "noteNumber": 52, "velocity": 0  },
      { "deltaTime": 0, "channel": 1, "type": "channel", "subtype": "noteOff", "noteNumber": 52, "velocity": 0  },
      { "deltaTime": 1, "channel": 1, "type": "channel", "noteNumber": 52, "velocity": 64, "subtype": "noteOn"  },
      { "deltaTime": 0, "channel": 1, "type": "channel", "noteNumber": 52, "velocity": 64, "subtype": "noteOn"  },
      { "deltaTime": 239, "channel": 1, "type": "channel", "subtype": "noteOff", "noteNumber": 52, "velocity": 0  },
      { "deltaTime": 0, "channel": 1, "type": "channel", "subtype": "noteOff", "noteNumber": 52, "velocity": 0  },
      { "deltaTime": 1, "channel": 1, "type": "channel", "noteNumber": 59, "velocity": 64, "subtype": "noteOn"  },
      { "deltaTime": 0, "channel": 1, "type": "channel", "noteNumber": 59, "velocity": 64, "subtype": "noteOn"  },
      { "deltaTime": 239, "channel": 1, "type": "channel", "subtype": "noteOff", "noteNumber": 59, "velocity": 0  },
      { "deltaTime": 0, "channel": 1, "type": "channel", "subtype": "noteOff", "noteNumber": 59, "velocity": 0  },
      { "deltaTime": 1, "channel": 1, "type": "channel", "noteNumber": 59, "velocity": 64, "subtype": "noteOn"  },
      { "deltaTime": 0, "channel": 1, "type": "channel", "noteNumber": 59, "velocity": 64, "subtype": "noteOn"  },
      { "deltaTime": 239, "channel": 1, "type": "channel", "subtype": "noteOff", "noteNumber": 59, "velocity": 0  },
      { "deltaTime": 0, "channel": 1, "type": "channel", "subtype": "noteOff", "noteNumber": 59, "velocity": 0  },
      { "deltaTime": 1, "channel": 1, "type": "channel", "noteNumber": 52, "velocity": 64, "subtype": "noteOn"  },
      { "deltaTime": 0, "channel": 1, "type": "channel", "noteNumber": 52, "velocity": 64, "subtype": "noteOn"  },
      { "deltaTime": 239, "channel": 1, "type": "channel", "subtype": "noteOff", "noteNumber": 52, "velocity": 0  },
      { "deltaTime": 0, "channel": 1, "type": "channel", "subtype": "noteOff", "noteNumber": 52, "velocity": 0  },
      { "deltaTime": 1, "channel": 1, "type": "channel", "noteNumber": 58, "velocity": 64, "subtype": "noteOn"  },
      { "deltaTime": 0, "channel": 1, "type": "channel", "noteNumber": 58, "velocity": 64, "subtype": "noteOn"  },
      { "deltaTime": 239, "channel": 1, "type": "channel", "subtype": "noteOff", "noteNumber": 58, "velocity": 0  },
      { "deltaTime": 0, "channel": 1, "type": "channel", "subtype": "noteOff", "noteNumber": 58, "velocity": 0  },
      { "deltaTime": 1, "channel": 1, "type": "channel", "noteNumber": 58, "velocity": 64, "subtype": "noteOn"  },
      { "deltaTime": 0, "channel": 1, "type": "channel", "noteNumber": 58, "velocity": 64, "subtype": "noteOn"  },
      { "deltaTime": 239, "channel": 1, "type": "channel", "subtype": "noteOff", "noteNumber": 58, "velocity": 0  },
      { "deltaTime": 0, "channel": 1, "type": "channel", "subtype": "noteOff", "noteNumber": 58, "velocity": 0  },
      { "deltaTime": 1, "channel": 1, "type": "channel", "noteNumber": 52, "velocity": 64, "subtype": "noteOn"  },
      { "deltaTime": 0, "channel": 1, "type": "channel", "noteNumber": 52, "velocity": 64, "subtype": "noteOn"  },
      { "deltaTime": 239, "channel": 1, "type": "channel", "subtype": "noteOff", "noteNumber": 52, "velocity": 0  },
      { "deltaTime": 0, "channel": 1, "type": "channel", "subtype": "noteOff", "noteNumber": 52, "velocity": 0  },
      { "deltaTime": 1, "channel": 1, "type": "channel", "noteNumber": 59, "velocity": 64, "subtype": "noteOn"  },
      { "deltaTime": 0, "channel": 1, "type": "channel", "noteNumber": 59, "velocity": 64, "subtype": "noteOn"  },
      { "deltaTime": 239, "channel": 1, "type": "channel", "subtype": "noteOff", "noteNumber": 59, "velocity": 0  },
      { "deltaTime": 0, "channel": 1, "type": "channel", "subtype": "noteOff", "noteNumber": 59, "velocity": 0  },
      { "deltaTime": 1, "channel": 1, "type": "channel", "noteNumber": 59, "velocity": 64, "subtype": "noteOn"  },
      { "deltaTime": 0, "channel": 1, "type": "channel", "noteNumber": 59, "velocity": 64, "subtype": "noteOn"  },
      { "deltaTime": 239, "channel": 1, "type": "channel", "subtype": "noteOff", "noteNumber": 59, "velocity": 0  },
      { "deltaTime": 0, "channel": 1, "type": "channel", "subtype": "noteOff", "noteNumber": 59, "velocity": 0  },
      { "deltaTime": 1, "channel": 1, "type": "channel", "noteNumber": 52, "velocity": 64, "subtype": "noteOn"  },
      { "deltaTime": 0, "channel": 1, "type": "channel", "noteNumber": 52, "velocity": 64, "subtype": "noteOn"  },
      { "deltaTime": 239, "channel": 1, "type": "channel", "subtype": "noteOff", "noteNumber": 52, "velocity": 0  },
      { "deltaTime": 0, "channel": 1, "type": "channel", "subtype": "noteOff", "noteNumber": 52, "velocity": 0  },
      { "deltaTime": 1, "channel": 1, "type": "channel", "noteNumber": 58, "velocity": 64, "subtype": "noteOn"  },
      { "deltaTime": 0, "channel": 1, "type": "channel", "noteNumber": 58, "velocity": 64, "subtype": "noteOn"  },
      { "deltaTime": 239, "channel": 1, "type": "channel", "subtype": "noteOff", "noteNumber": 58, "velocity": 0  },
      { "deltaTime": 0, "channel": 1, "type": "channel", "subtype": "noteOff", "noteNumber": 58, "velocity": 0  },
      { "deltaTime": 1, "channel": 1, "type": "channel", "noteNumber": 58, "velocity": 64, "subtype": "noteOn"  },
      { "deltaTime": 0, "channel": 1, "type": "channel", "noteNumber": 58, "velocity": 64, "subtype": "noteOn"  },
      { "deltaTime": 239, "channel": 1, "type": "channel", "subtype": "noteOff", "noteNumber": 58, "velocity": 0  },
      { "deltaTime": 0, "channel": 1, "type": "channel", "subtype": "noteOff", "noteNumber": 58, "velocity": 0  },
      { "deltaTime": 1, "channel": 1, "type": "channel", "noteNumber": 52, "velocity": 64, "subtype": "noteOn"  },
      { "deltaTime": 0, "channel": 1, "type": "channel", "noteNumber": 52, "velocity": 64, "subtype": "noteOn"  },
      { "deltaTime": 239, "channel": 1, "type": "channel", "subtype": "noteOff", "noteNumber": 52, "velocity": 0  },
      { "deltaTime": 0, "channel": 1, "type": "channel", "subtype": "noteOff", "noteNumber": 52, "velocity": 0  },
      { "deltaTime": 1, "channel": 1, "type": "channel", "noteNumber": 59, "velocity": 64, "subtype": "noteOn"  },
      { "deltaTime": 0, "channel": 1, "type": "channel", "noteNumber": 59, "velocity": 64, "subtype": "noteOn"  },
      { "deltaTime": 239, "channel": 1, "type": "channel", "subtype": "noteOff", "noteNumber": 59, "velocity": 0  },
      { "deltaTime": 0, "channel": 1, "type": "channel", "subtype": "noteOff", "noteNumber": 59, "velocity": 0  },
      { "deltaTime": 1, "channel": 1, "type": "channel", "noteNumber": 52, "velocity": 64, "subtype": "noteOn"  },
      { "deltaTime": 0, "channel": 1, "type": "channel", "noteNumber": 52, "velocity": 64, "subtype": "noteOn"  },
      { "deltaTime": 239, "channel": 1, "type": "channel", "subtype": "noteOff", "noteNumber": 52, "velocity": 0  },
      { "deltaTime": 0, "channel": 1, "type": "channel", "subtype": "noteOff", "noteNumber": 52, "velocity": 0  },
      { "deltaTime": 1, "channel": 1, "type": "channel", "noteNumber": 60, "velocity": 64, "subtype": "noteOn"  },
      { "deltaTime": 0, "channel": 1, "type": "channel", "noteNumber": 60, "velocity": 64, "subtype": "noteOn"  },
      { "deltaTime": 239, "channel": 1, "type": "channel", "subtype": "noteOff", "noteNumber": 60, "velocity": 0  },
      { "deltaTime": 0, "channel": 1, "type": "channel", "subtype": "noteOff", "noteNumber": 60, "velocity": 0  },
      { "deltaTime": 1, "channel": 1, "type": "channel", "noteNumber": 52, "velocity": 64, "subtype": "noteOn"  },
      { "deltaTime": 0, "channel": 1, "type": "channel", "noteNumber": 52, "velocity": 64, "subtype": "noteOn"  },
      { "deltaTime": 239, "channel": 1, "type": "channel", "subtype": "noteOff", "noteNumber": 52, "velocity": 0  },
      { "deltaTime": 0, "channel": 1, "type": "channel", "subtype": "noteOff", "noteNumber": 52, "velocity": 0  },
      { "deltaTime": 1, "channel": 1, "type": "channel", "noteNumber": 59, "velocity": 64, "subtype": "noteOn"  },
      { "deltaTime": 0, "channel": 1, "type": "channel", "noteNumber": 59, "velocity": 64, "subtype": "noteOn"  },
      { "deltaTime": 239, "channel": 1, "type": "channel", "subtype": "noteOff", "noteNumber": 59, "velocity": 0  },
      { "deltaTime": 0, "channel": 1, "type": "channel", "subtype": "noteOff", "noteNumber": 59, "velocity": 0  },
      { "deltaTime": 1, "channel": 1, "type": "channel", "noteNumber": 59, "velocity": 64, "subtype": "noteOn"  },
      { "deltaTime": 0, "channel": 1, "type": "channel", "noteNumber": 59, "velocity": 64, "subtype": "noteOn"  },
      { "deltaTime": 239, "channel": 1, "type": "channel", "subtype": "noteOff", "noteNumber": 59, "velocity": 0  },
      { "deltaTime": 0, "channel": 1, "type": "channel", "subtype": "noteOff", "noteNumber": 59, "velocity": 0  },
      { "deltaTime": 1, "channel": 1, "type": "channel", "noteNumber": 52, "velocity": 64, "subtype": "noteOn"  },
      { "deltaTime": 0, "channel": 1, "type": "channel", "noteNumber": 52, "velocity": 64, "subtype": "noteOn"  },
      { "deltaTime": 239, "channel": 1, "type": "channel", "subtype": "noteOff", "noteNumber": 52, "velocity": 0  },
      { "deltaTime": 0, "channel": 1, "type": "channel", "subtype": "noteOff", "noteNumber": 52, "velocity": 0  },
      { "deltaTime": 1, "channel": 1, "type": "channel", "noteNumber": 58, "velocity": 64, "subtype": "noteOn"  },
      { "deltaTime": 0, "channel": 1, "type": "channel", "noteNumber": 58, "velocity": 64, "subtype": "noteOn"  },
      { "deltaTime": 239, "channel": 1, "type": "channel", "subtype": "noteOff", "noteNumber": 58, "velocity": 0  },
      { "deltaTime": 0, "channel": 1, "type": "channel", "subtype": "noteOff", "noteNumber": 58, "velocity": 0  },
      { "deltaTime": 1, "channel": 1, "type": "channel", "noteNumber": 58, "velocity": 64, "subtype": "noteOn"  },
      { "deltaTime": 0, "channel": 1, "type": "channel", "noteNumber": 58, "velocity": 64, "subtype": "noteOn"  },
      { "deltaTime": 239, "channel": 1, "type": "channel", "subtype": "noteOff", "noteNumber": 58, "velocity": 0  },
      { "deltaTime": 0, "channel": 1, "type": "channel", "subtype": "noteOff", "noteNumber": 58, "velocity": 0  },
      { "deltaTime": 1, "channel": 1, "type": "channel", "noteNumber": 52, "velocity": 64, "subtype": "noteOn"  },
      { "deltaTime": 0, "channel": 1, "type": "channel", "noteNumber": 52, "velocity": 64, "subtype": "noteOn"  },
      { "deltaTime": 239, "channel": 1, "type": "channel", "subtype": "noteOff", "noteNumber": 52, "velocity": 0  },
      { "deltaTime": 0, "channel": 1, "type": "channel", "subtype": "noteOff", "noteNumber": 52, "velocity": 0  },
      { "deltaTime": 1, "channel": 1, "type": "channel", "noteNumber": 59, "velocity": 64, "subtype": "noteOn"  },
      { "deltaTime": 0, "channel": 1, "type": "channel", "noteNumber": 59, "velocity": 64, "subtype": "noteOn"  },
      { "deltaTime": 239, "channel": 1, "type": "channel", "subtype": "noteOff", "noteNumber": 59, "velocity": 0  },
      { "deltaTime": 0, "channel": 1, "type": "channel", "subtype": "noteOff", "noteNumber": 59, "velocity": 0  },
      { "deltaTime": 1, "channel": 1, "type": "channel", "noteNumber": 59, "velocity": 64, "subtype": "noteOn"  },
      { "deltaTime": 0, "channel": 1, "type": "channel", "noteNumber": 59, "velocity": 64, "subtype": "noteOn"  },
      { "deltaTime": 239, "channel": 1, "type": "channel", "subtype": "noteOff", "noteNumber": 59, "velocity": 0  },
      { "deltaTime": 0, "channel": 1, "type": "channel", "subtype": "noteOff", "noteNumber": 59, "velocity": 0  },
      { "deltaTime": 1, "channel": 1, "type": "channel", "noteNumber": 52, "velocity": 64, "subtype": "noteOn"  },
      { "deltaTime": 0, "channel": 1, "type": "channel", "noteNumber": 52, "velocity": 64, "subtype": "noteOn"  },
      { "deltaTime": 239, "channel": 1, "type": "channel", "subtype": "noteOff", "noteNumber": 52, "velocity": 0  },
      { "deltaTime": 0, "channel": 1, "type": "channel", "subtype": "noteOff", "noteNumber": 52, "velocity": 0  },
      { "deltaTime": 1, "channel": 1, "type": "channel", "noteNumber": 58, "velocity": 64, "subtype": "noteOn"  },
      { "deltaTime": 0, "channel": 1, "type": "channel", "noteNumber": 58, "velocity": 64, "subtype": "noteOn"  },
      { "deltaTime": 239, "channel": 1, "type": "channel", "subtype": "noteOff", "noteNumber": 58, "velocity": 0  },
      { "deltaTime": 0, "channel": 1, "type": "channel", "subtype": "noteOff", "noteNumber": 58, "velocity": 0  },
      { "deltaTime": 1, "channel": 1, "type": "channel", "noteNumber": 52, "velocity": 64, "subtype": "noteOn"  },
      { "deltaTime": 0, "channel": 1, "type": "channel", "noteNumber": 52, "velocity": 64, "subtype": "noteOn"  },
      { "deltaTime": 239, "channel": 1, "type": "channel", "subtype": "noteOff", "noteNumber": 52, "velocity": 0  },
      { "deltaTime": 0, "channel": 1, "type": "channel", "subtype": "noteOff", "noteNumber": 52, "velocity": 0  },
      { "deltaTime": 1, "channel": 1, "type": "channel", "noteNumber": 52, "velocity": 64, "subtype": "noteOn"  },
      { "deltaTime": 240, "channel": 1, "type": "channel", "noteNumber": 64, "velocity": 64, "subtype": "noteOn"  },
      { "deltaTime": 239, "channel": 1, "type": "channel", "subtype": "noteOff", "noteNumber": 64, "velocity": 0  },
      { "deltaTime": 1, "channel": 1, "type": "channel", "noteNumber": 64, "velocity": 64, "subtype": "noteOn"  },
      { "deltaTime": 239, "channel": 1, "type": "channel", "subtype": "noteOff", "noteNumber": 64, "velocity": 0  },
      { "deltaTime": 1, "channel": 1, "type": "channel", "noteNumber": 64, "velocity": 64, "subtype": "noteOn"  },
      { "deltaTime": 239, "channel": 1, "type": "channel", "subtype": "noteOff", "noteNumber": 64, "velocity": 0  },
      { "deltaTime": 481, "channel": 1, "type": "channel", "noteNumber": 52, "velocity": 64, "subtype": "noteOn"  },
      { "deltaTime": 239, "channel": 1, "type": "channel", "subtype": "noteOff", "noteNumber": 52, "velocity": 0  },
      { "deltaTime": 0, "channel": 1, "type": "channel", "subtype": "noteOff", "noteNumber": 52, "velocity": 0  },
      { "deltaTime": 1, "channel": 1, "type": "channel", "noteNumber": 52, "velocity": 64, "subtype": "noteOn"  },
      { "deltaTime": 239, "channel": 1, "type": "channel", "subtype": "noteOff", "noteNumber": 52, "velocity": 0  },
      { "deltaTime": 1, "channel": 1, "type": "channel", "noteNumber": 52, "velocity": 64, "subtype": "noteOn"  },
      { "deltaTime": 239, "channel": 1, "type": "channel", "subtype": "noteOff", "noteNumber": 52, "velocity": 0  },
      { "deltaTime": 1, "channel": 1, "type": "channel", "noteNumber": 52, "velocity": 64, "subtype": "noteOn"  },
      { "deltaTime": 239, "channel": 1, "type": "channel", "subtype": "noteOff", "noteNumber": 52, "velocity": 0  },
      { "deltaTime": 481, "channel": 1, "type": "channel", "noteNumber": 64, "velocity": 64, "subtype": "noteOn"  },
      { "deltaTime": 239, "channel": 1, "type": "channel", "subtype": "noteOff", "noteNumber": 64, "velocity": 0  },
      { "deltaTime": 1, "channel": 1, "type": "channel", "noteNumber": 64, "velocity": 64, "subtype": "noteOn"  },
      { "deltaTime": 239, "channel": 1, "type": "channel", "subtype": "noteOff", "noteNumber": 64, "velocity": 0  },
      { "deltaTime": 1, "channel": 1, "type": "channel", "noteNumber": 64, "velocity": 64, "subtype": "noteOn"  },
      { "deltaTime": 239, "channel": 1, "type": "channel", "subtype": "noteOff", "noteNumber": 64, "velocity": 0  },
      { "deltaTime": 1, "channel": 1, "type": "channel", "noteNumber": 64, "velocity": 64, "subtype": "noteOn"  },
      { "deltaTime": 239, "channel": 1, "type": "channel", "subtype": "noteOff", "noteNumber": 64, "velocity": 0  },
      { "deltaTime": 481, "channel": 1, "type": "channel", "noteNumber": 52, "velocity": 64, "subtype": "noteOn"  },
      { "deltaTime": 239, "channel": 1, "type": "channel", "subtype": "noteOff", "noteNumber": 52, "velocity": 0  },
      { "deltaTime": 1, "channel": 1, "type": "channel", "noteNumber": 52, "velocity": 64, "subtype": "noteOn"  },
      { "deltaTime": 239, "channel": 1, "type": "channel", "subtype": "noteOff", "noteNumber": 52, "velocity": 0  },
      { "deltaTime": 1, "channel": 1, "type": "channel", "noteNumber": 52, "velocity": 64, "subtype": "noteOn"  },
      { "deltaTime": 239, "channel": 1, "type": "channel", "subtype": "noteOff", "noteNumber": 52, "velocity": 0  },
      { "deltaTime": 1, "channel": 1, "type": "channel", "noteNumber": 52, "velocity": 64, "subtype": "noteOn"  },
      { "deltaTime": 239, "channel": 1, "type": "channel", "subtype": "noteOff", "noteNumber": 52, "velocity": 0  },
      { "deltaTime": 1441, "channel": 1, "type": "channel", "noteNumber": 64, "velocity": 64, "subtype": "noteOn"  },
      { "deltaTime": 239, "channel": 1, "type": "channel", "subtype": "noteOff", "noteNumber": 64, "velocity": 0  },
      { "deltaTime": 1, "channel": 1, "type": "channel", "noteNumber": 64, "velocity": 64, "subtype": "noteOn"  },
      { "deltaTime": 239, "channel": 1, "type": "channel", "subtype": "noteOff", "noteNumber": 64, "velocity": 0  },
      { "deltaTime": 1, "channel": 1, "type": "channel", "noteNumber": 64, "velocity": 64, "subtype": "noteOn"  },
      { "deltaTime": 239, "channel": 1, "type": "channel", "subtype": "noteOff", "noteNumber": 64, "velocity": 0  },
      { "deltaTime": 1, "channel": 1, "type": "channel", "noteNumber": 64, "velocity": 64, "subtype": "noteOn"  },
      { "deltaTime": 239, "channel": 1, "type": "channel", "subtype": "noteOff", "noteNumber": 64, "velocity": 0  },
      { "deltaTime": 481, "channel": 1, "type": "channel", "noteNumber": 52, "velocity": 64, "subtype": "noteOn"  },
      { "deltaTime": 239, "channel": 1, "type": "channel", "subtype": "noteOff", "noteNumber": 52, "velocity": 0  },
      { "deltaTime": 1, "channel": 1, "type": "channel", "noteNumber": 52, "velocity": 64, "subtype": "noteOn"  },
      { "deltaTime": 239, "channel": 1, "type": "channel", "subtype": "noteOff", "noteNumber": 52, "velocity": 0  },
      { "deltaTime": 1, "channel": 1, "type": "channel", "noteNumber": 52, "velocity": 64, "subtype": "noteOn"  },
      { "deltaTime": 239, "channel": 1, "type": "channel", "subtype": "noteOff", "noteNumber": 52, "velocity": 0  },
      { "deltaTime": 1, "channel": 1, "type": "channel", "noteNumber": 52, "velocity": 64, "subtype": "noteOn"  },
      { "deltaTime": 239, "channel": 1, "type": "channel", "subtype": "noteOff", "noteNumber": 52, "velocity": 0  },
      { "deltaTime": 481, "channel": 1, "type": "channel", "noteNumber": 64, "velocity": 64, "subtype": "noteOn"  },
      { "deltaTime": 239, "channel": 1, "type": "channel", "subtype": "noteOff", "noteNumber": 64, "velocity": 0  },
      { "deltaTime": 1, "channel": 1, "type": "channel", "noteNumber": 64, "velocity": 64, "subtype": "noteOn"  },
      { "deltaTime": 239, "channel": 1, "type": "channel", "subtype": "noteOff", "noteNumber": 64, "velocity": 0  },
      { "deltaTime": 1, "channel": 1, "type": "channel", "noteNumber": 64, "velocity": 64, "subtype": "noteOn"  },
      { "deltaTime": 239, "channel": 1, "type": "channel", "subtype": "noteOff", "noteNumber": 64, "velocity": 0  },
      { "deltaTime": 1, "channel": 1, "type": "channel", "noteNumber": 64, "velocity": 64, "subtype": "noteOn"  },
      { "deltaTime": 239, "channel": 1, "type": "channel", "subtype": "noteOff", "noteNumber": 64, "velocity": 0  },
      { "deltaTime": 481, "channel": 1, "type": "channel", "noteNumber": 52, "velocity": 64, "subtype": "noteOn"  },
      { "deltaTime": 239, "channel": 1, "type": "channel", "subtype": "noteOff", "noteNumber": 52, "velocity": 0  },
      { "deltaTime": 1, "channel": 1, "type": "channel", "noteNumber": 52, "velocity": 64, "subtype": "noteOn"  },
      { "deltaTime": 239, "channel": 1, "type": "channel", "subtype": "noteOff", "noteNumber": 52, "velocity": 0  },
      { "deltaTime": 1, "channel": 1, "type": "channel", "noteNumber": 52, "velocity": 64, "subtype": "noteOn"  },
      { "deltaTime": 239, "channel": 1, "type": "channel", "subtype": "noteOff", "noteNumber": 52, "velocity": 0  },
      { "deltaTime": 1, "channel": 1, "type": "channel", "noteNumber": 52, "velocity": 64, "subtype": "noteOn"  },
      { "deltaTime": 239, "channel": 1, "type": "channel", "subtype": "noteOff", "noteNumber": 52, "velocity": 0  },
      { "deltaTime": 1441, "channel": 1, "type": "channel", "noteNumber": 64, "velocity": 64, "subtype": "noteOn"  },
      { "deltaTime": 239, "channel": 1, "type": "channel", "subtype": "noteOff", "noteNumber": 64, "velocity": 0  },
      { "deltaTime": 1, "channel": 1, "type": "channel", "noteNumber": 64, "velocity": 64, "subtype": "noteOn"  },
      { "deltaTime": 239, "channel": 1, "type": "channel", "subtype": "noteOff", "noteNumber": 64, "velocity": 0  },
      { "deltaTime": 1, "channel": 1, "type": "channel", "noteNumber": 64, "velocity": 64, "subtype": "noteOn"  },
      { "deltaTime": 239, "channel": 1, "type": "channel", "subtype": "noteOff", "noteNumber": 64, "velocity": 0  },
      { "deltaTime": 1, "channel": 1, "type": "channel", "noteNumber": 64, "velocity": 64, "subtype": "noteOn"  },
      { "deltaTime": 239, "channel": 1, "type": "channel", "subtype": "noteOff", "noteNumber": 64, "velocity": 0  },
      { "deltaTime": 481, "channel": 1, "type": "channel", "noteNumber": 52, "velocity": 64, "subtype": "noteOn"  },
      { "deltaTime": 239, "channel": 1, "type": "channel", "subtype": "noteOff", "noteNumber": 52, "velocity": 0  },
      { "deltaTime": 1, "channel": 1, "type": "channel", "noteNumber": 52, "velocity": 64, "subtype": "noteOn"  },
      { "deltaTime": 239, "channel": 1, "type": "channel", "subtype": "noteOff", "noteNumber": 52, "velocity": 0  },
      { "deltaTime": 1, "channel": 1, "type": "channel", "noteNumber": 52, "velocity": 64, "subtype": "noteOn"  },
      { "deltaTime": 239, "channel": 1, "type": "channel", "subtype": "noteOff", "noteNumber": 52, "velocity": 0  },
      { "deltaTime": 1, "channel": 1, "type": "channel", "noteNumber": 52, "velocity": 64, "subtype": "noteOn"  },
      { "deltaTime": 239, "channel": 1, "type": "channel", "subtype": "noteOff", "noteNumber": 52, "velocity": 0  },
      { "deltaTime": 481, "channel": 1, "type": "channel", "noteNumber": 64, "velocity": 64, "subtype": "noteOn"  },
      { "deltaTime": 239, "channel": 1, "type": "channel", "subtype": "noteOff", "noteNumber": 64, "velocity": 0  },
      { "deltaTime": 1, "channel": 1, "type": "channel", "noteNumber": 64, "velocity": 64, "subtype": "noteOn"  },
      { "deltaTime": 239, "channel": 1, "type": "channel", "subtype": "noteOff", "noteNumber": 64, "velocity": 0  },
      { "deltaTime": 1, "channel": 1, "type": "channel", "noteNumber": 64, "velocity": 64, "subtype": "noteOn"  },
      { "deltaTime": 239, "channel": 1, "type": "channel", "subtype": "noteOff", "noteNumber": 64, "velocity": 0  },
      { "deltaTime": 1, "channel": 1, "type": "channel", "noteNumber": 64, "velocity": 64, "subtype": "noteOn"  },
      { "deltaTime": 239, "channel": 1, "type": "channel", "subtype": "noteOff", "noteNumber": 64, "velocity": 0  },
      { "deltaTime": 481, "channel": 1, "type": "channel", "noteNumber": 52, "velocity": 64, "subtype": "noteOn"  },
      { "deltaTime": 239, "channel": 1, "type": "channel", "subtype": "noteOff", "noteNumber": 52, "velocity": 0  },
      { "deltaTime": 1, "channel": 1, "type": "channel", "noteNumber": 52, "velocity": 64, "subtype": "noteOn"  },
      { "deltaTime": 239, "channel": 1, "type": "channel", "subtype": "noteOff", "noteNumber": 52, "velocity": 0  },
      { "deltaTime": 1, "channel": 1, "type": "channel", "noteNumber": 52, "velocity": 64, "subtype": "noteOn"  },
      { "deltaTime": 239, "channel": 1, "type": "channel", "subtype": "noteOff", "noteNumber": 52, "velocity": 0  },
      { "deltaTime": 1, "channel": 1, "type": "channel", "noteNumber": 52, "velocity": 64, "subtype": "noteOn"  },
      { "deltaTime": 239, "channel": 1, "type": "channel", "subtype": "noteOff", "noteNumber": 52, "velocity": 0  },
      { "deltaTime": 1441, "channel": 1, "type": "channel", "noteNumber": 64, "velocity": 64, "subtype": "noteOn"  },
      { "deltaTime": 239, "channel": 1, "type": "channel", "subtype": "noteOff", "noteNumber": 64, "velocity": 0  },
      { "deltaTime": 1, "channel": 1, "type": "channel", "noteNumber": 64, "velocity": 64, "subtype": "noteOn"  },
      { "deltaTime": 239, "channel": 1, "type": "channel", "subtype": "noteOff", "noteNumber": 64, "velocity": 0  },
      { "deltaTime": 1, "channel": 1, "type": "channel", "noteNumber": 64, "velocity": 64, "subtype": "noteOn"  },
      { "deltaTime": 239, "channel": 1, "type": "channel", "subtype": "noteOff", "noteNumber": 64, "velocity": 0  },
      { "deltaTime": 1, "channel": 1, "type": "channel", "noteNumber": 64, "velocity": 64, "subtype": "noteOn"  },
      { "deltaTime": 239, "channel": 1, "type": "channel", "subtype": "noteOff", "noteNumber": 64, "velocity": 0  },
      { "deltaTime": 481, "channel": 1, "type": "channel", "noteNumber": 52, "velocity": 64, "subtype": "noteOn"  },
      { "deltaTime": 239, "channel": 1, "type": "channel", "subtype": "noteOff", "noteNumber": 52, "velocity": 0  },
      { "deltaTime": 1, "channel": 1, "type": "channel", "noteNumber": 52, "velocity": 64, "subtype": "noteOn"  },
      { "deltaTime": 239, "channel": 1, "type": "channel", "subtype": "noteOff", "noteNumber": 52, "velocity": 0  },
      { "deltaTime": 1, "channel": 1, "type": "channel", "noteNumber": 52, "velocity": 64, "subtype": "noteOn"  },
      { "deltaTime": 239, "channel": 1, "type": "channel", "subtype": "noteOff", "noteNumber": 52, "velocity": 0  },
      { "deltaTime": 1, "channel": 1, "type": "channel", "noteNumber": 52, "velocity": 64, "subtype": "noteOn"  },
      { "deltaTime": 239, "channel": 1, "type": "channel", "subtype": "noteOff", "noteNumber": 52, "velocity": 0  },
      { "deltaTime": 481, "channel": 1, "type": "channel", "noteNumber": 64, "velocity": 64, "subtype": "noteOn"  },
      { "deltaTime": 239, "channel": 1, "type": "channel", "subtype": "noteOff", "noteNumber": 64, "velocity": 0  },
      { "deltaTime": 1, "channel": 1, "type": "channel", "noteNumber": 64, "velocity": 64, "subtype": "noteOn"  },
      { "deltaTime": 239, "channel": 1, "type": "channel", "subtype": "noteOff", "noteNumber": 64, "velocity": 0  },
      { "deltaTime": 1, "channel": 1, "type": "channel", "noteNumber": 64, "velocity": 64, "subtype": "noteOn"  },
      { "deltaTime": 239, "channel": 1, "type": "channel", "subtype": "noteOff", "noteNumber": 64, "velocity": 0  },
      { "deltaTime": 1, "channel": 1, "type": "channel", "noteNumber": 64, "velocity": 64, "subtype": "noteOn"  },
      { "deltaTime": 239, "channel": 1, "type": "channel", "subtype": "noteOff", "noteNumber": 64, "velocity": 0  },
      { "deltaTime": 481, "channel": 1, "type": "channel", "noteNumber": 52, "velocity": 64, "subtype": "noteOn"  },
      { "deltaTime": 239, "channel": 1, "type": "channel", "subtype": "noteOff", "noteNumber": 52, "velocity": 0  },
      { "deltaTime": 1, "channel": 1, "type": "channel", "noteNumber": 52, "velocity": 64, "subtype": "noteOn"  },
      { "deltaTime": 239, "channel": 1, "type": "channel", "subtype": "noteOff", "noteNumber": 52, "velocity": 0  },
      { "deltaTime": 1, "channel": 1, "type": "channel", "noteNumber": 52, "velocity": 64, "subtype": "noteOn"  },
      { "deltaTime": 239, "channel": 1, "type": "channel", "subtype": "noteOff", "noteNumber": 52, "velocity": 0  },
      { "deltaTime": 1, "channel": 1, "type": "channel", "noteNumber": 52, "velocity": 64, "subtype": "noteOn"  },
      { "deltaTime": 239, "channel": 1, "type": "channel", "subtype": "noteOff", "noteNumber": 52, "velocity": 0  },
      { "deltaTime": 0, "type": "meta", "subtype": "endOfTrack" }
    ],
    [
      { "deltaTime": 0, "channel": 2, "type": "channel", "subtype": "programChange", "programNumber": 87  },
      { "deltaTime": 0, "channel": 2, "type": "channel", "subtype": "controller", "controllerType": 7, "value": 73  },
      { "deltaTime": 0, "type": "meta", "subtype": "trackName", "text": "MIDI Chn 3"  },
      { "deltaTime": 0, "type": "meta", "subtype": "unknown", "data": "\u0001"  },
      { "deltaTime": 116640, "channel": 2, "type": "channel", "noteNumber": 61, "velocity": 56, "subtype": "noteOn"  },
      { "deltaTime": 239, "channel": 2, "type": "channel", "subtype": "noteOff", "noteNumber": 61, "velocity": 0  },
      { "deltaTime": 1, "channel": 2, "type": "channel", "noteNumber": 52, "velocity": 56, "subtype": "noteOn"  },
      { "deltaTime": 239, "channel": 2, "type": "channel", "subtype": "noteOff", "noteNumber": 52, "velocity": 0  },
      { "deltaTime": 1, "channel": 2, "type": "channel", "noteNumber": 62, "velocity": 56, "subtype": "noteOn"  },
      { "deltaTime": 239, "channel": 2, "type": "channel", "subtype": "noteOff", "noteNumber": 62, "velocity": 0  },
      { "deltaTime": 1, "channel": 2, "type": "channel", "noteNumber": 52, "velocity": 56, "subtype": "noteOn"  },
      { "deltaTime": 239, "channel": 2, "type": "channel", "subtype": "noteOff", "noteNumber": 52, "velocity": 0  },
      { "deltaTime": 1, "channel": 2, "type": "channel", "noteNumber": 61, "velocity": 56, "subtype": "noteOn"  },
      { "deltaTime": 239, "channel": 2, "type": "channel", "subtype": "noteOff", "noteNumber": 61, "velocity": 0  },
      { "deltaTime": 1, "channel": 2, "type": "channel", "noteNumber": 52, "velocity": 56, "subtype": "noteOn"  },
      { "deltaTime": 239, "channel": 2, "type": "channel", "subtype": "noteOff", "noteNumber": 52, "velocity": 0  },
      { "deltaTime": 1, "channel": 2, "type": "channel", "noteNumber": 62, "velocity": 56, "subtype": "noteOn"  },
      { "deltaTime": 239, "channel": 2, "type": "channel", "subtype": "noteOff", "noteNumber": 62, "velocity": 0  },
      { "deltaTime": 1, "channel": 2, "type": "channel", "noteNumber": 64, "velocity": 56, "subtype": "noteOn"  },
      { "deltaTime": 239, "channel": 2, "type": "channel", "subtype": "noteOff", "noteNumber": 64, "velocity": 0  },
      { "deltaTime": 1, "channel": 2, "type": "channel", "noteNumber": 52, "velocity": 56, "subtype": "noteOn"  },
      { "deltaTime": 239, "channel": 2, "type": "channel", "subtype": "noteOff", "noteNumber": 52, "velocity": 0  },
      { "deltaTime": 1, "channel": 2, "type": "channel", "noteNumber": 64, "velocity": 56, "subtype": "noteOn"  },
      { "deltaTime": 239, "channel": 2, "type": "channel", "subtype": "noteOff", "noteNumber": 64, "velocity": 0  },
      { "deltaTime": 4321, "channel": 2, "type": "channel", "noteNumber": 61, "velocity": 56, "subtype": "noteOn"  },
      { "deltaTime": 239, "channel": 2, "type": "channel", "subtype": "noteOff", "noteNumber": 61, "velocity": 0  },
      { "deltaTime": 241, "channel": 2, "type": "channel", "noteNumber": 62, "velocity": 56, "subtype": "noteOn"  },
      { "deltaTime": 239, "channel": 2, "type": "channel", "subtype": "noteOff", "noteNumber": 62, "velocity": 0  },
      { "deltaTime": 241, "channel": 2, "type": "channel", "noteNumber": 61, "velocity": 56, "subtype": "noteOn"  },
      { "deltaTime": 239, "channel": 2, "type": "channel", "subtype": "noteOff", "noteNumber": 61, "velocity": 0  },
      { "deltaTime": 241, "channel": 2, "type": "channel", "noteNumber": 62, "velocity": 56, "subtype": "noteOn"  },
      { "deltaTime": 239, "channel": 2, "type": "channel", "subtype": "noteOff", "noteNumber": 62, "velocity": 0  },
      { "deltaTime": 1, "channel": 2, "type": "channel", "noteNumber": 61, "velocity": 56, "subtype": "noteOn"  },
      { "deltaTime": 239, "channel": 2, "type": "channel", "subtype": "noteOff", "noteNumber": 61, "velocity": 0  },
      { "deltaTime": 241, "channel": 2, "type": "channel", "noteNumber": 59, "velocity": 56, "subtype": "noteOn"  },
      { "deltaTime": 239, "channel": 2, "type": "channel", "subtype": "noteOff", "noteNumber": 59, "velocity": 0  },
      { "deltaTime": 481, "channel": 2, "type": "channel", "noteNumber": 55, "velocity": 56, "subtype": "noteOn"  },
      { "deltaTime": 239, "channel": 2, "type": "channel", "subtype": "noteOff", "noteNumber": 55, "velocity": 0  },
      { "deltaTime": 1, "channel": 2, "type": "channel", "noteNumber": 52, "velocity": 56, "subtype": "noteOn"  },
      { "deltaTime": 239, "channel": 2, "type": "channel", "subtype": "noteOff", "noteNumber": 52, "velocity": 0  },
      { "deltaTime": 3361, "channel": 2, "type": "channel", "noteNumber": 61, "velocity": 56, "subtype": "noteOn"  },
      { "deltaTime": 239, "channel": 2, "type": "channel", "subtype": "noteOff", "noteNumber": 61, "velocity": 0  },
      { "deltaTime": 1, "channel": 2, "type": "channel", "noteNumber": 52, "velocity": 56, "subtype": "noteOn"  },
      { "deltaTime": 239, "channel": 2, "type": "channel", "subtype": "noteOff", "noteNumber": 52, "velocity": 0  },
      { "deltaTime": 1, "channel": 2, "type": "channel", "noteNumber": 62, "velocity": 56, "subtype": "noteOn"  },
      { "deltaTime": 239, "channel": 2, "type": "channel", "subtype": "noteOff", "noteNumber": 62, "velocity": 0  },
      { "deltaTime": 1, "channel": 2, "type": "channel", "noteNumber": 52, "velocity": 56, "subtype": "noteOn"  },
      { "deltaTime": 239, "channel": 2, "type": "channel", "subtype": "noteOff", "noteNumber": 52, "velocity": 0  },
      { "deltaTime": 1, "channel": 2, "type": "channel", "noteNumber": 61, "velocity": 56, "subtype": "noteOn"  },
      { "deltaTime": 239, "channel": 2, "type": "channel", "subtype": "noteOff", "noteNumber": 61, "velocity": 0  },
      { "deltaTime": 1, "channel": 2, "type": "channel", "noteNumber": 52, "velocity": 56, "subtype": "noteOn"  },
      { "deltaTime": 239, "channel": 2, "type": "channel", "subtype": "noteOff", "noteNumber": 52, "velocity": 0  },
      { "deltaTime": 1, "channel": 2, "type": "channel", "noteNumber": 62, "velocity": 56, "subtype": "noteOn"  },
      { "deltaTime": 239, "channel": 2, "type": "channel", "subtype": "noteOff", "noteNumber": 62, "velocity": 0  },
      { "deltaTime": 1, "channel": 2, "type": "channel", "noteNumber": 64, "velocity": 56, "subtype": "noteOn"  },
      { "deltaTime": 239, "channel": 2, "type": "channel", "subtype": "noteOff", "noteNumber": 64, "velocity": 0  },
      { "deltaTime": 1, "channel": 2, "type": "channel", "noteNumber": 52, "velocity": 56, "subtype": "noteOn"  },
      { "deltaTime": 239, "channel": 2, "type": "channel", "subtype": "noteOff", "noteNumber": 52, "velocity": 0  },
      { "deltaTime": 1, "channel": 2, "type": "channel", "noteNumber": 64, "velocity": 56, "subtype": "noteOn"  },
      { "deltaTime": 239, "channel": 2, "type": "channel", "subtype": "noteOff", "noteNumber": 64, "velocity": 0  },
      { "deltaTime": 19201, "channel": 2, "type": "channel", "noteNumber": 64, "velocity": 56, "subtype": "noteOn"  },
      { "deltaTime": 239, "channel": 2, "type": "channel", "subtype": "noteOff", "noteNumber": 64, "velocity": 0  },
      { "deltaTime": 1, "channel": 2, "type": "channel", "noteNumber": 52, "velocity": 56, "subtype": "noteOn"  },
      { "deltaTime": 239, "channel": 2, "type": "channel", "subtype": "noteOff", "noteNumber": 52, "velocity": 0  },
      { "deltaTime": 1, "channel": 2, "type": "channel", "noteNumber": 52, "velocity": 56, "subtype": "noteOn"  },
      { "deltaTime": 239, "channel": 2, "type": "channel", "subtype": "noteOff", "noteNumber": 52, "velocity": 0  },
      { "deltaTime": 1, "channel": 2, "type": "channel", "noteNumber": 64, "velocity": 56, "subtype": "noteOn"  },
      { "deltaTime": 239, "channel": 2, "type": "channel", "subtype": "noteOff", "noteNumber": 64, "velocity": 0  },
      { "deltaTime": 1, "channel": 2, "type": "channel", "noteNumber": 52, "velocity": 56, "subtype": "noteOn"  },
      { "deltaTime": 239, "channel": 2, "type": "channel", "subtype": "noteOff", "noteNumber": 52, "velocity": 0  },
      { "deltaTime": 1, "channel": 2, "type": "channel", "noteNumber": 52, "velocity": 56, "subtype": "noteOn"  },
      { "deltaTime": 239, "channel": 2, "type": "channel", "subtype": "noteOff", "noteNumber": 52, "velocity": 0  },
      { "deltaTime": 1, "channel": 2, "type": "channel", "noteNumber": 64, "velocity": 56, "subtype": "noteOn"  },
      { "deltaTime": 239, "channel": 2, "type": "channel", "subtype": "noteOff", "noteNumber": 64, "velocity": 0  },
      { "deltaTime": 1, "channel": 2, "type": "channel", "noteNumber": 52, "velocity": 56, "subtype": "noteOn"  },
      { "deltaTime": 239, "channel": 2, "type": "channel", "subtype": "noteOff", "noteNumber": 52, "velocity": 0  },
      { "deltaTime": 1, "channel": 2, "type": "channel", "noteNumber": 52, "velocity": 56, "subtype": "noteOn"  },
      { "deltaTime": 239, "channel": 2, "type": "channel", "subtype": "noteOff", "noteNumber": 52, "velocity": 0  },
      { "deltaTime": 1, "channel": 2, "type": "channel", "noteNumber": 64, "velocity": 56, "subtype": "noteOn"  },
      { "deltaTime": 239, "channel": 2, "type": "channel", "subtype": "noteOff", "noteNumber": 64, "velocity": 0  },
      { "deltaTime": 1, "channel": 2, "type": "channel", "noteNumber": 52, "velocity": 56, "subtype": "noteOn"  },
      { "deltaTime": 239, "channel": 2, "type": "channel", "subtype": "noteOff", "noteNumber": 52, "velocity": 0  },
      { "deltaTime": 1, "channel": 2, "type": "channel", "noteNumber": 52, "velocity": 56, "subtype": "noteOn"  },
      { "deltaTime": 239, "channel": 2, "type": "channel", "subtype": "noteOff", "noteNumber": 52, "velocity": 0  },
      { "deltaTime": 1, "channel": 2, "type": "channel", "noteNumber": 64, "velocity": 56, "subtype": "noteOn"  },
      { "deltaTime": 239, "channel": 2, "type": "channel", "subtype": "noteOff", "noteNumber": 64, "velocity": 0  },
      { "deltaTime": 1, "channel": 2, "type": "channel", "noteNumber": 52, "velocity": 56, "subtype": "noteOn"  },
      { "deltaTime": 239, "channel": 2, "type": "channel", "subtype": "noteOff", "noteNumber": 52, "velocity": 0  },
      { "deltaTime": 1, "channel": 2, "type": "channel", "noteNumber": 52, "velocity": 56, "subtype": "noteOn"  },
      { "deltaTime": 239, "channel": 2, "type": "channel", "subtype": "noteOff", "noteNumber": 52, "velocity": 0  },
      { "deltaTime": 1, "channel": 2, "type": "channel", "noteNumber": 64, "velocity": 56, "subtype": "noteOn"  },
      { "deltaTime": 239, "channel": 2, "type": "channel", "subtype": "noteOff", "noteNumber": 64, "velocity": 0  },
      { "deltaTime": 1, "channel": 2, "type": "channel", "noteNumber": 64, "velocity": 56, "subtype": "noteOn"  },
      { "deltaTime": 239, "channel": 2, "type": "channel", "subtype": "noteOff", "noteNumber": 64, "velocity": 0  },
      { "deltaTime": 1, "channel": 2, "type": "channel", "noteNumber": 52, "velocity": 56, "subtype": "noteOn"  },
      { "deltaTime": 239, "channel": 2, "type": "channel", "subtype": "noteOff", "noteNumber": 52, "velocity": 0  },
      { "deltaTime": 1, "channel": 2, "type": "channel", "noteNumber": 52, "velocity": 56, "subtype": "noteOn"  },
      { "deltaTime": 239, "channel": 2, "type": "channel", "subtype": "noteOff", "noteNumber": 52, "velocity": 0  },
      { "deltaTime": 1, "channel": 2, "type": "channel", "noteNumber": 64, "velocity": 56, "subtype": "noteOn"  },
      { "deltaTime": 239, "channel": 2, "type": "channel", "subtype": "noteOff", "noteNumber": 64, "velocity": 0  },
      { "deltaTime": 1, "channel": 2, "type": "channel", "noteNumber": 52, "velocity": 56, "subtype": "noteOn"  },
      { "deltaTime": 239, "channel": 2, "type": "channel", "subtype": "noteOff", "noteNumber": 52, "velocity": 0  },
      { "deltaTime": 1, "channel": 2, "type": "channel", "noteNumber": 52, "velocity": 56, "subtype": "noteOn"  },
      { "deltaTime": 239, "channel": 2, "type": "channel", "subtype": "noteOff", "noteNumber": 52, "velocity": 0  },
      { "deltaTime": 1, "channel": 2, "type": "channel", "noteNumber": 64, "velocity": 56, "subtype": "noteOn"  },
      { "deltaTime": 239, "channel": 2, "type": "channel", "subtype": "noteOff", "noteNumber": 64, "velocity": 0  },
      { "deltaTime": 1, "channel": 2, "type": "channel", "noteNumber": 52, "velocity": 56, "subtype": "noteOn"  },
      { "deltaTime": 239, "channel": 2, "type": "channel", "subtype": "noteOff", "noteNumber": 52, "velocity": 0  },
      { "deltaTime": 1, "channel": 2, "type": "channel", "noteNumber": 52, "velocity": 56, "subtype": "noteOn"  },
      { "deltaTime": 239, "channel": 2, "type": "channel", "subtype": "noteOff", "noteNumber": 52, "velocity": 0  },
      { "deltaTime": 1, "channel": 2, "type": "channel", "noteNumber": 64, "velocity": 56, "subtype": "noteOn"  },
      { "deltaTime": 239, "channel": 2, "type": "channel", "subtype": "noteOff", "noteNumber": 64, "velocity": 0  },
      { "deltaTime": 1, "channel": 2, "type": "channel", "noteNumber": 52, "velocity": 56, "subtype": "noteOn"  },
      { "deltaTime": 239, "channel": 2, "type": "channel", "subtype": "noteOff", "noteNumber": 52, "velocity": 0  },
      { "deltaTime": 1, "channel": 2, "type": "channel", "noteNumber": 52, "velocity": 56, "subtype": "noteOn"  },
      { "deltaTime": 239, "channel": 2, "type": "channel", "subtype": "noteOff", "noteNumber": 52, "velocity": 0  },
      { "deltaTime": 1, "channel": 2, "type": "channel", "noteNumber": 64, "velocity": 56, "subtype": "noteOn"  },
      { "deltaTime": 239, "channel": 2, "type": "channel", "subtype": "noteOff", "noteNumber": 64, "velocity": 0  },
      { "deltaTime": 1, "channel": 2, "type": "channel", "noteNumber": 52, "velocity": 56, "subtype": "noteOn"  },
      { "deltaTime": 239, "channel": 2, "type": "channel", "subtype": "noteOff", "noteNumber": 52, "velocity": 0  },
      { "deltaTime": 1, "channel": 2, "type": "channel", "noteNumber": 52, "velocity": 56, "subtype": "noteOn"  },
      { "deltaTime": 239, "channel": 2, "type": "channel", "subtype": "noteOff", "noteNumber": 52, "velocity": 0  },
      { "deltaTime": 1, "channel": 2, "type": "channel", "noteNumber": 64, "velocity": 56, "subtype": "noteOn"  },
      { "deltaTime": 239, "channel": 2, "type": "channel", "subtype": "noteOff", "noteNumber": 64, "velocity": 0  },
      { "deltaTime": 1, "channel": 2, "type": "channel", "noteNumber": 52, "velocity": 56, "subtype": "noteOn"  },
      { "deltaTime": 239, "channel": 2, "type": "channel", "subtype": "noteOff", "noteNumber": 52, "velocity": 0  },
      { "deltaTime": 1, "channel": 2, "type": "channel", "noteNumber": 52, "velocity": 56, "subtype": "noteOn"  },
      { "deltaTime": 239, "channel": 2, "type": "channel", "subtype": "noteOff", "noteNumber": 52, "velocity": 0  },
      { "deltaTime": 1, "channel": 2, "type": "channel", "noteNumber": 64, "velocity": 56, "subtype": "noteOn"  },
      { "deltaTime": 239, "channel": 2, "type": "channel", "subtype": "noteOff", "noteNumber": 64, "velocity": 0  },
      { "deltaTime": 1, "channel": 2, "type": "channel", "noteNumber": 52, "velocity": 56, "subtype": "noteOn"  },
      { "deltaTime": 239, "channel": 2, "type": "channel", "subtype": "noteOff", "noteNumber": 52, "velocity": 0  },
      { "deltaTime": 1, "channel": 2, "type": "channel", "noteNumber": 52, "velocity": 56, "subtype": "noteOn"  },
      { "deltaTime": 239, "channel": 2, "type": "channel", "subtype": "noteOff", "noteNumber": 52, "velocity": 0  },
      { "deltaTime": 1, "channel": 2, "type": "channel", "noteNumber": 64, "velocity": 56, "subtype": "noteOn"  },
      { "deltaTime": 239, "channel": 2, "type": "channel", "subtype": "noteOff", "noteNumber": 64, "velocity": 0  },
      { "deltaTime": 1, "channel": 2, "type": "channel", "noteNumber": 52, "velocity": 56, "subtype": "noteOn"  },
      { "deltaTime": 239, "channel": 2, "type": "channel", "subtype": "noteOff", "noteNumber": 52, "velocity": 0  },
      { "deltaTime": 1, "channel": 2, "type": "channel", "noteNumber": 52, "velocity": 56, "subtype": "noteOn"  },
      { "deltaTime": 239, "channel": 2, "type": "channel", "subtype": "noteOff", "noteNumber": 52, "velocity": 0  },
      { "deltaTime": 1, "channel": 2, "type": "channel", "noteNumber": 64, "velocity": 56, "subtype": "noteOn"  },
      { "deltaTime": 239, "channel": 2, "type": "channel", "subtype": "noteOff", "noteNumber": 64, "velocity": 0  },
      { "deltaTime": 1, "channel": 2, "type": "channel", "noteNumber": 52, "velocity": 56, "subtype": "noteOn"  },
      { "deltaTime": 239, "channel": 2, "type": "channel", "subtype": "noteOff", "noteNumber": 52, "velocity": 0  },
      { "deltaTime": 1, "channel": 2, "type": "channel", "noteNumber": 52, "velocity": 56, "subtype": "noteOn"  },
      { "deltaTime": 239, "channel": 2, "type": "channel", "subtype": "noteOff", "noteNumber": 52, "velocity": 0  },
      { "deltaTime": 1, "channel": 2, "type": "channel", "noteNumber": 64, "velocity": 56, "subtype": "noteOn"  },
      { "deltaTime": 239, "channel": 2, "type": "channel", "subtype": "noteOff", "noteNumber": 64, "velocity": 0  },
      { "deltaTime": 1, "channel": 2, "type": "channel", "noteNumber": 64, "velocity": 56, "subtype": "noteOn"  },
      { "deltaTime": 239, "channel": 2, "type": "channel", "subtype": "noteOff", "noteNumber": 64, "velocity": 0  },
      { "deltaTime": 1, "channel": 2, "type": "channel", "noteNumber": 52, "velocity": 56, "subtype": "noteOn"  },
      { "deltaTime": 239, "channel": 2, "type": "channel", "subtype": "noteOff", "noteNumber": 52, "velocity": 0  },
      { "deltaTime": 1, "channel": 2, "type": "channel", "noteNumber": 52, "velocity": 56, "subtype": "noteOn"  },
      { "deltaTime": 239, "channel": 2, "type": "channel", "subtype": "noteOff", "noteNumber": 52, "velocity": 0  },
      { "deltaTime": 1, "channel": 2, "type": "channel", "noteNumber": 64, "velocity": 56, "subtype": "noteOn"  },
      { "deltaTime": 239, "channel": 2, "type": "channel", "subtype": "noteOff", "noteNumber": 64, "velocity": 0  },
      { "deltaTime": 1, "channel": 2, "type": "channel", "noteNumber": 52, "velocity": 56, "subtype": "noteOn"  },
      { "deltaTime": 239, "channel": 2, "type": "channel", "subtype": "noteOff", "noteNumber": 52, "velocity": 0  },
      { "deltaTime": 1, "channel": 2, "type": "channel", "noteNumber": 52, "velocity": 56, "subtype": "noteOn"  },
      { "deltaTime": 239, "channel": 2, "type": "channel", "subtype": "noteOff", "noteNumber": 52, "velocity": 0  },
      { "deltaTime": 1, "channel": 2, "type": "channel", "noteNumber": 64, "velocity": 56, "subtype": "noteOn"  },
      { "deltaTime": 239, "channel": 2, "type": "channel", "subtype": "noteOff", "noteNumber": 64, "velocity": 0  },
      { "deltaTime": 1, "channel": 2, "type": "channel", "noteNumber": 52, "velocity": 56, "subtype": "noteOn"  },
      { "deltaTime": 239, "channel": 2, "type": "channel", "subtype": "noteOff", "noteNumber": 52, "velocity": 0  },
      { "deltaTime": 1, "channel": 2, "type": "channel", "noteNumber": 52, "velocity": 56, "subtype": "noteOn"  },
      { "deltaTime": 239, "channel": 2, "type": "channel", "subtype": "noteOff", "noteNumber": 52, "velocity": 0  },
      { "deltaTime": 1, "channel": 2, "type": "channel", "noteNumber": 64, "velocity": 56, "subtype": "noteOn"  },
      { "deltaTime": 239, "channel": 2, "type": "channel", "subtype": "noteOff", "noteNumber": 64, "velocity": 0  },
      { "deltaTime": 1, "channel": 2, "type": "channel", "noteNumber": 52, "velocity": 56, "subtype": "noteOn"  },
      { "deltaTime": 239, "channel": 2, "type": "channel", "subtype": "noteOff", "noteNumber": 52, "velocity": 0  },
      { "deltaTime": 1, "channel": 2, "type": "channel", "noteNumber": 52, "velocity": 56, "subtype": "noteOn"  },
      { "deltaTime": 239, "channel": 2, "type": "channel", "subtype": "noteOff", "noteNumber": 52, "velocity": 0  },
      { "deltaTime": 1, "channel": 2, "type": "channel", "noteNumber": 64, "velocity": 56, "subtype": "noteOn"  },
      { "deltaTime": 239, "channel": 2, "type": "channel", "subtype": "noteOff", "noteNumber": 64, "velocity": 0  },
      { "deltaTime": 1, "channel": 2, "type": "channel", "noteNumber": 68, "velocity": 56, "subtype": "noteOn"  },
      { "deltaTime": 239, "channel": 2, "type": "channel", "subtype": "noteOff", "noteNumber": 68, "velocity": 0  },
      { "deltaTime": 1, "channel": 2, "type": "channel", "noteNumber": 64, "velocity": 56, "subtype": "noteOn"  },
      { "deltaTime": 239, "channel": 2, "type": "channel", "subtype": "noteOff", "noteNumber": 64, "velocity": 0  },
      { "deltaTime": 1, "channel": 2, "type": "channel", "noteNumber": 59, "velocity": 56, "subtype": "noteOn"  },
      { "deltaTime": 239, "channel": 2, "type": "channel", "subtype": "noteOff", "noteNumber": 59, "velocity": 0  },
      { "deltaTime": 1, "channel": 2, "type": "channel", "noteNumber": 66, "velocity": 56, "subtype": "noteOn"  },
      { "deltaTime": 239, "channel": 2, "type": "channel", "subtype": "noteOff", "noteNumber": 66, "velocity": 0  },
      { "deltaTime": 1, "channel": 2, "type": "channel", "noteNumber": 62, "velocity": 56, "subtype": "noteOn"  },
      { "deltaTime": 239, "channel": 2, "type": "channel", "subtype": "noteOff", "noteNumber": 62, "velocity": 0  },
      { "deltaTime": 1, "channel": 2, "type": "channel", "noteNumber": 59, "velocity": 56, "subtype": "noteOn"  },
      { "deltaTime": 239, "channel": 2, "type": "channel", "subtype": "noteOff", "noteNumber": 59, "velocity": 0  },
      { "deltaTime": 1, "channel": 2, "type": "channel", "noteNumber": 64, "velocity": 56, "subtype": "noteOn"  },
      { "deltaTime": 239, "channel": 2, "type": "channel", "subtype": "noteOff", "noteNumber": 64, "velocity": 0  },
      { "deltaTime": 1, "channel": 2, "type": "channel", "noteNumber": 61, "velocity": 56, "subtype": "noteOn"  },
      { "deltaTime": 239, "channel": 2, "type": "channel", "subtype": "noteOff", "noteNumber": 61, "velocity": 0  },
      { "deltaTime": 1, "channel": 2, "type": "channel", "noteNumber": 57, "velocity": 56, "subtype": "noteOn"  },
      { "deltaTime": 239, "channel": 2, "type": "channel", "subtype": "noteOff", "noteNumber": 57, "velocity": 0  },
      { "deltaTime": 1, "channel": 2, "type": "channel", "noteNumber": 59, "velocity": 56, "subtype": "noteOn"  },
      { "deltaTime": 239, "channel": 2, "type": "channel", "subtype": "noteOff", "noteNumber": 59, "velocity": 0  },
      { "deltaTime": 1, "channel": 2, "type": "channel", "noteNumber": 56, "velocity": 56, "subtype": "noteOn"  },
      { "deltaTime": 239, "channel": 2, "type": "channel", "subtype": "noteOff", "noteNumber": 56, "velocity": 0  },
      { "deltaTime": 1, "channel": 2, "type": "channel", "noteNumber": 57, "velocity": 56, "subtype": "noteOn"  },
      { "deltaTime": 239, "channel": 2, "type": "channel", "subtype": "noteOff", "noteNumber": 57, "velocity": 0  },
      { "deltaTime": 1, "channel": 2, "type": "channel", "noteNumber": 59, "velocity": 56, "subtype": "noteOn"  },
      { "deltaTime": 239, "channel": 2, "type": "channel", "subtype": "noteOff", "noteNumber": 59, "velocity": 0  },
      { "deltaTime": 1, "channel": 2, "type": "channel", "noteNumber": 64, "velocity": 56, "subtype": "noteOn"  },
      { "deltaTime": 239, "channel": 2, "type": "channel", "subtype": "noteOff", "noteNumber": 64, "velocity": 0  },
      { "deltaTime": 1, "channel": 2, "type": "channel", "noteNumber": 62, "velocity": 56, "subtype": "noteOn"  },
      { "deltaTime": 239, "channel": 2, "type": "channel", "subtype": "noteOff", "noteNumber": 62, "velocity": 0  },
      { "deltaTime": 1, "channel": 2, "type": "channel", "noteNumber": 68, "velocity": 56, "subtype": "noteOn"  },
      { "deltaTime": 239, "channel": 2, "type": "channel", "subtype": "noteOff", "noteNumber": 68, "velocity": 0  },
      { "deltaTime": 1, "channel": 2, "type": "channel", "noteNumber": 64, "velocity": 56, "subtype": "noteOn"  },
      { "deltaTime": 239, "channel": 2, "type": "channel", "subtype": "noteOff", "noteNumber": 64, "velocity": 0  },
      { "deltaTime": 1, "channel": 2, "type": "channel", "noteNumber": 59, "velocity": 56, "subtype": "noteOn"  },
      { "deltaTime": 239, "channel": 2, "type": "channel", "subtype": "noteOff", "noteNumber": 59, "velocity": 0  },
      { "deltaTime": 1, "channel": 2, "type": "channel", "noteNumber": 66, "velocity": 56, "subtype": "noteOn"  },
      { "deltaTime": 239, "channel": 2, "type": "channel", "subtype": "noteOff", "noteNumber": 66, "velocity": 0  },
      { "deltaTime": 1, "channel": 2, "type": "channel", "noteNumber": 62, "velocity": 56, "subtype": "noteOn"  },
      { "deltaTime": 239, "channel": 2, "type": "channel", "subtype": "noteOff", "noteNumber": 62, "velocity": 0  },
      { "deltaTime": 1, "channel": 2, "type": "channel", "noteNumber": 59, "velocity": 56, "subtype": "noteOn"  },
      { "deltaTime": 239, "channel": 2, "type": "channel", "subtype": "noteOff", "noteNumber": 59, "velocity": 0  },
      { "deltaTime": 1, "channel": 2, "type": "channel", "noteNumber": 64, "velocity": 56, "subtype": "noteOn"  },
      { "deltaTime": 239, "channel": 2, "type": "channel", "subtype": "noteOff", "noteNumber": 64, "velocity": 0  },
      { "deltaTime": 1, "channel": 2, "type": "channel", "noteNumber": 61, "velocity": 56, "subtype": "noteOn"  },
      { "deltaTime": 239, "channel": 2, "type": "channel", "subtype": "noteOff", "noteNumber": 61, "velocity": 0  },
      { "deltaTime": 1, "channel": 2, "type": "channel", "noteNumber": 57, "velocity": 56, "subtype": "noteOn"  },
      { "deltaTime": 239, "channel": 2, "type": "channel", "subtype": "noteOff", "noteNumber": 57, "velocity": 0  },
      { "deltaTime": 1, "channel": 2, "type": "channel", "noteNumber": 61, "velocity": 56, "subtype": "noteOn"  },
      { "deltaTime": 239, "channel": 2, "type": "channel", "subtype": "noteOff", "noteNumber": 61, "velocity": 0  },
      { "deltaTime": 1, "channel": 2, "type": "channel", "noteNumber": 59, "velocity": 56, "subtype": "noteOn"  },
      { "deltaTime": 239, "channel": 2, "type": "channel", "subtype": "noteOff", "noteNumber": 59, "velocity": 0  },
      { "deltaTime": 1, "channel": 2, "type": "channel", "noteNumber": 56, "velocity": 56, "subtype": "noteOn"  },
      { "deltaTime": 239, "channel": 2, "type": "channel", "subtype": "noteOff", "noteNumber": 56, "velocity": 0  },
      { "deltaTime": 241, "channel": 2, "type": "channel", "noteNumber": 68, "velocity": 56, "subtype": "noteOn"  },
      { "deltaTime": 239, "channel": 2, "type": "channel", "subtype": "noteOff", "noteNumber": 68, "velocity": 0  },
      { "deltaTime": 1, "channel": 2, "type": "channel", "noteNumber": 64, "velocity": 56, "subtype": "noteOn"  },
      { "deltaTime": 239, "channel": 2, "type": "channel", "subtype": "noteOff", "noteNumber": 64, "velocity": 0  },
      { "deltaTime": 1, "channel": 2, "type": "channel", "noteNumber": 59, "velocity": 56, "subtype": "noteOn"  },
      { "deltaTime": 239, "channel": 2, "type": "channel", "subtype": "noteOff", "noteNumber": 59, "velocity": 0  },
      { "deltaTime": 1, "channel": 2, "type": "channel", "noteNumber": 66, "velocity": 56, "subtype": "noteOn"  },
      { "deltaTime": 239, "channel": 2, "type": "channel", "subtype": "noteOff", "noteNumber": 66, "velocity": 0  },
      { "deltaTime": 1, "channel": 2, "type": "channel", "noteNumber": 62, "velocity": 56, "subtype": "noteOn"  },
      { "deltaTime": 239, "channel": 2, "type": "channel", "subtype": "noteOff", "noteNumber": 62, "velocity": 0  },
      { "deltaTime": 1, "channel": 2, "type": "channel", "noteNumber": 59, "velocity": 56, "subtype": "noteOn"  },
      { "deltaTime": 239, "channel": 2, "type": "channel", "subtype": "noteOff", "noteNumber": 59, "velocity": 0  },
      { "deltaTime": 1, "channel": 2, "type": "channel", "noteNumber": 64, "velocity": 56, "subtype": "noteOn"  },
      { "deltaTime": 239, "channel": 2, "type": "channel", "subtype": "noteOff", "noteNumber": 64, "velocity": 0  },
      { "deltaTime": 1, "channel": 2, "type": "channel", "noteNumber": 61, "velocity": 56, "subtype": "noteOn"  },
      { "deltaTime": 239, "channel": 2, "type": "channel", "subtype": "noteOff", "noteNumber": 61, "velocity": 0  },
      { "deltaTime": 1, "channel": 2, "type": "channel", "noteNumber": 57, "velocity": 56, "subtype": "noteOn"  },
      { "deltaTime": 239, "channel": 2, "type": "channel", "subtype": "noteOff", "noteNumber": 57, "velocity": 0  },
      { "deltaTime": 1, "channel": 2, "type": "channel", "noteNumber": 59, "velocity": 56, "subtype": "noteOn"  },
      { "deltaTime": 239, "channel": 2, "type": "channel", "subtype": "noteOff", "noteNumber": 59, "velocity": 0  },
      { "deltaTime": 1, "channel": 2, "type": "channel", "noteNumber": 56, "velocity": 56, "subtype": "noteOn"  },
      { "deltaTime": 239, "channel": 2, "type": "channel", "subtype": "noteOff", "noteNumber": 56, "velocity": 0  },
      { "deltaTime": 1, "channel": 2, "type": "channel", "noteNumber": 57, "velocity": 56, "subtype": "noteOn"  },
      { "deltaTime": 239, "channel": 2, "type": "channel", "subtype": "noteOff", "noteNumber": 57, "velocity": 0  },
      { "deltaTime": 1, "channel": 2, "type": "channel", "noteNumber": 59, "velocity": 56, "subtype": "noteOn"  },
      { "deltaTime": 239, "channel": 2, "type": "channel", "subtype": "noteOff", "noteNumber": 59, "velocity": 0  },
      { "deltaTime": 1, "channel": 2, "type": "channel", "noteNumber": 64, "velocity": 56, "subtype": "noteOn"  },
      { "deltaTime": 239, "channel": 2, "type": "channel", "subtype": "noteOff", "noteNumber": 64, "velocity": 0  },
      { "deltaTime": 1, "channel": 2, "type": "channel", "noteNumber": 62, "velocity": 56, "subtype": "noteOn"  },
      { "deltaTime": 239, "channel": 2, "type": "channel", "subtype": "noteOff", "noteNumber": 62, "velocity": 0  },
      { "deltaTime": 1, "channel": 2, "type": "channel", "noteNumber": 68, "velocity": 56, "subtype": "noteOn"  },
      { "deltaTime": 239, "channel": 2, "type": "channel", "subtype": "noteOff", "noteNumber": 68, "velocity": 0  },
      { "deltaTime": 1, "channel": 2, "type": "channel", "noteNumber": 64, "velocity": 56, "subtype": "noteOn"  },
      { "deltaTime": 239, "channel": 2, "type": "channel", "subtype": "noteOff", "noteNumber": 64, "velocity": 0  },
      { "deltaTime": 1, "channel": 2, "type": "channel", "noteNumber": 59, "velocity": 56, "subtype": "noteOn"  },
      { "deltaTime": 239, "channel": 2, "type": "channel", "subtype": "noteOff", "noteNumber": 59, "velocity": 0  },
      { "deltaTime": 1, "channel": 2, "type": "channel", "noteNumber": 66, "velocity": 56, "subtype": "noteOn"  },
      { "deltaTime": 239, "channel": 2, "type": "channel", "subtype": "noteOff", "noteNumber": 66, "velocity": 0  },
      { "deltaTime": 1, "channel": 2, "type": "channel", "noteNumber": 62, "velocity": 56, "subtype": "noteOn"  },
      { "deltaTime": 239, "channel": 2, "type": "channel", "subtype": "noteOff", "noteNumber": 62, "velocity": 0  },
      { "deltaTime": 1, "channel": 2, "type": "channel", "noteNumber": 59, "velocity": 56, "subtype": "noteOn"  },
      { "deltaTime": 239, "channel": 2, "type": "channel", "subtype": "noteOff", "noteNumber": 59, "velocity": 0  },
      { "deltaTime": 1, "channel": 2, "type": "channel", "noteNumber": 64, "velocity": 56, "subtype": "noteOn"  },
      { "deltaTime": 239, "channel": 2, "type": "channel", "subtype": "noteOff", "noteNumber": 64, "velocity": 0  },
      { "deltaTime": 1, "channel": 2, "type": "channel", "noteNumber": 61, "velocity": 56, "subtype": "noteOn"  },
      { "deltaTime": 239, "channel": 2, "type": "channel", "subtype": "noteOff", "noteNumber": 61, "velocity": 0  },
      { "deltaTime": 1, "channel": 2, "type": "channel", "noteNumber": 57, "velocity": 56, "subtype": "noteOn"  },
      { "deltaTime": 239, "channel": 2, "type": "channel", "subtype": "noteOff", "noteNumber": 57, "velocity": 0  },
      { "deltaTime": 1, "channel": 2, "type": "channel", "noteNumber": 61, "velocity": 56, "subtype": "noteOn"  },
      { "deltaTime": 239, "channel": 2, "type": "channel", "subtype": "noteOff", "noteNumber": 61, "velocity": 0  },
      { "deltaTime": 1, "channel": 2, "type": "channel", "noteNumber": 59, "velocity": 56, "subtype": "noteOn"  },
      { "deltaTime": 239, "channel": 2, "type": "channel", "subtype": "noteOff", "noteNumber": 59, "velocity": 0  },
      { "deltaTime": 1, "channel": 2, "type": "channel", "noteNumber": 56, "velocity": 56, "subtype": "noteOn"  },
      { "deltaTime": 239, "channel": 2, "type": "channel", "subtype": "noteOff", "noteNumber": 56, "velocity": 0  },
      { "deltaTime": 241, "channel": 2, "type": "channel", "noteNumber": 64, "velocity": 56, "subtype": "noteOn"  },
      { "deltaTime": 239, "channel": 2, "type": "channel", "subtype": "noteOff", "noteNumber": 64, "velocity": 0  },
      { "deltaTime": 241, "channel": 2, "type": "channel", "noteNumber": 64, "velocity": 56, "subtype": "noteOn"  },
      { "deltaTime": 239, "channel": 2, "type": "channel", "subtype": "noteOff", "noteNumber": 64, "velocity": 0  },
      { "deltaTime": 481, "channel": 2, "type": "channel", "noteNumber": 52, "velocity": 56, "subtype": "noteOn"  },
      { "deltaTime": 239, "channel": 2, "type": "channel", "subtype": "noteOff", "noteNumber": 52, "velocity": 0  },
      { "deltaTime": 1, "channel": 2, "type": "channel", "noteNumber": 52, "velocity": 56, "subtype": "noteOn"  },
      { "deltaTime": 239, "channel": 2, "type": "channel", "subtype": "noteOff", "noteNumber": 52, "velocity": 0  },
      { "deltaTime": 1, "channel": 2, "type": "channel", "noteNumber": 52, "velocity": 56, "subtype": "noteOn"  },
      { "deltaTime": 239, "channel": 2, "type": "channel", "subtype": "noteOff", "noteNumber": 52, "velocity": 0  },
      { "deltaTime": 1, "channel": 2, "type": "channel", "noteNumber": 52, "velocity": 56, "subtype": "noteOn"  },
      { "deltaTime": 239, "channel": 2, "type": "channel", "subtype": "noteOff", "noteNumber": 52, "velocity": 0  },
      { "deltaTime": 481, "channel": 2, "type": "channel", "noteNumber": 52, "velocity": 56, "subtype": "noteOn"  },
      { "deltaTime": 239, "channel": 2, "type": "channel", "subtype": "noteOff", "noteNumber": 52, "velocity": 0  },
      { "deltaTime": 1, "channel": 2, "type": "channel", "noteNumber": 64, "velocity": 56, "subtype": "noteOn"  },
      { "deltaTime": 239, "channel": 2, "type": "channel", "subtype": "noteOff", "noteNumber": 64, "velocity": 0  },
      { "deltaTime": 241, "channel": 2, "type": "channel", "noteNumber": 64, "velocity": 56, "subtype": "noteOn"  },
      { "deltaTime": 239, "channel": 2, "type": "channel", "subtype": "noteOff", "noteNumber": 64, "velocity": 0  },
      { "deltaTime": 481, "channel": 2, "type": "channel", "noteNumber": 61, "velocity": 56, "subtype": "noteOn"  },
      { "deltaTime": 239, "channel": 2, "type": "channel", "subtype": "noteOff", "noteNumber": 61, "velocity": 0  },
      { "deltaTime": 241, "channel": 2, "type": "channel", "noteNumber": 62, "velocity": 56, "subtype": "noteOn"  },
      { "deltaTime": 239, "channel": 2, "type": "channel", "subtype": "noteOff", "noteNumber": 62, "velocity": 0  },
      { "deltaTime": 241, "channel": 2, "type": "channel", "noteNumber": 61, "velocity": 56, "subtype": "noteOn"  },
      { "deltaTime": 239, "channel": 2, "type": "channel", "subtype": "noteOff", "noteNumber": 61, "velocity": 0  },
      { "deltaTime": 241, "channel": 2, "type": "channel", "noteNumber": 62, "velocity": 56, "subtype": "noteOn"  },
      { "deltaTime": 239, "channel": 2, "type": "channel", "subtype": "noteOff", "noteNumber": 62, "velocity": 0  },
      { "deltaTime": 1, "channel": 2, "type": "channel", "noteNumber": 64, "velocity": 56, "subtype": "noteOn"  },
      { "deltaTime": 239, "channel": 2, "type": "channel", "subtype": "noteOff", "noteNumber": 64, "velocity": 0  },
      { "deltaTime": 241, "channel": 2, "type": "channel", "noteNumber": 64, "velocity": 56, "subtype": "noteOn"  },
      { "deltaTime": 239, "channel": 2, "type": "channel", "subtype": "noteOff", "noteNumber": 64, "velocity": 0  },
      { "deltaTime": 1, "channel": 2, "type": "channel", "noteNumber": 64, "velocity": 56, "subtype": "noteOn"  },
      { "deltaTime": 239, "channel": 2, "type": "channel", "subtype": "noteOff", "noteNumber": 64, "velocity": 0  },
      { "deltaTime": 1, "channel": 2, "type": "channel", "noteNumber": 68, "velocity": 56, "subtype": "noteOn"  },
      { "deltaTime": 239, "channel": 2, "type": "channel", "subtype": "noteOff", "noteNumber": 68, "velocity": 0  },
      { "deltaTime": 1, "channel": 2, "type": "channel", "noteNumber": 64, "velocity": 56, "subtype": "noteOn"  },
      { "deltaTime": 239, "channel": 2, "type": "channel", "subtype": "noteOff", "noteNumber": 64, "velocity": 0  },
      { "deltaTime": 1, "channel": 2, "type": "channel", "noteNumber": 59, "velocity": 56, "subtype": "noteOn"  },
      { "deltaTime": 239, "channel": 2, "type": "channel", "subtype": "noteOff", "noteNumber": 59, "velocity": 0  },
      { "deltaTime": 1, "channel": 2, "type": "channel", "noteNumber": 66, "velocity": 56, "subtype": "noteOn"  },
      { "deltaTime": 239, "channel": 2, "type": "channel", "subtype": "noteOff", "noteNumber": 66, "velocity": 0  },
      { "deltaTime": 1, "channel": 2, "type": "channel", "noteNumber": 62, "velocity": 56, "subtype": "noteOn"  },
      { "deltaTime": 239, "channel": 2, "type": "channel", "subtype": "noteOff", "noteNumber": 62, "velocity": 0  },
      { "deltaTime": 1, "channel": 2, "type": "channel", "noteNumber": 59, "velocity": 56, "subtype": "noteOn"  },
      { "deltaTime": 239, "channel": 2, "type": "channel", "subtype": "noteOff", "noteNumber": 59, "velocity": 0  },
      { "deltaTime": 1, "channel": 2, "type": "channel", "noteNumber": 64, "velocity": 56, "subtype": "noteOn"  },
      { "deltaTime": 239, "channel": 2, "type": "channel", "subtype": "noteOff", "noteNumber": 64, "velocity": 0  },
      { "deltaTime": 1, "channel": 2, "type": "channel", "noteNumber": 61, "velocity": 56, "subtype": "noteOn"  },
      { "deltaTime": 239, "channel": 2, "type": "channel", "subtype": "noteOff", "noteNumber": 61, "velocity": 0  },
      { "deltaTime": 1, "channel": 2, "type": "channel", "noteNumber": 57, "velocity": 56, "subtype": "noteOn"  },
      { "deltaTime": 239, "channel": 2, "type": "channel", "subtype": "noteOff", "noteNumber": 57, "velocity": 0  },
      { "deltaTime": 1, "channel": 2, "type": "channel", "noteNumber": 59, "velocity": 56, "subtype": "noteOn"  },
      { "deltaTime": 239, "channel": 2, "type": "channel", "subtype": "noteOff", "noteNumber": 59, "velocity": 0  },
      { "deltaTime": 1, "channel": 2, "type": "channel", "noteNumber": 56, "velocity": 56, "subtype": "noteOn"  },
      { "deltaTime": 239, "channel": 2, "type": "channel", "subtype": "noteOff", "noteNumber": 56, "velocity": 0  },
      { "deltaTime": 1, "channel": 2, "type": "channel", "noteNumber": 57, "velocity": 56, "subtype": "noteOn"  },
      { "deltaTime": 239, "channel": 2, "type": "channel", "subtype": "noteOff", "noteNumber": 57, "velocity": 0  },
      { "deltaTime": 1, "channel": 2, "type": "channel", "noteNumber": 59, "velocity": 56, "subtype": "noteOn"  },
      { "deltaTime": 239, "channel": 2, "type": "channel", "subtype": "noteOff", "noteNumber": 59, "velocity": 0  },
      { "deltaTime": 1, "channel": 2, "type": "channel", "noteNumber": 64, "velocity": 56, "subtype": "noteOn"  },
      { "deltaTime": 239, "channel": 2, "type": "channel", "subtype": "noteOff", "noteNumber": 64, "velocity": 0  },
      { "deltaTime": 1, "channel": 2, "type": "channel", "noteNumber": 62, "velocity": 56, "subtype": "noteOn"  },
      { "deltaTime": 239, "channel": 2, "type": "channel", "subtype": "noteOff", "noteNumber": 62, "velocity": 0  },
      { "deltaTime": 1, "channel": 2, "type": "channel", "noteNumber": 68, "velocity": 56, "subtype": "noteOn"  },
      { "deltaTime": 239, "channel": 2, "type": "channel", "subtype": "noteOff", "noteNumber": 68, "velocity": 0  },
      { "deltaTime": 1, "channel": 2, "type": "channel", "noteNumber": 64, "velocity": 56, "subtype": "noteOn"  },
      { "deltaTime": 239, "channel": 2, "type": "channel", "subtype": "noteOff", "noteNumber": 64, "velocity": 0  },
      { "deltaTime": 1, "channel": 2, "type": "channel", "noteNumber": 59, "velocity": 56, "subtype": "noteOn"  },
      { "deltaTime": 239, "channel": 2, "type": "channel", "subtype": "noteOff", "noteNumber": 59, "velocity": 0  },
      { "deltaTime": 1, "channel": 2, "type": "channel", "noteNumber": 66, "velocity": 56, "subtype": "noteOn"  },
      { "deltaTime": 239, "channel": 2, "type": "channel", "subtype": "noteOff", "noteNumber": 66, "velocity": 0  },
      { "deltaTime": 1, "channel": 2, "type": "channel", "noteNumber": 62, "velocity": 56, "subtype": "noteOn"  },
      { "deltaTime": 239, "channel": 2, "type": "channel", "subtype": "noteOff", "noteNumber": 62, "velocity": 0  },
      { "deltaTime": 1, "channel": 2, "type": "channel", "noteNumber": 59, "velocity": 56, "subtype": "noteOn"  },
      { "deltaTime": 239, "channel": 2, "type": "channel", "subtype": "noteOff", "noteNumber": 59, "velocity": 0  },
      { "deltaTime": 1, "channel": 2, "type": "channel", "noteNumber": 64, "velocity": 56, "subtype": "noteOn"  },
      { "deltaTime": 239, "channel": 2, "type": "channel", "subtype": "noteOff", "noteNumber": 64, "velocity": 0  },
      { "deltaTime": 1, "channel": 2, "type": "channel", "noteNumber": 61, "velocity": 56, "subtype": "noteOn"  },
      { "deltaTime": 239, "channel": 2, "type": "channel", "subtype": "noteOff", "noteNumber": 61, "velocity": 0  },
      { "deltaTime": 1, "channel": 2, "type": "channel", "noteNumber": 57, "velocity": 56, "subtype": "noteOn"  },
      { "deltaTime": 239, "channel": 2, "type": "channel", "subtype": "noteOff", "noteNumber": 57, "velocity": 0  },
      { "deltaTime": 1, "channel": 2, "type": "channel", "noteNumber": 61, "velocity": 56, "subtype": "noteOn"  },
      { "deltaTime": 239, "channel": 2, "type": "channel", "subtype": "noteOff", "noteNumber": 61, "velocity": 0  },
      { "deltaTime": 1, "channel": 2, "type": "channel", "noteNumber": 59, "velocity": 56, "subtype": "noteOn"  },
      { "deltaTime": 239, "channel": 2, "type": "channel", "subtype": "noteOff", "noteNumber": 59, "velocity": 0  },
      { "deltaTime": 1, "channel": 2, "type": "channel", "noteNumber": 56, "velocity": 56, "subtype": "noteOn"  },
      { "deltaTime": 239, "channel": 2, "type": "channel", "subtype": "noteOff", "noteNumber": 56, "velocity": 0  },
      { "deltaTime": 241, "channel": 2, "type": "channel", "noteNumber": 52, "velocity": 56, "subtype": "noteOn"  },
      { "deltaTime": 239, "channel": 2, "type": "channel", "subtype": "noteOff", "noteNumber": 52, "velocity": 0  },
      { "deltaTime": 241, "channel": 2, "type": "channel", "noteNumber": 64, "velocity": 56, "subtype": "noteOn"  },
      { "deltaTime": 239, "channel": 2, "type": "channel", "subtype": "noteOff", "noteNumber": 64, "velocity": 0  },
      { "deltaTime": 1, "channel": 2, "type": "channel", "noteNumber": 52, "velocity": 56, "subtype": "noteOn"  },
      { "deltaTime": 239, "channel": 2, "type": "channel", "subtype": "noteOff", "noteNumber": 52, "velocity": 0  },
      { "deltaTime": 241, "channel": 2, "type": "channel", "noteNumber": 64, "velocity": 56, "subtype": "noteOn"  },
      { "deltaTime": 239, "channel": 2, "type": "channel", "subtype": "noteOff", "noteNumber": 64, "velocity": 0  },
      { "deltaTime": 1, "channel": 2, "type": "channel", "noteNumber": 52, "velocity": 56, "subtype": "noteOn"  },
      { "deltaTime": 239, "channel": 2, "type": "channel", "subtype": "noteOff", "noteNumber": 52, "velocity": 0  },
      { "deltaTime": 241, "channel": 2, "type": "channel", "noteNumber": 64, "velocity": 56, "subtype": "noteOn"  },
      { "deltaTime": 239, "channel": 2, "type": "channel", "subtype": "noteOff", "noteNumber": 64, "velocity": 0  },
      { "deltaTime": 1, "channel": 2, "type": "channel", "noteNumber": 52, "velocity": 56, "subtype": "noteOn"  },
      { "deltaTime": 239, "channel": 2, "type": "channel", "subtype": "noteOff", "noteNumber": 52, "velocity": 0  },
      { "deltaTime": 241, "channel": 2, "type": "channel", "noteNumber": 64, "velocity": 56, "subtype": "noteOn"  },
      { "deltaTime": 239, "channel": 2, "type": "channel", "subtype": "noteOff", "noteNumber": 64, "velocity": 0  },
      { "deltaTime": 1, "channel": 2, "type": "channel", "noteNumber": 52, "velocity": 56, "subtype": "noteOn"  },
      { "deltaTime": 239, "channel": 2, "type": "channel", "subtype": "noteOff", "noteNumber": 52, "velocity": 0  },
      { "deltaTime": 241, "channel": 2, "type": "channel", "noteNumber": 64, "velocity": 56, "subtype": "noteOn"  },
      { "deltaTime": 239, "channel": 2, "type": "channel", "subtype": "noteOff", "noteNumber": 64, "velocity": 0  },
      { "deltaTime": 1, "channel": 2, "type": "channel", "noteNumber": 52, "velocity": 56, "subtype": "noteOn"  },
      { "deltaTime": 239, "channel": 2, "type": "channel", "subtype": "noteOff", "noteNumber": 52, "velocity": 0  },
      { "deltaTime": 241, "channel": 2, "type": "channel", "noteNumber": 64, "velocity": 56, "subtype": "noteOn"  },
      { "deltaTime": 239, "channel": 2, "type": "channel", "subtype": "noteOff", "noteNumber": 64, "velocity": 0  },
      { "deltaTime": 1, "channel": 2, "type": "channel", "noteNumber": 52, "velocity": 56, "subtype": "noteOn"  },
      { "deltaTime": 239, "channel": 2, "type": "channel", "subtype": "noteOff", "noteNumber": 52, "velocity": 0  },
      { "deltaTime": 241, "channel": 2, "type": "channel", "noteNumber": 64, "velocity": 56, "subtype": "noteOn"  },
      { "deltaTime": 239, "channel": 2, "type": "channel", "subtype": "noteOff", "noteNumber": 64, "velocity": 0  },
      { "deltaTime": 1, "channel": 2, "type": "channel", "noteNumber": 52, "velocity": 56, "subtype": "noteOn"  },
      { "deltaTime": 239, "channel": 2, "type": "channel", "subtype": "noteOff", "noteNumber": 52, "velocity": 0  },
      { "deltaTime": 241, "channel": 2, "type": "channel", "noteNumber": 64, "velocity": 56, "subtype": "noteOn"  },
      { "deltaTime": 239, "channel": 2, "type": "channel", "subtype": "noteOff", "noteNumber": 64, "velocity": 0  },
      { "deltaTime": 1, "channel": 2, "type": "channel", "noteNumber": 52, "velocity": 56, "subtype": "noteOn"  },
      { "deltaTime": 239, "channel": 2, "type": "channel", "subtype": "noteOff", "noteNumber": 52, "velocity": 0  },
      { "deltaTime": 241, "channel": 2, "type": "channel", "noteNumber": 64, "velocity": 56, "subtype": "noteOn"  },
      { "deltaTime": 239, "channel": 2, "type": "channel", "subtype": "noteOff", "noteNumber": 64, "velocity": 0  },
      { "deltaTime": 1, "channel": 2, "type": "channel", "noteNumber": 52, "velocity": 56, "subtype": "noteOn"  },
      { "deltaTime": 239, "channel": 2, "type": "channel", "subtype": "noteOff", "noteNumber": 52, "velocity": 0  },
      { "deltaTime": 241, "channel": 2, "type": "channel", "noteNumber": 64, "velocity": 56, "subtype": "noteOn"  },
      { "deltaTime": 239, "channel": 2, "type": "channel", "subtype": "noteOff", "noteNumber": 64, "velocity": 0  },
      { "deltaTime": 1, "channel": 2, "type": "channel", "noteNumber": 52, "velocity": 56, "subtype": "noteOn"  },
      { "deltaTime": 239, "channel": 2, "type": "channel", "subtype": "noteOff", "noteNumber": 52, "velocity": 0  },
      { "deltaTime": 241, "channel": 2, "type": "channel", "noteNumber": 64, "velocity": 56, "subtype": "noteOn"  },
      { "deltaTime": 239, "channel": 2, "type": "channel", "subtype": "noteOff", "noteNumber": 64, "velocity": 0  },
      { "deltaTime": 1, "channel": 2, "type": "channel", "noteNumber": 52, "velocity": 56, "subtype": "noteOn"  },
      { "deltaTime": 239, "channel": 2, "type": "channel", "subtype": "noteOff", "noteNumber": 52, "velocity": 0  },
      { "deltaTime": 241, "channel": 2, "type": "channel", "noteNumber": 64, "velocity": 56, "subtype": "noteOn"  },
      { "deltaTime": 239, "channel": 2, "type": "channel", "subtype": "noteOff", "noteNumber": 64, "velocity": 0  },
      { "deltaTime": 1, "channel": 2, "type": "channel", "noteNumber": 52, "velocity": 56, "subtype": "noteOn"  },
      { "deltaTime": 239, "channel": 2, "type": "channel", "subtype": "noteOff", "noteNumber": 52, "velocity": 0  },
      { "deltaTime": 241, "channel": 2, "type": "channel", "noteNumber": 64, "velocity": 56, "subtype": "noteOn"  },
      { "deltaTime": 239, "channel": 2, "type": "channel", "subtype": "noteOff", "noteNumber": 64, "velocity": 0  },
      { "deltaTime": 1, "channel": 2, "type": "channel", "noteNumber": 52, "velocity": 56, "subtype": "noteOn"  },
      { "deltaTime": 239, "channel": 2, "type": "channel", "subtype": "noteOff", "noteNumber": 52, "velocity": 0  },
      { "deltaTime": 241, "channel": 2, "type": "channel", "noteNumber": 64, "velocity": 56, "subtype": "noteOn"  },
      { "deltaTime": 239, "channel": 2, "type": "channel", "subtype": "noteOff", "noteNumber": 64, "velocity": 0  },
      { "deltaTime": 1, "channel": 2, "type": "channel", "noteNumber": 52, "velocity": 56, "subtype": "noteOn"  },
      { "deltaTime": 239, "channel": 2, "type": "channel", "subtype": "noteOff", "noteNumber": 52, "velocity": 0  },
      { "deltaTime": 241, "channel": 2, "type": "channel", "noteNumber": 64, "velocity": 56, "subtype": "noteOn"  },
      { "deltaTime": 239, "channel": 2, "type": "channel", "subtype": "noteOff", "noteNumber": 64, "velocity": 0  },
      { "deltaTime": 1, "channel": 2, "type": "channel", "noteNumber": 52, "velocity": 56, "subtype": "noteOn"  },
      { "deltaTime": 239, "channel": 2, "type": "channel", "subtype": "noteOff", "noteNumber": 52, "velocity": 0  },
      { "deltaTime": 241, "channel": 2, "type": "channel", "noteNumber": 64, "velocity": 56, "subtype": "noteOn"  },
      { "deltaTime": 239, "channel": 2, "type": "channel", "subtype": "noteOff", "noteNumber": 64, "velocity": 0  },
      { "deltaTime": 1, "channel": 2, "type": "channel", "noteNumber": 52, "velocity": 56, "subtype": "noteOn"  },
      { "deltaTime": 239, "channel": 2, "type": "channel", "subtype": "noteOff", "noteNumber": 52, "velocity": 0  },
      { "deltaTime": 241, "channel": 2, "type": "channel", "noteNumber": 64, "velocity": 56, "subtype": "noteOn"  },
      { "deltaTime": 239, "channel": 2, "type": "channel", "subtype": "noteOff", "noteNumber": 64, "velocity": 0  },
      { "deltaTime": 1, "channel": 2, "type": "channel", "noteNumber": 52, "velocity": 56, "subtype": "noteOn"  },
      { "deltaTime": 239, "channel": 2, "type": "channel", "subtype": "noteOff", "noteNumber": 52, "velocity": 0  },
      { "deltaTime": 241, "channel": 2, "type": "channel", "noteNumber": 64, "velocity": 56, "subtype": "noteOn"  },
      { "deltaTime": 239, "channel": 2, "type": "channel", "subtype": "noteOff", "noteNumber": 64, "velocity": 0  },
      { "deltaTime": 1, "channel": 2, "type": "channel", "noteNumber": 52, "velocity": 56, "subtype": "noteOn"  },
      { "deltaTime": 239, "channel": 2, "type": "channel", "subtype": "noteOff", "noteNumber": 52, "velocity": 0  },
      { "deltaTime": 241, "channel": 2, "type": "channel", "noteNumber": 64, "velocity": 56, "subtype": "noteOn"  },
      { "deltaTime": 239, "channel": 2, "type": "channel", "subtype": "noteOff", "noteNumber": 64, "velocity": 0  },
      { "deltaTime": 1, "channel": 2, "type": "channel", "noteNumber": 52, "velocity": 56, "subtype": "noteOn"  },
      { "deltaTime": 239, "channel": 2, "type": "channel", "subtype": "noteOff", "noteNumber": 52, "velocity": 0  },
      { "deltaTime": 241, "channel": 2, "type": "channel", "noteNumber": 64, "velocity": 56, "subtype": "noteOn"  },
      { "deltaTime": 239, "channel": 2, "type": "channel", "subtype": "noteOff", "noteNumber": 64, "velocity": 0  },
      { "deltaTime": 1, "channel": 2, "type": "channel", "noteNumber": 52, "velocity": 56, "subtype": "noteOn"  },
      { "deltaTime": 239, "channel": 2, "type": "channel", "subtype": "noteOff", "noteNumber": 52, "velocity": 0  },
      { "deltaTime": 241, "channel": 2, "type": "channel", "noteNumber": 64, "velocity": 56, "subtype": "noteOn"  },
      { "deltaTime": 239, "channel": 2, "type": "channel", "subtype": "noteOff", "noteNumber": 64, "velocity": 0  },
      { "deltaTime": 1, "channel": 2, "type": "channel", "noteNumber": 52, "velocity": 56, "subtype": "noteOn"  },
      { "deltaTime": 239, "channel": 2, "type": "channel", "subtype": "noteOff", "noteNumber": 52, "velocity": 0  },
      { "deltaTime": 241, "channel": 2, "type": "channel", "noteNumber": 64, "velocity": 56, "subtype": "noteOn"  },
      { "deltaTime": 239, "channel": 2, "type": "channel", "subtype": "noteOff", "noteNumber": 64, "velocity": 0  },
      { "deltaTime": 1, "channel": 2, "type": "channel", "noteNumber": 52, "velocity": 56, "subtype": "noteOn"  },
      { "deltaTime": 239, "channel": 2, "type": "channel", "subtype": "noteOff", "noteNumber": 52, "velocity": 0  },
      { "deltaTime": 241, "channel": 2, "type": "channel", "noteNumber": 64, "velocity": 56, "subtype": "noteOn"  },
      { "deltaTime": 239, "channel": 2, "type": "channel", "subtype": "noteOff", "noteNumber": 64, "velocity": 0  },
      { "deltaTime": 1, "channel": 2, "type": "channel", "noteNumber": 52, "velocity": 56, "subtype": "noteOn"  },
      { "deltaTime": 239, "channel": 2, "type": "channel", "subtype": "noteOff", "noteNumber": 52, "velocity": 0  },
      { "deltaTime": 241, "channel": 2, "type": "channel", "noteNumber": 64, "velocity": 56, "subtype": "noteOn"  },
      { "deltaTime": 239, "channel": 2, "type": "channel", "subtype": "noteOff", "noteNumber": 64, "velocity": 0  },
      { "deltaTime": 1, "channel": 2, "type": "channel", "noteNumber": 52, "velocity": 56, "subtype": "noteOn"  },
      { "deltaTime": 239, "channel": 2, "type": "channel", "subtype": "noteOff", "noteNumber": 52, "velocity": 0  },
      { "deltaTime": 241, "channel": 2, "type": "channel", "noteNumber": 64, "velocity": 56, "subtype": "noteOn"  },
      { "deltaTime": 239, "channel": 2, "type": "channel", "subtype": "noteOff", "noteNumber": 64, "velocity": 0  },
      { "deltaTime": 1, "channel": 2, "type": "channel", "noteNumber": 52, "velocity": 56, "subtype": "noteOn"  },
      { "deltaTime": 239, "channel": 2, "type": "channel", "subtype": "noteOff", "noteNumber": 52, "velocity": 0  },
      { "deltaTime": 241, "channel": 2, "type": "channel", "noteNumber": 64, "velocity": 56, "subtype": "noteOn"  },
      { "deltaTime": 239, "channel": 2, "type": "channel", "subtype": "noteOff", "noteNumber": 64, "velocity": 0  },
      { "deltaTime": 1, "channel": 2, "type": "channel", "noteNumber": 52, "velocity": 56, "subtype": "noteOn"  },
      { "deltaTime": 239, "channel": 2, "type": "channel", "subtype": "noteOff", "noteNumber": 52, "velocity": 0  },
      { "deltaTime": 241, "channel": 2, "type": "channel", "noteNumber": 64, "velocity": 56, "subtype": "noteOn"  },
      { "deltaTime": 239, "channel": 2, "type": "channel", "subtype": "noteOff", "noteNumber": 64, "velocity": 0  },
      { "deltaTime": 1, "channel": 2, "type": "channel", "noteNumber": 52, "velocity": 56, "subtype": "noteOn"  },
      { "deltaTime": 239, "channel": 2, "type": "channel", "subtype": "noteOff", "noteNumber": 52, "velocity": 0  },
      { "deltaTime": 241, "channel": 2, "type": "channel", "noteNumber": 64, "velocity": 56, "subtype": "noteOn"  },
      { "deltaTime": 239, "channel": 2, "type": "channel", "subtype": "noteOff", "noteNumber": 64, "velocity": 0  },
      { "deltaTime": 1, "channel": 2, "type": "channel", "noteNumber": 52, "velocity": 56, "subtype": "noteOn"  },
      { "deltaTime": 239, "channel": 2, "type": "channel", "subtype": "noteOff", "noteNumber": 52, "velocity": 0  },
      { "deltaTime": 241, "channel": 2, "type": "channel", "noteNumber": 64, "velocity": 56, "subtype": "noteOn"  },
      { "deltaTime": 239, "channel": 2, "type": "channel", "subtype": "noteOff", "noteNumber": 64, "velocity": 0  },
      { "deltaTime": 1, "channel": 2, "type": "channel", "noteNumber": 52, "velocity": 56, "subtype": "noteOn"  },
      { "deltaTime": 239, "channel": 2, "type": "channel", "subtype": "noteOff", "noteNumber": 52, "velocity": 0  },
      { "deltaTime": 241, "channel": 2, "type": "channel", "noteNumber": 64, "velocity": 56, "subtype": "noteOn"  },
      { "deltaTime": 239, "channel": 2, "type": "channel", "subtype": "noteOff", "noteNumber": 64, "velocity": 0  },
      { "deltaTime": 1, "channel": 2, "type": "channel", "noteNumber": 52, "velocity": 56, "subtype": "noteOn"  },
      { "deltaTime": 239, "channel": 2, "type": "channel", "subtype": "noteOff", "noteNumber": 52, "velocity": 0  },
      { "deltaTime": 241, "channel": 2, "type": "channel", "noteNumber": 64, "velocity": 56, "subtype": "noteOn"  },
      { "deltaTime": 239, "channel": 2, "type": "channel", "subtype": "noteOff", "noteNumber": 64, "velocity": 0  },
      { "deltaTime": 1, "channel": 2, "type": "channel", "noteNumber": 52, "velocity": 56, "subtype": "noteOn"  },
      { "deltaTime": 239, "channel": 2, "type": "channel", "subtype": "noteOff", "noteNumber": 52, "velocity": 0  },
      { "deltaTime": 241, "channel": 2, "type": "channel", "noteNumber": 64, "velocity": 56, "subtype": "noteOn"  },
      { "deltaTime": 239, "channel": 2, "type": "channel", "subtype": "noteOff", "noteNumber": 64, "velocity": 0  },
      { "deltaTime": 1, "channel": 2, "type": "channel", "noteNumber": 52, "velocity": 56, "subtype": "noteOn"  },
      { "deltaTime": 239, "channel": 2, "type": "channel", "subtype": "noteOff", "noteNumber": 52, "velocity": 0  },
      { "deltaTime": 241, "channel": 2, "type": "channel", "noteNumber": 64, "velocity": 56, "subtype": "noteOn"  },
      { "deltaTime": 239, "channel": 2, "type": "channel", "subtype": "noteOff", "noteNumber": 64, "velocity": 0  },
      { "deltaTime": 1, "channel": 2, "type": "channel", "noteNumber": 52, "velocity": 56, "subtype": "noteOn"  },
      { "deltaTime": 239, "channel": 2, "type": "channel", "subtype": "noteOff", "noteNumber": 52, "velocity": 0  },
      { "deltaTime": 241, "channel": 2, "type": "channel", "noteNumber": 64, "velocity": 56, "subtype": "noteOn"  },
      { "deltaTime": 239, "channel": 2, "type": "channel", "subtype": "noteOff", "noteNumber": 64, "velocity": 0  },
      { "deltaTime": 1, "channel": 2, "type": "channel", "noteNumber": 52, "velocity": 56, "subtype": "noteOn"  },
      { "deltaTime": 239, "channel": 2, "type": "channel", "subtype": "noteOff", "noteNumber": 52, "velocity": 0  },
      { "deltaTime": 241, "channel": 2, "type": "channel", "noteNumber": 64, "velocity": 56, "subtype": "noteOn"  },
      { "deltaTime": 239, "channel": 2, "type": "channel", "subtype": "noteOff", "noteNumber": 64, "velocity": 0  },
      { "deltaTime": 1, "channel": 2, "type": "channel", "noteNumber": 52, "velocity": 56, "subtype": "noteOn"  },
      { "deltaTime": 239, "channel": 2, "type": "channel", "subtype": "noteOff", "noteNumber": 52, "velocity": 0  },
      { "deltaTime": 1, "channel": 2, "type": "channel", "noteNumber": 52, "velocity": 56, "subtype": "noteOn"  },
      { "deltaTime": 239, "channel": 2, "type": "channel", "subtype": "noteOff", "noteNumber": 52, "velocity": 0  },
      { "deltaTime": 1, "channel": 2, "type": "channel", "noteNumber": 52, "velocity": 56, "subtype": "noteOn"  },
      { "deltaTime": 239, "channel": 2, "type": "channel", "subtype": "noteOff", "noteNumber": 52, "velocity": 0  },
      { "deltaTime": 1, "channel": 2, "type": "channel", "noteNumber": 52, "velocity": 56, "subtype": "noteOn"  },
      { "deltaTime": 239, "channel": 2, "type": "channel", "subtype": "noteOff", "noteNumber": 52, "velocity": 0  },
      { "deltaTime": 481, "channel": 2, "type": "channel", "noteNumber": 52, "velocity": 56, "subtype": "noteOn"  },
      { "deltaTime": 239, "channel": 2, "type": "channel", "subtype": "noteOff", "noteNumber": 52, "velocity": 0  },
      { "deltaTime": 481, "channel": 2, "type": "channel", "noteNumber": 52, "velocity": 56, "subtype": "noteOn"  },
      { "deltaTime": 239, "channel": 2, "type": "channel", "subtype": "noteOff", "noteNumber": 52, "velocity": 0  },
      { "deltaTime": 481, "channel": 2, "type": "channel", "noteNumber": 52, "velocity": 56, "subtype": "noteOn"  },
      { "deltaTime": 239, "channel": 2, "type": "channel", "subtype": "noteOff", "noteNumber": 52, "velocity": 0  },
      { "deltaTime": 481, "channel": 2, "type": "channel", "noteNumber": 52, "velocity": 56, "subtype": "noteOn"  },
      { "deltaTime": 239, "channel": 2, "type": "channel", "subtype": "noteOff", "noteNumber": 52, "velocity": 0  },
      { "deltaTime": 481, "channel": 2, "type": "channel", "noteNumber": 52, "velocity": 56, "subtype": "noteOn"  },
      { "deltaTime": 239, "channel": 2, "type": "channel", "subtype": "noteOff", "noteNumber": 52, "velocity": 0  },
      { "deltaTime": 481, "channel": 2, "type": "channel", "noteNumber": 52, "velocity": 56, "subtype": "noteOn"  },
      { "deltaTime": 239, "channel": 2, "type": "channel", "subtype": "noteOff", "noteNumber": 52, "velocity": 0  },
      { "deltaTime": 481, "channel": 2, "type": "channel", "noteNumber": 52, "velocity": 56, "subtype": "noteOn"  },
      { "deltaTime": 239, "channel": 2, "type": "channel", "subtype": "noteOff", "noteNumber": 52, "velocity": 0  },
      { "deltaTime": 481, "channel": 2, "type": "channel", "noteNumber": 52, "velocity": 56, "subtype": "noteOn"  },
      { "deltaTime": 239, "channel": 2, "type": "channel", "subtype": "noteOff", "noteNumber": 52, "velocity": 0  },
      { "deltaTime": 481, "channel": 2, "type": "channel", "noteNumber": 52, "velocity": 56, "subtype": "noteOn"  },
      { "deltaTime": 239, "channel": 2, "type": "channel", "subtype": "noteOff", "noteNumber": 52, "velocity": 0  },
      { "deltaTime": 241, "channel": 2, "type": "channel", "noteNumber": 52, "velocity": 56, "subtype": "noteOn"  },
      { "deltaTime": 239, "channel": 2, "type": "channel", "subtype": "noteOff", "noteNumber": 52, "velocity": 0  },
      { "deltaTime": 241, "channel": 2, "type": "channel", "noteNumber": 52, "velocity": 56, "subtype": "noteOn"  },
      { "deltaTime": 239, "channel": 2, "type": "channel", "subtype": "noteOff", "noteNumber": 52, "velocity": 0  },
      { "deltaTime": 481, "channel": 2, "type": "channel", "noteNumber": 52, "velocity": 56, "subtype": "noteOn"  },
      { "deltaTime": 239, "channel": 2, "type": "channel", "subtype": "noteOff", "noteNumber": 52, "velocity": 0  },
      { "deltaTime": 481, "channel": 2, "type": "channel", "noteNumber": 52, "velocity": 56, "subtype": "noteOn"  },
      { "deltaTime": 239, "channel": 2, "type": "channel", "subtype": "noteOff", "noteNumber": 52, "velocity": 0  },
      { "deltaTime": 481, "channel": 2, "type": "channel", "noteNumber": 52, "velocity": 56, "subtype": "noteOn"  },
      { "deltaTime": 239, "channel": 2, "type": "channel", "subtype": "noteOff", "noteNumber": 52, "velocity": 0  },
      { "deltaTime": 481, "channel": 2, "type": "channel", "noteNumber": 52, "velocity": 56, "subtype": "noteOn"  },
      { "deltaTime": 239, "channel": 2, "type": "channel", "subtype": "noteOff", "noteNumber": 52, "velocity": 0  },
      { "deltaTime": 481, "channel": 2, "type": "channel", "noteNumber": 52, "velocity": 56, "subtype": "noteOn"  },
      { "deltaTime": 239, "channel": 2, "type": "channel", "subtype": "noteOff", "noteNumber": 52, "velocity": 0  },
      { "deltaTime": 481, "channel": 2, "type": "channel", "noteNumber": 52, "velocity": 56, "subtype": "noteOn"  },
      { "deltaTime": 239, "channel": 2, "type": "channel", "subtype": "noteOff", "noteNumber": 52, "velocity": 0  },
      { "deltaTime": 481, "channel": 2, "type": "channel", "noteNumber": 52, "velocity": 56, "subtype": "noteOn"  },
      { "deltaTime": 239, "channel": 2, "type": "channel", "subtype": "noteOff", "noteNumber": 52, "velocity": 0  },
      { "deltaTime": 481, "channel": 2, "type": "channel", "noteNumber": 52, "velocity": 56, "subtype": "noteOn"  },
      { "deltaTime": 239, "channel": 2, "type": "channel", "subtype": "noteOff", "noteNumber": 52, "velocity": 0  },
      { "deltaTime": 241, "channel": 2, "type": "channel", "noteNumber": 52, "velocity": 56, "subtype": "noteOn"  },
      { "deltaTime": 239, "channel": 2, "type": "channel", "subtype": "noteOff", "noteNumber": 52, "velocity": 0  },
      { "deltaTime": 241, "channel": 2, "type": "channel", "noteNumber": 52, "velocity": 56, "subtype": "noteOn"  },
      { "deltaTime": 239, "channel": 2, "type": "channel", "subtype": "noteOff", "noteNumber": 52, "velocity": 0  },
      { "deltaTime": 481, "channel": 2, "type": "channel", "noteNumber": 52, "velocity": 56, "subtype": "noteOn"  },
      { "deltaTime": 239, "channel": 2, "type": "channel", "subtype": "noteOff", "noteNumber": 52, "velocity": 0  },
      { "deltaTime": 481, "channel": 2, "type": "channel", "noteNumber": 52, "velocity": 56, "subtype": "noteOn"  },
      { "deltaTime": 239, "channel": 2, "type": "channel", "subtype": "noteOff", "noteNumber": 52, "velocity": 0  },
      { "deltaTime": 481, "channel": 2, "type": "channel", "noteNumber": 52, "velocity": 56, "subtype": "noteOn"  },
      { "deltaTime": 239, "channel": 2, "type": "channel", "subtype": "noteOff", "noteNumber": 52, "velocity": 0  },
      { "deltaTime": 481, "channel": 2, "type": "channel", "noteNumber": 52, "velocity": 56, "subtype": "noteOn"  },
      { "deltaTime": 239, "channel": 2, "type": "channel", "subtype": "noteOff", "noteNumber": 52, "velocity": 0  },
      { "deltaTime": 481, "channel": 2, "type": "channel", "noteNumber": 52, "velocity": 56, "subtype": "noteOn"  },
      { "deltaTime": 239, "channel": 2, "type": "channel", "subtype": "noteOff", "noteNumber": 52, "velocity": 0  },
      { "deltaTime": 481, "channel": 2, "type": "channel", "noteNumber": 52, "velocity": 56, "subtype": "noteOn"  },
      { "deltaTime": 239, "channel": 2, "type": "channel", "subtype": "noteOff", "noteNumber": 52, "velocity": 0  },
      { "deltaTime": 481, "channel": 2, "type": "channel", "noteNumber": 52, "velocity": 56, "subtype": "noteOn"  },
      { "deltaTime": 239, "channel": 2, "type": "channel", "subtype": "noteOff", "noteNumber": 52, "velocity": 0  },
      { "deltaTime": 481, "channel": 2, "type": "channel", "noteNumber": 52, "velocity": 56, "subtype": "noteOn"  },
      { "deltaTime": 239, "channel": 2, "type": "channel", "subtype": "noteOff", "noteNumber": 52, "velocity": 0  },
      { "deltaTime": 241, "channel": 2, "type": "channel", "noteNumber": 52, "velocity": 56, "subtype": "noteOn"  },
      { "deltaTime": 239, "channel": 2, "type": "channel", "subtype": "noteOff", "noteNumber": 52, "velocity": 0  },
      { "deltaTime": 241, "channel": 2, "type": "channel", "noteNumber": 52, "velocity": 56, "subtype": "noteOn"  },
      { "deltaTime": 239, "channel": 2, "type": "channel", "subtype": "noteOff", "noteNumber": 52, "velocity": 0  },
      { "deltaTime": 481, "channel": 2, "type": "channel", "noteNumber": 52, "velocity": 56, "subtype": "noteOn"  },
      { "deltaTime": 239, "channel": 2, "type": "channel", "subtype": "noteOff", "noteNumber": 52, "velocity": 0  },
      { "deltaTime": 481, "channel": 2, "type": "channel", "noteNumber": 52, "velocity": 56, "subtype": "noteOn"  },
      { "deltaTime": 239, "channel": 2, "type": "channel", "subtype": "noteOff", "noteNumber": 52, "velocity": 0  },
      { "deltaTime": 481, "channel": 2, "type": "channel", "noteNumber": 52, "velocity": 56, "subtype": "noteOn"  },
      { "deltaTime": 239, "channel": 2, "type": "channel", "subtype": "noteOff", "noteNumber": 52, "velocity": 0  },
      { "deltaTime": 481, "channel": 2, "type": "channel", "noteNumber": 52, "velocity": 56, "subtype": "noteOn"  },
      { "deltaTime": 239, "channel": 2, "type": "channel", "subtype": "noteOff", "noteNumber": 52, "velocity": 0  },
      { "deltaTime": 481, "channel": 2, "type": "channel", "noteNumber": 52, "velocity": 56, "subtype": "noteOn"  },
      { "deltaTime": 239, "channel": 2, "type": "channel", "subtype": "noteOff", "noteNumber": 52, "velocity": 0  },
      { "deltaTime": 481, "channel": 2, "type": "channel", "noteNumber": 52, "velocity": 56, "subtype": "noteOn"  },
      { "deltaTime": 239, "channel": 2, "type": "channel", "subtype": "noteOff", "noteNumber": 52, "velocity": 0  },
      { "deltaTime": 481, "channel": 2, "type": "channel", "noteNumber": 52, "velocity": 56, "subtype": "noteOn"  },
      { "deltaTime": 239, "channel": 2, "type": "channel", "subtype": "noteOff", "noteNumber": 52, "velocity": 0  },
      { "deltaTime": 481, "channel": 2, "type": "channel", "noteNumber": 52, "velocity": 56, "subtype": "noteOn"  },
      { "deltaTime": 239, "channel": 2, "type": "channel", "subtype": "noteOff", "noteNumber": 52, "velocity": 0  },
      { "deltaTime": 241, "channel": 2, "type": "channel", "noteNumber": 52, "velocity": 56, "subtype": "noteOn"  },
      { "deltaTime": 239, "channel": 2, "type": "channel", "subtype": "noteOff", "noteNumber": 52, "velocity": 0  },
      { "deltaTime": 6961, "channel": 2, "type": "channel", "noteNumber": 52, "velocity": 56, "subtype": "noteOn"  },
      { "deltaTime": 239, "channel": 2, "type": "channel", "subtype": "noteOff", "noteNumber": 52, "velocity": 0  },
      { "deltaTime": 481, "channel": 2, "type": "channel", "noteNumber": 52, "velocity": 56, "subtype": "noteOn"  },
      { "deltaTime": 239, "channel": 2, "type": "channel", "subtype": "noteOff", "noteNumber": 52, "velocity": 0  },
      { "deltaTime": 481, "channel": 2, "type": "channel", "noteNumber": 52, "velocity": 56, "subtype": "noteOn"  },
      { "deltaTime": 239, "channel": 2, "type": "channel", "subtype": "noteOff", "noteNumber": 52, "velocity": 0  },
      { "deltaTime": 481, "channel": 2, "type": "channel", "noteNumber": 52, "velocity": 56, "subtype": "noteOn"  },
      { "deltaTime": 239, "channel": 2, "type": "channel", "subtype": "noteOff", "noteNumber": 52, "velocity": 0  },
      { "deltaTime": 481, "channel": 2, "type": "channel", "noteNumber": 52, "velocity": 56, "subtype": "noteOn"  },
      { "deltaTime": 239, "channel": 2, "type": "channel", "subtype": "noteOff", "noteNumber": 52, "velocity": 0  },
      { "deltaTime": 481, "channel": 2, "type": "channel", "noteNumber": 52, "velocity": 56, "subtype": "noteOn"  },
      { "deltaTime": 239, "channel": 2, "type": "channel", "subtype": "noteOff", "noteNumber": 52, "velocity": 0  },
      { "deltaTime": 481, "channel": 2, "type": "channel", "noteNumber": 52, "velocity": 56, "subtype": "noteOn"  },
      { "deltaTime": 239, "channel": 2, "type": "channel", "subtype": "noteOff", "noteNumber": 52, "velocity": 0  },
      { "deltaTime": 481, "channel": 2, "type": "channel", "noteNumber": 52, "velocity": 56, "subtype": "noteOn"  },
      { "deltaTime": 239, "channel": 2, "type": "channel", "subtype": "noteOff", "noteNumber": 52, "velocity": 0  },
      { "deltaTime": 481, "channel": 2, "type": "channel", "noteNumber": 52, "velocity": 56, "subtype": "noteOn"  },
      { "deltaTime": 239, "channel": 2, "type": "channel", "subtype": "noteOff", "noteNumber": 52, "velocity": 0  },
      { "deltaTime": 241, "channel": 2, "type": "channel", "noteNumber": 52, "velocity": 56, "subtype": "noteOn"  },
      { "deltaTime": 239, "channel": 2, "type": "channel", "subtype": "noteOff", "noteNumber": 52, "velocity": 0  },
      { "deltaTime": 241, "channel": 2, "type": "channel", "noteNumber": 52, "velocity": 56, "subtype": "noteOn"  },
      { "deltaTime": 239, "channel": 2, "type": "channel", "subtype": "noteOff", "noteNumber": 52, "velocity": 0  },
      { "deltaTime": 481, "channel": 2, "type": "channel", "noteNumber": 52, "velocity": 56, "subtype": "noteOn"  },
      { "deltaTime": 239, "channel": 2, "type": "channel", "subtype": "noteOff", "noteNumber": 52, "velocity": 0  },
      { "deltaTime": 481, "channel": 2, "type": "channel", "noteNumber": 52, "velocity": 56, "subtype": "noteOn"  },
      { "deltaTime": 239, "channel": 2, "type": "channel", "subtype": "noteOff", "noteNumber": 52, "velocity": 0  },
      { "deltaTime": 481, "channel": 2, "type": "channel", "noteNumber": 52, "velocity": 56, "subtype": "noteOn"  },
      { "deltaTime": 239, "channel": 2, "type": "channel", "subtype": "noteOff", "noteNumber": 52, "velocity": 0  },
      { "deltaTime": 481, "channel": 2, "type": "channel", "noteNumber": 52, "velocity": 56, "subtype": "noteOn"  },
      { "deltaTime": 239, "channel": 2, "type": "channel", "subtype": "noteOff", "noteNumber": 52, "velocity": 0  },
      { "deltaTime": 481, "channel": 2, "type": "channel", "noteNumber": 52, "velocity": 56, "subtype": "noteOn"  },
      { "deltaTime": 239, "channel": 2, "type": "channel", "subtype": "noteOff", "noteNumber": 52, "velocity": 0  },
      { "deltaTime": 481, "channel": 2, "type": "channel", "noteNumber": 52, "velocity": 56, "subtype": "noteOn"  },
      { "deltaTime": 239, "channel": 2, "type": "channel", "subtype": "noteOff", "noteNumber": 52, "velocity": 0  },
      { "deltaTime": 481, "channel": 2, "type": "channel", "noteNumber": 52, "velocity": 56, "subtype": "noteOn"  },
      { "deltaTime": 239, "channel": 2, "type": "channel", "subtype": "noteOff", "noteNumber": 52, "velocity": 0  },
      { "deltaTime": 481, "channel": 2, "type": "channel", "noteNumber": 52, "velocity": 56, "subtype": "noteOn"  },
      { "deltaTime": 239, "channel": 2, "type": "channel", "subtype": "noteOff", "noteNumber": 52, "velocity": 0  },
      { "deltaTime": 241, "channel": 2, "type": "channel", "noteNumber": 52, "velocity": 56, "subtype": "noteOn"  },
      { "deltaTime": 239, "channel": 2, "type": "channel", "subtype": "noteOff", "noteNumber": 52, "velocity": 0  },
      { "deltaTime": 241, "channel": 2, "type": "channel", "noteNumber": 52, "velocity": 56, "subtype": "noteOn"  },
      { "deltaTime": 239, "channel": 2, "type": "channel", "subtype": "noteOff", "noteNumber": 52, "velocity": 0  },
      { "deltaTime": 481, "channel": 2, "type": "channel", "noteNumber": 52, "velocity": 56, "subtype": "noteOn"  },
      { "deltaTime": 239, "channel": 2, "type": "channel", "subtype": "noteOff", "noteNumber": 52, "velocity": 0  },
      { "deltaTime": 481, "channel": 2, "type": "channel", "noteNumber": 52, "velocity": 56, "subtype": "noteOn"  },
      { "deltaTime": 239, "channel": 2, "type": "channel", "subtype": "noteOff", "noteNumber": 52, "velocity": 0  },
      { "deltaTime": 481, "channel": 2, "type": "channel", "noteNumber": 52, "velocity": 56, "subtype": "noteOn"  },
      { "deltaTime": 239, "channel": 2, "type": "channel", "subtype": "noteOff", "noteNumber": 52, "velocity": 0  },
      { "deltaTime": 481, "channel": 2, "type": "channel", "noteNumber": 52, "velocity": 56, "subtype": "noteOn"  },
      { "deltaTime": 239, "channel": 2, "type": "channel", "subtype": "noteOff", "noteNumber": 52, "velocity": 0  },
      { "deltaTime": 481, "channel": 2, "type": "channel", "noteNumber": 52, "velocity": 56, "subtype": "noteOn"  },
      { "deltaTime": 239, "channel": 2, "type": "channel", "subtype": "noteOff", "noteNumber": 52, "velocity": 0  },
      { "deltaTime": 481, "channel": 2, "type": "channel", "noteNumber": 52, "velocity": 56, "subtype": "noteOn"  },
      { "deltaTime": 239, "channel": 2, "type": "channel", "subtype": "noteOff", "noteNumber": 52, "velocity": 0  },
      { "deltaTime": 481, "channel": 2, "type": "channel", "noteNumber": 52, "velocity": 56, "subtype": "noteOn"  },
      { "deltaTime": 239, "channel": 2, "type": "channel", "subtype": "noteOff", "noteNumber": 52, "velocity": 0  },
      { "deltaTime": 481, "channel": 2, "type": "channel", "noteNumber": 52, "velocity": 56, "subtype": "noteOn"  },
      { "deltaTime": 239, "channel": 2, "type": "channel", "subtype": "noteOff", "noteNumber": 52, "velocity": 0  },
      { "deltaTime": 241, "channel": 2, "type": "channel", "noteNumber": 52, "velocity": 56, "subtype": "noteOn"  },
      { "deltaTime": 239, "channel": 2, "type": "channel", "subtype": "noteOff", "noteNumber": 52, "velocity": 0  },
      { "deltaTime": 5521, "channel": 2, "type": "channel", "noteNumber": 61, "velocity": 56, "subtype": "noteOn"  },
      { "deltaTime": 239, "channel": 2, "type": "channel", "subtype": "noteOff", "noteNumber": 61, "velocity": 0  },
      { "deltaTime": 1, "channel": 2, "type": "channel", "noteNumber": 52, "velocity": 56, "subtype": "noteOn"  },
      { "deltaTime": 239, "channel": 2, "type": "channel", "subtype": "noteOff", "noteNumber": 52, "velocity": 0  },
      { "deltaTime": 1, "channel": 2, "type": "channel", "noteNumber": 62, "velocity": 56, "subtype": "noteOn"  },
      { "deltaTime": 239, "channel": 2, "type": "channel", "subtype": "noteOff", "noteNumber": 62, "velocity": 0  },
      { "deltaTime": 1, "channel": 2, "type": "channel", "noteNumber": 52, "velocity": 56, "subtype": "noteOn"  },
      { "deltaTime": 239, "channel": 2, "type": "channel", "subtype": "noteOff", "noteNumber": 52, "velocity": 0  },
      { "deltaTime": 1, "channel": 2, "type": "channel", "noteNumber": 61, "velocity": 56, "subtype": "noteOn"  },
      { "deltaTime": 239, "channel": 2, "type": "channel", "subtype": "noteOff", "noteNumber": 61, "velocity": 0  },
      { "deltaTime": 1, "channel": 2, "type": "channel", "noteNumber": 52, "velocity": 56, "subtype": "noteOn"  },
      { "deltaTime": 239, "channel": 2, "type": "channel", "subtype": "noteOff", "noteNumber": 52, "velocity": 0  },
      { "deltaTime": 1, "channel": 2, "type": "channel", "noteNumber": 62, "velocity": 56, "subtype": "noteOn"  },
      { "deltaTime": 239, "channel": 2, "type": "channel", "subtype": "noteOff", "noteNumber": 62, "velocity": 0  },
      { "deltaTime": 1, "channel": 2, "type": "channel", "noteNumber": 64, "velocity": 56, "subtype": "noteOn"  },
      { "deltaTime": 239, "channel": 2, "type": "channel", "subtype": "noteOff", "noteNumber": 64, "velocity": 0  },
      { "deltaTime": 1, "channel": 2, "type": "channel", "noteNumber": 52, "velocity": 56, "subtype": "noteOn"  },
      { "deltaTime": 239, "channel": 2, "type": "channel", "subtype": "noteOff", "noteNumber": 52, "velocity": 0  },
      { "deltaTime": 1, "channel": 2, "type": "channel", "noteNumber": 64, "velocity": 56, "subtype": "noteOn"  },
      { "deltaTime": 239, "channel": 2, "type": "channel", "subtype": "noteOff", "noteNumber": 64, "velocity": 0  },
      { "deltaTime": 4321, "channel": 2, "type": "channel", "noteNumber": 61, "velocity": 56, "subtype": "noteOn"  },
      { "deltaTime": 239, "channel": 2, "type": "channel", "subtype": "noteOff", "noteNumber": 61, "velocity": 0  },
      { "deltaTime": 241, "channel": 2, "type": "channel", "noteNumber": 62, "velocity": 56, "subtype": "noteOn"  },
      { "deltaTime": 239, "channel": 2, "type": "channel", "subtype": "noteOff", "noteNumber": 62, "velocity": 0  },
      { "deltaTime": 241, "channel": 2, "type": "channel", "noteNumber": 61, "velocity": 56, "subtype": "noteOn"  },
      { "deltaTime": 239, "channel": 2, "type": "channel", "subtype": "noteOff", "noteNumber": 61, "velocity": 0  },
      { "deltaTime": 241, "channel": 2, "type": "channel", "noteNumber": 62, "velocity": 56, "subtype": "noteOn"  },
      { "deltaTime": 239, "channel": 2, "type": "channel", "subtype": "noteOff", "noteNumber": 62, "velocity": 0  },
      { "deltaTime": 1, "channel": 2, "type": "channel", "noteNumber": 61, "velocity": 56, "subtype": "noteOn"  },
      { "deltaTime": 239, "channel": 2, "type": "channel", "subtype": "noteOff", "noteNumber": 61, "velocity": 0  },
      { "deltaTime": 241, "channel": 2, "type": "channel", "noteNumber": 59, "velocity": 56, "subtype": "noteOn"  },
      { "deltaTime": 239, "channel": 2, "type": "channel", "subtype": "noteOff", "noteNumber": 59, "velocity": 0  },
      { "deltaTime": 481, "channel": 2, "type": "channel", "noteNumber": 55, "velocity": 56, "subtype": "noteOn"  },
      { "deltaTime": 239, "channel": 2, "type": "channel", "subtype": "noteOff", "noteNumber": 55, "velocity": 0  },
      { "deltaTime": 1, "channel": 2, "type": "channel", "noteNumber": 52, "velocity": 56, "subtype": "noteOn"  },
      { "deltaTime": 239, "channel": 2, "type": "channel", "subtype": "noteOff", "noteNumber": 52, "velocity": 0  },
      { "deltaTime": 3361, "channel": 2, "type": "channel", "noteNumber": 61, "velocity": 56, "subtype": "noteOn"  },
      { "deltaTime": 239, "channel": 2, "type": "channel", "subtype": "noteOff", "noteNumber": 61, "velocity": 0  },
      { "deltaTime": 1, "channel": 2, "type": "channel", "noteNumber": 52, "velocity": 56, "subtype": "noteOn"  },
      { "deltaTime": 239, "channel": 2, "type": "channel", "subtype": "noteOff", "noteNumber": 52, "velocity": 0  },
      { "deltaTime": 1, "channel": 2, "type": "channel", "noteNumber": 62, "velocity": 56, "subtype": "noteOn"  },
      { "deltaTime": 239, "channel": 2, "type": "channel", "subtype": "noteOff", "noteNumber": 62, "velocity": 0  },
      { "deltaTime": 1, "channel": 2, "type": "channel", "noteNumber": 52, "velocity": 56, "subtype": "noteOn"  },
      { "deltaTime": 239, "channel": 2, "type": "channel", "subtype": "noteOff", "noteNumber": 52, "velocity": 0  },
      { "deltaTime": 1, "channel": 2, "type": "channel", "noteNumber": 61, "velocity": 56, "subtype": "noteOn"  },
      { "deltaTime": 239, "channel": 2, "type": "channel", "subtype": "noteOff", "noteNumber": 61, "velocity": 0  },
      { "deltaTime": 1, "channel": 2, "type": "channel", "noteNumber": 52, "velocity": 56, "subtype": "noteOn"  },
      { "deltaTime": 239, "channel": 2, "type": "channel", "subtype": "noteOff", "noteNumber": 52, "velocity": 0  },
      { "deltaTime": 1, "channel": 2, "type": "channel", "noteNumber": 62, "velocity": 56, "subtype": "noteOn"  },
      { "deltaTime": 239, "channel": 2, "type": "channel", "subtype": "noteOff", "noteNumber": 62, "velocity": 0  },
      { "deltaTime": 1, "channel": 2, "type": "channel", "noteNumber": 64, "velocity": 56, "subtype": "noteOn"  },
      { "deltaTime": 239, "channel": 2, "type": "channel", "subtype": "noteOff", "noteNumber": 64, "velocity": 0  },
      { "deltaTime": 1, "channel": 2, "type": "channel", "noteNumber": 52, "velocity": 56, "subtype": "noteOn"  },
      { "deltaTime": 239, "channel": 2, "type": "channel", "subtype": "noteOff", "noteNumber": 52, "velocity": 0  },
      { "deltaTime": 1, "channel": 2, "type": "channel", "noteNumber": 64, "velocity": 56, "subtype": "noteOn"  },
      { "deltaTime": 239, "channel": 2, "type": "channel", "subtype": "noteOff", "noteNumber": 64, "velocity": 0  },
      { "deltaTime": 24481, "channel": 2, "type": "channel", "noteNumber": 61, "velocity": 56, "subtype": "noteOn"  },
      { "deltaTime": 239, "channel": 2, "type": "channel", "subtype": "noteOff", "noteNumber": 61, "velocity": 0  },
      { "deltaTime": 1, "channel": 2, "type": "channel", "noteNumber": 52, "velocity": 56, "subtype": "noteOn"  },
      { "deltaTime": 239, "channel": 2, "type": "channel", "subtype": "noteOff", "noteNumber": 52, "velocity": 0  },
      { "deltaTime": 1, "channel": 2, "type": "channel", "noteNumber": 62, "velocity": 56, "subtype": "noteOn"  },
      { "deltaTime": 239, "channel": 2, "type": "channel", "subtype": "noteOff", "noteNumber": 62, "velocity": 0  },
      { "deltaTime": 1, "channel": 2, "type": "channel", "noteNumber": 52, "velocity": 56, "subtype": "noteOn"  },
      { "deltaTime": 239, "channel": 2, "type": "channel", "subtype": "noteOff", "noteNumber": 52, "velocity": 0  },
      { "deltaTime": 1, "channel": 2, "type": "channel", "noteNumber": 61, "velocity": 56, "subtype": "noteOn"  },
      { "deltaTime": 239, "channel": 2, "type": "channel", "subtype": "noteOff", "noteNumber": 61, "velocity": 0  },
      { "deltaTime": 1, "channel": 2, "type": "channel", "noteNumber": 52, "velocity": 56, "subtype": "noteOn"  },
      { "deltaTime": 239, "channel": 2, "type": "channel", "subtype": "noteOff", "noteNumber": 52, "velocity": 0  },
      { "deltaTime": 1, "channel": 2, "type": "channel", "noteNumber": 62, "velocity": 56, "subtype": "noteOn"  },
      { "deltaTime": 239, "channel": 2, "type": "channel", "subtype": "noteOff", "noteNumber": 62, "velocity": 0  },
      { "deltaTime": 1, "channel": 2, "type": "channel", "noteNumber": 64, "velocity": 56, "subtype": "noteOn"  },
      { "deltaTime": 239, "channel": 2, "type": "channel", "subtype": "noteOff", "noteNumber": 64, "velocity": 0  },
      { "deltaTime": 1, "channel": 2, "type": "channel", "noteNumber": 52, "velocity": 56, "subtype": "noteOn"  },
      { "deltaTime": 239, "channel": 2, "type": "channel", "subtype": "noteOff", "noteNumber": 52, "velocity": 0  },
      { "deltaTime": 1, "channel": 2, "type": "channel", "noteNumber": 64, "velocity": 56, "subtype": "noteOn"  },
      { "deltaTime": 239, "channel": 2, "type": "channel", "subtype": "noteOff", "noteNumber": 64, "velocity": 0  },
      { "deltaTime": 5761, "channel": 2, "type": "channel", "noteNumber": 64, "velocity": 56, "subtype": "noteOn"  },
      { "deltaTime": 239, "channel": 2, "type": "channel", "subtype": "noteOff", "noteNumber": 64, "velocity": 0  },
      { "deltaTime": 1, "channel": 2, "type": "channel", "noteNumber": 52, "velocity": 56, "subtype": "noteOn"  },
      { "deltaTime": 239, "channel": 2, "type": "channel", "subtype": "noteOff", "noteNumber": 52, "velocity": 0  },
      { "deltaTime": 241, "channel": 2, "type": "channel", "noteNumber": 52, "velocity": 56, "subtype": "noteOn"  },
      { "deltaTime": 239, "channel": 2, "type": "channel", "subtype": "noteOff", "noteNumber": 52, "velocity": 0  },
      { "deltaTime": 241, "channel": 2, "type": "channel", "noteNumber": 64, "velocity": 56, "subtype": "noteOn"  },
      { "deltaTime": 239, "channel": 2, "type": "channel", "subtype": "noteOff", "noteNumber": 64, "velocity": 0  },
      { "deltaTime": 241, "channel": 2, "type": "channel", "noteNumber": 52, "velocity": 56, "subtype": "noteOn"  },
      { "deltaTime": 239, "channel": 2, "type": "channel", "subtype": "noteOff", "noteNumber": 52, "velocity": 0  },
      { "deltaTime": 241, "channel": 2, "type": "channel", "noteNumber": 52, "velocity": 56, "subtype": "noteOn"  },
      { "deltaTime": 239, "channel": 2, "type": "channel", "subtype": "noteOff", "noteNumber": 52, "velocity": 0  },
      { "deltaTime": 481, "channel": 2, "type": "channel", "noteNumber": 64, "velocity": 56, "subtype": "noteOn"  },
      { "deltaTime": 239, "channel": 2, "type": "channel", "subtype": "noteOff", "noteNumber": 64, "velocity": 0  },
      { "deltaTime": 1, "channel": 2, "type": "channel", "noteNumber": 52, "velocity": 56, "subtype": "noteOn"  },
      { "deltaTime": 239, "channel": 2, "type": "channel", "subtype": "noteOff", "noteNumber": 52, "velocity": 0  },
      { "deltaTime": 481, "channel": 2, "type": "channel", "noteNumber": 64, "velocity": 56, "subtype": "noteOn"  },
      { "deltaTime": 239, "channel": 2, "type": "channel", "subtype": "noteOff", "noteNumber": 64, "velocity": 0  },
      { "deltaTime": 1, "channel": 2, "type": "channel", "noteNumber": 52, "velocity": 56, "subtype": "noteOn"  },
      { "deltaTime": 239, "channel": 2, "type": "channel", "subtype": "noteOff", "noteNumber": 52, "velocity": 0  },
      { "deltaTime": 241, "channel": 2, "type": "channel", "noteNumber": 52, "velocity": 56, "subtype": "noteOn"  },
      { "deltaTime": 239, "channel": 2, "type": "channel", "subtype": "noteOff", "noteNumber": 52, "velocity": 0  },
      { "deltaTime": 241, "channel": 2, "type": "channel", "noteNumber": 64, "velocity": 56, "subtype": "noteOn"  },
      { "deltaTime": 239, "channel": 2, "type": "channel", "subtype": "noteOff", "noteNumber": 64, "velocity": 0  },
      { "deltaTime": 241, "channel": 2, "type": "channel", "noteNumber": 52, "velocity": 56, "subtype": "noteOn"  },
      { "deltaTime": 239, "channel": 2, "type": "channel", "subtype": "noteOff", "noteNumber": 52, "velocity": 0  },
      { "deltaTime": 241, "channel": 2, "type": "channel", "noteNumber": 52, "velocity": 56, "subtype": "noteOn"  },
      { "deltaTime": 239, "channel": 2, "type": "channel", "subtype": "noteOff", "noteNumber": 52, "velocity": 0  },
      { "deltaTime": 481, "channel": 2, "type": "channel", "noteNumber": 64, "velocity": 56, "subtype": "noteOn"  },
      { "deltaTime": 239, "channel": 2, "type": "channel", "subtype": "noteOff", "noteNumber": 64, "velocity": 0  },
      { "deltaTime": 1, "channel": 2, "type": "channel", "noteNumber": 52, "velocity": 56, "subtype": "noteOn"  },
      { "deltaTime": 239, "channel": 2, "type": "channel", "subtype": "noteOff", "noteNumber": 52, "velocity": 0  },
      { "deltaTime": 241, "channel": 2, "type": "channel", "noteNumber": 52, "velocity": 56, "subtype": "noteOn"  },
      { "deltaTime": 239, "channel": 2, "type": "channel", "subtype": "noteOff", "noteNumber": 52, "velocity": 0  },
      { "deltaTime": 241, "channel": 2, "type": "channel", "noteNumber": 64, "velocity": 56, "subtype": "noteOn"  },
      { "deltaTime": 239, "channel": 2, "type": "channel", "subtype": "noteOff", "noteNumber": 64, "velocity": 0  },
      { "deltaTime": 241, "channel": 2, "type": "channel", "noteNumber": 52, "velocity": 56, "subtype": "noteOn"  },
      { "deltaTime": 239, "channel": 2, "type": "channel", "subtype": "noteOff", "noteNumber": 52, "velocity": 0  },
      { "deltaTime": 241, "channel": 2, "type": "channel", "noteNumber": 52, "velocity": 56, "subtype": "noteOn"  },
      { "deltaTime": 239, "channel": 2, "type": "channel", "subtype": "noteOff", "noteNumber": 52, "velocity": 0  },
      { "deltaTime": 481, "channel": 2, "type": "channel", "noteNumber": 64, "velocity": 56, "subtype": "noteOn"  },
      { "deltaTime": 239, "channel": 2, "type": "channel", "subtype": "noteOff", "noteNumber": 64, "velocity": 0  },
      { "deltaTime": 1, "channel": 2, "type": "channel", "noteNumber": 52, "velocity": 56, "subtype": "noteOn"  },
      { "deltaTime": 239, "channel": 2, "type": "channel", "subtype": "noteOff", "noteNumber": 52, "velocity": 0  },
      { "deltaTime": 481, "channel": 2, "type": "channel", "noteNumber": 64, "velocity": 56, "subtype": "noteOn"  },
      { "deltaTime": 239, "channel": 2, "type": "channel", "subtype": "noteOff", "noteNumber": 64, "velocity": 0  },
      { "deltaTime": 1, "channel": 2, "type": "channel", "noteNumber": 52, "velocity": 56, "subtype": "noteOn"  },
      { "deltaTime": 239, "channel": 2, "type": "channel", "subtype": "noteOff", "noteNumber": 52, "velocity": 0  },
      { "deltaTime": 241, "channel": 2, "type": "channel", "noteNumber": 52, "velocity": 56, "subtype": "noteOn"  },
      { "deltaTime": 239, "channel": 2, "type": "channel", "subtype": "noteOff", "noteNumber": 52, "velocity": 0  },
      { "deltaTime": 241, "channel": 2, "type": "channel", "noteNumber": 64, "velocity": 56, "subtype": "noteOn"  },
      { "deltaTime": 239, "channel": 2, "type": "channel", "subtype": "noteOff", "noteNumber": 64, "velocity": 0  },
      { "deltaTime": 241, "channel": 2, "type": "channel", "noteNumber": 52, "velocity": 56, "subtype": "noteOn"  },
      { "deltaTime": 239, "channel": 2, "type": "channel", "subtype": "noteOff", "noteNumber": 52, "velocity": 0  },
      { "deltaTime": 241, "channel": 2, "type": "channel", "noteNumber": 52, "velocity": 56, "subtype": "noteOn"  },
      { "deltaTime": 239, "channel": 2, "type": "channel", "subtype": "noteOff", "noteNumber": 52, "velocity": 0  },
      { "deltaTime": 481, "channel": 2, "type": "channel", "noteNumber": 64, "velocity": 56, "subtype": "noteOn"  },
      { "deltaTime": 239, "channel": 2, "type": "channel", "subtype": "noteOff", "noteNumber": 64, "velocity": 0  },
      { "deltaTime": 1, "channel": 2, "type": "channel", "noteNumber": 59, "velocity": 56, "subtype": "noteOn"  },
      { "deltaTime": 239, "channel": 2, "type": "channel", "subtype": "noteOff", "noteNumber": 59, "velocity": 0  },
      { "deltaTime": 241, "channel": 2, "type": "channel", "noteNumber": 59, "velocity": 56, "subtype": "noteOn"  },
      { "deltaTime": 239, "channel": 2, "type": "channel", "subtype": "noteOff", "noteNumber": 59, "velocity": 0  },
      { "deltaTime": 241, "channel": 2, "type": "channel", "noteNumber": 64, "velocity": 56, "subtype": "noteOn"  },
      { "deltaTime": 239, "channel": 2, "type": "channel", "subtype": "noteOff", "noteNumber": 64, "velocity": 0  },
      { "deltaTime": 241, "channel": 2, "type": "channel", "noteNumber": 59, "velocity": 56, "subtype": "noteOn"  },
      { "deltaTime": 239, "channel": 2, "type": "channel", "subtype": "noteOff", "noteNumber": 59, "velocity": 0  },
      { "deltaTime": 241, "channel": 2, "type": "channel", "noteNumber": 59, "velocity": 56, "subtype": "noteOn"  },
      { "deltaTime": 239, "channel": 2, "type": "channel", "subtype": "noteOff", "noteNumber": 59, "velocity": 0  },
      { "deltaTime": 481, "channel": 2, "type": "channel", "noteNumber": 64, "velocity": 56, "subtype": "noteOn"  },
      { "deltaTime": 239, "channel": 2, "type": "channel", "subtype": "noteOff", "noteNumber": 64, "velocity": 0  },
      { "deltaTime": 1, "channel": 2, "type": "channel", "noteNumber": 59, "velocity": 56, "subtype": "noteOn"  },
      { "deltaTime": 239, "channel": 2, "type": "channel", "subtype": "noteOff", "noteNumber": 59, "velocity": 0  },
      { "deltaTime": 481, "channel": 2, "type": "channel", "noteNumber": 64, "velocity": 56, "subtype": "noteOn"  },
      { "deltaTime": 239, "channel": 2, "type": "channel", "subtype": "noteOff", "noteNumber": 64, "velocity": 0  },
      { "deltaTime": 1, "channel": 2, "type": "channel", "noteNumber": 59, "velocity": 56, "subtype": "noteOn"  },
      { "deltaTime": 239, "channel": 2, "type": "channel", "subtype": "noteOff", "noteNumber": 59, "velocity": 0  },
      { "deltaTime": 241, "channel": 2, "type": "channel", "noteNumber": 59, "velocity": 56, "subtype": "noteOn"  },
      { "deltaTime": 239, "channel": 2, "type": "channel", "subtype": "noteOff", "noteNumber": 59, "velocity": 0  },
      { "deltaTime": 241, "channel": 2, "type": "channel", "noteNumber": 64, "velocity": 56, "subtype": "noteOn"  },
      { "deltaTime": 239, "channel": 2, "type": "channel", "subtype": "noteOff", "noteNumber": 64, "velocity": 0  },
      { "deltaTime": 241, "channel": 2, "type": "channel", "noteNumber": 59, "velocity": 56, "subtype": "noteOn"  },
      { "deltaTime": 239, "channel": 2, "type": "channel", "subtype": "noteOff", "noteNumber": 59, "velocity": 0  },
      { "deltaTime": 241, "channel": 2, "type": "channel", "noteNumber": 59, "velocity": 56, "subtype": "noteOn"  },
      { "deltaTime": 239, "channel": 2, "type": "channel", "subtype": "noteOff", "noteNumber": 59, "velocity": 0  },
      { "deltaTime": 481, "channel": 2, "type": "channel", "noteNumber": 64, "velocity": 56, "subtype": "noteOn"  },
      { "deltaTime": 239, "channel": 2, "type": "channel", "subtype": "noteOff", "noteNumber": 64, "velocity": 0  },
      { "deltaTime": 1, "channel": 2, "type": "channel", "noteNumber": 76, "velocity": 56, "subtype": "noteOn"  },
      { "deltaTime": 239, "channel": 2, "type": "channel", "subtype": "noteOff", "noteNumber": 76, "velocity": 0  },
      { "deltaTime": 241, "channel": 2, "type": "channel", "noteNumber": 59, "velocity": 56, "subtype": "noteOn"  },
      { "deltaTime": 239, "channel": 2, "type": "channel", "subtype": "noteOff", "noteNumber": 59, "velocity": 0  },
      { "deltaTime": 1, "channel": 2, "type": "channel", "noteNumber": 76, "velocity": 56, "subtype": "noteOn"  },
      { "deltaTime": 239, "channel": 2, "type": "channel", "subtype": "noteOff", "noteNumber": 76, "velocity": 0  },
      { "deltaTime": 241, "channel": 2, "type": "channel", "noteNumber": 64, "velocity": 56, "subtype": "noteOn"  },
      { "deltaTime": 239, "channel": 2, "type": "channel", "subtype": "noteOff", "noteNumber": 64, "velocity": 0  },
      { "deltaTime": 1, "channel": 2, "type": "channel", "noteNumber": 76, "velocity": 56, "subtype": "noteOn"  },
      { "deltaTime": 239, "channel": 2, "type": "channel", "subtype": "noteOff", "noteNumber": 76, "velocity": 0  },
      { "deltaTime": 241, "channel": 2, "type": "channel", "noteNumber": 59, "velocity": 56, "subtype": "noteOn"  },
      { "deltaTime": 239, "channel": 2, "type": "channel", "subtype": "noteOff", "noteNumber": 59, "velocity": 0  },
      { "deltaTime": 1, "channel": 2, "type": "channel", "noteNumber": 76, "velocity": 56, "subtype": "noteOn"  },
      { "deltaTime": 239, "channel": 2, "type": "channel", "subtype": "noteOff", "noteNumber": 76, "velocity": 0  },
      { "deltaTime": 241, "channel": 2, "type": "channel", "noteNumber": 64, "velocity": 56, "subtype": "noteOn"  },
      { "deltaTime": 239, "channel": 2, "type": "channel", "subtype": "noteOff", "noteNumber": 64, "velocity": 0  },
      { "deltaTime": 1, "channel": 2, "type": "channel", "noteNumber": 76, "velocity": 56, "subtype": "noteOn"  },
      { "deltaTime": 239, "channel": 2, "type": "channel", "subtype": "noteOff", "noteNumber": 76, "velocity": 0  },
      { "deltaTime": 241, "channel": 2, "type": "channel", "noteNumber": 59, "velocity": 56, "subtype": "noteOn"  },
      { "deltaTime": 239, "channel": 2, "type": "channel", "subtype": "noteOff", "noteNumber": 59, "velocity": 0  },
      { "deltaTime": 1, "channel": 2, "type": "channel", "noteNumber": 76, "velocity": 56, "subtype": "noteOn"  },
      { "deltaTime": 239, "channel": 2, "type": "channel", "subtype": "noteOff", "noteNumber": 76, "velocity": 0  },
      { "deltaTime": 241, "channel": 2, "type": "channel", "noteNumber": 64, "velocity": 56, "subtype": "noteOn"  },
      { "deltaTime": 239, "channel": 2, "type": "channel", "subtype": "noteOff", "noteNumber": 64, "velocity": 0  },
      { "deltaTime": 1, "channel": 2, "type": "channel", "noteNumber": 76, "velocity": 56, "subtype": "noteOn"  },
      { "deltaTime": 239, "channel": 2, "type": "channel", "subtype": "noteOff", "noteNumber": 76, "velocity": 0  },
      { "deltaTime": 241, "channel": 2, "type": "channel", "noteNumber": 59, "velocity": 56, "subtype": "noteOn"  },
      { "deltaTime": 239, "channel": 2, "type": "channel", "subtype": "noteOff", "noteNumber": 59, "velocity": 0  },
      { "deltaTime": 1, "channel": 2, "type": "channel", "noteNumber": 76, "velocity": 56, "subtype": "noteOn"  },
      { "deltaTime": 239, "channel": 2, "type": "channel", "subtype": "noteOff", "noteNumber": 76, "velocity": 0  },
      { "deltaTime": 241, "channel": 2, "type": "channel", "noteNumber": 64, "velocity": 56, "subtype": "noteOn"  },
      { "deltaTime": 239, "channel": 2, "type": "channel", "subtype": "noteOff", "noteNumber": 64, "velocity": 0  },
      { "deltaTime": 1, "channel": 2, "type": "channel", "noteNumber": 76, "velocity": 56, "subtype": "noteOn"  },
      { "deltaTime": 239, "channel": 2, "type": "channel", "subtype": "noteOff", "noteNumber": 76, "velocity": 0  },
      { "deltaTime": 241, "channel": 2, "type": "channel", "noteNumber": 59, "velocity": 56, "subtype": "noteOn"  },
      { "deltaTime": 239, "channel": 2, "type": "channel", "subtype": "noteOff", "noteNumber": 59, "velocity": 0  },
      { "deltaTime": 1, "channel": 2, "type": "channel", "noteNumber": 76, "velocity": 56, "subtype": "noteOn"  },
      { "deltaTime": 239, "channel": 2, "type": "channel", "subtype": "noteOff", "noteNumber": 76, "velocity": 0  },
      { "deltaTime": 5041, "channel": 2, "type": "channel", "noteNumber": 61, "velocity": 56, "subtype": "noteOn"  },
      { "deltaTime": 239, "channel": 2, "type": "channel", "subtype": "noteOff", "noteNumber": 61, "velocity": 0  },
      { "deltaTime": 1, "channel": 2, "type": "channel", "noteNumber": 52, "velocity": 56, "subtype": "noteOn"  },
      { "deltaTime": 239, "channel": 2, "type": "channel", "subtype": "noteOff", "noteNumber": 52, "velocity": 0  },
      { "deltaTime": 1, "channel": 2, "type": "channel", "noteNumber": 62, "velocity": 56, "subtype": "noteOn"  },
      { "deltaTime": 239, "channel": 2, "type": "channel", "subtype": "noteOff", "noteNumber": 62, "velocity": 0  },
      { "deltaTime": 1, "channel": 2, "type": "channel", "noteNumber": 52, "velocity": 56, "subtype": "noteOn"  },
      { "deltaTime": 239, "channel": 2, "type": "channel", "subtype": "noteOff", "noteNumber": 52, "velocity": 0  },
      { "deltaTime": 1, "channel": 2, "type": "channel", "noteNumber": 61, "velocity": 56, "subtype": "noteOn"  },
      { "deltaTime": 239, "channel": 2, "type": "channel", "subtype": "noteOff", "noteNumber": 61, "velocity": 0  },
      { "deltaTime": 1, "channel": 2, "type": "channel", "noteNumber": 52, "velocity": 56, "subtype": "noteOn"  },
      { "deltaTime": 239, "channel": 2, "type": "channel", "subtype": "noteOff", "noteNumber": 52, "velocity": 0  },
      { "deltaTime": 1, "channel": 2, "type": "channel", "noteNumber": 62, "velocity": 56, "subtype": "noteOn"  },
      { "deltaTime": 239, "channel": 2, "type": "channel", "subtype": "noteOff", "noteNumber": 62, "velocity": 0  },
      { "deltaTime": 1, "channel": 2, "type": "channel", "noteNumber": 64, "velocity": 56, "subtype": "noteOn"  },
      { "deltaTime": 239, "channel": 2, "type": "channel", "subtype": "noteOff", "noteNumber": 64, "velocity": 0  },
      { "deltaTime": 1, "channel": 2, "type": "channel", "noteNumber": 52, "velocity": 56, "subtype": "noteOn"  },
      { "deltaTime": 239, "channel": 2, "type": "channel", "subtype": "noteOff", "noteNumber": 52, "velocity": 0  },
      { "deltaTime": 1, "channel": 2, "type": "channel", "noteNumber": 64, "velocity": 56, "subtype": "noteOn"  },
      { "deltaTime": 239, "channel": 2, "type": "channel", "subtype": "noteOff", "noteNumber": 64, "velocity": 0  },
      { "deltaTime": 4321, "channel": 2, "type": "channel", "noteNumber": 61, "velocity": 56, "subtype": "noteOn"  },
      { "deltaTime": 239, "channel": 2, "type": "channel", "subtype": "noteOff", "noteNumber": 61, "velocity": 0  },
      { "deltaTime": 241, "channel": 2, "type": "channel", "noteNumber": 62, "velocity": 56, "subtype": "noteOn"  },
      { "deltaTime": 239, "channel": 2, "type": "channel", "subtype": "noteOff", "noteNumber": 62, "velocity": 0  },
      { "deltaTime": 241, "channel": 2, "type": "channel", "noteNumber": 61, "velocity": 56, "subtype": "noteOn"  },
      { "deltaTime": 239, "channel": 2, "type": "channel", "subtype": "noteOff", "noteNumber": 61, "velocity": 0  },
      { "deltaTime": 241, "channel": 2, "type": "channel", "noteNumber": 62, "velocity": 56, "subtype": "noteOn"  },
      { "deltaTime": 239, "channel": 2, "type": "channel", "subtype": "noteOff", "noteNumber": 62, "velocity": 0  },
      { "deltaTime": 1, "channel": 2, "type": "channel", "noteNumber": 61, "velocity": 56, "subtype": "noteOn"  },
      { "deltaTime": 239, "channel": 2, "type": "channel", "subtype": "noteOff", "noteNumber": 61, "velocity": 0  },
      { "deltaTime": 241, "channel": 2, "type": "channel", "noteNumber": 59, "velocity": 56, "subtype": "noteOn"  },
      { "deltaTime": 239, "channel": 2, "type": "channel", "subtype": "noteOff", "noteNumber": 59, "velocity": 0  },
      { "deltaTime": 481, "channel": 2, "type": "channel", "noteNumber": 55, "velocity": 56, "subtype": "noteOn"  },
      { "deltaTime": 239, "channel": 2, "type": "channel", "subtype": "noteOff", "noteNumber": 55, "velocity": 0  },
      { "deltaTime": 1, "channel": 2, "type": "channel", "noteNumber": 52, "velocity": 56, "subtype": "noteOn"  },
      { "deltaTime": 239, "channel": 2, "type": "channel", "subtype": "noteOff", "noteNumber": 52, "velocity": 0  },
      { "deltaTime": 3361, "channel": 2, "type": "channel", "noteNumber": 61, "velocity": 56, "subtype": "noteOn"  },
      { "deltaTime": 239, "channel": 2, "type": "channel", "subtype": "noteOff", "noteNumber": 61, "velocity": 0  },
      { "deltaTime": 1, "channel": 2, "type": "channel", "noteNumber": 52, "velocity": 56, "subtype": "noteOn"  },
      { "deltaTime": 239, "channel": 2, "type": "channel", "subtype": "noteOff", "noteNumber": 52, "velocity": 0  },
      { "deltaTime": 1, "channel": 2, "type": "channel", "noteNumber": 62, "velocity": 56, "subtype": "noteOn"  },
      { "deltaTime": 239, "channel": 2, "type": "channel", "subtype": "noteOff", "noteNumber": 62, "velocity": 0  },
      { "deltaTime": 1, "channel": 2, "type": "channel", "noteNumber": 52, "velocity": 56, "subtype": "noteOn"  },
      { "deltaTime": 239, "channel": 2, "type": "channel", "subtype": "noteOff", "noteNumber": 52, "velocity": 0  },
      { "deltaTime": 1, "channel": 2, "type": "channel", "noteNumber": 61, "velocity": 56, "subtype": "noteOn"  },
      { "deltaTime": 239, "channel": 2, "type": "channel", "subtype": "noteOff", "noteNumber": 61, "velocity": 0  },
      { "deltaTime": 1, "channel": 2, "type": "channel", "noteNumber": 52, "velocity": 56, "subtype": "noteOn"  },
      { "deltaTime": 239, "channel": 2, "type": "channel", "subtype": "noteOff", "noteNumber": 52, "velocity": 0  },
      { "deltaTime": 1, "channel": 2, "type": "channel", "noteNumber": 62, "velocity": 56, "subtype": "noteOn"  },
      { "deltaTime": 239, "channel": 2, "type": "channel", "subtype": "noteOff", "noteNumber": 62, "velocity": 0  },
      { "deltaTime": 1, "channel": 2, "type": "channel", "noteNumber": 64, "velocity": 56, "subtype": "noteOn"  },
      { "deltaTime": 239, "channel": 2, "type": "channel", "subtype": "noteOff", "noteNumber": 64, "velocity": 0  },
      { "deltaTime": 1, "channel": 2, "type": "channel", "noteNumber": 52, "velocity": 56, "subtype": "noteOn"  },
      { "deltaTime": 239, "channel": 2, "type": "channel", "subtype": "noteOff", "noteNumber": 52, "velocity": 0  },
      { "deltaTime": 1, "channel": 2, "type": "channel", "noteNumber": 64, "velocity": 56, "subtype": "noteOn"  },
      { "deltaTime": 239, "channel": 2, "type": "channel", "subtype": "noteOff", "noteNumber": 64, "velocity": 0  },
      { "deltaTime": 11041, "channel": 2, "type": "channel", "noteNumber": 64, "velocity": 56, "subtype": "noteOn"  },
      { "deltaTime": 239, "channel": 2, "type": "channel", "subtype": "noteOff", "noteNumber": 64, "velocity": 0  },
      { "deltaTime": 241, "channel": 2, "type": "channel", "noteNumber": 68, "velocity": 56, "subtype": "noteOn"  },
      { "deltaTime": 239, "channel": 2, "type": "channel", "subtype": "noteOff", "noteNumber": 68, "velocity": 0  },
      { "deltaTime": 241, "channel": 2, "type": "channel", "noteNumber": 71, "velocity": 56, "subtype": "noteOn"  },
      { "deltaTime": 239, "channel": 2, "type": "channel", "subtype": "noteOff", "noteNumber": 71, "velocity": 0  },
      { "deltaTime": 241, "channel": 2, "type": "channel", "noteNumber": 74, "velocity": 56, "subtype": "noteOn"  },
      { "deltaTime": 239, "channel": 2, "type": "channel", "subtype": "noteOff", "noteNumber": 74, "velocity": 0  },
      { "deltaTime": 241, "channel": 2, "type": "channel", "noteNumber": 75, "velocity": 56, "subtype": "noteOn"  },
      { "deltaTime": 239, "channel": 2, "type": "channel", "subtype": "noteOff", "noteNumber": 75, "velocity": 0  },
      { "deltaTime": 1, "channel": 2, "type": "channel", "noteNumber": 76, "velocity": 56, "subtype": "noteOn"  },
      { "deltaTime": 239, "channel": 2, "type": "channel", "subtype": "noteOff", "noteNumber": 76, "velocity": 0  },
      { "deltaTime": 4321, "channel": 2, "type": "channel", "noteNumber": 71, "velocity": 56, "subtype": "noteOn"  },
      { "deltaTime": 239, "channel": 2, "type": "channel", "subtype": "noteOff", "noteNumber": 71, "velocity": 0  },
      { "deltaTime": 241, "channel": 2, "type": "channel", "noteNumber": 74, "velocity": 56, "subtype": "noteOn"  },
      { "deltaTime": 239, "channel": 2, "type": "channel", "subtype": "noteOff", "noteNumber": 74, "velocity": 0  },
      { "deltaTime": 241, "channel": 2, "type": "channel", "noteNumber": 75, "velocity": 56, "subtype": "noteOn"  },
      { "deltaTime": 239, "channel": 2, "type": "channel", "subtype": "noteOff", "noteNumber": 75, "velocity": 0  },
      { "deltaTime": 241, "channel": 2, "type": "channel", "noteNumber": 77, "velocity": 56, "subtype": "noteOn"  },
      { "deltaTime": 239, "channel": 2, "type": "channel", "subtype": "noteOff", "noteNumber": 77, "velocity": 0  },
      { "deltaTime": 241, "channel": 2, "type": "channel", "noteNumber": 78, "velocity": 56, "subtype": "noteOn"  },
      { "deltaTime": 239, "channel": 2, "type": "channel", "subtype": "noteOff", "noteNumber": 78, "velocity": 0  },
      { "deltaTime": 1, "channel": 2, "type": "channel", "noteNumber": 79, "velocity": 56, "subtype": "noteOn"  },
      { "deltaTime": 239, "channel": 2, "type": "channel", "subtype": "noteOff", "noteNumber": 79, "velocity": 0  },
      { "deltaTime": 4321, "channel": 2, "type": "channel", "noteNumber": 64, "velocity": 56, "subtype": "noteOn"  },
      { "deltaTime": 239, "channel": 2, "type": "channel", "subtype": "noteOff", "noteNumber": 64, "velocity": 0  },
      { "deltaTime": 241, "channel": 2, "type": "channel", "noteNumber": 68, "velocity": 56, "subtype": "noteOn"  },
      { "deltaTime": 239, "channel": 2, "type": "channel", "subtype": "noteOff", "noteNumber": 68, "velocity": 0  },
      { "deltaTime": 241, "channel": 2, "type": "channel", "noteNumber": 71, "velocity": 56, "subtype": "noteOn"  },
      { "deltaTime": 239, "channel": 2, "type": "channel", "subtype": "noteOff", "noteNumber": 71, "velocity": 0  },
      { "deltaTime": 241, "channel": 2, "type": "channel", "noteNumber": 74, "velocity": 56, "subtype": "noteOn"  },
      { "deltaTime": 239, "channel": 2, "type": "channel", "subtype": "noteOff", "noteNumber": 74, "velocity": 0  },
      { "deltaTime": 241, "channel": 2, "type": "channel", "noteNumber": 75, "velocity": 56, "subtype": "noteOn"  },
      { "deltaTime": 239, "channel": 2, "type": "channel", "subtype": "noteOff", "noteNumber": 75, "velocity": 0  },
      { "deltaTime": 1, "channel": 2, "type": "channel", "noteNumber": 76, "velocity": 56, "subtype": "noteOn"  },
      { "deltaTime": 239, "channel": 2, "type": "channel", "subtype": "noteOff", "noteNumber": 76, "velocity": 0  },
      { "deltaTime": 4321, "channel": 2, "type": "channel", "noteNumber": 52, "velocity": 56, "subtype": "noteOn"  },
      { "deltaTime": 239, "channel": 2, "type": "channel", "subtype": "noteOff", "noteNumber": 52, "velocity": 0  },
      { "deltaTime": 241, "channel": 2, "type": "channel", "noteNumber": 64, "velocity": 56, "subtype": "noteOn"  },
      { "deltaTime": 239, "channel": 2, "type": "channel", "subtype": "noteOff", "noteNumber": 64, "velocity": 0  },
      { "deltaTime": 241, "channel": 2, "type": "channel", "noteNumber": 52, "velocity": 56, "subtype": "noteOn"  },
      { "deltaTime": 239, "channel": 2, "type": "channel", "subtype": "noteOff", "noteNumber": 52, "velocity": 0  },
      { "deltaTime": 241, "channel": 2, "type": "channel", "noteNumber": 52, "velocity": 56, "subtype": "noteOn"  },
      { "deltaTime": 239, "channel": 2, "type": "channel", "subtype": "noteOff", "noteNumber": 52, "velocity": 0  },
      { "deltaTime": 0, "type": "meta", "subtype": "endOfTrack" }
    ],
    [
      { "deltaTime": 0, "channel": 3, "type": "channel", "subtype": "programChange", "programNumber": 81  },
      { "deltaTime": 0, "channel": 3, "type": "channel", "subtype": "controller", "controllerType": 7, "value": 100  },
      { "deltaTime": 0, "type": "meta", "subtype": "trackName", "text": "MIDI Chn 4"  },
      { "deltaTime": 0, "type": "meta", "subtype": "unknown", "data": "\u0001"  },
      { "deltaTime": 84480, "channel": 3, "type": "channel", "noteNumber": 28, "velocity": 64, "subtype": "noteOn"  },
      { "deltaTime": 0, "channel": 3, "type": "channel", "noteNumber": 40, "velocity": 64, "subtype": "noteOn"  },
      { "deltaTime": 479, "channel": 3, "type": "channel", "subtype": "noteOff", "noteNumber": 28, "velocity": 0  },
      { "deltaTime": 0, "channel": 3, "type": "channel", "subtype": "noteOff", "noteNumber": 40, "velocity": 0  },
      { "deltaTime": 26401, "channel": 3, "type": "channel", "noteNumber": 28, "velocity": 64, "subtype": "noteOn"  },
      { "deltaTime": 0, "channel": 3, "type": "channel", "noteNumber": 40, "velocity": 64, "subtype": "noteOn"  },
      { "deltaTime": 479, "channel": 3, "type": "channel", "subtype": "noteOff", "noteNumber": 28, "velocity": 0  },
      { "deltaTime": 0, "channel": 3, "type": "channel", "subtype": "noteOff", "noteNumber": 40, "velocity": 0  },
      { "deltaTime": 26401, "channel": 3, "type": "channel", "noteNumber": 28, "velocity": 64, "subtype": "noteOn"  },
      { "deltaTime": 0, "channel": 3, "type": "channel", "noteNumber": 40, "velocity": 64, "subtype": "noteOn"  },
      { "deltaTime": 479, "channel": 3, "type": "channel", "subtype": "noteOff", "noteNumber": 28, "velocity": 0  },
      { "deltaTime": 0, "channel": 3, "type": "channel", "subtype": "noteOff", "noteNumber": 40, "velocity": 0  },
      { "deltaTime": 6241, "channel": 3, "type": "channel", "noteNumber": 40, "velocity": 64, "subtype": "noteOn"  },
      { "deltaTime": 0, "channel": 3, "type": "channel", "noteNumber": 52, "velocity": 64, "subtype": "noteOn"  },
      { "deltaTime": 479, "channel": 3, "type": "channel", "subtype": "noteOff", "noteNumber": 40, "velocity": 0  },
      { "deltaTime": 0, "channel": 3, "type": "channel", "subtype": "noteOff", "noteNumber": 52, "velocity": 0  },
      { "deltaTime": 113761, "channel": 3, "type": "channel", "noteNumber": 40, "velocity": 64, "subtype": "noteOn"  },
      { "deltaTime": 0, "channel": 3, "type": "channel", "noteNumber": 52, "velocity": 64, "subtype": "noteOn"  },
      { "deltaTime": 479, "channel": 3, "type": "channel", "subtype": "noteOff", "noteNumber": 40, "velocity": 0  },
      { "deltaTime": 0, "channel": 3, "type": "channel", "subtype": "noteOff", "noteNumber": 52, "velocity": 0  },
      { "deltaTime": 241, "channel": 3, "type": "channel", "noteNumber": 40, "velocity": 64, "subtype": "noteOn"  },
      { "deltaTime": 0, "channel": 3, "type": "channel", "noteNumber": 52, "velocity": 64, "subtype": "noteOn"  },
      { "deltaTime": 479, "channel": 3, "type": "channel", "subtype": "noteOff", "noteNumber": 40, "velocity": 0  },
      { "deltaTime": 0, "channel": 3, "type": "channel", "subtype": "noteOff", "noteNumber": 52, "velocity": 0  },
      { "deltaTime": 241, "channel": 3, "type": "channel", "noteNumber": 40, "velocity": 64, "subtype": "noteOn"  },
      { "deltaTime": 0, "channel": 3, "type": "channel", "noteNumber": 52, "velocity": 64, "subtype": "noteOn"  },
      { "deltaTime": 479, "channel": 3, "type": "channel", "subtype": "noteOff", "noteNumber": 40, "velocity": 0  },
      { "deltaTime": 0, "channel": 3, "type": "channel", "subtype": "noteOff", "noteNumber": 52, "velocity": 0  },
      { "deltaTime": 241, "channel": 3, "type": "channel", "noteNumber": 40, "velocity": 64, "subtype": "noteOn"  },
      { "deltaTime": 0, "channel": 3, "type": "channel", "noteNumber": 52, "velocity": 64, "subtype": "noteOn"  },
      { "deltaTime": 479, "channel": 3, "type": "channel", "subtype": "noteOff", "noteNumber": 40, "velocity": 0  },
      { "deltaTime": 0, "channel": 3, "type": "channel", "subtype": "noteOff", "noteNumber": 52, "velocity": 0  },
      { "deltaTime": 241, "channel": 3, "type": "channel", "noteNumber": 40, "velocity": 64, "subtype": "noteOn"  },
      { "deltaTime": 0, "channel": 3, "type": "channel", "noteNumber": 52, "velocity": 64, "subtype": "noteOn"  },
      { "deltaTime": 479, "channel": 3, "type": "channel", "subtype": "noteOff", "noteNumber": 40, "velocity": 0  },
      { "deltaTime": 0, "channel": 3, "type": "channel", "subtype": "noteOff", "noteNumber": 52, "velocity": 0  },
      { "deltaTime": 241, "channel": 3, "type": "channel", "noteNumber": 40, "velocity": 64, "subtype": "noteOn"  },
      { "deltaTime": 0, "channel": 3, "type": "channel", "noteNumber": 52, "velocity": 64, "subtype": "noteOn"  },
      { "deltaTime": 479, "channel": 3, "type": "channel", "subtype": "noteOff", "noteNumber": 40, "velocity": 0  },
      { "deltaTime": 0, "channel": 3, "type": "channel", "subtype": "noteOff", "noteNumber": 52, "velocity": 0  },
      { "deltaTime": 241, "channel": 3, "type": "channel", "noteNumber": 40, "velocity": 64, "subtype": "noteOn"  },
      { "deltaTime": 0, "channel": 3, "type": "channel", "noteNumber": 52, "velocity": 64, "subtype": "noteOn"  },
      { "deltaTime": 479, "channel": 3, "type": "channel", "subtype": "noteOff", "noteNumber": 40, "velocity": 0  },
      { "deltaTime": 0, "channel": 3, "type": "channel", "subtype": "noteOff", "noteNumber": 52, "velocity": 0  },
      { "deltaTime": 241, "channel": 3, "type": "channel", "noteNumber": 40, "velocity": 64, "subtype": "noteOn"  },
      { "deltaTime": 0, "channel": 3, "type": "channel", "noteNumber": 52, "velocity": 64, "subtype": "noteOn"  },
      { "deltaTime": 479, "channel": 3, "type": "channel", "subtype": "noteOff", "noteNumber": 40, "velocity": 0  },
      { "deltaTime": 0, "channel": 3, "type": "channel", "subtype": "noteOff", "noteNumber": 52, "velocity": 0  },
      { "deltaTime": 1, "channel": 3, "type": "channel", "noteNumber": 40, "velocity": 64, "subtype": "noteOn"  },
      { "deltaTime": 0, "channel": 3, "type": "channel", "noteNumber": 52, "velocity": 64, "subtype": "noteOn"  },
      { "deltaTime": 479, "channel": 3, "type": "channel", "subtype": "noteOff", "noteNumber": 40, "velocity": 0  },
      { "deltaTime": 0, "channel": 3, "type": "channel", "subtype": "noteOff", "noteNumber": 52, "velocity": 0  },
      { "deltaTime": 1, "channel": 3, "type": "channel", "noteNumber": 40, "velocity": 64, "subtype": "noteOn"  },
      { "deltaTime": 0, "channel": 3, "type": "channel", "noteNumber": 52, "velocity": 64, "subtype": "noteOn"  },
      { "deltaTime": 479, "channel": 3, "type": "channel", "subtype": "noteOff", "noteNumber": 40, "velocity": 0  },
      { "deltaTime": 0, "channel": 3, "type": "channel", "subtype": "noteOff", "noteNumber": 52, "velocity": 0  },
      { "deltaTime": 241, "channel": 3, "type": "channel", "noteNumber": 28, "velocity": 64, "subtype": "noteOn"  },
      { "deltaTime": 0, "channel": 3, "type": "channel", "noteNumber": 40, "velocity": 64, "subtype": "noteOn"  },
      { "deltaTime": 479, "channel": 3, "type": "channel", "subtype": "noteOff", "noteNumber": 28, "velocity": 0  },
      { "deltaTime": 0, "channel": 3, "type": "channel", "subtype": "noteOff", "noteNumber": 40, "velocity": 0  },
      { "deltaTime": 961, "channel": 3, "type": "channel", "noteNumber": 28, "velocity": 64, "subtype": "noteOn"  },
      { "deltaTime": 0, "channel": 3, "type": "channel", "noteNumber": 40, "velocity": 64, "subtype": "noteOn"  },
      { "deltaTime": 479, "channel": 3, "type": "channel", "subtype": "noteOff", "noteNumber": 28, "velocity": 0  },
      { "deltaTime": 0, "channel": 3, "type": "channel", "subtype": "noteOff", "noteNumber": 40, "velocity": 0  },
      { "deltaTime": 961, "channel": 3, "type": "channel", "noteNumber": 28, "velocity": 64, "subtype": "noteOn"  },
      { "deltaTime": 0, "channel": 3, "type": "channel", "noteNumber": 40, "velocity": 64, "subtype": "noteOn"  },
      { "deltaTime": 479, "channel": 3, "type": "channel", "subtype": "noteOff", "noteNumber": 28, "velocity": 0  },
      { "deltaTime": 0, "channel": 3, "type": "channel", "subtype": "noteOff", "noteNumber": 40, "velocity": 0  },
      { "deltaTime": 961, "channel": 3, "type": "channel", "noteNumber": 28, "velocity": 64, "subtype": "noteOn"  },
      { "deltaTime": 0, "channel": 3, "type": "channel", "noteNumber": 40, "velocity": 64, "subtype": "noteOn"  },
      { "deltaTime": 479, "channel": 3, "type": "channel", "subtype": "noteOff", "noteNumber": 28, "velocity": 0  },
      { "deltaTime": 0, "channel": 3, "type": "channel", "subtype": "noteOff", "noteNumber": 40, "velocity": 0  },
      { "deltaTime": 961, "channel": 3, "type": "channel", "noteNumber": 28, "velocity": 64, "subtype": "noteOn"  },
      { "deltaTime": 0, "channel": 3, "type": "channel", "noteNumber": 40, "velocity": 64, "subtype": "noteOn"  },
      { "deltaTime": 479, "channel": 3, "type": "channel", "subtype": "noteOff", "noteNumber": 28, "velocity": 0  },
      { "deltaTime": 0, "channel": 3, "type": "channel", "subtype": "noteOff", "noteNumber": 40, "velocity": 0  },
      { "deltaTime": 134881, "channel": 3, "type": "channel", "noteNumber": 28, "velocity": 64, "subtype": "noteOn"  },
      { "deltaTime": 0, "channel": 3, "type": "channel", "noteNumber": 40, "velocity": 64, "subtype": "noteOn"  },
      { "deltaTime": 479, "channel": 3, "type": "channel", "subtype": "noteOff", "noteNumber": 28, "velocity": 0  },
      { "deltaTime": 0, "channel": 3, "type": "channel", "subtype": "noteOff", "noteNumber": 40, "velocity": 0  },
      { "deltaTime": 0, "type": "meta", "subtype": "endOfTrack" }
    ]
  ]
}